<svg xmlns="http://www.w3.org/2000/svg" width="33.342" height="33.35" viewBox="0 0 33.342 33.35"><defs><style>.a{fill:none;stroke:#fff;stroke-linecap:round;stroke-linejoin:round;}</style></defs><g transform="translate(0.671 0.671)"><path class="a" d="M12.743,14.282l-5.93,2.979a2.806,2.806,0,0,1-3.769-1.249h0a2.806,2.806,0,0,1,1.249-3.769l8.78-4.409,1.682,3.349" transform="translate(0.092 2.243)"/><path class="a" d="M10.539,11.141a2.806,2.806,0,0,1,1.247-3.769l8.782-4.409L24.35,10.49l-7.27,3.652" transform="translate(3.256 0.186)"/><line class="a" y1="1.577" x2="3.136" transform="translate(0 18.255)"/><path class="a" d="M2.807,0h1.4V11.235h-1.4A2.807,2.807,0,0,1,0,8.428V2.809A2.807,2.807,0,0,1,2.807,0Z" transform="translate(23.192 1.891) rotate(-26.68)"/><path class="a" d="M17.828,12.1A4.266,4.266,0,1,1,12.1,10.206,4.266,4.266,0,0,1,17.828,12.1Z" transform="translate(3.049 3.05)"/><line class="a" y2="10.666" transform="translate(17.065 21.334)"/><line class="a" y1="11.97" x2="6.529" transform="translate(7.467 20.03)"/><line class="a" x1="6.529" y1="11.97" transform="translate(20.137 20.03)"/></g></svg>