<svg id="SvgjsSvg1001" width="288" height="288" xmlns="http://www.w3.org/2000/svg" version="1.1" xmlns:xlink="http://www.w3.org/1999/xlink" xmlns:svgjs="http://svgjs.com/svgjs"><defs id="SvgjsDefs1002"></defs><g id="SvgjsG1008" transform="matrix(0.9167,0,0,0.9167,11.995200000000011,12.509953907680512)"><svg xmlns="http://www.w3.org/2000/svg" width="288" height="288" viewBox="0 0 1024 1024"><path d="M250.149 294.766c-137.509 137.509-250.149 253.806-250.149 258.194 0 5.12 5.12 12.434 11.703 18.286 9.509 8.046 43.886-23.406 256-235.52l244.297-244.297 244.297 244.297c212.114 212.114 246.491 243.566 256 235.52 6.583-5.851 11.703-13.897 11.703-18.286 0-12.434-499.566-509.074-512-509.074-5.851 0-123.611 112.64-261.851 250.88z" fill="#ffffff" class="color000 svgShape"></path><path d="M128.731 566.857c-8.046 21.211-5.12 387.657 3.657 411.794 13.897 40.96 29.989 45.349 155.063 45.349 144.091 0 136.777 6.583 137.509-121.417 0-109.714 8.046-138.24 42.423-161.646 31.451-21.211 57.783-21.211 89.234 0 34.377 23.406 42.423 51.931 42.423 163.109 0.731 125.806-6.583 119.954 138.971 119.954 123.611 0 139.703-5.12 153.6-45.349 8.777-24.137 11.703-368.64 3.657-389.12-2.194-6.583-12.434-11.703-21.943-11.703h-17.554v189.44c0 104.594-2.194 194.56-4.389 201.143-3.657 10.24-20.48 11.703-105.326 11.703h-100.937l-2.926-100.206c-2.926-103.131-7.314-120.686-38.034-154.331-23.406-26.331-54.857-39.497-92.16-39.497-36.571 0-59.246 8.777-86.309 33.646-34.377 30.72-40.96 53.394-43.886 160.183l-2.926 100.206h-101.669c-56.32 0-102.4-0.731-103.131-2.194-0.731-0.731-3.657-95.086-5.851-209.92-3.657-205.531-3.657-208.457-19.017-210.651-9.509-1.463-17.554 2.926-20.48 9.509z" fill="#ffffff" class="color000 svgShape"></path></svg></g></svg>