<svg xmlns="http://www.w3.org/2000/svg" width="28" height="32" viewBox="0 0 28 32"><defs><style>.a,.b,.e{fill:none;}.a,.b{stroke:#fff;}.a{stroke-linecap:round;stroke-linejoin:round;}.c{fill:#fff;}.d{stroke:none;}</style></defs><path class="a" d="M20.25,15.25l1-3.5,2,2.333,1-5.833" transform="translate(-4.832 1.223)"/><path class="a" d="M4.75,15.25l-1-3.5-2,2.333L.75,8.25" transform="translate(7.326 1.223)"/><g class="b" transform="translate(3)"><circle class="d" cx="11" cy="11" r="11"/><circle class="e" cx="11" cy="11" r="10.5"/></g><rect class="c" width="2" height="5" rx="1" transform="translate(0 20)"/><rect class="c" width="2" height="5" rx="1" transform="translate(26 20)"/><g class="b" transform="translate(12 24)"><rect class="d" width="4" height="8" rx="2"/><rect class="e" x="0.5" y="0.5" width="3" height="7" rx="1.5"/></g><g class="b" transform="translate(5 23)"><rect class="d" width="3" height="7" rx="1.5"/><rect class="e" x="0.5" y="0.5" width="2" height="6" rx="1"/></g><g class="b" transform="translate(20 23)"><rect class="d" width="3" height="7" rx="1.5"/><rect class="e" x="0.5" y="0.5" width="2" height="6" rx="1"/></g></svg>