<svg xmlns="http://www.w3.org/2000/svg" width="25.026" height="25.024" viewBox="0 0 25.026 25.024"><defs><style>.a{fill:none;stroke:#fff;stroke-linecap:round;stroke-linejoin:round;}</style></defs><g transform="translate(0.506 0.519)"><path class="a" d="M23.624,7.636a12,12,0,1,1-6.131-5.915" transform="translate(-0.771 -0.75)"/><path class="a" d="M6,11.2H6a1.922,1.922,0,0,0,3.2,0h0" transform="translate(-0.417 -0.043)"/><path class="a" d="M15,11.2h0a1.922,1.922,0,0,0,3.2,0h0" transform="translate(0.192 -0.043)"/><rect class="a" width="3.203" height="4.804" rx="1.5" transform="translate(10.388 16.015)"/><path class="a" d="M20.25.75h3.2l-3.2,3.2h3.2" transform="translate(0.548 -0.75)"/><path class="a" d="M14.25,5.25h3.2l-3.2,3.2h3.2" transform="translate(0.142 -0.446)"/></g></svg>