<svg xmlns="http://www.w3.org/2000/svg" width="19.626" height="21" viewBox="0 0 19.626 21"><defs><style>.a{fill:none;stroke:#fff;stroke-linecap:round;stroke-linejoin:round;}</style></defs><g transform="translate(0.5 0.5)"><path class="a" d="M20.149,19.417a1.333,1.333,0,0,1-1.333,1.333H2.856a1.333,1.333,0,0,1-1.333-1.333V2.083A1.333,1.333,0,0,1,2.856.75H16.19a1.333,1.333,0,0,1,.931.379l2.627,2.563a1.333,1.333,0,0,1,.4.955Z" transform="translate(-1.523 -0.75)"/><circle class="a" cx="2" cy="2" r="2" transform="translate(4 4)"/><path class="a" d="M17.309,17.5,13.82,12.262a.9.9,0,0,0-1.485-.017L9.942,15.663,8.46,14.473a.9.9,0,0,0-1.31.2L5.273,17.5" transform="translate(-1.939 -1.985)"/></g></svg>