<svg xmlns="http://www.w3.org/2000/svg" width="33" height="22.333" viewBox="0 0 33 22.333"><defs><style>.a{fill:none;stroke:#fff;stroke-linecap:round;stroke-linejoin:round;}</style></defs><g transform="translate(0.5 0.5)"><path class="a" d="M16.75,4.5a16.122,16.122,0,0,0-16,16.246V23.7a2.133,2.133,0,0,0,2.133,2.133H30.616A2.133,2.133,0,0,0,32.75,23.7V20.741A16.122,16.122,0,0,0,16.75,4.5Z" transform="translate(-0.75 -4.5)"/><path class="a" d="M9,21.083V20.017a4.267,4.267,0,1,1,8.533,0v1.067" transform="translate(2.734 0.25)"/><line class="a" x1="3.2" y2="9.6" transform="translate(16 6.404)"/><path class="a" d="M5.033,15a.533.533,0,1,0,.533.533A.533.533,0,0,0,5.033,15" transform="translate(0.833 -0.067)"/><path class="a" d="M6.533,11.253a.533.533,0,1,0,.533.533.533.533,0,0,0-.533-.533" transform="translate(1.467 -1.649)"/><path class="a" d="M19.283,15a.533.533,0,1,0,.533.533A.533.533,0,0,0,19.283,15" transform="translate(6.85 -0.067)"/><path class="a" d="M17.783,11.253a.533.533,0,1,0,.533.533.533.533,0,0,0-.533-.533" transform="translate(6.217 -1.649)"/><path class="a" d="M9.533,8.253a.533.533,0,1,0,.533.533.533.533,0,0,0-.533-.533" transform="translate(2.734 -2.915)"/></g></svg>