<svg xmlns="http://www.w3.org/2000/svg" width="23.4" height="25.207" viewBox="0 0 23.4 25.207"><defs><style>.a{fill:none;stroke:#fff;stroke-linecap:round;stroke-linejoin:round;}</style></defs><g transform="translate(0.5 0.707)"><path class="a" d="M8.279.75c-1.6,1.6,1.6,2.4,0,4" transform="translate(-1.078 -0.75)"/><path class="a" d="M12.029.75c-1.6,1.6,1.6,2.4,0,4" transform="translate(-0.828 -0.75)"/><path class="a" d="M15.779.75c-1.6,1.6,1.6,2.4,0,4" transform="translate(-0.578 -0.75)"/><path class="a" d="M19.461,16.51c2.7.731,4.439,1.887,4.439,3.189,0,2.209-5.013,4-11.2,4s-11.2-1.791-11.2-4c0-1.3,1.742-2.453,4.438-3.189" transform="translate(-1.5 0.301)"/><path class="a" d="M5.262,10.5c-.8,5.6,1.266,8,1.266,8,.334.8,2.657,2.4,5.934,2.4s5.6-1.6,5.934-2.4c0,0,2.066-2.4,1.266-8" transform="translate(-1.262 -0.1)"/><ellipse class="a" cx="7.2" cy="3.2" rx="7.2" ry="3.2" transform="translate(4 7.2)"/><path class="a" d="M6.99,12.644l.544-.544a7.008,7.008,0,0,1,4.8-1.6,7.008,7.008,0,0,1,4.8,1.6l.544.544" transform="translate(-1.135 -0.101)"/></g></svg>