<svg width="20" height="20" viewBox="0 0 20 20" fill="none" xmlns="http://www.w3.org/2000/svg">
<path d="M0.625 6.87329V1.87329C0.625 1.54177 0.756696 1.22383 0.991117 0.989407C1.22554 0.754987 1.54348 0.623291 1.875 0.623291H6.875" stroke="white" stroke-width="1.5" stroke-linecap="round" stroke-linejoin="round"/>
<path d="M19.375 6.87329V1.87329C19.375 1.54177 19.2433 1.22383 19.0089 0.989407C18.7745 0.754987 18.4565 0.623291 18.125 0.623291H13.125" stroke="white" stroke-width="1.5" stroke-linecap="round" stroke-linejoin="round"/>
<path d="M0.625 13.1233V18.1233C0.625 18.4548 0.756696 18.7728 0.991117 19.0072C1.22554 19.2416 1.54348 19.3733 1.875 19.3733H6.875" stroke="white" stroke-width="1.5" stroke-linecap="round" stroke-linejoin="round"/>
<path d="M19.375 13.1233V18.1233C19.375 18.4548 19.2433 18.7728 19.0089 19.0072C18.7745 19.2416 18.4565 19.3733 18.125 19.3733H13.125" stroke="white" stroke-width="1.5" stroke-linecap="round" stroke-linejoin="round"/>
<path d="M14.375 4.37329H5.625C4.93464 4.37329 4.375 4.93294 4.375 5.62329V14.3733C4.375 15.0636 4.93464 15.6233 5.625 15.6233H14.375C15.0654 15.6233 15.625 15.0636 15.625 14.3733V5.62329C15.625 4.93294 15.0654 4.37329 14.375 4.37329Z" stroke="white" stroke-width="1.5" stroke-linecap="round" stroke-linejoin="round"/>
</svg>
