<svg xmlns="http://www.w3.org/2000/svg" xmlns:xlink="http://www.w3.org/1999/xlink" width="35" height="35" viewBox="0 0 35 35"><defs><style>.a,.d{fill:none;}.a{stroke:#fff;}.b{fill:#fff;}.c{stroke:none;}.e{filter:url(#a);}</style><filter id="a" x="0" y="0" width="35" height="35" filterUnits="userSpaceOnUse"><feOffset input="SourceAlpha"/><feGaussianBlur stdDeviation="2.5" result="b"/><feFlood flood-color="#fff"/><feComposite operator="in" in2="b"/><feComposite in="SourceGraphic"/></filter></defs><g transform="translate(7.5 7.5)"><g class="e" transform="matrix(1, 0, 0, 1, -7.5, -7.5)"><g class="a" transform="translate(7.5 7.5)"><rect class="c" width="20" height="20"/><rect class="d" x="0.5" y="0.5" width="19" height="19"/></g></g><path class="b" d="M14.619,15.336a.707.707,0,0,1-.5-.21L11.747,12.76,9.382,15.126a.714.714,0,1,1-1.009-1.01l2.364-2.367L8.371,9.383A.714.714,0,1,1,9.38,8.374l2.366,2.367,2.365-2.367a.714.714,0,1,1,1.009,1.01L12.757,11.75l2.366,2.367a.714.714,0,0,1-.5,1.219Z" transform="translate(10.073 -6.544) rotate(45)"/></g></svg>