<svg xmlns="http://www.w3.org/2000/svg" width="22.333" height="33" viewBox="0 0 22.333 33"><defs><style>.a{fill:none;stroke:#fff;stroke-linecap:round;stroke-linejoin:round;}</style></defs><g transform="translate(0.5 0.5)"><line class="a" y2="8.533" transform="translate(10.667 23.467)"/><line class="a" x2="8.533" transform="translate(6.4 32)"/><path class="a" d="M4.5,8.25v4.267a8.533,8.533,0,0,0,8.533,8.533H17.3a8.533,8.533,0,0,0,8.533-8.533V8.25" transform="translate(-4.5 2.417)"/><path class="a" d="M16.036,19.95H11.769A4.551,4.551,0,0,1,7.5,15.15V5.55A4.551,4.551,0,0,1,11.769.75h4.267A4.551,4.551,0,0,1,20.3,5.55v9.6A4.551,4.551,0,0,1,16.036,19.95Z" transform="translate(-3.236 -0.75)"/><line class="a" x2="4.267" transform="translate(4.267 6.4)"/><line class="a" x2="4.267" transform="translate(12.8 6.4)"/><line class="a" x2="4.267" transform="translate(4.267 10.667)"/><line class="a" x2="4.267" transform="translate(12.8 10.667)"/></g></svg>