<svg xmlns="http://www.w3.org/2000/svg" width="21" height="21" viewBox="0 0 21 21"><defs><style>.a{fill:none;stroke:#fff;stroke-linecap:round;stroke-linejoin:round;}</style></defs><g transform="translate(0.5 0.5)"><path class="a" d="M4.75,2.249H2.083A1.333,1.333,0,0,0,.75,3.582v16a1.333,1.333,0,0,0,1.333,1.333H19.417a1.333,1.333,0,0,0,1.333-1.333v-16a1.333,1.333,0,0,0-1.333-1.333H10.083" transform="translate(-0.75 -0.916)"/><path class="a" d="M10.583,10.082l-2.667-2-2.667,2V1.417A.667.667,0,0,1,5.917.749h4a.667.667,0,0,1,.667.667Z" transform="translate(-1.25 -0.749)"/><line class="a" x2="9.333" transform="translate(4 16)"/><line class="a" x2="12" transform="translate(4 12)"/><line class="a" x1="4" transform="translate(12 8)"/></g></svg>