<svg xmlns="http://www.w3.org/2000/svg" width="33" height="33.005" viewBox="0 0 33 33.005"><defs><style>.a{fill:none;stroke:#fff;stroke-linecap:round;stroke-linejoin:round;}</style></defs><g transform="translate(0.5 0.5)"><path class="a" d="M31.5,1.567l-3.339.371a11.605,11.605,0,0,0-6.925,3.328L6.06,20.442l6.561,6.564L27.8,11.831a11.6,11.6,0,0,0,3.328-6.925Z" transform="translate(0.501 -1.567)"/><path class="a" d="M8.323,16.195l-5.6-1.869a1.159,1.159,0,0,1-.453-1.92l.359-.359a9.284,9.284,0,0,1,9.5-2.244l1.942.647Z" transform="translate(-1.762 2.68)"/><path class="a" d="M10.3,20.036l1.869,5.6a1.159,1.159,0,0,0,1.92.453l.361-.359a9.284,9.284,0,0,0,2.242-9.5L16.049,14.3Z" transform="translate(2.822 5.403)"/><path class="a" d="M11.041,19.766a3.471,3.471,0,0,1-1.02,2.462c-1.359,1.359-8.2,3.282-8.2,3.282s1.923-6.847,3.282-8.2A3.475,3.475,0,0,1,7.336,16.3" transform="translate(-1.82 6.495)"/></g></svg>