<svg xmlns="http://www.w3.org/2000/svg" width="33.104" height="34.183" viewBox="0 0 33.104 34.183"><defs><style>.a{opacity:0.8;}.b{fill:none;stroke:#fff;stroke-linecap:round;stroke-linejoin:round;}</style></defs><g class="a" transform="translate(0.552 0.552)"><path class="b" d="M6.422,24.894l-1.992.1a2.784,2.784,0,0,1-2.014-4.847L3.9,18.812a2.788,2.788,0,0,0,0-4.136L2.416,13.34A2.784,2.784,0,0,1,4.43,8.492l1.992.1A2.784,2.784,0,0,0,9.345,5.669l-.1-1.992a2.784,2.784,0,0,1,4.848-2.008l1.337,1.481a2.784,2.784,0,0,0,4.134,0L20.9,1.669a2.784,2.784,0,0,1,4.848,2.008l-.1,1.992A2.784,2.784,0,0,0,28.57,8.6l1.992-.1a2.784,2.784,0,0,1,2.014,4.845L31.1,14.676a2.788,2.788,0,0,0,0,4.136l1.481,1.336A2.784,2.784,0,0,1,30.567,25l-2-.1" transform="translate(-1.496 -0.749)"/><line class="b" x2="4.57" transform="translate(13.715 33.132)"/><path class="b" d="M22.744,14.76a8,8,0,1,0-10.282,7.625v3.8h4.57v-3.8a7.973,7.973,0,0,0,5.712-7.625Z" transform="translate(1.253 2.377)"/></g></svg>