<svg xmlns="http://www.w3.org/2000/svg" width="31" height="31.312" viewBox="0 0 31 31.312"><defs><style>.a{fill:none;stroke:#fff;stroke-linecap:round;stroke-linejoin:round;}</style></defs><g transform="translate(0.5 0.663)"><path class="a" d="M30.75,15.748a4,4,0,0,0-2.91-3.848A3,3,0,0,0,26,6.759a3.016,3.016,0,0,0-.549-.484,4,4,0,0,0-7.28-3.3,3,3,0,0,0-4.833,0,4,4,0,0,0-7.28,3.3,2.964,2.964,0,0,0-.548.484A3,3,0,0,0,3.66,11.9a4,4,0,0,0,0,7.7,3,3,0,0,0,1.845,5.14,3.053,3.053,0,0,0,.548.484,4,4,0,0,0,7.28,3.3,3,3,0,0,0,4.833,0,4,4,0,0,0,7.28-3.3,2.964,2.964,0,0,0,.548-.484A3,3,0,0,0,27.84,19.6,4,4,0,0,0,30.75,15.748Z" transform="translate(-0.75 -0.755)"/><path class="a" d="M15.5,5.25,7.62,14.426A.5.5,0,0,0,8,15.25h3.5v8l7.88-9.176A.5.5,0,0,0,19,13.25H15.5Z" transform="translate(1.499 0.743)"/></g></svg>