<svg xmlns="http://www.w3.org/2000/svg" xmlns:xlink="http://www.w3.org/1999/xlink" width="51" height="51" viewBox="0 0 51 51"><defs><style>.a{fill:none;stroke:#fff;stroke-linecap:round;stroke-linejoin:round;}.b{filter:url(#k);}.c{filter:url(#i);}.d{filter:url(#g);}.e{filter:url(#e);}.f{filter:url(#c);}.g{filter:url(#a);}</style><filter id="a" x="0" y="0" width="51" height="51" filterUnits="userSpaceOnUse"><feOffset dy="3" input="SourceAlpha"/><feGaussianBlur stdDeviation="3" result="b"/><feFlood flood-color="#fff"/><feComposite operator="in" in2="b"/><feComposite in="SourceGraphic"/></filter><filter id="c" x="10.265" y="10.264" width="30.47" height="30.469" filterUnits="userSpaceOnUse"><feOffset dy="3" input="SourceAlpha"/><feGaussianBlur stdDeviation="3" result="d"/><feFlood flood-color="#fff"/><feComposite operator="in" in2="d"/><feComposite in="SourceGraphic"/></filter><filter id="e" x="0" y="13.749" width="26.585" height="23.503" filterUnits="userSpaceOnUse"><feOffset dy="3" input="SourceAlpha"/><feGaussianBlur stdDeviation="3" result="f"/><feFlood flood-color="#fff"/><feComposite operator="in" in2="f"/><feComposite in="SourceGraphic"/></filter><filter id="g" x="13.749" y="0" width="23.503" height="26.585" filterUnits="userSpaceOnUse"><feOffset dy="3" input="SourceAlpha"/><feGaussianBlur stdDeviation="3" result="h"/><feFlood flood-color="#fff"/><feComposite operator="in" in2="h"/><feComposite in="SourceGraphic"/></filter><filter id="i" x="24.415" y="13.749" width="26.585" height="23.503" filterUnits="userSpaceOnUse"><feOffset dy="3" input="SourceAlpha"/><feGaussianBlur stdDeviation="3" result="j"/><feFlood flood-color="#fff"/><feComposite operator="in" in2="j"/><feComposite in="SourceGraphic"/></filter><filter id="k" x="13.749" y="24.415" width="23.503" height="26.585" filterUnits="userSpaceOnUse"><feOffset dy="3" input="SourceAlpha"/><feGaussianBlur stdDeviation="3" result="l"/><feFlood flood-color="#fff"/><feComposite operator="in" in2="l"/><feComposite in="SourceGraphic"/></filter></defs><g transform="translate(9.5 6.5)"><g class="g" transform="matrix(1, 0, 0, 1, -9.5, -6.5)"><circle class="a" cx="16" cy="16" r="16" transform="translate(9.5 6.5)"/></g><g class="f" transform="matrix(1, 0, 0, 1, -9.5, -6.5)"><path class="a" d="M8.027,18.893a.347.347,0,0,0,.472.472l5.2-2.886,5.2,2.886a.347.347,0,0,0,.472-.472L16.48,13.7l2.886-5.2a.347.347,0,0,0-.472-.474l-5.2,2.887L8.5,8.026a.347.347,0,0,0-.472.474l2.886,5.2Z" transform="translate(11.8 8.8)"/></g><g class="e" transform="matrix(1, 0, 0, 1, -9.5, -6.5)"><path class="a" d="M8.217,10.5.75,12.633l7.467,2.133" transform="translate(8.75 9.87)"/></g><g class="d" transform="matrix(1, 0, 0, 1, -9.5, -6.5)"><path class="a" d="M14.767,8.217,12.633.75,10.5,8.217" transform="translate(12.87 5.75)"/></g><g class="c" transform="matrix(1, 0, 0, 1, -9.5, -6.5)"><path class="a" d="M18,14.767l7.467-2.133L18,10.5" transform="translate(16.03 9.87)"/></g><g class="b" transform="matrix(1, 0, 0, 1, -9.5, -6.5)"><path class="a" d="M10.5,18l2.133,7.467L14.767,18" transform="translate(12.87 13.03)"/></g></g></svg>