<svg width="20" height="20" viewBox="0 0 20 20" fill="none" xmlns="http://www.w3.org/2000/svg">
<path d="M9 16.25V19.375" stroke="white" stroke-width="1.5" stroke-linecap="round" stroke-linejoin="round"/>
<path d="M9.46833 13.7208C9.31298 13.7402 9.15657 13.75 9 13.75V13.75C8.00544 13.75 7.05161 13.3549 6.34835 12.6517C5.64509 11.9484 5.25 10.9946 5.25 10V9.375" stroke="white" stroke-width="1.5" stroke-linecap="round" stroke-linejoin="round"/>
<path d="M5.71997 2.55583C6.04465 1.97058 6.52004 1.48288 7.0968 1.14336C7.67357 0.803835 8.33069 0.624857 8.99997 0.625V0.625C9.99453 0.625 10.9484 1.02009 11.6516 1.72335C12.3549 2.42661 12.75 3.38044 12.75 4.375V10" stroke="white" stroke-width="1.5" stroke-linecap="round" stroke-linejoin="round"/>
<path d="M11.6067 15.7008C10.7858 16.0642 9.89774 16.2513 9 16.25V16.25C7.37891 16.2793 5.812 15.6664 4.64113 14.5448C3.47025 13.4233 2.79044 11.8842 2.75 10.2633V8.125" stroke="white" stroke-width="1.5" stroke-linecap="round" stroke-linejoin="round"/>
<path d="M15.25 8.125V10.2633C15.2503 11.0417 15.0915 11.8119 14.7833 12.5267" stroke="white" stroke-width="1.5" stroke-linecap="round" stroke-linejoin="round"/>
<path d="M1.5 1.875L16.5 17.5" stroke="white" stroke-width="1.5" stroke-linecap="round" stroke-linejoin="round"/>
</svg>
