<svg xmlns="http://www.w3.org/2000/svg" xmlns:xlink="http://www.w3.org/1999/xlink" width="35" height="35" viewBox="0 0 35 35"><defs><style>.a,.d{fill:none;}.a{stroke:#fff;}.b{fill:#fff;}.c{stroke:none;}.e{filter:url(#a);}</style><filter id="a" x="0" y="0" width="35" height="35" filterUnits="userSpaceOnUse"><feOffset input="SourceAlpha"/><feGaussianBlur stdDeviation="2.5" result="b"/><feFlood flood-color="#fff"/><feComposite operator="in" in2="b"/><feComposite in="SourceGraphic"/></filter></defs><g transform="translate(7.5 7.5)"><g class="e" transform="matrix(1, 0, 0, 1, -7.5, -7.5)"><g class="a" transform="translate(7.5 7.5)"><rect class="c" width="20" height="20"/><rect class="d" x="0.5" y="0.5" width="19" height="19"/></g></g><path class="b" d="M3.586,4.6,1.221,6.962a.713.713,0,0,1-1.009,0,.713.713,0,0,1,0-1.01L2.576,3.586l1.009-1.01L5.951.21a.714.714,0,0,1,1.219.5.707.707,0,0,1-.21.5L4.6,3.586Z" transform="translate(10.071 5) rotate(45)"/></g></svg>