<svg width="20" height="20" viewBox="0 0 20 20" fill="none" xmlns="http://www.w3.org/2000/svg">
<path d="M8.78839 2.0317C8.94131 2.20145 9.12819 2.33717 9.33692 2.43007C9.54566 2.52297 9.77158 2.57098 10.0001 2.57098C10.2285 2.57098 10.4545 2.52297 10.6632 2.43007C10.8719 2.33717 11.0588 2.20145 11.2117 2.0317L12.0001 1.1667C12.226 0.916646 12.5238 0.742647 12.8525 0.668579C13.1813 0.594512 13.5249 0.624005 13.8363 0.753013C14.1476 0.88202 14.4114 1.10422 14.5914 1.38911C14.7714 1.674 14.8589 2.00763 14.8417 2.3442L14.7826 3.51086C14.7711 3.73845 14.8075 3.96591 14.8893 4.1786C14.9711 4.39128 15.0965 4.58447 15.2576 4.74572C15.4186 4.90697 15.6116 5.03271 15.8241 5.11483C16.0367 5.19695 16.2641 5.23364 16.4917 5.22253L17.6584 5.16336C17.9947 5.14678 18.328 5.23462 18.6125 5.41485C18.8969 5.59508 19.1187 5.85888 19.2474 6.17008C19.3761 6.48129 19.4054 6.82468 19.3312 7.15318C19.2571 7.48168 19.0832 7.77923 18.8334 8.00503L17.9651 8.78836C17.7955 8.9415 17.66 9.1285 17.5672 9.33728C17.4745 9.54607 17.4265 9.77199 17.4265 10.0004C17.4265 10.2289 17.4745 10.4548 17.5672 10.6636C17.66 10.8724 17.7955 11.0594 17.9651 11.2125L18.8334 11.9959C19.0834 12.2218 19.2574 12.5196 19.3315 12.8483C19.4056 13.1771 19.3761 13.5207 19.2471 13.8321C19.1181 14.1434 18.8959 14.4072 18.611 14.5872C18.3261 14.7672 17.9925 14.8547 17.6559 14.8375L16.4892 14.7784C16.2611 14.7666 16.0331 14.8029 15.8199 14.8849C15.6067 14.9668 15.4131 15.0926 15.2516 15.2541C15.0901 15.4156 14.9643 15.6092 14.8824 15.8224C14.8004 16.0356 14.7642 16.2636 14.7759 16.4917L14.8351 17.6584C14.85 17.9932 14.7614 18.3246 14.5815 18.6074C14.4015 18.8902 14.1389 19.1108 13.8292 19.2391C13.5196 19.3675 13.1779 19.3974 12.8506 19.3248C12.5234 19.2522 12.2264 19.0806 12.0001 18.8334L11.2159 17.9659C11.0628 17.7963 10.8759 17.6608 10.6672 17.5681C10.4585 17.4753 10.2326 17.4274 10.0042 17.4274C9.77583 17.4274 9.54997 17.4753 9.34126 17.5681C9.13254 17.6608 8.94562 17.7963 8.79255 17.9659L8.00505 18.8334C7.77906 19.0818 7.48196 19.2544 7.15426 19.3278C6.82655 19.4012 6.48419 19.3717 6.17384 19.2435C5.86349 19.1152 5.60026 18.8943 5.42003 18.6109C5.2398 18.3276 5.15134 17.9955 5.16672 17.66L5.22672 16.4934C5.23845 16.2653 5.20217 16.0373 5.12022 15.8241C5.03827 15.6109 4.91247 15.4173 4.75097 15.2558C4.58947 15.0943 4.39587 14.9685 4.18268 14.8865C3.9695 14.8046 3.74148 14.7683 3.51339 14.78L2.34672 14.8392C2.01029 14.8568 1.67667 14.7698 1.39167 14.5901C1.10667 14.4105 0.88425 14.1471 0.754956 13.836C0.625663 13.5249 0.595832 13.1814 0.669558 12.8527C0.743284 12.5239 0.916952 12.2261 1.16672 12L2.03422 11.2167C2.20376 11.0636 2.33929 10.8766 2.43205 10.6678C2.52481 10.459 2.57273 10.2331 2.57273 10.0046C2.57273 9.77615 2.52481 9.55023 2.43205 9.34145C2.33929 9.13267 2.20376 8.94567 2.03422 8.79253L1.16672 8.00503C0.917762 7.7792 0.744624 7.48199 0.670972 7.15403C0.597321 6.82607 0.626751 6.48337 0.75524 6.17278C0.883728 5.86218 1.10501 5.59884 1.38882 5.41876C1.67264 5.23868 2.00515 5.15065 2.34089 5.1667L3.50755 5.22586C3.73608 5.23788 3.96457 5.20169 4.1782 5.11965C4.39183 5.0376 4.58581 4.91154 4.74754 4.74965C4.90928 4.58776 5.03515 4.39365 5.11699 4.17995C5.19882 3.96624 5.23479 3.73771 5.22255 3.5092L5.16672 2.3417C5.15098 2.00608 5.23917 1.67379 5.41926 1.39015C5.59935 1.10651 5.86257 0.885343 6.173 0.756832C6.48344 0.62832 6.82596 0.598721 7.15384 0.672073C7.48171 0.745425 7.77897 0.918156 8.00505 1.1667L8.78839 2.0317Z" stroke="white" stroke-width="1.5" stroke-linecap="round" stroke-linejoin="round"/>
<path d="M10 13.7509C12.0711 13.7509 13.75 12.0719 13.75 10.0009C13.75 7.92979 12.0711 6.25085 10 6.25085C7.92893 6.25085 6.25 7.92979 6.25 10.0009C6.25 12.0719 7.92893 13.7509 10 13.7509Z" stroke="white" stroke-width="1.5" stroke-linecap="round" stroke-linejoin="round"/>
</svg>
