<svg xmlns="http://www.w3.org/2000/svg" width="25.078" height="25.077" viewBox="0 0 25.078 25.077"><defs><style>.a{fill:none;stroke:#fff;stroke-linecap:round;stroke-linejoin:round;}</style></defs><g transform="translate(0.5 0.577)"><path class="a" d="M19.8,6.921,21,5.726a1.656,1.656,0,0,0-2.342-2.343l-1.2,1.2" transform="translate(0.567 -0.947)"/><path class="a" d="M12.178,10.741,1.616,21.3a1.656,1.656,0,1,0,2.342,2.342L14.52,13.084" transform="translate(-1.131 -0.132)"/><path class="a" d="M20.042,17.231a1.656,1.656,0,0,1-2.133.174A41.678,41.678,0,0,1,8.157,7.653a1.656,1.656,0,0,1,.174-2.132l3.906-3.907A1.656,1.656,0,0,1,14.37,1.44a41.684,41.684,0,0,1,9.753,9.752,1.656,1.656,0,0,1-.176,2.133Z" transform="translate(-0.431 -1.131)"/></g></svg>