<svg xmlns="http://www.w3.org/2000/svg" width="33.353" height="33.176" viewBox="0 0 33.353 33.176"><defs><style>.a{opacity:1;}.b{fill:none;stroke:#fff;stroke-linecap:round;stroke-linejoin:round;}</style></defs><g transform="translate(0.676 0.5)"><g class="a" transform="translate(-0.749 -0.75)"><circle class="b" cx="3.733" cy="3.733" r="3.733" transform="translate(2.349 21.017)"/><path class="b" d="M11.416,24.2a6.044,6.044,0,0,0-10.667,0" transform="translate(0 8.55)"/><circle class="b" cx="3.733" cy="3.733" r="3.733" transform="translate(23.682 21.017)"/><path class="b" d="M26.416,24.2a6.044,6.044,0,0,0-10.667,0" transform="translate(6.333 8.55)"/><circle class="b" cx="3.733" cy="3.733" r="3.733" transform="translate(13.016 0.75)"/><path class="b" d="M17.992,8.884a6.071,6.071,0,0,0-9.244,0" transform="translate(3.377 2.533)"/><path class="b" d="M9.05,19.715a11.772,11.772,0,0,0,8.454-.026" transform="translate(3.505 7.996)"/><path class="b" d="M7.446,6a11.686,11.686,0,0,0-3.7,8.533c0,.36.021.711.054,1.067" transform="translate(1.266 2.217)"/><path class="b" d="M21.293,15.6c.031-.353.054-.711.054-1.067A11.682,11.682,0,0,0,17.649,6" transform="translate(7.136 2.217)"/></g></g></svg>