<svg xmlns="http://www.w3.org/2000/svg" width="22.333" height="33" viewBox="0 0 22.333 33"><defs><style>.a{fill:none;stroke:#fff;stroke-linecap:round;stroke-linejoin:round;}</style></defs><g transform="translate(0.5 0.5)"><path class="a" d="M19.369,11.313c1.267.922,5.831,5.511,5.831,10.928,0,4.376-5.04,6.138-9.705,6.138S6,26.618,6,22.242c0-5.633,4.978-10.431,6.144-11.142" transform="translate(-3.867 3.62)"/><path class="a" d="M4.5,3.75H7.06c.384,0,.64.3.64.762v9.142c0,.458-.256.762-.64.762H4.5" transform="translate(-4.5 0.517)"/><path class="a" d="M11.941,2.621,10.17,5.11A1.978,1.978,0,0,1,8.7,5.845H6.75" transform="translate(-3.551 0.04)"/><path class="a" d="M6.75,13.029c2.9,1.572,4.646,2.654,6.391,2.654h5.911c1.479,0,1.751-.082,2.219-1.6.74-2.4,1.479-6.4,1.479-6.4,0-.8-.74-1.6-2.217-1.6l-7.15.028L11.108,1.861a.808.808,0,0,1,0-.74A.654.654,0,0,1,11.677.75h8.274a.657.657,0,0,1,.576.371.8.8,0,0,1,0,.738L18.281,6.083" transform="translate(-3.551 -0.75)"/><path class="a" d="M11.165,21.338a3.163,3.163,0,0,0,2.642,1.244c1.62,0,2.934-.986,2.934-2.2s-1.314-2.2-2.934-2.2-2.933-.986-2.933-2.2,1.314-2.2,2.933-2.2a3.159,3.159,0,0,1,2.642,1.244" transform="translate(-1.809 4.751)"/><line class="a" y2="1.466" transform="translate(12 27.334)"/><line class="a" y2="1.466" transform="translate(12 17.067)"/></g></svg>