<svg xmlns="http://www.w3.org/2000/svg" width="25" height="21.807" viewBox="0 0 25 21.807"><defs><style>.a{fill:none;stroke:#fff;stroke-linecap:round;stroke-linejoin:round;}</style></defs><g transform="translate(0.5 0.503)"><path class="a" d="M8.641,10.4a7.36,7.36,0,0,0,.063.95,7.359,7.359,0,0,1-.061-.95A7.262,7.262,0,0,1,8.79,8.977" transform="translate(-0.225 -2.793)"/><path class="a" d="M19.263,18.016a7.626,7.626,0,0,0,5.387-7.232A7.8,7.8,0,0,0,9.214,9.363a4.929,4.929,0,0,0-2.095-.479,4.81,4.81,0,0,0-4.869,4.75,4.662,4.662,0,0,0,.069.805" transform="translate(-0.65 -3.179)"/><line class="a" x2="11.999" transform="translate(0 14.404)"/><line class="a" x2="11.999" transform="translate(4.801 17.604)"/><line class="a" x2="11.999" transform="translate(0 20.804)"/></g></svg>