<svg xmlns="http://www.w3.org/2000/svg" width="18.964" height="25.193" viewBox="0 0 18.964 25.193"><defs><style>.a{fill:none;stroke:#fff;stroke-linecap:round;stroke-linejoin:round;}</style></defs><g transform="translate(0.707 0.693)"><path class="a" d="M20.4,1.242l-2.1,2.1,1.051,1.574-2.1,1.575" transform="translate(-2.849 -0.717)"/><path class="a" d="M3.749,1.242l2.1,2.1L4.8,4.917,6.9,6.492" transform="translate(-3.749 -0.717)"/><path class="a" d="M12.393.75l-1.05,1.574,1.05,1.051" transform="translate(-3.243 -0.75)"/><path class="a" d="M19.6,23.7a7.2,7.2,0,1,0-14.4,0" transform="translate(-3.651 0.3)"/><path class="a" d="M8.4,8.781a7.315,7.315,0,0,0,8.153,1.638" transform="translate(-3.438 -0.215)"/><circle class="a" cx="4.4" cy="4.4" r="4.4" transform="translate(4.351 6.4)"/><line class="a" y2="4" transform="translate(8.749 16.8)"/></g></svg>