<svg xmlns="http://www.w3.org/2000/svg" width="33" height="30.578" viewBox="0 0 33 30.578"><defs><style>.a{fill:none;stroke:#fff;stroke-linecap:round;stroke-linejoin:round;}</style></defs><g transform="translate(0.5 0.5)"><path class="a" d="M20.3,8.361,15.607,2.1a2.133,2.133,0,0,0-3.413,0L7.5,8.361" transform="translate(2.1 -1.25)"/><line class="a" x2="32" transform="translate(0 29.578)"/><line class="a" x1="32" transform="translate(0 10.378)"/><line class="a" y1="10.667" transform="translate(9.6 14.643)"/><path class="a" d="M7.5,12.249H8.567a3.2,3.2,0,0,1,0,6.4H7.5" transform="translate(2.1 2.394)"/><path class="a" d="M3.633,12.25A2.133,2.133,0,0,0,1.5,14.383v6.4a2.133,2.133,0,0,0,4.267,0v-6.4A2.133,2.133,0,0,0,3.633,12.25Z" transform="translate(-0.434 2.394)"/><path class="a" d="M17.767,22.916H15.633A2.133,2.133,0,0,1,13.5,20.782v-6.4a2.133,2.133,0,0,1,2.133-2.133h2.133" transform="translate(4.633 2.394)"/><line class="a" x2="4.267" transform="translate(18.133 21.043)"/><path class="a" d="M19.5,22.916V12.249l4.267,10.667V12.249" transform="translate(7.167 2.394)"/></g></svg>