<svg width="20" height="20" viewBox="0 0 20 20" fill="none" xmlns="http://www.w3.org/2000/svg">
<path d="M7.5 8.50001C7.50009 8.0417 7.62616 7.59224 7.86443 7.20073C8.10271 6.80923 8.44402 6.49077 8.85107 6.28014C9.25811 6.06951 9.71522 5.97483 10.1724 6.00644C10.6297 6.03806 11.0694 6.19474 11.4436 6.45939C11.8178 6.72403 12.112 7.08644 12.2941 7.507C12.4762 7.92757 12.5393 8.39011 12.4763 8.84407C12.4133 9.29803 12.2267 9.72594 11.937 10.081C11.6472 10.4361 11.2654 10.7047 10.8333 10.8575C10.5895 10.9437 10.3784 11.1034 10.2292 11.3146C10.0799 11.5258 9.99986 11.7781 10 12.0367V12.25" stroke="white" stroke-width="1.5" stroke-linecap="round" stroke-linejoin="round"/>
<path d="M10 14.75C9.93819 14.75 9.87777 14.7683 9.82638 14.8027C9.77499 14.837 9.73494 14.8858 9.71129 14.9429C9.68764 15 9.68145 15.0628 9.6935 15.1235C9.70556 15.1841 9.73532 15.2398 9.77903 15.2835C9.82273 15.3272 9.87841 15.3569 9.93903 15.369C9.99965 15.3811 10.0625 15.3749 10.1196 15.3512C10.1767 15.3276 10.2255 15.2875 10.2598 15.2361C10.2942 15.1847 10.3125 15.1243 10.3125 15.0625C10.3125 14.9796 10.2796 14.9001 10.221 14.8415C10.1624 14.7829 10.0829 14.75 10 14.75Z" fill="white" stroke="white" stroke-width="1.2" stroke-linecap="round" stroke-linejoin="round"/>
<circle cx="10" cy="10" r="9.25" stroke="white" stroke-width="1.5"/>
</svg>
