<svg xmlns="http://www.w3.org/2000/svg" viewBox="0 0 24 24"><defs><style>.a{fill:none;stroke:white;stroke-linecap:round;stroke-linejoin:round;stroke-width:1px;}</style></defs><title>information-desk-question-help</title><path class="a" d="M17.25,15a1.5,1.5,0,0,1-1.5-1.5V11.25a1.5,1.5,0,0,1,1.5-1.5,3,3,0,1,0-3-3,1.5,1.5,0,0,1-3,0,6,6,0,1,1,7.5,5.81v.94A1.5,1.5,0,0,1,17.25,15Z"/><circle class="a" cx="17.25" cy="19.5" r="2.25"/><path class="a" d="M6.75,9a1.5,1.5,0,0,1,1.5,1.5v2.25a1.5,1.5,0,0,1-1.5,1.5,3,3,0,1,0,3,3,1.5,1.5,0,0,1,3,0,6,6,0,1,1-7.5-5.809V10.5A1.5,1.5,0,0,1,6.75,9Z"/><circle class="a" cx="6.75" cy="4.5" r="2.25"/></svg>