<svg xmlns="http://www.w3.org/2000/svg" xmlns:xlink="http://www.w3.org/1999/xlink" width="130.793" height="97.527" viewBox="0 0 130.793 97.527">
  <defs>
    <filter id="Path_221" x="3.396" y="3.484" width="124.004" height="89" filterUnits="userSpaceOnUse">
      <feOffset input="SourceAlpha"/>
      <feGaussianBlur stdDeviation="3" result="blur"/>
      <feFlood flood-color="#7ec490"/>
      <feComposite operator="in" in2="blur"/>
      <feComposite in="SourceGraphic"/>
    </filter>
    <linearGradient id="linear-gradient" x2="1" y2="1" gradientUnits="objectBoundingBox">
      <stop offset="0" stop-color="#7ec490" stop-opacity="0"/>
      <stop offset="1" stop-color="#7ec490" stop-opacity="0.502"/>
    </linearGradient>
  </defs>
  <g id="dashboard_wow_factor" data-name="dashboard wow factor" transform="translate(12.896 12.984)">
    <path id="Path_220" data-name="Path 220" d="M50.646,4.5A50.276,50.276,0,0,0,.751,55.162v9.212A6.653,6.653,0,0,0,7.4,71.027H93.888a6.653,6.653,0,0,0,6.653-6.653V55.149A50.276,50.276,0,0,0,50.646,4.5Z" transform="translate(1.855 -1.984)" fill="none" stroke="#7ec490" stroke-linecap="round" stroke-linejoin="round" stroke-width="1"/>
    <g transform="matrix(1, 0, 0, 1, -12.9, -12.98)" filter="url(#Path_221)">
      <path id="Path_221-2" data-name="Path 221" d="M53.251,4.5A52.9,52.9,0,0,0,.751,57.807V67.5a7,7,0,0,0,7,7h91a7,7,0,0,0,7-7V57.793A52.9,52.9,0,0,0,53.251,4.5Z" transform="translate(12.15 8.48)" fill="none" stroke="#7ec490" stroke-linecap="round" stroke-linejoin="round" stroke-width="1" opacity="0.5"/>
    </g>
    <path id="Path_189" data-name="Path 189" d="M50.646,4.5A50.276,50.276,0,0,0,.751,55.162v9.212A6.653,6.653,0,0,0,7.4,71.027H93.888a6.653,6.653,0,0,0,6.653-6.653V55.149A50.276,50.276,0,0,0,50.646,4.5Z" transform="translate(1.855 -1.984)" stroke="#fff" stroke-linecap="round" stroke-linejoin="round" stroke-width="1" fill="url(#linear-gradient)"/>
    <line id="Line_33" data-name="Line 33" x2="2.275" y2="6.249" transform="translate(39.985 14.982)" fill="none" stroke="#fff" stroke-linecap="round" stroke-linejoin="round" stroke-width="1"/>
    <line id="Line_34" data-name="Line 34" x2="5.761" y2="3.326" transform="translate(20.812 31.069)" fill="none" stroke="#fff" stroke-linecap="round" stroke-linejoin="round" stroke-width="1"/>
    <line id="Line_35" data-name="Line 35" y1="1.158" x2="6.555" transform="translate(16.465 54.562)" fill="none" stroke="#fff" stroke-linecap="round" stroke-linejoin="round" stroke-width="1"/>
    <line id="Line_36" data-name="Line 36" x1="2.275" y2="6.249" transform="translate(62.742 14.982)" fill="none" stroke="#fff" stroke-linecap="round" stroke-linejoin="round" stroke-width="1"/>
    <line id="Line_38" data-name="Line 38" x1="6.555" y1="1.158" transform="translate(81.983 54.562)" fill="none" stroke="#fff" stroke-linecap="round" stroke-linejoin="round" stroke-width="1"/>
    <line id="Line_39" data-name="Line 39" x1="5.762" y2="3.326" transform="translate(78.505 31.069)" fill="none" stroke="#fff" stroke-linecap="round" stroke-linejoin="round" stroke-width="1"/>
  </g>
</svg>
