<svg width="20" height="14" viewBox="0 0 20 14" fill="none" xmlns="http://www.w3.org/2000/svg">
<path d="M3.125 13.2593C1.40167 13.2593 0 11.8576 0 10.1343V3.88428C0 2.16094 1.40167 0.759277 3.125 0.759277H10.625C12.3483 0.759277 13.75 2.16094 13.75 3.88428V10.1343C13.75 11.8576 12.3483 13.2593 10.625 13.2593H3.125ZM3.125 2.00928C2.09083 2.00928 1.25 2.85011 1.25 3.88428V10.1343C1.25 11.1684 2.09083 12.0093 3.125 12.0093H10.625C11.6592 12.0093 12.5 11.1684 12.5 10.1343V3.88428C12.5 2.85011 11.6592 2.00928 10.625 2.00928H3.125Z" fill="currentColor"/>
<path d="M18.7493 11.6234C18.5551 11.6234 18.3676 11.5793 18.1918 11.4909L15.3451 10.0684C15.0368 9.91427 14.9118 9.53844 15.0659 9.23011C15.1726 9.01677 15.3868 8.88427 15.6251 8.88427C15.7209 8.88427 15.8168 8.90677 15.9034 8.94927L18.7501 10.3726V3.64511L15.9043 5.06844C15.8176 5.11177 15.7209 5.13427 15.6251 5.13427C15.3868 5.13427 15.1726 5.00177 15.0659 4.78927C14.9118 4.48094 15.0376 4.10427 15.3451 3.95094L18.1909 2.52844C18.3634 2.44177 18.5568 2.39594 18.7501 2.39594C19.0851 2.39594 19.3984 2.52594 19.6343 2.76261C19.8709 2.99844 20.0001 3.31177 20.0001 3.64594V10.3734C20.0001 10.5659 19.9551 10.7584 19.8693 10.9309C19.7201 11.2301 19.4626 11.4534 19.1468 11.5584C19.0184 11.6009 18.8843 11.6234 18.7493 11.6234Z" fill="currentColor"/>
</svg>
