<svg width="20" height="18" viewBox="0 0 20 18" fill="none" xmlns="http://www.w3.org/2000/svg">
<path fill-rule="evenodd" clip-rule="evenodd" d="M18.7501 5.64583V12.3558C18.7318 12.3517 18.7159 12.3517 18.7343 12.3642L18.7501 12.3725L15.9043 10.95C15.5959 10.7958 15.2201 10.9208 15.0659 11.23C14.9118 11.5383 15.0368 11.9142 15.3459 12.0683L18.1918 13.4908C18.3651 13.5775 18.5559 13.6225 18.7501 13.6225C19.4359 13.6225 20.0001 13.0583 20.0001 12.3725V5.64417C20.0001 4.95917 19.4359 4.395 18.7509 4.395C18.5568 4.395 18.3643 4.44083 18.1909 4.52833C18.1918 4.5275 15.3459 5.95 15.3459 5.95C15.0368 6.10417 14.9118 6.48 15.0659 6.78833C15.2201 7.0975 15.5959 7.2225 15.9043 7.06833L18.7501 5.64583Z" fill="currentColor"/>
<path fill-rule="evenodd" clip-rule="evenodd" d="M1.5625 3.1775C0.628333 3.71834 0 4.72834 0 5.88417V12.1342C0 13.8592 1.4 15.2592 3.125 15.2592H10.625C11.1992 15.2592 11.7375 15.1042 12.2 14.8333C12.4975 14.6592 12.5983 14.2758 12.4242 13.9783C12.25 13.6808 11.8667 13.58 11.5692 13.7542C11.2917 13.9167 10.9692 14.0092 10.625 14.0092H3.125C2.09 14.0092 1.25 13.1692 1.25 12.1342V5.88417C1.25 5.19 1.6275 4.58417 2.18833 4.26C2.4875 4.08667 2.58917 3.70417 2.41667 3.40584C2.24417 3.1075 1.86083 3.005 1.5625 3.1775Z" fill="currentColor"/>
<path fill-rule="evenodd" clip-rule="evenodd" d="M13.75 8.55166V5.88416C13.75 4.15916 12.35 2.75916 10.625 2.75916H7.76248C7.41748 2.75916 7.13748 3.03916 7.13748 3.38416C7.13748 3.72916 7.41748 4.00916 7.76248 4.00916H10.625C11.66 4.00916 12.5 4.84916 12.5 5.88416V8.55166C12.5 8.89666 12.78 9.17666 13.125 9.17666C13.47 9.17666 13.75 8.89666 13.75 8.55166Z" fill="currentColor"/>
<path d="M17.5001 17.125C17.3309 17.125 17.1668 17.055 17.0493 16.9333L2.04925 1.30833C1.93425 1.1875 1.87175 1.02917 1.87592 0.8625C1.87925 0.695833 1.94759 0.54 2.06759 0.424167C2.18425 0.311667 2.33842 0.25 2.50009 0.25C2.66925 0.25 2.83425 0.32 2.95092 0.4425L17.9509 16.0675C18.0668 16.1883 18.1284 16.3458 18.1251 16.5133C18.1218 16.68 18.0534 16.8358 17.9326 16.9517C17.8159 17.0633 17.6626 17.125 17.5001 17.125Z" fill="#F25D05"/>
</svg>
