<svg width="20" height="16" viewBox="0 0 20 16" fill="none" xmlns="http://www.w3.org/2000/svg">
<path d="M4.91754e-07 2.375C5.36959e-07 1.34083 0.840834 0.5 1.875 0.5L11.875 0.5C12.9092 0.5 13.75 1.34083 13.75 2.375L13.75 3.625C13.75 3.97 13.47 4.25 13.125 4.25C12.78 4.25 12.5 3.97 12.5 3.625L12.5 2.375C12.5 2.03 12.22 1.75 11.875 1.75L1.875 1.75C1.53 1.75 1.25 2.03 1.25 2.375L1.25 13.625C1.25 13.97 1.53 14.25 1.875 14.25H11.875C12.22 14.25 12.5 13.97 12.5 13.625V12.375C12.5 12.03 12.78 11.75 13.125 11.75C13.47 11.75 13.75 12.03 13.75 12.375V13.625C13.75 14.6592 12.9092 15.5 11.875 15.5H1.875C0.840833 15.5 -4.5204e-08 14.6592 0 13.625L4.91754e-07 2.375Z" fill="currentColor"/>
<path d="M10 8C10 7.655 10.28 7.375 10.625 7.375H17.8658L15.8083 5.31667C15.69 5.19917 15.625 5.04167 15.625 4.875C15.625 4.70833 15.69 4.55083 15.8083 4.43333C15.9258 4.315 16.0833 4.25 16.25 4.25C16.4167 4.25 16.5742 4.315 16.6917 4.43333L19.8158 7.5575C19.8742 7.61583 19.92 7.68417 19.9517 7.76167C19.9542 7.76833 19.9567 7.775 19.9592 7.7825C19.9867 7.85417 20 7.92667 20 8C20 8.07417 19.9867 8.1475 19.96 8.2175C19.9583 8.22333 19.9558 8.22917 19.9542 8.23417C19.9208 8.315 19.875 8.38333 19.8158 8.4425L16.6917 11.5667C16.5742 11.685 16.4167 11.75 16.25 11.75C16.0833 11.75 15.9258 11.685 15.8083 11.5667C15.6908 11.4483 15.625 11.2917 15.625 11.125C15.625 10.9583 15.69 10.8008 15.8083 10.6833L17.8667 8.625L10.6258 8.625C10.28 8.625 10 8.345 10 8Z" fill="currentColor"/>
</svg>
