<svg width="20" height="20" viewBox="0 0 20 20" fill="none" xmlns="http://www.w3.org/2000/svg">
<g clip-path="url(#clip0_504_24660)">
<path d="M4.37738 17.9142C3.20738 17.9142 2.10905 17.46 1.28405 16.635C0.459049 15.81 0.00488281 14.7117 0.00488281 13.5417C0.00488281 12.3717 0.459049 11.2733 1.28405 10.4483L5.26155 6.47C6.08655 5.64333 7.18655 5.1875 8.35822 5.1875C9.52655 5.1875 10.6241 5.64083 11.4482 6.46333C12.9832 7.995 13.1716 10.38 11.8966 12.1333C11.7799 12.2942 11.5907 12.3908 11.3907 12.3908C11.2574 12.3908 11.1307 12.3492 11.0232 12.2708C10.8891 12.1733 10.7999 12.0283 10.7741 11.8633C10.7482 11.6983 10.7874 11.5333 10.8857 11.3983C11.7966 10.1458 11.6624 8.4425 10.5657 7.34833C9.97655 6.76083 9.19322 6.43667 8.35822 6.43667C7.52072 6.43667 6.73572 6.7625 6.14572 7.3525L2.16738 11.3308C0.94905 12.5492 0.94905 14.5317 2.16738 15.75C2.75655 16.3392 3.54155 16.6633 4.37738 16.6633C5.21322 16.6633 5.99822 16.3392 6.58738 15.75L7.36405 14.9733C7.48238 14.855 7.63905 14.79 7.80572 14.79C7.97238 14.79 8.12988 14.855 8.24738 14.9733C8.36572 15.0917 8.43072 15.2483 8.43072 15.415C8.43072 15.5817 8.36572 15.7392 8.24738 15.8567L7.47072 16.6333C6.64655 17.46 5.54738 17.9142 4.37738 17.9142Z" fill="currentColor"/>
<path d="M11.6484 15.0198C10.4809 15.0198 9.38344 14.5657 8.5576 13.7407C7.02344 12.209 6.8351 9.82484 8.11094 8.0715C8.2276 7.91067 8.41677 7.814 8.61594 7.814C8.74844 7.814 8.87594 7.85567 8.98344 7.93317C9.11844 8.0315 9.2076 8.1765 9.23344 8.3415C9.25927 8.5065 9.22011 8.6715 9.12177 8.8065C8.21094 10.059 8.34511 11.7615 9.44094 12.8557C10.0309 13.4448 10.8151 13.769 11.6493 13.769C12.4868 13.7682 13.2709 13.4432 13.8609 12.8523L17.8384 8.87484C18.4284 8.28484 18.7534 7.49984 18.7534 6.66484C18.7534 5.82984 18.4284 5.04567 17.8384 4.45484C17.2493 3.86567 16.4643 3.5415 15.6284 3.5415C14.7926 3.5415 14.0076 3.86567 13.4184 4.45484L12.7934 5.07984C12.6751 5.19817 12.5184 5.26317 12.3518 5.26317C12.1851 5.26317 12.0276 5.19817 11.9101 5.07984C11.7918 4.96234 11.7268 4.80484 11.7268 4.63817C11.7268 4.4715 11.7918 4.314 11.9101 4.1965L12.5351 3.5715C13.3601 2.7465 14.4593 2.2915 15.6284 2.2915C16.7976 2.2915 17.8968 2.74567 18.7218 3.5715C19.5484 4.39734 20.0034 5.4965 20.0034 6.66484C20.0034 7.83317 19.5484 8.93234 18.7218 9.75817L14.7443 13.7357C13.9193 14.5623 12.8209 15.0182 11.6518 15.019H11.6484V15.0198Z" fill="currentColor"/>
</g>
<defs>
<clipPath id="clip0_504_24660">
<rect width="20" height="20" fill="currentColor"/>
</clipPath>
</defs>
</svg>
