<svg width="20" height="20" viewBox="0 0 20 20" fill="none" xmlns="http://www.w3.org/2000/svg">
<path d="M4.10761 15.8926C5.27304 17.058 6.7579 17.8517 8.37441 18.1732C9.99092 18.4948 11.6665 18.3297 13.1892 17.699C14.7119 17.0683 16.0134 16.0002 16.9291 14.6298C17.8448 13.2594 18.3335 11.6482 18.3335 10C18.3335 8.35184 17.8448 6.74068 16.9291 5.37027C16.0134 3.99986 14.7119 2.93176 13.1892 2.30102C11.6665 1.67029 9.99092 1.50527 8.37441 1.82681C6.7579 2.14835 5.27304 2.94203 4.10761 4.10746" stroke="currentColor"/>
<path d="M12.5 9.99998L12.8904 9.68763L13.1403 9.99998L12.8904 10.3123L12.5 9.99998ZM2.5 10.5C2.22386 10.5 2 10.2761 2 9.99998C2 9.72384 2.22386 9.49998 2.5 9.49998V10.5ZM9.5571 5.52097L12.8904 9.68763L12.1096 10.3123L8.77623 6.14566L9.5571 5.52097ZM12.8904 10.3123L9.5571 14.479L8.77623 13.8543L12.1096 9.68763L12.8904 10.3123ZM12.5 10.5H2.5V9.49998H12.5V10.5Z" fill="currentColor"/>
</svg>
