<svg width="161" height="83" viewBox="0 0 161 83" fill="none" xmlns="http://www.w3.org/2000/svg">
    <path d="M22.8359 82.5C17.0012 82.5 11.4054 80.1822 7.27959 76.0564C3.15379 71.9305 0.835938 66.3348 0.835938 60.5V38.5C0.835937 32.6652 3.15379 27.0695 7.27959 22.9437C11.4054 18.8179 17.0012 16.5 22.8359 16.5C28.6707 16.5 34.2665 18.8179 38.3923 22.9437C42.5181 27.0695 44.8359 32.6652 44.8359 38.5V60.5C44.8359 66.3348 42.5181 71.9305 38.3923 76.0564C34.2665 80.1822 28.6707 82.5 22.8359 82.5Z" fill="currentColor" fill-opacity="0.3"/>
    <path d="M22.8359 82C17.1338 82 11.6652 79.7348 7.63314 75.7028C3.60111 71.6708 1.33594 66.2022 1.33594 60.5V38.5C1.33594 32.7978 3.60111 27.3292 7.63314 23.2972C11.6652 19.2652 17.1338 17 22.8359 17C28.5381 17 34.0067 19.2652 38.0387 23.2972C42.0708 27.3292 44.3359 32.7978 44.3359 38.5V60.5C44.3359 66.2022 42.0708 71.6708 38.0387 75.7028C34.0067 79.7348 28.5381 82 22.8359 82Z" stroke="url(#paint0_linear_2_3)" stroke-opacity="0.2"/>
    <path d="M0.835938 44H44.8359" stroke="currentColor" stroke-linecap="round" stroke-linejoin="round"/>
    <path d="M22.8359 44V16.5C22.8359 12.1239 24.5743 7.92709 27.6687 4.83274C30.763 1.73839 34.9599 0 39.3359 0V0C43.712 0 47.9089 1.73839 51.0032 4.83274C54.0976 7.92709 55.8359 12.1239 55.8359 16.5V24.75C55.8359 28.3967 57.2846 31.8941 59.8632 34.4727C62.4418 37.0513 65.9392 38.5 69.5859 38.5V38.5C73.2327 38.5 76.73 37.0513 79.3087 34.4727C81.8873 31.8941 83.3359 28.3967 83.3359 24.75V0" stroke="currentColor" stroke-linecap="round" stroke-linejoin="round"/>
    <path fill-rule="evenodd" clip-rule="evenodd" d="M161.001 36.0008C161.001 32.3211 158.012 29.334 154.333 29.334H100.002C96.3231 29.334 93.3359 32.3211 93.3359 36.0008V75.834C93.3359 79.5133 96.3231 82.5004 100.002 82.5004H154.333C158.012 82.5004 161.001 79.5133 161.001 75.834V36.0008Z" fill="currentColor" fill-opacity="0.3"/>
    <path d="M151.821 33.834C154.892 33.834 157.332 36.1678 157.332 38.9768V72.6915C157.332 75.5001 154.892 77.834 151.821 77.834H102.842C99.7709 77.834 97.332 75.5003 97.332 72.6915V38.9768C97.332 36.1677 99.7709 33.834 102.842 33.834H151.821Z" stroke="currentColor"/>
    <defs>
        <linearGradient id="paint0_linear_2_3" x1="0.835938" y1="16.5" x2="61.759" y2="57.1154" gradientUnits="userSpaceOnUse">
            <stop stop-color="currentColor"/>
            <stop offset="1" stop-color="currentColor"/>
        </linearGradient>
    </defs>
</svg>
