<svg width="20" height="20" viewBox="0 0 20 20" fill="none" xmlns="http://www.w3.org/2000/svg">
    <path d="M0.625027 20C0.460022 20 0.299184 19.9333 0.182514 19.8167C0.0275095 19.6617 -0.0349923 19.4325 0.019176 19.22L1.49422 13.4658C1.49922 13.4475 1.51172 13.4133 1.51922 13.3958C1.52005 13.3925 1.52505 13.3792 1.53172 13.365C1.56589 13.29 1.60672 13.2292 1.65756 13.1792L13.7629 1.07417C14.4504 0.383333 15.3671 0.0025 16.3447 0C17.3264 0 18.2422 0.378333 18.9331 1.06583L18.9572 1.09C19.6414 1.79083 20.0106 2.71333 19.9998 3.69083C19.9881 4.66833 19.5981 5.58167 18.8997 6.26333L6.82104 18.3417C6.76938 18.3933 6.70687 18.4358 6.62854 18.47C6.58854 18.4875 6.56354 18.4975 6.53604 18.505L0.779199 19.9817C0.728364 19.9942 0.676695 20 0.625027 20ZM1.49255 18.5075L5.16766 17.565L2.43341 14.8358L1.49255 18.5075ZM6.3827 17.0117L17.233 6.16167L13.8379 2.76667L2.9851 13.62L6.3827 17.0117ZM18.1155 5.27667C18.9747 4.33917 18.9614 2.88333 18.0664 1.96667L18.0497 1.95C17.5964 1.49917 16.993 1.25 16.3522 1.25C15.7405 1.25167 15.1671 1.47583 14.7229 1.885L18.1155 5.27667Z" fill="currentColor"/>
</svg>