<svg width="13" height="15" viewBox="0 0 13 15" fill="none" xmlns="http://www.w3.org/2000/svg">
	<path d="M7.27299 0.976962L11.6952 2.15621C12.1329 2.27294 12.4375 2.66939 12.4375 3.12244V7.05973C12.4375 9.06585 11.4349 10.9392 9.7657 12.052L7.0547 13.8594C6.7188 14.0833 6.2812 14.0833 5.9453 13.8594L3.2343 12.052C1.56511 10.9392 0.5625 9.06585 0.5625 7.05973V3.12244C0.5625 2.66939 0.867083 2.27294 1.30484 2.15621L5.72701 0.976962C6.23349 0.841902 6.76651 0.841902 7.27299 0.976962Z" stroke="currentcolor" stroke-linecap="round"/>
	<path d="M4.52083 7.10416L5.92739 8.51072C6.02502 8.60835 6.18331 8.60835 6.28094 8.51072L8.875 5.91666" stroke="currentcolor" stroke-linecap="round"/>
</svg>
