<svg width="160" height="41" viewBox="0 0 160 41" fill="none" xmlns="http://www.w3.org/2000/svg">
    <path d="M153.333 1C156.736 1 159.501 3.76341 159.501 7.1668V33.8336C159.501 37.2366 156.736 40 153.333 40H6.66641C3.26329 40 0.5 37.2367 0.5 33.8336V7.1668C0.5 3.76326 3.26331 1 6.66641 1H153.333Z" fill="currentColor" fill-opacity="0.2" stroke="currentColor"/>
    <path d="M153.333 0.502475C157.011 0.502475 159.999 3.4885 159.999 7.1668V33.8336C159.999 37.5115 157.011 40.4975 153.333 40.4975H6.66641C2.98851 40.4975 0.00247475 37.5115 0.00247475 33.8336V7.1668C0.00247475 3.4885 2.98851 0.502475 6.66641 0.502475H153.333ZM158.67 33.8336V7.1668C158.67 4.22186 156.279 1.83073 153.333 1.83073H6.66641C3.72226 1.83073 1.33114 4.22186 1.33114 7.1668V33.8336C1.33114 36.7785 3.72226 39.1693 6.66641 39.1693H153.333C156.279 39.1693 158.67 36.7785 158.67 33.8336Z" fill="currentColor" fill-opacity="0.2" stroke="currentColor" stroke-width="0.0049495"/>
    <path d="M49.295 24.656C48.5323 24.656 47.8823 24.5173 47.345 24.24C46.8163 23.9627 46.3613 23.59 45.98 23.122L46.994 22.173C47.3146 22.563 47.6656 22.8577 48.047 23.057C48.437 23.2563 48.879 23.356 49.373 23.356C49.9536 23.356 50.3913 23.226 50.686 22.966C50.9806 22.706 51.128 22.355 51.128 21.913C51.128 21.5577 51.024 21.276 50.816 21.068C50.608 20.86 50.2396 20.704 49.711 20.6L48.905 20.457C48.021 20.2923 47.358 20.002 46.916 19.586C46.474 19.17 46.253 18.598 46.253 17.87C46.253 17.4713 46.3266 17.1117 46.474 16.791C46.63 16.4617 46.8423 16.1887 47.111 15.972C47.3883 15.7467 47.722 15.5733 48.112 15.452C48.502 15.3307 48.9396 15.27 49.425 15.27C50.1096 15.27 50.7033 15.3913 51.206 15.634C51.7086 15.868 52.1376 16.2103 52.493 16.661L51.466 17.571C51.232 17.2677 50.946 17.025 50.608 16.843C50.27 16.661 49.8496 16.57 49.347 16.57C48.827 16.57 48.424 16.674 48.138 16.882C47.852 17.09 47.709 17.3933 47.709 17.792C47.709 18.1733 47.826 18.4593 48.06 18.65C48.294 18.832 48.658 18.9707 49.152 19.066L49.958 19.235C50.868 19.4083 51.531 19.703 51.947 20.119C52.3716 20.535 52.584 21.107 52.584 21.835C52.584 22.2597 52.5103 22.6453 52.363 22.992C52.2156 23.3387 51.999 23.6377 51.713 23.889C51.4356 24.1317 51.0933 24.3223 50.686 24.461C50.2786 24.591 49.815 24.656 49.295 24.656ZM54.3475 24.5V15.426H58.2475C59.0882 15.426 59.7382 15.673 60.1975 16.167C60.6568 16.661 60.8865 17.324 60.8865 18.156C60.8865 18.988 60.6568 19.651 60.1975 20.145C59.7382 20.639 59.0882 20.886 58.2475 20.886H55.8165V24.5H54.3475ZM55.8165 19.599H58.1565C58.5292 19.599 58.8195 19.5037 59.0275 19.313C59.2355 19.1137 59.3395 18.832 59.3395 18.468V17.844C59.3395 17.48 59.2355 17.2027 59.0275 17.012C58.8195 16.8127 58.5292 16.713 58.1565 16.713H55.8165V19.599ZM67.4296 24.5L66.6106 22.043H63.2176L62.4246 24.5H60.9296L64.0236 15.426H65.8696L68.9636 24.5H67.4296ZM64.9466 16.778H64.8816L63.5686 20.782H66.2466L64.9466 16.778ZM73.4957 24.656C72.3083 24.656 71.3767 24.2573 70.7007 23.46C70.0247 22.654 69.6867 21.4883 69.6867 19.963C69.6867 19.2003 69.7733 18.5287 69.9467 17.948C70.12 17.3673 70.3713 16.8777 70.7007 16.479C71.03 16.0803 71.4287 15.7813 71.8967 15.582C72.3733 15.374 72.9063 15.27 73.4957 15.27C74.2843 15.27 74.943 15.4433 75.4717 15.79C76.009 16.1367 76.4293 16.648 76.7327 17.324L75.4977 18C75.3417 17.5667 75.099 17.2243 74.7697 16.973C74.449 16.713 74.0243 16.583 73.4957 16.583C72.7937 16.583 72.2433 16.8213 71.8447 17.298C71.446 17.7747 71.2467 18.4333 71.2467 19.274V20.652C71.2467 21.4927 71.446 22.1513 71.8447 22.628C72.2433 23.1047 72.7937 23.343 73.4957 23.343C74.0417 23.343 74.4837 23.2043 74.8217 22.927C75.1683 22.641 75.424 22.277 75.5887 21.835L76.7717 22.55C76.4683 23.2087 76.0437 23.7243 75.4977 24.097C74.9517 24.4697 74.2843 24.656 73.4957 24.656ZM78.3289 24.5V15.426H84.1399V16.726H79.7979V19.248H83.7369V20.548H79.7979V23.2H84.1399V24.5H78.3289ZM89.1073 15.426H93.1243C93.8783 15.426 94.4676 15.6383 94.8923 16.063C95.3256 16.4877 95.5423 17.0553 95.5423 17.766C95.5423 18.104 95.4946 18.3943 95.3993 18.637C95.3039 18.871 95.1826 19.066 95.0353 19.222C94.8879 19.3693 94.7189 19.482 94.5283 19.56C94.3376 19.6293 94.1513 19.6727 93.9693 19.69V19.768C94.1513 19.7767 94.3506 19.82 94.5673 19.898C94.7926 19.976 95.0006 20.1017 95.1913 20.275C95.3819 20.4397 95.5423 20.6563 95.6723 20.925C95.8023 21.185 95.8673 21.5057 95.8673 21.887C95.8673 22.251 95.8066 22.5933 95.6853 22.914C95.5726 23.2347 95.4123 23.512 95.2043 23.746C94.9963 23.98 94.7493 24.1663 94.4633 24.305C94.1773 24.435 93.8653 24.5 93.5273 24.5H89.1073V15.426ZM90.5763 23.239H93.0983C93.4796 23.239 93.7786 23.1393 93.9953 22.94C94.2119 22.7407 94.3203 22.4547 94.3203 22.082V21.64C94.3203 21.2673 94.2119 20.9813 93.9953 20.782C93.7786 20.5827 93.4796 20.483 93.0983 20.483H90.5763V23.239ZM90.5763 19.261H92.8513C93.2153 19.261 93.4969 19.17 93.6963 18.988C93.8956 18.7973 93.9953 18.5287 93.9953 18.182V17.766C93.9953 17.4193 93.8956 17.155 93.6963 16.973C93.4969 16.7823 93.2153 16.687 92.8513 16.687H90.5763V19.261ZM103.192 24.5L102.373 22.043H98.9803L98.1873 24.5H96.6923L99.7863 15.426H101.632L104.726 24.5H103.192ZM100.709 16.778H100.644L99.3313 20.782H102.009L100.709 16.778ZM107.601 24.5H106.132V15.426H110.045C110.859 15.426 111.501 15.673 111.969 16.167C112.437 16.6523 112.671 17.3153 112.671 18.156C112.671 18.806 112.519 19.3477 112.216 19.781C111.921 20.2057 111.483 20.5047 110.903 20.678L112.866 24.5H111.228L109.408 20.834H107.601V24.5ZM109.941 19.599C110.313 19.599 110.604 19.5037 110.812 19.313C111.02 19.1137 111.124 18.832 111.124 18.468V17.844C111.124 17.48 111.02 17.2027 110.812 17.012C110.604 16.8127 110.313 16.713 109.941 16.713H107.601V19.599H109.941Z" fill="currentColor"/>
</svg>
