<svg width="20" height="20" viewBox="0 0 20 20" fill="none" xmlns="http://www.w3.org/2000/svg">
<path d="M10 15C10.5178 15 10.9375 14.5803 10.9375 14.0625C10.9375 13.5447 10.5178 13.125 10 13.125C9.48223 13.125 9.0625 13.5447 9.0625 14.0625C9.0625 14.5803 9.48223 15 10 15Z" fill="currentColor"/>
<path d="M10 11.875C9.655 11.875 9.375 11.595 9.375 11.25V4.375C9.375 4.03 9.655 3.75 10 3.75C10.345 3.75 10.625 4.03 10.625 4.375V11.25C10.625 11.595 10.345 11.875 10 11.875Z" fill="currentColor"/>
<path d="M10 20C4.48583 20 0 15.5142 0 10C0 4.48583 4.48583 0 10 0C15.5142 0 20 4.48583 20 10C20 15.5142 15.5142 20 10 20ZM10 1.25C5.175 1.25 1.25 5.175 1.25 10C1.25 14.825 5.175 18.75 10 18.75C14.825 18.75 18.75 14.825 18.75 10C18.75 5.175 14.825 1.25 10 1.25Z" fill="currentColor"/>
</svg>
