<?xml version="1.0" encoding="UTF-8"?>
<svg width="1042px" height="488px" viewBox="0 0 1042 488" version="1.1" xmlns="http://www.w3.org/2000/svg" xmlns:xlink="http://www.w3.org/1999/xlink">
    <title>Group</title>
    <g id="Page-11" stroke="none" stroke-width="1" fill="none" fill-rule="evenodd">
        <g id="Momentum-Style-guide" transform="translate(-666.000000, -252.000000)" fill="#4BFFF2">
            <g id="Group" transform="translate(666.525600, 252.882400)">
                <polygon id="Fill-42" points="185.995 365.1887 185.995 485.1057 156.784 485.1057 156.976 413.1897 109.398 485.1057 74.738 485.1057 77.745 413.0187 38.091 485.1057 0 485.1057 74.096 365.1887 108.716 365.1887 104.942 440.2597 151.38 365.1887"></polygon>
                <g id="Group-55" transform="translate(193.049100, -0.000000)">
                    <path d="M84.643,450.0876 C90.392,443.7116 93.27,435.2846 93.27,424.8056 C93.27,414.2146 90.392,405.7586 84.643,399.4386 C78.891,393.1176 71.233,389.9576 61.667,389.9576 C51.987,389.9576 44.27,393.0916 38.521,399.3536 C32.769,405.6176 29.894,414.1026 29.894,424.8056 C29.894,435.3966 32.769,443.8526 38.521,450.1736 C44.27,456.4936 51.987,459.6536 61.667,459.6536 C71.233,459.6536 78.891,456.4666 84.643,450.0876 M30.663,478.4436 C21.268,473.2076 13.808,465.8886 8.285,456.4936 C2.76,447.0976 -1.13686838e-13,436.5366 -1.13686838e-13,424.8056 C-1.13686838e-13,413.0776 2.76,402.5426 8.285,393.2036 C13.808,383.8676 21.268,376.5776 30.663,371.3386 C40.058,366.1016 50.393,363.4806 61.667,363.4806 C72.942,363.4806 83.276,366.1016 92.672,371.3386 C102.067,376.5776 109.468,383.8676 114.879,393.2036 C120.286,402.5426 122.993,413.0776 122.993,424.8056 C122.993,436.5366 120.26,447.0976 114.793,456.4936 C109.327,465.8886 101.923,473.2076 92.586,478.4436 C83.247,483.6836 72.942,486.3016 61.667,486.3016 C50.393,486.3016 40.058,483.6836 30.663,478.4436" id="Fill-43"></path>
                    <polygon id="Fill-45" points="265.8334 365.1887 265.8334 485.1057 236.6224 485.1057 236.6224 413.1897 209.8034 485.1057 186.2304 485.1057 159.2404 413.0187 159.2404 485.1057 130.0294 485.1057 130.0294 365.1887 164.5354 365.1887 198.1874 448.2087 231.4984 365.1887"></polygon>
                    <polygon id="Fill-47" points="302.8488 388.5912 302.8488 412.8482 341.9668 412.8482 341.9668 435.3972 302.8488 435.3972 302.8488 461.7032 347.0918 461.7032 347.0918 485.1062 273.6378 485.1062 273.6378 365.1892 347.0918 365.1892 347.0918 388.5912"></polygon>
                    <path d="M625.3776,365.1888 L625.3776,436.9338 C625.3776,444.1088 623.5546,449.6338 619.9116,453.5038 C616.2656,457.3768 611.0286,459.3118 604.1956,459.3118 C597.3626,459.3118 592.1796,457.3768 588.6506,453.5038 C585.1196,449.6338 583.3556,444.1088 583.3556,436.9338 L583.3556,365.1888 L554.1446,365.1888 L461.4046,365.1888 L461.3876,365.1888 L432.1936,365.1888 L432.1936,439.4968 L383.3386,365.1888 L354.1286,365.1888 L354.1286,485.1058 L383.3386,485.1058 L383.3386,411.1398 L432.1936,485.1058 L461.4046,485.1058 L461.4046,388.5908 L493.1606,388.5908 L493.1606,485.1058 L522.3716,485.1058 L522.3716,388.5908 L554.1446,388.5908 L554.1446,436.7638 C554.1446,447.4698 556.3066,456.5518 560.6356,464.0098 C564.9626,471.4698 570.8556,477.0508 578.3156,480.7498 C585.7736,484.4528 594.2286,486.3018 603.6836,486.3018 C613.1346,486.3018 621.7046,484.4228 629.3916,480.6648 C637.0786,476.9068 643.1996,471.3278 647.7556,463.9238 C652.3086,456.5228 654.5886,447.4698 654.5886,436.7638 L654.5886,365.1888 L625.3776,365.1888 Z" id="Fill-49"></path>
                    <polygon id="Fill-51" points="696.4133 365.1887 742.8513 440.2597 739.0773 365.1887 773.6973 365.1887 847.7933 485.1057 809.7023 485.1057 770.0483 413.0187 773.0553 485.1057 738.3953 485.1057 690.8173 413.1897 691.0093 485.1057 661.7983 485.1057 661.7983 365.1887"></polygon>
                    <path d="M416.2734,105.319 L377.3094,66.355 C367.2724,56.318 350.9994,56.318 340.9624,66.354 L277.0924,130.225 L277.0924,126.397 C277.0924,124.125 277.9944,121.946 279.6014,120.34 L337.2824,62.655 C347.3184,52.619 347.3184,36.345 337.2824,26.309 L315.9904,5.018 C312.7774,1.805 308.4194,0 303.8754,0 L288.9034,0 C280.0694,0 272.8024,6.687 271.8754,15.275 L253.9664,33.18 C248.9484,38.198 248.9474,46.334 253.9644,51.353 L271.7704,69.162 L271.7704,42.267 L271.7704,42.267 L271.7704,42.267 L310.5884,42.267 C311.4484,42.267 312.3104,42.506 312.9884,43.034 C314.7754,44.426 314.8944,47.014 313.3434,48.565 L255.2204,106.688 C252.0074,109.901 250.2014,114.259 250.2014,118.803 L250.2014,146.314 C250.2014,150.858 252.0074,155.216 255.2204,158.43 L279.6714,182.881 C282.8844,186.095 287.2424,187.9 291.7874,187.9 L323.6524,187.9 L323.6524,318.864 C323.6524,320.921 325.3204,322.589 327.3784,322.589 C329.4354,322.589 331.1034,320.921 331.1034,318.864 L331.1034,187.9 L362.9394,187.904 C367.4844,187.905 371.8434,186.1 375.0574,182.886 L389.0524,168.892 L334.5944,114.434 C333.5764,113.416 333.5764,111.765 334.5944,110.747 C335.6134,109.728 337.2644,109.728 338.2824,110.747 L392.7394,165.204 L411.7494,146.194 L357.2924,91.737 C356.2734,90.719 356.2734,89.067 357.2924,88.049 C358.3104,87.031 359.9614,87.031 360.9804,88.049 L415.4374,142.506 L416.2754,141.668 C426.3114,131.629 426.3104,115.356 416.2734,105.319" id="Fill-53"></path>
                </g>
            </g>
        </g>
    </g>
</svg>