<?xml version="1.0" encoding="utf-8"?>
<!-- Generator: Adobe Illustrator 24.0.3, SVG Export Plug-In . SVG Version: 6.00 Build 0)  -->
<svg version="1.1" id="Layer_1" xmlns="http://www.w3.org/2000/svg" xmlns:xlink="http://www.w3.org/1999/xlink" x="0px" y="0px"
	 viewBox="0 0 310 40" style="enable-background:new 0 0 310 40;" xml:space="preserve">
<style type="text/css">
	.st0{fill:#FFFFFF;}
</style>
<path class="st0" d="M19.6,20L0,0v40h6.5V16.1l13.1,13.3L39.2,9.3V0L19.6,20z"/>
<path class="st0" d="M105.7,20L86.2,0v40h6.5V16.1l13.1,13.3l19.6-20.1V0L105.7,20z"/>
<path class="st0" d="M132.8,0l6.5,6.7h19.6V0H132.8z M139.3,16.7v6.6h19.6v-6.6H139.3z M139.3,33.3l-6.5,6.1V40h26.1v-6.7H139.3z"/>
<path class="st0" d="M166.3,0v40h6.5V16l26,24V29.9L166.3,0z"/>
<path class="st0" d="M201.2,0v6.7h6.1h0V40h6.6V6.7h13V0H201.2z"/>
<path class="st0" d="M250.3,33.2c-0.5,0.1-1.1,0.1-1.7,0.1c-2.7,0-5-1-6.9-3c-1.9-1.9-2.8-4.2-2.8-7V0h-6.5v23.3
	c0,4.5,1.6,8.6,4.7,11.8c3.2,3.3,7,4.9,11.5,4.9c2.5,0,4.8-0.5,6.9-1.5L250.3,33.2z"/>
<path class="st0" d="M68.3,8.5c-2.1-1.3-4.5-2.1-7.1-2.1c-7.3,0-13.3,6.1-13.3,13.6c0,2.2,0.5,4.2,1.4,6l-4.7,4.4
	c-1.8-3-2.9-6.6-2.9-10.4C41.7,8.9,50.4,0,61.2,0c2.7,0,5.3,0.6,7.7,1.6c1.5,0.7,2.9,1.5,4.1,2.5L68.3,8.5z"/>
<path class="st0" d="M80.7,20c0,11-8.7,19.9-19.5,19.9c-2.7,0-5.3-0.6-7.7-1.6c-1.7-0.7-3.2-1.7-4.6-2.9l4.7-4.3
	c2.2,1.6,4.8,2.5,7.6,2.5c7.3,0,13.3-6.1,13.3-13.6c0-2.4-0.6-4.6-1.7-6.6L77.5,9C79.5,12.2,80.7,15.9,80.7,20z"/>
<path class="st0" d="M290.4,20L270.8,0v9.3l19.6,20.1l13.1-13.3V40h6.5V0L290.4,20z"/>
<path class="st0" d="M258.5,0v23.3c0,2.4-0.7,4.6-2.2,6.3l4.6,4.7c2.7-3.1,4.1-6.9,4.1-11.1V0H258.5z"/>
</svg>
