<svg width="1491" height="698" viewBox="0 0 1491 698" fill="none" xmlns="http://www.w3.org/2000/svg">
<path fill-rule="evenodd" clip-rule="evenodd" d="M267.474 523.3V694.722H225.716L225.991 591.918L157.977 694.722H108.431L112.729 591.673L56.0435 694.722H1.59204L107.513 523.3H157.003L151.608 630.614L217.991 523.3H267.474Z" fill="white"/>
<path fill-rule="evenodd" clip-rule="evenodd" d="M398.556 644.662C406.774 635.547 410.888 623.501 410.888 608.521C410.888 593.381 406.774 581.293 398.556 572.259C390.333 563.223 379.386 558.706 365.711 558.706C351.874 558.706 340.842 563.186 332.624 572.137C324.401 581.092 320.291 593.221 320.291 608.521C320.291 623.661 324.401 635.749 332.624 644.785C340.842 653.819 351.874 658.337 365.711 658.337C379.386 658.337 390.333 653.781 398.556 644.662ZM321.391 685.197C307.961 677.712 297.296 667.25 289.401 653.819C281.503 640.388 277.558 625.291 277.558 608.521C277.558 591.756 281.503 576.696 289.401 563.346C297.296 550 307.961 539.579 321.391 532.09C334.821 524.603 349.595 520.856 365.711 520.856C381.829 520.856 396.602 524.603 410.033 532.09C423.463 539.579 434.043 550 441.778 563.346C449.508 576.696 453.377 591.756 453.377 608.521C453.377 625.291 449.47 640.388 441.655 653.819C433.842 667.25 423.258 677.712 409.91 685.197C396.56 692.688 381.829 696.43 365.711 696.43C349.595 696.43 334.821 692.688 321.391 685.197Z" fill="white"/>
<path fill-rule="evenodd" clip-rule="evenodd" d="M657.569 523.299V694.721H615.811V591.917L577.473 694.721H543.776L505.193 591.672V694.721H463.436V523.299H512.762L560.868 641.977L608.487 523.299H657.569Z" fill="white"/>
<path fill-rule="evenodd" clip-rule="evenodd" d="M710.482 556.752V591.428H766.402V623.662H710.482V661.266H773.728V694.721H668.725V523.299H773.728V556.752H710.482Z" fill="white"/>
<path fill-rule="evenodd" clip-rule="evenodd" d="M1171.54 523.299V625.859C1171.54 636.116 1168.94 644.014 1163.73 649.546C1158.52 655.082 1151.03 657.848 1141.26 657.848C1131.49 657.848 1124.08 655.082 1119.04 649.546C1113.99 644.014 1111.47 636.116 1111.47 625.859V523.299H1069.71H937.14H937.116H895.383V629.523L825.544 523.299H783.788V694.721H825.544V588.986L895.383 694.721H937.14V556.752H982.536V694.721H1024.29V556.752H1069.71V625.616C1069.71 640.92 1072.8 653.903 1078.99 664.564C1085.18 675.228 1093.6 683.206 1104.27 688.494C1114.93 693.788 1127.01 696.431 1140.53 696.431C1154.04 696.431 1166.29 693.745 1177.28 688.373C1188.27 683.001 1197.02 675.025 1203.53 664.441C1210.04 653.862 1213.3 640.92 1213.3 625.616V523.299H1171.54Z" fill="white"/>
<path fill-rule="evenodd" clip-rule="evenodd" d="M1273.09 523.299L1339.47 630.614L1334.07 523.299H1383.56L1489.49 694.721H1435.03L1378.35 591.672L1382.65 694.721H1333.1L1265.09 591.917L1265.36 694.721H1223.6V523.299H1273.09Z" fill="white"/>
<path fill-rule="evenodd" clip-rule="evenodd" d="M872.624 151.812L816.924 96.1129C802.576 81.7649 779.314 81.7649 764.966 96.1114L673.663 187.416V181.943C673.663 178.696 674.953 175.581 677.25 173.285L759.705 90.8237C774.052 76.4771 774.052 53.2133 759.705 38.8668L729.268 8.43109C724.675 3.83808 718.445 1.25781 711.95 1.25781H690.547C677.919 1.25781 667.531 10.8169 666.205 23.0936L640.604 48.6889C633.431 55.8622 633.43 67.4927 640.602 74.6674L666.055 100.126V61.6789H721.546C722.775 61.6789 724.008 62.0205 724.977 62.7753C727.531 64.7652 727.702 68.4647 725.484 70.6819L642.397 153.769C637.804 158.362 635.222 164.592 635.222 171.088V210.415C635.222 216.911 637.804 223.14 642.397 227.735L677.35 262.688C681.943 267.282 688.173 269.863 694.67 269.863H740.221V457.077C740.221 460.017 742.606 462.402 745.547 462.402C748.488 462.402 750.872 460.017 750.872 457.077V269.863L796.382 269.868C802.879 269.87 809.111 267.289 813.705 262.695L833.711 242.69L755.863 164.842C754.408 163.387 754.408 161.027 755.863 159.572C757.319 158.115 759.68 158.115 761.135 159.572L838.982 237.418L866.157 210.243L788.31 132.397C786.853 130.941 786.853 128.58 788.31 127.125C789.765 125.669 792.125 125.669 793.582 127.125L871.429 204.971L872.627 203.773C886.973 189.423 886.972 166.16 872.624 151.812Z" fill="white"/>
</svg>
