<svg width="16" height="16" viewBox="0 0 16 16" fill="none" xmlns="http://www.w3.org/2000/svg">
<path fill-rule="evenodd" clip-rule="evenodd" d="M7.99986 1.50925C4.04659 1.50925 0.842189 4.71391 0.842189 8.66692C0.842189 10.3491 1.42199 11.895 2.39312 13.1169C2.53781 13.299 2.52412 13.5644 2.35084 13.7195V13.7195C2.17756 13.8746 1.91041 13.8605 1.76461 13.6793C0.661015 12.3081 0 10.5642 0 8.66699C0 4.24889 3.58176 0.666992 8 0.666992C12.4182 0.666992 16 4.24875 16 8.66699C16 10.5643 15.339 12.308 14.2354 13.6793C14.0896 13.8605 13.8224 13.8746 13.6492 13.7195V13.7195C13.4759 13.5644 13.4622 13.299 13.6069 13.1169C14.578 11.895 15.1578 10.3492 15.1578 8.66692C15.1578 4.71366 11.9532 1.50925 8.00014 1.50925H7.99986Z" fill="currentColor"/>
<path fill-rule="evenodd" clip-rule="evenodd" d="M7.99897 4.03555C5.44111 4.03555 3.36758 6.10915 3.36758 8.66694C3.36758 9.69057 3.6992 10.636 4.2613 11.4025C4.3988 11.59 4.38396 11.8551 4.20964 12.009V12.009C4.03531 12.1628 3.7678 12.1472 3.6277 11.9616C2.9359 11.0451 2.52539 9.90357 2.52539 8.66708C2.52539 5.64414 4.9761 3.19336 7.99911 3.19336C11.0222 3.19336 13.4728 5.64407 13.4728 8.66708C13.4728 9.90368 13.0622 11.0452 12.3705 11.9616C12.2304 12.1472 11.9629 12.1628 11.7886 12.009V12.009C11.6143 11.8551 11.5994 11.5901 11.7369 11.4025C12.299 10.636 12.6306 9.69057 12.6306 8.66694C12.6306 6.10908 10.5572 4.03555 7.99926 4.03555H7.99897Z" fill="currentColor"/>
<path fill-rule="evenodd" clip-rule="evenodd" d="M8.00011 6.56192C6.83749 6.56192 5.89493 7.50447 5.89493 8.6671C5.89493 8.94778 5.94961 9.21509 6.04894 9.45943C6.13651 9.67486 6.08854 9.93537 5.89489 10.0641V10.0641C5.70127 10.1928 5.43683 10.1412 5.337 9.9312C5.15474 9.54787 5.05273 9.11901 5.05273 8.6671C5.05273 7.03938 6.37239 5.71973 8.00011 5.71973C9.62782 5.71973 10.9475 7.03938 10.9475 8.6671C10.9475 9.11897 10.8455 9.5478 10.6633 9.9311C10.5635 10.1411 10.299 10.1928 10.1054 10.0641V10.0641C9.91171 9.93537 9.86372 9.67483 9.95129 9.45938C10.0506 9.21505 10.1053 8.94776 10.1053 8.6671C10.1053 7.50447 9.16274 6.56192 8.00011 6.56192Z" fill="currentColor"/>
<path d="M8.84229 8.66724C8.84229 9.13233 8.46534 9.50928 8.00025 9.50928C7.53516 9.50928 7.1582 9.13233 7.1582 8.66724C7.1582 8.20215 7.53516 7.8252 8.00025 7.8252C8.46534 7.8252 8.84229 8.20215 8.84229 8.66724Z" fill="currentColor"/>
</svg>
