<svg width="48" height="48" viewBox="0 0 48 48" fill="none" xmlns="http://www.w3.org/2000/svg">
<g clip-path="url(#clip0_4_569)">
<path d="M24.002 43.9979C23.9 43.9979 23.798 43.9919 23.696 43.9819C22.9 43.9019 22.182 43.5159 21.676 42.8959C21.234 42.3539 20.992 41.6699 21 40.9699V34.9999H3.00004C2.19404 34.9979 1.44004 34.6819 0.874038 34.1099C0.308038 33.5399 -0.00396177 32.7839 3.8231e-05 31.9819V17.0119C-0.00396177 16.2159 0.306038 15.4599 0.874038 14.8899C1.44004 14.3199 2.19204 14.0039 2.99404 13.9999H21V8.01591C20.992 7.22591 21.298 6.47191 21.86 5.90191C22.422 5.32991 23.172 5.01191 23.97 5.00391C24.688 5.00791 25.368 5.24991 25.896 5.68191L46.872 22.1479C47.518 22.6799 47.91 23.4099 47.986 24.2139C48.062 25.0179 47.822 25.8039 47.308 26.4259C47.184 26.5739 47.048 26.7119 46.9 26.8339L25.872 43.3399C25.358 43.7599 24.69 43.9979 24.002 43.9979ZM3.00004 31.9879L22.5 31.9999C23.328 31.9999 24 32.6719 24 33.4999V40.9839L45.02 24.4939L24.02 8.02191L24 15.4999C24 16.3279 23.328 16.9999 22.5 16.9999H3.00604L3.00004 31.9879Z" fill="currentColor"/>
</g>
<defs>
<clipPath id="clip0_4_569">
<rect width="48" height="48" fill="currentColor"/>
</clipPath>
</defs>
</svg>
