<svg width="48" height="48" viewBox="0 0 48 48" fill="none" xmlns="http://www.w3.org/2000/svg">
<path d="M15.5 48C13.57 48 12 46.43 12 44.5V41C12 39.07 13.57 37.5 15.5 37.5H23.5C25.43 37.5 27 39.07 27 41V44.5C27 46.43 25.43 48 23.5 48H15.5ZM15.5 40.5C15.224 40.5 15 40.724 15 41V44.5C15 44.776 15.224 45 15.5 45H23.5C23.776 45 24 44.776 24 44.5V41C24 40.724 23.776 40.5 23.5 40.5H15.5Z" fill="currentColor"/>
<path d="M37.5 48C36.672 48 36 47.328 36 46.5V40.5C36 37.188 33.78 34.228 30.602 33.3C29.248 32.908 28.122 31.936 27.506 30.676L25.856 31.502C23.904 32.478 21.706 32.994 19.502 32.994C17.298 32.994 15.1 32.478 13.148 31.502L11.496 30.676C10.882 31.936 9.752 32.906 8.398 33.3C5.22 34.226 3 37.186 3 40.498V46.498C3 47.326 2.328 47.998 1.5 47.998C0.672 47.998 0 47.326 0 46.498V27C0 23.692 2.692 21 6 21C6.828 21 7.5 21.672 7.5 22.5C7.5 23.328 6.828 24 6 24C4.346 24 3 25.346 3 27V33.166C4.254 31.876 5.82 30.926 7.558 30.418C8.408 30.172 9 29.382 9 28.5V22.5C9 16.71 13.71 12 19.5 12C25.29 12 30 16.71 30 22.5V28.5C30 29.384 30.592 30.174 31.44 30.42C33.18 30.928 34.746 31.878 36 33.168V27C36 25.346 34.654 24 33 24C32.172 24 31.5 23.328 31.5 22.5C31.5 21.672 32.172 21 33 21C36.308 21 39 23.692 39 27V46.5C39 47.328 38.328 48 37.5 48ZM14.486 28.816C16.026 29.586 17.758 29.992 19.498 29.992C21.238 29.992 22.972 29.586 24.512 28.816L26.998 27.572V23.426L24.512 22.182C22.972 21.412 21.238 21.004 19.498 21.004C17.758 21.004 16.024 21.41 14.486 22.182L12 23.428V27.574L14.486 28.816ZM19.5 15C16.378 15 13.604 16.988 12.508 19.818L13.146 19.5C15.098 18.524 17.296 18.008 19.5 18.008C21.704 18.008 23.902 18.524 25.854 19.5L26.49 19.818C25.396 16.988 22.622 15 19.5 15Z" fill="currentColor"/>
<path d="M22.5 9C21.672 9 21 8.328 21 7.5V6H19.5C18.672 6 18 5.328 18 4.5C18 3.672 18.672 3 19.5 3H21V1.5C21 0.672 21.672 0 22.5 0C23.328 0 24 0.672 24 1.5V3H25.5C26.328 3 27 3.672 27 4.5C27 5.328 26.328 6 25.5 6H24V7.5C24 8.328 23.328 9 22.5 9Z" fill="currentColor"/>
<path d="M43.5 24C42.672 24 42 23.328 42 22.5V21H40.5C39.672 21 39 20.328 39 19.5C39 18.672 39.672 18 40.5 18H42V16.5C42 15.672 42.672 15 43.5 15C44.328 15 45 15.672 45 16.5V18H46.5C47.328 18 48 18.672 48 19.5C48 20.328 47.328 21 46.5 21H45V22.5C45 23.328 44.328 24 43.5 24Z" fill="currentColor"/>
<path d="M37.5 15C36.68 15 36.006 14.332 36 13.512C35.98 11.044 33.956 9.02 31.488 9C30.668 8.994 30 8.32 30 7.5C30 6.68 30.668 6.006 31.488 6C33.956 5.98 35.98 3.956 36 1.488C36.006 0.668 36.68 0 37.5 0C38.32 0 38.994 0.668 39 1.488C39.02 3.956 41.044 5.98 43.512 6C44.332 6.006 45 6.68 45 7.5C45 8.32 44.332 8.994 43.512 9C41.044 9.02 39.02 11.044 39 13.512C38.994 14.332 38.32 15 37.5 15ZM35.948 7.5C36.536 7.94 37.06 8.464 37.5 9.052C37.94 8.464 38.464 7.94 39.052 7.5C38.464 7.06 37.94 6.536 37.5 5.948C37.06 6.536 36.536 7.06 35.948 7.5Z" fill="currentColor"/>
</svg>
