<svg width="20" height="20" viewBox="0 0 20 20" fill="none" xmlns="http://www.w3.org/2000/svg">
<path fill-rule="evenodd" clip-rule="evenodd" d="M2.29972 0C2.27557 0.00195313 2.25142 0.00390625 2.22869 0.00585938C1.89205 0.0363281 1.58523 0.100781 1.2983 0.261719C0.850852 0.5125 0.487216 0.9125 0.258523 1.40469C0.159091 1.61992 0.0994318 1.84531 0.0639205 2.08398C0.046875 2.19531 0.0355114 2.30977 0.0269886 2.42773C0.00994318 2.64688 0.00426136 2.89688 0.00142045 3.18125L0 3.76133V16.2152C0 16.7512 0 17.191 0.0269886 17.5488C0.0539773 17.9195 0.113636 18.2566 0.258523 18.5723C0.487216 19.0641 0.850852 19.4641 1.2983 19.7148C1.58523 19.8758 1.89205 19.9402 2.22869 19.9707C2.55398 20 2.95313 20 3.44034 20H16.5597C17.0469 20 17.446 20 17.7713 19.9707C18.1094 19.9402 18.4148 19.8758 18.7017 19.7148C19.1491 19.4641 19.5128 19.0641 19.7415 18.5723C19.8878 18.2566 19.946 17.9195 19.973 17.5488C20 17.191 20 16.7512 20 16.2152V3.76133C20 3.33516 20 2.96953 19.9858 2.65742L19.973 2.42773C19.946 2.05703 19.8878 1.71992 19.7415 1.40469C19.5128 0.9125 19.1491 0.5125 18.7017 0.261719C18.5554 0.179297 18.4034 0.122266 18.2457 0.0820313C18.0938 0.04375 17.9361 0.0207031 17.7713 0.00585938C17.7486 0.00390625 17.7244 0.00195313 17.7003 0H2.29972ZM3.46449 1.22188H5.66051V3.56406C5.66051 3.78555 5.7642 3.97969 5.92188 4.08984C6.00994 4.15117 6.11364 4.18672 6.22585 4.18672C6.53835 4.18672 6.79261 3.9082 6.79261 3.56406V1.22188H14.1506V3.56406C14.1506 3.9082 14.4048 4.18672 14.7173 4.18672C15.0298 4.18672 15.2827 3.9082 15.2827 3.56406V1.22188H16.5355C16.892 1.22188 17.169 1.22227 17.3977 1.23047C17.5014 1.23398 17.5938 1.23906 17.679 1.24688C17.946 1.27109 18.0866 1.31484 18.1875 1.37109C18.4219 1.50273 18.6122 1.71211 18.7315 1.96992C18.7841 2.08047 18.8239 2.23555 18.8452 2.5293C18.8679 2.83047 18.8679 3.21914 18.8679 3.78711V5.3418H1.1321V3.78711C1.1321 3.21914 1.1321 2.83047 1.15483 2.5293C1.17614 2.23555 1.21591 2.08047 1.26847 1.96992C1.38778 1.71211 1.57813 1.50273 1.8125 1.37109C1.91335 1.31484 2.05398 1.27109 2.32102 1.24688C2.59375 1.22227 2.94744 1.22188 3.46449 1.22188ZM1.1321 6.58711H18.8679V16.1895L18.8665 16.841C18.8636 17.0816 18.858 17.2785 18.8452 17.4473C18.8239 17.741 18.7841 17.8961 18.7315 18.0066C18.6122 18.2645 18.4219 18.4742 18.1875 18.6055C18.0866 18.6617 17.946 18.7059 17.679 18.7297C17.4063 18.7543 17.0526 18.7547 16.5355 18.7547H3.46449C2.94744 18.7547 2.59375 18.7543 2.32102 18.7297C2.05398 18.7059 1.91335 18.6617 1.8125 18.6055C1.57813 18.4742 1.38778 18.2645 1.26847 18.0066C1.21591 17.8961 1.17614 17.741 1.15483 17.4473C1.1321 17.1465 1.1321 16.7574 1.1321 16.1895V6.58711ZM12.8295 11.8363H7.17045C6.85653 11.8363 6.60369 12.1152 6.60369 12.459C6.60369 12.8031 6.85653 13.0816 7.17045 13.0816H12.8295C13.1435 13.0816 13.3963 12.8031 13.3963 12.459C13.3963 12.2473 13.2997 12.0602 13.1534 11.9477C13.0611 11.8773 12.9503 11.8363 12.8295 11.8363Z" fill="currentColor"/>
</svg>
