<svg width="48" height="48" viewBox="0 0 48 48" fill="none" xmlns="http://www.w3.org/2000/svg">
<g clip-path="url(#clip0_2657_55435)">
<path d="M35.8987 47.9884C33.4828 47.9884 31.1154 47.2929 29.0508 45.9796L28.9588 45.9166C18.3211 38.7295 9.26326 29.6717 2.06161 19.0146C2.04707 18.9928 2.00588 18.9274 1.99134 18.9007C-1.21451 13.8678 -0.49483 7.36643 3.7554 3.11619L5.282 1.59202C6.30942 0.564598 7.67851 0 9.13483 0C10.5936 0 11.9627 0.567021 12.9901 1.59444L19.4163 8.01826C20.4462 9.0481 21.0132 10.4172 21.0108 11.8759C21.0108 13.3347 20.4438 14.7038 19.4139 15.7312C18.7063 16.4388 18.7063 17.5922 19.4139 18.2998L29.693 28.5812C30.0346 28.9229 30.4902 29.1119 30.9773 29.1119C31.4643 29.1119 31.9199 28.9229 32.2615 28.5812C33.2914 27.5514 34.6605 26.9868 36.1192 26.9868C37.578 26.9868 38.9471 27.5538 39.9745 28.5812L46.3838 34.9881C47.433 36.0373 48 37.4064 48 38.8627C48 40.3191 47.4306 41.6882 46.4007 42.718L44.879 44.2422C42.4679 46.6581 39.2766 47.9884 35.8987 47.9884ZM9.13726 3.63233C8.6502 3.63233 8.19464 3.82133 7.85298 4.163L6.32396 5.6896C3.28773 8.72582 2.77887 13.3759 5.08572 16.9985C12.016 27.2534 20.7466 35.9816 31.0209 42.924C31.0257 42.9264 31.0718 42.9603 31.0766 42.9627C32.4966 43.8666 34.1734 44.3561 35.8842 44.3561C38.2976 44.3561 40.5803 43.4013 42.3128 41.6712L43.837 40.147C44.1811 39.8029 44.3701 39.3474 44.3701 38.8603C44.3701 38.3805 44.1859 37.9274 43.8491 37.5857L37.4083 31.1498C37.0643 30.8057 36.6087 30.6191 36.1216 30.6191C35.6346 30.6191 35.179 30.8081 34.8374 31.1498C33.8075 32.1797 32.4384 32.7442 30.9797 32.7442C29.5234 32.7442 28.1543 32.1772 27.1268 31.1498L16.8478 20.8683C14.7227 18.7432 14.7227 15.2853 16.8478 13.1578C17.1919 12.8137 17.3809 12.3581 17.3809 11.8735C17.3809 11.3889 17.1919 10.9309 16.8502 10.5868L10.4215 4.16542C10.0799 3.82133 9.62189 3.63233 9.13726 3.63233Z" fill="currentColor"/>
</g>
<defs>
<clipPath id="clip0_2657_55435">
<rect width="48" height="48" fill="currentColor"/>
</clipPath>
</defs>
</svg>
