<svg width="20" height="21" viewBox="0 0 20 21" fill="none" xmlns="http://www.w3.org/2000/svg">
<path fill-rule="evenodd" clip-rule="evenodd" d="M5.6 6.25C5.6 5.89102 5.89102 5.6 6.25 5.6H13.75C14.109 5.6 14.4 5.89102 14.4 6.25C14.4 6.60898 14.109 6.9 13.75 6.9H6.25C5.89102 6.9 5.6 6.60898 5.6 6.25ZM5.6 11.25C5.6 10.891 5.89102 10.6 6.25 10.6H10C10.359 10.6 10.65 10.891 10.65 11.25C10.65 11.609 10.359 11.9 10 11.9H6.25C5.89102 11.9 5.6 11.609 5.6 11.25ZM11.3143 16.9646C11.5172 16.5145 11.9688 16.2006 12.4943 16.1983C13.8491 16.1924 14.8117 16.165 15.5592 16.0617C16.2858 15.9613 16.7223 15.7992 17.0556 15.5764C17.4596 15.3065 17.8065 14.9596 18.0764 14.5556C18.3312 14.1743 18.5065 13.6588 18.6013 12.7261C18.6984 11.7718 18.7 10.5326 18.7 8.75C18.7 6.96737 18.6984 5.72824 18.6013 4.77388C18.5065 3.84124 18.3312 3.32574 18.0764 2.94439C17.8065 2.54039 17.4596 2.19351 17.0556 1.92356L17.7696 0.855044L17.0556 1.92356C16.6743 1.66875 16.1588 1.49353 15.2261 1.39866C14.2718 1.30157 13.0326 1.3 11.25 1.3H8.75C6.96737 1.3 5.72824 1.30157 4.77388 1.39866C3.84124 1.49353 3.32574 1.66875 2.94439 1.92356C2.54039 2.19351 2.19351 2.54039 1.92356 2.94439C1.66875 3.32574 1.49353 3.84124 1.39866 4.77388C1.30157 5.72824 1.3 6.96737 1.3 8.75C1.3 10.5326 1.30157 11.7718 1.39866 12.7261C1.49353 13.6588 1.66875 14.1743 1.92356 14.5556C2.19351 14.9596 2.54039 15.3065 2.94439 15.5764C3.27772 15.7992 3.71417 15.9613 4.44079 16.0617C5.1883 16.165 6.15092 16.1924 7.50567 16.1983C8.03123 16.2006 8.48284 16.5145 8.68573 16.9646L10 19.5931L11.3143 16.9646ZM7.5 17.5V17.4983C4.80287 17.4865 3.32384 17.3935 2.22215 16.6573C1.6762 16.2926 1.20744 15.8238 0.842652 15.2779C0 14.0167 0 12.2612 0 8.75C0 5.23884 0 3.48327 0.842652 2.22215C1.20744 1.6762 1.6762 1.20744 2.22215 0.842652C3.48327 0 5.23884 0 8.75 0H11.25C14.7612 0 16.5167 0 17.7779 0.842652C18.3238 1.20744 18.7926 1.6762 19.1573 2.22215C20 3.48327 20 5.23884 20 8.75C20 12.2612 20 14.0167 19.1573 15.2779C18.7926 15.8238 18.3238 16.2926 17.7779 16.6573C16.6762 17.3935 15.1971 17.4865 12.5 17.4983V17.5L11.118 20.2639C10.6574 21.1852 9.34262 21.1852 8.88197 20.2639L7.5 17.5Z" fill="currentColor"/>
</svg>
