<svg width="48" height="48" viewBox="0 0 48 48" fill="none" xmlns="http://www.w3.org/2000/svg">
<g clip-path="url(#clip0_4_1055)">
<path d="M40.5 48C40.1 48 39.722 47.844 39.44 47.56L30.88 39H22.5C20.018 39 18 36.982 18 34.5V19.5C18 17.018 20.018 15 22.5 15H43.5C45.982 15 48 17.018 48 19.5V34.5C48 36.982 45.982 39 43.5 39H42V46.5C42 47.108 41.636 47.652 41.074 47.886C40.892 47.962 40.698 48 40.5 48ZM22.5 18C21.672 18 21 18.672 21 19.5V34.5C21 35.328 21.672 36 22.5 36H31.5C31.896 36 32.282 36.16 32.56 36.44L39 42.88V37.5C39 36.672 39.672 36 40.5 36H43.5C44.328 36 45 35.328 45 34.5V19.5C45 18.672 44.328 18 43.5 18H22.5Z" fill="currentColor"/>
<path d="M7.5 33C7.302 33 7.108 32.962 6.926 32.886C6.364 32.652 6 32.108 6 31.5V24H4.5C2.018 24 0 21.982 0 19.5V4.5C0 2.018 2.018 0 4.5 0H25.5C27.982 0 30 2.018 30 4.5V10.5C30 11.328 29.328 12 28.5 12C27.672 12 27 11.328 27 10.5V4.5C27 3.672 26.328 3 25.5 3H4.5C3.672 3 3 3.672 3 4.5V19.5C3 20.328 3.672 21 4.5 21H7.5C8.328 21 9 21.672 9 22.5V27.878L12.44 24.438C12.722 24.156 13.1 24 13.5 24C13.9 24 14.278 24.156 14.56 24.44C15.144 25.024 15.144 25.976 14.56 26.562L8.56 32.562C8.278 32.844 7.9 33 7.5 33Z" fill="currentColor"/>
</g>
<defs>
<clipPath id="clip0_4_1055">
<rect width="48" height="48" fill="currentColor"/>
</clipPath>
</defs>
</svg>
