<svg width="48" height="48" viewBox="0 0 48 48" fill="none" xmlns="http://www.w3.org/2000/svg">
<path d="M14.4888 45C14.0728 45 13.6532 44.9574 13.2371 44.8758C11.5587 44.5423 10.1115 43.5808 9.16207 42.1652L0.485676 29.8824C-0.360628 28.6832 -0.0726014 27.0193 1.12929 26.1749C1.58089 25.8555 2.11072 25.6888 2.66544 25.6888C3.53308 25.6888 4.34738 26.111 4.84876 26.817L13.5607 39.1531C13.7527 39.4404 13.9874 39.6001 14.2754 39.6569C14.3466 39.6711 14.4177 39.6782 14.4888 39.6782C14.695 39.6782 14.8977 39.6143 15.072 39.4972C15.1715 39.4298 15.2569 39.3482 15.328 39.256L43.2489 4.0076C43.7538 3.36898 44.5148 3 45.3362 3C45.9336 3 46.5203 3.20223 46.9862 3.57121C47.5444 4.01115 47.9 4.64268 47.9818 5.34871C48.0636 6.05474 47.868 6.75013 47.4271 7.30715L19.5382 42.5129C19.1364 43.0416 18.6243 43.5205 18.034 43.9179C16.9779 44.6275 15.7511 45 14.4888 45Z" fill="currentColor"/>
</svg>
