<svg width="48" height="48" viewBox="0 0 48 48" fill="none" xmlns="http://www.w3.org/2000/svg">
<path d="M36 24C36 24.6667 35.699 25.2933 35.1549 25.765L14.4716 43.6333C14.1976 43.87 13.8349 44 13.4471 44C13.0612 44 12.6965 43.87 12.4245 43.6333C12.1505 43.3967 12 43.0833 12 42.75C12 42.4167 12.1505 42.1017 12.4245 41.8667L33.1059 24L12.4245 6.13334C12.1505 5.89667 12 5.58334 12 5.25C12 4.91667 12.1505 4.60167 12.4245 4.36666C12.6984 4.13 13.0612 4 13.4471 4C13.8329 4 14.1976 4.13 14.4697 4.36666L35.153 22.2333C35.699 22.7033 36 23.3317 36 24Z" fill="currentColor"/>
</svg>
