<svg width="21" height="21" viewBox="0 0 21 21" fill="none" xmlns="http://www.w3.org/2000/svg">
<path d="M10.5547 20.3438C5.04052 20.3438 0.554688 15.8579 0.554688 10.3438C0.554688 4.82958 5.04052 0.34375 10.5547 0.34375C16.0689 0.34375 20.5547 4.82958 20.5547 10.3438C20.5547 15.8579 16.0689 20.3438 10.5547 20.3438ZM10.5547 1.59375C5.72969 1.59375 1.80469 5.51875 1.80469 10.3438C1.80469 15.1687 5.72969 19.0938 10.5547 19.0938C15.3797 19.0938 19.3047 15.1687 19.3047 10.3438C19.3047 5.51875 15.3797 1.59375 10.5547 1.59375Z" fill="currentColor"/>
<path fill-rule="evenodd" clip-rule="evenodd" d="M10.7624 2.84375C10.4172 2.84375 10.1374 3.12357 10.1374 3.46875V9.92708H5.3457C5.00052 9.92708 4.7207 10.2069 4.7207 10.5521C4.7207 10.8973 5.00052 11.1771 5.3457 11.1771H10.1374H11.3874V9.92708V3.46875C11.3874 3.12357 11.1075 2.84375 10.7624 2.84375Z" fill="currentColor"/>
</svg>
