<svg width="14" height="14" viewBox="0 0 14 14" fill="none" xmlns="http://www.w3.org/2000/svg">
<g clip-path="url(#clip0_488_24475)">
<path d="M13.5625 13.9996C13.4458 13.9996 13.3356 13.9541 13.2533 13.8713L7 7.61852L0.746667 13.8713C0.663833 13.9541 0.554167 13.9996 0.4375 13.9996C0.320833 13.9996 0.210583 13.9541 0.128333 13.8713C-0.042 13.7009 -0.042 13.4233 0.128333 13.2524L6.38167 6.99902L0.128333 0.746274C0.0455 0.664024 0 0.553774 0 0.437107C0 0.32044 0.0455 0.21019 0.128333 0.12794C0.210583 0.0451068 0.320833 -0.000393229 0.4375 -0.000393229C0.554167 -0.000393229 0.664417 0.0451068 0.746667 0.12794L7 6.38069L13.2533 0.127357C13.3362 0.0445234 13.4458 -0.000976562 13.5625 -0.000976562C13.6792 -0.000976562 13.7894 0.0445234 13.8717 0.127357C13.9545 0.21019 14 0.32044 14 0.437107C14 0.553774 13.9545 0.664024 13.8717 0.746274L7.61833 6.99961L13.8717 13.2529C14.042 13.4233 14.042 13.7009 13.8717 13.8719C13.7894 13.9541 13.6792 13.9996 13.5625 13.9996Z" fill="currentColor"/>
</g>
<defs>
<clipPath id="clip0_488_24475">
<rect width="14" height="14" fill="currentColor"/>
</clipPath>
</defs>
</svg>
