<svg width="48" height="48" viewBox="0 0 48 48" fill="none" xmlns="http://www.w3.org/2000/svg">
<g clip-path="url(#clip0_4_882)">
<path d="M13.5 12.938C13.182 12.938 12.878 12.84 12.62 12.652L9.82 10.622C8.746 11.514 7.412 12 6 12C2.692 12 0 9.308 0 6C0 2.692 2.692 0 6 0C9.308 0 12 2.692 12 6C12 6.748 11.856 7.496 11.582 8.194L14.382 10.224C14.706 10.46 14.92 10.806 14.982 11.202C15.046 11.598 14.95 11.994 14.716 12.318C14.434 12.706 13.978 12.938 13.5 12.938ZM6 3C4.346 3 3 4.346 3 6C3 7.654 4.346 9 6 9C7.654 9 9 7.654 9 6C9 4.346 7.654 3 6 3Z" fill="currentColor"/>
<path d="M6 48.0005C2.692 48.0005 0 45.3085 0 42.0005C0 38.6925 2.692 36.0005 6 36.0005C7.412 36.0005 8.746 36.4845 9.818 37.3785L12.618 35.3465C12.876 35.1585 13.18 35.0605 13.498 35.0605C13.978 35.0605 14.432 35.2925 14.712 35.6805C14.948 36.0045 15.042 36.4005 14.98 36.7965C14.918 37.1925 14.704 37.5385 14.38 37.7745L11.58 39.8065C11.856 40.5045 12 41.2505 12 42.0005C12 45.3085 9.308 48.0005 6 48.0005ZM6 39.0005C4.346 39.0005 3 40.3465 3 42.0005C3 43.6545 4.346 45.0005 6 45.0005C7.654 45.0005 9 43.6545 9 42.0005C9 40.3465 7.654 39.0005 6 39.0005Z" fill="currentColor"/>
<path d="M34.4994 12.938C34.0194 12.938 33.5654 12.706 33.2854 12.318C32.7994 11.648 32.9494 10.71 33.6194 10.224L36.4194 8.194C36.1434 7.496 35.9994 6.748 35.9994 6C35.9994 2.692 38.6914 0 41.9994 0C45.3074 0 47.9994 2.692 47.9994 6C47.9994 9.308 45.3074 12 41.9994 12C40.5874 12 39.2534 11.514 38.1814 10.622L35.3814 12.652C35.1214 12.84 34.8174 12.938 34.4994 12.938ZM41.9994 3C40.3454 3 38.9994 4.346 38.9994 6C38.9994 7.654 40.3454 9 41.9994 9C43.6534 9 44.9994 7.654 44.9994 6C44.9994 4.346 43.6534 3 41.9994 3Z" fill="currentColor"/>
<path d="M42.0006 48.0005C38.6926 48.0005 36.0006 45.3085 36.0006 42.0005C36.0006 41.2505 36.1446 40.5045 36.4186 39.8065L33.6186 37.7745C33.2946 37.5405 33.0806 37.1925 33.0186 36.7965C32.9566 36.4005 33.0506 36.0045 33.2866 35.6805C33.5686 35.2925 34.0226 35.0605 34.5006 35.0605C34.8186 35.0605 35.1246 35.1605 35.3826 35.3465L38.1826 37.3785C39.2546 36.4845 40.5886 36.0005 42.0006 36.0005C45.3086 36.0005 48.0006 38.6925 48.0006 42.0005C48.0006 45.3085 45.3086 48.0005 42.0006 48.0005ZM42.0006 39.0005C40.3466 39.0005 39.0006 40.3465 39.0006 42.0005C39.0006 43.6545 40.3466 45.0005 42.0006 45.0005C43.6546 45.0005 45.0006 43.6545 45.0006 42.0005C45.0006 40.3465 43.6546 39.0005 42.0006 39.0005Z" fill="currentColor"/>
<path d="M24 22.5C20.278 22.5 17.25 19.472 17.25 15.75C17.25 12.028 20.278 9 24 9C27.722 9 30.75 12.028 30.75 15.75C30.75 19.472 27.722 22.5 24 22.5ZM24 12C21.932 12 20.25 13.682 20.25 15.75C20.25 17.818 21.932 19.5 24 19.5C26.068 19.5 27.75 17.818 27.75 15.75C27.75 13.682 26.068 12 24 12Z" fill="currentColor"/>
<path d="M15 33C14.172 33 13.5 32.328 13.5 31.5C13.5 25.71 18.21 21 24 21C29.79 21 34.5 25.71 34.5 31.5C34.5 32.328 33.828 33 33 33H15ZM31.348 30C30.644 26.576 27.564 24 24 24C20.436 24 17.356 26.576 16.652 30H31.348Z" fill="currentColor"/>
</g>
<defs>
<clipPath id="clip0_4_882">
<rect width="48" height="48" fill="currentColor"/>
</clipPath>
</defs>
</svg>
