<svg width="48" height="48" viewBox="0 0 48 48" fill="none" xmlns="http://www.w3.org/2000/svg">
<g clip-path="url(#clip0_4_1001)">
<path d="M27 47.9961C23.692 47.9961 21 45.3041 21 41.9961C21 39.2561 22.894 36.8681 25.5 36.1921V29.8661C24.16 29.6421 22.896 29.1181 21.788 28.3281L11.164 38.9521C11.712 39.8761 12 40.9161 12 41.9961C12 45.3041 9.308 47.9961 6 47.9961C2.692 47.9961 0 45.3041 0 41.9961C0 38.6881 2.692 35.9961 6 35.9961C7.08 35.9961 8.12 36.2841 9.042 36.8321L19.668 26.2081C18.588 24.6881 18 22.8641 18 20.9961C18 20.3221 18.078 19.6461 18.23 18.9841L11.508 14.9501C10.41 15.9381 8.98 16.4961 7.5 16.4961C4.192 16.4961 1.5 13.8041 1.5 10.4961C1.5 7.18809 4.192 4.49609 7.5 4.49609C10.808 4.49609 13.5 7.18809 13.5 10.4961C13.5 11.1641 13.388 11.8181 13.168 12.4481L19.4 16.1881C21.046 13.5841 23.89 11.9961 26.998 11.9961C28.866 11.9961 30.692 12.5841 32.21 13.6641L36.834 9.04009C36.288 8.11609 36 7.07609 36 5.99609C36 2.68809 38.692 -0.00390625 42 -0.00390625C45.308 -0.00390625 48 2.68809 48 5.99609C48 9.30409 45.308 11.9961 42 11.9961C40.92 11.9961 39.88 11.7081 38.958 11.1601L34.332 15.7861C35.412 17.3041 36 19.1301 36 20.9961C36 22.1161 35.792 23.2101 35.38 24.2561L38.084 26.9601C39.168 26.0221 40.558 25.4961 42 25.4961C45.308 25.4961 48 28.1881 48 31.4961C48 34.8041 45.308 37.4961 42 37.4961C38.692 37.4961 36 34.8041 36 31.4961C36 30.8041 36.12 30.1241 36.356 29.4741L33.78 26.8981C32.41 28.4721 30.546 29.5201 28.5 29.8661V36.1921C31.106 36.8681 33 39.2561 33 41.9961C33 45.3041 30.308 47.9961 27 47.9961ZM27 38.9961C25.346 38.9961 24 40.3421 24 41.9961C24 43.6501 25.346 44.9961 27 44.9961C28.654 44.9961 30 43.6501 30 41.9961C30 40.3421 28.654 38.9961 27 38.9961ZM6 38.9961C4.346 38.9961 3 40.3421 3 41.9961C3 43.6501 4.346 44.9961 6 44.9961C7.654 44.9961 9 43.6501 9 41.9961C9 41.2081 8.696 40.4641 8.142 39.8981C8.134 39.8901 8.104 39.8601 8.098 39.8541C7.532 39.3001 6.79 38.9961 6 38.9961ZM42 28.4961C40.346 28.4961 39 29.8421 39 31.4961C39 33.1501 40.346 34.4961 42 34.4961C43.654 34.4961 45 33.1501 45 31.4961C45 29.8421 43.654 28.4961 42 28.4961ZM22.81 25.2861C23.924 26.3841 25.418 26.9961 27 26.9961C30.308 26.9961 33 24.3041 33 20.9961C33 19.3961 32.376 17.8921 31.242 16.7561C30.106 15.6201 28.6 14.9961 27 14.9961C23.692 14.9961 21 17.6881 21 20.9961C21 22.5721 21.608 24.0601 22.714 25.1881C22.732 25.2021 22.748 25.2181 22.762 25.2321C22.778 25.2501 22.794 25.2681 22.81 25.2861ZM7.5 7.49609C5.846 7.49609 4.5 8.84209 4.5 10.4961C4.5 12.1501 5.846 13.4961 7.5 13.4961C9.154 13.4961 10.5 12.1501 10.5 10.4961C10.5 8.84209 9.154 7.49609 7.5 7.49609ZM39.914 8.14809C40.476 8.69409 41.216 8.99609 42 8.99609C43.654 8.99609 45 7.65009 45 5.99609C45 4.34209 43.654 2.99609 42 2.99609C40.346 2.99609 39 4.34209 39 5.99609C39 6.78009 39.3 7.51809 39.846 8.08209C39.858 8.09209 39.87 8.10409 39.882 8.11609C39.894 8.12609 39.904 8.13609 39.914 8.14809Z" fill="currentColor"/>
</g>
<defs>
<clipPath id="clip0_4_1001">
<rect width="48" height="48" fill="currentColor"/>
</clipPath>
</defs>
</svg>
