<svg width="10" height="10" viewBox="0 0 10 10" fill="none" xmlns="http://www.w3.org/2000/svg">
    <g clip-path="url(#clip0_1540_32952)">
        <path d="M7.5 10C7.47583 10 7.45208 9.99708 7.42667 9.99083C7.4225 9.99 7.41167 9.98667 7.4075 9.98542C7.3925 9.98083 7.37792 9.975 7.36375 9.96833C7.35667 9.96542 7.34958 9.96208 7.34375 9.95875L5.15708 8.70917C5.06042 8.65333 5 8.54917 5 8.4375V6.25C5 6.22583 5.00292 6.20167 5.00958 6.17542C5.01042 6.17125 5.01375 6.16083 5.015 6.15667C5.02125 6.13708 5.02833 6.12042 5.03667 6.10417C5.03958 6.09833 5.04333 6.09167 5.04708 6.08583C5.06 6.06458 5.07458 6.04625 5.09083 6.02958C5.09292 6.0275 5.09542 6.025 5.09792 6.02292C5.11125 6.01 5.12625 5.99875 5.14292 5.98792C5.14667 5.98542 5.15 5.98292 5.15333 5.98083L7.345 4.72833C7.39208 4.70167 7.44583 4.6875 7.5 4.6875C7.55417 4.6875 7.60792 4.70167 7.655 4.72875L9.8425 5.97875C9.84708 5.98125 9.85167 5.98458 9.85667 5.98792C9.87375 5.99875 9.88875 6.01042 9.9025 6.02375C9.90458 6.02583 9.90667 6.0275 9.90875 6.02958C9.92542 6.04625 9.93917 6.06458 9.95292 6.08583C9.95542 6.08958 9.96167 6.10083 9.96375 6.105C9.97208 6.12083 9.97917 6.1375 9.985 6.15542C9.98625 6.15917 9.99042 6.17292 9.99125 6.17625C9.99667 6.20167 10 6.22583 10 6.25V8.4375C10 8.54917 9.93958 8.65333 9.8425 8.70875L7.655 9.95875C7.64958 9.96208 7.6425 9.96542 7.63542 9.96792C7.62125 9.97458 7.60708 9.98042 7.5925 9.985C7.58917 9.98583 7.57625 9.99 7.57333 9.99083C7.54792 9.99708 7.52417 10 7.5 10ZM7.8125 9.14917L9.375 8.25625V6.78875L7.8125 7.68167V9.14917ZM7.1875 9.14917V7.68167L5.625 6.78875V8.25625L7.1875 9.14917ZM7.5 7.14L9.0575 6.25L7.5 5.36L5.9425 6.25L7.5 7.14Z" fill="currentColor"/>
        <path d="M5 5.3125C4.97583 5.3125 4.95167 5.30958 4.92667 5.30333C4.9225 5.3025 4.91167 5.29917 4.90708 5.2975C4.89208 5.29292 4.8775 5.28708 4.86292 5.28C4.8575 5.27792 4.85208 5.27542 4.84792 5.27292L2.6575 4.02125C2.56042 3.96583 2.5 3.86167 2.5 3.75V1.5625C2.5 1.53833 2.50292 1.51375 2.50958 1.48792C2.51042 1.48375 2.51417 1.47125 2.51583 1.46708C2.52125 1.45 2.52833 1.43292 2.53708 1.41625C2.53833 1.41375 2.54458 1.4025 2.54625 1.39958C2.57083 1.36 2.60417 1.32583 2.64292 1.30083C2.6475 1.2975 2.65208 1.29417 2.65625 1.29167L4.845 0.0408333C4.89208 0.0141667 4.94583 0 5 0C5.05417 0 5.10792 0.0141667 5.155 0.04125L7.3425 1.29125C7.34708 1.29375 7.35167 1.29708 7.35667 1.30042C7.37333 1.31083 7.38875 1.32292 7.4025 1.33583C7.40458 1.33792 7.40667 1.33958 7.40875 1.34167C7.42542 1.35833 7.43958 1.37708 7.45333 1.39875C7.455 1.40167 7.46083 1.41167 7.4625 1.415C7.4725 1.43375 7.47958 1.45125 7.485 1.46917C7.48583 1.47208 7.48958 1.485 7.49042 1.48833C7.49667 1.51417 7.5 1.53833 7.5 1.5625V3.75C7.5 3.86208 7.43958 3.96583 7.3425 4.02125L5.155 5.27125C5.14958 5.27458 5.14208 5.27792 5.135 5.28083C5.12 5.28792 5.10625 5.29333 5.09167 5.29792C5.08875 5.29875 5.07625 5.3025 5.07333 5.30333C5.04833 5.30958 5.02417 5.3125 5 5.3125ZM5.3125 4.46167L6.875 3.56875V2.10083L5.3125 2.99375V4.46167ZM4.6875 4.46167V2.99375L3.125 2.10083V3.56833L4.6875 4.46167ZM5 2.4525L6.5575 1.5625L5 0.6725L3.4425 1.5625L5 2.4525Z" fill="currentColor"/>
        <path d="M2.5 10C2.47583 10 2.45208 9.99708 2.42667 9.99083C2.4225 9.99 2.41208 9.98667 2.40792 9.98542C2.3925 9.98083 2.37792 9.975 2.36417 9.96792C2.35667 9.96458 2.34917 9.96083 2.34292 9.9575L0.157917 8.70875C0.0604167 8.65333 0 8.54917 0 8.4375V6.25C0 6.22583 0.00291667 6.20167 0.00958333 6.17542C0.0104167 6.17167 0.01375 6.16083 0.015 6.15708C0.02125 6.1375 0.0283333 6.12042 0.0370833 6.10417C0.0383333 6.10167 0.0445833 6.09042 0.04625 6.08792C0.0604167 6.065 0.075 6.04583 0.0916667 6.02917C0.09375 6.02708 0.0958333 6.02542 0.0979167 6.02333C0.11125 6.01042 0.12625 5.99917 0.142917 5.98833C0.146667 5.98583 0.15 5.98333 0.153333 5.98125L2.345 4.72875C2.39208 4.70167 2.44583 4.6875 2.5 4.6875C2.55417 4.6875 2.60792 4.70167 2.655 4.72875L4.2175 5.62167C4.29 5.66333 4.34208 5.73042 4.36375 5.81083C4.38583 5.89125 4.375 5.97583 4.33375 6.04833C4.27833 6.14542 4.17417 6.20583 4.06208 6.20583C4.00792 6.20583 3.95458 6.19167 3.9075 6.165L2.5 5.36L0.9425 6.25L2.5 7.14L3.595 6.51417C3.6425 6.4875 3.69583 6.47333 3.75 6.47333C3.86208 6.47333 3.96583 6.53375 4.02125 6.63083C4.10667 6.78042 4.05458 6.97167 3.905 7.05708L2.8125 7.68125V9.14875L3.9075 8.52292C3.95458 8.49625 4.00833 8.48167 4.06208 8.48167C4.17417 8.48167 4.27833 8.54208 4.33375 8.63917C4.375 8.71167 4.38583 8.79583 4.36375 8.87667C4.34167 8.95708 4.29 9.02417 4.2175 9.06583L2.655 9.95875C2.64958 9.96208 2.64208 9.96542 2.63542 9.96833C2.62125 9.975 2.60708 9.98083 2.5925 9.98542C2.58958 9.98625 2.57625 9.99042 2.57333 9.99125C2.54792 9.99708 2.52417 10 2.5 10ZM2.1875 9.14917V7.68167L0.625 6.78833V8.25583L2.1875 9.14917Z" fill="currentColor"/>
    </g>
    <defs>
        <clipPath id="clip0_1540_32952">
            <rect width="10" height="10" fill="currentColor"/>
        </clipPath>
    </defs>
</svg>