<svg width="20" height="20" viewBox="0 0 20 20" fill="none" xmlns="http://www.w3.org/2000/svg">
    <path fill-rule="evenodd" clip-rule="evenodd" d="M9.99998 0.268951L13.3647 3.85804L12.6352 4.54198L10.5 2.2644V7.00001C10.5 7.27615 10.2761 7.50001 9.99998 7.50001C9.72383 7.50001 9.49998 7.27615 9.49998 7.00001V2.2644L7.36475 4.54198L6.63521 3.85804L9.99998 0.268951Z" fill="currentColor"/>
    <path fill-rule="evenodd" clip-rule="evenodd" d="M19.731 10L16.1419 13.3648L15.458 12.6352L17.7356 10.5H13C12.7238 10.5 12.5 10.2761 12.5 10C12.5 9.72387 12.7238 9.50001 13 9.50001H17.7356L15.458 7.36478L16.1419 6.63524L19.731 10Z" fill="currentColor"/>
    <path fill-rule="evenodd" clip-rule="evenodd" d="M9.99998 19.7311L13.3647 16.142L12.6352 15.458L10.5 17.7356V13C10.5 12.7239 10.2761 12.5 9.99998 12.5C9.72383 12.5 9.49998 12.7239 9.49998 13V17.7356L7.36475 15.458L6.63521 16.142L9.99998 19.7311Z" fill="currentColor"/>
    <path fill-rule="evenodd" clip-rule="evenodd" d="M0.268921 10L3.85801 13.3648L4.54195 12.6352L2.26437 10.5H6.99998C7.27612 10.5 7.49998 10.2762 7.49998 10C7.49998 9.72387 7.27612 9.50001 6.99998 9.50001H2.26437L4.54195 7.36478L3.85801 6.63524L0.268921 10Z" fill="currentColor"/>
</svg>