<svg width="48" height="48" viewBox="0 0 48 48" fill="none" xmlns="http://www.w3.org/2000/svg">
<g clip-path="url(#clip0_4_675)">
<path d="M34.5 48C27.056 48 21 41.944 21 34.5C21 27.056 27.056 21 34.5 21C41.944 21 48 27.056 48 34.5C48 41.944 41.944 48 34.5 48ZM34.5 24C28.71 24 24 28.71 24 34.5C24 40.29 28.71 45 34.5 45C40.29 45 45 40.29 45 34.5C45 28.71 40.29 24 34.5 24Z" fill="currentColor"/>
<path d="M34.5 42C33.672 42 33 41.328 33 40.5V36H28.5C27.672 36 27 35.328 27 34.5C27 33.672 27.672 33 28.5 33H33V28.5C33 27.672 33.672 27 34.5 27C35.328 27 36 27.672 36 28.5V33H40.5C41.328 33 42 33.672 42 34.5C42 35.328 41.328 36 40.5 36H36V40.5C36 41.328 35.328 42 34.5 42Z" fill="currentColor"/>
<path d="M4.5 42C2.018 42 0 39.982 0 37.5V4.5C0 2.018 2.018 0 4.5 0H25.758C26.96 0 28.088 0.468 28.938 1.316L34.682 7.06C35.532 7.91 36 9.04 36 10.242V16.5C36 17.328 35.328 18 34.5 18C33.672 18 33 17.328 33 16.5V10.242C33 9.848 32.84 9.462 32.562 9.182L26.818 3.438C26.534 3.156 26.158 3 25.758 3H4.5C3.672 3 3 3.672 3 4.5V37.5C3 38.328 3.672 39 4.5 39H16.5C17.328 39 18 39.672 18 40.5C18 41.328 17.328 42 16.5 42H4.5Z" fill="currentColor"/>
</g>
<defs>
<clipPath id="clip0_4_675">
<rect width="48" height="48" fill="currentColor"/>
</clipPath>
</defs>
</svg>
