<svg width="48" height="48" viewBox="0 0 48 48" fill="none" xmlns="http://www.w3.org/2000/svg">
<g clip-path="url(#clip0_4_712)">
<path d="M34.5 48C27.056 48 21 41.944 21 34.5C21 27.056 27.056 21 34.5 21C41.944 21 48 27.056 48 34.5C48 41.944 41.944 48 34.5 48ZM34.5 24C28.71 24 24 28.71 24 34.5C24 40.29 28.71 45 34.5 45C40.29 45 45 40.29 45 34.5C45 28.71 40.29 24 34.5 24Z" fill="currentColor"/>
<path d="M34.5 37.5C33.672 37.5 33 36.828 33 36C33 35.172 33.672 34.5 34.5 34.5C35.74 34.5 36.75 33.49 36.75 32.25C36.75 31.01 35.74 30 34.5 30C33.26 30 32.25 31.01 32.25 32.25C32.25 33.078 31.578 33.75 30.75 33.75C29.922 33.75 29.25 33.078 29.25 32.25C29.25 29.354 31.604 27 34.5 27C37.396 27 39.75 29.354 39.75 32.25C39.75 35.146 37.396 37.5 34.5 37.5Z" fill="currentColor"/>
<path d="M34.5 43.5C35.7426 43.5 36.75 42.4926 36.75 41.25C36.75 40.0074 35.7426 39 34.5 39C33.2574 39 32.25 40.0074 32.25 41.25C32.25 42.4926 33.2574 43.5 34.5 43.5Z" fill="currentColor"/>
<path d="M7.5 15C6.672 15 6 14.328 6 13.5C6 12.672 6.672 12 7.5 12H28.5C29.328 12 30 12.672 30 13.5C30 14.328 29.328 15 28.5 15H7.5Z" fill="currentColor"/>
<path d="M7.5 24C6.672 24 6 23.328 6 22.5C6 21.672 6.672 21 7.5 21H19.5C20.328 21 21 21.672 21 22.5C21 23.328 20.328 24 19.5 24H7.5Z" fill="currentColor"/>
<path d="M7.5 33C6.672 33 6 32.328 6 31.5C6 30.672 6.672 30 7.5 30H15C15.828 30 16.5 30.672 16.5 31.5C16.5 32.328 15.828 33 15 33H7.5Z" fill="currentColor"/>
<path d="M4.5 42C2.018 42 0 39.982 0 37.5V4.5C0 2.018 2.018 0 4.5 0H25.758C26.96 0 28.088 0.468 28.938 1.316L34.682 7.06C35.532 7.91 36 9.04 36 10.242V15C36 15.828 35.328 16.5 34.5 16.5C33.672 16.5 33 15.828 33 15V10.242C33 9.848 32.84 9.462 32.562 9.182L26.818 3.438C26.534 3.156 26.158 3 25.758 3H4.5C3.672 3 3 3.672 3 4.5V37.5C3 38.328 3.672 39 4.5 39H15C15.828 39 16.5 39.672 16.5 40.5C16.5 41.328 15.828 42 15 42H4.5Z" fill="currentColor"/>
</g>
<defs>
<clipPath id="clip0_4_712">
<rect width="48" height="48" fill="currentColor"/>
</clipPath>
</defs>
</svg>
