<svg width="48" height="48" viewBox="0 0 48 48" fill="none" xmlns="http://www.w3.org/2000/svg">
<g clip-path="url(#clip0_4_702)">
<path d="M34.5 48C27.056 48 21 41.944 21 34.5C21 27.056 27.056 21 34.5 21C41.944 21 48 27.056 48 34.5C48 41.944 41.944 48 34.5 48ZM34.5 24C28.71 24 24 28.71 24 34.5C24 40.29 28.71 45 34.5 45C40.29 45 45 40.29 45 34.5C45 28.71 40.29 24 34.5 24Z" fill="currentColor"/>
<path d="M34.5 42C33.672 42 33 41.328 33 40.5V34.5C33 33.672 33.672 33 34.5 33C35.328 33 36 33.672 36 34.5V40.5C36 41.328 35.328 42 34.5 42Z" fill="currentColor"/>
<path d="M34.5 31.6211C35.7426 31.6211 36.75 30.6137 36.75 29.3711C36.75 28.1285 35.7426 27.1211 34.5 27.1211C33.2574 27.1211 32.25 28.1285 32.25 29.3711C32.25 30.6137 33.2574 31.6211 34.5 31.6211Z" fill="currentColor"/>
<path d="M7.5 15C6.672 15 6 14.328 6 13.5C6 12.672 6.672 12 7.5 12H28.5C29.328 12 30 12.672 30 13.5C30 14.328 29.328 15 28.5 15H7.5Z" fill="currentColor"/>
<path d="M7.5 24C6.672 24 6 23.328 6 22.5C6 21.672 6.672 21 7.5 21H19.5C20.328 21 21 21.672 21 22.5C21 23.328 20.328 24 19.5 24H7.5Z" fill="currentColor"/>
<path d="M7.5 33C6.672 33 6 32.328 6 31.5C6 30.672 6.672 30 7.5 30H15C15.828 30 16.5 30.672 16.5 31.5C16.5 32.328 15.828 33 15 33H7.5Z" fill="currentColor"/>
<path d="M4.5 42C2.018 42 0 39.982 0 37.5V4.5C0 2.018 2.018 0 4.5 0H25.758C26.96 0 28.088 0.468 28.938 1.316L34.682 7.06C35.532 7.91 36 9.04 36 10.242V15C36 15.828 35.328 16.5 34.5 16.5C33.672 16.5 33 15.828 33 15V10.242C33 9.848 32.84 9.462 32.562 9.182L26.818 3.438C26.534 3.156 26.158 3 25.758 3H4.5C3.672 3 3 3.672 3 4.5V37.5C3 38.328 3.672 39 4.5 39H15C15.828 39 16.5 39.672 16.5 40.5C16.5 41.328 15.828 42 15 42H4.5Z" fill="currentColor"/>
</g>
<defs>
<clipPath id="clip0_4_702">
<rect width="48" height="48" fill="currentColor"/>
</clipPath>
</defs>
</svg>
