<svg width="48" height="48" viewBox="0 0 48 48" fill="none" xmlns="http://www.w3.org/2000/svg">
<g clip-path="url(#clip0_4_663)">
<path d="M1.49611 48C1.10011 48 0.714115 47.84 0.434115 47.56C0.0621147 47.188 -0.0878853 46.638 0.0421147 46.128L3.58211 32.318C3.59411 32.274 3.62411 32.192 3.64211 32.15C3.64411 32.142 3.65611 32.11 3.67211 32.076C3.75411 31.896 3.85211 31.75 3.97411 31.63L33.0261 2.578C34.6761 0.92 36.8761 0.006 39.2221 0C41.5781 0 43.7761 0.908 45.4341 2.558L45.4921 2.616C47.1341 4.298 48.0201 6.512 47.9941 8.858C47.9661 11.204 47.0301 13.396 45.3541 15.032L16.3661 44.02C16.2421 44.144 16.0921 44.246 15.9041 44.328C15.8081 44.37 15.7481 44.394 15.6821 44.412L1.86611 47.956C1.74411 47.986 1.62011 48 1.49611 48ZM3.57811 44.418L12.3981 42.156L5.83611 35.606L3.57811 44.418ZM15.3141 40.828L41.3541 14.788L33.2061 6.64L7.16011 32.688L15.3141 40.828ZM43.4721 12.664C45.5341 10.414 45.5021 6.92 43.3541 4.72L43.3141 4.68C42.2261 3.598 40.7781 3 39.2401 3V2.25L39.2381 3C37.7701 3.004 36.3961 3.542 35.3301 4.524L43.4721 12.664Z" fill="currentColor"/>
</g>
<defs>
<clipPath id="clip0_4_663">
<rect width="48" height="48" fill="currentColor"/>
</clipPath>
</defs>
</svg>
