<svg width="20" height="20" viewBox="0 0 20 20" fill="none" xmlns="http://www.w3.org/2000/svg">
<g clip-path="url(#clip0_504_24678)">
<path d="M19.3765 20C19.5415 20 19.7023 19.9333 19.819 19.8167C19.974 19.6617 20.0365 19.4325 19.9823 19.22L18.5073 13.4658C18.5023 13.4475 18.4898 13.4133 18.4823 13.3958C18.4815 13.3925 18.4765 13.3792 18.4698 13.365C18.4356 13.29 18.3948 13.2292 18.344 13.1792L6.23896 1.07417C5.55146 0.383333 4.63479 0.0025 3.65729 0C2.67562 0 1.75979 0.378333 1.06896 1.06583L1.04479 1.09C0.360623 1.79083 -0.00854308 2.71333 0.00229025 3.69083C0.0139569 4.66833 0.403957 5.58167 1.10229 6.26333L13.1806 18.3417C13.2323 18.3933 13.2948 18.4358 13.3731 18.47C13.4131 18.4875 13.4381 18.4975 13.4656 18.505L19.2223 19.9817C19.2731 19.9942 19.3248 20 19.3765 20ZM18.509 18.5075L14.834 17.565L17.5681 14.8358L18.509 18.5075ZM13.619 17.0117L2.76896 6.16167L6.16396 2.76667L17.0165 13.62L13.619 17.0117ZM1.88646 5.27667C1.02729 4.33917 1.04062 2.88333 1.93562 1.96667L1.95229 1.95C2.40562 1.49917 3.00896 1.25 3.64979 1.25V0.9375L3.65062 1.25C4.26229 1.25167 4.83479 1.47583 5.27896 1.885L1.88646 5.27667Z" fill="currentColor"/>
</g>
<defs>
<clipPath id="clip0_504_24678">
<rect width="20" height="20" fill="white" transform="matrix(-1 0 0 1 20 0)"/>
</clipPath>
</defs>
</svg>
