<svg width="48" height="48" viewBox="0 0 48 48" fill="none" xmlns="http://www.w3.org/2000/svg">
<path fill-rule="evenodd" clip-rule="evenodd" d="M37.0607 25.0597C37.6464 24.4739 37.6464 23.5242 37.0607 22.9384L27.5147 13.3925C26.9289 12.8067 25.9792 12.8067 25.3934 13.3925C24.8076 13.9783 24.8076 14.928 25.3934 15.5138L32.3787 22.4991L0 22.4991V25.4991L32.3787 25.4991L25.3934 32.4843C24.8076 33.0701 24.8076 34.0199 25.3934 34.6057C25.9792 35.1915 26.9289 35.1915 27.5147 34.6057L37.0607 25.0597Z" fill="currentColor"/>
<path d="M43.6875 48C46.066 48 48 45.9824 48 43.5V4.5C48 2.01758 46.066 0 43.6875 0H6.3125C3.93398 0 2 2.01758 2 4.5V12H4.875V4.5C4.875 3.67188 5.51888 3 6.3125 3H43.6875C44.1213 3 44.5106 3.20117 44.774 3.51855C44.9926 3.78125 45.125 4.125 45.125 4.5V43.5C45.125 43.7715 45.0557 44.0264 44.9346 44.2461C44.8222 44.4502 44.665 44.625 44.4769 44.7539C44.2504 44.9102 43.979 45 43.6875 45H6.3125C5.95266 45 5.6237 44.8623 5.37148 44.6348C5.06732 44.3594 4.875 43.9531 4.875 43.5V36H2V43.5C2 45.9824 3.93398 48 6.3125 48H43.6875Z" fill="currentColor"/>
</svg>
