<svg width="48" height="48" viewBox="0 0 48 48" fill="none" xmlns="http://www.w3.org/2000/svg">
<path d="M47.998 24.001C47.998 10.7444 37.2535 0 23.999 0C10.7444 0 0 10.7444 0 24.001C0 35.9775 8.77636 45.9059 20.2488 47.706V30.9373H14.1566V23.999H20.2488V18.7128C20.2488 12.6965 23.833 9.37439 29.3132 9.37439C31.9393 9.37439 34.6854 9.84241 34.6854 9.84241V15.7487H31.6613C28.6812 15.7487 27.7512 17.5987 27.7512 19.4968V24.001H34.4074L33.3434 30.9393H27.7512V47.708C39.2236 45.9079 48 35.9795 48 24.001H47.998Z" fill="currentColor"/>
</svg>
