<svg width="48" height="48" viewBox="0 0 48 48" fill="none" xmlns="http://www.w3.org/2000/svg">
<g clip-path="url(#clip0_4_735)">
<path d="M1.5 48C0.672 48 0 47.328 0 46.5V1.5C0 0.672 0.672 0 1.5 0C2.328 0 3 0.672 3 1.5V3H25.5C27.982 3 30 5.018 30 7.5V12H45C46.654 12 48 13.346 48 15C48 15.738 47.73 16.448 47.236 17L39.24 26.006C38.734 26.576 38.732 27.432 39.238 28.002L47.238 37.002C48.336 38.24 48.224 40.14 46.988 41.238C46.44 41.724 45.734 41.994 45 41.994H19.6C19.576 41.998 19.538 42 19.5 42C19.476 42 19.436 41.998 19.402 41.994H18C15.518 41.994 13.5 39.976 13.5 37.494V33H3V46.5C3 47.328 2.328 48 1.5 48ZM44.998 38.994L36.998 29.994C35.48 28.29 35.48 25.718 36.998 24.012L44.998 15.004L30 15V31.5C30 32.328 29.328 33 28.5 33C24.942 33 21.864 35.574 21.156 38.994H44.998ZM16.5 37.494C16.5 38.322 17.172 38.994 18 38.994H18.118C18.45 36.714 19.538 34.604 21.176 33H16.5V37.494ZM27 30V7.5C27 6.672 26.328 6 25.5 6H3V30H14.9C14.924 29.998 14.962 29.994 15 29.994C15.024 29.994 15.064 29.996 15.098 30H27Z" fill="currentColor"/>
</g>
<defs>
<clipPath id="clip0_4_735">
<rect width="48" height="48" fill="currentColor"/>
</clipPath>
</defs>
</svg>
