<svg width="20" height="20" viewBox="0 0 20 20" fill="none" xmlns="http://www.w3.org/2000/svg">
<path d="M16.875 20C16.7083 20 16.5508 19.935 16.4333 19.8167L12.8667 16.25H9.375C8.34083 16.25 7.5 15.4092 7.5 14.375V8.125C7.5 7.09083 8.34083 6.25 9.375 6.25H18.125C19.1592 6.25 20 7.09083 20 8.125V14.375C20 15.4092 19.1592 16.25 18.125 16.25H17.5V19.375C17.5 19.6283 17.3483 19.855 17.1142 19.9525C17.0383 19.9842 16.9575 20 16.875 20ZM9.375 7.5C9.03 7.5 8.75 7.78 8.75 8.125V14.375C8.75 14.72 9.03 15 9.375 15H13.125C13.29 15 13.4508 15.0667 13.5667 15.1833L16.25 17.8667V15.625C16.25 15.28 16.53 15 16.875 15H18.125C18.47 15 18.75 14.72 18.75 14.375V8.125C18.75 7.78 18.47 7.5 18.125 7.5H9.375Z" fill="currentColor"/>
<path d="M3.125 13.75C3.0425 13.75 2.96167 13.7342 2.88583 13.7025C2.65167 13.605 2.5 13.3783 2.5 13.125V10H1.875C0.840833 10 0 9.15917 0 8.125V1.875C0 0.840833 0.840833 0 1.875 0H10.625C11.6592 0 12.5 0.840833 12.5 1.875V4.375C12.5 4.72 12.22 5 11.875 5C11.53 5 11.25 4.72 11.25 4.375V1.875C11.25 1.53 10.97 1.25 10.625 1.25H1.875C1.53 1.25 1.25 1.53 1.25 1.875V8.125C1.25 8.47 1.53 8.75 1.875 8.75H3.125C3.47 8.75 3.75 9.03 3.75 9.375V11.6158L5.18333 10.1825C5.30083 10.065 5.45833 10 5.625 10C5.79167 10 5.94917 10.065 6.06667 10.1833C6.31 10.4267 6.31 10.8233 6.06667 11.0675L3.56667 13.5675C3.44917 13.685 3.29167 13.75 3.125 13.75Z" fill="currentColor"/>
</svg>
