<svg width="48" height="48" viewBox="0 0 48 48" fill="none" xmlns="http://www.w3.org/2000/svg">
<g clip-path="url(#clip0_4_1078)">
<path d="M10.5 48C10.268 48 10.036 47.946 9.828 47.842C9.318 47.586 9 47.072 9 46.5V39H4.5C2.018 39 0 36.982 0 34.5V4.5C0 2.018 2.018 0 4.5 0H43.5C45.982 0 48 2.018 48 4.5V34.5C48 36.982 45.982 39 43.5 39H23L11.4 47.7C11.142 47.894 10.822 48 10.5 48ZM4.5 3C3.672 3 3 3.672 3 4.5V34.5C3 35.328 3.672 36 4.5 36H10.5C11.328 36 12 36.672 12 37.5V43.5L21.6 36.3C21.858 36.106 22.178 36 22.5 36H43.5C44.328 36 45 35.328 45 34.5V4.5C45 3.672 44.328 3 43.5 3H4.5Z" fill="currentColor"/>
<path d="M33.293 19.5C29.985 19.5 27.293 16.808 27.293 13.5C27.293 10.192 29.985 7.5 33.293 7.5C36.601 7.5 39.293 10.192 39.293 13.5C39.293 16.808 36.601 19.5 33.293 19.5ZM33.293 10.5C31.639 10.5 30.293 11.846 30.293 13.5C30.293 15.154 31.639 16.5 33.293 16.5C34.947 16.5 36.293 15.154 36.293 13.5C36.293 11.846 34.947 10.5 33.293 10.5Z" fill="currentColor"/>
<path d="M25.4997 25.5001C25.2377 25.5001 24.9777 25.4301 24.7497 25.2981C24.0337 24.8841 23.7877 23.9661 24.1997 23.2481C25.1197 21.6561 26.4477 20.3281 28.0397 19.4081C29.6397 18.4841 31.4497 17.9961 33.2757 17.9961C34.1917 17.9961 35.1097 18.1181 36.0057 18.3581C38.7157 19.0841 40.9797 20.8201 42.3817 23.2481C42.7957 23.9641 42.5497 24.8841 41.8337 25.2981C41.6057 25.4301 41.3477 25.5001 41.0837 25.5001C40.5497 25.5001 40.0517 25.2121 39.7857 24.7501C38.7837 23.0141 37.1657 21.7741 35.2297 21.2561C34.5877 21.0841 33.9317 20.9981 33.2777 20.9981C31.9757 20.9981 30.6817 21.3481 29.5397 22.0081C28.4037 22.6641 27.4557 23.6121 26.7977 24.7501C26.5317 25.2121 26.0337 25.5001 25.4997 25.5001Z" fill="currentColor"/>
<path d="M16.5 21C12.778 21 9.75 17.972 9.75 14.25C9.75 10.528 12.778 7.5 16.5 7.5C20.222 7.5 23.25 10.528 23.25 14.25C23.25 17.972 20.222 21 16.5 21ZM16.5 10.5C14.432 10.5 12.75 12.182 12.75 14.25C12.75 16.318 14.432 18 16.5 18C18.568 18 20.25 16.318 20.25 14.25C20.25 12.182 18.568 10.5 16.5 10.5Z" fill="currentColor"/>
<path d="M25.5 31.5C24.672 31.5 24 30.828 24 30C24 25.864 20.636 22.5 16.5 22.5C12.364 22.5 9 25.864 9 30C9 30.828 8.328 31.5 7.5 31.5C6.672 31.5 6 30.828 6 30C6 24.21 10.71 19.5 16.5 19.5C22.29 19.5 27 24.21 27 30C27 30.828 26.328 31.5 25.5 31.5Z" fill="currentColor"/>
</g>
<defs>
<clipPath id="clip0_4_1078">
<rect width="48" height="48" fill="currentColor"/>
</clipPath>
</defs>
</svg>
