<svg width="24" height="24" viewBox="0 0 24 24" fill="none" xmlns="http://www.w3.org/2000/svg">
<g clip-path="url(#clip0_7088_13884)">
<path d="M1.49993 10.4939C1.28093 10.4939 1.07293 10.3989 0.929929 10.2319C0.799929 10.0799 0.736929 9.8859 0.751929 9.6869C0.766929 9.4879 0.859929 9.3059 1.01193 9.1749L11.5119 0.174896C11.6479 0.0578965 11.8209 -0.00610352 11.9999 -0.00610352C12.1789 -0.00610352 12.3519 0.0578965 12.4879 0.174896L22.9879 9.1749C23.1399 9.3049 23.2319 9.4869 23.2479 9.6869C23.2629 9.8869 23.1999 10.0799 23.0699 10.2319C22.9269 10.3989 22.7199 10.4939 22.4999 10.4939C22.3209 10.4939 22.1479 10.4299 22.0119 10.3129L11.9999 1.7319L1.98793 10.3129C1.85293 10.4299 1.67893 10.4939 1.49993 10.4939Z" fill="currentColor"/>
<path d="M14.25 23.9929C13.836 23.9929 13.5 23.6569 13.5 23.2429V16.4929H10.5V23.2429C10.5 23.6569 10.164 23.9929 9.75 23.9929H3.978C3.028 23.9909 2.253 23.2159 2.25 22.2669V13.4099C2.28 12.8739 2.499 12.4019 2.867 12.0609L11.513 4.6739C11.648 4.5579 11.821 4.4939 12 4.4939C12.179 4.4939 12.352 4.5579 12.487 4.6739L21.11 12.0409C21.496 12.3989 21.719 12.8659 21.748 13.3669L21.749 22.2659C21.745 23.2159 20.971 23.9899 20.023 23.9929H20.022H14.25ZM3.864 13.1809C3.803 13.2389 3.755 13.3449 3.749 13.4539L3.75 22.2649C3.75 22.3899 3.854 22.4929 3.98 22.4929H9V16.2329C9.001 15.5519 9.556 14.9959 10.236 14.9929C10.237 14.9929 13.761 14.9929 13.761 14.9929C14.444 14.9959 14.999 15.5519 15 16.2319V22.4929H20.022C20.147 22.4929 20.25 22.3889 20.25 22.2629V13.4109C20.245 13.3379 20.193 13.2349 20.113 13.1609L12 6.2299L3.864 13.1809Z" fill="currentColor"/>
</g>
<defs>
<clipPath id="clip0_7088_13884">
<rect width="24" height="24" fill="currentColor"/>
</clipPath>
</defs>
</svg>
