<svg width="48" height="48" viewBox="0 0 48 48" fill="none" xmlns="http://www.w3.org/2000/svg">
<path d="M24 6C23.172 6 22.5 5.328 22.5 4.5V1.5C22.5 0.672 23.172 0 24 0C24.828 0 25.5 0.672 25.5 1.5V4.5C25.5 5.328 24.828 6 24 6Z" fill="currentColor"/>
<path d="M3 24C2.172 24 1.5 23.328 1.5 22.5C1.5 21.672 2.172 21 3 21H6C6.828 21 7.5 21.672 7.5 22.5C7.5 23.328 6.828 24 6 24H3Z" fill="currentColor"/>
<path d="M9.69929 11.114C9.30929 11.114 8.94129 10.966 8.65929 10.696L6.45929 8.582C5.86329 8.008 5.84529 7.056 6.41729 6.46C6.69929 6.168 7.09329 6 7.49929 6C7.88929 6 8.25729 6.148 8.53929 6.418L10.7393 8.532C11.0273 8.81 11.1913 9.184 11.1993 9.584C11.2073 9.984 11.0593 10.364 10.7813 10.654C10.4993 10.946 10.1053 11.114 9.69929 11.114Z" fill="currentColor"/>
<path d="M42 24C41.172 24 40.5 23.328 40.5 22.5C40.5 21.672 41.172 21 42 21H45C45.828 21 46.5 21.672 46.5 22.5C46.5 23.328 45.828 24 45 24H42Z" fill="currentColor"/>
<path d="M38.3008 11.114C37.8948 11.114 37.5008 10.946 37.2188 10.654C36.6448 10.056 36.6648 9.106 37.2608 8.532L39.4608 6.418C39.7428 6.148 40.1108 6 40.5008 6C40.9068 6 41.3008 6.168 41.5828 6.46C42.1568 7.058 42.1368 8.008 41.5408 8.582L39.3408 10.696C39.0588 10.966 38.6888 11.114 38.3008 11.114Z" fill="currentColor"/>
<path d="M23.9992 48C23.1712 48 22.4992 47.328 22.4992 46.5V43.5H20.9992C18.5172 43.5 16.4992 41.482 16.4992 39V35.484C11.8612 32.87 8.93121 27.82 8.99921 22.488C9.14121 14.228 15.7172 7.64605 23.9732 7.49805C32.2652 7.64405 38.8532 14.222 38.9992 22.472C39.0692 27.812 36.1412 32.868 31.4992 35.484V39C31.4992 41.482 29.4812 43.5 26.9992 43.5H25.4992V46.5C25.4992 47.328 24.8272 48 23.9992 48ZM19.4992 39C19.4992 39.828 20.1712 40.5 20.9992 40.5H26.9992C27.8272 40.5 28.4992 39.828 28.4992 39V36H19.4992V39ZM29.8052 33C33.6312 30.956 36.0572 26.864 35.9992 22.52C35.8812 15.898 30.5992 10.618 23.9732 10.5C17.3832 10.618 12.1132 15.904 11.9992 22.534C11.9432 26.868 14.3692 30.958 18.1932 33H22.4992V27.622L18.4392 23.562C18.1552 23.278 17.9992 22.9 17.9992 22.5C17.9992 22.1 18.1552 21.722 18.4392 21.44C18.7212 21.156 19.0992 21 19.4992 21C19.8992 21 20.2772 21.156 20.5592 21.44L23.9992 24.88L27.4392 21.44C27.7232 21.156 28.0992 21 28.4992 21C28.8992 21 29.2772 21.156 29.5592 21.44C29.8432 21.722 29.9992 22.1 29.9992 22.5C29.9992 22.9 29.8432 23.278 29.5592 23.56L25.4992 27.62V33H29.8052Z" fill="currentColor"/>
</svg>
