<svg width="48" height="49" viewBox="0 0 48 49" fill="none" xmlns="http://www.w3.org/2000/svg">
<path d="M24 1C17.48 1 16.666 1.03 14.106 1.144C11.55 1.264 9.81 1.666 8.28 2.26C6.702 2.872 5.362 3.694 4.028 5.028C2.694 6.362 1.87 7.7 1.26 9.28C0.666 10.81 0.262 12.55 0.144 15.106C0.024 17.666 0 18.48 0 25C0 31.52 0.03 32.334 0.144 34.894C0.264 37.448 0.666 39.19 1.26 40.72C1.86258 42.3217 2.80719 43.7727 4.028 44.972C5.22655 46.1937 6.6778 47.1384 8.28 47.74C9.812 48.332 11.552 48.738 14.106 48.856C16.666 48.976 17.48 49 24 49C30.52 49 31.334 48.97 33.894 48.856C36.448 48.736 38.19 48.332 39.72 47.74C41.3213 47.1367 42.7722 46.1922 43.972 44.972C45.1941 43.7738 46.1389 42.3224 46.74 40.72C47.332 39.19 47.738 37.448 47.856 34.894C47.976 32.334 48 31.52 48 25C48 18.48 47.97 17.666 47.856 15.106C47.736 12.552 47.332 10.808 46.74 9.28C46.1371 7.67844 45.1926 6.22746 43.972 5.028C42.7743 3.80528 41.3228 2.86038 39.72 2.26C38.19 1.666 36.448 1.262 33.894 1.144C31.334 1.024 30.52 1 24 1ZM24 5.32C30.406 5.32 31.17 5.352 33.7 5.462C36.04 5.572 37.31 5.96 38.154 6.292C39.278 6.726 40.074 7.246 40.918 8.084C41.756 8.924 42.276 9.722 42.71 10.846C43.038 11.69 43.43 12.96 43.536 15.3C43.65 17.832 43.676 18.592 43.676 25C43.676 31.408 43.646 32.17 43.528 34.7C43.406 37.04 43.016 38.31 42.686 39.154C42.2956 40.1955 41.6819 41.1389 40.888 41.918C40.1123 42.7126 39.1695 43.3247 38.128 43.71C37.288 44.038 35.998 44.43 33.658 44.536C31.11 44.65 30.36 44.676 23.94 44.676C17.518 44.676 16.768 44.646 14.222 44.528C11.88 44.406 10.59 44.016 9.75 43.686C8.70781 43.3004 7.76535 42.686 6.992 41.888C6.18916 41.1175 5.57343 40.1734 5.192 39.128C4.862 38.288 4.474 36.998 4.352 34.658C4.262 32.138 4.23 31.36 4.23 24.97C4.23 18.578 4.262 17.798 4.352 15.248C4.474 12.908 4.862 11.62 5.192 10.78C5.612 9.64 6.15 8.86 6.992 8.018C7.83 7.18 8.612 6.64 9.75 6.222C10.59 5.89 11.852 5.5 14.192 5.38C16.742 5.29 17.492 5.26 23.91 5.26L24 5.32ZM24 12.676C22.3816 12.676 20.779 12.9948 19.2838 13.6141C17.7886 14.2334 16.43 15.1412 15.2856 16.2856C14.1412 17.43 13.2334 18.7886 12.6141 20.2838C11.9948 21.779 11.676 23.3816 11.676 25C11.676 26.6184 11.9948 28.221 12.6141 29.7162C13.2334 31.2114 14.1412 32.57 15.2856 33.7144C16.43 34.8588 17.7886 35.7666 19.2838 36.3859C20.779 37.0052 22.3816 37.324 24 37.324C27.2685 37.324 30.4032 36.0256 32.7144 33.7144C35.0256 31.4032 36.324 28.2685 36.324 25C36.324 21.7315 35.0256 18.5968 32.7144 16.2856C30.4032 13.9744 27.2685 12.676 24 12.676ZM24 33C19.58 33 16 29.42 16 25C16 20.58 19.58 17 24 17C28.42 17 32 20.58 32 25C32 29.42 28.42 33 24 33ZM39.692 12.19C39.6642 12.9352 39.3486 13.6407 38.8116 14.1581C38.2745 14.6756 37.5578 14.9647 36.812 14.9647C36.0662 14.9647 35.3495 14.6756 34.8124 14.1581C34.2754 13.6407 33.9598 12.9352 33.932 12.19C33.932 11.4262 34.2354 10.6936 34.7755 10.1535C35.3156 9.61343 36.0482 9.31 36.812 9.31C37.5758 9.31 38.3084 9.61343 38.8485 10.1535C39.3886 10.6936 39.692 11.4262 39.692 12.19Z" fill="currentColor"/>
</svg>
