<svg width="48" height="48" viewBox="0 0 48 48" fill="none" xmlns="http://www.w3.org/2000/svg">
<path d="M40.894 40.904H33.786V29.766C33.786 27.11 33.732 23.692 30.082 23.692C26.376 23.692 25.81 26.582 25.81 29.57V40.904H18.702V18H25.53V21.122H25.622C26.576 19.322 28.896 17.422 32.362 17.422C39.564 17.422 40.896 22.162 40.896 28.332L40.894 40.904ZM10.674 14.866C10.1318 14.8663 9.59478 14.7596 9.09381 14.5521C8.59284 14.3446 8.13771 14.0403 7.75447 13.6567C7.37124 13.2731 7.06741 12.8177 6.86039 12.3165C6.65337 11.8153 6.54721 11.2782 6.548 10.736C6.5484 9.91956 6.79089 9.12157 7.2448 8.44294C7.69872 7.76432 8.34369 7.23553 9.09813 6.92346C9.85258 6.61139 10.6826 6.53004 11.4833 6.68971C12.284 6.84938 13.0193 7.24289 13.5963 7.82048C14.1734 8.39807 14.5662 9.1338 14.7251 9.93463C14.884 10.7355 14.8018 11.5654 14.489 12.3196C14.1762 13.0737 13.6468 13.7182 12.9677 14.1714C12.2887 14.6247 11.4904 14.8664 10.674 14.866ZM14.238 40.904H7.11V18H14.238V40.904ZM44.45 0H3.542C1.584 0 0 1.548 0 3.458V44.542C0 46.454 1.584 48 3.542 48H44.444C46.4 48 48 46.454 48 44.542V3.458C48 1.548 46.4 0 44.444 0H44.45Z" fill="currentColor"/>
</svg>
