<svg width="48" height="48" viewBox="0 0 48 48" fill="none" xmlns="http://www.w3.org/2000/svg">
<g clip-path="url(#clip0_4_876)">
<path d="M16.5 39C14.018 39 12 36.982 12 34.5V22.5C12 20.58 13.23 18.884 15 18.258V15C15 10.038 19.038 6 24 6C28.962 6 33 10.038 33 15V18.258C34.77 18.884 36 20.58 36 22.5V34.5C36 36.982 33.982 39 31.5 39H16.5ZM16.5 21C15.672 21 15 21.672 15 22.5V34.5C15 35.328 15.672 36 16.5 36H31.5C32.328 36 33 35.328 33 34.5V22.5C33 21.672 32.328 21 31.5 21H16.5ZM30 18V15C30 11.692 27.308 9 24 9C20.692 9 18 11.692 18 15V18H30Z" fill="currentColor"/>
<path d="M24 48C10.766 48 0 37.234 0 24C0 10.766 10.766 0 24 0C37.234 0 48 10.766 48 24C48 37.234 37.234 48 24 48ZM24 3C12.42 3 3 12.42 3 24C3 35.58 12.42 45 24 45C35.58 45 45 35.58 45 24C45 12.42 35.58 3 24 3Z" fill="currentColor"/>
<path d="M24 33C23.172 33 22.5 32.328 22.5 31.5V25.5C22.5 24.672 23.172 24 24 24C24.828 24 25.5 24.672 25.5 25.5V31.5C25.5 32.328 24.828 33 24 33Z" fill="currentColor"/>
</g>
<defs>
<clipPath id="clip0_4_876">
<rect width="48" height="48" fill="currentColor"/>
</clipPath>
</defs>
</svg>
