<svg width="48" height="48" viewBox="0 0 48 48" fill="none" xmlns="http://www.w3.org/2000/svg">
<g clip-path="url(#clip0_4_829)">
<path d="M46.4989 48.0021C46.0589 48.0021 45.6429 47.8101 45.3569 47.4741C44.0189 45.9041 42.0649 45.0041 39.9929 45.0041C38.3229 45.0041 36.7049 45.6001 35.4349 46.6801C35.1489 46.9241 34.8809 47.1901 34.6409 47.4741C34.3549 47.8081 33.9389 48.0001 33.4989 48.0001C33.1429 48.0001 32.7989 47.8741 32.5269 47.6421C32.2229 47.3821 32.0369 47.0201 32.0049 46.6201C31.9729 46.2201 32.0969 45.8321 32.3569 45.5261C32.7029 45.1201 33.0849 44.7381 33.4909 44.3921C35.3049 42.8461 37.6109 41.9961 39.9789 41.9961C40.2509 41.9961 40.5269 42.0061 40.8009 42.0301C43.4729 42.2441 45.9029 43.4861 47.6409 45.5281C47.9009 45.8341 48.0269 46.2201 47.9949 46.6201C47.9629 47.0201 47.7769 47.3821 47.4729 47.6421C47.2009 47.8741 46.8549 48.0021 46.4989 48.0021Z" fill="currentColor"/>
<path d="M40.0001 43.5003C36.2781 43.5003 33.2501 40.4723 33.2501 36.7503C33.2501 35.1603 33.8101 33.6383 34.8321 32.4203L33.3081 24.3643C33.2741 24.1323 33.1301 23.9923 32.9441 23.9843H14.9981C14.8681 23.9903 14.7261 24.1283 14.7001 24.3003L13.1641 32.4203C14.1861 33.6363 14.7461 35.1603 14.7461 36.7483C14.7461 40.4703 11.7181 43.4983 7.99609 43.4983C4.27409 43.4983 1.24609 40.4703 1.24609 36.7483C1.24609 33.0263 4.27409 30.0003 7.99609 30.0003C8.84609 30.0003 9.69009 30.1643 10.4801 30.4803L11.7441 23.8083C11.9701 22.2463 13.3181 21.0483 14.9441 20.9883H32.9981C34.6681 21.0483 36.0301 22.2603 36.2641 23.8723L37.5161 30.4803C38.3061 30.1643 39.1501 30.0003 40.0001 30.0003C43.7221 30.0003 46.7501 33.0283 46.7501 36.7503C46.7501 40.4723 43.7221 43.5003 40.0001 43.5003ZM40.0001 33.0003C37.9321 33.0003 36.2501 34.6823 36.2501 36.7503C36.2501 38.8183 37.9321 40.5003 40.0001 40.5003C42.0681 40.5003 43.7501 38.8183 43.7501 36.7503C43.7501 34.6823 42.0681 33.0003 40.0001 33.0003ZM7.99609 33.0003C5.92809 33.0003 4.24609 34.6823 4.24609 36.7503C4.24609 38.8183 5.92809 40.5003 7.99609 40.5003C10.0641 40.5003 11.7461 38.8183 11.7461 36.7503C11.7461 34.6823 10.0641 33.0003 7.99609 33.0003Z" fill="currentColor"/>
<path d="M1.49303 48.002C1.13703 48.002 0.793027 47.874 0.521027 47.644C0.215027 47.384 0.0310266 47.02 -0.000973401 46.622C-0.0329734 46.222 0.0930266 45.834 0.353027 45.53C0.697027 45.126 1.07903 44.744 1.48703 44.396C3.30103 42.85 5.60703 42 7.97503 42C8.24703 42 8.52303 42.01 8.79703 42.034C11.469 42.248 13.897 43.49 15.637 45.532C15.897 45.838 16.023 46.224 15.991 46.624C15.959 47.024 15.773 47.386 15.469 47.646C15.195 47.874 14.849 48 14.493 48C14.053 48 13.637 47.808 13.351 47.472C12.013 45.902 10.059 45 7.98703 45C6.31703 45 4.69903 45.596 3.42903 46.676C3.14303 46.92 2.87703 47.186 2.63503 47.47C2.34903 47.808 1.93303 48.002 1.49303 48.002Z" fill="currentColor"/>
<path d="M24.4062 13.5C20.6843 13.5 17.6562 10.472 17.6562 6.75C17.6562 3.028 20.6843 0 24.4062 0C28.1283 0 31.1562 3.028 31.1562 6.75C31.1562 10.472 28.1283 13.5 24.4062 13.5ZM24.4062 3C22.3383 3 20.6562 4.682 20.6562 6.75C20.6562 8.818 22.3383 10.5 24.4062 10.5C26.4742 10.5 28.1562 8.818 28.1562 6.75C28.1562 4.682 26.4742 3 24.4062 3Z" fill="currentColor"/>
<path d="M30.9052 18C30.4652 18 30.0492 17.808 29.7632 17.472C28.4252 15.902 26.4712 15 24.3992 15C22.7292 15 21.1112 15.596 19.8412 16.676C19.5552 16.92 19.2892 17.188 19.0452 17.474C18.7592 17.808 18.3432 18 17.9032 18C17.5472 18 17.2012 17.874 16.9292 17.642C16.6252 17.382 16.4392 17.02 16.4072 16.62C16.3752 16.22 16.5012 15.832 16.7612 15.528C17.1072 15.122 17.4892 14.74 17.8952 14.394C19.7092 12.848 22.0172 11.998 24.3912 11.998C24.6612 11.998 24.9332 12.008 25.2052 12.03C27.8792 12.244 30.3092 13.486 32.0452 15.528C32.3052 15.834 32.4312 16.22 32.3992 16.62C32.3672 17.02 32.1812 17.382 31.8772 17.642C31.6052 17.874 31.2592 18 30.9052 18Z" fill="currentColor"/>
</g>
<defs>
<clipPath id="clip0_4_829">
<rect width="48" height="48" fill="currentColor"/>
</clipPath>
</defs>
</svg>
