<svg width="48" height="48" viewBox="0 0 48 48" fill="none" xmlns="http://www.w3.org/2000/svg">
<path d="M4.5 40.5C2.018 40.5 0 38.482 0 36V12C0 10.926 0.39 9.882 1.096 9.064C1.122 9.032 1.158 8.99 1.198 8.952C2.05 8.03 3.252 7.5 4.5 7.5H43.5C44.75 7.5 45.952 8.03 46.804 8.954C46.84 8.99 46.874 9.028 46.906 9.068C47.608 9.876 48 10.922 48 12V36C48 38.482 45.982 40.5 43.5 40.5H4.5ZM3 36C3 36.828 3.672 37.5 4.5 37.5H43.5C44.328 37.5 45 36.828 45 36V12.374L33.768 20.12L40.018 25.898C40.626 26.46 40.662 27.41 40.102 28.018C39.818 28.324 39.416 28.5 39 28.5C38.622 28.5 38.26 28.358 37.982 28.102L31.236 21.866L27.586 24.384C26.534 25.112 25.294 25.496 24 25.496C22.708 25.496 21.468 25.112 20.414 24.384L16.764 21.868L10.018 28.104C9.74 28.358 9.378 28.5 9 28.5C8.584 28.5 8.182 28.324 7.898 28.02C7.336 27.412 7.374 26.46 7.98 25.9L14.23 20.122L3 12.374V36ZM22.118 21.914C22.67 22.296 23.32 22.496 24 22.496C24.68 22.496 25.33 22.294 25.882 21.914L42.434 10.5H5.566L22.118 21.914Z" fill="currentColor"/>
</svg>
