<svg width="20" height="20" viewBox="0 0 20 20" fill="none" xmlns="http://www.w3.org/2000/svg">
<path fill-rule="evenodd" clip-rule="evenodd" d="M2.72727 0.909091C1.72312 0.909091 0.909091 1.72312 0.909091 2.72727V17.2727C0.909091 18.2769 1.72312 19.0909 2.72727 19.0909H17.2727C18.2769 19.0909 19.0909 18.2769 19.0909 17.2727V2.72727C19.0909 1.72312 18.2769 0.909091 17.2727 0.909091H2.72727ZM0 2.72727C0 1.22104 1.22104 0 2.72727 0H17.2727C18.779 0 20 1.22104 20 2.72727V17.2727C20 18.779 18.779 20 17.2727 20H2.72727C1.22104 20 0 18.779 0 17.2727V2.72727Z" fill="currentColor"/>
<path d="M10 13.6364L6.06357 6.81818H13.9365L10 13.6364Z" fill="currentColor" fill-opacity="0.5"/>
<path d="M10 15.4545C10.5021 15.4545 10.9091 15.0475 10.9091 14.5455C10.9091 14.0434 10.5021 13.6364 10 13.6364C9.49797 13.6364 9.09096 14.0434 9.09096 14.5455C9.09096 15.0475 9.49797 15.4545 10 15.4545Z" fill="currentColor" fill-opacity="0.8"/>
<path d="M10 4.54545C10.5021 4.54545 10.9091 4.13844 10.9091 3.63636C10.9091 3.13429 10.5021 2.72727 10 2.72727C9.49797 2.72727 9.09096 3.13429 9.09096 3.63636C9.09096 4.13844 9.49797 4.54545 10 4.54545Z" fill="currentColor" fill-opacity="0.8"/>
</svg>
