<svg width="48" height="48" viewBox="0 0 48 48" fill="none" xmlns="http://www.w3.org/2000/svg">
<g clip-path="url(#clip0_4_861)">
<path d="M24 48C23.824 48 23.65 47.968 23.48 47.906C23.464 47.9 23.45 47.896 23.436 47.89C23.244 47.812 23.078 47.702 22.938 47.56L16.94 41.56C16.656 41.276 16.5 40.9 16.5 40.5C16.5 40.1 16.656 39.722 16.94 39.44C17.222 39.156 17.6 39 18 39C18.4 39 18.778 39.156 19.06 39.44L22.5 42.88V25.5H5.122L8.562 28.94C8.844 29.222 9 29.6 9 30C9 30.4 8.844 30.778 8.56 31.06C8.276 31.344 7.9 31.5 7.5 31.5C7.1 31.5 6.722 31.344 6.44 31.06L0.44 25.06C0.3 24.92 0.19 24.756 0.114 24.57C0.108 24.554 0.1 24.536 0.094 24.518C0.032 24.348 0 24.176 0 24C0 23.822 0.032 23.648 0.096 23.478C0.1 23.464 0.106 23.45 0.11 23.436C0.19 23.242 0.3 23.078 0.442 22.936L6.44 16.94C6.724 16.656 7.1 16.5 7.5 16.5C7.9 16.5 8.278 16.656 8.56 16.94C8.844 17.222 9 17.6 9 18C9 18.4 8.844 18.778 8.56 19.06L5.12 22.5H22.498V5.122L19.06 8.56C18.778 8.844 18.4 9 18 9C17.6 9 17.222 8.844 16.94 8.56C16.656 8.278 16.5 7.9 16.5 7.5C16.5 7.1 16.656 6.722 16.94 6.44L22.938 0.442C23.078 0.302 23.242 0.192 23.428 0.116C23.444 0.11 23.46 0.104 23.478 0.098C23.65 0.032 23.824 0 24 0C24.178 0 24.354 0.032 24.522 0.096C24.536 0.1 24.55 0.106 24.564 0.11C24.758 0.19 24.922 0.3 25.064 0.442L31.06 6.44C31.344 6.722 31.5 7.1 31.5 7.5C31.5 7.9 31.344 8.278 31.06 8.56C30.776 8.842 30.4 9 30 9C29.6 9 29.222 8.844 28.94 8.56L25.5 5.12V22.498H42.878L39.438 19.058C39.156 18.778 39 18.4 39 18C39 17.6 39.156 17.222 39.44 16.94C39.724 16.658 40.1 16.5 40.5 16.5C40.9 16.5 41.278 16.656 41.56 16.94L47.56 22.94C47.7 23.08 47.81 23.244 47.886 23.43C47.892 23.446 47.9 23.464 47.906 23.482C47.968 23.644 48 23.822 48 24C48 24.174 47.968 24.348 47.906 24.516C47.902 24.528 47.898 24.538 47.894 24.548C47.81 24.756 47.698 24.922 47.558 25.062L41.56 31.06C41.276 31.344 40.9 31.5 40.5 31.5C40.1 31.5 39.722 31.344 39.44 31.06C39.158 30.776 39 30.4 39 30C39 29.6 39.156 29.222 39.44 28.94L42.88 25.5H25.5V42.878L28.94 39.438C29.224 39.154 29.6 38.998 30 38.998C30.4 38.998 30.778 39.154 31.06 39.438C31.342 39.722 31.5 40.098 31.5 40.498C31.5 40.898 31.344 41.276 31.06 41.558L25.06 47.558C24.92 47.698 24.754 47.808 24.568 47.886C24.552 47.892 24.532 47.9 24.514 47.906C24.344 47.97 24.172 48 24 48Z" fill="currentColor"/>
</g>
<defs>
<clipPath id="clip0_4_861">
<rect width="48" height="48" fill="currentColor"/>
</clipPath>
</defs>
</svg>
