<svg width="48" height="48" viewBox="0 0 48 48" fill="none" xmlns="http://www.w3.org/2000/svg">
<g clip-path="url(#clip0_4_914)">
<path d="M24 48.0096C10.542 48.0096 0 42.7336 0 35.9996C0 31.9976 3.634 28.4236 9.972 26.1956C10.134 26.1396 10.3 26.1116 10.47 26.1116C11.106 26.1116 11.674 26.5136 11.886 27.1136C12.018 27.4916 11.996 27.8996 11.824 28.2596C11.65 28.6216 11.346 28.8936 10.968 29.0256C6.052 30.7536 3 33.4256 3 35.9996C3 40.7996 12.812 45.0096 24 45.0096C35.188 45.0096 45 40.8036 45 36.0096C45 33.4236 41.926 30.7436 36.978 29.0156C36.6 28.8836 36.296 28.6116 36.122 28.2516C35.948 27.8896 35.924 27.4836 36.058 27.1056C36.268 26.5036 36.838 26.0996 37.474 26.0996C37.642 26.0996 37.81 26.1276 37.97 26.1836C44.342 28.4116 48 31.9916 48 36.0096C48 42.7396 37.458 48.0096 24 48.0096Z" fill="currentColor"/>
<path d="M24 13.5C20.278 13.5 17.25 10.472 17.25 6.75C17.25 3.028 20.278 0 24 0C27.722 0 30.75 3.028 30.75 6.75C30.75 10.472 27.722 13.5 24 13.5ZM24 3C21.932 3 20.25 4.682 20.25 6.75C20.25 8.818 21.932 10.5 24 10.5C26.068 10.5 27.75 8.818 27.75 6.75C27.75 4.682 26.068 3 24 3Z" fill="currentColor"/>
<path d="M21 39C20.246 39 19.606 38.436 19.512 37.686L18.176 27H16.5C15.672 27 15 26.328 15 25.5V21C15 16.038 19.038 12 24 12C28.962 12 33 16.038 33 21V25.49C33 26.314 32.33 26.988 31.504 26.99L29.824 26.996L28.488 37.686C28.394 38.436 27.754 39 27 39H21ZM25.676 36L27.012 25.314C27.106 24.568 27.742 24.004 28.494 24L30 23.996V21C30 17.692 27.308 15 24 15C20.692 15 18 17.692 18 21V24H19.5C20.254 24 20.894 24.564 20.988 25.314L22.324 36H25.676Z" fill="currentColor"/>
</g>
<defs>
<clipPath id="clip0_4_914">
<rect width="48" height="48" fill="currentColor"/>
</clipPath>
</defs>
</svg>
