<svg width="48" height="48" viewBox="0 0 48 48" fill="none" xmlns="http://www.w3.org/2000/svg">
<g clip-path="url(#clip0_4_949)">
<path d="M24 48C10.766 48 0 37.234 0 24C0 10.766 10.766 0 24 0C30.428 0 36.464 2.516 41.01 7.088C41.044 7.112 41.084 7.144 41.124 7.184C41.154 7.214 41.19 7.26 41.22 7.306C45.592 11.814 48 17.74 48 24C48 37.234 37.234 48 24 48ZM24 3C12.42 3 3 12.42 3 24C3 35.58 12.42 45 24 45C35.58 45 45 35.58 45 24C45 18.998 43.224 14.198 39.984 10.396L35.678 14.598C37.824 17.262 39 20.572 39 24C39 32.27 32.27 39 24 39C15.73 39 9 32.27 9 24C9 15.73 15.73 9 24 9C27.51 9 30.882 10.224 33.572 12.46L37.876 8.26C34.032 4.862 29.134 3 24 3ZM24 12C17.384 12 12 17.384 12 24C12 30.616 17.384 36 24 36C30.616 36 36 30.616 36 24C36 21.358 35.124 18.796 33.518 16.706L29.164 20.956C29.712 21.878 30 22.918 30 24C30 27.308 27.308 30 24 30C20.692 30 18 27.308 18 24C18 20.692 20.692 18 24 18C25.08 18 26.118 18.286 27.04 18.834L31.41 14.57C29.3 12.908 26.698 12 24 12ZM24 21C22.346 21 21 22.346 21 24C21 25.654 22.346 27 24 27C25.654 27 27 25.654 27 24C27 22.346 25.654 21 24 21Z" fill="currentColor"/>
<path d="M39.75 37.5C39.662 37.5 39.574 37.492 39.49 37.478C38.464 37.358 37.644 36.538 37.524 35.512C37.51 35.428 37.502 35.34 37.502 35.252C37.502 35.164 37.51 35.076 37.524 34.99C37.644 33.964 38.464 33.144 39.49 33.024C39.574 33.008 39.662 33.002 39.752 33.002C39.842 33.002 39.928 33.01 40.014 33.024C41.04 33.144 41.86 33.964 41.98 34.99C41.992 35.074 42 35.162 42 35.25C42 35.338 41.992 35.426 41.978 35.512C41.858 36.538 41.038 37.358 40.012 37.478C39.926 37.492 39.838 37.5 39.75 37.5Z" fill="currentColor"/>
<path d="M14.25 30C14.162 30 14.074 29.992 13.99 29.978C12.964 29.858 12.144 29.038 12.024 28.014C12.008 27.926 12 27.838 12 27.75C12 27.662 12.008 27.574 12.022 27.488C12.142 26.462 12.962 25.644 13.988 25.522C14.072 25.508 14.16 25.5 14.248 25.5C14.336 25.5 14.424 25.508 14.508 25.522C15.534 25.644 16.354 26.462 16.474 27.488C16.49 27.574 16.496 27.662 16.496 27.75C16.496 27.838 16.488 27.926 16.474 28.012C16.354 29.038 15.534 29.856 14.508 29.976C14.426 29.992 14.338 30 14.25 30Z" fill="currentColor"/>
<path d="M26.25 7.5C26.162 7.5 26.074 7.492 25.988 7.478C24.962 7.358 24.144 6.538 24.022 5.512C24.008 5.426 24 5.338 24 5.25C24 5.162 24.008 5.074 24.022 4.99C24.142 3.964 24.962 3.144 25.988 3.024C26.074 3.008 26.162 3 26.25 3C26.338 3 26.426 3.008 26.512 3.022C27.538 3.142 28.356 3.962 28.478 4.988C28.492 5.072 28.5 5.16 28.5 5.248C28.5 5.336 28.492 5.424 28.478 5.508C28.356 6.534 27.538 7.354 26.512 7.474C26.426 7.492 26.338 7.5 26.25 7.5Z" fill="currentColor"/>
<path d="M7.5 17.25C7.412 17.25 7.324 17.242 7.238 17.226C6.212 17.106 5.394 16.286 5.274 15.262C5.258 15.176 5.25 15.088 5.25 15C5.25 14.912 5.258 14.824 5.274 14.738C5.394 13.712 6.214 12.894 7.238 12.774C7.324 12.758 7.412 12.75 7.5 12.75C7.588 12.75 7.676 12.758 7.762 12.774C8.788 12.894 9.606 13.714 9.726 14.738C9.742 14.824 9.75 14.912 9.75 15C9.75 15.088 9.742 15.176 9.726 15.262C9.606 16.288 8.786 17.106 7.762 17.226C7.676 17.242 7.588 17.25 7.5 17.25Z" fill="currentColor"/>
</g>
<defs>
<clipPath id="clip0_4_949">
<rect width="48" height="48" fill="currentColor"/>
</clipPath>
</defs>
</svg>
