<svg width="48" height="48" viewBox="0 0 48 48" fill="none" xmlns="http://www.w3.org/2000/svg">
<g clip-path="url(#clip0_4_768)">
<path d="M5.56671 43.5C5.16071 43.5 4.76671 43.332 4.48471 43.04C4.20671 42.75 4.05871 42.372 4.06671 41.97C4.07471 41.57 4.23871 41.196 4.52871 40.918L42.0287 4.918C42.3087 4.648 42.6787 4.5 43.0667 4.5C43.4727 4.5 43.8667 4.668 44.1487 4.962C44.4267 5.25 44.5747 5.63 44.5667 6.032C44.5587 6.432 44.3947 6.806 44.1067 7.084L6.60671 43.084C6.32471 43.352 5.95471 43.5 5.56671 43.5Z" fill="currentColor"/>
<path d="M23.9769 40.4997L23.7569 40.5017C21.6609 40.5017 19.5509 40.1757 17.4829 39.5357C16.6929 39.2897 16.2509 38.4477 16.4949 37.6597C16.6909 37.0277 17.2669 36.6037 17.9289 36.6037C18.0789 36.6037 18.2289 36.6257 18.3729 36.6717C20.1489 37.2237 21.9729 37.5037 23.7909 37.5037L24.2889 37.5057C31.9949 37.5057 39.8009 31.9337 44.5389 26.7197C45.1629 26.0277 45.1629 24.9777 44.5349 24.2797C42.7529 22.3237 40.7609 20.5377 38.6169 18.9737C38.2929 18.7377 38.0809 18.3897 38.0189 17.9937C37.9569 17.5977 38.0529 17.2017 38.2889 16.8777C38.5709 16.4917 39.0229 16.2617 39.5009 16.2617C39.8189 16.2617 40.1249 16.3617 40.3849 16.5497C42.6909 18.2317 44.8349 20.1557 46.7589 22.2657C48.4229 24.1117 48.4229 26.8897 46.7649 28.7317C41.5929 34.4237 32.9749 40.5037 24.2909 40.5037L23.9769 40.4997Z" fill="currentColor"/>
<path d="M7.5555 34.022C7.2235 34.022 6.8975 33.91 6.6355 33.706C4.7095 32.21 2.8975 30.538 1.2495 28.734C-0.414498 26.886 -0.416498 24.108 1.2435 22.266C6.4155 16.576 15.0355 10.498 23.7155 10.498L24.1895 10.5C25.8815 10.5 27.5635 10.704 29.1895 11.11C29.9915 11.31 30.4815 12.124 30.2835 12.928C30.1175 13.598 29.5175 14.066 28.8275 14.066C28.7055 14.066 28.5835 14.05 28.4635 14.022C27.0755 13.676 25.6435 13.502 24.2055 13.502H23.7475C16.0215 13.502 8.2055 19.072 3.4675 24.284C2.8435 24.976 2.8435 26.026 3.4715 26.724C4.9975 28.394 6.6835 29.95 8.4775 31.344C8.7935 31.59 8.9955 31.944 9.0455 32.342C9.0955 32.74 8.9875 33.132 8.7415 33.448C8.4555 33.81 8.0235 34.022 7.5555 34.022Z" fill="currentColor"/>
<path d="M16.5 27C15.674 27 15 26.328 15 25.5C15 23.1 15.936 20.842 17.636 19.14C19.336 17.438 21.594 16.5 23.994 16.5C24.408 16.5 24.742 16.834 24.744 17.248L24.748 18.748C24.748 18.948 24.67 19.138 24.53 19.28C24.39 19.422 24.2 19.5 24 19.5C22.398 19.5 20.892 20.126 19.758 21.26C18.624 22.394 18 23.9 18 25.5C18 25.9 17.844 26.276 17.562 26.56C17.278 26.844 16.9 27 16.5 27Z" fill="currentColor"/>
<path d="M24.002 34.5C23.588 34.5 23.252 34.166 23.252 33.75L23.25 32.25C23.25 32.052 23.328 31.86 23.47 31.72C23.61 31.578 23.802 31.5 24 31.5C25.604 31.5 27.11 30.876 28.244 29.742C29.376 28.608 30 27.1 30 25.498C30 24.67 30.672 23.998 31.5 23.998C32.328 23.998 33 24.67 33 25.498C33 27.902 32.066 30.162 30.366 31.862C28.666 33.562 26.406 34.5 24.002 34.5Z" fill="currentColor"/>
</g>
<defs>
<clipPath id="clip0_4_768">
<rect width="48" height="48" fill="currentColor"/>
</clipPath>
</defs>
</svg>
