<svg width="49" height="50" viewBox="0 0 49 50" fill="none" xmlns="http://www.w3.org/2000/svg">
<g clip-path="url(#clip0_3029_71967)">
<path fill-rule="evenodd" clip-rule="evenodd" d="M7.08843 6.87552H5.3759C4.01272 6.87552 2.7062 7.4168 1.74365 8.38089C0.779581 9.34343 0.238281 10.6501 0.238281 12.0131V42.8388C0.238281 44.202 0.779561 45.5085 1.74365 46.4711C2.70619 47.4351 4.01281 47.9764 5.3759 47.9764H20.3846C20.4477 48.0468 20.513 48.1167 20.5814 48.1836C21.544 49.1477 22.8506 49.689 24.2137 49.689H43.0516C44.4148 49.689 45.7213 49.1477 46.6839 48.1836C47.6479 47.2211 48.1892 45.9145 48.1892 44.5514V20.5758C48.1892 19.2127 47.6479 17.9061 46.6839 16.9436C45.7213 15.9795 44.4147 15.4382 43.0516 15.4382H34.4889V12.0132C34.4889 10.65 33.9476 9.34346 32.9835 8.38091C32.021 7.41684 30.7144 6.87554 29.3513 6.87554H27.6388V5.163C27.6388 4.21766 26.8716 3.45047 25.9262 3.45047H22.8539C21.9361 1.55826 19.8398 0.0253906 17.3635 0.0253906C14.8873 0.0253906 12.7909 1.55826 11.8716 3.45047H8.80085C7.85551 3.45047 7.08831 4.21766 7.08831 5.163L7.08843 6.87552ZM24.2138 18.8633H43.0517C43.5055 18.8633 43.9424 19.043 44.2624 19.3652C44.5846 19.6852 44.7643 20.1221 44.7643 20.5758V44.5514C44.7643 45.0051 44.5846 45.442 44.2624 45.762C43.9424 46.0842 43.5055 46.2639 43.0517 46.2639H24.2138C23.7601 46.2639 23.3231 46.0842 23.0032 45.762C22.6809 45.442 22.5013 45.0051 22.5013 44.5514V20.5758C22.5013 20.1221 22.6809 19.6851 23.0032 19.3652C23.3232 19.043 23.7601 18.8633 24.2138 18.8633ZM27.6389 10.3006V12.0131C27.6389 12.9585 26.8717 13.7257 25.9264 13.7257H8.80097C7.85563 13.7257 7.08843 12.9585 7.08843 12.0131V10.3006H5.3759C4.92215 10.3006 4.48522 10.4803 4.16528 10.8025C3.84303 11.1225 3.66337 11.5594 3.66337 12.0131V42.8388C3.66337 43.2926 3.84303 43.7295 4.16528 44.0494C4.48523 44.3717 4.92216 44.5513 5.3759 44.5513H19.0762V20.5758C19.0762 19.2126 19.6175 17.9061 20.5816 16.9436C21.5441 15.9795 22.8507 15.4382 24.2138 15.4382H31.064V12.0131C31.064 11.5594 30.8843 11.1224 30.5621 10.8025C30.2421 10.4803 29.8052 10.3006 29.3514 10.3006L27.6389 10.3006ZM27.6389 41.1263H39.6267C40.572 41.1263 41.3392 40.3591 41.3392 39.4137C41.3392 38.4684 40.572 37.7012 39.6267 37.7012H27.6389C26.6936 37.7012 25.9264 38.4684 25.9264 39.4137C25.9264 40.3591 26.6936 41.1263 27.6389 41.1263ZM27.6389 34.2761H39.6267C40.572 34.2761 41.3392 33.5089 41.3392 32.5636C41.3392 31.6183 40.572 30.8511 39.6267 30.8511H27.6389C26.6936 30.8511 25.9264 31.6183 25.9264 32.5636C25.9264 33.5089 26.6936 34.2761 27.6389 34.2761ZM27.6389 27.426H39.6267C40.572 27.426 41.3392 26.6588 41.3392 25.7134C41.3392 24.7681 40.572 24.0009 39.6267 24.0009H27.6389C26.6936 24.0009 25.9264 24.7681 25.9264 25.7134C25.9264 26.6588 26.6936 27.426 27.6389 27.426ZM24.2138 6.87552V10.3006H10.5135V6.87552H13.1114C13.9661 6.87552 14.6886 6.24517 14.8067 5.39922C14.9523 4.35643 16.0724 3.45045 17.3637 3.45045C18.6549 3.45045 19.775 4.35641 19.9206 5.39922C20.0387 6.24516 20.7612 6.87552 21.6159 6.87552H24.2138Z" fill="currentColor"/>
</g>
<defs>
<clipPath id="clip0_3029_71967">
<rect width="48" height="49.6881" fill="currentColor" transform="translate(0.238281)"/>
</clipPath>
</defs>
</svg>
