<svg width="48" height="48" viewBox="0 0 48 48" fill="none" xmlns="http://www.w3.org/2000/svg">
<g clip-path="url(#clip0_4_798)">
<path d="M34.5 48C27.056 48 21 41.944 21 34.5C21 27.056 27.056 21 34.5 21C41.944 21 48 27.056 48 34.5C48 41.944 41.944 48 34.5 48ZM34.5 24C28.71 24 24 28.71 24 34.5C24 40.29 28.71 45 34.5 45C40.29 45 45 40.29 45 34.5C45 28.71 40.29 24 34.5 24Z" fill="currentColor"/>
<path d="M34.5 42C33.672 42 33 41.328 33 40.5V36H28.5C27.672 36 27 35.328 27 34.5C27 33.672 27.672 33 28.5 33H33V28.5C33 27.672 33.672 27 34.5 27C35.328 27 36 27.672 36 28.5V33H40.5C41.328 33 42 33.672 42 34.5C42 35.328 41.328 36 40.5 36H36V40.5C36 41.328 35.328 42 34.5 42Z" fill="currentColor"/>
<path d="M1.5 35.9999C0.672 35.9999 0 35.3259 0 34.4999C0.006 26.2319 6.738 19.5039 15.006 19.5039C17.046 19.5059 19.022 19.9099 20.888 20.7039C21.256 20.8599 21.542 21.1519 21.692 21.5239C21.842 21.8959 21.838 22.3039 21.68 22.6719C21.444 23.2259 20.904 23.5839 20.3 23.5839C20.098 23.5839 19.9 23.5439 19.712 23.4639C18.218 22.8279 16.638 22.5039 15.014 22.5039C11.802 22.5039 8.79 23.7499 6.522 26.0139C4.252 28.2799 3.002 31.2939 3 34.4999C3 35.3279 2.326 35.9999 1.5 35.9999Z" fill="currentColor"/>
<path d="M15 19.5C9.624 19.5 5.25 15.126 5.25 9.75C5.25 4.374 9.624 0 15 0C20.376 0 24.75 4.374 24.75 9.75C24.75 15.126 20.376 19.5 15 19.5ZM15 3C11.278 3 8.25 6.028 8.25 9.75C8.25 13.472 11.278 16.5 15 16.5C18.722 16.5 21.75 13.472 21.75 9.75C21.75 6.028 18.722 3 15 3Z" fill="currentColor"/>
</g>
<defs>
<clipPath id="clip0_4_798">
<rect width="48" height="48" fill="currentColor"/>
</clipPath>
</defs>
</svg>
