<svg width="48" height="48" viewBox="0 0 48 48" fill="none" xmlns="http://www.w3.org/2000/svg">
<g clip-path="url(#clip0_4_584)">
<path d="M24 31.5C17.384 31.5 12 26.116 12 19.5C12 12.884 17.384 7.5 24 7.5C30.616 7.5 36 12.884 36 19.5C36 26.116 30.616 31.5 24 31.5ZM24 10.5C19.038 10.5 15 14.538 15 19.5C15 24.462 19.038 28.5 24 28.5C28.962 28.5 33 24.462 33 19.5C33 14.538 28.962 10.5 24 10.5Z" fill="currentColor"/>
<path d="M24 48C18.646 48 13.578 46.264 9.336 42.98C9.294 42.956 9.204 42.904 9.116 42.816C9.106 42.806 9.094 42.794 9.084 42.782C3.31 38.188 0 31.348 0 24C0 10.766 10.766 0 24 0C37.234 0 48 10.766 48 24C48 31.348 44.69 38.188 38.914 42.782C38.904 42.794 38.894 42.804 38.884 42.814C38.798 42.9 38.71 42.952 38.66 42.982C34.422 46.264 29.354 48 24 48ZM12.568 41.602C15.98 43.828 19.912 45 24 45C28.09 45 32.022 43.828 35.434 41.602C32.226 38.958 28.202 37.512 24.002 37.512C19.802 37.51 15.778 38.958 12.568 41.602ZM24 3C12.42 3 3 12.42 3 24C3 30.046 5.588 35.75 10.124 39.748C13.954 36.368 18.856 34.514 24 34.514C29.146 34.514 34.046 36.368 37.876 39.746C42.412 35.746 45 30.044 45 23.998C45 12.42 35.58 3 24 3Z" fill="currentColor"/>
</g>
<defs>
<clipPath id="clip0_4_584">
<rect width="48" height="48" fill="currentColor"/>
</clipPath>
</defs>
</svg>
