<svg width="48" height="48" viewBox="0 0 48 48" fill="none" xmlns="http://www.w3.org/2000/svg">
<path d="M24 24C17.384 24 12 18.616 12 12C12 5.384 17.384 0 24 0C30.616 0 36 5.384 36 12C36 18.616 30.616 24 24 24ZM24 3C19.038 3 15 7.038 15 12C15 16.962 19.038 21 24 21C28.962 21 33 16.962 33 12C33 7.038 28.962 3 24 3Z" fill="currentColor"/>
<path d="M43.5 48C42.672 48 42 47.328 42 46.5C42 36.574 33.926 28.5 24 28.5C14.074 28.5 6 36.574 6 46.5C6 47.328 5.328 48 4.5 48C3.672 48 3 47.328 3 46.5C3 34.92 12.42 25.5 24 25.5C35.58 25.5 45 34.92 45 46.5C45 47.328 44.328 48 43.5 48Z" fill="currentColor"/>
</svg>
