<svg width="48" height="48" viewBox="0 0 48 48" fill="none" xmlns="http://www.w3.org/2000/svg">
<path d="M5.33338 5C4.71953 5.00744 4.27984 5.58631 4.2668 6.06658V9.29984C1.87801 9.5703 0 11.6082 0 14.0666V37.5335C0 40.1742 2.15925 42.3334 4.79985 42.3334H43.2002C45.8408 42.3334 48 40.1741 48 37.5335V14.0666C48 11.426 45.8407 9.2668 43.2002 9.2668H15.9999V6.06658C15.9999 5.50817 15.4918 5 14.9334 5H5.33328H5.33338ZM6.39996 7.13316H13.8665V9.26632H6.39996V7.13316ZM4.79985 11.4H43.2002C44.6961 11.4 45.8668 12.5707 45.8668 14.0666V37.5335C45.8668 39.0294 44.6961 40.2002 43.2002 40.2002H4.79985C3.30393 40.2002 2.13316 39.0294 2.13316 37.5335V14.0666C2.13316 12.5707 3.30393 11.4 4.79985 11.4ZM24 14.0666C17.5323 14.0666 12.2666 19.3327 12.2666 25.8001C12.2666 32.2677 17.5326 37.5335 24 37.5335C30.4677 37.5335 35.7334 32.2675 35.7334 25.8001C35.7334 19.3324 30.4678 14.0666 24 14.0666ZM40.5335 14.0666C39.0733 14.0666 37.8668 15.2731 37.8668 16.7333C37.8668 18.1935 39.0733 19.4 40.5335 19.4C41.9937 19.4 43.2002 18.1935 43.2002 16.7333C43.2002 15.2731 41.9937 14.0666 40.5335 14.0666ZM24 16.1998C29.3148 16.1998 33.6001 20.4852 33.6001 25.7999C33.6001 31.1147 29.3147 35.4 24 35.4C18.6856 35.4 14.3999 31.1146 14.3999 25.7999C14.3999 20.4851 18.6853 16.1998 24 16.1998ZM40.5335 16.1998C40.8408 16.1998 41.067 16.426 41.067 16.7333C41.067 17.0406 40.8408 17.2668 40.5335 17.2668C40.2262 17.2668 40 17.0406 40 16.7333C40 16.426 40.2262 16.1998 40.5335 16.1998ZM24 19.4C20.4781 19.4 17.6 22.278 17.6 25.8C17.6 29.3219 20.4781 32.1999 24 32.1999C27.5219 32.1999 30.4 29.3219 30.4 25.8C30.4 22.278 27.5219 19.4 24 19.4ZM24 21.5332C26.3691 21.5332 28.2668 23.4309 28.2668 25.8C28.2668 28.169 26.3691 30.0668 24 30.0668C21.6309 30.0668 19.7332 28.169 19.7332 25.8C19.7332 23.4309 21.6309 21.5332 24 21.5332Z" fill="currentColor"/>
</svg>
