<svg width="48" height="48" viewBox="0 0 48 48" fill="none" xmlns="http://www.w3.org/2000/svg">
<g clip-path="url(#clip0_4_686)">
<path d="M34.5 48C27.056 48 21 41.944 21 34.5C21 27.056 27.056 21 34.5 21C41.944 21 48 27.056 48 34.5C48 41.944 41.944 48 34.5 48ZM34.5 24C28.71 24 24 28.71 24 34.5C24 40.29 28.71 45 34.5 45C40.29 45 45 40.29 45 34.5C45 28.71 40.29 24 34.5 24Z" fill="currentColor"/>
<path d="M34.5 42C33.672 42 33 41.328 33 40.5V36H28.5C27.672 36 27 35.328 27 34.5C27 33.672 27.672 33 28.5 33H33V28.5C33 27.672 33.672 27 34.5 27C35.328 27 36 27.672 36 28.5V33H40.5C41.328 33 42 33.672 42 34.5C42 35.328 41.328 36 40.5 36H36V40.5C36 41.328 35.328 42 34.5 42Z" fill="currentColor"/>
<path d="M4.5 42C2.018 42 0 39.982 0 37.5V4.5C0 2.018 2.018 0 4.5 0H25.758C26.96 0 28.088 0.468 28.938 1.316L34.682 7.06C35.532 7.91 36 9.04 36 10.242V16.5C36 17.328 35.328 18 34.5 18C33.672 18 33 17.328 33 16.5V10.242C33 9.848 32.84 9.462 32.562 9.182L26.818 3.438C26.534 3.156 26.158 3 25.758 3H4.5C3.672 3 3 3.672 3 4.5V37.5C3 38.328 3.672 39 4.5 39H16.5C17.328 39 18 39.672 18 40.5C18 41.328 17.328 42 16.5 42H4.5Z" fill="currentColor"/>
<path d="M10.5 14.25C11.7426 14.25 12.75 13.2426 12.75 12C12.75 10.7574 11.7426 9.75 10.5 9.75C9.25736 9.75 8.25 10.7574 8.25 12C8.25 13.2426 9.25736 14.25 10.5 14.25Z" fill="currentColor"/>
<path d="M7.49988 30C6.97988 30 6.50388 29.736 6.22788 29.296C5.95188 28.854 5.92188 28.312 6.15188 27.844L10.0259 19.882C10.0539 19.822 10.0879 19.766 10.1239 19.712C10.1719 19.636 10.2239 19.564 10.2799 19.496C10.8519 18.78 11.7059 18.372 12.6239 18.372C13.3019 18.372 13.9679 18.606 14.4979 19.03L15.7139 20.004L18.7959 15.61C19.0119 15.302 19.2799 15.04 19.5939 14.832C20.0859 14.506 20.6579 14.332 21.2499 14.332C22.2579 14.332 23.1939 14.832 23.7499 15.67L25.8319 19.006C26.0439 19.346 26.1119 19.748 26.0199 20.138C25.9299 20.528 25.6919 20.86 25.3519 21.072C25.1139 21.22 24.8379 21.3 24.5579 21.3C24.0359 21.3 23.5599 21.036 23.2839 20.594L21.2259 17.294L17.2499 23.036C17.0139 23.374 16.6419 23.602 16.2339 23.66C16.1619 23.67 16.0919 23.674 16.0219 23.674C15.6819 23.674 15.3479 23.556 15.0819 23.344L12.6339 21.38L9.89788 27H16.4999C17.3279 27 17.9999 27.672 17.9999 28.5C17.9999 29.328 7.49988 30 7.49988 30Z" fill="currentColor"/>
</g>
<defs>
<clipPath id="clip0_4_686">
<rect width="48" height="48" fill="currentColor"/>
</clipPath>
</defs>
</svg>
