<svg width="48" height="48" viewBox="0 0 48 48" fill="none" xmlns="http://www.w3.org/2000/svg">
<g clip-path="url(#clip0_4_694)">
<path d="M34.5 48C27.056 48 21 41.944 21 34.5C21 27.056 27.056 21 34.5 21C41.944 21 48 27.056 48 34.5C48 41.944 41.944 48 34.5 48ZM34.5 24C28.71 24 24 28.71 24 34.5C24 40.29 28.71 45 34.5 45C40.29 45 45 40.29 45 34.5C45 28.71 40.29 24 34.5 24Z" fill="currentColor"/>
<path d="M34.5 42C33.672 42 33 41.328 33 40.5V32.122L31.06 34.062C30.776 34.346 30.4 34.502 30 34.502C29.6 34.502 29.222 34.346 28.94 34.062C28.356 33.478 28.356 32.526 28.94 31.94L33.44 27.44C33.58 27.3 33.744 27.19 33.93 27.114C33.946 27.108 33.964 27.1 33.982 27.094C34.146 27.032 34.322 27 34.5 27C34.674 27 34.848 27.032 35.016 27.092C35.028 27.096 35.038 27.1 35.05 27.104C35.258 27.188 35.422 27.298 35.562 27.438L40.062 31.938C40.646 32.522 40.646 33.474 40.062 34.06C39.778 34.344 39.402 34.5 39.002 34.5C38.602 34.5 38.224 34.344 37.942 34.06L36 32.122V40.5C36 41.328 35.328 42 34.5 42Z" fill="currentColor"/>
<path d="M4.5 42C2.018 42 0 39.982 0 37.5V4.5C0 2.018 2.018 0 4.5 0H25.758C26.96 0 28.088 0.468 28.938 1.316L34.682 7.06C35.532 7.91 36 9.04 36 10.242V16.5C36 17.328 35.328 18 34.5 18C33.672 18 33 17.328 33 16.5V10.242C33 9.848 32.84 9.462 32.562 9.182L26.818 3.438C26.534 3.156 26.158 3 25.758 3H4.5C3.672 3 3 3.672 3 4.5V37.5C3 38.328 3.672 39 4.5 39H16.5C17.328 39 18 39.672 18 40.5C18 41.328 17.328 42 16.5 42H4.5Z" fill="currentColor"/>
<path d="M10.5 14.25C11.7426 14.25 12.75 13.2426 12.75 12C12.75 10.7574 11.7426 9.75 10.5 9.75C9.25736 9.75 8.25 10.7574 8.25 12C8.25 13.2426 9.25736 14.25 10.5 14.25Z" fill="currentColor"/>
<path d="M7.49988 30C6.97988 30 6.50388 29.736 6.22788 29.296C5.95188 28.854 5.92188 28.312 6.15188 27.844L10.0259 19.882C10.0559 19.822 10.0879 19.766 10.1239 19.712C10.1739 19.636 10.2239 19.564 10.2799 19.496C10.8519 18.78 11.7059 18.372 12.6239 18.372C13.3019 18.372 13.9679 18.606 14.4979 19.03L15.7139 20.004L18.7959 15.61C19.0119 15.302 19.2799 15.04 19.5939 14.832C20.0859 14.506 20.6579 14.332 21.2499 14.332C22.2579 14.332 23.1939 14.832 23.7499 15.67L25.4419 18.378C25.8799 19.08 25.6659 20.006 24.9639 20.444C24.7239 20.594 24.4499 20.672 24.1699 20.672C23.6499 20.672 23.1739 20.408 22.8979 19.966L21.2279 17.294L17.2519 23.034C17.0159 23.372 16.6439 23.6 16.2359 23.658C16.1639 23.668 16.0939 23.672 16.0239 23.672C15.6839 23.672 15.3499 23.554 15.0839 23.342L12.6339 21.38L9.89788 27H16.4999C17.3279 27 17.9999 27.672 17.9999 28.5C17.9999 29.328 7.49988 30 7.49988 30Z" fill="currentColor"/>
</g>
<defs>
<clipPath id="clip0_4_694">
<rect width="48" height="48" fill="currentColor"/>
</clipPath>
</defs>
</svg>
