<svg width="48" height="48" viewBox="0 0 48 48" fill="none" xmlns="http://www.w3.org/2000/svg">
<path d="M27 21C26.172 21 25.5 20.328 25.5 19.5V1.5C25.5 0.672 26.174 0 27 0C37.752 0 46.5 8.748 46.5 19.5C46.5 20.328 45.828 21 45 21H27ZM43.432 18C42.714 10.142 36.358 3.786 28.5 3.068V18H43.432Z" fill="currentColor"/>
<path d="M21.002 48C15.794 48 10.898 45.972 7.21395 42.29C3.52995 38.608 1.50195 33.71 1.50195 28.502C1.50195 23.294 3.52995 18.396 7.21195 14.714C10.894 11.03 15.792 9 21 9C21.394 9 21.782 9.16 22.06 9.44C22.344 9.724 22.5 10.1 22.5 10.5V27.982L33.302 41.728C33.5499 42.042 33.66 42.436 33.612 42.834C33.564 43.232 33.364 43.588 33.05 43.834C29.63 46.52 25.352 48 21.002 48ZM19.5 12.068C15.664 12.414 12.078 14.088 9.33395 16.834C6.21795 19.95 4.50195 24.094 4.50195 28.502C4.50195 32.91 6.21795 37.052 9.33595 40.168C12.452 43.284 16.596 45 21.002 45C24.162 45 27.316 44.062 29.974 42.346L19.822 29.426C19.616 29.162 19.502 28.834 19.502 28.5V12.068H19.5Z" fill="currentColor"/>
<path d="M38.1228 41.154C37.6588 41.154 37.2288 40.946 36.9428 40.58L25.8208 26.426C25.4668 25.976 25.4028 25.356 25.6528 24.842C25.9008 24.332 26.4308 24 27.0008 24H45.0008C45.8268 24 46.5008 24.672 46.5008 25.498C46.5048 31.524 43.7888 37.114 39.0488 40.832C38.7868 41.04 38.4588 41.154 38.1228 41.154ZM38.3348 37.496C41.2928 34.72 43.0808 31.042 43.4368 27H30.0888L38.3348 37.496Z" fill="currentColor"/>
</svg>
