<svg width="48" height="48" viewBox="0 0 48 48" fill="none" xmlns="http://www.w3.org/2000/svg">
<path d="M22.1612 34.6387C21.8892 34.4347 21.6513 34.1117 21.4473 33.6698C21.2433 33.2278 20.9713 33.1428 20.6313 33.4148C20.0193 35.8626 19.3054 38.4125 18.4894 41.0644C17.6735 43.7162 16.6875 46.0281 15.5316 48H12.2677V47.898C12.0638 46.8781 12.0128 45.5521 12.1148 43.9202C12.2168 42.2883 12.3357 40.9964 12.4717 40.0444C12.6757 38.8205 12.9817 37.5116 13.3897 36.1176C13.7977 34.7237 14.2396 33.3128 14.7156 31.8848C15.1916 30.4569 15.5826 29.029 15.8886 27.6011C16.1945 26.1731 16.3475 24.8472 16.3475 23.6233C16.3475 22.5353 16.1775 21.4304 15.8376 20.3085C15.4976 19.1865 15.4296 18.0476 15.6336 16.8916C15.7696 15.8037 16.2285 14.7837 17.0105 13.8318C17.7925 12.8798 18.6764 12.1659 19.6624 11.6899C20.6483 11.2139 21.6173 11.0949 22.5692 11.3329C23.5212 11.5709 24.2691 12.3019 24.8131 13.5258C25.4251 14.9537 25.5101 16.4497 25.0681 18.0136C24.6261 19.5775 24.1331 21.1074 23.5892 22.6033C23.0452 24.0993 22.6712 25.4932 22.4672 26.7851C22.2632 28.077 22.7052 29.233 23.7931 30.2529C24.2691 30.6609 24.9831 30.9839 25.935 31.2219C26.887 31.4599 27.8389 31.4769 28.7909 31.2729C30.2868 31.0009 31.5787 30.2869 32.6667 29.131C33.7546 27.975 34.6216 26.6151 35.2675 25.0512C35.9135 23.4873 36.3215 21.7704 36.4915 19.9005C36.6615 18.0306 36.6105 16.2287 36.3385 14.4948C36.0665 12.7608 35.5395 11.1969 34.7576 9.803C33.9756 8.40907 32.9727 7.33813 31.7487 6.59017C29.0289 5.02625 26.309 4.38029 23.5892 4.65227C20.8693 4.92426 18.4384 5.77421 16.2965 7.20214C14.1546 8.63006 12.4717 10.483 11.2478 12.7608C10.0239 15.0387 9.54789 17.4356 9.81988 19.9515C9.88787 20.9034 10.1599 21.7704 10.6358 22.5523C11.1118 23.3343 11.5028 24.0823 11.8088 24.7962C12.1148 25.5102 12.2507 26.2241 12.2168 26.9381C12.1828 27.6521 11.7238 28.417 10.8398 29.233C8.32396 28.281 6.53905 26.9211 5.4851 25.1532C4.43116 23.3853 3.93819 21.0734 4.00618 18.2176C4.00618 15.2257 4.66915 12.5399 5.99508 10.16C7.32101 7.78011 9.08891 5.79121 11.2988 4.1933C13.5087 2.59538 16.0585 1.43944 18.9484 0.725478C21.8382 0.0115155 24.8471 -0.175475 27.9749 0.164507C30.0148 0.368497 31.9527 0.895469 33.7886 1.74542C35.6245 2.59538 37.2564 3.66632 38.6844 4.95826C40.1123 6.25019 41.2852 7.72911 42.2032 9.39502C43.1211 11.0609 43.6821 12.7778 43.8861 14.5458C44.0901 16.1777 44.0901 17.8606 43.8861 19.5945C43.6821 21.3284 43.3081 23.0453 42.7641 24.7452C42.2202 26.4451 41.5062 28.009 40.6223 29.437C39.7383 30.8649 38.6844 32.0888 37.4604 33.1088C36.6445 33.7887 35.5905 34.4007 34.2986 34.9447C33.0067 35.4887 31.6467 35.8626 30.2188 36.0666C28.7909 36.2706 27.363 36.2876 25.935 36.1176C24.5071 35.9476 23.2492 35.4547 22.1612 34.6387Z" fill="currentColor"/>
</svg>
