<svg width="48" height="48" viewBox="0 0 48 48" fill="none" xmlns="http://www.w3.org/2000/svg">
<g clip-path="url(#clip0_4_1140)">
<path d="M24.2542 48.0312C23.4282 48.0312 22.7542 47.3592 22.7542 46.5312V45.7212C21.1502 46.2072 19.4942 46.4532 17.8202 46.4532C16.2242 46.4532 14.6402 46.2312 13.1122 45.7912C13.0342 45.7692 12.9562 45.7393 12.8822 45.7052C9.22825 43.9753 6.29825 40.9932 4.63225 37.3092C4.46625 36.9432 4.45425 36.5372 4.59625 36.1612C4.73825 35.7852 5.01625 35.4893 5.38225 35.3232C7.60625 34.3172 9.97625 33.8052 12.4222 33.8052C14.0142 33.8052 15.5962 34.0272 17.1242 34.4672C17.1962 34.4872 17.2742 34.5152 17.3482 34.5512C19.4022 35.5232 21.2382 36.8952 22.7502 38.5772L22.7462 30.7253C21.1442 31.2092 19.4922 31.4552 17.8222 31.4552C16.2262 31.4552 14.6422 31.2333 13.1142 30.7933C13.0362 30.7713 12.9582 30.7413 12.8842 30.7073C9.23025 28.9773 6.30025 25.9953 4.63425 22.3113C4.29425 21.5573 4.62825 20.6672 5.38225 20.3272C7.60825 19.3193 9.97625 18.8092 12.4222 18.8092C14.0142 18.8092 15.5962 19.0312 17.1242 19.4692C17.2002 19.4893 17.2762 19.5193 17.3502 19.5533C19.3962 20.5213 21.2282 21.8893 22.7382 23.5673L22.7362 21.6353C20.1342 18.8333 18.5362 15.2113 18.2262 11.4033C18.2202 11.3213 18.2202 11.2432 18.2262 11.1632C18.5542 7.12925 20.3102 3.33125 23.1702 0.47125C23.4542 0.18725 23.8302 0.03125 24.2302 0.03125C24.6302 0.03125 25.0082 0.18725 25.2902 0.47125C28.1502 3.33125 29.9062 7.12725 30.2342 11.1593C30.2402 11.2393 30.2402 11.3233 30.2342 11.4053C29.9262 15.2073 28.3302 18.8253 25.7342 21.6252L25.7362 23.5772C27.2482 21.8953 29.0842 20.5233 31.1342 19.5533C31.2082 19.5193 31.2842 19.4893 31.3622 19.4673C32.8902 19.0293 34.4742 18.8053 36.0662 18.8053C38.5142 18.8053 40.8822 19.3153 43.1082 20.3253C43.8602 20.6653 44.1962 21.5553 43.8562 22.3092C42.1902 25.9972 39.2562 28.9792 35.5982 30.7073C35.5222 30.7432 35.4482 30.7693 35.3722 30.7913C33.8422 31.2313 32.2582 31.4533 30.6642 31.4533C28.9922 31.4533 27.3402 31.2073 25.7402 30.7233L25.7462 38.5653C27.2562 36.8872 29.0882 35.5192 31.1362 34.5512C31.2122 34.5152 31.2862 34.4892 31.3642 34.4672C32.8942 34.0272 34.4782 33.8052 36.0722 33.8052C38.5182 33.8052 40.8882 34.3153 43.1122 35.3252C43.8642 35.6672 44.2002 36.5552 43.8602 37.3092C42.1942 40.9972 39.2602 43.9792 35.6022 45.7072C35.5262 45.7432 35.4522 45.7692 35.3762 45.7912C33.8462 46.2312 32.2622 46.4532 30.6682 46.4532C29.0002 46.4532 27.3522 46.2092 25.7522 45.7272V46.5292C25.7522 46.9292 25.5962 47.3072 25.3142 47.5912C25.0322 47.8732 24.6542 48.0312 24.2542 48.0312ZM26.3502 42.7772C27.7442 43.2272 29.1922 43.4532 30.6662 43.4532C31.9382 43.4532 33.2042 43.2812 34.4282 42.9412C36.8962 41.7492 38.9842 39.8312 40.3882 37.4832C38.9942 37.0332 37.5462 36.8052 36.0702 36.8052C34.7982 36.8052 33.5322 36.9772 32.3082 37.3172C29.8442 38.5112 27.7562 40.4292 26.3502 42.7772ZM14.0562 42.9432C15.2802 43.2832 16.5462 43.4552 17.8182 43.4552C19.2942 43.4552 20.7422 43.2272 22.1342 42.7792C20.7302 40.4312 18.6422 38.5112 16.1762 37.3192C14.9522 36.9812 13.6882 36.8092 12.4182 36.8092C10.9442 36.8092 9.49425 37.0372 8.10225 37.4852C9.50625 39.8312 11.5922 41.7492 14.0562 42.9432ZM14.0562 27.9433C15.2802 28.2833 16.5462 28.4552 17.8182 28.4552C19.2942 28.4552 20.7422 28.2273 22.1342 27.7793C20.7302 25.4313 18.6422 23.5112 16.1762 22.3193C14.9542 21.9792 13.6902 21.8073 12.4182 21.8073C10.9442 21.8073 9.49425 22.0352 8.10025 22.4853C9.50625 24.8313 11.5922 26.7493 14.0562 27.9433ZM26.3502 27.7773C27.7422 28.2273 29.1902 28.4533 30.6662 28.4533C31.9382 28.4533 33.2042 28.2812 34.4282 27.9412C36.8942 26.7493 38.9822 24.8312 40.3862 22.4832C38.9922 22.0332 37.5442 21.8053 36.0682 21.8053C34.7962 21.8053 33.5302 21.9773 32.3082 22.3173C29.8442 23.5113 27.7562 25.4293 26.3502 27.7773ZM21.2282 11.2812C21.4742 14.0092 22.5302 16.6392 24.2322 18.7812C25.9342 16.6392 26.9922 14.0092 27.2362 11.2812C26.9902 8.55325 25.9322 5.92325 24.2322 3.78125C22.5322 5.92325 21.4742 8.55325 21.2282 11.2812Z" fill="currentColor"/>
</g>
<defs>
<clipPath id="clip0_4_1140">
<rect width="48" height="48" fill="currentColor"/>
</clipPath>
</defs>
</svg>
