<svg width="48" height="48" viewBox="0 0 48 48" fill="none" xmlns="http://www.w3.org/2000/svg">
<g clip-path="url(#clip0_4_907)">
<path d="M38.382 48C38.03 48 37.688 47.876 37.42 47.65L32.952 43.914L27.9 47.7C27.638 47.896 27.326 48 27 48C26.53 48 26.082 47.776 25.8 47.4C25.304 46.738 25.438 45.796 26.1 45.3L31.5 41.25V33H30C29.172 33 28.5 32.328 28.5 31.5C28.5 30.672 29.172 30 30 30H44.2C44.64 29.998 45 29.632 45 29.186V8.318C45 7.87 44.638 7.502 44.19 7.5H24C23.172 7.5 22.5 6.828 22.5 6C22.5 5.172 23.172 4.5 24 4.5H31.5V1.5C31.5 0.672 32.172 0 33 0C33.828 0 34.5 0.672 34.5 1.5V4.5H44.2C46.302 4.512 48.004 6.226 48 8.322V29.184C48.004 31.276 46.304 32.99 44.208 33.002H34.5V41.302L39.344 45.352C39.652 45.608 39.84 45.97 39.876 46.37C39.912 46.768 39.79 47.158 39.532 47.466C39.248 47.804 38.828 48 38.382 48Z" fill="currentColor"/>
<path d="M27.2793 20.9497C26.8773 20.9497 26.5013 20.7937 26.2173 20.5097C25.9333 20.2257 25.7793 19.8497 25.7793 19.4497C25.7793 19.0497 25.9353 18.6717 26.2193 18.3897L29.8733 14.7397C30.3733 14.2397 31.0393 13.9657 31.7493 13.9657C32.4573 13.9657 33.1233 14.2397 33.6233 14.7397L36.2153 17.3337L40.8433 12.7037C41.1273 12.4197 41.5033 12.2637 41.9033 12.2637C42.3033 12.2637 42.6813 12.4197 42.9633 12.7037C43.2473 12.9857 43.4033 13.3637 43.4033 13.7637C43.4033 14.1637 43.2473 14.5417 42.9633 14.8237L38.0893 19.6977C37.5873 20.1977 36.9213 20.4737 36.2133 20.4737C35.5053 20.4737 34.8393 20.1997 34.3373 19.6997L31.7453 17.1057L28.3353 20.5117C28.0573 20.7937 27.6793 20.9497 27.2793 20.9497Z" fill="currentColor"/>
<path d="M12 15C7.864 15 4.5 11.636 4.5 7.5C4.5 3.364 7.864 0 12 0C16.136 0 19.5 3.364 19.5 7.5C19.5 11.636 16.136 15 12 15ZM12 3C9.518 3 7.5 5.018 7.5 7.5C7.5 9.982 9.518 12 12 12C14.482 12 16.5 9.982 16.5 7.5C16.5 5.018 14.482 3 12 3Z" fill="currentColor"/>
<path d="M7.5 48C6.726 48 6.084 47.42 6.008 46.65L4.642 33H1.5C0.672 33 0 32.328 0 31.5V27C0 20.384 5.384 15 12 15C18.616 15 24 20.384 24 27V31.5C24 32.328 23.328 33 22.5 33H19.358L17.994 46.65C17.916 47.42 17.274 48 16.5 48H7.5ZM15.142 45L16.506 31.35C16.584 30.58 17.226 30 18 30H21V27C21 22.038 16.962 18 12 18C7.038 18 3 22.038 3 27V30H6C6.774 30 7.416 30.58 7.492 31.35L8.858 45H15.142Z" fill="currentColor"/>
</g>
<defs>
<clipPath id="clip0_4_907">
<rect width="48" height="48" fill="currentColor"/>
</clipPath>
</defs>
</svg>
