<svg width="48" height="48" viewBox="0 0 48 48" fill="none" xmlns="http://www.w3.org/2000/svg">
<g clip-path="url(#clip0_4_920)">
<path d="M1.5 15.002C0.672 15.002 0 14.33 0 13.502V4.5C0 2.018 2.018 0 4.5 0H13.5C14.328 0 15 0.672 15 1.5C15 2.328 14.328 3 13.5 3H4.5C3.672 3 3 3.672 3 4.5V13.502C3 14.33 2.328 15.002 1.5 15.002Z" fill="currentColor"/>
<path d="M46.5 15.002C45.672 15.002 45 14.33 45 13.502V4.5C45 3.672 44.328 3 43.5 3H34.5C33.672 3 33 2.328 33 1.5C33 0.672 33.672 0 34.5 0H43.5C45.982 0 48 2.018 48 4.5V13.502C48 14.33 47.328 15.002 46.5 15.002Z" fill="currentColor"/>
<path d="M4.5 48C2.018 48 0 45.982 0 43.5V34.5C0 33.672 0.672 33 1.5 33C2.328 33 3 33.672 3 34.5V43.5C3 44.328 3.672 45 4.5 45H13.5C14.328 45 15 45.672 15 46.5C15 47.328 14.328 48 13.5 48H4.5Z" fill="currentColor"/>
<path d="M34.5 48C33.672 48 33 47.328 33 46.5C33 45.672 33.672 45 34.5 45H43.5C44.328 45 45 44.328 45 43.5V34.5C45 33.672 45.672 33 46.5 33C47.328 33 48 33.672 48 34.5V43.5C48 45.982 45.982 48 43.5 48H34.5Z" fill="currentColor"/>
<path d="M24 27C18.624 27 14.25 22.626 14.25 17.25C14.25 11.874 18.624 7.5 24 7.5C29.376 7.5 33.75 11.874 33.75 17.25C33.75 22.626 29.376 27 24 27ZM24 10.5C20.278 10.5 17.25 13.528 17.25 17.25C17.25 20.972 20.278 24 24 24C27.722 24 30.75 20.972 30.75 17.25C30.75 13.528 27.722 10.5 24 10.5Z" fill="currentColor"/>
<path d="M36.6721 39C36.0361 39 35.4661 38.596 35.2561 37.994C33.5881 33.212 29.0601 30 23.9901 30C22.6581 30 21.3401 30.224 20.0701 30.666C16.6181 31.872 13.9481 34.542 12.7421 37.994C12.5321 38.596 11.9641 39 11.3261 39C11.1561 39 10.9901 38.972 10.8301 38.916C10.4541 38.784 10.1501 38.514 9.97407 38.152C9.80007 37.792 9.77607 37.384 9.91007 37.006C11.4181 32.686 14.7621 29.342 19.0821 27.834C20.6681 27.28 22.3201 27 23.9881 27C30.3341 27 36.0021 31.022 38.0901 37.006C38.2221 37.384 38.2001 37.792 38.0261 38.152C37.8521 38.514 37.5461 38.784 37.1681 38.916C37.0101 38.972 36.8441 39 36.6721 39C36.6741 39 36.6741 39 36.6721 39Z" fill="currentColor"/>
</g>
<defs>
<clipPath id="clip0_4_920">
<rect width="48" height="48" fill="currentColor"/>
</clipPath>
</defs>
</svg>
