<svg width="48" height="48" viewBox="0 0 48 48" fill="none" xmlns="http://www.w3.org/2000/svg">
<g clip-path="url(#clip0_4_935)">
<path d="M1.50288 42.0054C1.10088 42.0054 0.724883 41.8494 0.440883 41.5654C-0.00711739 41.1174 -0.125117 40.4334 0.146883 39.8614L5.14688 29.3614C4.59088 28.3814 4.11888 27.3514 3.74088 26.2934C1.96488 21.3414 2.22288 15.9914 4.47088 11.2334C6.71488 6.47341 10.6809 2.87541 15.6349 1.09941C17.7769 0.331406 20.0069 -0.0585938 22.2669 -0.0585938C30.5709 -0.0585938 38.0289 5.18541 40.8289 12.9934C41.1069 13.7714 40.7009 14.6314 39.9229 14.9114C39.7569 14.9694 39.5869 14.9994 39.4149 14.9994C38.7829 14.9994 38.2169 14.5994 38.0029 14.0054C35.6289 7.38741 29.3069 2.94141 22.2669 2.94141C20.3529 2.94141 18.4609 3.27141 16.6449 3.92341C12.4489 5.42941 9.08688 8.47941 7.18288 12.5134C5.27888 16.5474 5.05888 21.0814 6.56488 25.2794C6.96688 26.3994 7.48888 27.4794 8.11888 28.4874C8.39088 28.9254 8.42288 29.4634 8.20088 29.9274L4.67488 37.3354L12.0829 33.8074C12.2829 33.7114 12.5069 33.6614 12.7269 33.6614C13.0089 33.6614 13.2829 33.7394 13.5209 33.8894C15.4269 35.0774 17.5189 35.8574 19.7369 36.2074C20.1329 36.2694 20.4809 36.4814 20.7169 36.8074C20.9529 37.1314 21.0489 37.5274 20.9849 37.9234C20.8709 38.6574 20.2489 39.1894 19.5089 39.1894C19.4289 39.1894 19.3489 39.1834 19.2669 39.1694C16.9269 38.7994 14.7009 38.0234 12.6469 36.8594L2.14688 41.8594C1.94488 41.9554 1.72288 42.0054 1.50288 42.0054Z" fill="currentColor"/>
<path d="M20.25 19.5059C19.422 19.5059 18.75 18.8339 18.75 18.0059C18.75 17.1779 19.422 16.5059 20.25 16.5059C21.49 16.5059 22.5 15.4959 22.5 14.2559C22.5 13.0159 21.49 12.0059 20.25 12.0059C19.01 12.0059 18 13.0159 18 14.2559C18 15.0839 17.328 15.7559 16.5 15.7559C15.672 15.7559 15 15.0839 15 14.2559C15 11.3619 17.356 9.00586 20.25 9.00586C23.146 9.00586 25.5 11.3619 25.5 14.2559C25.5 17.1499 23.146 19.5059 20.25 19.5059Z" fill="currentColor"/>
<path d="M20.25 25.5059C19.01 25.5059 18 24.4959 18 23.2559C18 22.1099 18.854 21.1599 19.994 21.0279C20.078 21.0119 20.164 21.0059 20.252 21.0059C20.34 21.0059 20.426 21.0139 20.512 21.0299C21.648 21.1619 22.502 22.1119 22.502 23.2579C22.5 24.4959 21.492 25.5059 20.25 25.5059Z" fill="currentColor"/>
<path d="M45.1586 48.0059C44.8806 48.0059 44.6066 47.9279 44.3706 47.7819L37.8766 43.7779C37.1766 43.9019 36.4646 43.9639 35.7586 43.9639C30.1166 43.9639 25.1046 39.9719 23.8406 34.4699C22.3326 27.8979 26.4506 21.3239 33.0226 19.8159C33.9186 19.6099 34.8386 19.5059 35.7586 19.5059H35.7606C39.0346 19.5059 42.0946 20.7599 44.3926 23.0359C46.7046 25.3279 47.9866 28.3819 48.0026 31.6379C48.0146 34.3779 47.0986 37.0519 45.4146 39.2039L46.6386 46.2499C46.7406 46.8299 46.4906 47.4179 46.0026 47.7479C45.7526 47.9159 45.4606 48.0059 45.1586 48.0059ZM38.1586 40.6899C38.4366 40.6899 38.7106 40.7679 38.9466 40.9139L43.1106 43.4819L42.3386 39.0359C42.2586 38.5839 42.3886 38.1259 42.6946 37.7839C44.1926 36.0919 45.0126 33.9139 45.0026 31.6519C44.9906 29.1979 44.0246 26.8959 42.2826 25.1679C40.5506 23.4519 38.2546 22.5059 35.8166 22.5059C35.8046 22.5059 35.7646 22.5059 35.7566 22.5059C35.0586 22.5059 34.3686 22.5859 33.6966 22.7399C28.7366 23.8779 25.6286 28.8399 26.7666 33.7979C27.7206 37.9499 31.5026 40.9619 35.7606 40.9619C36.4506 40.9619 37.1466 40.8819 37.8246 40.7279C37.9346 40.7019 38.0466 40.6899 38.1586 40.6899Z" fill="currentColor"/>
<path d="M34.5 36.0059C33.672 36.0059 33 35.3339 33 34.5059V28.5059C33 27.6779 33.672 27.0059 34.5 27.0059C35.328 27.0059 36 27.6779 36 28.5059V34.5059C36 35.3339 35.328 36.0059 34.5 36.0059Z" fill="currentColor"/>
</g>
<defs>
<clipPath id="clip0_4_935">
<rect width="48" height="48" fill="currentColor"/>
</clipPath>
</defs>
</svg>
