<svg width="48" height="48" viewBox="0 0 48 48" fill="none" xmlns="http://www.w3.org/2000/svg">
<path d="M13.6427 15.4073H40.2203L32.9044 8.00031H32.9042C32.559 7.68274 32.3572 7.23604 32.3468 6.7639C32.336 6.29204 32.5171 5.83635 32.8479 5.50289C33.1784 5.16971 33.6299 4.98816 34.0965 5.0006C34.5634 5.01304 35.0046 5.2184 35.3174 5.56879L45.5495 15.916V15.9163C45.6301 15.997 45.7018 16.0867 45.7628 16.1836C45.7869 16.2109 45.8096 16.2397 45.8308 16.2696L45.9161 16.4421C45.9384 16.498 45.9554 16.5557 45.9674 16.6147C45.9721 16.6634 45.9721 16.7124 45.9674 16.7613C46.0109 16.9831 46.0109 17.2117 45.9674 17.4338C45.9721 17.4825 45.9721 17.5317 45.9674 17.5804C45.9554 17.6391 45.9384 17.6968 45.9161 17.7527L45.8308 17.9252C45.8086 17.9702 45.7829 18.0133 45.7541 18.0546C45.6932 18.1515 45.6217 18.2412 45.5411 18.3219L35.309 28.6692H35.3087C34.9947 29.0026 34.5619 29.195 34.1065 29.2038C33.6558 29.2019 33.224 29.0196 32.9058 28.6964C32.5876 28.3736 32.4086 27.9361 32.4083 27.4804C32.4081 27.0244 32.5865 26.5869 32.9042 26.2636L40.2201 18.8566H13.6425C9.98714 18.8566 6.60939 20.8287 4.7811 24.0301C2.9528 27.2315 2.95341 31.1756 4.7811 34.3774C6.60878 37.5788 9.9868 39.5508 13.6425 39.5508H37.5168C38.1261 39.5508 38.689 39.8795 38.9936 40.4131C39.2982 40.9469 39.2982 41.6042 38.9936 42.1378C38.689 42.6713 38.1261 43 37.5168 43H13.6425C10.0243 43 6.55445 41.5466 3.99592 38.9591C1.43731 36.3719 3.8147e-06 32.8628 3.8147e-06 29.204C3.8147e-06 25.545 1.43724 22.0362 3.99592 19.4489C6.55432 16.8617 10.0244 15.408 13.6425 15.408L13.6427 15.4073Z" fill="currentColor"/>
</svg>
