<svg width="14" height="14" viewBox="0 0 14 14" fill="none" xmlns="http://www.w3.org/2000/svg">
	<path d="M6.7232 13.4408C6.34341 13.4408 6.00815 13.1988 5.88859 12.8389L5.21339 10.8151L2.87483 8.47534L0.850421 7.80015C0.628287 7.7263 0.447766 7.57039 0.342853 7.35998C0.237354 7.15016 0.220357 6.91161 0.294206 6.68948C0.336992 6.55995 0.410841 6.44097 0.507549 6.34426L0.642939 6.20887C1.39198 5.45983 2.3825 5.04721 3.43222 5.04721C3.8589 5.04721 4.28266 5.11637 4.69176 5.25293L5.17002 5.41235L8.5501 2.03228C9.32317 1.25862 10.3477 0.766287 11.4349 0.645549L12.6997 0.504884C12.7161 0.503125 12.7325 0.501953 12.749 0.501953C12.8662 0.501953 12.9764 0.547669 13.0596 0.630896C13.1545 0.725846 13.2003 0.856547 13.1856 0.99018L13.0449 2.255C12.9242 3.34222 12.4319 4.36674 11.6582 5.1404L8.27756 8.52047L8.43639 8.99873C8.91348 10.4294 8.54717 11.9803 7.48104 13.047L7.34389 13.1835C7.24777 13.2797 7.12937 13.3529 7.00043 13.3957C6.91017 13.4256 6.81698 13.4408 6.7232 13.4408ZM6.72262 12.5617L6.85918 12.4251C7.68793 11.5958 7.97278 10.3896 7.60178 9.27713L7.58244 9.21852L6.10076 10.6967L6.72262 12.5617ZM5.59788 9.95584L11.0358 4.51854C11.6688 3.88554 12.072 3.04741 12.1705 2.15829L12.2502 1.43972L11.5316 1.51943C10.6419 1.61849 9.80378 2.02114 9.17078 2.65413L3.73406 8.09144L5.59788 9.95584ZM3.43339 5.92695C2.61753 5.92695 1.84739 6.24755 1.2648 6.83073L1.12882 6.9667L2.99381 7.58856L4.47431 6.10747L4.41395 6.08754C4.0951 5.98087 3.76513 5.92695 3.43339 5.92695Z" fill="currentcolor"/>
	<path d="M0.62802 13.5049C0.510779 13.5049 0.399986 13.4592 0.317331 13.376C0.20478 13.264 0.161987 13.0993 0.20478 12.9463C0.331987 12.4943 0.993811 10.2122 1.56126 9.64652C1.86198 9.34521 2.26294 9.16349 2.68911 9.13535C2.6938 9.13535 2.71315 9.13477 2.71784 9.13477C2.9488 9.13477 3.14166 9.31532 3.15632 9.54569C3.17215 9.78721 2.98866 9.99707 2.74656 10.0129C2.53318 10.0264 2.33329 10.1172 2.18263 10.2685C1.98801 10.4625 1.6316 11.3172 1.28398 12.4087C2.37491 12.0611 3.22959 11.7053 3.42421 11.5107C3.58835 11.3471 3.68214 11.1208 3.68156 10.8893C3.68156 10.6466 3.87852 10.4496 4.12062 10.449C4.36331 10.449 4.56028 10.646 4.56086 10.8881C4.56145 11.3518 4.37328 11.8055 4.045 12.1326C3.4799 12.6977 1.1984 13.3607 0.746433 13.4879C0.707743 13.4996 0.667882 13.5049 0.62802 13.5049Z" fill="currentcolor"/>
</svg>
