<svg width="48" height="48" viewBox="0 0 48 48" fill="none" xmlns="http://www.w3.org/2000/svg">
<path d="M24.496 41.482C24.016 41.482 23.556 41.33 23.166 41.044C22.978 40.906 22.816 40.742 22.68 40.558C10.784 24.174 9.5 17.226 9.5 15C9.5 6.73 16.23 0 24.5 0C32.77 0 39.5 6.73 39.5 15C39.5 21.87 29.414 36.296 26.322 40.554C25.964 41.044 25.438 41.364 24.842 41.454C24.728 41.474 24.612 41.482 24.496 41.482ZM24.5 3C17.884 3 12.5 8.384 12.5 15C12.5 19.582 18.828 30.028 24.5 37.95C30.17 30.028 36.5 19.582 36.5 15C36.5 8.384 31.116 3 24.5 3Z" fill="currentColor"/>
<path d="M29.8638 34.258C29.5498 34.258 29.2478 34.16 28.9898 33.978C21.6058 28.674 19.3518 18.842 23.6038 10.884L18.8898 12.148C18.7638 12.182 18.6318 12.198 18.4998 12.198C17.8218 12.198 17.2278 11.74 17.0518 11.086C16.9478 10.7 17.0018 10.296 17.2018 9.948C17.4018 9.602 17.7258 9.352 18.1118 9.25L26.3058 7.054C26.4318 7.02 26.5658 7 26.7018 7C26.9638 7 27.2218 7.07 27.4498 7.2C27.8198 7.414 28.0798 7.778 28.1678 8.2L30.3418 16.31C30.4458 16.696 30.3918 17.102 30.1918 17.448C29.9918 17.794 29.6678 18.044 29.2818 18.146C29.1558 18.18 29.0258 18.198 28.8938 18.198C28.2158 18.198 27.6198 17.74 27.4458 17.086L26.1918 12.412C22.7318 19.024 24.6238 27.148 30.7398 31.54C31.0658 31.774 31.2798 32.12 31.3458 32.516C31.4118 32.912 31.3178 33.308 31.0838 33.634C30.8018 34.024 30.3478 34.258 29.8638 34.258Z" fill="currentColor"/>
<path d="M24.5 48.0004C18.988 48.0004 13.51 47.3604 9.472 46.2424C4.584 44.8904 2 42.9044 2 40.5004C2 36.8944 7.55 35.0324 12.206 34.1044C12.298 34.0844 12.402 34.0744 12.504 34.0744C13.214 34.0744 13.83 34.5824 13.97 35.2824C14.048 35.6764 13.97 36.0764 13.746 36.4084C13.524 36.7424 13.184 36.9684 12.792 37.0464C6.962 38.2084 5 39.9044 5 40.5004C5 40.8524 5.93 42.1204 10.062 43.3004C13.898 44.3964 19.024 45.0004 24.5 45.0004C29.976 45.0004 35.102 44.3964 38.938 43.3004C43.07 42.1204 44 40.8524 44 40.5004C44 39.9024 42.028 38.2004 36.166 37.0404C35.772 36.9624 35.434 36.7364 35.21 36.4024C34.986 36.0684 34.908 35.6704 34.984 35.2764C35.122 34.5764 35.742 34.0684 36.456 34.0684C36.552 34.0684 36.65 34.0784 36.748 34.0984C41.424 35.0244 46.998 36.8864 46.998 40.5024C46.998 42.9064 44.414 44.8924 39.526 46.2444C35.49 47.3604 30.012 48.0004 24.5 48.0004Z" fill="currentColor"/>
</svg>
