<svg width="48" height="48" viewBox="0 0 48 48" fill="none" xmlns="http://www.w3.org/2000/svg">
<g clip-path="url(#clip0_4_1065)">
<path d="M4.5 48C2.018 48 0 45.982 0 43.5V4.5C0 2.018 2.018 0 4.5 0H43.5C45.982 0 48 2.018 48 4.5V43.5C48 45.982 45.982 48 43.5 48H4.5ZM4.5 3C3.672 3 3 3.672 3 4.5V43.5C3 44.328 3.672 45 4.5 45H43.5C44.328 45 45 44.328 45 43.5V4.5C45 3.672 44.328 3 43.5 3H4.5Z" fill="currentColor"/>
<path d="M19.714 33C19.368 33 19.024 32.944 18.692 32.832C17.88 32.562 17.22 31.988 16.838 31.22C16.618 30.778 16.5 30.282 16.5 29.788V18.212C16.5 16.44 17.94 15 19.712 15C20.206 15 20.702 15.116 21.144 15.338L32.724 21.13C34.308 21.92 34.952 23.852 34.162 25.436C33.854 26.054 33.342 26.566 32.724 26.874L21.148 32.664C20.696 32.886 20.214 33 19.714 33ZM19.712 18C19.596 18 19.5 18.094 19.5 18.212V29.788C19.5 29.82 19.508 29.854 19.522 29.882C19.548 29.936 19.59 29.97 19.644 29.99C19.668 29.996 19.69 30 19.712 30C19.744 30 19.776 29.992 19.806 29.978L31.382 24.188C31.422 24.168 31.458 24.134 31.476 24.094C31.528 23.99 31.486 23.864 31.382 23.812L19.802 18.022C19.778 18.008 19.744 18 19.712 18Z" fill="currentColor"/>
</g>
<defs>
<clipPath id="clip0_4_1065">
<rect width="48" height="48" fill="currentColor"/>
</clipPath>
</defs>
</svg>
