<svg width="48" height="48" viewBox="0 0 48 48" fill="none" xmlns="http://www.w3.org/2000/svg">
<g clip-path="url(#clip0_4_1102)">
<path d="M24.0001 48.002C23.0781 48.002 22.1721 47.834 21.3081 47.502L19.2261 46.702C9.52007 42.968 3.00007 33.474 3.00007 23.076V7.848C2.99007 6.096 4.01607 4.49 5.61207 3.76C11.3321 1.262 17.3721 0 23.5761 0L24.0141 0.002L24.3861 0C30.6161 0 36.6661 1.262 42.3641 3.75C43.9821 4.49 45.0121 6.1 45.0001 7.858V23.076C45.0001 33.474 38.4801 42.968 28.7741 46.702L26.6921 47.502C25.8281 47.834 24.9221 48.002 24.0001 48.002ZM23.6001 3C17.7941 3 12.1541 4.178 6.83607 6.498C6.33007 6.73 5.99607 7.258 6.00007 7.838V23.076C6.00007 32.242 11.7481 40.612 20.3021 43.902L22.3841 44.702C22.9041 44.902 23.4461 45.004 24.0001 45.004C24.5541 45.004 25.0961 44.902 25.6161 44.704L27.6981 43.904C36.2521 40.61 42.0001 32.242 42.0001 23.076V7.848C42.0041 7.262 41.6661 6.73 41.1401 6.488C35.8421 4.174 30.2021 3 24.3881 3L24.0141 3.002L23.6001 3Z" fill="currentColor"/>
<path d="M18 36C15.518 36 13.5 33.982 13.5 31.5V22.5C13.5 20.58 14.73 18.884 16.5 18.258V16.502C16.5 12.366 19.864 9.00195 24 9.00195C28.136 9.00195 31.5 12.366 31.5 16.502V18.26C33.27 18.888 34.5 20.584 34.5 22.502V31.502C34.5 33.984 32.482 36.002 30 36.002H18V36ZM18 21.002C17.172 21.002 16.5 21.674 16.5 22.502V31.502C16.5 32.33 17.172 33.002 18 33.002H30C30.828 33.002 31.5 32.33 31.5 31.502V22.502C31.5 21.674 30.828 21.002 30 21.002H18ZM28.5 18.002V16.502C28.5 14.02 26.482 12.002 24 12.002C21.518 12.002 19.5 14.02 19.5 16.502V18.002H28.5Z" fill="currentColor"/>
<path d="M24 29.3086C25.2426 29.3086 26.25 28.3012 26.25 27.0586C26.25 25.816 25.2426 24.8086 24 24.8086C22.7574 24.8086 21.75 25.816 21.75 27.0586C21.75 28.3012 22.7574 29.3086 24 29.3086Z" fill="currentColor"/>
</g>
<defs>
<clipPath id="clip0_4_1102">
<rect width="48" height="48" fill="currentColor"/>
</clipPath>
</defs>
</svg>
