<svg width="48" height="48" viewBox="0 0 48 48" fill="none" xmlns="http://www.w3.org/2000/svg">
<g clip-path="url(#clip0_4_811)">
<path d="M23.9879 29.9941C20.6798 29.9941 17.9878 27.3021 17.9878 23.9941C17.9878 20.6861 20.6798 17.9941 23.9879 17.9941C27.2959 17.9941 29.9879 20.6861 29.9879 23.9941C29.9879 27.3021 27.2959 29.9941 23.9879 29.9941ZM23.9879 20.9941C22.3338 20.9941 20.9878 22.3401 20.9878 23.9941C20.9878 25.6481 22.3338 26.9941 23.9879 26.9941C25.6419 26.9941 26.9879 25.6481 26.9879 23.9941C26.9879 22.3401 25.6419 20.9941 23.9879 20.9941Z" fill="currentColor"/>
<path d="M23.9996 38.9943C23.4256 38.9943 22.8456 38.9603 22.2736 38.8943C14.0576 37.9483 8.14164 30.4942 9.08764 22.2782C9.95964 14.7042 16.3656 8.99414 23.9896 8.99414C24.8156 8.99414 25.4896 9.66614 25.4896 10.4941C25.4896 10.8941 25.3336 11.2701 25.0516 11.5542C24.7676 11.8382 24.3916 11.9942 23.9896 11.9942C17.8916 11.9942 12.7656 16.5642 12.0696 22.6222C11.7036 25.8002 12.6016 28.9362 14.5956 31.4502C16.5896 33.9642 19.4396 35.5503 22.6176 35.9163C23.0756 35.9683 23.5416 35.9963 23.9996 35.9963C30.0936 35.9963 35.2136 31.4262 35.9096 25.3682C35.9976 24.6102 36.6376 24.0402 37.3996 24.0402C37.4576 24.0402 37.5136 24.0442 37.5716 24.0502C38.3936 24.1442 38.9856 24.8902 38.8896 25.7122C38.0176 33.2822 31.6156 38.9943 23.9996 38.9943Z" fill="currentColor"/>
<path d="M23.9615 47.994C21.8075 47.994 19.6635 47.704 17.5895 47.132C16.7915 46.912 16.3215 46.084 16.5415 45.286C16.7195 44.638 17.3155 44.184 17.9875 44.184C18.1215 44.184 18.2535 44.202 18.3835 44.238C20.1995 44.738 22.0755 44.992 23.9595 44.992C25.8295 44.992 27.6915 44.742 29.4935 44.25C34.8895 42.776 39.3895 39.28 42.1695 34.408C44.9495 29.5361 45.6675 23.8821 44.1915 18.4861C42.7135 13.0821 39.2215 8.57811 34.3555 5.80012C31.1835 3.99012 27.6015 3.03413 23.9955 3.03413C22.1275 3.03413 20.2555 3.28812 18.4295 3.78612C13.0255 5.26612 8.52154 8.76011 5.74554 13.6261C2.96954 18.4921 2.25354 24.1481 3.73154 29.5521C3.83754 29.9381 3.78554 30.3421 3.58754 30.6901C3.38954 31.0381 3.06754 31.2881 2.67954 31.3941C2.54954 31.4301 2.41754 31.4481 2.28354 31.4481C1.60954 31.4481 1.01554 30.9941 0.83754 30.3421C-0.85246 24.1661 -0.0344596 17.7021 3.13954 12.1401C6.31354 6.57812 11.4615 2.58413 17.6395 0.896131C19.7235 0.326132 21.8635 0.0361328 23.9995 0.0361328C28.1235 0.0361328 32.2195 1.12813 35.8435 3.19612C41.4055 6.37012 45.3995 11.5181 47.0875 17.6961C50.5735 30.4481 43.0355 43.658 30.2855 47.144C28.2255 47.708 26.0975 47.994 23.9615 47.994Z" fill="currentColor"/>
<path d="M34.4873 20.9941C31.1793 20.9941 28.4873 18.3021 28.4873 14.9941C28.4873 11.6861 31.1793 8.99414 34.4873 8.99414C37.7953 8.99414 40.4873 11.6861 40.4873 14.9941C40.4873 18.3021 37.7973 20.9941 34.4873 20.9941ZM34.4873 11.9941C32.8333 11.9941 31.4873 13.3401 31.4873 14.9941C31.4873 16.6481 32.8333 17.9941 34.4873 17.9941C36.1413 17.9941 37.4873 16.6481 37.4873 14.9941C37.4873 13.3401 36.1413 11.9941 34.4873 11.9941Z" fill="currentColor"/>
<path d="M7.48779 46.4939C4.17979 46.4939 1.48779 43.802 1.48779 40.494C1.48779 37.1861 4.17979 34.4941 7.48779 34.4941C10.7958 34.4941 13.4878 37.1861 13.4878 40.494C13.4878 43.802 10.7958 46.4939 7.48779 46.4939ZM7.48779 37.4941C5.83379 37.4941 4.48779 38.8401 4.48779 40.494C4.48779 42.148 5.83379 43.494 7.48779 43.494C9.14179 43.494 10.4878 42.148 10.4878 40.494C10.4878 38.8401 9.14179 37.4941 7.48779 37.4941Z" fill="currentColor"/>
</g>
<defs>
<clipPath id="clip0_4_811">
<rect width="48" height="48" fill="white"/>
</clipPath>
</defs>
</svg>
