<svg width="48" height="48" viewBox="0 0 48 48" fill="none" xmlns="http://www.w3.org/2000/svg">
<path fill-rule="evenodd" clip-rule="evenodd" d="M15.1562 29.176V20.13C15.1562 19.934 15.1182 19.746 15.0503 19.574L15.0483 19.57C14.9803 19.398 14.8782 19.236 14.7422 19.094L12.7822 17.04C12.7362 16.992 12.6882 16.946 12.6362 16.906C12.3682 16.654 12.0083 16.5 11.6123 16.5H7.65625C5.18825 16.5 3.15625 18.532 3.15625 21V27C3.15625 29.468 5.18825 31.5 7.65625 31.5H13.2203L26.0082 39.638C26.7743 40.198 27.7043 40.5 28.6562 40.5C29.8582 40.5 30.9563 40.022 31.7663 39.244C32.3643 38.67 32.3842 37.72 31.8102 37.122C31.2382 36.526 30.2863 36.506 29.6903 37.078C29.4202 37.338 29.0562 37.5 28.6562 37.5C28.3323 37.5 28.0163 37.394 27.7563 37.2C27.7262 37.176 27.6943 37.156 27.6623 37.134L15.1562 29.176ZM12.1562 28.5V20.73L10.9843 19.5H7.65625C6.83425 19.5 6.15625 20.178 6.15625 21V27C6.15625 27.822 6.83425 28.5 7.65625 28.5H12.1562Z" fill="currentColor"/>
<path fill-rule="evenodd" clip-rule="evenodd" d="M33.1555 23.6158V11.9998C33.1575 10.2998 32.1935 8.73781 30.6715 7.97381C30.6715 7.97381 30.6715 7.97381 30.6695 7.97381C29.1635 7.21981 27.3555 7.37581 25.9975 8.36981C26.0095 8.36181 20.9255 11.5958 20.9255 11.5958C20.2275 12.0418 20.0195 12.9678 20.4655 13.6678C20.9095 14.3658 21.8375 14.5718 22.5355 14.1278L27.6635 10.8658C27.6955 10.8438 27.7275 10.8218 27.7575 10.7998C28.2115 10.4598 28.8215 10.4038 29.3275 10.6578C29.8355 10.9118 30.1555 11.4318 30.1555 11.9998V23.6158C30.1555 24.4438 30.8275 25.1158 31.6555 25.1158C32.4835 25.1158 33.1555 24.4438 33.1555 23.6158Z" fill="currentColor"/>
<path d="M42.0004 43.5C41.5944 43.5 41.2004 43.332 40.9184 43.04L4.91842 5.54C4.64242 5.25 4.49242 4.87 4.50242 4.47C4.51042 4.07 4.67442 3.696 4.96242 3.418C5.24242 3.148 5.61242 3 6.00042 3C6.40642 3 6.80242 3.168 7.08242 3.462L43.0824 40.962C43.3604 41.252 43.5084 41.63 43.5004 42.032C43.4924 42.432 43.3284 42.806 43.0384 43.084C42.7584 43.352 42.3904 43.5 42.0004 43.5Z" fill="#F25D05"/>
</svg>
