<svg width="21" height="21" viewBox="0 0 21 21" fill="none" xmlns="http://www.w3.org/2000/svg">
<path d="M8.18555 19.8437C6.28579 19.8437 4.91128 19.8427 3.86308 19.7018C2.82927 19.5628 2.18808 19.296 1.71067 18.8186C1.23327 18.3412 0.966527 17.7 0.827535 16.6662C0.686609 15.618 0.685547 14.2435 0.685547 12.3437L0.685546 8.34375C0.685546 6.444 0.686608 5.06948 0.827534 4.02129C0.966526 2.98747 1.23327 2.34628 1.71067 1.86888C2.18807 1.39147 2.82927 1.12473 3.86308 0.985739C4.91128 0.844812 6.28579 0.84375 8.18555 0.84375L12.1855 0.843749C14.0853 0.843749 15.4598 0.84481 16.508 0.985736C17.5418 1.12473 18.183 1.39147 18.6604 1.86887C19.1378 2.34628 19.4046 2.98747 19.5436 4.02129C19.6845 5.06948 19.6855 6.444 19.6855 8.34375L19.6855 12.3437C19.6855 14.2435 19.6845 15.618 19.5436 16.6662C19.4046 17.7 19.1378 18.3412 18.6604 18.8186C18.183 19.296 17.5418 19.5628 16.508 19.7018C15.4598 19.8427 14.0853 19.8437 12.1855 19.8437L8.18555 19.8437Z" stroke="currentColor"/>
<path d="M10.1855 3.34375L10.1855 17.3438" stroke="currentColor" stroke-linejoin="round"/>
<circle cx="10.1855" cy="10.3438" r="3" transform="rotate(-90 10.1855 10.3438)" fill="currentColor"/>
</svg>
