<svg width="48" height="48" viewBox="0 0 48 48" fill="none" xmlns="http://www.w3.org/2000/svg">
<g clip-path="url(#clip0_4_1070)">
<path d="M1.49999 30C1.43799 30 1.37599 29.996 1.31399 29.988C0.491993 29.884 -0.0920074 29.132 0.0119926 28.312C0.859993 21.578 6.62399 16.5 13.418 16.5H13.51L13.566 17.25V16.5C16.876 16.5 20.068 17.708 22.554 19.902C23.174 20.448 23.234 21.398 22.688 22.018C22.404 22.34 21.994 22.526 21.562 22.526C21.196 22.526 20.844 22.392 20.57 22.15C18.632 20.442 16.142 19.5 13.558 19.5H13.41C8.12999 19.5 3.64799 23.45 2.98799 28.688C2.89399 29.436 2.25399 30 1.49999 30Z" fill="currentColor"/>
<path d="M13.5 16.5C8.95 16.5 5.25 12.8 5.25 8.25C5.25 3.7 8.95 0 13.5 0C18.05 0 21.75 3.7 21.75 8.25C21.75 12.8 18.048 16.5 13.5 16.5ZM13.5 3C10.606 3 8.25 5.356 8.25 8.25C8.25 11.144 10.606 13.5 13.5 13.5C16.394 13.5 18.75 11.144 18.75 8.25C18.75 5.356 16.394 3 13.5 3Z" fill="currentColor"/>
<path d="M33 13.5C29.278 13.5 26.25 10.472 26.25 6.75C26.25 3.028 29.278 0 33 0C36.722 0 39.75 3.028 39.75 6.75C39.75 10.472 36.722 13.5 33 13.5ZM33 3C30.932 3 29.25 4.682 29.25 6.75C29.25 8.818 30.932 10.5 33 10.5C35.068 10.5 36.75 8.818 36.75 6.75C36.75 4.682 35.068 3 33 3Z" fill="currentColor"/>
<path d="M40.7999 19.5001C40.2659 19.5001 39.7679 19.2121 39.5019 18.7501C38.4999 17.0141 36.8819 15.7741 34.9459 15.2561C34.3039 15.0841 33.6479 14.9981 32.9939 14.9981C31.6919 14.9981 30.3979 15.3481 29.2559 16.0081C28.5419 16.4221 27.9039 16.9461 27.3599 17.5661C27.0739 17.8921 26.6639 18.0781 26.2299 18.0781C25.8679 18.0781 25.5179 17.9461 25.2439 17.7081C24.6199 17.1621 24.5559 16.2121 25.0999 15.5901C25.8619 14.7201 26.7539 13.9861 27.7539 13.4081C29.3539 12.4841 31.1639 11.9961 32.9899 11.9961C33.9059 11.9961 34.8239 12.1181 35.7199 12.3561C38.4299 13.0821 40.6939 14.8181 42.0959 17.2461C42.5099 17.9621 42.2639 18.8821 41.5479 19.2961C41.3219 19.4301 41.0619 19.5001 40.7999 19.5001Z" fill="currentColor"/>
<path d="M25.5 48C23.018 48 21 45.982 21 43.5V31.5C21 29.018 23.018 27 25.5 27H37.5C39.954 27 41.956 28.976 42 31.418L46.026 30.076C46.18 30.026 46.34 30 46.5 30C46.816 30 47.12 30.098 47.376 30.284C47.766 30.564 48 31.02 48 31.5V43.5C48 43.98 47.768 44.436 47.376 44.716C47.118 44.902 46.814 45 46.5 45C46.338 45 46.18 44.974 46.026 44.924L42 43.582C41.956 46.024 39.954 48 37.5 48H25.5ZM25.5 30C24.672 30 24 30.672 24 31.5V43.5C24 44.328 24.672 45 25.5 45H37.5C38.328 45 39 44.328 39 43.5V41.5C39 41.02 39.232 40.564 39.624 40.284C39.88 40.098 40.184 40 40.5 40C40.662 40 40.822 40.026 40.976 40.078L45 41.42V33.582L40.974 34.924C40.822 34.976 40.662 35.002 40.5 35.002C40.184 35.002 39.88 34.904 39.624 34.718C39.232 34.436 39 33.98 39 33.5V31.5C39 30.672 38.328 30 37.5 30H25.5Z" fill="currentColor"/>
</g>
<defs>
<clipPath id="clip0_4_1070">
<rect width="48" height="48" fill="currentColor"/>
</clipPath>
</defs>
</svg>
