<svg width="20" height="20" viewBox="0 0 20 20" fill="none" xmlns="http://www.w3.org/2000/svg">
<path d="M0.624997 12.5C0.599164 12.5 0.57333 12.4983 0.547497 12.495C0.204997 12.4517 -0.0383364 12.1383 0.0049969 11.7967C0.35833 8.99083 2.76 6.875 5.59083 6.875H5.62916L5.6525 7.1875V6.875C7.03166 6.875 8.36166 7.37833 9.3975 8.2925C9.65583 8.52 9.68083 8.91583 9.45333 9.17417C9.335 9.30833 9.16416 9.38583 8.98416 9.38583C8.83166 9.38583 8.685 9.33 8.57083 9.22917C7.76333 8.5175 6.72583 8.125 5.64916 8.125H5.5875C3.3875 8.125 1.52 9.77083 1.245 11.9533C1.20583 12.265 0.939163 12.5 0.624997 12.5Z" fill="currentColor"/>
<path d="M5.625 6.875C3.72917 6.875 2.1875 5.33333 2.1875 3.4375C2.1875 1.54167 3.72917 0 5.625 0C7.52083 0 9.0625 1.54167 9.0625 3.4375C9.0625 5.33333 7.52 6.875 5.625 6.875ZM5.625 1.25C4.41917 1.25 3.4375 2.23167 3.4375 3.4375C3.4375 4.64333 4.41917 5.625 5.625 5.625C6.83083 5.625 7.8125 4.64333 7.8125 3.4375C7.8125 2.23167 6.83083 1.25 5.625 1.25Z" fill="currentColor"/>
<path d="M13.75 5.625C12.1992 5.625 10.9375 4.36333 10.9375 2.8125C10.9375 1.26167 12.1992 0 13.75 0C15.3008 0 16.5625 1.26167 16.5625 2.8125C16.5625 4.36333 15.3008 5.625 13.75 5.625ZM13.75 1.25C12.8883 1.25 12.1875 1.95083 12.1875 2.8125C12.1875 3.67417 12.8883 4.375 13.75 4.375C14.6117 4.375 15.3125 3.67417 15.3125 2.8125C15.3125 1.95083 14.6117 1.25 13.75 1.25Z" fill="currentColor"/>
<path d="M17 8.12499C16.7775 8.12499 16.57 8.00499 16.4592 7.81249C16.0417 7.08916 15.3675 6.57249 14.5608 6.35666C14.2933 6.28499 14.02 6.24916 13.7475 6.24916C13.205 6.24916 12.6658 6.39499 12.19 6.66999C11.8925 6.84249 11.6267 7.06083 11.4 7.31916C11.2808 7.45499 11.11 7.53249 10.9292 7.53249C10.7783 7.53249 10.6325 7.47749 10.5183 7.37833C10.2583 7.15083 10.2317 6.75499 10.4583 6.49583C10.7758 6.13333 11.1475 5.82749 11.5642 5.58666C12.2308 5.20166 12.985 4.99833 13.7458 4.99833C14.1275 4.99833 14.51 5.04916 14.8833 5.14833C16.0125 5.45083 16.9558 6.17416 17.54 7.18583C17.7125 7.48416 17.61 7.86749 17.3117 8.03999C17.2175 8.09583 17.1092 8.12499 17 8.12499Z" fill="currentColor"/>
<path d="M10.625 20C9.59083 20 8.75 19.1592 8.75 18.125V13.125C8.75 12.0908 9.59083 11.25 10.625 11.25H15.625C16.6475 11.25 17.4817 12.0733 17.5 13.0908L19.1775 12.5317C19.2417 12.5108 19.3083 12.5 19.375 12.5C19.5067 12.5 19.6333 12.5408 19.74 12.6183C19.9025 12.735 20 12.925 20 13.125V18.125C20 18.325 19.9033 18.515 19.74 18.6317C19.6325 18.7092 19.5058 18.75 19.375 18.75C19.3075 18.75 19.2417 18.7392 19.1775 18.7183L17.5 18.1592C17.4817 19.1767 16.6475 20 15.625 20H10.625ZM10.625 12.5C10.28 12.5 10 12.78 10 13.125V18.125C10 18.47 10.28 18.75 10.625 18.75H15.625C15.97 18.75 16.25 18.47 16.25 18.125V17.2917C16.25 17.0917 16.3467 16.9017 16.51 16.785C16.6167 16.7075 16.7433 16.6667 16.875 16.6667C16.9425 16.6667 17.0092 16.6775 17.0733 16.6992L18.75 17.2583V13.9925L17.0725 14.5517C17.0092 14.5733 16.9425 14.5842 16.875 14.5842C16.7433 14.5842 16.6167 14.5433 16.51 14.4658C16.3467 14.3483 16.25 14.1583 16.25 13.9583V13.125C16.25 12.78 15.97 12.5 15.625 12.5H10.625Z" fill="currentColor"/>
</svg>
