<svg width="48" height="48" viewBox="0 0 48 48" fill="none" xmlns="http://www.w3.org/2000/svg">
<g clip-path="url(#clip0_4_1019)">
<path d="M17.4974 34.5029C17.2554 34.5029 17.0114 34.4709 16.7734 34.4089C16.0454 34.2169 15.4354 33.7529 15.0574 33.1029C14.6154 32.3429 14.5554 31.4069 14.8934 30.5969L16.8854 26.0189L13.3294 22.8489C12.7514 22.2809 12.4454 21.5689 12.4414 20.8189C12.4374 20.0709 12.7234 19.3649 13.2494 18.8329C13.7734 18.3049 14.5074 18.0009 15.2594 18.0009H19.0714L21.4654 12.9589C21.8294 12.2509 22.4214 11.7469 23.1414 11.5149C23.4234 11.4249 23.7134 11.3789 24.0054 11.3789C24.4514 11.3789 24.8994 11.4889 25.2994 11.6949C25.8234 11.9649 26.2454 12.3849 26.5174 12.9109C26.5214 12.9189 28.9334 18.0009 28.9334 18.0009H32.7394C33.4794 18.0009 34.1914 18.2869 34.7074 18.7869C35.2454 19.3069 35.5494 20.0049 35.5634 20.7529C35.5754 21.5149 35.2734 22.2609 34.7314 22.7949L31.1114 26.0189L33.0954 30.5789C33.3914 31.2849 33.3954 32.0529 33.1114 32.7509C32.8274 33.4489 32.2894 33.9929 31.5934 34.2849C31.2474 34.4289 30.8834 34.5009 30.5074 34.5009C30.0074 34.5009 29.5174 34.3689 29.0894 34.1189L23.9994 31.2549L18.8894 34.1289C18.4734 34.3729 17.9894 34.5029 17.4974 34.5029ZM19.6934 24.5009C20.1774 24.9329 20.3294 25.6249 20.0714 26.2189L17.8794 31.2569L23.2654 28.2289C23.4914 28.1029 23.7454 28.0369 24.0014 28.0369C24.2574 28.0369 24.5114 28.1029 24.7354 28.2289L30.1234 31.2589L27.9314 26.2229C27.6714 25.6269 27.8234 24.9349 28.3094 24.5029L32.2434 21.0029H27.9874C27.4114 21.0029 26.8794 20.6669 26.6334 20.1469L24.0054 14.6109L21.3794 20.1469C21.1334 20.6669 20.6014 21.0029 20.0254 21.0029H15.7654L19.6934 24.5009Z" fill="currentColor"/>
<path d="M24 48C10.766 48 0 37.234 0 24C0 10.766 10.766 0 24 0C37.234 0 48 10.766 48 24C48 37.234 37.234 48 24 48ZM24 3C12.42 3 3 12.42 3 24C3 35.58 12.42 45 24 45C35.58 45 45 35.58 45 24C45 12.42 35.58 3 24 3Z" fill="currentColor"/>
</g>
<defs>
<clipPath id="clip0_4_1019">
<rect width="48" height="48" fill="currentColor"/>
</clipPath>
</defs>
</svg>
