<svg width="48" height="48" viewBox="0 0 48 48" fill="none" xmlns="http://www.w3.org/2000/svg">
<g clip-path="url(#clip0_4_852)">
<path d="M12.7539 18.0137C13.9965 18.0137 15.0039 17.0063 15.0039 15.7637C15.0039 14.521 13.9965 13.5137 12.7539 13.5137C11.5113 13.5137 10.5039 14.521 10.5039 15.7637C10.5039 17.0063 11.5113 18.0137 12.7539 18.0137Z" fill="currentColor"/>
<path d="M38.2539 25.5137C39.4965 25.5137 40.5039 24.5063 40.5039 23.2637C40.5039 22.021 39.4965 21.0137 38.2539 21.0137C37.0113 21.0137 36.0039 22.021 36.0039 23.2637C36.0039 24.5063 37.0113 25.5137 38.2539 25.5137Z" fill="currentColor"/>
<path d="M35.2421 18.0137C34.6381 18.0097 34.0741 17.7737 33.6501 17.3457C33.2261 16.9177 32.9961 16.3517 33.0001 15.7497C33.0081 14.5157 34.0161 13.5117 35.2501 13.5117C35.2501 13.5117 35.2681 13.5117 35.2701 13.5117C36.5001 13.5217 37.5 14.5317 37.5 15.7617C37.492 17.0037 36.484 18.0117 35.2501 18.0117H35.2421V18.0137Z" fill="currentColor"/>
<path d="M18.7539 12.0137C19.9965 12.0137 21.0039 11.0063 21.0039 9.76367C21.0039 8.52103 19.9965 7.51367 18.7539 7.51367C17.5113 7.51367 16.5039 8.52103 16.5039 9.76367C16.5039 11.0063 17.5113 12.0137 18.7539 12.0137Z" fill="currentColor"/>
<path d="M24 48.0137C15.944 48.0137 8.47 43.9937 3.996 37.2537C3.978 37.2337 3.958 37.2117 3.938 37.1857C3.878 37.1037 3.828 37.0197 3.784 36.9257C1.308 33.0617 0 28.5977 0 24.0137C0 10.7797 10.766 0.0136719 24 0.0136719C37.234 0.0136719 48 10.7797 48 24.0137C48 28.5997 46.69 33.0637 44.214 36.9277C44.172 37.0197 44.122 37.1037 44.064 37.1797C44.052 37.1957 44.028 37.2237 44.006 37.2477C39.534 43.9897 32.058 48.0137 24 48.0137ZM7.238 36.6397C11.208 41.8977 17.418 45.0137 24 45.0137C30.582 45.0137 36.792 41.8977 40.762 36.6397C35.824 33.3157 30.044 31.5617 24 31.5617C17.954 31.5617 12.176 33.3157 7.238 36.6397ZM24 3.01367C12.42 3.01367 3 12.4337 3 24.0137C3 27.5577 3.898 31.0357 5.602 34.1257C8.926 31.8957 12.594 30.3117 16.526 29.4097C16.808 25.9637 19.47 23.1117 22.894 22.5997L27.082 10.0377C27.286 9.42367 27.856 9.01167 28.504 9.01167C28.666 9.01167 28.828 9.03767 28.982 9.08967C29.36 9.21567 29.668 9.48167 29.846 9.84167C30.024 10.1997 30.054 10.6057 29.928 10.9857L25.994 22.7897C28.996 23.6217 31.222 26.2897 31.476 29.4077C35.408 30.3077 39.076 31.8917 42.4 34.1237C44.104 31.0337 45.002 27.5557 45.002 24.0117C45 12.4337 35.58 3.01367 24 3.01367ZM24 28.5617C25.448 28.5617 26.902 28.6557 28.34 28.8437C27.824 26.9157 26.07 25.5137 24 25.5137C21.93 25.5137 20.176 26.9177 19.66 28.8437C21.096 28.6557 22.552 28.5617 24 28.5617Z" fill="currentColor"/>
<path d="M9.75391 25.5137C10.9965 25.5137 12.0039 24.5063 12.0039 23.2637C12.0039 22.021 10.9965 21.0137 9.75391 21.0137C8.51127 21.0137 7.50391 22.021 7.50391 23.2637C7.50391 24.5063 8.51127 25.5137 9.75391 25.5137Z" fill="currentColor"/>
</g>
<defs>
<clipPath id="clip0_4_852">
<rect width="48" height="48" fill="currentColor"/>
</clipPath>
</defs>
</svg>
