<svg width="21" height="21" viewBox="0 0 21 21" fill="none" xmlns="http://www.w3.org/2000/svg">
<path fill-rule="evenodd" clip-rule="evenodd" d="M5.14204 8.27132e-07H15.6001C16.5365 -2.37528e-05 17.307 -4.39229e-05 17.9163 0.0859813C18.5554 0.176199 19.1172 0.372533 19.5668 0.844536C20.0163 1.31654 20.2033 1.90647 20.2892 2.5775C20.3711 3.21735 20.3711 4.02628 20.3711 5.00948V15.9905C20.3711 16.9737 20.3711 17.7827 20.2892 18.4225C20.2033 19.0935 20.0163 19.6835 19.5668 20.1555C19.1172 20.6275 18.5554 20.8238 17.9163 20.914C17.307 21 16.5365 21 15.6002 21H5.14203C4.20564 21 3.43523 21 2.82586 20.914C2.18678 20.8238 1.62494 20.6275 1.17541 20.1555C0.725887 19.6835 0.538902 19.0935 0.452981 18.4225C0.371052 17.7827 0.371071 16.9737 0.371095 15.9905V5.0095C0.371071 4.02628 0.371052 3.21735 0.452981 2.5775C0.538902 1.90648 0.725887 1.31654 1.17541 0.844536C1.62494 0.372533 2.18678 0.176199 2.82586 0.0859813C3.43524 -4.39229e-05 4.20565 -2.37528e-05 5.14204 8.27132e-07ZM3.00536 1.48788C2.51567 1.557 2.2855 1.67936 2.12799 1.84474C1.97049 2.01012 1.85396 2.25181 1.78812 2.76598C1.71968 3.3005 1.71825 4.01374 1.71825 5.05959V15.9404C1.71825 16.9863 1.71968 17.6995 1.78812 18.234C1.85396 18.7482 1.97049 18.9899 2.12799 19.1553C2.2855 19.3206 2.51567 19.443 3.00536 19.5121C3.51443 19.584 4.1937 19.5855 5.18975 19.5855H15.5524C16.5485 19.5855 17.2278 19.584 17.7368 19.5121C18.2265 19.443 18.4567 19.3206 18.6142 19.1553C18.7717 18.9899 18.8882 18.7482 18.9541 18.234C19.0225 17.6995 19.0239 16.9863 19.0239 15.9404V5.05959C19.0239 4.01374 19.0225 3.3005 18.9541 2.76598C18.8882 2.25181 18.7717 2.01013 18.6142 1.84474C18.4567 1.67936 18.2265 1.557 17.7368 1.48788C17.2278 1.41601 16.5485 1.41451 15.5524 1.41451H5.18975C4.1937 1.41451 3.51443 1.41601 3.00536 1.48788ZM15.9261 6.64728C16.2356 6.86395 16.3192 7.30306 16.1129 7.62807L12.9583 12.5965C12.2301 13.7435 10.5934 13.6365 10.0063 12.4035L9.53094 11.4052C9.4064 11.1437 9.05923 11.121 8.90476 11.3643L5.7502 16.3327C5.54385 16.6577 5.12564 16.7456 4.81612 16.5289C4.50659 16.3122 4.42295 15.8731 4.6293 15.5481L7.78386 10.5797C8.5121 9.43269 10.1487 9.53967 10.7359 10.7726L11.2112 11.7709C11.3358 12.0325 11.683 12.0552 11.8374 11.8119L14.992 6.84344C15.1983 6.51843 15.6165 6.43061 15.9261 6.64728Z" fill="currentColor"/>
</svg>
