<svg width="48" height="48" viewBox="0 0 48 48" fill="none" xmlns="http://www.w3.org/2000/svg">
<path d="M31.503 47.5C30.979 47.5 30.485 47.22 30.217 46.772L24.003 36.416V46C24.003 46.828 23.331 47.5 22.503 47.5C21.675 47.5 21.003 46.828 21.003 46V36.416L14.789 46.772C14.519 47.22 14.027 47.5 13.503 47.5C13.231 47.5 12.963 47.426 12.731 47.286C12.389 47.08 12.145 46.752 12.049 46.364C11.953 45.976 12.011 45.572 12.217 45.228L21.217 30.228C21.229 30.208 21.277 30.136 21.279 30.134C21.291 30.116 21.331 30.066 21.345 30.05C21.375 30.012 21.399 29.986 21.423 29.96C21.429 29.954 21.457 29.926 21.463 29.92C21.489 29.896 21.515 29.872 21.543 29.85C21.583 29.816 21.615 29.79 21.649 29.768C21.653 29.766 21.709 29.728 21.727 29.716C21.749 29.702 21.783 29.684 21.811 29.672C21.837 29.658 21.865 29.644 21.893 29.63C21.905 29.624 21.943 29.61 21.955 29.604C21.985 29.592 22.019 29.582 22.053 29.57C22.109 29.552 22.137 29.544 22.167 29.538C22.181 29.534 22.231 29.526 22.245 29.522C22.281 29.516 22.319 29.51 22.357 29.506C22.391 29.504 22.483 29.498 22.503 29.498C22.525 29.498 22.609 29.504 22.625 29.504C22.687 29.51 22.723 29.514 22.761 29.522C22.771 29.524 22.817 29.532 22.827 29.534C22.865 29.542 22.893 29.55 22.923 29.56C22.985 29.58 23.019 29.592 23.055 29.606C23.063 29.608 23.105 29.626 23.111 29.628C23.143 29.642 23.177 29.658 23.209 29.678C23.239 29.69 23.241 29.692 23.267 29.708C23.293 29.724 23.351 29.764 23.355 29.766C23.389 29.79 23.421 29.814 23.451 29.84C23.491 29.872 23.519 29.898 23.547 29.924C23.555 29.932 23.583 29.96 23.591 29.968C23.607 29.984 23.635 30.016 23.661 30.05C23.685 30.078 23.707 30.106 23.727 30.134C23.733 30.142 23.779 30.212 23.791 30.232L32.789 45.228C32.995 45.57 33.055 45.974 32.959 46.364C32.861 46.754 32.619 47.08 32.275 47.286C32.043 47.426 31.775 47.5 31.503 47.5Z" fill="currentColor"/>
<path d="M15.2264 28.9092C14.8924 28.9092 14.5684 28.8432 14.2584 28.7132C13.6424 28.4552 13.1644 27.9712 12.9124 27.3532L12.7244 26.8892L9.48442 28.2112C9.18242 28.3352 8.86442 28.3972 8.53842 28.3972C8.20442 28.3972 7.88042 28.3312 7.57042 28.2012C6.95442 27.9432 6.47642 27.4592 6.22442 26.8412L4.71242 23.1392C4.46042 22.5212 4.46242 21.8412 4.72242 21.2252C4.98242 20.6092 5.46442 20.1312 6.08242 19.8792L9.32042 18.5572L9.13242 18.0932C8.88042 17.4752 8.88442 16.7972 9.14242 16.1812C9.40042 15.5652 9.88442 15.0872 10.5024 14.8352L19.3004 11.2452L19.2464 11.1112C18.6604 9.67922 19.2504 8.05322 20.6184 7.32722L34.0784 0.535219C34.1404 0.503219 34.2324 0.459219 34.3284 0.421219C34.6864 0.275219 35.0664 0.199219 35.4544 0.199219C36.6804 0.199219 37.7704 0.931219 38.2344 2.06522L44.9164 18.4432C44.9544 18.5332 44.9864 18.6292 45.0164 18.7252C45.2424 19.4892 45.1584 20.2972 44.7764 21.0012C44.3944 21.7052 43.7604 22.2192 42.9924 22.4452L28.6784 26.9992C28.3804 27.0872 28.0884 27.1292 27.7944 27.1292C26.5704 27.1292 25.4824 26.3972 25.0204 25.2632L24.9664 25.1312L16.1704 28.7212C15.8684 28.8452 15.5504 28.9092 15.2264 28.9092ZM15.5004 25.7552L23.8324 22.3552L20.4324 14.0232L12.1004 17.4232L14.9364 24.3672C14.9424 24.3812 14.9484 24.3972 14.9524 24.4132L15.5004 25.7552ZM8.81242 25.2452L11.5884 24.1112L10.4544 21.3332L7.67842 22.4672L8.81242 25.2452ZM21.9964 9.99322L27.7984 24.1312L42.1104 19.5812L35.4584 3.19922L21.9964 9.99322Z" fill="currentColor"/>
<path d="M40.5 40C39.672 40 39 39.328 39 38.5V35.5H36C35.172 35.5 34.5 34.828 34.5 34C34.5 33.172 35.172 32.5 36 32.5H39V29.5C39 28.672 39.672 28 40.5 28C41.328 28 42 28.672 42 29.5V32.5H45C45.828 32.5 46.5 33.172 46.5 34C46.5 34.828 45.828 35.5 45 35.5H42V38.5C42 39.328 41.328 40 40.5 40Z" fill="currentColor"/>
<path d="M7.5 13C6.672 13 6 12.328 6 11.5V8.5H3C2.172 8.5 1.5 7.828 1.5 7C1.5 6.172 2.172 5.5 3 5.5H6V2.5C6 1.672 6.672 1 7.5 1C8.328 1 9 1.672 9 2.5V5.5H12C12.828 5.5 13.5 6.172 13.5 7C13.5 7.828 12.828 8.5 12 8.5H9V11.5C9 12.328 8.328 13 7.5 13Z" fill="currentColor"/>
</svg>
