<svg width="16" height="16" viewBox="0 0 16 16" fill="none" xmlns="http://www.w3.org/2000/svg">
    <path d="M4.42067 15.5C3.64667 15.5 2.99 14.896 2.926 14.124L2.04 3.5H1C0.724 3.5 0.5 3.276 0.5 3C0.5 2.724 0.724 2.5 1 2.5H5V2C5 1.17267 5.67267 0.5 6.5 0.5H9.5C10.3273 0.5 11 1.17267 11 2V2.5H15C15.276 2.5 15.5 2.724 15.5 3C15.5 3.276 15.276 3.5 15 3.5H13.96L13.0747 14.1247C13.0107 14.896 12.354 15.5 11.58 15.5H4.42067ZM3.922 14.0413C3.94333 14.2987 4.162 14.5 4.42067 14.5H11.58C11.838 14.5 12.0573 14.2987 12.078 14.0413L12.9567 3.5H3.04333L3.922 14.0413ZM10 2.5V2C10 1.724 9.776 1.5 9.5 1.5H6.5C6.224 1.5 6 1.724 6 2V2.5H10Z" fill="currentColor"/>
    <path d="M6.5 12C6.224 12 6 11.776 6 11.5V6.5C6 6.224 6.224 6 6.5 6C6.776 6 7 6.224 7 6.5V11.5C7 11.776 6.776 12 6.5 12Z" fill="currentColor"/>
    <path d="M9.5 12C9.224 12 9 11.776 9 11.5V6.5C9 6.224 9.224 6 9.5 6C9.776 6 10 6.224 10 6.5V11.5C10 11.776 9.776 12 9.5 12Z" fill="currentColor"/>
</svg>