<svg width="48" height="48" viewBox="0 0 48 48" fill="none" xmlns="http://www.w3.org/2000/svg">
<path d="M48 9.64516C46.5806 11.7097 44.9355 13.3871 43.0645 14.6774V16.0323C43.0645 19.2581 42.4516 22.5323 41.2258 25.8548C40 29.1774 38.2097 32.1774 35.8548 34.8548C33.5 37.5323 30.5806 39.7258 27.0968 41.4355C23.6129 43.1452 19.6129 44 15.0968 44C12.2581 44 9.58064 43.6129 7.06452 42.8387C4.54839 42.0645 2.19355 40.9677 0 39.5484C0.387097 39.6129 0.774194 39.6613 1.16129 39.6935C1.54839 39.7258 1.93548 39.7419 2.32258 39.7419C4.64516 39.7419 6.85484 39.3548 8.95161 38.5806C11.0484 37.8064 12.9355 36.7742 14.6129 35.4839C12.4194 35.4194 10.5 34.7581 8.85484 33.5C7.20968 32.2419 6.06452 30.6129 5.41935 28.6129C5.74194 28.7419 6.04839 28.8064 6.33871 28.8064H7.25806C8.16129 28.8064 9 28.7097 9.77419 28.5161C7.51613 28 5.64516 26.8548 4.16129 25.0806C2.67742 23.3064 1.93548 21.2258 1.93548 18.8387V18.7419C2.64516 19.0645 3.35484 19.3387 4.06452 19.5645C4.77419 19.7903 5.54839 19.9032 6.3871 19.9032C5.09677 19 4.04839 17.8387 3.24194 16.4194C2.43548 15 2.03226 13.4516 2.03226 11.7742C2.03226 9.96774 2.48387 8.32258 3.3871 6.83871C5.83871 9.80645 8.80645 12.2097 12.2903 14.0484C15.7742 15.8871 19.5484 16.9032 23.6129 17.0968C23.4194 16.3226 23.3226 15.5806 23.3226 14.871C23.3226 13.5161 23.5806 12.2419 24.0968 11.0484C24.6129 9.85484 25.3226 8.80645 26.2258 7.90323C27.129 7 28.1774 6.29032 29.371 5.77419C30.5645 5.25806 31.8387 5 33.1935 5C34.6129 5 35.9355 5.27419 37.1613 5.82258C38.3871 6.37097 39.4516 7.12903 40.3548 8.09677C41.5161 7.90323 42.6129 7.59677 43.6452 7.17742C44.6774 6.75806 45.6774 6.25806 46.6452 5.67742C45.871 8.06452 44.4194 9.90323 42.2903 11.1935C44.3548 10.871 46.2581 10.3548 48 9.64516Z" fill="currentColor"/>
</svg>
