<svg width="48" height="48" viewBox="0 0 48 48" fill="none" xmlns="http://www.w3.org/2000/svg">
<path d="M6.75 30.7969C3.028 30.7969 0 27.7689 0 24.0469C0 20.3249 3.028 17.2969 6.75 17.2969C10.472 17.2969 13.5 20.3249 13.5 24.0469C13.5 27.7689 10.472 30.7969 6.75 30.7969ZM6.75 20.2969C4.682 20.2969 3 21.9789 3 24.0469C3 26.1149 4.682 27.7969 6.75 27.7969C8.818 27.7969 10.5 26.1149 10.5 24.0469C10.5 21.9789 8.818 20.2969 6.75 20.2969Z" fill="currentColor"/>
<path d="M41.25 30.7969C37.528 30.7969 34.5 27.7689 34.5 24.0469C34.5 20.3249 37.528 17.2969 41.25 17.2969C44.972 17.2969 48 20.3249 48 24.0469C48 27.7689 44.972 30.7969 41.25 30.7969ZM41.25 20.2969C39.182 20.2969 37.5 21.9789 37.5 24.0469C37.5 26.1149 39.182 27.7969 41.25 27.7969C43.318 27.7969 45 26.1149 45 24.0469C45 21.9789 43.318 20.2969 41.25 20.2969Z" fill="currentColor"/>
<path d="M24 30.7969C20.278 30.7969 17.25 27.7689 17.25 24.0469C17.25 20.3249 20.278 17.2969 24 17.2969C27.722 17.2969 30.75 20.3249 30.75 24.0469C30.75 27.7689 27.722 30.7969 24 30.7969ZM24 20.2969C21.932 20.2969 20.25 21.9789 20.25 24.0469C20.25 26.1149 21.932 27.7969 24 27.7969C26.068 27.7969 27.75 26.1149 27.75 24.0469C27.75 21.9789 26.068 20.2969 24 20.2969Z" fill="currentColor"/>
</svg>
