<svg width="48" height="48" viewBox="0 0 48 48" fill="none" xmlns="http://www.w3.org/2000/svg">
<g clip-path="url(#clip0_4_883)">
<path d="M13.5 12.938C13.182 12.938 12.878 12.84 12.62 12.652L9.82 10.622C8.746 11.514 7.412 12 6 12C2.692 12 0 9.308 0 6C0 2.692 2.692 0 6 0C9.308 0 12 2.692 12 6C12 6.748 11.856 7.496 11.582 8.194L14.382 10.224C14.706 10.46 14.92 10.806 14.982 11.202C15.046 11.598 14.95 11.994 14.716 12.318C14.434 12.706 13.978 12.938 13.5 12.938ZM6 3C4.346 3 3 4.346 3 6C3 7.654 4.346 9 6 9C7.654 9 9 7.654 9 6C9 4.346 7.654 3 6 3Z" fill="currentColor"/>
<path d="M6 47.9996C2.692 47.9996 0 45.3076 0 41.9996C0 38.6916 2.692 35.9996 6 35.9996C7.412 35.9996 8.746 36.4836 9.818 37.3776L12.618 35.3456C12.876 35.1576 13.18 35.0596 13.498 35.0596C13.978 35.0596 14.432 35.2916 14.712 35.6796C14.948 36.0036 15.042 36.3996 14.98 36.7956C14.918 37.1916 14.704 37.5376 14.38 37.7736L11.58 39.8056C11.856 40.5036 12 41.2496 12 41.9996C12 45.3076 9.308 47.9996 6 47.9996ZM6 38.9996C4.346 38.9996 3 40.3456 3 41.9996C3 43.6536 4.346 44.9996 6 44.9996C7.654 44.9996 9 43.6536 9 41.9996C9 40.3456 7.654 38.9996 6 38.9996Z" fill="currentColor"/>
<path d="M34.5003 12.938C34.0203 12.938 33.5663 12.706 33.2863 12.318C32.8003 11.648 32.9503 10.71 33.6203 10.224L36.4203 8.194C36.1443 7.496 36.0003 6.748 36.0003 6C36.0003 2.692 38.6923 0 42.0003 0C45.3083 0 48.0003 2.692 48.0003 6C48.0003 9.308 45.3083 12 42.0003 12C40.5883 12 39.2543 11.514 38.1823 10.622L35.3823 12.652C35.1223 12.84 34.8183 12.938 34.5003 12.938ZM42.0003 3C40.3463 3 39.0003 4.346 39.0003 6C39.0003 7.654 40.3463 9 42.0003 9C43.6543 9 45.0003 7.654 45.0003 6C45.0003 4.346 43.6543 3 42.0003 3Z" fill="currentColor"/>
<path d="M41.9996 47.9996C38.6916 47.9996 35.9996 45.3076 35.9996 41.9996C35.9996 41.2496 36.1436 40.5036 36.4176 39.8056L33.6176 37.7736C33.2936 37.5396 33.0796 37.1916 33.0176 36.7956C32.9556 36.3996 33.0496 36.0036 33.2856 35.6796C33.5676 35.2916 34.0216 35.0596 34.4996 35.0596C34.8176 35.0596 35.1236 35.1596 35.3816 35.3456L38.1816 37.3776C39.2536 36.4836 40.5876 35.9996 41.9996 35.9996C45.3076 35.9996 47.9996 38.6916 47.9996 41.9996C47.9996 45.3076 45.3076 47.9996 41.9996 47.9996ZM41.9996 38.9996C40.3456 38.9996 38.9996 40.3456 38.9996 41.9996C38.9996 43.6536 40.3456 44.9996 41.9996 44.9996C43.6536 44.9996 44.9996 43.6536 44.9996 41.9996C44.9996 40.3456 43.6536 38.9996 41.9996 38.9996Z" fill="currentColor"/>
<path d="M24 22.5C20.278 22.5 17.25 19.472 17.25 15.75C17.25 12.028 20.278 9 24 9C27.722 9 30.75 12.028 30.75 15.75C30.75 19.472 27.722 22.5 24 22.5ZM24 12C21.932 12 20.25 13.682 20.25 15.75C20.25 17.818 21.932 19.5 24 19.5C26.068 19.5 27.75 17.818 27.75 15.75C27.75 13.682 26.068 12 24 12Z" fill="currentColor"/>
<path d="M15 33C14.172 33 13.5 32.328 13.5 31.5C13.5 25.71 18.21 21 24 21C29.79 21 34.5 25.71 34.5 31.5C34.5 32.328 33.828 33 33 33H15ZM31.348 30C30.644 26.576 27.564 24 24 24C20.436 24 17.356 26.576 16.652 30H31.348Z" fill="currentColor"/>
</g>
<defs>
<clipPath id="clip0_4_883">
<rect width="48" height="48" fill="white"/>
</clipPath>
</defs>
</svg>
