<svg width="22" height="22" viewBox="0 0 22 22" fill="none" xmlns="http://www.w3.org/2000/svg">
<path d="M20.1904 6.10161L19.0711 7.22863C19.743 8.47466 20.0935 9.86862 20.0908 11.2843C20.0962 13.2628 19.4231 15.1833 18.1837 16.7254C16.9443 18.2676 15.2136 19.3382 13.2802 19.7586C11.3469 20.1789 9.32796 19.9236 7.5601 19.0354C5.79224 18.1471 4.3824 16.6795 3.5658 14.8774C2.74919 13.0753 2.5752 11.0477 3.07283 9.13285C3.57046 7.21798 4.7096 5.5316 6.30028 4.3551C7.89095 3.17861 9.83693 2.5831 11.8136 2.66794C13.7903 2.75277 15.6781 3.51283 17.1621 4.82129L15.6288 6.35462C14.4268 5.34391 12.8966 4.80784 11.3266 4.84749C9.75667 4.88714 8.25549 5.49976 7.10606 6.56985C5.95663 7.63994 5.23837 9.09358 5.08673 10.6567C4.93509 12.2198 5.36056 13.7843 6.28287 15.0554C7.20517 16.3265 8.5606 17.2162 10.0936 17.5569C11.6267 17.8976 13.2314 17.6657 14.6053 16.9049C15.9791 16.144 17.0271 14.9069 17.5518 13.4267C18.0765 11.9465 18.0415 10.3255 17.4534 8.86926L16.2344 10.0883C16.3363 10.4788 16.3878 10.8807 16.3878 11.2843C16.3893 12.398 16.0125 13.4792 15.319 14.3508C14.6256 15.2223 13.6567 15.8324 12.5711 16.0812C11.4855 16.33 10.3476 16.2026 9.34383 15.72C8.34009 15.2374 7.53007 14.4281 7.04649 13.4248C6.56291 12.4215 6.43447 11.2838 6.68221 10.1979C6.92994 9.11208 7.53919 8.14258 8.41006 7.44833C9.28093 6.75407 10.3618 6.37623 11.4755 6.37671C12.5892 6.37718 13.6698 6.75595 14.5401 7.45095L12.7844 9.21427C12.2894 8.90248 11.6994 8.77727 11.1204 8.86107C10.5414 8.94488 10.0111 9.23223 9.62478 9.67159C9.23843 10.1109 9.02127 10.6736 9.0122 11.2585C9.00313 11.8435 9.20278 12.4126 9.57532 12.8638C9.94785 13.3149 10.4689 13.6185 11.0451 13.7202C11.6212 13.8219 12.2148 13.7151 12.7192 13.4188C13.2237 13.1225 13.6061 12.6561 13.7979 12.1034C13.9897 11.5507 13.9783 10.9477 13.7658 10.4026L14.6934 9.47496L18.8104 5.32727L19.3088 4.82894C17.6154 2.74451 15.18 1.39749 12.5144 1.07085C9.84872 0.744203 7.16017 1.46335 5.01359 3.07724C2.86701 4.69113 1.42947 7.07413 1.00291 9.72563C0.576349 12.3771 1.19398 15.0908 2.72609 17.2965C4.25819 19.5022 6.58551 21.0282 9.21912 21.5541C11.8527 22.08 14.5876 21.5648 16.8493 20.1166C19.111 18.6685 20.7235 16.4001 21.3479 13.7881C21.9724 11.1761 21.5602 8.42379 20.1981 6.10928L20.1904 6.10161ZM11.4734 12.2349C11.2893 12.2365 11.1089 12.1831 10.9552 12.0818C10.8014 11.9804 10.6814 11.8357 10.6102 11.6658C10.539 11.496 10.52 11.3089 10.5556 11.1282C10.5911 10.9476 10.6796 10.7815 10.8098 10.6514C10.94 10.5212 11.106 10.4326 11.2867 10.3971C11.4674 10.3615 11.6545 10.3806 11.8243 10.4517C11.9941 10.5229 12.1389 10.643 12.2403 10.7967C12.3416 10.9504 12.3949 11.1308 12.3934 11.3149C12.3836 11.5529 12.2826 11.778 12.1113 11.9436C11.94 12.1092 11.7116 12.2025 11.4734 12.2043V12.2349Z" fill="currentColor"/>
</svg>
