<svg width="48" height="48" viewBox="0 0 48 48" fill="none" xmlns="http://www.w3.org/2000/svg">
<g clip-path="url(#clip0_4_722)">
<path d="M34.5 48C27.056 48 21 41.944 21 34.5C21 27.056 27.056 21 34.5 21C41.944 21 48 27.056 48 34.5C48 41.944 41.944 48 34.5 48ZM34.5 24C28.71 24 24 28.71 24 34.5C24 40.29 28.71 45 34.5 45C40.29 45 45 40.29 45 34.5C45 28.71 40.29 24 34.5 24Z" fill="currentColor"/>
<path d="M34.5 42C33.672 42 33 41.328 33 40.5V32.122L31.06 34.062C30.776 34.346 30.4 34.502 30 34.502C29.6 34.502 29.222 34.346 28.94 34.062C28.356 33.478 28.356 32.526 28.94 31.94L33.44 27.44C33.58 27.3 33.744 27.19 33.93 27.114C33.946 27.108 33.964 27.1 33.982 27.094C34.146 27.032 34.322 27 34.5 27C34.674 27 34.848 27.032 35.016 27.092C35.028 27.096 35.038 27.1 35.05 27.104C35.258 27.188 35.422 27.298 35.562 27.438L40.062 31.938C40.646 32.522 40.646 33.474 40.062 34.06C39.778 34.344 39.402 34.5 39.002 34.5C38.602 34.5 38.224 34.344 37.942 34.06L36 32.122V40.5C36 41.328 35.328 42 34.5 42Z" fill="currentColor"/>
<path d="M4.5 42C2.018 42 0 39.982 0 37.5V4.5C0 2.018 2.018 0 4.5 0H25.758C26.96 0 28.088 0.468 28.938 1.316L34.682 7.06C35.532 7.91 36 9.04 36 10.242V16.5C36 17.328 35.328 18 34.5 18C33.672 18 33 17.328 33 16.5V10.242C33 9.848 32.84 9.462 32.562 9.182L26.818 3.438C26.534 3.156 26.158 3 25.758 3H4.5C3.672 3 3 3.672 3 4.5V37.5C3 38.328 3.672 39 4.5 39H16.5C17.328 39 18 39.672 18 40.5C18 41.328 17.328 42 16.5 42H4.5Z" fill="currentColor"/>
<path d="M11.872 27.0019C11.564 27.0019 11.258 26.9519 10.962 26.8539C10.234 26.6119 9.646 26.0999 9.304 25.4139C9.104 25.0159 9 24.5719 9 24.1299V14.8699C9 14.1039 9.298 13.3819 9.84 12.8399C10.37 12.3099 11.114 12.0059 11.884 12.0059C12.328 12.0059 12.766 12.1079 13.152 12.3019L22.414 16.9339C23.098 17.2759 23.608 17.8639 23.852 18.5919C24.096 19.3199 24.04 20.0959 23.698 20.7819C23.422 21.3339 22.966 21.7919 22.412 22.0679L13.152 26.6999C12.75 26.8999 12.318 27.0019 11.872 27.0019ZM12 23.9199L20.838 19.4999L12 15.0799V23.9199Z" fill="currentColor"/>
</g>
<defs>
<clipPath id="clip0_4_722">
<rect width="48" height="48" fill="currentColor"/>
</clipPath>
</defs>
</svg>
