<svg width="48" height="49" viewBox="0 0 48 49" fill="none" xmlns="http://www.w3.org/2000/svg">
<g clip-path="url(#clip0_4_763)">
<path d="M23.685 39.998C15.019 39.998 6.413 33.918 1.247 28.23C-0.414999 26.384 -0.415 23.606 1.243 21.766C6.411 16.076 15.027 10 23.711 10C23.813 10 23.911 10 24.013 10.002C24.097 10 24.207 10 24.319 10C32.975 10 41.587 16.076 46.757 21.762C48.419 23.608 48.421 26.386 46.761 28.228C41.589 33.92 32.967 40 24.271 40L23.973 39.998H23.685ZM23.707 12.998C16.005 12.998 8.201 18.566 3.467 23.778C2.843 24.47 2.843 25.52 3.471 26.218C8.203 31.428 16.005 36.998 23.711 36.998L23.973 36.996L24.245 36.998C31.979 36.998 39.797 31.428 44.535 26.214C45.159 25.522 45.159 24.472 44.531 23.774C39.795 18.566 31.987 13 24.285 13C24.285 13 23.977 13.002 23.973 13.002L23.707 12.998Z" fill="currentColor"/>
<path d="M23.9941 33.9961C21.5901 33.9961 19.3301 33.0581 17.6301 31.3581C15.9301 29.6581 14.9941 27.3981 14.9961 24.9941C14.9961 20.0321 19.0341 15.9961 23.9961 15.9961C26.4001 15.9961 28.6601 16.9321 30.3601 18.6301C32.0601 20.3301 32.9961 22.5881 32.9961 24.9921C32.9961 27.4041 32.0581 29.6621 30.3581 31.3621C28.6581 33.0601 26.4001 33.9961 23.9961 33.9961H23.9941ZM23.9981 18.9961C20.6901 18.9961 17.9981 21.6861 17.9981 24.9941C17.9981 26.5961 18.6221 28.1041 19.7541 29.2361C20.8881 30.3701 22.3941 30.9941 23.9961 30.9941C25.6001 30.9941 27.1061 30.3701 28.2381 29.2381C29.3701 28.1061 29.9961 26.5981 29.9961 24.9961C29.9961 23.3881 29.3721 21.8821 28.2381 20.7501C27.1061 19.6201 25.6001 18.9961 23.9981 18.9961Z" fill="currentColor"/>
</g>
<defs>
<clipPath id="clip0_4_763">
<rect width="48" height="48" fill="currentColor" transform="translate(0 1)"/>
</clipPath>
</defs>
</svg>
