<svg width="48" height="48" viewBox="0 0 48 48" fill="none" xmlns="http://www.w3.org/2000/svg">
<g clip-path="url(#clip0_1738_43581)">
<path d="M10.5 48C10.268 48 10.036 47.946 9.828 47.842C9.318 47.586 9 47.072 9 46.5V39H4.5C2.018 39 0 36.982 0 34.5V4.5C0 2.018 2.018 0 4.5 0H43.5C45.982 0 48 2.018 48 4.5V34.5C48 36.982 45.982 39 43.5 39H23L11.4 47.7C11.142 47.894 10.822 48 10.5 48ZM4.5 3C3.672 3 3 3.672 3 4.5V34.5C3 35.328 3.672 36 4.5 36H10.5C11.328 36 12 36.672 12 37.5V43.5L21.6 36.3C21.858 36.106 22.178 36 22.5 36H43.5C44.328 36 45 35.328 45 34.5V4.5C45 3.672 44.328 3 43.5 3H4.5Z" fill="currentColor"/>
<path fill-rule="evenodd" clip-rule="evenodd" d="M15 26C13.8954 26 13 25.1046 13 24V14C13 12.8954 13.8954 12 15 12C16.1046 12 17 12.8954 17 14V24C17 25.1046 16.1046 26 15 26Z" fill="currentColor"/>
<path fill-rule="evenodd" clip-rule="evenodd" d="M24 30C22.8954 30 22 29.1046 22 28V10C22 8.89543 22.8954 8 24 8C25.1046 8 26 8.89543 26 10V28C26 29.1046 25.1046 30 24 30Z" fill="currentColor"/>
<path fill-rule="evenodd" clip-rule="evenodd" d="M33 26C31.8954 26 31 25.1046 31 24V14C31 12.8954 31.8954 12 33 12C34.1046 12 35 12.8954 35 14V24C35 25.1046 34.1046 26 33 26Z" fill="currentColor"/>
</g>
<defs>
<clipPath id="clip0_1738_43581">
<rect width="48" height="48" fill="currentColor"/>
</clipPath>
</defs>
</svg>
