<svg width="22" height="22" viewBox="0 0 22 22" fill="none" xmlns="http://www.w3.org/2000/svg">
<path fill-rule="evenodd" clip-rule="evenodd" d="M18.7902 21.3999C18.7768 21.3999 18.7634 21.3999 18.7499 21.3999L4.70386 21.3999C3.80024 21.3999 3.05679 21.3999 2.46874 21.3209C1.85204 21.238 1.30986 21.0575 0.876064 20.6237C0.44227 20.1899 0.261829 19.6478 0.178915 19.0311C0.0998535 18.443 0.0998726 17.6995 0.0998955 16.7959L0.0998955 3.41656C0.0998955 1.58482 1.58482 0.0998955 3.41656 0.0998955L18.6709 0.0998955C18.7787 0.0998764 18.8909 0.0998573 18.9876 0.106764C19.0954 0.114462 19.2326 0.133093 19.3764 0.19585C19.6424 0.311867 19.8546 0.524105 19.9706 0.79002C20.0334 0.933861 20.052 1.0711 20.0597 1.17885C20.0666 1.27551 20.0666 1.3877 20.0666 1.49552L20.0666 1.53637C20.0666 2.248 20.0666 2.81669 20.0336 3.27787C19.9998 3.75058 19.9291 4.15994 19.762 4.54284C19.6202 4.868 19.4329 5.16787 19.2081 5.43474C19.4777 5.43783 19.7225 5.44723 19.9338 5.47564C20.2782 5.52194 20.6293 5.62916 20.9166 5.9165C21.204 6.20385 21.3112 6.55496 21.3575 6.89935C21.4 7.21535 21.3999 7.60616 21.3999 8.04292L21.3999 18.7499C21.3999 18.7634 21.3999 18.7768 21.3999 18.7902C21.3999 19.227 21.4 19.6178 21.3575 19.9338C21.3112 20.2782 21.204 20.6293 20.9166 20.9166C20.6293 21.204 20.2782 21.3112 19.9338 21.3575C19.6178 21.4 19.227 21.3999 18.7902 21.3999ZM14.9138 6.73323C14.8992 6.73323 14.8845 6.73323 14.8697 6.73323L3.41656 6.73323C2.65789 6.73323 1.95872 6.4785 1.3999 6.0499L1.3999 16.7499C1.3999 17.7111 1.40128 18.3666 1.46732 18.8578C1.53086 19.3304 1.64331 19.5525 1.7953 19.7045C1.9473 19.8565 2.16941 19.9689 2.64196 20.0325C3.13321 20.0985 3.78871 20.0999 4.7499 20.0999L18.7499 20.0999C19.2397 20.0999 19.5416 20.0985 19.7606 20.0691C19.9536 20.0431 19.9894 20.0057 19.9967 19.9981C19.997 19.9978 19.9972 19.9976 19.9974 19.9974C19.9976 19.9972 19.9978 19.997 19.9981 19.9967C20.0057 19.9894 20.0431 19.9536 20.0691 19.7606C20.0985 19.5416 20.0999 19.2397 20.0999 18.7499V17.3999H17.4166C17.4031 17.3999 17.3897 17.3999 17.3763 17.3999C16.9395 17.3999 16.5487 17.4 16.2327 17.3575C15.8883 17.3112 15.5372 17.204 15.2498 16.9166C14.9625 16.6293 14.8553 16.2782 14.809 15.9338C14.7665 15.6178 14.7665 15.227 14.7666 14.7902C14.7666 14.7768 14.7666 14.7634 14.7666 14.7499V13.4166C14.7666 13.4031 14.7666 13.3897 14.7666 13.3763C14.7665 12.9395 14.7665 12.5487 14.809 12.2327C14.8553 11.8883 14.9625 11.5372 15.2498 11.2498C15.5372 10.9625 15.8883 10.8553 16.2327 10.809C16.5487 10.7665 16.9395 10.7665 17.3763 10.7666L20.0999 10.7666L20.0999 8.08323C20.0999 7.59345 20.0985 7.2915 20.0691 7.07257C20.0431 6.87951 20.0057 6.84373 19.9981 6.83644C19.9978 6.83617 19.9976 6.83594 19.9974 6.83574C19.9972 6.83555 19.997 6.8353 19.9967 6.83502C19.9894 6.8274 19.9536 6.79 19.7606 6.76405C19.5416 6.73461 19.2397 6.73323 18.7499 6.73323L14.9138 6.73323ZM20.0999 12.0666H17.4166C16.9268 12.0666 16.6248 12.0679 16.4059 12.0974C16.2128 12.1233 16.1771 12.1607 16.1698 12.1684C16.1695 12.1686 16.1693 12.1689 16.1691 12.1691C16.1689 12.1693 16.1686 12.1695 16.1684 12.1698C16.1607 12.1771 16.1233 12.2128 16.0974 12.4059C16.0679 12.6248 16.0666 12.9268 16.0666 13.4166V14.7499C16.0666 15.2397 16.0679 15.5416 16.0974 15.7606C16.1233 15.9536 16.1607 15.9894 16.1684 15.9967C16.1686 15.997 16.1689 15.9972 16.1691 15.9974C16.1693 15.9976 16.1695 15.9978 16.1698 15.9981C16.1771 16.0057 16.2128 16.0431 16.4059 16.0691C16.6248 16.0985 16.9268 16.0999 17.4166 16.0999H20.0999V12.0666ZM1.3999 3.41656C1.3999 4.53034 2.30279 5.43323 3.41656 5.43323L14.8451 5.43323C15.5869 5.43323 16.1092 5.43285 16.5186 5.40359C16.9217 5.37479 17.1655 5.32041 17.3563 5.23715C17.8997 5.00007 18.3334 4.56637 18.5705 4.02298C18.6537 3.83214 18.7081 3.58841 18.7369 3.18523C18.7662 2.77582 18.7666 2.25359 18.7666 1.5118C18.7666 1.46878 18.7666 1.43232 18.7664 1.4001C18.7341 1.3999 18.6977 1.3999 18.6547 1.3999L3.41656 1.3999C2.30279 1.3999 1.3999 2.30279 1.3999 3.41656Z" fill="currentColor"/>
</svg>
