<svg width="34" height="34" viewBox="0 0 34 34" fill="none" xmlns="http://www.w3.org/2000/svg">
    <g clip-path="url(#clip0_2070_45111)">
        <path d="M17 28.6889C16.1217 28.6889 15.4062 27.9735 15.4062 27.0952C15.4062 26.2168 16.1217 25.5014 17 25.5014C17.8783 25.5014 18.5937 26.2168 18.5937 27.0952C18.5937 27.9735 17.8783 28.6889 17 28.6889Z" fill="#FFAE63"/>
        <path d="M17 23.3764C16.4135 23.3764 15.9375 22.9004 15.9375 22.3139V11.6889C15.9375 11.1024 16.4135 10.6264 17 10.6264C17.5851 10.6264 18.0625 11.1024 18.0625 11.6889V22.3139C18.0625 22.899 17.5851 23.3764 17 23.3764Z" fill="#FFAE63"/>
        <path d="M3.21941 34.0007C2.72783 34.0007 2.23766 33.886 1.7985 33.6706C1.02925 33.2924 0.451245 32.635 0.173578 31.8219C-0.104088 31.0087 -0.0488383 30.1346 0.330828 29.3654L13.7495 2.02512C14.1008 1.3097 14.6887 0.723202 15.4027 0.371869C15.9042 0.125369 16.4397 0.000701904 16.9951 0.000701904C18.3891 0.000701904 19.6372 0.775618 20.2506 2.02512L33.6707 29.364C33.886 29.8031 34.0007 30.2933 34.0007 30.7849C34.0007 31.6448 33.665 32.4537 33.0558 33.06C32.4495 33.6664 31.642 34.0007 30.7835 34.0007H3.21941V34.0007ZM16.9965 2.1257C16.7684 2.1257 16.546 2.1767 16.3406 2.2787C16.0459 2.4232 15.8022 2.66687 15.6577 2.96154L2.23766 30.3018C1.97133 30.843 2.19516 31.4989 2.73633 31.7638C2.88508 31.8375 3.05083 31.8757 3.21658 31.8757H30.7821C31.0753 31.8757 31.3487 31.7624 31.5556 31.557C31.7624 31.3501 31.8757 31.0767 31.8772 30.7849C31.8772 30.6177 31.8389 30.452 31.7652 30.3032L18.3423 2.96154C18.093 2.45437 17.566 2.1257 16.9965 2.1257Z" fill="#FFAE63"/>
    </g>
    <defs>
        <clipPath id="clip0_2070_45111">
            <rect width="34" height="34" fill="white"/>
        </clipPath>
    </defs>
</svg>