<svg width="48" height="48" viewBox="0 0 48 48" fill="none" xmlns="http://www.w3.org/2000/svg">
<path d="M46.9979 12.18C46.7197 11.1831 46.189 10.2749 45.4572 9.54307C44.7254 8.81126 43.8172 8.28061 42.8203 8.0024C39.079 7.00003 24.0214 7.00003 24.0214 7.00003C24.0214 7.00003 9.00178 6.98002 5.22237 8.0024C4.22553 8.28061 3.3173 8.81126 2.58549 9.54307C1.85368 10.2749 1.32303 11.1831 1.04482 12.18C0.335598 16.0104 -0.0140521 19.8987 0.000432145 23.7943C-0.011314 27.6751 0.338325 31.5486 1.04482 35.3646C1.32303 36.3614 1.85368 37.2696 2.58549 38.0014C3.3173 38.7333 4.22553 39.2639 5.22237 39.5421C8.95976 40.5465 24.0214 40.5465 24.0214 40.5465C24.0214 40.5465 39.0389 40.5465 42.8203 39.5421C43.8172 39.2639 44.7254 38.7333 45.4572 38.0014C46.189 37.2696 46.7197 36.3614 46.9979 35.3646C47.6896 31.5472 48.0245 27.6737 47.9983 23.7943C48.0273 19.9001 47.6924 16.0118 46.9979 12.18ZM19.2156 30.9789V16.5876L31.7482 23.7943L19.2156 30.9789Z" fill="currentColor"/>
</svg>
