<?xml version="1.0" encoding="UTF-8" standalone="no"?><!DOCTYPE svg PUBLIC "-//W3C//DTD SVG 1.1//EN" "http://www.w3.org/Graphics/SVG/1.1/DTD/svg11.dtd"><svg width="190px" height="125px" version="1.1" xmlns="http://www.w3.org/2000/svg" xmlnsXlink="http://www.w3.org/1999/xlink" xmlSpace="preserve" xmlnsSerif="http://www.serif.com/" style="fill-rule:evenodd;clip-rule:evenodd;stroke-linejoin:round;stroke-miterlimit:2;"><g id="arrows"><g id="up"><path d="M125,10c0,-5.519 -4.481,-10 -10,-10l-40,0c-5.519,0 -10,4.481 -10,10l0,40c0,5.519 4.481,10 10,10l40,0c5.519,0 10,-4.481 10,-10l0,-40Z" style="fill:#122546;fill-opacity:0.8;"/><path d="M125,10c0,-5.519 -4.481,-10 -10,-10l-40,0c-5.519,0 -10,4.481 -10,10l0,40c0,5.519 4.481,10 10,10l40,-0c5.519,-0 10,-4.481 10,-10l0,-40Zm-2,-0l0,40c0,4.415 -3.585,8 -8,8l-40,0c-4.415,0 -8,-3.585 -8,-8l0,-40c0,-4.415 3.585,-8 8,-8c0,0 40,0 40,0c4.415,0 8,3.585 8,8Z" style="fill:#fff;"/><path d="M93.8,30l-4.8,0l6,-12l6,12l-4.8,0l0,12l-2.4,0l-0,-12Z" style="fill:#fff;"/><path d="M93.8,30l-4.8,0l6,-12l6,12l-4.8,0l0,12l-2.4,0l-0,-12Zm0.053,-2.999c0.408,0.007 0.795,0.095 1.147,0.249c0.352,-0.154 0.739,-0.242 1.147,-0.249l-1.147,-2.293l-1.147,2.293Z" style="fill:#fff;"/></g><g id="left"><path d="M60,75c0,-5.519 -4.481,-10 -10,-10l-40,-0c-5.519,-0 -10,4.481 -10,10l0,40c0,5.519 4.481,10 10,10l40,-0c5.519,-0 10,-4.481 10,-10l0,-40Z" style="fill:#122546;fill-opacity:0.8;"/><path d="M60,75c-0,-5.519 -4.481,-10 -10,-10l-40,-0c-5.519,-0 -10,4.481 -10,10l-0,40c-0,5.519 4.481,10 10,10l40,-0c5.519,-0 10,-4.481 10,-10l-0,-40Zm-2,0l0,40c0,4.415 -3.585,8 -8,8l-40,-0c-4.415,-0 -8,-3.585 -8,-8l-0,-40c-0,-4.415 3.585,-8 8,-8l40,-0c4.415,-0 8,3.585 8,8Z" style="fill:#fff;"/><path d="M30,96.2l0,4.8l-12,-6l12,-6l0,4.8l12,-0l0,2.4l-12,0Z" style="fill:#fff;"/><path d="M30,96.2l0,4.8l-12,-6l12,-6l0,4.8l12,-0l0,2.4l-12,0Zm-5.292,-1.2l2.293,1.147c0.007,-0.408 0.095,-0.795 0.249,-1.147c-0.154,-0.352 -0.242,-0.739 -0.249,-1.147l-2.293,1.147Z" style="fill:#fff;"/></g><g id="down"><path d="M125,75c0,-5.519 -4.481,-10 -10,-10l-40,-0c-5.519,-0 -10,4.481 -10,10l0,40c0,5.519 4.481,10 10,10l40,-0c5.519,-0 10,-4.481 10,-10l0,-40Z" style="fill:#122546;fill-opacity:0.8;"/><path d="M125,75c-0,-5.519 -4.481,-10 -10,-10l-40,-0c-5.519,-0 -10,4.481 -10,10l-0,40c-0,5.519 4.481,10 10,10l40,-0c5.519,-0 10,-4.481 10,-10l-0,-40Zm-2,-0l0,40c0,4.415 -3.585,8 -8,8l-40,-0c-4.415,-0 -8,-3.585 -8,-8l-0,-40c-0,-4.415 3.585,-8 8,-8l40,-0c4.415,-0 8,3.585 8,8Z" style="fill:#fff;"/><path d="M93.8,95l-4.8,-0l6,12l6,-12l-4.8,-0l0,-12l-2.4,0l-0,12Z" style="fill:#fff;"/><path d="M93.8,95l-4.8,-0l6,12l6,-12l-4.8,-0l0,-12l-2.4,0l-0,12Zm1.2,2.75c-0.352,0.154 -0.739,0.242 -1.147,0.249l1.147,2.293l1.147,-2.293c-0.408,-0.007 -0.795,-0.095 -1.147,-0.249Z" style="fill:#fff;"/></g><g id="right"><path d="M190,75c0,-5.519 -4.481,-10 -10,-10l-40,-0c-5.519,-0 -10,4.481 -10,10l0,40c0,5.519 4.481,10 10,10l40,-0c5.519,-0 10,-4.481 10,-10l0,-40Z" style="fill:#122546;fill-opacity:0.8;"/><path d="M190,75c-0,-5.519 -4.481,-10 -10,-10l-40,-0c-5.519,-0 -10,4.481 -10,10l-0,40c-0,5.519 4.481,10 10,10l40,-0c5.519,-0 10,-4.481 10,-10l-0,-40Zm-2,0l-0,40c-0,4.415 -3.585,8 -8,8l-40,-0c-4.415,-0 -8,-3.585 -8,-8c-0,-0 -0,-40 -0,-40c-0,-4.415 3.585,-8 8,-8l40,-0c4.415,-0 8,3.585 8,8Z" style="fill:#fff;"/><path d="M160,93.8l0,-4.8l12,6l-12,6l0,-4.8l-12,0l0,-2.4l12,-0Z" style="fill:#fff;"/><path d="M160,93.8l0,-4.8l12,6l-12,6l0,-4.8l-12,0l0,-2.4l12,-0Zm2.999,0.053c-0.007,0.408 -0.095,0.795 -0.249,1.147c0.154,0.352 0.242,0.739 0.249,1.147l2.293,-1.147l-2.293,-1.147Z" style="fill:#fff;"/></g></g></svg>