<?xml version="1.0" encoding="UTF-8" standalone="no"?><!DOCTYPE svg PUBLIC "-//W3C//DTD SVG 1.1//EN" "http://www.w3.org/Graphics/SVG/1.1/DTD/svg11.dtd"><svg width="229px" height="151px" version="1.1" xmlns="http://www.w3.org/2000/svg" xmlnsXlink="http://www.w3.org/1999/xlink" xmlSpace="preserve" xmlnsSerif="http://www.serif.com/" style="fill-rule:evenodd;clip-rule:evenodd;stroke-linecap:round;stroke-linejoin:round;stroke-miterlimit:1.5;"><g id="mouse"><g><path d="M88.612,44.304c-0,-24.468 -19.836,-44.304 -44.304,-44.304c-0.001,0 -0.003,0 -0.004,0c-24.468,0 -44.304,19.836 -44.304,44.304c-0,10.331 -0,21.121 -0,30.751c0,20.028 7.956,39.235 22.118,53.397c-0,-0 0,0 0,0.001c12.254,12.253 32.122,12.253 44.376,-0c-0,-0.001 0,-0.001 0,-0.001c14.162,-14.162 22.118,-33.369 22.118,-53.397l-0,-30.751Z" style="fill:#122546;fill-opacity:0.8;"/><path d="M88.612,44.304c-0,-24.468 -19.836,-44.304 -44.304,-44.304c-0.001,0 -0.003,0 -0.004,0c-24.468,0 -44.304,19.836 -44.304,44.304c-0,10.331 -0,21.121 -0,30.751c0,20.028 7.956,39.235 22.118,53.397c-0,-0 0,0 0,0.001c12.254,12.253 32.122,12.253 44.376,-0c-0,-0.001 0,-0.001 0,-0.001c14.162,-14.162 22.118,-33.369 22.118,-53.397l-0,-30.751Zm-2,-0l-0,30.751c-0,19.497 -7.745,38.196 -21.532,51.983c-0,-0 -0,0 -0.001,0c-11.473,11.473 -30.074,11.473 -41.546,0c-0.001,0 -0.001,-0 -0.001,-0c-13.787,-13.787 -21.532,-32.486 -21.532,-51.983c0,-9.63 0,-20.42 0,-30.751c0,-23.364 18.94,-42.304 42.304,-42.304c0.001,0 0.003,0 0.004,-0c23.364,0 42.304,18.94 42.304,42.304Z" style="fill:#fff;"/><path d="M44.306,1.329l-0,56.314" style="fill:none;stroke:#fff;stroke-width:2px;"/></g><g><path d="M228.112,41.321c-0,-5.519 -4.481,-10 -10,-10l-100,0c-5.519,0 -10,4.481 -10,10l-0,60c-0,5.52 4.481,10 10,10l100,0c5.519,0 10,-4.48 10,-10l-0,-60Z" style="fill:#122546;fill-opacity:0.8;"/><path d="M228.112,41.321c-0,-5.519 -4.481,-10 -10,-10l-100,0c-5.519,0 -10,4.481 -10,10l-0,60c-0,5.52 4.481,10 10,10l100,0c5.519,0 10,-4.48 10,-10l-0,-60Zm-2,0l-0,60c-0,4.416 -3.585,8 -8,8l-100,0c-4.415,0 -8,-3.584 -8,-8l-0,-60c-0,-4.415 3.585,-8 8,-8l100,0c4.415,0 8,3.585 8,8Z" style="fill:#fff;"/><path d="M168.112,89.321l-0,20" style="fill:none;stroke:#fff;stroke-width:2px;"/></g></g></svg>