<?xml version="1.0" encoding="UTF-8" standalone="no"?><!DOCTYPE svg PUBLIC "-//W3C//DTD SVG 1.1//EN" "http://www.w3.org/Graphics/SVG/1.1/DTD/svg11.dtd"><svg width="130px" height="60px" version="1.1" xmlns="http://www.w3.org/2000/svg" xmlnsXlink="http://www.w3.org/1999/xlink" xmlSpace="preserve" xmlnsSerif="http://www.serif.com/" style="fill-rule:evenodd;clip-rule:evenodd;stroke-linejoin:round;stroke-miterlimit:2;"><g id="shift"><path d="M130,10c-0,-5.519 -4.481,-10 -10,-10l-110,0c-5.519,0 -10,4.481 -10,10l0,40c0,5.519 4.481,10 10,10l110,0c5.519,0 10,-4.481 10,-10l-0,-40Z" style="fill:#122546;fill-opacity:0.8;"/><path d="M130,10c-0,-5.519 -4.481,-10 -10,-10l-110,0c-5.519,0 -10,4.481 -10,10l0,40c0,5.519 4.481,10 10,10l110,-0c5.519,-0 10,-4.481 10,-10l-0,-40Zm-2,-0l-0,40c-0,4.415 -3.585,8 -8,8l-110,0c-4.415,0 -8,-3.585 -8,-8l-0,-40c-0,-4.415 3.585,-8 8,-8c0,0 110,0 110,0c4.415,0 8,3.585 8,8Z" style="fill:#fff;"/><g><path d="M40.596,38.209l-0,-2.871c0.258,0.234 0.564,0.445 0.92,0.633c0.355,0.187 0.732,0.345 1.13,0.474c0.399,0.129 0.797,0.229 1.196,0.299c0.398,0.07 0.765,0.106 1.101,0.106c1.172,-0 2.045,-0.196 2.619,-0.586c0.575,-0.391 0.862,-0.957 0.862,-1.7c-0,-0.398 -0.096,-0.744 -0.287,-1.037c-0.192,-0.293 -0.459,-0.56 -0.803,-0.802c-0.344,-0.243 -0.748,-0.475 -1.213,-0.698c-0.465,-0.222 -0.963,-0.455 -1.494,-0.697c-0.57,-0.305 -1.102,-0.613 -1.594,-0.926c-0.492,-0.312 -0.92,-0.658 -1.283,-1.037c-0.363,-0.379 -0.648,-0.806 -0.855,-1.283c-0.207,-0.477 -0.311,-1.035 -0.311,-1.676c-0,-0.789 0.178,-1.474 0.533,-2.056c0.356,-0.582 0.824,-1.063 1.406,-1.442c0.582,-0.379 1.245,-0.66 1.987,-0.844c0.742,-0.183 1.5,-0.275 2.273,-0.275c1.758,0 3.039,0.199 3.844,0.598l-0,2.754c-0.953,-0.688 -2.18,-1.032 -3.68,-1.032c-0.414,0 -0.826,0.039 -1.236,0.118c-0.41,0.078 -0.777,0.207 -1.102,0.386c-0.324,0.18 -0.588,0.41 -0.791,0.692c-0.203,0.281 -0.304,0.621 -0.304,1.019c-0,0.375 0.078,0.699 0.234,0.973c0.156,0.273 0.385,0.523 0.686,0.75c0.3,0.226 0.668,0.447 1.101,0.662c0.434,0.215 0.936,0.447 1.506,0.697c0.586,0.305 1.139,0.625 1.658,0.961c0.52,0.336 0.977,0.707 1.371,1.113c0.395,0.407 0.707,0.858 0.938,1.354c0.23,0.496 0.346,1.06 0.346,1.693c-0,0.852 -0.172,1.571 -0.516,2.157c-0.344,0.585 -0.807,1.062 -1.389,1.429c-0.582,0.367 -1.252,0.633 -2.01,0.797c-0.757,0.164 -1.558,0.246 -2.402,0.246c-0.281,0 -0.627,-0.021 -1.037,-0.064c-0.41,-0.043 -0.83,-0.106 -1.26,-0.188c-0.429,-0.082 -0.836,-0.181 -1.219,-0.299c-0.382,-0.117 -0.691,-0.25 -0.925,-0.398Z" style="fill:#fff;fill-rule:nonzero;"/><path d="M64.795,38.877l-2.719,-0l0,-6.563c0,-2.375 -0.793,-3.562 -2.379,-3.562c-0.797,-0 -1.468,0.344 -2.015,1.031c-0.547,0.688 -0.821,1.567 -0.821,2.637l0,6.457l-2.73,-0l-0,-17.766l2.73,0l0,7.758l0.047,0c0.906,-1.515 2.203,-2.273 3.891,-2.273c2.664,-0 3.996,1.629 3.996,4.886l-0,7.395Z" style="fill:#fff;fill-rule:nonzero;"/><path d="M69.471,24.357c-0.446,0 -0.826,-0.144 -1.143,-0.433c-0.316,-0.289 -0.474,-0.656 -0.474,-1.102c-0,-0.445 0.158,-0.816 0.474,-1.113c0.317,-0.297 0.697,-0.445 1.143,-0.445c0.461,-0 0.851,0.148 1.172,0.445c0.32,0.297 0.48,0.668 0.48,1.113c0,0.422 -0.16,0.783 -0.48,1.084c-0.321,0.301 -0.711,0.451 -1.172,0.451Zm1.347,14.52l-2.718,-0l-0,-12l2.718,-0l0,12Z" style="fill:#fff;fill-rule:nonzero;"/><path d="M81.154,23.326c-0.367,-0.211 -0.785,-0.316 -1.254,-0.316c-1.32,-0 -1.98,0.746 -1.98,2.238l-0,1.629l2.789,-0l-0,2.133l-2.777,-0l-0,9.867l-2.719,-0l-0,-9.867l-2.051,-0l0,-2.133l2.051,-0l-0,-1.945c-0,-1.266 0.414,-2.264 1.242,-2.995c0.828,-0.73 1.863,-1.095 3.106,-1.095c0.671,-0 1.203,0.074 1.593,0.222l0,2.262Z" style="fill:#fff;fill-rule:nonzero;"/><path d="M89.416,38.748c-0.531,0.266 -1.23,0.398 -2.098,0.398c-2.328,0 -3.492,-1.117 -3.492,-3.351l0,-6.785l-2.004,-0l0,-2.133l2.004,-0l0,-2.777l2.719,-0.774l-0,3.551l2.871,-0l0,2.133l-2.871,-0l-0,6c-0,0.711 0.129,1.219 0.387,1.523c0.257,0.305 0.687,0.457 1.289,0.457c0.461,0 0.859,-0.133 1.195,-0.398l0,2.156Z" style="fill:#fff;fill-rule:nonzero;"/></g></g></svg>