<?xml version="1.0" encoding="UTF-8" standalone="no"?><!DOCTYPE svg PUBLIC "-//W3C//DTD SVG 1.1//EN" "http://www.w3.org/Graphics/SVG/1.1/DTD/svg11.dtd"><svg width="240px" height="60px" version="1.1" xmlns="http://www.w3.org/2000/svg" xmlnsXlink="http://www.w3.org/1999/xlink" xmlSpace="preserve" xmlnsSerif="http://www.serif.com/" style="fill-rule:evenodd;clip-rule:evenodd;stroke-linejoin:round;stroke-miterlimit:2;"><g id="space"><path d="M240,10c0,-5.519 -4.481,-10 -10,-10l-220,0c-5.519,0 -10,4.481 -10,10l0,40c0,5.519 4.481,10 10,10l220,0c5.519,0 10,-4.481 10,-10l0,-40Z" style="fill:#122546;fill-opacity:0.8;"/><path d="M240,10c0,-5.519 -4.481,-10 -10,-10l-220,0c-5.519,0 -10,4.481 -10,10l0,40c0,5.519 4.481,10 10,10l220,0c5.519,0 10,-4.481 10,-10l0,-40Zm-2,-0l0,40c0,4.415 -3.585,8 -8,8l-220,0c-4.415,0 -8,-3.585 -8,-8l0,-40c0,-4.415 3.585,-8 8,-8l220,0c4.415,0 8,3.585 8,8Z" style="fill:#fff;"/><g><path d="M89.162,35.115l0,-2.871c0.258,0.235 0.565,0.445 0.92,0.633c0.356,0.187 0.732,0.346 1.131,0.475c0.398,0.128 0.797,0.228 1.195,0.298c0.399,0.071 0.766,0.106 1.102,0.106c1.172,-0 2.045,-0.195 2.619,-0.586c0.574,-0.391 0.861,-0.957 0.861,-1.699c0,-0.399 -0.095,-0.744 -0.287,-1.037c-0.191,-0.293 -0.459,-0.561 -0.803,-0.803c-0.343,-0.242 -0.748,-0.475 -1.212,-0.697c-0.465,-0.223 -0.963,-0.455 -1.495,-0.698c-0.57,-0.304 -1.101,-0.613 -1.593,-0.925c-0.493,-0.313 -0.92,-0.659 -1.284,-1.038c-0.363,-0.378 -0.648,-0.806 -0.855,-1.283c-0.207,-0.476 -0.311,-1.035 -0.311,-1.676c0,-0.789 0.178,-1.474 0.534,-2.056c0.355,-0.582 0.824,-1.063 1.406,-1.442c0.582,-0.379 1.244,-0.66 1.986,-0.843c0.742,-0.184 1.5,-0.276 2.274,-0.276c1.757,0 3.039,0.199 3.843,0.598l0,2.754c-0.953,-0.688 -2.179,-1.031 -3.679,-1.031c-0.414,-0 -0.826,0.039 -1.237,0.117c-0.41,0.078 -0.777,0.207 -1.101,0.386c-0.324,0.18 -0.588,0.411 -0.791,0.692c-0.203,0.281 -0.305,0.621 -0.305,1.019c0,0.375 0.078,0.7 0.234,0.973c0.157,0.274 0.385,0.524 0.686,0.75c0.301,0.227 0.668,0.447 1.102,0.662c0.433,0.215 0.935,0.447 1.505,0.697c0.586,0.305 1.139,0.625 1.659,0.961c0.519,0.336 0.976,0.707 1.371,1.114c0.394,0.406 0.707,0.857 0.937,1.353c0.231,0.496 0.346,1.061 0.346,1.694c-0,0.851 -0.172,1.57 -0.516,2.156c-0.343,0.586 -0.806,1.062 -1.388,1.429c-0.582,0.368 -1.252,0.633 -2.01,0.797c-0.758,0.164 -1.559,0.246 -2.402,0.246c-0.282,0 -0.627,-0.021 -1.038,-0.064c-0.41,-0.043 -0.83,-0.105 -1.259,-0.188c-0.43,-0.082 -0.836,-0.181 -1.219,-0.298c-0.383,-0.118 -0.692,-0.25 -0.926,-0.399Z" style="fill:#fff;fill-rule:nonzero;"/><path d="M105.463,34.014l-0.047,-0l0,7.289l-2.719,-0l0,-17.52l2.719,0l0,2.11l0.047,-0c0.93,-1.594 2.289,-2.391 4.078,-2.391c1.523,-0 2.711,0.535 3.563,1.605c0.851,1.071 1.277,2.508 1.277,4.313c-0,2 -0.481,3.601 -1.442,4.805c-0.96,1.203 -2.273,1.804 -3.937,1.804c-1.531,0 -2.711,-0.672 -3.539,-2.015Zm-0.07,-4.735l-0,1.489c-0,0.875 0.279,1.617 0.837,2.226c0.559,0.61 1.268,0.914 2.127,0.914c1.008,0 1.799,-0.392 2.373,-1.178c0.575,-0.785 0.862,-1.88 0.862,-3.287c-0,-1.179 -0.268,-2.103 -0.803,-2.771c-0.535,-0.668 -1.26,-1.002 -2.174,-1.002c-0.969,-0 -1.748,0.344 -2.338,1.031c-0.589,0.688 -0.884,1.547 -0.884,2.578Z" style="fill:#fff;fill-rule:nonzero;"/><path d="M126.088,35.783l-2.637,0l0,-1.875l-0.047,0c-0.828,1.438 -2.043,2.156 -3.644,2.156c-1.18,0 -2.104,-0.32 -2.772,-0.96c-0.668,-0.641 -1.002,-1.489 -1.002,-2.543c0,-2.266 1.305,-3.586 3.914,-3.961l3.563,-0.504c-0,-1.711 -0.813,-2.567 -2.438,-2.567c-1.429,0 -2.718,0.492 -3.867,1.477l0,-2.379c1.266,-0.75 2.727,-1.125 4.383,-1.125c3.031,-0 4.547,1.492 4.547,4.477l-0,7.804Zm-2.625,-5.894l-2.52,0.351c-0.781,0.102 -1.369,0.291 -1.763,0.569c-0.395,0.277 -0.592,0.763 -0.592,1.459c-0,0.507 0.182,0.923 0.545,1.248c0.363,0.324 0.849,0.486 1.459,0.486c0.828,-0 1.513,-0.291 2.056,-0.873c0.543,-0.582 0.815,-1.315 0.815,-2.197l-0,-1.043Z" style="fill:#fff;fill-rule:nonzero;"/><path d="M137.994,35.232c-0.961,0.555 -2.098,0.832 -3.41,0.832c-1.781,0 -3.219,-0.556 -4.313,-1.669c-1.093,-1.114 -1.64,-2.557 -1.64,-4.331c-0,-1.976 0.588,-3.564 1.764,-4.763c1.175,-1.199 2.748,-1.799 4.716,-1.799c1.094,-0 2.059,0.191 2.895,0.574l-0,2.531c-0.836,-0.625 -1.727,-0.937 -2.672,-0.937c-1.148,-0 -2.09,0.389 -2.824,1.166c-0.735,0.777 -1.102,1.795 -1.102,3.053c0,1.242 0.346,2.222 1.037,2.941c0.692,0.719 1.619,1.078 2.784,1.078c0.976,0 1.898,-0.347 2.765,-1.043l0,2.367Z" style="fill:#fff;fill-rule:nonzero;"/><path d="M150.85,30.521l-8.18,0c0.031,1.11 0.373,1.965 1.025,2.567c0.653,0.601 1.549,0.902 2.69,0.902c1.281,0 2.457,-0.383 3.527,-1.148l0,2.191c-1.094,0.688 -2.539,1.031 -4.336,1.031c-1.765,0 -3.15,-0.544 -4.154,-1.634c-1.004,-1.09 -1.506,-2.623 -1.506,-4.6c0,-1.867 0.553,-3.389 1.658,-4.564c1.106,-1.176 2.479,-1.764 4.119,-1.764c1.641,-0 2.911,0.527 3.809,1.582c0.898,1.055 1.348,2.52 1.348,4.395l-0,1.042Zm-2.625,-1.921c-0.008,-0.977 -0.239,-1.737 -0.692,-2.28c-0.453,-0.543 -1.078,-0.814 -1.875,-0.814c-0.781,-0 -1.443,0.285 -1.986,0.855c-0.543,0.571 -0.877,1.317 -1.002,2.239l5.555,-0Z" style="fill:#fff;fill-rule:nonzero;"/></g></g></svg>