<?xml version="1.0" encoding="UTF-8" standalone="no"?><!DOCTYPE svg PUBLIC "-//W3C//DTD SVG 1.1//EN" "http://www.w3.org/Graphics/SVG/1.1/DTD/svg11.dtd"><svg width="202px" height="125px" version="1.1" xmlns="http://www.w3.org/2000/svg" xmlnsXlink="http://www.w3.org/1999/xlink" xmlSpace="preserve" xmlnsSerif="http://www.serif.com/" style="fill-rule:evenodd;clip-rule:evenodd;stroke-linejoin:round;stroke-miterlimit:2;"><g id="wasdqe"><g id="Q"><path d="M60,10c0,-5.519 -4.481,-10 -10,-10l-40,0c-5.519,0 -10,4.481 -10,10l0,40c0,5.519 4.481,10 10,10l40,0c5.519,0 10,-4.481 10,-10l0,-40Z" style="fill:#122546;fill-opacity:0.8;"/><path d="M60,10c-0,-5.519 -4.481,-10 -10,-10l-40,0c-5.519,0 -10,4.481 -10,10l-0,40c-0,5.519 4.481,10 10,10l40,-0c5.519,-0 10,-4.481 10,-10l-0,-40Zm-2,0l0,40c0,4.415 -3.585,8 -8,8c-0,0 -40,0 -40,0c-4.415,0 -8,-3.585 -8,-8l-0,-40c-0,-4.415 3.585,-8 8,-8c0,-0 40,-0 40,-0c4.415,-0 8,3.585 8,8Z" style="fill:#fff;"/><path d="M29.086,37.693c-1.211,0 -2.309,-0.207 -3.293,-0.621c-0.984,-0.414 -1.824,-0.994 -2.52,-1.74c-0.695,-0.746 -1.234,-1.639 -1.617,-2.678c-0.383,-1.039 -0.574,-2.187 -0.574,-3.445c0,-1.344 0.193,-2.563 0.58,-3.656c0.387,-1.094 0.938,-2.028 1.652,-2.801c0.715,-0.773 1.584,-1.371 2.608,-1.793c1.023,-0.422 2.168,-0.633 3.433,-0.633c1.172,0 2.243,0.207 3.211,0.621c0.969,0.414 1.797,0.994 2.485,1.741c0.687,0.746 1.22,1.638 1.599,2.677c0.379,1.039 0.569,2.184 0.569,3.434c-0,1.656 -0.278,3.107 -0.832,4.353c-0.555,1.246 -1.336,2.248 -2.344,3.006l4.875,3.516l-4.242,-0l-3,-2.332c-0.399,0.109 -0.813,0.195 -1.242,0.258c-0.43,0.062 -0.879,0.093 -1.348,0.093Zm0.129,-14.918c-0.766,0 -1.467,0.151 -2.104,0.452c-0.636,0.3 -1.185,0.726 -1.646,1.277c-0.461,0.551 -0.819,1.209 -1.072,1.975c-0.254,0.765 -0.381,1.617 -0.381,2.554c-0,0.93 0.123,1.778 0.369,2.543c0.246,0.766 0.592,1.42 1.037,1.963c0.445,0.543 0.98,0.965 1.605,1.266c0.625,0.3 1.317,0.451 2.075,0.451c0.804,-0 1.527,-0.141 2.168,-0.422c0.64,-0.281 1.185,-0.686 1.634,-1.213c0.45,-0.527 0.795,-1.174 1.038,-1.939c0.242,-0.766 0.363,-1.637 0.363,-2.614c-0,-1 -0.117,-1.89 -0.352,-2.672c-0.234,-0.781 -0.57,-1.439 -1.008,-1.974c-0.437,-0.535 -0.97,-0.943 -1.599,-1.225c-0.629,-0.281 -1.338,-0.422 -2.127,-0.422Z" style="fill:#fff;fill-rule:nonzero;"/></g><g id="W"><path d="M125,10c0,-5.519 -4.481,-10 -10,-10l-40,0c-5.519,0 -10,4.481 -10,10l0,40c0,5.519 4.481,10 10,10l40,0c5.519,0 10,-4.481 10,-10l0,-40Z" style="fill:#122546;fill-opacity:0.8;"/><path d="M125,10c-0,-5.519 -4.481,-10 -10,-10l-40,0c-5.519,0 -10,4.481 -10,10l-0,40c-0,5.519 4.481,10 10,10l40,-0c5.519,-0 10,-4.481 10,-10l-0,-40Zm-2,0l-0,40c-0,4.415 -3.585,8 -8,8c-0,0 -40,0 -40,0c-4.415,0 -8,-3.585 -8,-8l-0,-40c-0,-4.415 3.585,-8 8,-8c0,-0 40,-0 40,-0c4.415,-0 8,3.585 8,8Z" style="fill:#fff;"/><path d="M106.332,21.598l-4.605,16.804l-3.153,0l-3.199,-11.754c-0.133,-0.5 -0.215,-1.046 -0.246,-1.64l-0.047,-0c-0.039,0.554 -0.133,1.094 -0.281,1.617l-3.211,11.777l-3.223,0l-4.699,-16.804l3.059,-0l3.046,12.304c0.125,0.516 0.204,1.055 0.235,1.618l0.058,-0c0.032,-0.399 0.141,-0.938 0.329,-1.618l3.445,-12.304l2.871,-0l3.187,12.398c0.11,0.422 0.192,0.922 0.247,1.5l0.046,0c0.024,-0.391 0.114,-0.906 0.27,-1.547l2.988,-12.351l2.883,-0Z" style="fill:#fff;fill-rule:nonzero;"/></g><g id="E"><path d="M189.807,10c-0,-5.519 -4.481,-10 -10,-10l-40,0c-5.52,0 -10,4.481 -10,10l-0,40c-0,5.519 4.48,10 10,10l40,0c5.519,0 10,-4.481 10,-10l-0,-40Z" style="fill:#122546;fill-opacity:0.8;"/><path d="M189.807,10c-0,-5.519 -4.481,-10 -10,-10l-40,0c-5.52,0 -10,4.481 -10,10l-0,40c-0,5.519 4.48,10 10,10l40,-0c5.519,-0 10,-4.481 10,-10l-0,-40Zm-2,0l-0,40c-0,4.415 -3.585,8 -8,8c-0,0 -40,0 -40,0c-4.416,0 -8,-3.585 -8,-8c-0,-0 -0,-40 -0,-40c-0,-4.415 3.584,-8 8,-8c-0,-0 40,-0 40,-0c4.415,-0 8,3.585 8,8Z" style="fill:#fff;"/><path d="M164.523,38.402l-9.433,0l-0,-16.804l9.058,-0l0,2.367l-6.269,-0l-0,4.758l5.777,-0l0,2.355l-5.777,0l-0,4.969l6.644,-0l0,2.355Z" style="fill:#fff;fill-rule:nonzero;"/></g><g id="A"><path d="M72,75c0,-5.519 -4.481,-10 -10,-10l-40,0c-5.519,0 -10,4.481 -10,10l0,40c0,5.519 4.481,10 10,10l40,0c5.519,0 10,-4.481 10,-10l0,-40Z" style="fill:#122546;fill-opacity:0.8;"/><path d="M72,75c0,-5.519 -4.481,-10 -10,-10l-40,0c-5.519,0 -10,4.481 -10,10l0,40c0,5.519 4.481,10 10,10l40,-0c5.519,-0 10,-4.481 10,-10l0,-40Zm-2,0l-0,40c-0,4.415 -3.585,8 -8,8c-0,0 -40,0 -40,0c-4.415,0 -8,-3.585 -8,-8l0,-40c0,-4.415 3.585,-8 8,-8l40,0c4.415,0 8,3.585 8,8Z" style="fill:#fff;"/><path d="M49.84,103.402l-3.059,0l-1.511,-4.277l-6.61,0l-1.453,4.277l-3.047,0l6.293,-16.804l3.141,-0l6.246,16.804Zm-5.309,-6.55l-2.332,-6.704c-0.07,-0.218 -0.144,-0.57 -0.222,-1.054l-0.047,-0c-0.071,0.445 -0.149,0.797 -0.235,1.054l-2.308,6.704l5.144,-0Z" style="fill:#fff;fill-rule:nonzero;"/></g><g id="S"><path d="M137,75c0,-5.519 -4.481,-10 -10,-10l-40,0c-5.519,0 -10,4.481 -10,10l0,40c0,5.519 4.481,10 10,10l40,0c5.519,0 10,-4.481 10,-10l0,-40Z" style="fill:#122546;fill-opacity:0.8;"/><path d="M137,75c-0,-5.519 -4.481,-10 -10,-10l-40,0c-5.519,0 -10,4.481 -10,10l0,40c0,5.519 4.481,10 10,10l40,-0c5.519,-0 10,-4.481 10,-10l-0,-40Zm-2,0l0,40c0,4.415 -3.585,8 -8,8c-0,0 -40,0 -40,0c-4.415,0 -8,-3.585 -8,-8l-0,-40c-0,-4.415 3.585,-8 8,-8l40,0c4.415,0 8,3.585 8,8Z" style="fill:#fff;"/><path d="M101.627,102.734l-0,-2.871c0.258,0.235 0.564,0.446 0.92,0.633c0.355,0.188 0.732,0.346 1.131,0.475c0.398,0.129 0.797,0.228 1.195,0.299c0.398,0.07 0.766,0.105 1.102,0.105c1.171,-0 2.045,-0.195 2.619,-0.586c0.574,-0.391 0.861,-0.957 0.861,-1.699c0,-0.399 -0.096,-0.744 -0.287,-1.037c-0.191,-0.293 -0.459,-0.561 -0.803,-0.803c-0.344,-0.242 -0.748,-0.475 -1.213,-0.697c-0.464,-0.223 -0.963,-0.455 -1.494,-0.698c-0.57,-0.304 -1.101,-0.613 -1.594,-0.925c-0.492,-0.313 -0.919,-0.659 -1.283,-1.037c-0.363,-0.379 -0.648,-0.807 -0.855,-1.284c-0.207,-0.476 -0.311,-1.035 -0.311,-1.675c0,-0.789 0.178,-1.475 0.533,-2.057c0.356,-0.582 0.825,-1.063 1.407,-1.441c0.582,-0.379 1.244,-0.661 1.986,-0.844c0.742,-0.184 1.5,-0.276 2.273,-0.276c1.758,0 3.04,0.2 3.844,0.598l0,2.754c-0.953,-0.688 -2.179,-1.031 -3.679,-1.031c-0.415,-0 -0.827,0.039 -1.237,0.117c-0.41,0.078 -0.777,0.207 -1.101,0.387c-0.325,0.179 -0.588,0.41 -0.791,0.691c-0.204,0.281 -0.305,0.621 -0.305,1.02c-0,0.375 0.078,0.699 0.234,0.972c0.157,0.274 0.385,0.524 0.686,0.75c0.301,0.227 0.668,0.447 1.101,0.662c0.434,0.215 0.936,0.448 1.506,0.698c0.586,0.304 1.139,0.625 1.658,0.961c0.52,0.335 0.977,0.707 1.372,1.113c0.394,0.406 0.707,0.857 0.937,1.353c0.231,0.496 0.346,1.061 0.346,1.694c-0,0.851 -0.172,1.57 -0.516,2.156c-0.344,0.586 -0.806,1.062 -1.389,1.43c-0.582,0.367 -1.251,0.632 -2.009,0.796c-0.758,0.165 -1.559,0.247 -2.403,0.247c-0.281,-0 -0.627,-0.022 -1.037,-0.065c-0.41,-0.043 -0.83,-0.105 -1.26,-0.187c-0.429,-0.082 -0.835,-0.182 -1.218,-0.299c-0.383,-0.117 -0.692,-0.25 -0.926,-0.399Z" style="fill:#fff;fill-rule:nonzero;"/></g><g id="D"><path d="M202,75c0,-5.519 -4.481,-10 -10,-10l-40,0c-5.519,0 -10,4.481 -10,10l0,40c0,5.519 4.481,10 10,10l40,0c5.519,0 10,-4.481 10,-10l0,-40Z" style="fill:#122546;fill-opacity:0.8;"/><path d="M202,75c-0,-5.519 -4.481,-10 -10,-10l-40,0c-5.519,0 -10,4.481 -10,10l-0,40c-0,5.519 4.481,10 10,10l40,-0c5.519,-0 10,-4.481 10,-10l-0,-40Zm-2,0l-0,40c-0,4.415 -3.585,8 -8,8c-0,0 -40,0 -40,0c-4.415,0 -8,-3.585 -8,-8c-0,-0 -0,-40 -0,-40c-0,-4.415 3.585,-8 8,-8l40,0c4.415,0 8,3.585 8,8Z" style="fill:#fff;"/><path d="M164.928,103.402l-0,-16.804l4.851,-0c6.196,-0 9.293,2.73 9.293,8.191c0,2.594 -0.859,4.678 -2.578,6.252c-1.719,1.574 -4.023,2.361 -6.914,2.361l-4.652,0Zm2.777,-14.437l0,12.082l2.227,-0c1.961,-0 3.486,-0.539 4.576,-1.617c1.09,-1.078 1.635,-2.602 1.635,-4.571c-0,-3.929 -2.036,-5.894 -6.106,-5.894l-2.332,-0Z" style="fill:#fff;fill-rule:nonzero;"/></g></g></svg>