<svg xmlns:xlink="http://www.w3.org/1999/xlink" width="256" xmlns="http://www.w3.org/2000/svg" height="256" id="screenshot-1654e850-b3d3-80ca-8001-aec55f191b30" viewBox="-0 -0 256 256" style="-webkit-print-color-adjust: exact;" fill="none" version="1.1"><g id="shape-1654e850-b3d3-80ca-8001-aec55f191b30"><defs><clipPath id="frame-clip-1654e850-b3d3-80ca-8001-aec55f191b30-d14d460f-4e1c-80d4-8001-aec7f0dc21d2" class="frame-clip"><rect rx="0" ry="0" x="0" y="0" width="255.99998321721614" height="255.9996261421602" transform="matrix(1,-0.000001,0,1,0.000008,0.000187)" style="opacity: 1; fill: rgb(0, 0, 0); fill-opacity: 1;"/></clipPath></defs><g clip-path="url(#frame-clip-1654e850-b3d3-80ca-8001-aec55f191b30-d14d460f-4e1c-80d4-8001-aec7f0dc21d2)"><clipPath id="frame-clip-1654e850-b3d3-80ca-8001-aec55f191b30-d14d460f-4e1c-80d4-8001-aec7f0dc21d2" class="frame-clip"><rect rx="0" ry="0" x="0" y="0" width="255.99998321721614" height="255.9996261421602" transform="matrix(1,-0.000001,0,1,0.000008,0.000187)" style="opacity: 1; fill: rgb(0, 0, 0); fill-opacity: 1;"/></clipPath><g id="fills-1654e850-b3d3-80ca-8001-aec55f191b30"><rect width="255.99998321721614" height="255.9996261421602" class="frame-background" x="0" transform="matrix(1,-0.000001,0,1,0.000008,0.000187)" style="opacity: 1; fill: rgb(0, 0, 0); fill-opacity: 1;" ry="0" rx="0" y="0"/></g><g class="frame-children"><g id="shape-1654e850-b3d3-80ca-8001-aec55f191b31"><g id="fills-1654e850-b3d3-80ca-8001-aec55f191b31"><path rx="0" ry="0" d="M103.666,59.116L103.666,49.969L123.744,49.969L172.409,1L123.744,1L75.075,49.969L55,49.969L55,98.942L103.666,98.942L103.666,125.54L69.252,160.167L103.666,194.795L103.666,157.058L132.163,185.734L97.761,220.351L132.175,254.978L200.983,254.978L201,255L201,157.058L103.666,59.116ZZ" style="opacity: 1; fill: rgb(75, 255, 244); fill-opacity: 1;"/></g></g></g></g></g></svg>