<svg width="180" height="180" xmlns="http://www.w3.org/2000/svg"><g fill="#FFF" fill-rule="nonzero"><path d="M90.024 178.828c-11.8 0-23.264-2.294-34.075-6.818a88.975 88.975 0 01-14.91-7.991 90.24 90.24 0 01-13.056-10.575l-.742-.726 18.644-18.645.09.09.033-.034.68.658c5.71 5.525 12.289 9.858 19.552 12.879 7.551 3.14 15.553 4.733 23.784 4.733 8.427 0 16.602-1.65 24.298-4.907a62.427 62.427 0 0010.604-5.756 62.865 62.865 0 009.238-7.622 62.868 62.868 0 007.621-9.238 62.436 62.436 0 005.755-10.605c3.255-7.697 4.906-15.872 4.906-24.3a62.5 62.5 0 00-2.032-15.835 62.302 62.302 0 00-5.336-13.592l19.296-19.235c9.492 14.473 14.501 31.268 14.501 48.663 0 6.03-.607 12.055-1.805 17.909a88.404 88.404 0 01-5.177 16.678 88.86 88.86 0 01-8.192 15.093 89.495 89.495 0 01-10.85 13.151 89.496 89.496 0 01-13.15 10.85 88.856 88.856 0 01-15.093 8.193 88.394 88.394 0 01-16.677 5.177 89.51 89.51 0 01-17.907 1.805zm-75.347-41.785c-8.84-14.117-13.505-30.361-13.505-47.071 0-6.029.607-12.053 1.805-17.906A88.387 88.387 0 018.154 55.39 88.853 88.853 0 0116.346 40.3a89.497 89.497 0 0110.85-13.15 89.5 89.5 0 0113.15-10.85A88.86 88.86 0 0155.44 8.107 88.396 88.396 0 0172.116 2.93a89.512 89.512 0 0117.908-1.805c11.799 0 23.263 2.293 34.074 6.815a88.976 88.976 0 0114.91 7.988A90.226 90.226 0 01152.065 26.5l.69.675-18.642 18.642-.037-.038-.038.038-.679-.656c-5.711-5.524-12.29-9.857-19.554-12.876-7.551-3.14-15.552-4.73-23.78-4.73-8.426 0-16.601 1.65-24.297 4.905a62.433 62.433 0 00-10.604 5.755 62.868 62.868 0 00-9.238 7.62 62.865 62.865 0 00-7.622 9.238 62.425 62.425 0 00-5.756 10.603c-3.255 7.696-4.906 15.87-4.906 24.296 0 5.112.623 10.2 1.853 15.124a62.255 62.255 0 004.859 13.03l-19.636 18.917z"/><path d="M90.024 2.25c-11.844 0-23.333 2.32-34.147 6.893a87.733 87.733 0 00-14.9 8.088 88.373 88.373 0 00-12.985 10.713A88.368 88.368 0 0017.278 40.93a87.725 87.725 0 00-8.088 14.9c-4.574 10.813-6.893 22.3-6.893 34.143 0 16.033 4.35 31.632 12.605 45.291l18.036-17.375a63.37 63.37 0 01-4.576-12.52 63.609 63.609 0 01-1.886-15.396c0-8.577 1.68-16.9 4.995-24.735a63.552 63.552 0 015.86-10.794 63.992 63.992 0 017.759-9.403 63.998 63.998 0 019.403-7.757 63.563 63.563 0 0110.795-5.86c7.836-3.313 16.158-4.994 24.736-4.994 8.377 0 16.523 1.62 24.211 4.817 7.345 3.053 14.002 7.425 19.788 12.993l.052-.052.038.038 17.041-17.041a89.095 89.095 0 00-12.768-10.319 87.85 87.85 0 00-14.722-7.887c-10.672-4.464-21.99-6.728-33.64-6.728m74.158 40.839L146.46 60.755a63.412 63.412 0 015.042 13.096 63.627 63.627 0 012.069 16.12c0 8.58-1.68 16.902-4.995 24.739a63.563 63.563 0 01-5.859 10.796 63.995 63.995 0 01-7.758 9.404 63.99 63.99 0 01-9.403 7.759 63.553 63.553 0 01-10.795 5.86c-7.836 3.314-16.16 4.995-24.737 4.995-8.38 0-16.527-1.622-24.216-4.82-7.345-3.054-14.002-7.427-19.787-12.997l-.047.046-.089-.089-17.044 17.044a89.112 89.112 0 0012.82 10.374 87.851 87.851 0 0014.722 7.89c10.673 4.466 21.991 6.73 33.64 6.73 11.844 0 23.333-2.318 34.147-6.892a87.728 87.728 0 0014.9-8.088 88.369 88.369 0 0012.985-10.714 88.37 88.37 0 0010.714-12.986 87.735 87.735 0 008.088-14.901c4.574-10.815 6.893-22.304 6.893-34.15 0-16.71-4.682-32.86-13.568-46.882M90.024 0c24.476 0 46.604 9.84 62.826 25.695L177.845.701l1.449 1.45-24.942 24.942.037.038L134.11 47.41l-.037-.038-86.602 86.607c11.026 10.669 25.992 17.295 42.553 17.295 33.855 0 61.297-27.446 61.297-61.302a61.052 61.052 0 00-7.634-29.63l20.863-20.796C174.3 53.932 180 71.284 180 89.972c0 49.696-40.284 89.98-89.976 89.98-24.477 0-46.605-9.844-62.827-25.704L1.45 180 0 178.546l25.695-25.696-.094-.09h.005l20.279-20.278.09.09 86.601-86.603c-11.03-10.668-25.996-17.29-42.552-17.29-33.852 0-61.298 27.442-61.298 61.293a61.013 61.013 0 006.97 28.382l-21.23 20.453C5.357 124.741.048 107.982.048 89.972.047 40.284 40.332 0 90.024 0z"/></g></svg>