<svg width="301" height="76" viewBox="0 0 301 76" fill="none" xmlns="http://www.w3.org/2000/svg">
<path d="M22.3398 0.303558H27.7247C35.364 0.303558 39.4636 3.75503 39.4636 9.95978C39.4636 15.8974 35.7523 19.6737 27.529 19.6737H22.3398V0.303558ZM27.7247 15.9429C33.0283 15.9429 35.2496 13.7755 35.2496 9.95068C35.2496 7.91683 34.455 6.20475 33.0223 5.19086C31.6708 4.22555 29.8407 4.01305 27.6916 4.01305H26.5568V15.9429H27.7247Z" fill="white"/>
<path d="M46.4738 10.9281L39.0752 0.303558H43.9815L46.3173 3.80663C47.0577 4.90552 47.8794 6.18957 48.6229 7.36435H48.6771C49.4206 6.18957 50.1821 4.98444 50.9828 3.77931L53.2914 0.303558H58.0382L50.6908 10.8856V19.6615H46.4768L46.4738 10.9281Z" fill="white"/>
<path d="M59.2577 14.3098C61.3285 15.6485 63.7727 16.2374 65.2776 16.2374C66.7826 16.2374 67.9535 15.6303 67.9535 14.1762C67.9535 12.3852 66.1475 12.2243 63.6854 11.4229C61.0336 10.5396 58.6466 9.22821 58.6466 5.8587C58.6466 2.24634 61.3556 0 65.383 0C67.4174 0.00310319 69.4238 0.47884 71.2465 1.3903V5.59156C69.2057 4.30751 66.8428 3.7186 65.3589 3.7186C63.9262 3.7186 62.8937 4.25287 62.8937 5.53996C62.8937 7.25203 64.6696 7.3856 66.9753 8.16271C69.8679 9.125 72.2006 10.488 72.2006 13.9121C72.2006 17.6823 69.3622 19.959 65.2265 19.959C63.1621 19.9462 61.1253 19.48 59.2577 18.593V14.3098Z" fill="white"/>
<path d="M74.5334 14.3098C76.6043 15.6485 79.0484 16.2374 80.5534 16.2374C82.0584 16.2374 83.2323 15.6303 83.2323 14.1762C83.2323 12.3852 81.4263 12.2243 78.9611 11.4229C76.3093 10.5396 73.9224 9.22821 73.9224 5.8587C73.9254 2.24634 76.6314 0 80.6678 0C82.7012 0.00356925 84.7065 0.479293 86.5282 1.3903V5.59156C84.4874 4.30751 82.1276 3.7186 80.6407 3.7186C79.2079 3.7186 78.1755 4.25287 78.1755 5.53996C78.1755 7.25203 79.9514 7.3856 82.26 8.16271C85.1496 9.125 87.4854 10.488 87.4854 13.9121C87.4854 17.6823 84.647 19.959 80.5082 19.959C78.4439 19.9462 76.4071 19.48 74.5394 18.593L74.5334 14.3098Z" fill="white"/>
<path d="M89.9441 0.303558H101.797V4.01305H94.1611V7.81058H100.738V11.341H94.1611V15.9429H102.089V19.6615H89.9441V0.303558Z" fill="white"/>
<path d="M110.126 10.9281L102.728 0.303558H107.634L109.967 3.80663C110.71 4.90552 111.532 6.18957 112.275 7.36435H112.327C113.07 6.18957 113.832 4.98444 114.635 3.77931L116.944 0.303558H121.691L114.343 10.8856V19.6615H110.129L110.126 10.9281Z" fill="white"/>
<path d="M19.0954 0.303558L19.2519 0.461409L0.15652 19.7314L0 19.5674L19.0954 0.303558Z" fill="white"/>
<path d="M19.0954 0.303558L19.2519 0.461409L0.15652 19.7314L0 19.5674L19.0954 0.303558Z" fill="white"/>
<path d="M3.08561 9.97799C3.085 8.65523 3.47639 7.36247 4.20955 6.26565C4.9427 5.16884 5.98416 4.31803 7.20023 3.82244C8.4163 3.32685 9.75149 3.20909 11.0344 3.48429C12.3173 3.7595 13.4894 4.41509 14.4002 5.36692L16.5764 3.17219C14.9032 1.44373 12.6528 0.403909 10.2621 0.254563C7.87149 0.105218 5.51109 0.857003 3.63912 2.36399C1.76714 3.87098 0.517143 6.02566 0.131752 8.40979C-0.25364 10.7939 0.253071 13.2374 1.55353 15.266L3.83209 13.053C3.34046 12.104 3.08432 11.0488 3.08561 9.97799V9.97799Z" fill="white"/>
<path d="M17.6689 4.51697L15.4295 6.76938C16.1962 8.17864 16.4296 9.82067 16.0863 11.3904C15.7431 12.9601 14.8465 14.3508 13.5632 15.3042C12.2799 16.2575 10.6971 16.7087 9.1088 16.5738C7.52053 16.4389 6.0348 15.7272 4.92762 14.5709L2.74838 16.7777C4.43386 18.5187 6.7042 19.5607 9.11295 19.6989C11.5217 19.8371 13.8946 19.0614 15.7649 17.5245C17.6353 15.9875 18.8678 13.8005 19.2202 11.3934C19.5725 8.98632 19.0192 6.5334 17.6689 4.51697V4.51697Z" fill="white"/>
<path d="M19.1764 56.8597L0.213409 37.7355V75.9991H6.47419V53.1229L19.1884 65.8937L38.2146 46.6146V37.7233L19.1764 56.8597Z" fill="white"/>
<path d="M102.81 56.8597L83.8318 37.7355V75.9991H90.0926V53.1229L102.81 65.8937L121.83 46.6146V37.7233L102.81 56.8597Z" fill="white"/>
<path d="M129.045 37.7233L135.366 44.1345H154.344V37.7233H129.045ZM135.366 53.7027V60.0775H154.344V53.7027H135.366ZM135.366 69.588L129.045 75.4709V75.9991H154.329V69.588H135.366Z" fill="white"/>
<path d="M161.549 37.7233V75.9991H167.87V53.0774L193.109 75.9991V66.3338L161.549 37.7233Z" fill="white"/>
<path d="M195.468 37.7203V44.1315H201.407H201.431V75.9961H207.788V44.1315H220.409V37.7203H195.468Z" fill="white"/>
<path d="M243.087 69.4574C242.556 69.5458 242.018 69.5895 241.48 69.588C240.239 69.5924 239.009 69.349 237.862 68.872C236.715 68.3949 235.673 67.6935 234.795 66.8083C233.918 65.9231 233.224 64.8715 232.751 63.7142C232.279 62.5569 232.038 61.3168 232.044 60.0653V37.7233H225.75V60.0653C225.738 62.1564 226.137 64.2291 226.924 66.164C227.71 68.0989 228.869 69.8576 230.332 71.3388C231.796 72.82 233.536 73.9943 235.452 74.7942C237.368 75.594 239.421 76.0036 241.495 75.9991C243.798 76.0236 246.077 75.5354 248.171 74.5694L243.087 69.4574Z" fill="white"/>
<path d="M66.4787 45.8375C64.102 44.3205 61.2985 43.6291 58.4958 43.8686C55.6931 44.1082 53.045 45.2656 50.9554 47.1643C48.8657 49.063 47.449 51.5989 46.9215 54.3852C46.394 57.1715 46.7845 60.0554 48.0335 62.597L43.4402 66.7831C41.1314 62.9862 40.2128 58.4943 40.8436 54.086C41.4744 49.6778 43.6148 45.631 46.8939 42.6475C50.1729 39.6639 54.3838 37.9315 58.7965 37.7507C63.2093 37.5698 67.5456 38.952 71.0539 41.6575L66.4787 45.8375Z" fill="white"/>
<path d="M78.5033 56.8172C78.5102 60.4302 77.499 63.9708 75.5874 67.0264C73.6758 70.0821 70.9426 72.527 67.7062 74.0763C64.4697 75.6255 60.8634 76.2154 57.3073 75.777C53.7513 75.3387 50.392 73.8903 47.6208 71.6005L52.1779 67.4539C54.3413 68.9993 56.9283 69.8269 59.5795 69.8217C61.8217 69.8213 64.0251 69.2313 65.9722 68.1099C67.9193 66.9884 69.5427 65.3743 70.6824 63.4269C71.822 61.4795 72.4384 59.266 72.4708 57.0049C72.5032 54.7438 71.9504 52.5133 70.8669 50.5335L75.406 46.3565C77.4311 49.4627 78.508 53.0998 78.5033 56.8172V56.8172Z" fill="white"/>
<path d="M282.037 56.8597L263.017 37.7355V46.6328L282.037 65.8997L294.739 53.1229V75.9931H301V37.7233L282.037 56.8597Z" fill="white"/>
<path d="M251.033 37.7233V60.0653C251.08 62.2832 250.322 64.4421 248.902 66.1365L253.393 70.6686C255.994 67.7698 257.405 63.983 257.342 60.0744V37.7324L251.033 37.7233Z" fill="white"/>
</svg>
