<svg width="122" height="80" viewBox="0 0 122 80" fill="none" xmlns="http://www.w3.org/2000/svg">
<g clip-path="url(#clip0)">
<g clip-path="url(#clip1)">
<path fill-rule="evenodd" clip-rule="evenodd" d="M80.0001 6.40011C80.0001 2.86764 77.1331 0 73.6023 0H48.0116C44.4804 0 41.6138 2.86764 41.6138 6.40011V32.0001C41.6138 35.5322 44.4804 38.3999 48.0116 38.3999H73.6023C77.1331 38.3999 80.0001 35.5322 80.0001 32.0001V6.40011Z" fill="url(#paint0_linear)" fill-opacity="0.2"/>
<path d="M73.6023 0.5C76.8568 0.5 79.5001 3.14363 79.5001 6.40011V32.0001C79.5001 35.2562 76.8568 37.8999 73.6023 37.8999H48.0116C44.7567 37.8999 42.1138 35.2562 42.1138 32.0001V6.40011C42.1138 3.14361 44.7567 0.5 48.0116 0.5H73.6023Z" stroke="url(#paint1_linear)" stroke-opacity="0.2"/>
<path fill-rule="evenodd" clip-rule="evenodd" d="M60.0368 19.206H56.9658L60.8044 11.5312L64.6431 19.206H61.5721V26.8808H60.0368V19.206Z" fill="url(#paint2_linear)" fill-opacity="0.2"/>
<path d="M60.5368 19.206V18.706H60.0368H57.7749L60.8044 12.649L63.8339 18.706H61.5721H61.0721V19.206V26.3808H60.5368V19.206Z" stroke="url(#paint3_linear)" stroke-opacity="0.2"/>
<path fill-rule="evenodd" clip-rule="evenodd" d="M60.0368 19.206H56.9658L60.8044 11.5312L64.6431 19.206H61.5721V26.8808H60.0368V19.206ZM60.071 17.2949C60.3313 17.2949 60.579 17.3342 60.8044 17.4487C61.0295 17.3342 61.2775 17.2949 61.5378 17.2949L60.8044 15.808L60.071 17.2949Z" fill="#05F2F2"/>
<path d="M60.5368 19.206V18.706H60.0368H57.7749L60.8044 12.649L63.8339 18.706H61.5721H61.0721V19.206V26.3808H60.5368V19.206ZM59.6226 17.0738L59.2669 17.7949H60.071C60.2829 17.7949 60.4455 17.8272 60.5779 17.8945L60.8046 18.0097L61.0312 17.8944C61.1631 17.8272 61.3258 17.7949 61.5378 17.7949H62.342L61.9863 17.0738L61.2529 15.5868L60.8044 14.6776L60.356 15.5868L59.6226 17.0738Z" stroke="url(#paint4_linear)" stroke-opacity="0.2"/>
<path fill-rule="evenodd" clip-rule="evenodd" d="M38.4527 48.0002C38.4527 44.4677 35.5857 41.6001 32.0549 41.6001H6.46419C2.933 41.6001 0.0664062 44.4677 0.0664062 48.0002V73.6003C0.0664062 77.1323 2.933 80 6.46419 80H32.0549C35.5857 80 38.4527 77.1323 38.4527 73.6003V48.0002Z" fill="url(#paint5_linear)" fill-opacity="0.2"/>
<path d="M32.0549 42.1001C35.3095 42.1001 37.9527 44.7437 37.9527 48.0002V73.6003C37.9527 76.8563 35.3095 79.5 32.0549 79.5H6.46419C3.2093 79.5 0.566406 76.8563 0.566406 73.6003V48.0002C0.566406 44.7437 3.20932 42.1001 6.46419 42.1001H32.0549Z" stroke="url(#paint6_linear)" stroke-opacity="0.2"/>
<path fill-rule="evenodd" clip-rule="evenodd" d="M19.2531 61.5685V64.6406L11.5811 60.8006L19.2531 56.9606V60.0327H26.9251V61.5685H19.2531Z" fill="url(#paint7_linear)" fill-opacity="0.2"/>
<path d="M19.2531 61.0685H18.7531V61.5685V63.8312L12.6982 60.8006L18.7531 57.77V60.0327V60.5327H19.2531H26.4251V61.0685H19.2531Z" stroke="url(#paint8_linear)" stroke-opacity="0.2"/>
<path fill-rule="evenodd" clip-rule="evenodd" d="M19.2531 61.5685V64.6406L11.5811 60.8006L19.2531 56.9606V60.0327H26.9251V61.5685H19.2531ZM15.8562 60.8006L17.3426 61.5343C17.3426 61.2739 17.3819 61.0261 17.4964 60.8006C17.3819 60.5754 17.3426 60.3273 17.3426 60.0669L15.8562 60.8006Z" fill="#05F2F2"/>
<path d="M19.2531 61.0685H18.7531V61.5685V63.8312L12.6982 60.8006L18.7531 57.77V60.0327V60.5327H19.2531H26.4251V61.0685H19.2531ZM15.6349 60.3522L14.7266 60.8006L15.6349 61.249L17.1213 61.9826L17.8426 62.3387V61.5343C17.8426 61.3222 17.8749 61.1595 17.9422 61.027L18.0573 60.8004L17.9421 60.5739C17.875 60.442 17.8426 60.2791 17.8426 60.0669V59.2626L17.1213 59.6186L15.6349 60.3522Z" stroke="url(#paint9_linear)" stroke-opacity="0.2"/>
<path fill-rule="evenodd" clip-rule="evenodd" d="M80.0001 48.0002C80.0001 44.4677 77.1331 41.6001 73.6023 41.6001H48.0116C44.4804 41.6001 41.6138 44.4677 41.6138 48.0002V73.6003C41.6138 77.1323 44.4804 80 48.0116 80H73.6023C77.1331 80 80.0001 77.1323 80.0001 73.6003V48.0002Z" fill="url(#paint10_linear)" fill-opacity="0.2"/>
<path d="M73.6023 42.1001C76.8568 42.1001 79.5001 44.7437 79.5001 48.0002V73.6003C79.5001 76.8563 76.8568 79.5 73.6023 79.5H48.0116C44.7567 79.5 42.1138 76.8563 42.1138 73.6003V48.0002C42.1138 44.7437 44.7567 42.1001 48.0116 42.1001H73.6023Z" stroke="url(#paint11_linear)" stroke-opacity="0.2"/>
<path fill-rule="evenodd" clip-rule="evenodd" d="M60.0368 60.7971H56.9658L60.8044 68.4719L64.6431 60.7971H61.5721V53.1223H60.0368V60.7971Z" fill="url(#paint12_linear)" fill-opacity="0.2"/>
<path d="M60.5368 60.7971V61.2971H60.0368H57.7749L60.8044 67.3542L63.8339 61.2971H61.5721H61.0721V60.7971V53.6223H60.5368V60.7971Z" stroke="url(#paint13_linear)" stroke-opacity="0.2"/>
<path fill-rule="evenodd" clip-rule="evenodd" d="M60.0368 60.7971H56.9658L60.8044 68.4719L64.6431 60.7971H61.5721V53.1223H60.0368V60.7971ZM60.8044 62.5544C60.5793 62.669 60.3313 62.7082 60.071 62.7082L60.8044 64.1952L61.5378 62.7082C61.2775 62.7082 61.0298 62.669 60.8044 62.5544Z" fill="#05F2F2"/>
<path d="M60.5368 60.7971V61.2971H60.0368H57.7749L60.8044 67.3542L63.8339 61.2971H61.5721H61.0721V60.7971V53.6223H60.5368V60.7971ZM60.5776 62.1088L60.8043 61.9935L61.031 62.1087C61.1634 62.176 61.3259 62.2082 61.5378 62.2082H62.342L61.9863 62.9294L61.2529 64.4164L60.8044 65.3255L60.356 64.4164L59.6226 62.9294L59.2669 62.2082H60.071C60.2831 62.2082 60.4458 62.1759 60.5776 62.1088Z" stroke="url(#paint14_linear)" stroke-opacity="0.2"/>
<path fill-rule="evenodd" clip-rule="evenodd" d="M121.666 48.0002C121.666 44.4677 118.799 41.6001 115.268 41.6001H89.6776C86.1464 41.6001 83.2798 44.4677 83.2798 48.0002V73.6003C83.2798 77.1323 86.1464 80 89.6776 80H115.268C118.799 80 121.666 77.1323 121.666 73.6003V48.0002Z" fill="url(#paint15_linear)" fill-opacity="0.2"/>
<path d="M115.268 42.1001C118.523 42.1001 121.166 44.7437 121.166 48.0002V73.6003C121.166 76.8563 118.523 79.5 115.268 79.5H89.6776C86.4227 79.5 83.7798 76.8563 83.7798 73.6003V48.0002C83.7798 44.7437 86.4227 42.1001 89.6776 42.1001H115.268Z" stroke="url(#paint16_linear)" stroke-opacity="0.2"/>
<path fill-rule="evenodd" clip-rule="evenodd" d="M102.436 60.0324V56.9603L110.108 60.8004L102.436 64.6404V61.5683H94.7639V60.0324H102.436Z" fill="url(#paint17_linear)" fill-opacity="0.2"/>
<path d="M102.436 60.5324H102.936V60.0324V57.7697L108.991 60.8004L102.936 63.831V61.5683V61.0683H102.436H95.2639V60.5324H102.436Z" stroke="url(#paint18_linear)" stroke-opacity="0.2"/>
<path fill-rule="evenodd" clip-rule="evenodd" d="M102.436 60.0324V56.9603L110.108 60.8004L102.436 64.6404V61.5683H94.7639V60.0324H102.436ZM104.346 60.0667C104.346 60.3271 104.307 60.5749 104.193 60.8004C104.307 61.0255 104.346 61.2736 104.346 61.534L105.833 60.8004L104.346 60.0667Z" fill="#05F2F2"/>
<path d="M102.436 60.5324H102.936V60.0324V57.7697L108.991 60.8004L102.936 63.831V61.5683V61.0683H102.436H95.2639V60.5324H102.436ZM104.568 59.6183L103.846 59.2623V60.0667C103.846 60.2787 103.814 60.4414 103.747 60.5739L103.632 60.8005L103.747 61.027C103.814 61.159 103.846 61.3218 103.846 61.534V62.3384L104.568 61.9824L106.054 61.2487L106.962 60.8004L106.054 60.352L104.568 59.6183Z" stroke="url(#paint19_linear)" stroke-opacity="0.2"/>
</g>
</g>
<defs>
<linearGradient id="paint0_linear" x1="41.6138" y1="0" x2="80.0136" y2="38.3863" gradientUnits="userSpaceOnUse">
<stop stop-color="#05F2F2"/>
<stop offset="1" stop-color="#07DB9F"/>
</linearGradient>
<linearGradient id="paint1_linear" x1="41.6138" y1="0" x2="80.0136" y2="38.3863" gradientUnits="userSpaceOnUse">
<stop stop-color="#05F2F2"/>
<stop offset="1" stop-color="#07DB9F"/>
</linearGradient>
<linearGradient id="paint2_linear" x1="64.6431" y1="11.5312" x2="52.361" y2="17.6743" gradientUnits="userSpaceOnUse">
<stop stop-color="#05F2F2"/>
<stop offset="1" stop-color="#07DB9F"/>
</linearGradient>
<linearGradient id="paint3_linear" x1="64.6431" y1="11.5312" x2="52.361" y2="17.6743" gradientUnits="userSpaceOnUse">
<stop stop-color="#05F2F2"/>
<stop offset="1" stop-color="#07DB9F"/>
</linearGradient>
<linearGradient id="paint4_linear" x1="64.6431" y1="11.5312" x2="52.361" y2="17.6743" gradientUnits="userSpaceOnUse">
<stop stop-color="#05F2F2"/>
<stop offset="1" stop-color="#07DB9F"/>
</linearGradient>
<linearGradient id="paint5_linear" x1="0.0664062" y1="41.6001" x2="38.4663" y2="79.9864" gradientUnits="userSpaceOnUse">
<stop stop-color="#05F2F2"/>
<stop offset="1" stop-color="#07DB9F"/>
</linearGradient>
<linearGradient id="paint6_linear" x1="0.0664062" y1="41.6001" x2="38.4663" y2="79.9864" gradientUnits="userSpaceOnUse">
<stop stop-color="#05F2F2"/>
<stop offset="1" stop-color="#07DB9F"/>
</linearGradient>
<linearGradient id="paint7_linear" x1="11.5811" y1="56.9606" x2="17.729" y2="69.2435" gradientUnits="userSpaceOnUse">
<stop stop-color="#05F2F2"/>
<stop offset="1" stop-color="#07DB9F"/>
</linearGradient>
<linearGradient id="paint8_linear" x1="11.5811" y1="56.9606" x2="17.729" y2="69.2435" gradientUnits="userSpaceOnUse">
<stop stop-color="#05F2F2"/>
<stop offset="1" stop-color="#07DB9F"/>
</linearGradient>
<linearGradient id="paint9_linear" x1="11.5811" y1="56.9606" x2="17.729" y2="69.2435" gradientUnits="userSpaceOnUse">
<stop stop-color="#05F2F2"/>
<stop offset="1" stop-color="#07DB9F"/>
</linearGradient>
<linearGradient id="paint10_linear" x1="41.6138" y1="41.6001" x2="80.0136" y2="79.9864" gradientUnits="userSpaceOnUse">
<stop stop-color="#05F2F2"/>
<stop offset="1" stop-color="#07DB9F"/>
</linearGradient>
<linearGradient id="paint11_linear" x1="41.6138" y1="41.6001" x2="80.0136" y2="79.9864" gradientUnits="userSpaceOnUse">
<stop stop-color="#05F2F2"/>
<stop offset="1" stop-color="#07DB9F"/>
</linearGradient>
<linearGradient id="paint12_linear" x1="64.6431" y1="68.4719" x2="52.361" y2="62.3289" gradientUnits="userSpaceOnUse">
<stop stop-color="#05F2F2"/>
<stop offset="1" stop-color="#07DB9F"/>
</linearGradient>
<linearGradient id="paint13_linear" x1="64.6431" y1="68.4719" x2="52.361" y2="62.3289" gradientUnits="userSpaceOnUse">
<stop stop-color="#05F2F2"/>
<stop offset="1" stop-color="#07DB9F"/>
</linearGradient>
<linearGradient id="paint14_linear" x1="64.6431" y1="68.4719" x2="52.361" y2="62.3289" gradientUnits="userSpaceOnUse">
<stop stop-color="#05F2F2"/>
<stop offset="1" stop-color="#07DB9F"/>
</linearGradient>
<linearGradient id="paint15_linear" x1="83.2798" y1="41.6001" x2="121.68" y2="79.9864" gradientUnits="userSpaceOnUse">
<stop stop-color="#05F2F2"/>
<stop offset="1" stop-color="#07DB9F"/>
</linearGradient>
<linearGradient id="paint16_linear" x1="83.2798" y1="41.6001" x2="121.68" y2="79.9864" gradientUnits="userSpaceOnUse">
<stop stop-color="#05F2F2"/>
<stop offset="1" stop-color="#07DB9F"/>
</linearGradient>
<linearGradient id="paint17_linear" x1="110.108" y1="64.6404" x2="103.96" y2="52.3574" gradientUnits="userSpaceOnUse">
<stop stop-color="#05F2F2"/>
<stop offset="1" stop-color="#07DB9F"/>
</linearGradient>
<linearGradient id="paint18_linear" x1="110.108" y1="64.6404" x2="103.96" y2="52.3574" gradientUnits="userSpaceOnUse">
<stop stop-color="#05F2F2"/>
<stop offset="1" stop-color="#07DB9F"/>
</linearGradient>
<linearGradient id="paint19_linear" x1="110.108" y1="64.6404" x2="103.96" y2="52.3574" gradientUnits="userSpaceOnUse">
<stop stop-color="#05F2F2"/>
<stop offset="1" stop-color="#07DB9F"/>
</linearGradient>
<clipPath id="clip0">
<rect width="121.6" height="80" fill="white" transform="translate(0.0664062)"/>
</clipPath>
<clipPath id="clip1">
<rect width="121.6" height="80" fill="white" transform="translate(0.0664062)"/>
</clipPath>
</defs>
</svg>
