<svg width="130" height="80" viewBox="0 0 130 80" fill="none" xmlns="http://www.w3.org/2000/svg">
<g clip-path="url(#clip0)">
<g clip-path="url(#clip1)">
<path fill-rule="evenodd" clip-rule="evenodd" d="M38.7809 6.40016C38.7809 2.86766 35.9134 0 32.3818 0H6.78582C3.25391 0 0.386719 2.86766 0.386719 6.40016V32.0004C0.386719 35.5325 3.25391 38.4002 6.78582 38.4002H32.3818C35.9134 38.4002 38.7809 35.5325 38.7809 32.0004V6.40016Z" fill="url(#paint0_linear)" fill-opacity="0.2"/>
<path d="M32.3818 0.5C35.6372 0.5 38.2809 3.14375 38.2809 6.40016V32.0004C38.2809 35.2564 35.6372 37.9002 32.3818 37.9002H6.78582C3.53011 37.9002 0.886719 35.2565 0.886719 32.0004V6.40016C0.886719 3.14373 3.53013 0.5 6.78582 0.5H32.3818Z" stroke="url(#paint1_linear)" stroke-opacity="0.2"/>
<path d="M20.8873 26.076H19.6993C19.2273 26.076 18.8793 25.956 18.6553 25.716C18.4393 25.476 18.3313 25.152 18.3313 24.744V24.108C17.8593 24.052 17.4353 23.916 17.0593 23.7C16.6833 23.484 16.3633 23.196 16.0993 22.836C15.8353 22.476 15.6313 22.044 15.4873 21.54C15.3433 21.028 15.2713 20.452 15.2713 19.812C15.2713 19.108 15.3553 18.488 15.5233 17.952C15.6993 17.408 15.9433 16.956 16.2553 16.596C16.5753 16.228 16.9553 15.952 17.3953 15.768C17.8433 15.576 18.3393 15.48 18.8833 15.48C19.4273 15.48 19.9193 15.576 20.3593 15.768C20.8073 15.952 21.1873 16.228 21.4993 16.596C21.8193 16.956 22.0633 17.408 22.2313 17.952C22.4073 18.488 22.4953 19.108 22.4953 19.812C22.4953 21.06 22.2353 22.048 21.7153 22.776C21.1953 23.496 20.4913 23.932 19.6033 24.084V24.948H20.8873V26.076ZM18.8833 22.932C19.2033 22.932 19.4953 22.876 19.7593 22.764C20.0313 22.652 20.2593 22.492 20.4433 22.284C20.6353 22.068 20.7833 21.808 20.8873 21.504C20.9913 21.2 21.0433 20.856 21.0433 20.472V19.152C21.0433 18.768 20.9913 18.424 20.8873 18.12C20.7833 17.816 20.6353 17.56 20.4433 17.352C20.2593 17.136 20.0313 16.972 19.7593 16.86C19.4953 16.748 19.2033 16.692 18.8833 16.692C18.5553 16.692 18.2593 16.748 17.9953 16.86C17.7313 16.972 17.5033 17.136 17.3113 17.352C17.1273 17.56 16.9833 17.816 16.8793 18.12C16.7753 18.424 16.7233 18.768 16.7233 19.152V20.472C16.7233 20.856 16.7753 21.2 16.8793 21.504C16.9833 21.808 17.1273 22.068 17.3113 22.284C17.5033 22.492 17.7313 22.652 17.9953 22.764C18.2593 22.876 18.5553 22.932 18.8833 22.932Z" fill="#05F2F2" fill-opacity="0.9"/>
<path fill-rule="evenodd" clip-rule="evenodd" d="M80.4372 6.40016C80.4372 2.86766 77.5696 0 74.0381 0H48.4421C44.9102 0 42.043 2.86766 42.043 6.40016V32.0004C42.043 35.5325 44.9102 38.4002 48.4421 38.4002H74.0381C77.5696 38.4002 80.4372 35.5325 80.4372 32.0004V6.40016Z" fill="url(#paint2_linear)" fill-opacity="0.2"/>
<path d="M74.0381 0.5C77.2934 0.5 79.9372 3.14375 79.9372 6.40016V32.0004C79.9372 35.2564 77.2935 37.9002 74.0381 37.9002H48.4421C45.1864 37.9002 42.543 35.2565 42.543 32.0004V6.40016C42.543 3.14373 45.1864 0.5 48.4421 0.5H74.0381Z" stroke="url(#paint3_linear)" stroke-opacity="0.2"/>
<path d="M58.0961 24L56.1161 15.624H57.4961L58.3481 19.656L58.9361 22.44H58.9721L59.6441 19.656L60.6401 15.624H62.1521L63.1361 19.656L63.7961 22.428H63.8321L64.4441 19.656L65.3201 15.624H66.6521L64.5881 24H63.0641L61.9961 19.668L61.3721 17.124H61.3481L60.7121 19.668L59.6201 24H58.0961Z" fill="#05F2F2" fill-opacity="0.9"/>
<path fill-rule="evenodd" clip-rule="evenodd" d="M121.841 6.40016C121.841 2.86766 118.974 0 115.442 0H89.8464C86.3145 0 83.4473 2.86766 83.4473 6.40016V32.0004C83.4473 35.5325 86.3145 38.4002 89.8464 38.4002H115.442C118.974 38.4002 121.841 35.5325 121.841 32.0004V6.40016Z" fill="url(#paint4_linear)" fill-opacity="0.2"/>
<path d="M115.442 0.5C118.698 0.5 121.341 3.14375 121.341 6.40016V32.0004C121.341 35.2564 118.698 37.9002 115.442 37.9002H89.8464C86.5907 37.9002 83.9473 35.2565 83.9473 32.0004V6.40016C83.9473 3.14373 86.5907 0.5 89.8464 0.5H115.442Z" stroke="url(#paint5_linear)" stroke-opacity="0.2"/>
<path d="M99.8601 24V15.624H105.224V16.824H101.216V19.152H104.852V20.352H101.216V22.8H105.224V24H99.8601Z" fill="#05F2F2" fill-opacity="0.9"/>
<path fill-rule="evenodd" clip-rule="evenodd" d="M46.4802 48C46.4802 44.4675 43.6126 41.5998 40.0811 41.5998H14.485C10.9531 41.5998 8.08594 44.4675 8.08594 48V73.6002C8.08594 77.1323 10.9531 80 14.485 80H40.0811C43.6126 80 46.4802 77.1323 46.4802 73.6002V48Z" fill="url(#paint6_linear)" fill-opacity="0.2"/>
<path d="M40.0811 42.0998C43.3364 42.0998 45.9802 44.7435 45.9802 48V73.6002C45.9802 76.8562 43.3364 79.5 40.0811 79.5H14.485C11.2293 79.5 8.58594 76.8563 8.58594 73.6002V48C8.58594 44.7435 11.2293 42.0998 14.485 42.0998H40.0811Z" stroke="url(#paint7_linear)" stroke-opacity="0.2"/>
<path d="M29.6742 66L28.9182 63.732H25.7862L25.0542 66H23.6742L26.5302 57.624H28.2342L31.0902 66H29.6742ZM27.3822 58.872H27.3222L26.1102 62.568H28.5822L27.3822 58.872Z" fill="#05F2F2" fill-opacity="0.9"/>
<path fill-rule="evenodd" clip-rule="evenodd" d="M88.0114 48C88.0114 44.4675 85.1438 41.5998 81.6123 41.5998H56.0163C52.4844 41.5998 49.6172 44.4675 49.6172 48V73.6002C49.6172 77.1323 52.4844 80 56.0163 80H81.6123C85.1438 80 88.0114 77.1323 88.0114 73.6002V48Z" fill="url(#paint8_linear)" fill-opacity="0.2"/>
<path d="M81.6123 42.0998C84.8676 42.0998 87.5114 44.7435 87.5114 48V73.6002C87.5114 76.8562 84.8677 79.5 81.6123 79.5H56.0163C52.7606 79.5 50.1172 76.8563 50.1172 73.6002V48C50.1172 44.7435 52.7606 42.0998 56.0163 42.0998H81.6123Z" stroke="url(#paint9_linear)" stroke-opacity="0.2"/>
<path d="M68.3369 66.144C67.6329 66.144 67.0329 66.016 66.5369 65.76C66.0489 65.504 65.6289 65.16 65.2769 64.728L66.2129 63.852C66.5089 64.212 66.8329 64.484 67.1849 64.668C67.5449 64.852 67.9529 64.944 68.4089 64.944C68.9449 64.944 69.3489 64.824 69.6209 64.584C69.8929 64.344 70.0289 64.02 70.0289 63.612C70.0289 63.284 69.9329 63.024 69.7409 62.832C69.5489 62.64 69.2089 62.496 68.7209 62.4L67.9769 62.268C67.1609 62.116 66.5489 61.848 66.1409 61.464C65.7329 61.08 65.5289 60.552 65.5289 59.88C65.5289 59.512 65.5969 59.18 65.7329 58.884C65.8769 58.58 66.0729 58.328 66.3209 58.128C66.5769 57.92 66.8849 57.76 67.2449 57.648C67.6049 57.536 68.0089 57.48 68.4569 57.48C69.0889 57.48 69.6369 57.592 70.1009 57.816C70.5649 58.032 70.9609 58.348 71.2889 58.764L70.3409 59.604C70.1249 59.324 69.8609 59.1 69.5489 58.932C69.2369 58.764 68.8489 58.68 68.3849 58.68C67.9049 58.68 67.5329 58.776 67.2689 58.968C67.0049 59.16 66.8729 59.44 66.8729 59.808C66.8729 60.16 66.9809 60.424 67.1969 60.6C67.4129 60.768 67.7489 60.896 68.2049 60.984L68.9489 61.14C69.7889 61.3 70.4009 61.572 70.7849 61.956C71.1769 62.34 71.3729 62.868 71.3729 63.54C71.3729 63.932 71.3049 64.288 71.1689 64.608C71.0329 64.928 70.8329 65.204 70.5689 65.436C70.3129 65.66 69.9969 65.836 69.6209 65.964C69.2449 66.084 68.8169 66.144 68.3369 66.144Z" fill="#05F2F2" fill-opacity="0.9"/>
<path fill-rule="evenodd" clip-rule="evenodd" d="M129.666 48C129.666 44.4675 126.798 41.5998 123.267 41.5998H97.6706C94.1387 41.5998 91.2715 44.4675 91.2715 48V73.6002C91.2715 77.1323 94.1387 80 97.6706 80H123.267C126.798 80 129.666 77.1323 129.666 73.6002V48Z" fill="url(#paint10_linear)" fill-opacity="0.2"/>
<path d="M123.267 42.0998C126.522 42.0998 129.166 44.7435 129.166 48V73.6002C129.166 76.8562 126.522 79.5 123.267 79.5H97.6706C94.4149 79.5 91.7715 76.8563 91.7715 73.6002V48C91.7715 44.7435 94.4149 42.0998 97.6706 42.0998H123.267Z" stroke="url(#paint11_linear)" stroke-opacity="0.2"/>
<path d="M106.819 57.624H109.783C110.319 57.624 110.803 57.712 111.235 57.888C111.675 58.064 112.047 58.328 112.351 58.68C112.663 59.024 112.903 59.46 113.071 59.988C113.239 60.508 113.323 61.116 113.323 61.812C113.323 62.508 113.239 63.12 113.071 63.648C112.903 64.168 112.663 64.604 112.351 64.956C112.047 65.3 111.675 65.56 111.235 65.736C110.803 65.912 110.319 66 109.783 66H106.819V57.624ZM109.783 64.8C110.407 64.8 110.911 64.604 111.295 64.212C111.679 63.82 111.871 63.244 111.871 62.484V61.14C111.871 60.38 111.679 59.804 111.295 59.412C110.911 59.02 110.407 58.824 109.783 58.824H108.175V64.8H109.783Z" fill="#05F2F2" fill-opacity="0.9"/>
</g>
</g>
<defs>
<linearGradient id="paint0_linear" x1="0.386719" y1="0" x2="38.7869" y2="38.3942" gradientUnits="userSpaceOnUse">
<stop stop-color="#05F2F2"/>
<stop offset="1" stop-color="#07DB9F"/>
</linearGradient>
<linearGradient id="paint1_linear" x1="0.386719" y1="0" x2="38.7869" y2="38.3942" gradientUnits="userSpaceOnUse">
<stop stop-color="#05F2F2"/>
<stop offset="1" stop-color="#07DB9F"/>
</linearGradient>
<linearGradient id="paint2_linear" x1="42.043" y1="0" x2="80.4432" y2="38.3942" gradientUnits="userSpaceOnUse">
<stop stop-color="#05F2F2"/>
<stop offset="1" stop-color="#07DB9F"/>
</linearGradient>
<linearGradient id="paint3_linear" x1="42.043" y1="0" x2="80.4432" y2="38.3942" gradientUnits="userSpaceOnUse">
<stop stop-color="#05F2F2"/>
<stop offset="1" stop-color="#07DB9F"/>
</linearGradient>
<linearGradient id="paint4_linear" x1="83.4473" y1="0" x2="121.847" y2="38.3942" gradientUnits="userSpaceOnUse">
<stop stop-color="#05F2F2"/>
<stop offset="1" stop-color="#07DB9F"/>
</linearGradient>
<linearGradient id="paint5_linear" x1="83.4473" y1="0" x2="121.847" y2="38.3942" gradientUnits="userSpaceOnUse">
<stop stop-color="#05F2F2"/>
<stop offset="1" stop-color="#07DB9F"/>
</linearGradient>
<linearGradient id="paint6_linear" x1="8.08594" y1="41.5998" x2="46.4861" y2="79.994" gradientUnits="userSpaceOnUse">
<stop stop-color="#05F2F2"/>
<stop offset="1" stop-color="#07DB9F"/>
</linearGradient>
<linearGradient id="paint7_linear" x1="8.08594" y1="41.5998" x2="46.4861" y2="79.994" gradientUnits="userSpaceOnUse">
<stop stop-color="#05F2F2"/>
<stop offset="1" stop-color="#07DB9F"/>
</linearGradient>
<linearGradient id="paint8_linear" x1="49.6172" y1="41.5998" x2="88.0174" y2="79.994" gradientUnits="userSpaceOnUse">
<stop stop-color="#05F2F2"/>
<stop offset="1" stop-color="#07DB9F"/>
</linearGradient>
<linearGradient id="paint9_linear" x1="49.6172" y1="41.5998" x2="88.0174" y2="79.994" gradientUnits="userSpaceOnUse">
<stop stop-color="#05F2F2"/>
<stop offset="1" stop-color="#07DB9F"/>
</linearGradient>
<linearGradient id="paint10_linear" x1="91.2715" y1="41.5998" x2="129.672" y2="79.994" gradientUnits="userSpaceOnUse">
<stop stop-color="#05F2F2"/>
<stop offset="1" stop-color="#07DB9F"/>
</linearGradient>
<linearGradient id="paint11_linear" x1="91.2715" y1="41.5998" x2="129.672" y2="79.994" gradientUnits="userSpaceOnUse">
<stop stop-color="#05F2F2"/>
<stop offset="1" stop-color="#07DB9F"/>
</linearGradient>
<clipPath id="clip0">
<rect width="129.28" height="80" fill="white" transform="translate(0.386719)"/>
</clipPath>
<clipPath id="clip1">
<rect width="129.28" height="80" fill="white" transform="translate(0.386719)"/>
</clipPath>
</defs>
</svg>
