<svg width="88" height="41" viewBox="0 0 88 41" fill="none" xmlns="http://www.w3.org/2000/svg">
<g clip-path="url(#clip0)">
<path fill-rule="evenodd" clip-rule="evenodd" d="M87.334 7.1668C87.334 3.48713 84.3467 0.5 80.6672 0.5H7.33359C3.654 0.5 0.666748 3.48713 0.666748 7.1668V33.8336C0.666748 37.5129 3.654 40.5 7.33359 40.5H80.6672C84.3467 40.5 87.334 37.5129 87.334 33.8336V7.1668Z" fill="url(#paint0_linear)" fill-opacity="0.2"/>
<path d="M80.6672 1C84.0706 1 86.834 3.76328 86.834 7.1668V33.8336C86.834 37.2367 84.0706 40 80.6672 40H7.33359C3.93011 40 1.16675 37.2367 1.16675 33.8336V7.1668C1.16675 3.76328 3.93013 1 7.33359 1H80.6672Z" stroke="url(#paint1_linear)" stroke-opacity="0.2"/>
<path d="M29.4538 25.644C28.7498 25.644 28.1498 25.516 27.6538 25.26C27.1658 25.004 26.7458 24.66 26.3938 24.228L27.3298 23.352C27.6258 23.712 27.9498 23.984 28.3018 24.168C28.6618 24.352 29.0698 24.444 29.5258 24.444C30.0618 24.444 30.4658 24.324 30.7378 24.084C31.0098 23.844 31.1458 23.52 31.1458 23.112C31.1458 22.784 31.0498 22.524 30.8578 22.332C30.6658 22.14 30.3258 21.996 29.8378 21.9L29.0938 21.768C28.2778 21.616 27.6658 21.348 27.2578 20.964C26.8498 20.58 26.6458 20.052 26.6458 19.38C26.6458 19.012 26.7138 18.68 26.8498 18.384C26.9938 18.08 27.1898 17.828 27.4378 17.628C27.6938 17.42 28.0018 17.26 28.3618 17.148C28.7218 17.036 29.1258 16.98 29.5738 16.98C30.2058 16.98 30.7538 17.092 31.2178 17.316C31.6818 17.532 32.0778 17.848 32.4058 18.264L31.4578 19.104C31.2418 18.824 30.9778 18.6 30.6658 18.432C30.3538 18.264 29.9658 18.18 29.5018 18.18C29.0218 18.18 28.6498 18.276 28.3858 18.468C28.1218 18.66 27.9898 18.94 27.9898 19.308C27.9898 19.66 28.0978 19.924 28.3138 20.1C28.5298 20.268 28.8658 20.396 29.3218 20.484L30.0658 20.64C30.9058 20.8 31.5178 21.072 31.9018 21.456C32.2938 21.84 32.4898 22.368 32.4898 23.04C32.4898 23.432 32.4218 23.788 32.2858 24.108C32.1498 24.428 31.9498 24.704 31.6858 24.936C31.4298 25.16 31.1138 25.336 30.7378 25.464C30.3618 25.584 29.9338 25.644 29.4538 25.644ZM39.2657 21.852H35.4737V25.5H34.1177V17.124H35.4737V20.652H39.2657V17.124H40.6217V25.5H39.2657V21.852ZM42.3241 25.5V24.396H43.4641V18.228H42.3241V17.124H45.9721V18.228H44.8201V24.396H45.9721V25.5H42.3241ZM47.6763 25.5V17.124H52.9083V18.324H49.0323V20.652H52.4763V21.852H49.0323V25.5H47.6763ZM57.628 18.324V25.5H56.272V18.324H53.776V17.124H60.124V18.324H57.628Z" fill="#05F2F2" fill-opacity="0.9"/>
</g>
<defs>
<linearGradient id="paint0_linear" x1="0.666748" y1="0.5" x2="31.1056" y2="66.4514" gradientUnits="userSpaceOnUse">
<stop stop-color="#05F2F2"/>
<stop offset="1" stop-color="#07DB9F"/>
</linearGradient>
<linearGradient id="paint1_linear" x1="0.666748" y1="0.5" x2="31.1056" y2="66.4514" gradientUnits="userSpaceOnUse">
<stop stop-color="#05F2F2"/>
<stop offset="1" stop-color="#07DB9F"/>
</linearGradient>
<clipPath id="clip0">
<rect width="86.6667" height="40" fill="white" transform="translate(0.666748 0.5)"/>
</clipPath>
</defs>
</svg>
