<svg width="160" height="40" viewBox="0 0 160 40" fill="none" xmlns="http://www.w3.org/2000/svg">
<g clip-path="url(#SpacebarClip0)">
<path fill-rule="evenodd" clip-rule="evenodd" d="M160.001 6.6668C160.001 2.98713 157.012 0 153.333 0H6.66641C2.98715 0 0 2.98713 0 6.6668V33.3336C0 37.0129 2.98715 40 6.66641 40H153.333C157.012 40 160.001 37.0129 160.001 33.3336V6.6668Z" fill="url(#paint0_linear)" fill-opacity="0.2"/>
<path d="M153.333 0.5C156.736 0.5 159.501 3.26341 159.501 6.6668V33.3336C159.501 36.7366 156.736 39.5 153.333 39.5H6.66641C3.26329 39.5 0.5 36.7367 0.5 33.3336V6.6668C0.5 3.26326 3.26331 0.5 6.66641 0.5H153.333Z" stroke="url(#paint1_linear)" stroke-opacity="0.2"/>
<path d="M51.6191 24.144C50.9151 24.144 50.3151 24.016 49.8191 23.76C49.3311 23.504 48.9111 23.16 48.5591 22.728L49.4951 21.852C49.7911 22.212 50.1151 22.484 50.4671 22.668C50.8271 22.852 51.2351 22.944 51.6911 22.944C52.2271 22.944 52.6311 22.824 52.9031 22.584C53.1751 22.344 53.3111 22.02 53.3111 21.612C53.3111 21.284 53.2151 21.024 53.0231 20.832C52.8311 20.64 52.4911 20.496 52.0031 20.4L51.2591 20.268C50.4431 20.116 49.8311 19.848 49.4231 19.464C49.0151 19.08 48.8111 18.552 48.8111 17.88C48.8111 17.512 48.8791 17.18 49.0151 16.884C49.1591 16.58 49.3551 16.328 49.6031 16.128C49.8591 15.92 50.1671 15.76 50.5271 15.648C50.8871 15.536 51.2911 15.48 51.7391 15.48C52.3711 15.48 52.9191 15.592 53.3831 15.816C53.8471 16.032 54.2431 16.348 54.5711 16.764L53.6231 17.604C53.4071 17.324 53.1431 17.1 52.8311 16.932C52.5191 16.764 52.1311 16.68 51.6671 16.68C51.1871 16.68 50.8151 16.776 50.5511 16.968C50.2871 17.16 50.1551 17.44 50.1551 17.808C50.1551 18.16 50.2631 18.424 50.4791 18.6C50.6951 18.768 51.0311 18.896 51.4871 18.984L52.2311 19.14C53.0711 19.3 53.6831 19.572 54.0671 19.956C54.4591 20.34 54.6551 20.868 54.6551 21.54C54.6551 21.932 54.5871 22.288 54.4511 22.608C54.3151 22.928 54.1151 23.204 53.8511 23.436C53.5951 23.66 53.2791 23.836 52.9031 23.964C52.5271 24.084 52.0991 24.144 51.6191 24.144ZM56.283 24V15.624H59.883C60.659 15.624 61.259 15.852 61.683 16.308C62.107 16.764 62.319 17.376 62.319 18.144C62.319 18.912 62.107 19.524 61.683 19.98C61.259 20.436 60.659 20.664 59.883 20.664H57.639V24H56.283ZM57.639 19.476H59.799C60.143 19.476 60.411 19.388 60.603 19.212C60.795 19.028 60.891 18.768 60.891 18.432V17.856C60.891 17.52 60.795 17.264 60.603 17.088C60.411 16.904 60.143 16.812 59.799 16.812H57.639V19.476ZM68.3587 24L67.6027 21.732H64.4707L63.7387 24H62.3587L65.2147 15.624H66.9187L69.7747 24H68.3587ZM66.0667 16.872H66.0067L64.7947 20.568H67.2667L66.0667 16.872ZM73.9582 24.144C72.8622 24.144 72.0022 23.776 71.3782 23.04C70.7542 22.296 70.4422 21.22 70.4422 19.812C70.4422 19.108 70.5222 18.488 70.6822 17.952C70.8422 17.416 71.0742 16.964 71.3782 16.596C71.6822 16.228 72.0502 15.952 72.4822 15.768C72.9222 15.576 73.4142 15.48 73.9582 15.48C74.6862 15.48 75.2942 15.64 75.7822 15.96C76.2782 16.28 76.6662 16.752 76.9462 17.376L75.8062 18C75.6622 17.6 75.4382 17.284 75.1342 17.052C74.8382 16.812 74.4462 16.692 73.9582 16.692C73.3102 16.692 72.8022 16.912 72.4342 17.352C72.0662 17.792 71.8822 18.4 71.8822 19.176V20.448C71.8822 21.224 72.0662 21.832 72.4342 22.272C72.8022 22.712 73.3102 22.932 73.9582 22.932C74.4622 22.932 74.8702 22.804 75.1822 22.548C75.5022 22.284 75.7382 21.948 75.8902 21.54L76.9822 22.2C76.7022 22.808 76.3102 23.284 75.8062 23.628C75.3022 23.972 74.6862 24.144 73.9582 24.144ZM78.4197 24V15.624H83.7837V16.824H79.7757V19.152H83.4117V20.352H79.7757V22.8H83.7837V24H78.4197ZM88.3689 15.624H92.0769C92.7729 15.624 93.3169 15.82 93.7089 16.212C94.1089 16.604 94.3089 17.128 94.3089 17.784C94.3089 18.096 94.2649 18.364 94.1769 18.588C94.0889 18.804 93.9769 18.984 93.8409 19.128C93.7049 19.264 93.5489 19.368 93.3729 19.44C93.1969 19.504 93.0249 19.544 92.8569 19.56V19.632C93.0249 19.64 93.2089 19.68 93.4089 19.752C93.6169 19.824 93.8089 19.94 93.9849 20.1C94.1609 20.252 94.3089 20.452 94.4289 20.7C94.5489 20.94 94.6089 21.236 94.6089 21.588C94.6089 21.924 94.5529 22.24 94.4409 22.536C94.3369 22.832 94.1889 23.088 93.9969 23.304C93.8049 23.52 93.5769 23.692 93.3129 23.82C93.0489 23.94 92.7609 24 92.4489 24H88.3689V15.624ZM89.7249 22.836H92.0529C92.4049 22.836 92.6809 22.744 92.8809 22.56C93.0809 22.376 93.1809 22.112 93.1809 21.768V21.36C93.1809 21.016 93.0809 20.752 92.8809 20.568C92.6809 20.384 92.4049 20.292 92.0529 20.292H89.7249V22.836ZM89.7249 19.164H91.8249C92.1609 19.164 92.4209 19.08 92.6049 18.912C92.7889 18.736 92.8809 18.488 92.8809 18.168V17.784C92.8809 17.464 92.7889 17.22 92.6049 17.052C92.4209 16.876 92.1609 16.788 91.8249 16.788H89.7249V19.164ZM101.37 24L100.614 21.732H97.4824L96.7504 24H95.3704L98.2264 15.624H99.9304L102.786 24H101.37ZM99.0784 16.872H99.0184L97.8064 20.568H100.278L99.0784 16.872ZM105.44 24H104.084V15.624H107.696C108.448 15.624 109.04 15.852 109.472 16.308C109.904 16.756 110.12 17.368 110.12 18.144C110.12 18.744 109.98 19.244 109.7 19.644C109.428 20.036 109.024 20.312 108.488 20.472L110.3 24H108.788L107.108 20.616H105.44V24ZM107.6 19.476C107.944 19.476 108.212 19.388 108.404 19.212C108.596 19.028 108.692 18.768 108.692 18.432V17.856C108.692 17.52 108.596 17.264 108.404 17.088C108.212 16.904 107.944 16.812 107.6 16.812H105.44V19.476H107.6Z" fill="#05F2F2" fill-opacity="0.9"/>
</g>
<defs>
<linearGradient id="paint0_linear" x1="0" y1="0" x2="18.8234" y2="75.2942" gradientUnits="userSpaceOnUse">
<stop stop-color="#05F2F2"/>
<stop offset="1" stop-color="#07DB9F"/>
</linearGradient>
<linearGradient id="paint1_linear" x1="0" y1="0" x2="18.8234" y2="75.2942" gradientUnits="userSpaceOnUse">
<stop stop-color="#05F2F2"/>
<stop offset="1" stop-color="#07DB9F"/>
</linearGradient>
<clipPath id="SpacebarClip0">
<rect width="160" height="40" fill="white" transform="translate(0.666748 0.5)"/>
</clipPath>
</defs>
</svg>
