<svg width="20" height="20" viewBox="0 0 20 20" fill="none" xmlns="http://www.w3.org/2000/svg">
<path d="M10 14.375C9.655 14.375 9.375 14.095 9.375 13.75V10.625H6.25C5.905 10.625 5.625 10.345 5.625 10C5.625 9.655 5.905 9.375 6.25 9.375H9.375V6.25C9.375 5.905 9.655 5.625 10 5.625C10.345 5.625 10.625 5.905 10.625 6.25V9.375H13.75C14.095 9.375 14.375 9.655 14.375 10C14.375 10.345 14.095 10.625 13.75 10.625H10.625V13.75C10.625 14.095 10.345 14.375 10 14.375Z" fill="currentColor"/>
<path d="M10 20C4.48583 20 0 15.5142 0 10C0 4.48583 4.48583 0 10 0C15.5142 0 20 4.48583 20 10C20 15.5142 15.5142 20 10 20ZM10 1.25C5.175 1.25 1.25 5.175 1.25 10C1.25 14.825 5.175 18.75 10 18.75C14.825 18.75 18.75 14.825 18.75 10C18.75 5.175 14.825 1.25 10 1.25Z" fill="currentColor"/>
</svg>
