<svg width="8" height="16" viewBox="0 0 8 16" fill="none" xmlns="http://www.w3.org/2000/svg">
<path d="M8.00094 8C8.00094 7.75 7.90344 7.515 7.72719 7.33813L1.02719 0.6375C0.938438 0.54875 0.820938 0.5 0.695313 0.5C0.570313 0.5 0.452188 0.54875 0.364063 0.6375C0.275313 0.72625 0.226563 0.84375 0.226563 0.96875C0.226563 1.09375 0.275313 1.21187 0.364063 1.3L7.06344 8L0.364063 14.7C0.275313 14.7887 0.226563 14.9062 0.226563 15.0312C0.226563 15.1562 0.275313 15.2744 0.364063 15.3625C0.452813 15.4513 0.570313 15.5 0.695313 15.5C0.820313 15.5 0.938438 15.4513 1.02656 15.3625L7.72656 8.6625C7.90344 8.48625 8.00094 8.25062 8.00094 8Z" fill="currentColor"/>
</svg>
