<svg width="20" height="20" viewBox="0 0 20 20" fill="none" xmlns="http://www.w3.org/2000/svg">
<path fill-rule="evenodd" clip-rule="evenodd" d="M9.9999 3.0999C6.18914 3.0999 3.0999 6.18914 3.0999 9.9999C3.0999 13.8107 6.18914 16.8999 9.9999 16.8999C13.8107 16.8999 16.8999 13.8107 16.8999 9.9999C16.8999 6.18914 13.8107 3.0999 9.9999 3.0999ZM1.8999 9.9999C1.8999 5.5264 5.5264 1.8999 9.9999 1.8999C14.4734 1.8999 18.0999 5.5264 18.0999 9.9999C18.0999 14.4734 14.4734 18.0999 9.9999 18.0999C5.5264 18.0999 1.8999 14.4734 1.8999 9.9999Z" fill="currentColor"/>
<path fill-rule="evenodd" clip-rule="evenodd" d="M13.7944 7.88394L9.20715 13.3887L6.24257 10.4241L7.0911 9.57557L9.12651 11.611L12.8726 7.11572L13.7944 7.88394Z" fill="currentColor"/>
</svg>
