<svg xmlns="http://www.w3.org/2000/svg" width="32" height="32" viewBox="0 0 32 32" fill="none">
<path d="M5.99878 27C7.93178 27 9.49878 25.433 9.49878 23.5C9.49878 21.567 7.93178 20 5.99878 20C4.06578 20 2.49878 21.567 2.49878 23.5C2.49878 25.433 4.06578 27 5.99878 27Z" stroke="currentColor" stroke-width="1.5" stroke-linecap="round" stroke-linejoin="round"/>
<path d="M10.9988 31C10.5155 30.0938 9.79494 29.336 8.91426 28.8075C8.03357 28.2791 7.02583 28 5.99878 28C4.97173 28 3.96399 28.2791 3.0833 28.8075C2.20262 29.336 1.4821 30.0938 0.998779 31" stroke="currentColor" stroke-width="1.5" stroke-linecap="round" stroke-linejoin="round"/>
<path d="M25.9988 27C27.9318 27 29.4988 25.433 29.4988 23.5C29.4988 21.567 27.9318 20 25.9988 20C24.0658 20 22.4988 21.567 22.4988 23.5C22.4988 25.433 24.0658 27 25.9988 27Z" stroke="currentColor" stroke-width="1.5" stroke-linecap="round" stroke-linejoin="round"/>
<path d="M30.9988 31C30.5155 30.0938 29.7949 29.336 28.9143 28.8075C28.0336 28.2791 27.0258 28 25.9988 28C24.9717 28 23.964 28.2791 23.0833 28.8075C22.2026 29.336 21.4821 30.0938 20.9988 31" stroke="currentColor" stroke-width="1.5" stroke-linecap="round" stroke-linejoin="round"/>
<path d="M15.9988 8C17.9318 8 19.4988 6.433 19.4988 4.5C19.4988 2.567 17.9318 1 15.9988 1C14.0658 1 12.4988 2.567 12.4988 4.5C12.4988 6.433 14.0658 8 15.9988 8Z" stroke="currentColor" stroke-width="1.5" stroke-linecap="round" stroke-linejoin="round"/>
<path d="M20.3307 11C19.7964 10.3726 19.1322 9.86869 18.384 9.52315C17.6358 9.17761 16.8215 8.99866 15.9974 8.99866C15.1733 8.99866 14.359 9.17761 13.6108 9.52315C12.8626 9.86869 12.1984 10.3726 11.6641 11" stroke="currentColor" stroke-width="1.5" stroke-linecap="round" stroke-linejoin="round"/>
<path d="M12 26.024C14.5536 26.9976 17.3777 26.989 19.9253 26" stroke="currentColor" stroke-width="1.5" stroke-linecap="round" stroke-linejoin="round"/>
<path d="M8.46398 8C7.36936 9.0252 6.49688 10.2642 5.90058 11.6403C5.30427 13.0164 4.99683 14.5003 4.99732 16C4.99732 16.3373 5.01732 16.6667 5.04798 17" stroke="currentColor" stroke-width="1.5" stroke-linecap="round" stroke-linejoin="round"/>
<path d="M26.948 17C26.9773 16.6693 26.9987 16.3333 26.9987 16C26.9994 14.5002 26.692 13.0163 26.0957 11.6402C25.4994 10.264 24.6268 9.02505 23.532 8" stroke="currentColor" stroke-width="1.5" stroke-linecap="round" stroke-linejoin="round"/>
</svg>