<svg width="20" height="15" viewBox="0 0 20 15" fill="none" xmlns="http://www.w3.org/2000/svg">
    <path d="M12.0933 0.850195C12.5865 0.850195 12.9956 1.26578 12.9956 1.78821V6.14022C12.9956 6.66258 12.5865 7.07817 12.0933 7.07817H7.8843C7.39103 7.07817 6.98203 6.66259 6.98203 6.14022V1.78821C6.98203 1.26577 7.39104 0.850195 7.8843 0.850195H12.0933Z" fill="currentColor" stroke="currentColor" stroke-width="0.3"/>
    <path fill-rule="evenodd" clip-rule="evenodd" d="M9.86348 3.96487H9.35838L9.98974 2.66016L10.6211 3.96487H10.116V5.26959H9.86348V3.96487Z" fill="currentColor" fill-opacity="0.85"/>
    <path d="M10.0135 3.81487H9.966H9.86348H9.59761L9.98974 3.00452L10.3819 3.81487H10.116H10.0135Z" stroke="#051745" stroke-opacity="0.85" stroke-width="0.3"/>
    <path fill-rule="evenodd" clip-rule="evenodd" d="M9.86348 3.96487H9.35838L9.98974 2.66016L10.6211 3.96487H10.116V5.26959H9.86348V3.96487ZM9.86911 3.63998C9.91192 3.63998 9.95267 3.64666 9.98974 3.66613C10.0268 3.64666 10.0676 3.63998 10.1104 3.63998L9.98974 3.3872L9.86911 3.63998Z" fill="#051745" fill-opacity="0.85"/>
    <path d="M10.116 3.81487H10.0292L10.0596 3.79888C10.0681 3.79438 10.0826 3.78998 10.1104 3.78998H10.3481L10.2457 3.57538L10.1251 3.3226L9.98974 3.03891L9.85436 3.3226L9.73374 3.57538L9.63133 3.78998H9.86911C9.89681 3.78998 9.9113 3.79436 9.91998 3.79892L9.95034 3.81487H9.86348H9.59761L9.98974 3.00452L10.3819 3.81487H10.116Z" stroke="#051745" stroke-opacity="0.85" stroke-width="0.3"/>
    <path d="M5.26127 7.92246C5.75448 7.92246 6.16354 8.33804 6.16354 8.86048V13.2125C6.16354 13.7349 5.75448 14.1504 5.26127 14.1504H1.05227C0.559001 14.1504 0.15 13.7349 0.15 13.2125V8.86048C0.15 8.33804 0.559007 7.92246 1.05227 7.92246H5.26127Z" fill="currentColor" stroke="currentColor" stroke-width="0.3"/>
    <path fill-rule="evenodd" clip-rule="evenodd" d="M3.15638 11.1671V11.6894L1.89453 11.0366L3.15638 10.3838V10.906H4.41822V11.1671H3.15638Z" fill="currentColor" fill-opacity="0.85"/>
    <path d="M3.00638 11.0171V11.056V11.1671V11.4429L2.22098 11.0366L3.00638 10.6303V10.906V11.0171Z" stroke="#051745" stroke-opacity="0.85" stroke-width="0.3"/>
    <path fill-rule="evenodd" clip-rule="evenodd" d="M3.15638 11.1671V11.6894L1.89453 11.0366L3.15638 10.3838V10.906H4.41822V11.1671H3.15638ZM2.59768 11.0366L2.84216 11.1613C2.84216 11.1171 2.84862 11.0749 2.86745 11.0366C2.84862 10.9983 2.84216 10.9561 2.84216 10.9119L2.59768 11.0366Z" fill="#051745" fill-opacity="0.85"/>
    <path d="M3.00638 10.906V10.9792L3.00204 10.9704C2.99671 10.9595 2.99216 10.9423 2.99216 10.9119V10.667L2.77399 10.7783L2.52952 10.903L2.26761 11.0366L2.52952 11.1702L2.77399 11.2949L2.99216 11.4062V11.1613C2.99216 11.131 2.99669 11.1137 3.00208 11.1027L3.00638 11.094V11.1671V11.4429L2.22098 11.0366L3.00638 10.6303V10.906Z" stroke="#051745" stroke-opacity="0.85" stroke-width="0.3"/>
    <path d="M12.0933 7.92246C12.5865 7.92246 12.9956 8.33804 12.9956 8.86048V13.2125C12.9956 13.7349 12.5865 14.1504 12.0933 14.1504H7.8843C7.39103 14.1504 6.98203 13.7349 6.98203 13.2125V8.86048C6.98203 8.33804 7.39104 7.92246 7.8843 7.92246H12.0933Z" fill="currentColor" stroke="currentColor" stroke-width="0.3"/>
    <path fill-rule="evenodd" clip-rule="evenodd" d="M9.86348 11.0361H9.35838L9.98974 12.3408L10.6211 11.0361H10.116V9.73139H9.86348V11.0361Z" fill="currentColor" fill-opacity="0.85"/>
    <path d="M10.0135 11.1861H9.966H9.86348H9.59761L9.98974 11.9965L10.3819 11.1861H10.116H10.0135Z" stroke="#051745" stroke-opacity="0.85" stroke-width="0.3"/>
    <path fill-rule="evenodd" clip-rule="evenodd" d="M9.86348 11.0361H9.35838L9.98974 12.3408L10.6211 11.0361H10.116V9.73139H9.86348V11.0361ZM9.98974 11.3348C9.95272 11.3543 9.91192 11.361 9.86911 11.361L9.98974 11.6138L10.1104 11.361C10.0676 11.361 10.0268 11.3543 9.98974 11.3348Z" fill="#051745" fill-opacity="0.85"/>
    <path d="M10.116 11.1861H10.0291L10.0595 11.2021C10.0682 11.2066 10.0827 11.211 10.1104 11.211H10.3481L10.2457 11.4256L10.1251 11.6784L9.98974 11.9621L9.85436 11.6784L9.73374 11.4256L9.63133 11.211H9.86911C9.89686 11.211 9.91135 11.2066 9.9199 11.2021L9.9503 11.1861H9.86348H9.59761L9.98974 11.9965L10.3819 11.1861H10.116Z" stroke="#051745" stroke-opacity="0.85" stroke-width="0.3"/>
    <path d="M18.9488 7.92246C19.442 7.92246 19.851 8.33804 19.851 8.86048V13.2125C19.851 13.7349 19.442 14.1504 18.9488 14.1504H14.7398C14.2465 14.1504 13.8375 13.7349 13.8375 13.2125V8.86048C13.8375 8.33804 14.2465 7.92246 14.7398 7.92246H18.9488Z" fill="currentColor" stroke="currentColor" stroke-width="0.3"/>
    <path fill-rule="evenodd" clip-rule="evenodd" d="M16.8397 10.9061V10.3838L18.1016 11.0367L16.8397 11.6895V11.1672H15.5779V10.9061H16.8397Z" fill="currentColor" fill-opacity="0.85"/>
    <path d="M16.9897 11.0561V11.0172V10.9061V10.6303L17.7751 11.0367L16.9897 11.443V11.1672V11.0561Z" stroke="#051745" stroke-opacity="0.85" stroke-width="0.3"/>
    <path fill-rule="evenodd" clip-rule="evenodd" d="M16.8397 10.9061V10.3838L18.1016 11.0367L16.8397 11.6895V11.1672H15.5779V10.9061H16.8397ZM17.1539 10.9119C17.1539 10.9562 17.1475 10.9983 17.1286 11.0367C17.1475 11.0749 17.1539 11.1171 17.1539 11.1614L17.3984 11.0367L17.1539 10.9119Z" fill="#051745" fill-opacity="0.85"/>
    <path d="M16.9897 11.1672V11.0941L16.9941 11.1029C16.9994 11.1137 17.0039 11.131 17.0039 11.1614V11.4063L17.2221 11.295L17.4666 11.1703L17.7285 11.0367L17.4666 10.903L17.2221 10.7783L17.0039 10.667V10.9119C17.0039 10.9423 16.9994 10.9595 16.994 10.9705L16.9897 10.9792V10.9061V10.6303L17.7751 11.0367L16.9897 11.443V11.1672Z" stroke="#051745" stroke-opacity="0.85" stroke-width="0.3"/>
</svg>
