<svg width="21" height="20" viewBox="0 0 21 20" fill="none" xmlns="http://www.w3.org/2000/svg">
    <path fill-rule="evenodd" clip-rule="evenodd" d="M16.4232 19.6335C18.8811 18.7477 20.5139 16.4129 20.4999 13.8042C20.4971 12.4804 20.0638 11.1933 19.2653 10.1363C19.3001 10.0482 19.3201 9.95491 19.3246 9.86028L19.2653 2.74148C19.2329 1.19876 17.9565 -0.0270519 16.411 0.000453989H3.35431C1.80888 -0.0270519 0.53241 1.19876 0.5 2.74148V15.0071C0.53241 16.5498 1.80888 17.7756 3.35431 17.7481H9.38885C9.44471 17.7529 9.50088 17.7529 9.55675 17.7481C11.2151 19.7642 13.9654 20.5193 16.4232 19.6335ZM15.3147 4.93036C15.3147 4.38582 14.8726 3.94438 14.3271 3.94438H5.43825C4.89279 3.94438 4.4506 4.38582 4.4506 4.93036C4.4506 5.47491 4.89279 5.91635 5.43825 5.91635H14.3271C14.8726 5.91635 15.3147 5.47491 15.3147 4.93036ZM17.0036 12.1182C17.1906 12.3033 17.2958 12.5553 17.2958 12.8182C17.2958 13.0811 17.1906 13.3331 17.0036 13.5183L14.0407 16.4762C13.8543 16.6608 13.602 16.7637 13.3394 16.7622H13.1814C12.8696 16.7101 12.6015 16.5122 12.4604 16.2297L11.4728 14.2578C11.2819 13.9411 11.2845 13.5444 11.4794 13.2302C11.6744 12.916 12.0289 12.737 12.398 12.7666C12.767 12.7961 13.0885 13.0292 13.2308 13.3704L13.6061 14.1197L15.5814 12.1478C15.7635 11.951 16.018 11.8367 16.2862 11.8311C16.5545 11.8256 16.8135 11.9292 17.0036 12.1182ZM14.3271 7.64182C15.3662 7.64655 16.3866 7.91819 17.29 8.4306V2.75134C17.2773 2.53154 17.1775 2.32584 17.0125 2.17968C16.8476 2.03353 16.6312 1.95895 16.411 1.97242H3.35431C2.89945 1.94424 2.50698 2.28762 2.4753 2.74148V15.0071C2.50698 15.461 2.89945 15.8044 3.35431 15.7762H8.48021C7.84395 13.8956 8.15404 11.8242 9.31323 10.2115C10.4724 8.59879 12.3388 7.64225 14.3271 7.64182ZM14.3271 9.61378C16.6453 9.61378 18.5246 11.4899 18.5246 13.8042C18.5192 16.1163 16.6431 17.9892 14.3271 17.9946C12.0089 17.9946 10.1296 16.1185 10.1296 13.8042C10.1296 11.4899 12.0089 9.61378 14.3271 9.61378Z" fill="currentColor"/>
</svg>
