<svg width="21" height="21" viewBox="0 0 21 21" fill="none" xmlns="http://www.w3.org/2000/svg">
<path d="M6.79944 20.0034C6.23588 20.0034 5.6965 19.7949 5.2805 19.4164C4.78196 18.9627 4.51352 18.3156 4.54437 17.6418L4.60439 16.4711C4.63274 15.9165 4.20507 15.442 3.65068 15.4129C3.63317 15.412 3.61567 15.4112 3.59899 15.4112C3.58148 15.4112 3.56481 15.4112 3.5473 15.4129L2.37934 15.4721C2.34016 15.4737 2.29931 15.4754 2.25929 15.4754C1.7024 15.4754 1.16635 15.2694 0.751189 14.895C0.30351 14.4914 0.0392383 13.9377 0.00755902 13.3348C-0.0282886 12.6535 0.241819 12.0006 0.747021 11.5428L1.6157 10.7589C1.81495 10.5788 1.93249 10.3311 1.94667 10.0618C1.96 9.79244 1.8683 9.53394 1.68823 9.33381C1.66572 9.30879 1.64154 9.28461 1.6157 9.26126L0.747021 8.4724C0.300176 8.06713 0.0384047 7.51259 0.00922636 6.90969C-0.0207856 6.30762 0.186797 5.72974 0.591959 5.28277C1.0188 4.81162 1.62737 4.54144 2.26096 4.54144C2.29764 4.54144 2.33515 4.54228 2.37184 4.54394L3.54064 4.60315C3.55814 4.60482 3.59316 4.60482 3.59316 4.60482C4.13004 4.60482 4.57188 4.18537 4.60023 3.65085C4.60189 3.61583 4.60189 3.57997 4.60023 3.54495L4.54437 2.3725C4.48601 1.1275 5.45056 0.0676274 6.69439 0.00925519C6.73024 0.00758741 6.76609 0.00675353 6.80194 0.00675353C7.43552 0.00675353 8.04326 0.2761 8.4701 0.745579L9.25458 1.61199C9.43549 1.81296 9.68225 1.93054 9.95069 1.94471C9.96903 1.94555 9.98737 1.94638 10.0057 1.94638C10.2566 1.94638 10.4884 1.85715 10.6768 1.68787C10.7027 1.66453 10.7268 1.64034 10.7493 1.61449L11.5413 0.745579C11.944 0.299449 12.4984 0.0367735 13.1011 0.00591964C13.1395 0.00425186 13.177 0.00341797 13.2145 0.00341797C13.7756 0.00341797 14.3141 0.210222 14.7301 0.586307C15.2361 1.04328 15.5062 1.69621 15.4712 2.3775L15.412 3.54495C15.3845 4.09948 15.813 4.57313 16.3674 4.60148C16.3849 4.60232 16.4016 4.60315 16.4183 4.60315C16.4341 4.60315 16.45 4.60315 16.4658 4.60232L17.6329 4.54311C17.6721 4.54144 17.7096 4.54061 17.748 4.54061C18.3082 4.54061 18.8451 4.74825 19.2611 5.126C19.7079 5.53127 19.9705 6.08664 20.0005 6.68871C20.0339 7.36833 19.7638 8.01959 19.2594 8.47573L18.3907 9.25959C18.1915 9.43971 18.0739 9.68737 18.0606 9.95672C18.0464 10.2261 18.139 10.4846 18.319 10.6839C18.3424 10.7097 18.3657 10.7339 18.3907 10.7556L19.2594 11.5403C19.7071 11.9447 19.9705 12.4992 20.0014 13.1022C20.0322 13.7051 19.8263 14.2838 19.422 14.7307C18.9943 15.2036 18.3824 15.4746 17.7421 15.4746C17.7063 15.4746 17.6696 15.4737 17.6329 15.4721L16.4641 15.4129C16.4458 15.412 16.4274 15.4112 16.4091 15.4112C16.1573 15.4112 15.9256 15.5012 15.7372 15.6705C15.5371 15.8506 15.4195 16.0975 15.4062 16.3668C15.4045 16.401 15.4045 16.436 15.4062 16.4711L15.4654 17.6385C15.4921 18.2431 15.2828 18.821 14.8752 19.2671C14.4675 19.7132 13.9114 19.9734 13.3095 20.0001C13.2737 20.0017 13.2362 20.0026 13.1987 20.0026C12.5734 20.0026 11.9698 19.7349 11.543 19.2688L10.756 18.3982C10.5651 18.1872 10.2925 18.0663 10.0065 18.0663C9.75645 18.0663 9.51719 18.158 9.33211 18.3256C9.3071 18.3481 9.28209 18.3723 9.25958 18.3982L8.47094 19.2671C8.0441 19.7349 7.43469 20.0034 6.79944 20.0034ZM3.59899 14.1612C3.63734 14.1612 3.67569 14.162 3.71404 14.1645C4.95787 14.2287 5.91742 15.2928 5.85322 16.5361L5.7932 17.7036C5.77986 18.0012 5.89908 18.2898 6.12167 18.4924C6.31007 18.6642 6.54433 18.7543 6.7986 18.7543C6.81528 18.7543 6.83111 18.7543 6.84779 18.7534C7.11623 18.7409 7.36466 18.6242 7.54557 18.4249L8.33255 17.5576C8.38257 17.5018 8.43676 17.4475 8.49344 17.3958C8.90944 17.0206 9.44633 16.8138 10.0065 16.8138C10.6451 16.8138 11.2562 17.0848 11.6839 17.5576L12.4684 18.4257C12.6568 18.6317 12.9285 18.7501 13.2153 18.7501L13.2562 18.7492C13.8097 18.7242 14.2416 18.2523 14.2166 17.6969L14.1574 16.5336C14.1532 16.4569 14.1532 16.3793 14.1574 16.3018C14.1882 15.6997 14.4517 15.1452 14.8993 14.7416C15.3153 14.3663 15.8505 14.1595 16.4074 14.1595C16.4475 14.1595 16.4875 14.1604 16.5283 14.1629L17.6946 14.2221C17.7146 14.2229 17.7338 14.2237 17.7521 14.2237C18.0323 14.2237 18.3024 14.1028 18.4933 13.891C18.6742 13.6909 18.7659 13.4324 18.7525 13.1639C18.7392 12.8945 18.6217 12.6477 18.4216 12.4667L17.5529 11.6829C17.4962 11.632 17.442 11.5778 17.3903 11.5203C16.5558 10.5963 16.6284 9.16453 17.5529 8.32897L18.4216 7.54511C18.6467 7.34164 18.7667 7.05145 18.7517 6.74791C18.7384 6.47857 18.6217 6.2309 18.4216 6.04995C18.2357 5.8815 17.9964 5.78894 17.7471 5.78894C17.7296 5.78894 17.713 5.78978 17.6955 5.79061L16.5292 5.84981C16.4925 5.85148 16.455 5.85232 16.4183 5.85232C16.3799 5.85232 16.3416 5.85148 16.3041 5.84898C15.0611 5.78644 14.1007 4.72406 14.1632 3.48074L14.2224 2.31246C14.2382 2.00809 14.1174 1.71706 13.8914 1.51359C13.703 1.34264 13.4721 1.25342 13.2228 1.25342C13.2045 1.25342 13.1853 1.25425 13.1661 1.25509C12.896 1.26843 12.6484 1.38601 12.4684 1.58614L11.678 2.45338C11.6289 2.50842 11.573 2.56429 11.5147 2.61683C11.0995 2.99124 10.5626 3.19721 10.0024 3.19721C9.96403 3.19721 9.92568 3.19638 9.88733 3.19471C9.28459 3.16302 8.73104 2.89952 8.32755 2.45172L7.54473 1.58614C7.35466 1.37767 7.08288 1.25759 6.79944 1.25759C6.7836 1.25759 6.76776 1.25759 6.75192 1.25842C6.19753 1.28427 5.76736 1.75792 5.7932 2.31329L5.84906 3.48074C5.85322 3.55662 5.85322 3.63667 5.84906 3.71673C5.7857 4.91586 4.7953 5.85565 3.59399 5.85565C3.55481 5.85565 3.51563 5.85482 3.47644 5.85232L2.31014 5.79394C2.29514 5.79311 2.27847 5.79228 2.26263 5.79228C1.98001 5.79228 1.70824 5.91319 1.51816 6.1225C1.33726 6.3218 1.24472 6.57947 1.25806 6.84798C1.2714 7.11649 1.38811 7.36416 1.58736 7.54511L2.4552 8.33314C2.51106 8.38401 2.56525 8.43737 2.6161 8.49491C3.4506 9.4197 3.37807 10.8515 2.45353 11.6862L1.58569 12.4701C1.3606 12.6735 1.24055 12.9654 1.25639 13.2689C1.27056 13.5374 1.38811 13.7851 1.58819 13.9652C1.77326 14.132 2.01253 14.2237 2.26096 14.2237C2.27846 14.2237 2.29681 14.2237 2.31431 14.2221L3.48228 14.1629C3.52146 14.162 3.55981 14.1612 3.59899 14.1612Z" fill="currentColor"/>
<path d="M10.004 14.3847C7.59051 14.3847 5.62723 12.4208 5.62723 10.0067C5.62723 7.59263 7.59051 5.62882 10.004 5.62882C12.4174 5.62882 14.3807 7.59263 14.3807 10.0067C14.3807 12.4208 12.4174 14.3847 10.004 14.3847ZM10.004 6.87966C8.27996 6.87966 6.87773 8.28226 6.87773 10.0067C6.87773 11.7312 8.27996 13.1338 10.004 13.1338C11.728 13.1338 13.1302 11.7312 13.1302 10.0067C13.1302 8.28226 11.728 6.87966 10.004 6.87966Z" fill="currentColor"/>
</svg>
