<svg width="15" height="14" viewBox="0 0 15 14" fill="none" xmlns="http://www.w3.org/2000/svg">
	<path d="M8.28223 9.95703C7.58416 9.95703 7.0166 9.38947 7.0166 8.69141V6.58203H6.59473C6.36185 6.58203 6.17285 6.39303 6.17285 6.16016C6.17285 5.92728 6.36185 5.73828 6.59473 5.73828H7.0166C7.48179 5.73828 7.86035 6.11684 7.86035 6.58203V8.69141C7.86035 8.92428 8.04935 9.11328 8.28223 9.11328H8.7041C8.93698 9.11328 9.12598 9.30228 9.12598 9.53516C9.12598 9.76803 8.93698 9.95703 8.7041 9.95703H8.28223Z" fill="currentcolor"/>
	<path d="M7.22754 4.89453C7.57703 4.89453 7.86035 4.61121 7.86035 4.26172C7.86035 3.91223 7.57703 3.62891 7.22754 3.62891C6.87805 3.62891 6.59473 3.91223 6.59473 4.26172C6.59473 4.61121 6.87805 4.89453 7.22754 4.89453Z" fill="currentcolor"/>
	<path d="M7.43848 13.7539C3.71641 13.7539 0.688477 10.726 0.688477 7.00391C0.688477 3.28184 3.71641 0.253906 7.43848 0.253906C11.1605 0.253906 14.1885 3.28184 14.1885 7.00391C14.1885 10.726 11.1605 13.7539 7.43848 13.7539ZM7.43848 1.09766C4.1816 1.09766 1.53223 3.74703 1.53223 7.00391C1.53223 10.2608 4.1816 12.9102 7.43848 12.9102C10.6954 12.9102 13.3447 10.2608 13.3447 7.00391C13.3447 3.74703 10.6954 1.09766 7.43848 1.09766Z" fill="currentcolor"/>
</svg>
