<svg width="20" height="22" viewBox="0 0 20 22" fill="none" xmlns="http://www.w3.org/2000/svg">
<path d="M10 2.66667C9.632 2.66667 9.33333 2.368 9.33333 2V0.666667C9.33333 0.298667 9.632 0 10 0C10.368 0 10.6667 0.298667 10.6667 0.666667V2C10.6667 2.368 10.368 2.66667 10 2.66667Z" fill="currentColor"/>
<path d="M0.666667 10.6667C0.298667 10.6667 0 10.368 0 10C0 9.632 0.298667 9.33333 0.666667 9.33333H2C2.368 9.33333 2.66667 9.632 2.66667 10C2.66667 10.368 2.368 10.6667 2 10.6667H0.666667Z" fill="currentColor"/>
<path d="M3.64413 4.93956C3.4708 4.93956 3.30724 4.87378 3.18191 4.75378L2.20413 3.81422C1.93924 3.55911 1.93124 3.136 2.18546 2.87111C2.3108 2.74133 2.48591 2.66667 2.66635 2.66667C2.83968 2.66667 3.00324 2.73244 3.12857 2.85244L4.10635 3.792C4.23435 3.91556 4.30724 4.08178 4.3108 4.25956C4.31435 4.43733 4.24857 4.60622 4.12502 4.73511C3.99968 4.86489 3.82457 4.93956 3.64413 4.93956Z" fill="currentColor"/>
<path d="M18 10.6667C17.632 10.6667 17.3333 10.368 17.3333 10C17.3333 9.632 17.632 9.33333 18 9.33333H19.3333C19.7013 9.33333 20 9.632 20 10C20 10.368 19.7013 10.6667 19.3333 10.6667H18Z" fill="currentColor"/>
<path d="M16.3557 4.93956C16.1752 4.93956 16.0001 4.86489 15.8748 4.73511C15.6197 4.46933 15.6286 4.04711 15.8935 3.792L16.8712 2.85244C16.9966 2.73244 17.1601 2.66667 17.3335 2.66667C17.5139 2.66667 17.689 2.74133 17.8143 2.87111C18.0695 3.13689 18.0606 3.55911 17.7957 3.81422L16.8179 4.75378C16.6926 4.87378 16.5281 4.93956 16.3557 4.93956Z" fill="currentColor"/>
<path d="M9.99977 21.3342C9.63177 21.3342 9.33311 21.0356 9.33311 20.6676V19.3342H8.66644C7.56333 19.3342 6.66644 18.4373 6.66644 17.3342V15.7716C4.6051 14.6098 3.30288 12.3653 3.3331 9.99556C3.39622 6.32445 6.31888 3.39911 9.98822 3.33333C13.6735 3.39822 16.6015 6.32178 16.6664 9.98845C16.6975 12.3618 15.3962 14.6089 13.3331 15.7716V17.3342C13.3331 18.4373 12.4362 19.3342 11.3331 19.3342H10.6664V20.6676C10.6664 21.0356 10.3678 21.3342 9.99977 21.3342ZM7.99977 17.3342C7.99977 17.7022 8.29844 18.0009 8.66644 18.0009H11.3331C11.7011 18.0009 11.9998 17.7022 11.9998 17.3342V16.0009H7.99977V17.3342ZM12.5802 14.6676C14.2807 13.7591 15.3589 11.9404 15.3331 10.0098C15.2807 7.06667 12.9331 4.72 9.98822 4.66756C7.05933 4.72 4.7171 7.06933 4.66644 10.016C4.64155 11.9422 5.71977 13.76 7.41933 14.6676H9.33311V12.2773L7.52866 10.4729C7.40244 10.3467 7.3331 10.1787 7.3331 10.0009C7.3331 9.82311 7.40244 9.65511 7.52866 9.52978C7.65399 9.40356 7.82199 9.33422 7.99977 9.33422C8.17755 9.33422 8.34555 9.40356 8.47088 9.52978L9.99977 11.0587L11.5287 9.52978C11.6549 9.40356 11.822 9.33422 11.9998 9.33422C12.1775 9.33422 12.3455 9.40356 12.4709 9.52978C12.5971 9.65511 12.6664 9.82311 12.6664 10.0009C12.6664 10.1787 12.5971 10.3467 12.4709 10.472L10.6664 12.2764V14.6676H12.5802Z" fill="currentColor"/>
</svg>
