<svg width="18" height="20" viewBox="0 0 18 20" fill="none" xmlns="http://www.w3.org/2000/svg">
<path d="M6.06701 11.5568L5.92327 11.544C4.08989 11.3806 3.17319 11.2989 2.88201 10.6841C2.59083 10.0693 3.11869 9.32999 4.1744 7.8514L8.47368 1.83001C9.17111 0.85323 9.51982 0.364839 9.82057 0.46869C10.1213 0.572542 10.0809 1.16738 9.99998 2.35706L9.7561 5.94353C9.68248 7.02611 9.64567 7.56741 9.96297 7.93169C10.2803 8.29596 10.8313 8.34508 11.9335 8.44331L12.0772 8.45612C13.9106 8.61953 14.8273 8.70122 15.1185 9.31603C15.4097 9.93083 14.8818 10.6701 13.8261 12.1487L9.52682 18.1701C8.8294 19.1469 8.48068 19.6353 8.17993 19.5314C7.87918 19.4276 7.91963 18.8327 8.00053 17.6431L8.24441 14.0566C8.31802 12.974 8.35483 12.4327 8.03753 12.0684C7.72023 11.7041 7.16916 11.655 6.06701 11.5568Z" fill="currentColor"/>
<path fill-rule="evenodd" clip-rule="evenodd" d="M17.16 0.117681C17.4251 0.312605 17.4788 0.68131 17.28 0.941208L16.2 2.35297H17.4C17.6273 2.35297 17.835 2.47885 17.9367 2.67814C18.0383 2.87742 18.0164 3.1159 17.88 3.29414L16.08 5.64707C15.8812 5.90697 15.5051 5.95965 15.24 5.76472C14.9749 5.5698 14.9212 5.20109 15.12 4.94119L16.2 3.52943H15C14.7727 3.52943 14.565 3.40355 14.4633 3.20427C14.3617 3.00498 14.3836 2.76651 14.52 2.58826L16.32 0.235328C16.5188 -0.0245699 16.8949 -0.0772421 17.16 0.117681Z" fill="currentColor"/>
<path fill-rule="evenodd" clip-rule="evenodd" d="M2.76 14.2353C3.0251 14.4302 3.07883 14.7989 2.88 15.0588L1.8 16.4706H3C3.22727 16.4706 3.43502 16.5964 3.53666 16.7957C3.63829 16.995 3.61636 17.2335 3.48 17.4117L1.68 19.7647C1.48118 20.0246 1.1051 20.0772 0.840003 19.8823C0.574907 19.6874 0.521181 19.3187 0.720003 19.0588L1.8 17.647H0.600003C0.37274 17.647 0.164982 17.5211 0.0633471 17.3219C-0.038288 17.1226 -0.0163545 16.8841 0.120003 16.7059L1.92 14.3529C2.11883 14.093 2.49491 14.0404 2.76 14.2353Z" fill="currentColor"/>
</svg>
