<svg width="14" height="20" viewBox="0 0 14 20" fill="none" xmlns="http://www.w3.org/2000/svg">
<path fill-rule="evenodd" clip-rule="evenodd" d="M7.46445 1.60856C7.32725 1.78341 7.16408 2.00186 6.96393 2.27051L2.53687 8.21254C1.98137 8.95815 1.60681 9.46358 1.39792 9.85642C1.19164 10.2444 1.23054 10.3703 1.2603 10.4305C1.29005 10.4908 1.36738 10.6 1.81593 10.7022C2.27014 10.8058 2.9228 10.8631 3.8875 10.9455L4.0754 10.9615C4.60872 11.0071 5.06892 11.0463 5.43386 11.1241C5.82532 11.2075 6.1945 11.3517 6.4785 11.6642C6.7625 11.9766 6.85622 12.3418 6.88262 12.7181C6.90724 13.0689 6.87647 13.5021 6.84082 14.0041L6.58703 17.5809C6.56381 17.9081 6.54525 18.1744 6.53554 18.3914C6.67275 18.2166 6.83592 17.9981 7.03607 17.7295L11.4631 11.7875C12.0186 11.0419 12.3932 10.5364 12.6021 10.1436C12.8084 9.75564 12.7695 9.62966 12.7397 9.56945C12.71 9.50925 12.6326 9.40003 12.1841 9.29776C11.7299 9.19421 11.0772 9.13691 10.1125 9.05451L9.9246 9.03846C9.39128 8.99294 8.93109 8.95366 8.56614 8.87588C8.17468 8.79246 7.8055 8.64831 7.5215 8.33585C7.2375 8.02338 7.14378 7.65823 7.11738 7.2819C7.09276 6.93108 7.12353 6.4979 7.15918 5.99588L7.41297 2.41911C7.43619 2.09191 7.45474 1.8256 7.46445 1.60856ZM7.29992 0.117081C7.49802 0.014414 7.76372 -0.0479914 8.04995 0.0467294C8.33619 0.14145 8.50161 0.346527 8.58751 0.543171C8.66521 0.721064 8.69115 0.917707 8.70135 1.09237C8.72131 1.4343 8.68802 1.90321 8.64885 2.45483L8.39477 6.03554C8.35572 6.58587 8.33181 6.94106 8.35036 7.20554C8.36774 7.45325 8.41843 7.53491 8.46116 7.58193C8.5039 7.62894 8.58181 7.68877 8.83948 7.74368C9.1146 7.80231 9.49173 7.83574 10.0764 7.88567L10.2759 7.90271C11.1759 7.97956 11.9213 8.0432 12.4755 8.16954C13.0458 8.29958 13.5904 8.53402 13.8604 9.08052C14.1305 9.62702 13.9698 10.1692 13.7075 10.6624C13.4526 11.1417 13.0234 11.7178 12.5051 12.4134L8.02295 18.4294C7.68555 18.8823 7.39873 19.2673 7.15511 19.522C7.03066 19.6521 6.87929 19.79 6.70008 19.8829C6.50198 19.9856 6.23628 20.048 5.95005 19.9533C5.66382 19.8586 5.49839 19.6535 5.4125 19.4568C5.33479 19.2789 5.30885 19.0823 5.29866 18.9076C5.27869 18.5657 5.31199 18.0968 5.35115 17.5452L5.60523 13.9645C5.64428 13.4141 5.66819 13.0589 5.64964 12.7945C5.63226 12.5468 5.58157 12.4651 5.53884 12.4181C5.49611 12.3711 5.41819 12.3112 5.16052 12.2563C4.8854 12.1977 4.50827 12.1643 3.92364 12.1143L3.72417 12.0973C2.82408 12.0204 2.07869 11.9568 1.52454 11.8305C0.954193 11.7004 0.409639 11.466 0.139557 10.9195C-0.130525 10.373 0.0302352 9.83083 0.292534 9.33755C0.547386 8.85828 0.976615 8.2822 1.49493 7.58657L5.97703 1.57065C6.31444 1.11773 6.60126 0.732722 6.84489 0.478023C6.96934 0.347921 7.12071 0.209957 7.29992 0.117081Z" fill="currentColor"/>
</svg>
