<svg width="15" height="20" viewBox="0 0 15 20" fill="none" xmlns="http://www.w3.org/2000/svg">
<path d="M7.23488 10.8488C5.24076 10.8488 3.61885 9.22688 3.61885 7.23276C3.61885 5.23864 5.24076 3.61673 7.23488 3.61673C9.229 3.61673 10.8509 5.23864 10.8509 7.23276C10.8509 9.22688 9.229 10.8488 7.23488 10.8488ZM7.23488 5.06314C6.03821 5.06314 5.06526 6.03609 5.06526 7.23276C5.06526 8.42942 6.03821 9.40237 7.23488 9.40237C8.43154 9.40237 9.40449 8.42942 9.40449 7.23276C9.40449 6.03609 8.43154 5.06314 7.23488 5.06314Z" fill="currentColor"/>
<path d="M7.23012 20C6.9987 20 6.77692 19.9267 6.58888 19.7888C6.49824 19.7223 6.42013 19.6432 6.35456 19.5545C0.619064 11.6552 0 8.30529 0 7.23205C0 3.24478 3.24478 0 7.23205 0C11.2193 0 14.4641 3.24478 14.4641 7.23205C14.4641 10.5443 9.60127 17.4996 8.11051 19.5526C7.9379 19.7888 7.6843 19.9431 7.39694 19.9865C7.34198 19.9961 7.28605 20 7.23012 20ZM7.23205 1.44641C4.04224 1.44641 1.44641 4.04224 1.44641 7.23205C1.44641 9.4412 4.49737 14.4776 7.23205 18.2971C9.96577 14.4776 13.0177 9.4412 13.0177 7.23205C13.0177 4.04224 10.4219 1.44641 7.23205 1.44641Z" fill="currentColor"/>
</svg>
