<svg width="18" height="20" viewBox="0 0 18 20" fill="currentColor" xmlns="http://www.w3.org/2000/svg">
<path fill-rule="evenodd" clip-rule="evenodd" d="M4.95704 6.40002H13.0429C13.9492 6.4 14.6898 6.39999 15.2745 6.4786C15.8856 6.56077 16.4155 6.73859 16.8385 7.16155C17.2614 7.5845 17.4393 8.11437 17.5214 8.72553C17.6 9.31022 17.6 10.0508 17.6 10.9571V13.0449C17.6 14.421 17.6 15.5149 17.4848 16.3718C17.366 17.2553 17.115 17.9762 16.5456 18.5456C15.9762 19.115 15.2552 19.3661 14.3718 19.4848C13.5148 19.6 12.421 19.6 11.0449 19.6H6.95512C5.57899 19.6 4.48515 19.6 3.62823 19.4848C2.74476 19.3661 2.02381 19.115 1.45441 18.5456C0.885009 17.9762 0.633961 17.2553 0.51518 16.3718C0.399971 15.5149 0.399981 14.421 0.399995 13.0449L0.399995 10.9571C0.399975 10.0508 0.399959 9.31022 0.478569 8.72553C0.560737 8.11437 0.738563 7.5845 1.16152 7.16155C1.58447 6.73859 2.11434 6.56077 2.7255 6.4786C3.31019 6.39999 4.05078 6.4 4.95704 6.40002ZM2.8854 7.6679C2.40731 7.73218 2.17288 7.84724 2.01005 8.01007C1.84721 8.17291 1.73215 8.40733 1.66787 8.88543C1.60127 9.38078 1.6 10.0403 1.6 11V13C1.6 14.4312 1.60127 15.4442 1.70448 16.2119C1.80537 16.9623 1.99366 17.3878 2.30294 17.6971C2.61222 18.0064 3.03772 18.1947 3.78813 18.2955C4.5558 18.3988 5.56882 18.4 7 18.4H11C12.4312 18.4 13.4442 18.3988 14.2119 18.2955C14.9623 18.1947 15.3878 18.0064 15.6971 17.6971C16.0063 17.3878 16.1946 16.9623 16.2955 16.2119C16.3987 15.4442 16.4 14.4312 16.4 13V11C16.4 10.0403 16.3987 9.38078 16.3321 8.88543C16.2678 8.40733 16.1528 8.17291 15.9899 8.01007C15.8271 7.84724 15.5927 7.73218 15.1146 7.6679C14.6192 7.6013 13.9598 7.60002 13 7.60002H5C4.04022 7.60002 3.38075 7.6013 2.8854 7.6679Z" fill="currentColor"/>
<path fill-rule="evenodd" clip-rule="evenodd" d="M4.4 5.00002C4.4 2.45951 6.45949 0.400024 9 0.400024C11.5405 0.400024 13.6 2.45951 13.6 5.00002V6.00002C13.6 6.3314 13.3314 6.60002 13 6.60002C12.6686 6.60002 12.4 6.3314 12.4 6.00002V5.00002C12.4 3.12226 10.8778 1.60002 9 1.60002C7.12223 1.60002 5.6 3.12226 5.6 5.00002V6.00002C5.6 6.3314 5.33137 6.60002 5 6.60002C4.66862 6.60002 4.4 6.3314 4.4 6.00002V5.00002Z" fill="currentColor"/>
</svg>
