<svg width="20" height="20" viewBox="0 0 20 20" fill="none" xmlns="http://www.w3.org/2000/svg">
<path fill-rule="evenodd" clip-rule="evenodd" d="M0 0H2.95308L8.37549 5.18275L5.84152 0H8.76537L14.1479 3.94894L11.6183 0H14.5244L20 3.01863L14.5244 19.9275H11.6183L14.1545 4.57582L8.76537 19.9275H5.84152L8.36884 5.83174L2.95308 19.9275H0L2.56767 6.72442L0 0ZM1.69493 1.17129H2.48718L7.185 5.6654L2.14647 18.7675H1.38043L3.78314 6.61783L1.69493 1.17129ZM7.71539 1.17129H8.38176L12.9401 4.51543L7.93218 18.7675H7.24098L9.67771 5.17526L7.71539 1.17129ZM13.7545 1.17129H14.222L18.5911 3.5798L13.6682 18.7675H12.9983L15.4669 3.83029L13.7545 1.17129Z" fill="currentColor"/>
</svg>
