<svg width="18" height="20" viewBox="0 0 18 20" fill="none" xmlns="http://www.w3.org/2000/svg">
<path fill-rule="evenodd" clip-rule="evenodd" d="M15.6743 0L15.7282 1.3113e-05C16.4265 0.000183642 17.0034 0.292404 17.3819 0.822293C17.7391 1.32223 17.878 1.97329 17.878 2.65003V15.1503C17.878 15.5491 17.7028 16.1671 17.3417 16.7448C16.9679 17.3429 16.3573 17.959 15.4336 18.2669C14.5876 18.5489 13.0469 18.8884 11.7684 17.6099C10.8458 16.6874 10.6675 15.5937 10.7953 14.6847C10.9178 13.8134 11.328 13.0527 11.6903 12.6904C11.8365 12.5442 12.1478 12.2551 12.5725 11.9995C12.9937 11.7459 13.568 11.5003 14.228 11.5003H16.5779L16.578 5.72012L6.87801 7.20819L6.87802 16.6503C6.87802 17.3459 6.59208 18.2055 5.68764 19.1099C5.14946 19.6481 4.40783 19.8939 3.75396 19.9708C3.13745 20.0434 2.48107 19.9794 2.0025 19.7627C1.54614 19.6322 0.969079 19.3046 0.548766 18.7152C0.0919026 18.0744 -0.140677 17.1793 0.0906262 16.0228C0.576694 13.5925 2.73517 13.0003 3.728 13.0003H5.57801L5.57802 4.15026C5.57802 3.19996 5.87843 2.55129 6.22916 2.13141C6.40017 1.92669 6.57459 1.78655 6.713 1.69493C6.78223 1.64911 6.84284 1.61516 6.89021 1.59105C6.91392 1.57898 6.93441 1.56933 6.95113 1.56184C6.95949 1.5581 6.96692 1.55489 6.97335 1.55219L6.98224 1.54851L6.98611 1.54695L6.9879 1.54623L7.01928 1.53386L7.11181 1.51073L8.01877 1.34653C8.58157 1.24491 9.36324 1.10421 10.2387 0.947851C11.9888 0.635304 14.1171 0.25966 15.6211 0.00886554L15.6743 0ZM7.01928 1.53386L7.11181 1.51073L7.04896 1.52216L6.98959 1.54556L7.01928 1.53386ZM7.44093 2.77223C7.43762 2.77433 7.43415 2.77658 7.43053 2.77897C7.38144 2.81147 7.30587 2.87025 7.22687 2.96482C7.07761 3.14351 6.87802 3.49484 6.87802 4.15026L6.87801 5.89298L16.578 4.40491V2.65003C16.578 2.12678 16.467 1.77795 16.3241 1.57794C16.2093 1.41716 16.0482 1.31204 15.7761 1.30098C14.2837 1.55036 12.1944 1.91916 10.4673 2.2276C9.5928 2.38378 8.81197 2.52434 8.24977 2.62585L7.44093 2.77223ZM5.57802 14.3003H3.728C3.05417 14.3003 1.67931 14.7081 1.36538 16.2778C1.19668 17.1213 1.38077 17.6428 1.60724 17.9604C1.84914 18.2997 2.18481 18.4695 2.38565 18.5197L2.45487 18.537L2.51869 18.5689C2.70236 18.6608 3.11373 18.7372 3.60207 18.6798C4.08153 18.6233 4.50658 18.4525 4.7684 18.1907C5.46395 17.4951 5.57802 16.9547 5.57802 16.6503L5.57802 14.3003ZM16.5779 12.8003H14.228C13.8881 12.8003 13.5482 12.9295 13.2429 13.1133C12.941 13.295 12.7133 13.5058 12.6095 13.6096C12.4718 13.7473 12.1711 14.2367 12.0826 14.8657C11.9995 15.4568 12.1102 16.1133 12.6876 16.6907C13.4091 17.4122 14.2747 17.2829 15.0225 17.0337C15.5987 16.8416 15.9881 16.4577 16.2393 16.0558C16.5032 15.6335 16.578 15.2515 16.578 15.1503L16.5779 12.8003Z" fill="currentColor"/>
</svg>
