<svg width="21" height="22" viewBox="0 0 21 22" fill="none" xmlns="http://www.w3.org/2000/svg">
<path d="M13.7882 18.6021C13.7882 20.4002 12.3306 21.8579 10.5324 21.8579C8.73429 21.8579 7.27661 20.4002 7.27661 18.6021C7.27661 16.8039 8.73429 15.3462 10.5324 15.3462C12.3306 15.3462 13.7882 16.8039 13.7882 18.6021Z" fill="#BB95BC"/>
<path d="M6.81046 14.8814C6.81046 16.6795 5.35278 18.1372 3.55464 18.1372C1.75651 18.1372 0.298828 16.6795 0.298828 14.8814C0.298828 13.0832 1.75651 11.6256 3.55464 11.6256C5.35278 11.6256 6.81046 13.0832 6.81046 14.8814Z" fill="#0094EB"/>
<path d="M6.81046 6.97649C6.81046 8.77462 5.35278 10.2323 3.55464 10.2323C1.75651 10.2323 0.298828 8.77462 0.298828 6.97649C0.298828 5.17835 1.75651 3.72067 3.55464 3.72067C5.35278 3.72067 6.81046 5.17835 6.81046 6.97649Z" fill="#00FFC3"/>
<path d="M13.7882 3.25581C13.7882 5.05395 12.3306 6.51163 10.5324 6.51163C8.73429 6.51163 7.27661 5.05395 7.27661 3.25581C7.27661 1.45768 8.73429 0 10.5324 0C12.3306 0 13.7882 1.45768 13.7882 3.25581Z" fill="#0094EB"/>
<path d="M13.7898 10.9297C13.7898 12.8563 12.228 14.4181 10.3014 14.4181C8.37485 14.4181 6.81305 12.8563 6.81305 10.9297C6.81305 9.00314 8.37485 7.44134 10.3014 7.44134C12.228 7.44134 13.7898 9.00314 13.7898 10.9297Z" fill="#0043EB"/>
<path d="M20.2968 7.43941C20.2968 9.23754 18.8391 10.6952 17.041 10.6952C15.2428 10.6952 13.7852 9.23754 13.7852 7.43941C13.7852 5.64127 15.2428 4.18359 17.041 4.18359C18.8391 4.18359 20.2968 5.64127 20.2968 7.43941Z" fill="#BB95BC"/>
<path d="M20.2968 14.8808C20.2968 16.679 18.8391 18.1366 17.041 18.1366C15.2428 18.1366 13.7852 16.679 13.7852 14.8808C13.7852 13.0827 15.2428 11.625 17.041 11.625C18.8391 11.625 20.2968 13.0827 20.2968 14.8808Z" fill="#00E7F4"/>
</svg>
