<svg width="20" height="20" viewBox="0 0 20 20" fill="none" xmlns="http://www.w3.org/2000/svg">
<g clip-path="url(#clip0_504_24777)">
<path d="M19.3707 19.9967C19.204 19.9967 19.0465 19.9317 18.929 19.8134L13.4998 14.3834C12.8657 14.9259 12.1515 15.3684 11.3723 15.6992C10.3482 16.1342 9.27232 16.355 8.17482 16.355C7.12732 16.355 6.09816 16.1542 5.11399 15.7567C3.08816 14.9392 1.50232 13.3825 0.648157 11.3717C-0.20601 9.3617 -0.226843 7.13836 0.590657 5.11337C1.40816 3.08837 2.96482 1.5017 4.97482 0.647532C5.99899 0.211699 7.07399 -0.00830078 8.17232 -0.00830078C9.21982 -0.00830078 10.249 0.193366 11.2332 0.590032C13.259 1.40753 14.8448 2.9642 15.699 4.97503C16.5532 6.98586 16.574 9.20836 15.7565 11.2334C15.4215 12.0634 14.9598 12.8242 14.3823 13.4984L19.8132 18.93C20.0565 19.1734 20.0565 19.57 19.8132 19.8142C19.6948 19.9317 19.5373 19.9967 19.3707 19.9967ZM8.17232 1.2417C7.24316 1.2417 6.33149 1.42837 5.46399 1.79753C3.76066 2.5217 2.44149 3.86503 1.74899 5.58087C1.05649 7.2967 1.07399 9.1792 1.79732 10.8825C2.52149 12.5859 3.86482 13.905 5.58066 14.5975C6.41482 14.9342 7.28732 15.1042 8.17399 15.1042C9.10316 15.1042 10.0148 14.9175 10.8823 14.5484C11.694 14.2034 12.4215 13.7167 13.044 13.1017C13.0523 13.09 13.0615 13.08 13.0707 13.0709C13.084 13.0575 13.0965 13.0467 13.1082 13.0384C13.744 12.3959 14.249 11.6275 14.5965 10.765C15.289 9.0492 15.2715 7.1667 14.5473 5.46337C13.824 3.76003 12.4798 2.44087 10.764 1.74837C9.93149 1.41253 9.05899 1.2417 8.17232 1.2417Z" fill="currentColor"/>
</g>
<defs>
<clipPath id="clip0_504_24777">
<rect width="20" height="20" fill="currentColor"/>
</clipPath>
</defs>
</svg>
