<svg width="16" height="16" viewBox="0 0 16 16" fill="none" xmlns="http://www.w3.org/2000/svg">
	<path opacity="0.9" fill-rule="evenodd" clip-rule="evenodd" d="M9.78061 8.38793C9.77769 9.00925 9.27166 9.51056 8.65034 9.50764C8.3742 9.50635 8.1493 9.72915 8.148 10.0053C8.14671 10.2814 8.36951 10.5063 8.64565 10.5076C9.81924 10.5131 10.7751 9.56622 10.7806 8.39263L10.7958 5.14266L10.8054 3.09979L13.1906 5.50745L13.901 4.80367L10.6663 1.53846L10.3144 1.18325L9.95921 1.53514L6.694 4.76986L7.39778 5.48028L9.80544 3.0951L9.79586 5.13797L9.78061 8.38793Z" fill="currentcolor"/>
	<path opacity="0.2" fill-rule="evenodd" clip-rule="evenodd" d="M5.26443 7.85156C5.26749 7.23025 5.77364 6.72905 6.39495 6.73211C6.67109 6.73347 6.89605 6.51072 6.8974 6.23458C6.89876 5.95844 6.67601 5.73348 6.39987 5.73212C5.22628 5.72635 4.27022 6.67305 4.26444 7.84664L4.24845 11.0966L4.2384 13.1395L1.85377 10.7313L1.1432 11.4349L4.37717 14.7008L4.72898 15.0561L5.08426 14.7043L8.35021 11.4703L7.6466 10.7598L5.23839 13.1444L5.24844 11.1015L5.26443 7.85156Z" fill="currentcolor"/>
</svg>
