<svg width="20" height="20" viewBox="0 0 20 20" fill="none" xmlns="http://www.w3.org/2000/svg">
<path fill-rule="evenodd" clip-rule="evenodd" d="M9.603 1.8251C9.32646 2.322 9.02606 3.08945 8.59171 4.20544L8.53974 4.33897C8.30937 4.93092 8.11827 5.42194 7.92088 5.80897C7.71303 6.21652 7.47427 6.55911 7.12318 6.82813C6.7721 7.09715 6.38501 7.23413 5.94646 7.32189C5.52999 7.40523 5.0187 7.45241 4.40231 7.50929L4.13655 7.53382C3.06021 7.63317 2.32618 7.70262 1.82716 7.82399C1.58219 7.88357 1.44548 7.94454 1.37172 7.99388C1.31609 8.0311 1.30967 8.0514 1.30635 8.06191C1.30619 8.06241 1.30604 8.06288 1.30589 8.06333C1.30575 8.06378 1.30559 8.06425 1.30542 8.06474C1.30191 8.07519 1.29512 8.09537 1.31762 8.15966C1.34746 8.24491 1.42063 8.37863 1.58088 8.57867C1.90732 8.98616 2.45144 9.49865 3.25078 10.2482L3.79376 10.7573C4.17295 11.1128 4.48789 11.4081 4.72843 11.6763C4.98136 11.9583 5.18319 12.2433 5.31555 12.5923C5.36036 12.7104 5.3976 12.8315 5.42705 12.9546C5.51406 13.3184 5.50849 13.6712 5.45951 14.0519C5.41292 14.414 5.32069 14.8423 5.20965 15.3581L5.13144 15.7214C4.91462 16.7286 4.76461 17.4297 4.70933 17.9345C4.65719 18.4108 4.71567 18.5281 4.71701 18.5335C4.77073 18.5934 4.83933 18.637 4.91538 18.6596C4.92061 18.6584 5.04859 18.6596 5.43817 18.3979C5.8511 18.1204 6.39172 17.6676 7.16772 17.0159L7.1917 16.9957C7.67266 16.5918 8.06871 16.2592 8.41703 16.0191C8.78079 15.7684 9.13966 15.5842 9.55569 15.5157C9.85003 15.4673 10.15 15.4673 10.4443 15.5157C10.8603 15.5842 11.2192 15.7684 11.583 16.0191C11.9313 16.2592 12.3273 16.5918 12.8083 16.9957L12.8323 17.0159C13.6083 17.6676 14.1489 18.1204 14.5618 18.3979C14.9514 18.6596 15.0794 18.6584 15.0846 18.6596C15.1607 18.637 15.2293 18.5934 15.283 18.5335C15.2843 18.5281 15.3428 18.4108 15.2907 17.9345C15.2354 17.4297 15.0854 16.7286 14.8686 15.7214L14.7903 15.3581C14.6793 14.8423 14.5871 14.4139 14.5405 14.0519C14.4915 13.6712 14.4859 13.3184 14.5729 12.9546C14.6024 12.8315 14.6396 12.7104 14.6844 12.5923C14.8168 12.2433 15.0186 11.9583 15.2716 11.6763C15.5121 11.4081 15.827 11.1128 16.2062 10.7573L16.7492 10.2482C17.5486 9.49865 18.0927 8.98616 18.4191 8.57867C18.5794 8.37863 18.6525 8.24491 18.6824 8.15966C18.7049 8.09536 18.6981 8.07519 18.6946 8.06474C18.6944 8.06425 18.6943 8.06378 18.6941 8.06333C18.694 8.06288 18.6938 8.06241 18.6937 8.06191C18.6903 8.0514 18.6839 8.0311 18.6283 7.99388C18.5545 7.94454 18.4178 7.88357 18.1728 7.82399C17.6738 7.70262 16.9398 7.63317 15.8634 7.53382L15.5977 7.50929C14.9813 7.45241 14.47 7.40523 14.0535 7.32189C13.615 7.23413 13.2279 7.09715 12.8768 6.82813C12.5257 6.55911 12.287 6.21652 12.0791 5.80897C11.8817 5.42194 11.6906 4.93092 11.4603 4.33897L11.4083 4.20544C10.9739 3.08945 10.6735 2.322 10.397 1.8251C10.2606 1.57994 10.1562 1.45073 10.0827 1.38635C10.0285 1.33891 10.0082 1.34 10.0013 1.34037C10.0008 1.3404 10.0004 1.34043 10 1.34043C9.99963 1.34043 9.9992 1.3404 9.9987 1.34037C9.99182 1.34 9.97151 1.33891 9.91732 1.38635C9.84379 1.45073 9.73943 1.57994 9.603 1.8251ZM8.47481 1.15819C8.79285 0.58671 9.2496 0 10 0C10.7504 0 11.2072 0.58671 11.5252 1.15819C11.8527 1.74666 12.186 2.60315 12.5948 3.65344L12.6551 3.80842C12.9008 4.43986 13.0677 4.86641 13.2304 5.18531C13.386 5.49054 13.5131 5.64537 13.6528 5.75244C13.7925 5.8595 13.973 5.94031 14.3014 6.00604C14.6446 6.07471 15.089 6.11655 15.7465 6.17724L16.0345 6.20382C17.0422 6.2968 17.8706 6.37324 18.4716 6.5194C19.0656 6.66389 19.6985 6.93638 19.9268 7.63603C20.1552 8.33569 19.8107 8.94696 19.4221 9.43207C19.0289 9.9228 18.4137 10.4997 17.6653 11.2013L17.1017 11.7298C16.6972 12.1091 16.4244 12.3656 16.2266 12.5862C16.037 12.7977 15.9482 12.9421 15.8958 13.0803C15.8717 13.1439 15.8516 13.2091 15.8357 13.2754C15.8013 13.4194 15.7931 13.5902 15.8298 13.8757C15.8681 14.1734 15.9475 14.545 16.066 15.0954L16.1473 15.473C16.353 16.4284 16.5191 17.1997 16.5831 17.7842C16.643 18.3319 16.6509 18.9699 16.2547 19.4244C16.032 19.68 15.7426 19.864 15.4211 19.9544C14.8492 20.1153 14.2995 19.8217 13.8515 19.5207C13.3734 19.1995 12.7791 18.7004 12.043 18.0822L12.0107 18.055C11.4998 17.6259 11.1512 17.334 10.86 17.1333C10.5785 16.9393 10.3988 16.8656 10.2392 16.8394C10.0808 16.8133 9.91925 16.8133 9.76075 16.8394C9.60115 16.8656 9.42153 16.9393 9.14002 17.1333C8.84885 17.334 8.50022 17.6259 7.98929 18.055L7.95693 18.0822C7.22084 18.7004 6.62656 19.1995 6.1485 19.5207C5.70054 19.8217 5.15084 20.1153 4.57893 19.9544C4.25739 19.864 3.96795 19.68 3.74525 19.4244C3.34914 18.9699 3.35697 18.3319 3.41694 17.7842C3.48094 17.1997 3.647 16.4284 3.85269 15.473L3.93399 15.0954C4.05247 14.545 4.1319 14.1734 4.1702 13.8757C4.20694 13.5902 4.19869 13.4194 4.16425 13.2754C4.14839 13.2091 4.12833 13.1439 4.10421 13.0803C4.0518 12.9421 3.96305 12.7977 3.77336 12.5862C3.57558 12.3656 3.30284 12.1091 2.89825 11.7298L2.33468 11.2013C1.5863 10.4997 0.971061 9.9228 0.577946 9.43207C0.189324 8.94696 -0.155164 8.33569 0.0731531 7.63603C0.301471 6.93638 0.934355 6.66389 1.52844 6.5194C2.12938 6.37324 2.95781 6.2968 3.96549 6.20382L4.25349 6.17724C4.911 6.11655 5.3554 6.07471 5.69855 6.00604C6.027 5.94031 6.20746 5.8595 6.34718 5.75244C6.48691 5.64537 6.61397 5.49054 6.76964 5.18531C6.93228 4.86641 7.09915 4.43986 7.34491 3.80841L7.40522 3.65345C7.81398 2.60315 8.1473 1.74666 8.47481 1.15819Z" fill="currentColor"/>
</svg>
