<svg width="20" height="21" viewBox="0 0 20 21" fill="none" xmlns="http://www.w3.org/2000/svg">
<path d="M1.4375 11.8804C1.0525 11.8795 0.690837 11.7295 0.41917 11.457C0.148337 11.1845 -0.000829861 10.8229 3.47283e-06 10.4379V1.44704C-0.000829861 1.0637 0.148337 0.701204 0.420004 0.429538C0.69167 0.157038 1.0525 0.00620443 1.4375 0.00537109L7.94 0.0162044C8.7325 0.0195378 9.37667 0.667038 9.375 1.4587V10.4379C9.37667 11.2304 8.7325 11.8779 7.93917 11.8804H1.4375ZM1.43834 1.25537C1.3875 1.25537 1.34167 1.27454 1.30584 1.3112C1.26917 1.34787 1.25 1.39454 1.25 1.44537V10.4387C1.25 10.4912 1.26917 10.5387 1.305 10.5745C1.34167 10.6112 1.3875 10.6304 1.43834 10.6304H7.9375C8.04084 10.6304 8.125 10.5445 8.125 10.4395V1.45787C8.125 1.35204 8.04 1.26704 7.93584 1.2662L1.43834 1.25537Z" fill="currentColor"/>
<path d="M12.0592 6.88037C11.6742 6.88037 11.3184 6.7337 11.0484 6.4687C10.7759 6.20037 10.6242 5.84204 10.6217 5.45954V1.44287C10.6267 0.655371 11.2684 0.0162044 12.0525 0.0162044L18.5559 0.00537109C19.3475 0.00537109 19.99 0.642871 19.9967 1.42704V5.4537C19.9909 6.24204 19.3484 6.88037 18.5642 6.88037H12.0592ZM12.055 1.2662C11.9542 1.2662 11.8725 1.34704 11.8717 1.4462V5.4537C11.8717 5.4987 11.8909 5.5437 11.9259 5.57787C11.9692 5.62037 12.0217 5.62954 12.0584 5.63037H18.5592C18.6634 5.63037 18.7459 5.54954 18.7467 5.44954V1.43204C18.7459 1.3362 18.6634 1.25537 18.5634 1.25537L12.055 1.2662Z" fill="currentColor"/>
<path d="M1.435 19.9945C0.645835 19.9945 0.0041684 19.3554 1.73641e-06 18.5695V14.5587C0.0041684 13.7704 0.646668 13.1304 1.4325 13.1304H7.9375C8.7275 13.1304 9.37 13.7695 9.375 14.5554V18.5762C9.3725 18.9629 9.22167 19.322 8.94917 19.592C8.67917 19.8587 8.32083 20.0054 7.94167 20.0054L1.435 19.9945ZM1.42167 14.3804C1.32917 14.3804 1.25084 14.4637 1.25 14.562V18.5662C1.25084 18.6637 1.3325 18.7445 1.4325 18.7445L7.93833 18.7554C7.99083 18.7554 8.02583 18.7462 8.07 18.702C8.10583 18.667 8.125 18.622 8.125 18.5729V14.5587C8.12417 14.4612 8.0425 14.3804 7.94167 14.3804H1.42167Z" fill="currentColor"/>
<path d="M12.0592 20.0054C11.6742 20.0045 11.3125 19.8537 11.0409 19.5812C10.77 19.3087 10.6209 18.947 10.6217 18.562V9.57287C10.6209 9.19037 10.7692 8.8287 11.0409 8.55537C11.3125 8.28204 11.6734 8.1312 12.0575 8.13037H18.5592C18.945 8.1312 19.3067 8.28204 19.5784 8.55537C19.85 8.82787 19.9984 9.19037 19.9967 9.57537V18.5529C19.9984 19.3437 19.355 19.9912 18.5634 19.9954L12.0617 20.0062L12.0592 20.0054ZM12.06 9.38037C11.9559 9.3812 11.8717 9.4662 11.8717 9.5712V18.5629C11.8717 18.6162 11.8909 18.6629 11.9267 18.6995C11.9634 18.7362 12.0092 18.7554 12.0609 18.7554L18.5584 18.7445C18.6617 18.7437 18.7467 18.6579 18.7467 18.5529V9.57287C18.7467 9.51954 18.7275 9.47287 18.6917 9.4362C18.6559 9.39954 18.6092 9.38037 18.5575 9.38037H12.06Z" fill="currentColor"/>
</svg>
