<svg width="74" height="79" viewBox="0 0 74 79" fill="none" xmlns="http://www.w3.org/2000/svg">
    <path d="M37.0018 9.86667C35.6402 9.86667 34.5352 8.7616 34.5352 7.4V2.46667C34.5352 1.10507 35.6402 0 37.0018 0C38.3634 0 39.4685 1.10507 39.4685 2.46667V7.4C39.4685 8.7616 38.3634 9.86667 37.0018 9.86667Z" fill="currentColor"/>
    <path d="M2.46667 39.4646C1.10507 39.4646 0 38.3595 0 36.9979C0 35.6363 1.10507 34.5312 2.46667 34.5312H7.4C8.7616 34.5312 9.86667 35.6363 9.86667 36.9979C9.86667 38.3595 8.7616 39.4646 7.4 39.4646H2.46667Z" fill="currentColor"/>
    <path d="M13.4817 18.2769C12.8404 18.2769 12.2352 18.0335 11.7715 17.5895L8.15371 14.1131C7.17362 13.1692 7.14402 11.6037 8.08465 10.6236C8.54838 10.1435 9.19629 9.86719 9.86394 9.86719C10.5053 9.86719 11.1104 10.1106 11.5742 10.5546L15.1919 14.0309C15.6655 14.4881 15.9352 15.1031 15.9484 15.7609C15.9615 16.4187 15.7182 17.0435 15.261 17.5204C14.7973 18.0006 14.1494 18.2769 13.4817 18.2769Z" fill="currentColor"/>
    <path d="M66.5995 39.4646C65.2379 39.4646 64.1328 38.3595 64.1328 36.9979C64.1328 35.6363 65.2379 34.5312 66.5995 34.5312H71.5328C72.8944 34.5312 73.9995 35.6363 73.9995 36.9979C73.9995 38.3595 72.8944 39.4646 71.5328 39.4646H66.5995Z" fill="currentColor"/>
    <path d="M60.5215 18.2769C59.8538 18.2769 59.2059 18.0006 58.7422 17.5204C57.7982 16.5371 57.8311 14.9748 58.8112 14.0309L62.429 10.5546C62.8927 10.1106 63.4979 9.86719 64.1392 9.86719C64.8069 9.86719 65.4548 10.1435 65.9185 10.6236C66.8624 11.607 66.8295 13.1692 65.8495 14.1131L62.2317 17.5895C61.7679 18.0335 61.1595 18.2769 60.5215 18.2769Z" fill="currentColor"/>
    <path d="M37.0006 78.9392C35.639 78.9392 34.5339 77.8342 34.5339 76.4726V71.5392H32.0673C27.9858 71.5392 24.6673 68.2207 24.6673 64.1392V58.3574C17.0403 54.0588 12.2221 45.7543 12.3339 36.9862C12.5674 23.403 23.3813 12.5793 36.9578 12.3359C50.5936 12.576 61.4272 23.3932 61.6673 36.9598C61.7824 45.7412 56.9674 54.0555 49.3339 58.3574V64.1392C49.3339 68.2207 46.0154 71.5392 41.9339 71.5392H39.4673V76.4726C39.4673 77.8342 38.3622 78.9392 37.0006 78.9392ZM29.6006 64.1392C29.6006 65.5008 30.7057 66.6059 32.0673 66.6059H41.9339C43.2955 66.6059 44.4006 65.5008 44.4006 64.1392V59.2059H29.6006V64.1392ZM46.5482 54.2726C52.8399 50.9113 56.8293 44.1822 56.7339 37.0388C56.5399 26.1493 47.8539 17.4666 36.9578 17.2726C26.121 17.4666 17.4547 26.1591 17.2673 37.0618C17.1752 44.1888 21.1646 50.9146 27.453 54.2726H34.5339V45.4287L27.8575 38.7523C27.3905 38.2853 27.1339 37.6637 27.1339 37.0059C27.1339 36.3481 27.3905 35.7265 27.8575 35.2628C28.3212 34.7958 28.9428 34.5392 29.6006 34.5392C30.2584 34.5392 30.88 34.7958 31.3437 35.2628L37.0006 40.9197L42.6575 35.2628C43.1245 34.7958 43.7428 34.5392 44.4006 34.5392C45.0584 34.5392 45.68 34.7958 46.1437 35.2628C46.6107 35.7265 46.8673 36.3481 46.8673 37.0059C46.8673 37.6637 46.6107 38.2853 46.1437 38.749L39.4673 45.4255V54.2726H46.5482Z" fill="currentColor"/>
</svg>