<svg width="16" height="20" viewBox="0 0 16 20" fill="none" xmlns="http://www.w3.org/2000/svg">
<path fill-rule="evenodd" clip-rule="evenodd" d="M4.02805 1.9802L4.05941 1.9802V3.16832C3.35176 3.16832 2.86575 3.16903 2.49272 3.20698C2.12962 3.24392 1.94001 3.31115 1.80416 3.40192C1.65281 3.50305 1.52286 3.633 1.42173 3.78436C1.33096 3.9202 1.26372 4.10982 1.22679 4.47292C1.18884 4.84595 1.18812 5.33196 1.18812 6.0396V15.4455C1.18812 16.3958 1.18938 17.0488 1.25532 17.5392C1.31896 18.0126 1.43289 18.2447 1.59411 18.4059C1.75533 18.5671 1.98744 18.681 2.4608 18.7447C2.95125 18.8106 3.60419 18.8119 4.55446 18.8119H10.4951C11.4453 18.8119 12.0983 18.8106 12.5887 18.7447C13.0621 18.681 13.2942 18.5671 13.4554 18.4059C13.6166 18.2447 13.7305 18.0126 13.7942 17.5392C13.8601 17.0488 13.8614 16.3958 13.8614 15.4455V6.0396C13.8614 5.33196 13.8607 4.84595 13.8227 4.47292C13.7858 4.10982 13.7186 3.9202 13.6278 3.78436C13.5267 3.63301 13.3967 3.50305 13.2453 3.40192C13.1095 3.31115 12.9199 3.24392 12.5568 3.20698C12.1838 3.16903 11.6977 3.16832 10.9901 3.16832V1.9802L11.0215 1.9802C11.6901 1.98019 12.2368 1.98018 12.677 2.02496C13.1341 2.07146 13.5418 2.17108 13.9054 2.41404C14.1865 2.60185 14.4279 2.84319 14.6157 3.12427C14.8586 3.48788 14.9582 3.89563 15.0047 4.35267C15.0495 4.79293 15.0495 5.33963 15.0495 6.00827V15.4881C15.0495 16.3854 15.0495 17.1186 14.9717 17.6975C14.8904 18.3026 14.7143 18.8272 14.2955 19.246C13.8768 19.6648 13.3521 19.8408 12.747 19.9222C12.1681 20 11.4349 20 10.5376 20H4.51193C3.61464 20 2.88139 20 2.30248 19.9222C1.69737 19.8408 1.17275 19.6648 0.753984 19.246C0.335217 18.8272 0.159152 18.3026 0.0777969 17.6975C-3.43317e-05 17.1186 -1.86364e-05 16.3854 6.02284e-07 15.4881L8.38342e-07 6.00825C-9.96131e-06 5.33962 -1.88146e-05 4.79292 0.0447668 4.35267C0.0912605 3.89563 0.190888 3.48788 0.433842 3.12427C0.621656 2.84319 0.862994 2.60185 1.14408 2.41404C1.50768 2.17108 1.91544 2.07146 2.37248 2.02496C2.81273 1.98018 3.35942 1.98019 4.02805 1.9802Z" fill="currentColor"/>
<path fill-rule="evenodd" clip-rule="evenodd" d="M3.9604 2.57426C3.9604 1.15253 5.11293 0 6.53465 0H8.51485C9.93657 0 11.0891 1.15253 11.0891 2.57426C11.0891 3.99598 9.93657 5.14851 8.51485 5.14851H6.53465C5.11293 5.14851 3.9604 3.99598 3.9604 2.57426ZM6.53465 1.18812C5.76911 1.18812 5.14852 1.80871 5.14852 2.57426C5.14852 3.3398 5.76911 3.9604 6.53465 3.9604H8.51485C9.28039 3.9604 9.90099 3.3398 9.90099 2.57426C9.90099 1.80871 9.28039 1.18812 8.51485 1.18812H6.53465Z" fill="currentColor"/>
<path fill-rule="evenodd" clip-rule="evenodd" d="M10.8451 9.1549C11.0384 9.34823 11.0384 9.66167 10.8451 9.855L7.58481 13.1153C7.00483 13.6953 6.06448 13.6953 5.4845 13.1153L4.2044 11.8352C4.01107 11.6419 4.01107 11.3284 4.2044 11.1351C4.39773 10.9418 4.71118 10.9418 4.90451 11.1351L6.1846 12.4152C6.37793 12.6085 6.69138 12.6085 6.88471 12.4152L10.145 9.1549C10.3383 8.96157 10.6518 8.96157 10.8451 9.1549Z" fill="currentColor"/>
</svg>
