<svg width="15" height="17" viewBox="0 0 15 17" fill="none" xmlns="http://www.w3.org/2000/svg">
    <path d="M7.56137 0.86285L13.1747 3.29848C13.5635 3.46717 13.7951 3.87596 13.7426 4.30088L13.1608 9.01303C12.9817 10.4636 12.2651 11.7912 11.1558 12.727L7.7951 15.5624C7.44313 15.8594 6.93187 15.8594 6.5799 15.5624L3.21919 12.727C2.10994 11.7912 1.39325 10.4636 1.21416 9.01303L0.63237 4.30088C0.579907 3.87596 0.811505 3.46717 1.20027 3.29848L6.81363 0.86285C7.05238 0.759258 7.32262 0.759258 7.56137 0.86285Z" stroke="currentColor" stroke-width="0.994286" stroke-linecap="round"/>
    <path d="M4.5 7.15714L6.32286 9.58762C6.65429 10.0295 7.31714 10.0295 7.64857 9.58762L10.7143 5.5" stroke="currentColor" stroke-width="0.828571"/>
</svg>
