<svg width="20" height="21" viewBox="0 0 20 21" fill="none" xmlns="http://www.w3.org/2000/svg">
<path d="M13.9643 20.0191C11.6517 20.0191 9.45673 19.0221 7.94254 17.2843L7.9075 17.2443L6.72033 18.4315C6.36661 18.7852 5.89524 18.9804 5.39302 18.9804C4.89079 18.9804 4.41943 18.7852 4.06486 18.4315C3.7103 18.0769 3.51508 17.6055 3.51508 17.1041C3.51508 16.6028 3.7103 16.1314 4.06486 15.7768L6.27734 13.5652C6.52094 13.3207 6.52094 12.9236 6.27734 12.6792C6.15971 12.5616 6.00203 12.4965 5.83434 12.4965C5.66666 12.4965 5.50898 12.5616 5.39135 12.6792L3.17971 14.8917C2.82014 15.232 2.35879 15.4164 1.87491 15.4164C1.35433 15.4164 0.871288 15.2087 0.514222 14.8316C-0.170712 14.1091 -0.171546 12.9762 0.512553 12.252L3.25562 9.50898C3.06374 9.41804 2.88771 9.29374 2.73421 9.1394C2.38131 8.78316 2.18609 8.3118 2.18693 7.80957C2.18776 7.30735 2.38381 6.83598 2.73921 6.48225L8.49065 0.733321C8.96285 0.260291 9.59105 0 10.2593 0C10.9284 0 11.5566 0.260291 12.0288 0.731652L12.3316 1.03449C12.9748 0.635712 13.7057 0.426311 14.4632 0.426311C16.7057 0.426311 18.5302 2.25085 18.5302 4.49336C18.5302 5.25088 18.3208 5.98253 17.922 6.62491C17.922 6.62491 18.2374 6.9411 18.2407 6.94444C18.7004 7.40746 18.9582 8.03399 18.9582 8.69807C18.9582 9.36632 18.6979 9.99452 18.2249 10.4667L12.4734 16.2182C12.1189 16.5727 11.6475 16.7679 11.1461 16.7688C10.6439 16.7688 10.1734 16.5736 9.8188 16.219C9.66613 16.0663 9.54266 15.8911 9.45173 15.7009L8.79599 16.3566L8.88776 16.4618C10.1642 17.9267 12.0146 18.7668 13.9651 18.7668C15.5894 18.7668 17.157 18.1803 18.3801 17.115C18.5661 16.9531 18.7455 16.7779 18.914 16.5952C19.0325 16.4668 19.2001 16.3933 19.3745 16.3933C19.5322 16.3933 19.6823 16.4526 19.7983 16.5585C19.9209 16.6712 19.9927 16.8255 19.9994 16.9924C20.0069 17.1592 19.9476 17.3194 19.8342 17.442C19.6348 17.6589 19.4221 17.8658 19.2018 18.0577C17.7502 19.3233 15.8906 20.0191 13.9643 20.0191ZM5.83601 11.2451C6.33824 11.2451 6.8096 11.4403 7.16333 11.794C7.51789 12.1486 7.71311 12.62 7.71311 13.1214C7.71311 13.6227 7.51789 14.0941 7.16333 14.4487L4.95085 16.6603C4.70641 16.9039 4.70641 17.3019 4.95085 17.5455C5.06849 17.6639 5.22616 17.7282 5.39385 17.7282C5.56154 17.7282 5.71838 17.6631 5.83601 17.5455L12.0304 11.351C12.1489 11.2326 12.3058 11.1675 12.4726 11.1675C12.6395 11.1675 12.7971 11.2326 12.9148 11.351C13.1584 11.5946 13.1584 11.9918 12.9148 12.2362L10.7023 14.4487C10.4587 14.6923 10.4587 15.0902 10.7023 15.3338C10.8208 15.4515 10.9776 15.5165 11.1445 15.5165C11.3113 15.5165 11.469 15.4515 11.5875 15.333L14.2421 12.6784C14.9737 11.9459 14.9737 10.7554 14.2421 10.0237L8.93281 4.71444C8.57908 4.36071 8.10689 4.1655 7.60549 4.1655C7.1041 4.1655 6.6319 4.36155 6.27817 4.71528L3.62354 7.36741C3.50424 7.48671 3.43833 7.64355 3.43833 7.81124C3.43833 7.97893 3.5034 8.13661 3.62103 8.25507C3.7395 8.37354 3.89718 8.43861 4.06486 8.43861C4.22588 8.43861 4.37855 8.37854 4.49451 8.26842C4.49868 8.26425 6.7195 6.0426 6.7195 6.0426C6.83797 5.92413 6.99481 5.85906 7.16166 5.85906C7.32852 5.85906 7.48619 5.92413 7.60382 6.0426C7.72229 6.16023 7.78736 6.3179 7.78736 6.48476C7.78736 6.65161 7.72229 6.80929 7.60382 6.92692L5.40887 9.12188C5.40303 9.12855 5.39719 9.13522 5.39135 9.14106L1.41106 13.1239C1.19332 13.3549 1.19582 13.7304 1.42441 13.9715C1.54371 14.0974 1.70472 14.1667 1.87908 14.1667C2.0401 14.1667 2.19277 14.1058 2.30873 13.9957L4.50786 11.7949C4.86242 11.4403 5.33378 11.2451 5.83601 11.2451ZM15.1272 9.1394C15.6128 9.62494 15.9181 10.2456 16.0107 10.9105L17.3389 9.58239C17.575 9.34629 17.7051 9.03178 17.706 8.69807C17.706 8.36353 17.5758 8.04984 17.3397 7.81375L17.1061 7.58015C17.102 7.58432 17.097 7.58766 17.0928 7.59183C17.0803 7.60351 17.0678 7.61436 17.0544 7.6252C16.3511 8.20919 15.4626 8.54039 14.5474 8.55958L15.1272 9.1394ZM12.0955 2.9775C11.8019 3.43217 11.6475 3.95276 11.6475 4.4942C11.6475 6.04677 12.9106 7.30985 14.4632 7.30985C15.0038 7.30985 15.5235 7.15551 15.9782 6.86268C15.7838 5.8966 15.3391 5.0056 14.6842 4.27395C13.9526 3.61822 13.0616 3.17188 12.0955 2.9775ZM13.1968 1.98055C14.0652 2.27755 14.8678 2.74974 15.5477 3.3671C15.5619 3.38045 15.5761 3.3938 15.5894 3.40882C16.2068 4.09041 16.6781 4.89381 16.9751 5.76228C17.1737 5.37101 17.2788 4.93636 17.2788 4.49336C17.2788 2.94079 16.0157 1.67771 14.4632 1.67771C14.021 1.67855 13.5872 1.78366 13.1968 1.98055ZM8.04682 2.94663C8.7159 3.04007 9.33326 3.34541 9.81797 3.83012L10.397 4.4091C10.4161 3.49641 10.7448 2.61126 11.328 1.9063C11.338 1.89212 11.3564 1.87126 11.3772 1.8504L11.1453 1.61848C10.9084 1.38155 10.5938 1.2514 10.2601 1.2514C9.92559 1.2514 9.61191 1.38155 9.37581 1.61764L8.04682 2.94663Z" fill="currentColor"/>
</svg>
