<svg width="20" height="17" viewBox="0 0 20 17" fill="none" xmlns="http://www.w3.org/2000/svg">
<path d="M6.53125 0L6.31641 0.355469L0.238281 10.2344L0 10.6172L0.214844 11.0195L3.25391 16.3398L3.46875 16.7188H16.5312L16.7461 16.3398L19.7852 11.0195L20 10.6172L19.7617 10.2383L13.6797 0.355469L13.4648 0H6.53125ZM8.3125 1.51953H12.6133L17.7695 9.87891H13.4687L8.3125 1.51953ZM6.96094 2.20703L9.21875 5.89062L3.94531 14.4648L1.75781 10.6406L6.96094 2.20703ZM10.1172 7.33984L11.6836 9.88281H8.54688L10.1172 7.33984ZM7.625 11.3984H17.8164L15.6328 15.1992H5.27344L7.625 11.3984Z" fill="currentColor"/>
</svg>
