<svg width="20" height="20" viewBox="0 0 20 20" fill="none" xmlns="http://www.w3.org/2000/svg">
<g clip-path="url(#clip0_504_24740)">
<path d="M-8.19589e-08 4.375C-3.6754e-08 3.34083 0.840833 2.5 1.875 2.5L11.875 2.5C12.9092 2.5 13.75 3.34083 13.75 4.375L13.75 5.625C13.75 5.97 13.47 6.25 13.125 6.25C12.78 6.25 12.5 5.97 12.5 5.625L12.5 4.375C12.5 4.03 12.22 3.75 11.875 3.75L1.875 3.75C1.53 3.75 1.25 4.03 1.25 4.375L1.25 15.625C1.25 15.97 1.53 16.25 1.875 16.25L11.875 16.25C12.22 16.25 12.5 15.97 12.5 15.625L12.5 14.375C12.5 14.03 12.78 13.75 13.125 13.75C13.47 13.75 13.75 14.03 13.75 14.375L13.75 15.625C13.75 16.6592 12.9092 17.5 11.875 17.5L1.875 17.5C0.840833 17.5 -6.18917e-07 16.6592 -5.73712e-07 15.625L-8.19589e-08 4.375Z" fill="currentColor"/>
<path d="M10 10C10 9.655 10.28 9.375 10.625 9.375L17.8658 9.375L15.8083 7.31667C15.69 7.19917 15.625 7.04167 15.625 6.875C15.625 6.70833 15.69 6.55083 15.8083 6.43333C15.9258 6.315 16.0833 6.25 16.25 6.25C16.4167 6.25 16.5742 6.315 16.6917 6.43333L19.8158 9.5575C19.8742 9.61583 19.92 9.68417 19.9517 9.76167C19.9542 9.76833 19.9567 9.775 19.9592 9.7825C19.9867 9.85417 20 9.92667 20 10C20 10.0742 19.9867 10.1475 19.96 10.2175C19.9583 10.2233 19.9558 10.2292 19.9542 10.2342C19.9208 10.315 19.875 10.3833 19.8158 10.4425L16.6917 13.5667C16.5742 13.685 16.4167 13.75 16.25 13.75C16.0833 13.75 15.9258 13.685 15.8083 13.5667C15.6908 13.4483 15.625 13.2917 15.625 13.125C15.625 12.9583 15.69 12.8008 15.8083 12.6833L17.8667 10.625L10.6258 10.625C10.28 10.625 10 10.345 10 10Z" fill="currentColor"/>
</g>
<defs>
<clipPath id="clip0_504_24740">
<rect width="20" height="20" fill="white" transform="translate(20) rotate(90)"/>
</clipPath>
</defs>
</svg>
