<svg width="29" height="18" viewBox="0 0 29 18" fill="none" xmlns="http://www.w3.org/2000/svg">
<path d="M26.6236 0.922874C26.1982 0.587419 25.6909 0.129238 24.7664 0.0146921C23.8991 -0.0998534 23.0155 0.481055 22.4182 0.865601C21.8209 1.25015 20.6918 2.37924 20.2255 2.72287C19.7591 3.06651 18.5645 3.3856 16.6418 4.53924C14.7191 5.69287 7.17545 10.5365 7.17545 10.5365L9.13909 10.5611L0.384546 15.0692H1.26L0 16.0265C0 16.0265 1.11273 16.3211 2.04545 15.732V16.002C2.04545 16.002 12.4691 11.8947 14.4818 12.9583L13.2545 13.3183C13.3609 13.3183 15.3409 13.4492 15.3409 13.4492C15.389 13.8592 15.5268 14.2536 15.7446 14.6043C15.9623 14.955 16.2547 15.2534 16.6009 15.4783C17.7955 16.2638 17.82 16.6974 17.82 16.6974C17.82 16.6974 17.1982 16.9511 17.1982 17.2701C17.1982 17.2701 18.1145 16.992 18.9655 17.0165C19.5055 17.037 20.0411 17.1221 20.5609 17.2701C20.5609 17.2701 20.4955 16.9265 19.6691 16.6974C18.8427 16.4683 18.0245 15.5683 17.6236 15.0774C17.3781 14.7649 17.218 14.394 17.1592 14.0009C17.1004 13.6079 17.1448 13.2063 17.2882 12.8356C17.5745 12.0911 18.5727 11.682 20.6345 10.6183C23.0645 9.35833 23.6209 8.4256 23.9645 7.69742C24.3082 6.96924 24.8155 5.52106 25.1018 4.84197C25.4618 3.96651 25.9036 3.50015 26.2718 3.22196C26.64 2.94378 28.2764 2.33015 28.2764 2.33015C28.2764 2.33015 27.0245 1.24196 26.6236 0.922874Z" fill="currentColor"/>
</svg>
