<?xml version="1.0" standalone="no"?>
<!DOCTYPE svg PUBLIC "-//W3C//DTD SVG 20010904//EN"
 "http://www.w3.org/TR/2001/REC-SVG-20010904/DTD/svg10.dtd">
<svg version="1.0" xmlns="http://www.w3.org/2000/svg"
 width="260.000000pt" height="260.000000pt" viewBox="0 0 260.000000 260.000000"
 preserveAspectRatio="xMidYMid meet">
<metadata>
Created by potrace 1.11, written by Peter Selinger 2001-2013
</metadata>
<g transform="translate(0.000000,260.000000) scale(0.100000,-0.100000)"
fill="#000000" stroke="none">
<path d="M0 1300 l0 -1300 1300 0 1300 0 0 1300 0 1300 -1300 0 -1300 0 0
-1300z m1524 871 c101 -27 224 -86 305 -148 35 -26 73 -54 83 -62 18 -13 29
-5 143 109 69 68 128 121 132 117 4 -4 -289 -304 -651 -666 -430 -430 -656
-663 -651 -671 16 -26 161 -111 224 -131 94 -30 229 -36 325 -15 223 50 404
226 461 451 30 118 15 278 -36 394 l-20 45 103 103 c118 119 105 120 169 -12
64 -132 82 -217 82 -385 0 -171 -18 -253 -88 -395 -113 -232 -331 -409 -585
-477 -114 -30 -310 -32 -420 -4 -148 38 -278 103 -372 185 -25 23 -50 41 -55
41 -4 0 -64 -56 -132 -124 -69 -69 -129 -122 -134 -119 -5 3 289 305 654 670
l664 664 -40 34 c-52 45 -164 101 -240 120 -76 19 -214 19 -290 0 -225 -57
-401 -238 -451 -461 -24 -108 -16 -237 21 -341 l28 -78 -97 -95 c-54 -52 -103
-95 -109 -95 -18 0 -94 161 -118 251 -32 117 -32 326 -1 444 92 341 368 600
709 665 105 20 282 13 387 -14z"/>
</g>
</svg>
