<svg xmlns="http://www.w3.org/2000/svg" viewBox="0 0 24 24"><defs><style>.a{fill:none;stroke:currentColor;stroke-linecap:round;stroke-linejoin:round;stroke-width:1.5px;}</style></defs><title>astronomy-telescope</title><path class="a" d="M9.775,12.368l-4.17,2.095a1.973,1.973,0,0,1-2.65-.878h0a1.973,1.973,0,0,1,.878-2.65l6.174-3.1,1.183,2.355"/><path class="a" d="M10.45,8.714a1.973,1.973,0,0,1,.877-2.65l6.175-3.1,2.659,5.292-5.112,2.568"/><line class="a" x1="0.75" y1="14.694" x2="2.955" y2="13.585"/><path class="a" d="M20.648.994h.987a0,0,0,0,1,0,0v7.9a0,0,0,0,1,0,0h-.987a1.974,1.974,0,0,1-1.974-1.974V2.969A1.974,1.974,0,0,1,20.648.994Z" transform="translate(-0.074 9.575) rotate(-26.68)"/><path class="a" d="M15.43,11.4A3,3,0,1,1,11.4,10.07,3,3,0,0,1,15.43,11.4Z"/><line class="a" x1="12.75" y1="15.75" x2="12.75" y2="23.25"/><line class="a" x1="6" y1="23.25" x2="10.591" y2="14.833"/><line class="a" x1="19.5" y1="23.25" x2="14.909" y2="14.833"/></svg>