<svg width="20" height="20" viewBox="0 0 20 20" fill="none" xmlns="http://www.w3.org/2000/svg">
<path d="M14.9998 20C14.784 20 14.5857 19.8908 14.4707 19.7083L11.4173 14.8642C10.9482 14.9542 10.4723 15 9.99984 15C9.52734 15 9.05151 14.9542 8.58151 14.8633L5.52818 19.7083C5.41318 19.8908 5.21568 20 4.99984 20C4.97568 20 4.95151 19.9983 4.92734 19.9958C4.68651 19.9667 4.48318 19.8008 4.40734 19.5725L3.27151 16.1667L0.502343 15.6125C0.288176 15.5692 0.109843 15.4158 0.0365097 15.2108C-0.0368237 15.0058 0.00317633 14.7733 0.140676 14.6042L3.26234 10.7892C2.76318 9.77 2.49984 8.63667 2.49984 7.5C2.49984 3.36417 5.86401 0 9.99984 0C14.1357 0 17.4998 3.36417 17.4998 7.5C17.4998 8.63667 17.2365 9.77 16.7373 10.79L19.859 14.6042C19.9973 14.7733 20.0373 15.0058 19.9632 15.2108C19.8898 15.4158 19.7115 15.57 19.4973 15.6125L16.7282 16.1667L15.5932 19.5725C15.5173 19.8008 15.314 19.9667 15.0748 19.995C15.049 19.9983 15.024 20 14.9998 20ZM14.8248 17.925L15.6573 15.4275C15.7282 15.215 15.9082 15.0558 16.1273 15.0125L18.2323 14.5917L16.0498 11.925C15.194 13.0925 14.0157 13.9925 12.6698 14.5083L14.8248 17.925ZM3.87234 15.0125C4.09151 15.0558 4.27234 15.2158 4.34234 15.4275L5.17484 17.9242L7.32818 14.5067C5.98318 13.9917 4.80484 13.0917 3.94818 11.9242L1.76568 14.5908L3.87234 15.0125ZM9.99984 1.25C6.55318 1.25 3.74984 4.05417 3.74984 7.5C3.74984 10.9458 6.55401 13.75 9.99984 13.75C13.4457 13.75 16.2498 10.9458 16.2498 7.5C16.2498 4.05417 13.4457 1.25 9.99984 1.25Z" fill="#FFF2F1"/>
<path d="M7.57673 11.4333C7.48006 11.4333 7.38256 11.4208 7.28839 11.3958C7.00089 11.32 6.75923 11.1358 6.61006 10.8783C6.43589 10.5775 6.41173 10.2067 6.54589 9.88667L7.28006 8.20167L5.95839 6.90167C5.74756 6.69667 5.62839 6.42084 5.62339 6.12417C5.61839 5.82834 5.72923 5.5475 5.93589 5.33417C6.14673 5.11584 6.42756 4.99584 6.72672 4.99584H8.13422L9.00089 3.2925C9.14506 3.02 9.38089 2.82334 9.66839 2.73417C9.77673 2.70084 9.88923 2.68334 10.0009 2.68334C10.1817 2.68334 10.3634 2.72834 10.5251 2.81417C10.7259 2.92 10.8884 3.0825 10.9942 3.28334L11.8659 5H13.2767C13.8684 5 14.3617 5.48584 14.3767 6.08334C14.3842 6.3925 14.2609 6.69334 14.0384 6.90834L12.7209 8.20167L13.4509 9.87834C13.6917 10.4517 13.4242 11.1083 12.8567 11.3467C12.7192 11.4042 12.5742 11.4325 12.4259 11.4325C12.2284 11.4325 12.0342 11.3808 11.8651 11.2825L10.0001 10.2333L8.12756 11.2867C7.96339 11.3817 7.77173 11.4333 7.57673 11.4333ZM10.0001 8.89084C10.1076 8.89084 10.2134 8.91834 10.3067 8.97084L12.1434 10.0042L11.4042 8.30584C11.3017 8.07 11.3559 7.79084 11.5392 7.61084L12.9242 6.25H11.4826C11.2459 6.25 11.0326 6.11917 10.9251 5.90834L10.0001 4.08584L9.07422 5.905C8.96672 6.11584 8.75339 6.24667 8.51756 6.24667H7.07506L8.46173 7.61084C8.64506 7.79084 8.69923 8.07 8.59673 8.30584L7.85756 10.0042L9.69423 8.97084C9.78673 8.91834 9.89256 8.89084 10.0001 8.89084Z" fill="#FFF2F1"/>
</svg>
