<svg width="23" height="24" viewBox="0 0 23 24" fill="none" xmlns="http://www.w3.org/2000/svg">
<g clip-path="url(#clip0_6536_38259)">
<path d="M11.5 3.375C11.1032 3.375 10.7812 3.053 10.7812 2.65625V1.21875C10.7812 0.822 11.1032 0.5 11.5 0.5C11.8967 0.5 12.2188 0.822 12.2188 1.21875V2.65625C12.2188 3.053 11.8967 3.375 11.5 3.375Z" fill="url(#paint0_linear_6536_38259)"/>
<path d="M1.4375 12C1.04075 12 0.71875 11.678 0.71875 11.2812C0.71875 10.8845 1.04075 10.5625 1.4375 10.5625H2.875C3.27175 10.5625 3.59375 10.8845 3.59375 11.2812C3.59375 11.678 3.27175 12 2.875 12H1.4375Z" fill="url(#paint1_linear_6536_38259)"/>
<path d="M4.64758 5.82546C4.4607 5.82546 4.28437 5.75454 4.14924 5.62517L3.09508 4.61221C2.80949 4.33717 2.80087 3.881 3.07495 3.59542C3.21008 3.4555 3.39887 3.375 3.59341 3.375C3.78028 3.375 3.95662 3.44592 4.09174 3.57529L5.14591 4.58825C5.28391 4.72146 5.36249 4.90067 5.36633 5.09233C5.37016 5.284 5.29924 5.46608 5.16603 5.60504C5.03091 5.74496 4.84212 5.82546 4.64758 5.82546Z" fill="url(#paint2_linear_6536_38259)"/>
<path d="M20.125 12C19.7282 12 19.4062 11.678 19.4062 11.2812C19.4062 10.8845 19.7282 10.5625 20.125 10.5625H21.5625C21.9592 10.5625 22.2812 10.8845 22.2812 11.2812C22.2812 11.678 21.9592 12 21.5625 12H20.125Z" fill="url(#paint3_linear_6536_38259)"/>
<path d="M18.3516 5.82546C18.157 5.82546 17.9683 5.74496 17.8331 5.60504C17.5581 5.3185 17.5677 4.86329 17.8533 4.58825L18.9074 3.57529C19.0425 3.44592 19.2189 3.375 19.4058 3.375C19.6003 3.375 19.7891 3.4555 19.9242 3.59542C20.1993 3.88196 20.1897 4.33717 19.9041 4.61221L18.8499 5.62517C18.7148 5.75454 18.5375 5.82546 18.3516 5.82546Z" fill="url(#paint4_linear_6536_38259)"/>
<path d="M11.5006 23.5C11.1038 23.5 10.7818 23.178 10.7818 22.7812V21.3437H10.0631C8.87376 21.3437 7.9068 20.3768 7.9068 19.1875V17.5027C5.68443 16.2502 4.28047 13.8304 4.31306 11.2755C4.3811 7.31757 7.5321 4.16369 11.4881 4.09277C15.4613 4.16273 18.6181 7.31469 18.6881 11.2678C18.7216 13.8266 17.3186 16.2492 15.0943 17.5027V19.1875C15.0943 20.3768 14.1273 21.3437 12.9381 21.3437H12.2193V22.7812C12.2193 23.178 11.8973 23.5 11.5006 23.5ZM9.3443 19.1875C9.3443 19.5842 9.6663 19.9062 10.0631 19.9062H12.9381C13.3348 19.9062 13.6568 19.5842 13.6568 19.1875V17.75H9.3443V19.1875ZM14.2826 16.3125C16.1159 15.3331 17.2783 13.3723 17.2506 11.2908C17.194 8.11777 14.6631 5.58777 11.4881 5.53123C8.33039 5.58777 5.80518 8.12065 5.75056 11.2975C5.72372 13.3742 6.88618 15.334 8.71851 16.3125H10.7818V13.7355L8.83639 11.7901C8.7003 11.654 8.62556 11.4729 8.62556 11.2812C8.62556 11.0896 8.7003 10.9084 8.83639 10.7733C8.97151 10.6372 9.15264 10.5625 9.3443 10.5625C9.53597 10.5625 9.7171 10.6372 9.85222 10.7733L11.5006 12.4216L13.1489 10.7733C13.285 10.6372 13.4651 10.5625 13.6568 10.5625C13.8485 10.5625 14.0296 10.6372 14.1647 10.7733C14.3008 10.9084 14.3756 11.0896 14.3756 11.2812C14.3756 11.4729 14.3008 11.654 14.1647 11.7891L12.2193 13.7346V16.3125H14.2826Z" fill="url(#paint5_linear_6536_38259)"/>
</g>
<defs>
<linearGradient id="paint0_linear_6536_38259" x1="10.7812" y1="0.5" x2="13.0813" y2="1.65" gradientUnits="userSpaceOnUse">
<stop stop-color="#05F2F2"/>
<stop offset="1" stop-color="#07DB9F"/>
</linearGradient>
<linearGradient id="paint1_linear_6536_38259" x1="0.71875" y1="10.5625" x2="1.86875" y2="12.8625" gradientUnits="userSpaceOnUse">
<stop stop-color="#05F2F2"/>
<stop offset="1" stop-color="#07DB9F"/>
</linearGradient>
<linearGradient id="paint2_linear_6536_38259" x1="2.875" y1="3.375" x2="5.32512" y2="5.86613" gradientUnits="userSpaceOnUse">
<stop stop-color="#05F2F2"/>
<stop offset="1" stop-color="#07DB9F"/>
</linearGradient>
<linearGradient id="paint3_linear_6536_38259" x1="19.4062" y1="10.5625" x2="20.5562" y2="12.8625" gradientUnits="userSpaceOnUse">
<stop stop-color="#05F2F2"/>
<stop offset="1" stop-color="#07DB9F"/>
</linearGradient>
<linearGradient id="paint4_linear_6536_38259" x1="17.6328" y1="3.375" x2="20.0829" y2="5.86638" gradientUnits="userSpaceOnUse">
<stop stop-color="#05F2F2"/>
<stop offset="1" stop-color="#07DB9F"/>
</linearGradient>
<linearGradient id="paint5_linear_6536_38259" x1="4.3125" y1="4.09277" x2="22.8776" y2="17.8451" gradientUnits="userSpaceOnUse">
<stop stop-color="#05F2F2"/>
<stop offset="1" stop-color="#07DB9F"/>
</linearGradient>
<clipPath id="clip0_6536_38259">
<rect width="23" height="23" fill="white" transform="translate(0 0.5)"/>
</clipPath>
</defs>
</svg>
