<svg width="48" height="48" viewBox="0 0 48 48" fill="none" xmlns="http://www.w3.org/2000/svg">
<g clip-path="url(#clip0)">
<path d="M7.5 39.022C3.364 39.022 0 35.658 0 31.522V16.522C0 12.386 3.364 9.02199 7.5 9.02199H25.5C29.636 9.02199 33 12.386 33 16.522V31.522C33 35.658 29.636 39.022 25.5 39.022H7.5ZM7.5 12.022C5.018 12.022 3 14.04 3 16.522V31.522C3 34.004 5.018 36.022 7.5 36.022H25.5C27.982 36.022 30 34.004 30 31.522V16.522C30 14.04 27.982 12.022 25.5 12.022H7.5Z" fill="#FFF2F1"/>
<path d="M44.9985 35.096C44.5325 35.096 44.0825 34.99 43.6605 34.778L36.8285 31.364C36.0885 30.994 35.7885 30.092 36.1585 29.352C36.4145 28.84 36.9285 28.522 37.5005 28.522C37.7305 28.522 37.9605 28.576 38.1685 28.678L45.0005 32.094V15.948L38.1705 19.364C37.9625 19.468 37.7305 19.522 37.5005 19.522C36.9285 19.522 36.4145 19.204 36.1585 18.694C35.7885 17.954 36.0905 17.05 36.8285 16.682L43.6585 13.268C44.0725 13.06 44.5365 12.95 45.0005 12.95C45.8045 12.95 46.5565 13.262 47.1225 13.83C47.6905 14.396 48.0005 15.148 48.0005 15.95V32.096C48.0005 32.558 47.8925 33.02 47.6865 33.434C47.3285 34.152 46.7105 34.688 45.9525 34.94C45.6445 35.042 45.3225 35.096 44.9985 35.096Z" fill="#FFF2F1"/>
</g>
<defs>
<clipPath id="clip0">
<rect width="48" height="48" fill="white"/>
</clipPath>
</defs>
</svg>
