<svg width="20" height="20" viewBox="0 0 20 20" fill="none" xmlns="http://www.w3.org/2000/svg">
<path fill-rule="evenodd" clip-rule="evenodd" d="M18.7502 6.64585V13.3559C18.7318 13.3517 18.716 13.3517 18.7343 13.3642L18.7502 13.3725L15.9043 11.95C15.596 11.7959 15.2202 11.9209 15.066 12.23C14.9118 12.5384 15.0368 12.9142 15.346 13.0684L18.1918 14.4909C18.3652 14.5775 18.556 14.6225 18.7502 14.6225C19.436 14.6225 20.0002 14.0584 20.0002 13.3725V6.64419C20.0002 5.95919 19.436 5.39502 18.751 5.39502C18.5568 5.39502 18.3643 5.44085 18.191 5.52835C18.1918 5.52752 15.346 6.95002 15.346 6.95002C15.0368 7.10419 14.9118 7.48002 15.066 7.78835C15.2202 8.09752 15.596 8.22252 15.9043 8.06835L18.7502 6.64585Z" fill="#FFF2F1"/>
<path fill-rule="evenodd" clip-rule="evenodd" d="M1.5625 4.17753C0.628333 4.71836 0 5.72836 0 6.88419V13.1342C0 14.8592 1.4 16.2592 3.125 16.2592H10.625C11.1992 16.2592 11.7375 16.1042 12.2 15.8334C12.4975 15.6592 12.5983 15.2759 12.4242 14.9784C12.25 14.6809 11.8667 14.58 11.5692 14.7542C11.2917 14.9167 10.9692 15.0092 10.625 15.0092H3.125C2.09 15.0092 1.25 14.1692 1.25 13.1342V6.88419C1.25 6.19003 1.6275 5.58419 2.18833 5.26003C2.4875 5.08669 2.58917 4.70419 2.41667 4.40586C2.24417 4.10753 1.86083 4.00503 1.5625 4.17753Z" fill="#FFF2F1"/>
<path fill-rule="evenodd" clip-rule="evenodd" d="M13.7502 9.55166V6.88416C13.7502 5.15916 12.3502 3.75916 10.6252 3.75916H7.7627C7.4177 3.75916 7.1377 4.03916 7.1377 4.38416C7.1377 4.72916 7.4177 5.00916 7.7627 5.00916H10.6252C11.6602 5.00916 12.5002 5.84916 12.5002 6.88416V9.55166C12.5002 9.89666 12.7802 10.1767 13.1252 10.1767C13.4702 10.1767 13.7502 9.89666 13.7502 9.55166Z" fill="#FFF2F1"/>
<path d="M17.4999 18.125C17.3307 18.125 17.1665 18.055 17.049 17.9333L2.04902 2.30833C1.93402 2.1875 1.87152 2.02917 1.87568 1.8625C1.87902 1.69583 1.94735 1.54 2.06735 1.42417C2.18402 1.31167 2.33818 1.25 2.49985 1.25C2.66902 1.25 2.83402 1.32 2.95068 1.4425L17.9507 17.0675C18.0665 17.1883 18.1282 17.3458 18.1249 17.5133C18.1215 17.68 18.0532 17.8358 17.9324 17.9517C17.8157 18.0633 17.6624 18.125 17.4999 18.125Z" fill="#F25D05"/>
</svg>
