<svg width="14" height="8" viewBox="0 0 14 8" fill="none" xmlns="http://www.w3.org/2000/svg">
<path d="M7.40078 0.279643C7.18078 0.279643 6.97398 0.365443 6.81833 0.520543L0.921781 6.41654C0.843681 6.49464 0.800781 6.59804 0.800781 6.70859C0.800781 6.81859 0.843681 6.92254 0.921781 7.00009C0.999881 7.07819 1.10328 7.12109 1.21328 7.12109C1.32328 7.12109 1.42723 7.07819 1.50478 7.00009L7.40078 1.10464L13.2968 7.0001C13.3749 7.0782 13.4783 7.1211 13.5883 7.1211C13.6983 7.1211 13.8022 7.0782 13.8798 7.0001C13.9579 6.922 14.0008 6.8186 14.0008 6.7086C14.0008 6.5986 13.9579 6.49465 13.8798 6.4171L7.98378 0.521094C7.82868 0.365444 7.62133 0.279643 7.40078 0.279643Z" fill="#FFF2F1"/>
</svg>
