<svg xmlns="http://www.w3.org/2000/svg" viewBox="0 0 24 24"><defs><style>.a{fill:none;stroke:currentColor;stroke-linecap:round;stroke-linejoin:round;stroke-width:1.5px;}</style></defs><title>lab-tube-experiment</title><path class="a" d="M15,19.5a3.75,3.75,0,0,1-7.5,0V.75H15Z"/><line class="a" x1="17.25" y1="0.75" x2="5.25" y2="0.75"/><path class="a" d="M12.375,8.25a.375.375,0,0,1,.375.375"/><path class="a" d="M12,8.625a.375.375,0,0,1,.375-.375"/><path class="a" d="M12.375,9A.375.375,0,0,1,12,8.625"/><path class="a" d="M12.75,8.625A.375.375,0,0,1,12.375,9"/><path class="a" d="M10.125,12.75a.375.375,0,0,1,.375.375"/><path class="a" d="M9.75,13.125a.375.375,0,0,1,.375-.375"/><path class="a" d="M10.125,13.5a.375.375,0,0,1-.375-.375"/><path class="a" d="M10.5,13.125a.375.375,0,0,1-.375.375"/><path class="a" d="M11.625,17.25a.375.375,0,0,1,.375.375"/><path class="a" d="M11.25,17.625a.375.375,0,0,1,.375-.375"/><path class="a" d="M11.625,18a.375.375,0,0,1-.375-.375"/><path class="a" d="M12,17.625a.375.375,0,0,1-.375.375"/><line class="a" x1="15" y1="5.25" x2="7.5" y2="5.25"/><line class="a" x1="1.5" y1="12.75" x2="4.5" y2="12.75"/><line class="a" x1="3" y1="11.25" x2="3" y2="14.25"/><circle class="a" cx="21" cy="5.25" r="1.5"/></svg>