<svg width="17" height="14" viewBox="0 0 17 14" fill="none" xmlns="http://www.w3.org/2000/svg">
<path d="M8.33466 13.166C8.30066 13.166 8.26666 13.164 8.23266 13.1607C7.96733 13.134 7.728 13.0053 7.55933 12.7987C7.412 12.618 7.33133 12.39 7.334 12.1567V10.1667H1.334C1.06533 10.166 0.813997 10.0607 0.62533 9.87C0.436664 9.68 0.332664 9.428 0.333997 9.16067V4.17067C0.332664 3.90533 0.435997 3.65333 0.62533 3.46333C0.813997 3.27333 1.06466 3.168 1.332 3.16667H7.334V1.172C7.33133 0.908666 7.43333 0.657333 7.62066 0.467333C7.808 0.276666 8.058 0.170666 8.324 0.167999C8.56333 0.169333 8.79 0.249999 8.966 0.393999L15.958 5.88267C16.1733 6.06 16.304 6.30333 16.3293 6.57133C16.3547 6.83933 16.2747 7.10133 16.1033 7.30867C16.062 7.358 16.0167 7.404 15.9673 7.44467L8.958 12.9467C8.78666 13.0867 8.564 13.166 8.33466 13.166ZM1.334 9.16267L7.834 9.16667C8.11 9.16667 8.334 9.39067 8.334 9.66667V12.1613L15.3407 6.66467L8.34066 1.174L8.334 3.66667C8.334 3.94267 8.11 4.16667 7.834 4.16667H1.336L1.334 9.16267Z" fill="#202A44"/>
</svg>
