<svg width="72" height="72" viewBox="0 0 72 72" fill="none" xmlns="http://www.w3.org/2000/svg">
<g clip-path="url(#clip0_0:3)">
<path d="M13.5 63C7.917 63 3.375 58.458 3.375 52.875C3.375 47.292 7.917 42.75 13.5 42.75C19.083 42.75 23.625 47.292 23.625 52.875C23.625 58.458 19.083 63 13.5 63ZM13.5 47.25C10.398 47.25 7.875 49.773 7.875 52.875C7.875 55.977 10.398 58.5 13.5 58.5C16.602 58.5 19.125 55.977 19.125 52.875C19.125 49.773 16.602 47.25 13.5 47.25Z" fill="white"/>
<path d="M2.24659 72C1.88059 72 1.51459 71.907 1.18759 71.736C0.0925905 71.154 -0.321409 69.789 0.260591 68.694C1.66759 66.057 3.80359 63.921 6.43759 62.517C8.60059 61.365 11.0336 60.756 13.4726 60.756C19.0376 60.756 24.1196 63.798 26.7326 68.694C27.3176 69.789 26.9006 71.154 25.8056 71.739C25.4816 71.907 25.1156 72 24.7496 72C23.9156 72 23.1566 71.544 22.7636 70.809C20.9366 67.38 17.3786 65.25 13.4786 65.25C11.7716 65.25 10.0706 65.676 8.55559 66.483C6.71059 67.467 5.21659 68.961 4.23259 70.806C3.84259 71.544 3.08059 72 2.24659 72Z" fill="white"/>
<path d="M69.7495 72C68.9155 72 68.1535 71.544 67.7635 70.809C66.4435 68.337 64.2385 66.522 61.5565 65.706C60.5545 65.4 59.5195 65.247 58.4875 65.247C56.7865 65.247 55.0825 65.676 53.5585 66.489C51.7135 67.473 50.2195 68.967 49.2355 70.812C48.8425 71.544 48.0805 72 47.2495 72C46.8835 72 46.5175 71.907 46.1905 71.736C45.0955 71.151 44.6815 69.786 45.2635 68.691C46.6705 66.054 48.8035 63.918 51.4405 62.514C52.0825 62.169 52.7515 61.875 53.4325 61.629C50.4115 59.871 48.3745 56.598 48.3745 52.872C48.3745 47.289 52.9165 42.747 58.4995 42.747C64.0825 42.747 68.6245 47.289 68.6245 52.872C68.6245 56.598 66.5875 59.871 63.5665 61.629C67.0825 62.886 69.9655 65.37 71.7355 68.688C72.0175 69.219 72.0775 69.828 71.9035 70.404C71.7295 70.977 71.3395 71.451 70.8085 71.733C70.4845 71.907 70.1185 72 69.7495 72ZM58.4995 47.25C55.3975 47.25 52.8745 49.773 52.8745 52.875C52.8745 55.977 55.3975 58.5 58.4995 58.5C61.6015 58.5 64.1245 55.977 64.1245 52.875C64.1245 49.773 61.6015 47.25 58.4995 47.25Z" fill="white"/>
<path d="M36 20.25C30.417 20.25 25.875 15.708 25.875 10.125C25.875 4.542 30.417 0 36 0C41.583 0 46.125 4.542 46.125 10.125C46.125 15.708 41.583 20.25 36 20.25ZM36 4.5C32.898 4.5 30.375 7.023 30.375 10.125C30.375 13.227 32.898 15.75 36 15.75C39.102 15.75 41.625 13.227 41.625 10.125C41.625 7.023 39.102 4.5 36 4.5Z" fill="white"/>
<path d="M45.7469 27C45.0869 27 44.4629 26.712 44.0339 26.208C42.0269 23.853 39.0959 22.5 35.9879 22.5C33.4829 22.5 31.0559 23.394 29.1509 25.014C28.7249 25.38 28.3229 25.782 27.9599 26.208C27.5309 26.712 26.9069 27 26.2469 27C25.7129 27 25.1939 26.808 24.7859 26.463C24.3299 26.073 24.0509 25.53 24.0029 24.93C23.9549 24.33 24.1439 23.748 24.5339 23.292C25.0529 22.68 25.6259 22.11 26.2349 21.591C28.9559 19.272 32.4179 17.997 35.9759 17.997C36.3809 17.997 36.7889 18.012 37.1969 18.045C41.2079 18.366 44.8529 20.229 47.4569 23.292C47.8469 23.751 48.0359 24.33 47.9879 24.93C47.9399 25.53 47.6609 26.073 47.2049 26.463C46.7999 26.808 46.2809 27 45.7469 27Z" fill="white"/>
<path d="M35.9965 63.003C32.6935 63.003 29.4475 62.406 26.3515 61.224C25.7905 61.011 25.3465 60.591 25.1005 60.042C24.8545 59.493 24.8365 58.881 25.0525 58.32C25.3825 57.453 26.2255 56.871 27.1525 56.871C27.4285 56.871 27.6985 56.922 27.9565 57.021C30.5365 58.005 33.2425 58.503 35.9965 58.503C38.7985 58.503 41.5495 57.987 44.1685 56.97C44.4295 56.868 44.7025 56.817 44.9815 56.817C45.9025 56.817 46.7455 57.393 47.0785 58.254C47.5285 59.412 46.9525 60.717 45.7945 61.167C42.6565 62.385 39.3565 63.003 35.9965 63.003Z" fill="white"/>
<path d="M11.3581 40.5C10.1881 40.5 9.22507 39.621 9.12007 38.454C9.03607 37.539 8.99707 36.759 8.99707 36C8.99407 28.587 12.0961 21.426 17.5081 16.359C17.9281 15.966 18.4741 15.75 19.0471 15.75C19.6681 15.75 20.2651 16.011 20.6881 16.461C21.0991 16.899 21.3151 17.472 21.2941 18.072C21.2731 18.672 21.0211 19.23 20.5831 19.641C16.0771 23.862 13.4941 29.826 13.4971 36C13.4971 36.618 13.5301 37.269 13.6021 38.046C13.7161 39.279 12.8041 40.377 11.5681 40.491C11.4901 40.497 11.4241 40.5 11.3581 40.5Z" fill="white"/>
<path d="M60.6354 40.5C60.5694 40.5 60.5064 40.497 60.4404 40.491C59.8374 40.437 59.2944 40.155 58.9104 39.693C58.5234 39.231 58.3404 38.649 58.3944 38.049C58.4664 37.236 58.4994 36.585 58.4994 36C58.5024 29.823 55.9194 23.862 51.4104 19.644C50.5044 18.795 50.4594 17.367 51.3054 16.464C51.7284 16.011 52.3254 15.753 52.9464 15.753C53.5194 15.753 54.0654 15.969 54.4824 16.359C59.9004 21.426 63.0024 28.584 62.9994 36C62.9994 36.726 62.9604 37.503 62.8764 38.448C62.7714 39.618 61.8084 40.5 60.6354 40.5Z" fill="white"/>
</g>
<defs>
<clipPath id="clip0_0:3">
<rect width="72" height="72" fill="white"/>
</clipPath>
</defs>
</svg>
