<svg width="18" height="18" viewBox="0 0 18 18" fill="none" xmlns="http://www.w3.org/2000/svg">
<path d="M8.33782 17.7476C7.09948 17.7476 5.91448 17.2201 5.08615 16.3001L1.25282 12.0434C0.663651 11.3876 0.592818 10.4176 1.08115 9.68423C1.44032 9.14589 2.04032 8.82506 2.68615 8.82506C3.03448 8.82506 3.37698 8.92006 3.67782 9.10089L4.61032 9.66089L3.71282 3.39089C3.57115 2.39673 4.19948 1.46589 5.17448 1.22589C5.32782 1.18756 5.48615 1.16839 5.64448 1.16839C6.32782 1.16839 6.94198 1.52173 7.29032 2.07589C7.31532 1.06339 8.14615 0.247559 9.16448 0.247559C10.1778 0.247559 11.0062 1.05589 11.0387 2.06173C11.1795 1.83506 11.3687 1.63839 11.5978 1.48506C11.9145 1.27256 12.2812 1.16089 12.6587 1.16089C12.7837 1.16089 12.9095 1.17339 13.0328 1.19756C13.0645 1.20339 13.0945 1.21089 13.1253 1.21839C14.117 1.46589 14.737 2.44506 14.537 3.44672L14.4228 4.02006C14.6395 3.71923 14.9445 3.49339 15.3045 3.37339C15.4878 3.31173 15.6787 3.28089 15.8703 3.28089C16.1478 3.28089 16.4153 3.34422 16.6662 3.47006C16.7328 3.50339 16.7978 3.54089 16.8595 3.58173C17.557 4.04673 17.837 4.95006 17.5262 5.72839L15.6437 10.4351C15.4953 10.8059 15.4203 11.1959 15.4203 11.5959V13.3734C15.4203 14.7434 14.7662 16.0517 13.6703 16.8734C12.9178 17.4376 11.9853 17.7484 11.0453 17.7484H8.33782V17.7476ZM2.68532 10.0759C2.45865 10.0759 2.24698 10.1884 2.12115 10.3784C1.94948 10.6359 1.97448 10.9776 2.18198 11.2076L6.01532 15.4634C6.60698 16.1209 7.45365 16.4976 8.33782 16.4976H11.0445C11.7162 16.4976 12.382 16.2759 12.9195 15.8726C13.702 15.2859 14.1695 14.3509 14.1695 13.3726V11.5951C14.1695 11.0359 14.2745 10.4892 14.4828 9.97006L16.3653 5.26339C16.4587 5.03006 16.3745 4.76006 16.1653 4.62089C16.147 4.60839 16.1287 4.59756 16.1087 4.58839C16.032 4.55006 15.952 4.53089 15.8695 4.53089C15.812 4.53089 15.7553 4.54006 15.7003 4.55922C15.5645 4.60422 15.4553 4.70006 15.3912 4.82756L13.4745 8.65339C13.3678 8.86589 13.1537 8.99839 12.9153 8.99839C12.8462 8.99839 12.7787 8.98672 12.7137 8.96506C12.4178 8.86339 12.242 8.55672 12.3028 8.25089L13.312 3.20256C13.3812 2.85589 13.1662 2.51673 12.8237 2.43089L12.7953 2.42506C12.7495 2.41589 12.7062 2.41173 12.6637 2.41173C12.3487 2.41173 12.0753 2.63673 12.0145 2.94589L11.0295 7.87339C10.9712 8.16422 10.7128 8.37589 10.4153 8.37589C10.3962 8.37589 10.377 8.37506 10.357 8.37339C10.0337 8.34172 9.79198 8.07422 9.79198 7.75089V2.12256C9.79198 1.77756 9.51198 1.49756 9.16698 1.49756C8.82198 1.49756 8.54198 1.77756 8.54198 2.12256V7.75006C8.54198 8.07256 8.29948 8.34006 7.97865 8.37173C7.95782 8.37339 7.93782 8.37506 7.91782 8.37506C7.62032 8.37506 7.36282 8.16339 7.30448 7.87256L6.32948 2.97923L6.32198 2.94589C6.24198 2.63589 5.96365 2.41923 5.64365 2.41923C5.58698 2.41923 5.53032 2.42589 5.47448 2.44006C5.12448 2.52589 4.89865 2.85923 4.94948 3.21423L6.03282 10.7834C6.06698 11.0209 5.95948 11.2601 5.75948 11.3926C5.65615 11.4609 5.53698 11.4967 5.41365 11.4967C5.30032 11.4967 5.18948 11.4659 5.09282 11.4084L3.03365 10.1726C2.92782 10.1092 2.80782 10.0759 2.68532 10.0759Z" fill="#FFF2F1"/>
</svg>
