<svg width="11" height="11" viewBox="0 0 11 11" fill="none" xmlns="http://www.w3.org/2000/svg">
<g clip-path="url(#clip0_6854_26530)">
<path d="M2.85812 9.45708C2.27312 9.45708 1.72396 9.23 1.31146 8.8175C0.898958 8.405 0.671875 7.85583 0.671875 7.27083C0.671875 6.68583 0.898958 6.13667 1.31146 5.72417L3.30021 3.735C3.71271 3.32167 4.26271 3.09375 4.84854 3.09375C5.43271 3.09375 5.98146 3.32042 6.39354 3.73167C7.16104 4.4975 7.25521 5.69 6.61771 6.56667C6.55938 6.64708 6.46479 6.69542 6.36479 6.69542C6.29813 6.69542 6.23479 6.67458 6.18104 6.63542C6.11396 6.58667 6.06938 6.51417 6.05646 6.43167C6.04354 6.34917 6.06313 6.26667 6.11229 6.19917C6.56771 5.57292 6.50063 4.72125 5.95229 4.17417C5.65771 3.88042 5.26604 3.71833 4.84854 3.71833C4.42979 3.71833 4.03729 3.88125 3.74229 4.17625L1.75313 6.16542C1.14396 6.77458 1.14396 7.76583 1.75313 8.375C2.04771 8.66958 2.44021 8.83167 2.85812 8.83167C3.27604 8.83167 3.66854 8.66958 3.96313 8.375L4.35146 7.98667C4.41063 7.9275 4.48896 7.895 4.57229 7.895C4.65563 7.895 4.73438 7.9275 4.79313 7.98667C4.85229 8.04583 4.88479 8.12417 4.88479 8.2075C4.88479 8.29083 4.85229 8.36958 4.79313 8.42833L4.40479 8.81667C3.99271 9.23 3.44313 9.45708 2.85812 9.45708Z" fill="#07DB9F"/>
<path d="M6.49536 8.00967C5.91161 8.00967 5.36286 7.78259 4.94994 7.37009C4.18286 6.60426 4.08869 5.41217 4.72661 4.53551C4.78494 4.45509 4.87953 4.40676 4.97911 4.40676C5.04536 4.40676 5.10911 4.42759 5.16286 4.46634C5.23036 4.51551 5.27494 4.58801 5.28786 4.67051C5.30078 4.75301 5.28119 4.83551 5.23203 4.90301C4.77661 5.52926 4.8437 6.38051 5.39161 6.92759C5.68661 7.22217 6.07869 7.38426 6.49578 7.38426C6.91453 7.38384 7.30661 7.22134 7.60161 6.92592L9.59036 4.93717C9.88536 4.64217 10.0479 4.24967 10.0479 3.83217C10.0479 3.41467 9.88536 3.02259 9.59036 2.72717C9.29578 2.43259 8.90328 2.27051 8.48536 2.27051C8.06744 2.27051 7.67494 2.43259 7.38036 2.72717L7.06786 3.03967C7.00869 3.09884 6.93036 3.13134 6.84703 3.13134C6.76369 3.13134 6.68494 3.09884 6.62619 3.03967C6.56703 2.98092 6.53453 2.90217 6.53453 2.81884C6.53453 2.73551 6.56703 2.65676 6.62619 2.59801L6.93869 2.28551C7.35119 1.87301 7.90078 1.64551 8.48536 1.64551C9.06994 1.64551 9.61953 1.87259 10.032 2.28551C10.4454 2.69842 10.6729 3.24801 10.6729 3.83217C10.6729 4.41634 10.4454 4.96592 10.032 5.37884L8.04328 7.36759C7.63078 7.78092 7.08161 8.00884 6.49703 8.00926H6.49536V8.00967Z" fill="#07DB9F"/>
</g>
<defs>
<clipPath id="clip0_6854_26530">
<rect width="10" height="10" fill="white" transform="translate(0.667969 0.5)"/>
</clipPath>
</defs>
</svg>
