<svg viewBox="0 0 24 22" xmlns="http://www.w3.org/2000/svg">
	<defs>
		<style>.a{fill:none;stroke:currentColor;stroke-linecap:round;stroke-linejoin:round;stroke-width:1.5px;}
		</style>
	</defs>
	<path d="M7.8375 0.96875L7.57969 1.39531L0.285937 13.25L0 13.7094L0.257812 14.1922L3.90469 20.5766L4.1625 21.0312H19.8375L20.0953 20.5766L23.7422 14.1922L24 13.7094L23.7141 13.2547L16.4156 1.39531L16.1578 0.96875H7.8375ZM9.975 2.79219H15.1359L21.3234 12.8234H16.1625L9.975 2.79219ZM8.35312 3.61719L11.0625 8.0375L4.73438 18.3266L2.10938 13.7375L8.35312 3.61719ZM12.1406 9.77656L14.0203 12.8281H10.2563L12.1406 9.77656ZM9.15 14.6469H21.3797L18.7594 19.2078H6.32812L9.15 14.6469Z" fill="#FFF2F1"/>
</svg>
