<svg width="10" height="11" viewBox="0 0 10 11" fill="none" xmlns="http://www.w3.org/2000/svg">
<path d="M6.98214 10.5047C5.82584 10.5047 4.72837 10.0062 3.97127 9.13729L3.95375 9.11727L3.36017 9.71085C3.1833 9.88771 2.94762 9.98532 2.69651 9.98532C2.44539 9.98532 2.20971 9.88771 2.03243 9.71085C1.85515 9.53357 1.75754 9.29789 1.75754 9.04719C1.75754 8.79649 1.85515 8.56081 2.03243 8.38353L3.13867 7.27771C3.26047 7.15549 3.26047 6.95693 3.13867 6.83471C3.07985 6.7759 3.00102 6.74336 2.91717 6.74336C2.83333 6.74336 2.75449 6.7759 2.69567 6.83471L1.58985 7.94095C1.41007 8.11114 1.17939 8.20333 0.937456 8.20333C0.677164 8.20333 0.435644 8.09946 0.257111 7.91092C-0.0853557 7.54968 -0.0857729 6.98321 0.256277 6.62114L1.62781 5.24961C1.53187 5.20414 1.44386 5.14198 1.3671 5.06482C1.19066 4.8867 1.09305 4.65102 1.09346 4.3999C1.09388 4.14879 1.19191 3.91311 1.36961 3.73624L2.69693 2.41018L4.24533 0.861778C4.48142 0.625263 4.79552 0.495117 5.12965 0.495117C5.46419 0.495117 5.77829 0.625263 6.01439 0.860943L6.16581 1.01236C6.48742 0.812973 6.85283 0.708272 7.23158 0.708272C8.35284 0.708272 9.26511 1.62054 9.26511 2.7418C9.26511 3.12056 9.16041 3.48638 8.96102 3.80757C8.96102 3.80757 9.1187 3.96567 9.12037 3.96734C9.35021 4.19885 9.4791 4.51211 9.4791 4.84415C9.4791 5.17828 9.34896 5.49238 9.11244 5.72847L6.23672 8.60419C6.05944 8.78148 5.82376 8.87908 5.57306 8.8795C5.32195 8.8795 5.08668 8.78189 4.9094 8.60461C4.83307 8.52827 4.77133 8.44068 4.72586 8.34557L4.398 8.67344L4.44388 8.726C5.0821 9.45848 6.0073 9.87854 6.98256 9.87854C7.79471 9.87854 8.57851 9.58529 9.19003 9.05261C9.28305 8.97169 9.37273 8.88409 9.45699 8.79274C9.51623 8.7285 9.60007 8.69179 9.68725 8.69179C9.76609 8.69179 9.84117 8.72141 9.89915 8.77438C9.96047 8.8307 9.99635 8.90787 9.99968 8.99129C10.0034 9.07472 9.97382 9.15481 9.91709 9.21613C9.8174 9.32458 9.71103 9.42803 9.6009 9.52397C8.87509 10.1568 7.9453 10.5047 6.98214 10.5047ZM2.91801 6.11766C3.16912 6.11766 3.4048 6.21527 3.58167 6.39213C3.75895 6.56942 3.85656 6.8051 3.85656 7.05579C3.85656 7.30649 3.75895 7.54217 3.58167 7.71945L2.47543 8.82527C2.35321 8.94708 2.35321 9.14605 2.47543 9.26785C2.53424 9.32709 2.61308 9.35921 2.69693 9.35921C2.78077 9.35921 2.85919 9.32667 2.91801 9.26785L6.01522 6.17064C6.07446 6.1114 6.15288 6.07887 6.2363 6.07887C6.31973 6.07887 6.39857 6.1114 6.45738 6.17064C6.57919 6.29244 6.57919 6.49099 6.45738 6.61321L5.35115 7.71945C5.22934 7.84126 5.22934 8.04023 5.35115 8.16203C5.41038 8.22085 5.4888 8.25338 5.57223 8.25338C5.65565 8.25338 5.73449 8.22085 5.79373 8.16161L7.12104 6.8343C7.48687 6.46805 7.48687 5.8728 7.12104 5.50698L4.46641 2.85234C4.28954 2.67547 4.05344 2.57786 3.80275 2.57786C3.55205 2.57786 3.31595 2.67589 3.13909 2.85276L1.81177 4.17882C1.75212 4.23847 1.71916 4.31689 1.71916 4.40074C1.71916 4.48458 1.7517 4.56342 1.81052 4.62265C1.86975 4.68189 1.94859 4.71442 2.03243 4.71442C2.11294 4.71442 2.18927 4.68439 2.24726 4.62933C2.24934 4.62724 3.35975 3.51642 3.35975 3.51642C3.41898 3.45718 3.4974 3.42465 3.58083 3.42465C3.66426 3.42465 3.7431 3.45718 3.80191 3.51642C3.86114 3.57523 3.89368 3.65407 3.89368 3.7375C3.89368 3.82092 3.86114 3.89976 3.80191 3.95858L2.70443 5.05606C2.70151 5.05939 2.69859 5.06273 2.69567 5.06565L0.70553 7.05704C0.596658 7.17259 0.597909 7.3603 0.712204 7.48085C0.771854 7.54384 0.85236 7.57846 0.939541 7.57846C1.02005 7.57846 1.09638 7.54801 1.15437 7.49295L2.25393 6.39255C2.43121 6.21527 2.66689 6.11766 2.91801 6.11766ZM7.56362 5.06482C7.80639 5.30759 7.95907 5.61793 8.00537 5.95039L8.66944 5.28631C8.78749 5.16826 8.85257 5.011 8.85298 4.84415C8.85298 4.67688 8.78791 4.52004 8.66986 4.40199L8.55306 4.28519C8.55098 4.28728 8.54848 4.28895 8.54639 4.29103C8.54013 4.29687 8.53388 4.3023 8.5272 4.30772C8.17556 4.59971 7.73131 4.76531 7.27372 4.77491L7.56362 5.06482ZM6.04776 1.98387C5.90093 2.2112 5.82376 2.4715 5.82376 2.74222C5.82376 3.5185 6.4553 4.15004 7.23158 4.15004C7.50189 4.15004 7.76176 4.07287 7.9891 3.92646C7.89191 3.44342 7.66957 2.99792 7.34212 2.63209C6.9763 2.30423 6.5308 2.08106 6.04776 1.98387ZM6.59838 1.48539C7.03261 1.63389 7.43389 1.86999 7.77386 2.17867C7.78095 2.18534 7.78804 2.19202 7.79471 2.19952C8.10339 2.54032 8.33907 2.94202 8.48757 3.37626C8.58685 3.18062 8.63941 2.9633 8.63941 2.7418C8.63941 1.96551 8.00787 1.33397 7.23158 1.33397C7.0105 1.33439 6.79359 1.38695 6.59838 1.48539ZM4.02341 1.96843C4.35795 2.01515 4.66663 2.16782 4.90898 2.41018L5.19848 2.69967C5.20807 2.24332 5.37242 1.80075 5.664 1.44827C5.669 1.44118 5.67818 1.43075 5.68861 1.42032L5.57264 1.30436C5.45418 1.18589 5.29692 1.12082 5.13006 1.12082C4.96279 1.12082 4.80595 1.18589 4.6879 1.30394L4.02341 1.96843Z" fill="#07DB9F"/>
</svg>
