<svg xmlns="http://www.w3.org/2000/svg" viewBox="0 0 24 24">
<defs>
	<style>.a{fill:none;stroke:currentColor;stroke-linecap:round;stroke-linejoin:round;stroke-width:1.5px;}</style></defs>
<title>pin-location-1</title>
<path class="a" d="M9.5 5.5L13 4.5L14 8" stroke="black" stroke-width="1.5" stroke-linecap="round" stroke-linejoin="round"/>
<path class="a" d="M16 14C10.6667 13 10.50003 9.9 12.5 5.5" stroke="black" stroke-width="1.5" stroke-linecap="round"/>
<path class="a" d="M12,.75A6.75,6.75,0,0,1,18.75,7.5c0,3.251-5.132,10.527-6.446,12.337a.377.377,0,0,1-.608,0C10.382,18.027,5.25,10.751,5.25,7.5A6.75,6.75,0,0,1,12,.75Z"/>
<path class="a" d="M17.979,17.784c2.732.541,4.521,1.444,4.521,2.466,0,1.657-4.7,3-10.5,3s-10.5-1.343-10.5-3c0-1.02,1.781-1.921,4.5-2.463"/>
</svg>