<svg width="24" height="24" viewBox="0 0 24 24" fill="none" xmlns="http://www.w3.org/2000/svg">
<path d="M10.782 10.5129C9.66897 9.5313 8.23405 8.99285 6.75 8.99994C5.2805 8.98842 3.85788 9.5166 2.75194 10.4843C1.64599 11.452 0.933647 12.7919 0.75 14.2499" stroke="white" stroke-width="1.5" stroke-linecap="round" stroke-linejoin="round"/>
<path d="M6.75 7.5C8.61396 7.5 10.125 5.98896 10.125 4.125C10.125 2.26104 8.61396 0.75 6.75 0.75C4.88604 0.75 3.375 2.26104 3.375 4.125C3.375 5.98896 4.88604 7.5 6.75 7.5Z" stroke="white" stroke-width="1.5" stroke-linecap="round" stroke-linejoin="round"/>
<path d="M16.5 6C17.9497 6 19.125 4.82475 19.125 3.375C19.125 1.92525 17.9497 0.75 16.5 0.75C15.0503 0.75 13.875 1.92525 13.875 3.375C13.875 4.82475 15.0503 6 16.5 6Z" stroke="white" stroke-width="1.5" stroke-linecap="round" stroke-linejoin="round"/>
<path d="M20.4 9.00002C20.042 8.38031 19.5413 7.85494 18.9396 7.4675C18.3378 7.08006 17.6523 6.84174 16.94 6.77232C16.2277 6.7029 15.5091 6.80438 14.8439 7.06833C14.1786 7.33228 13.5859 7.7511 13.115 8.29002" stroke="white" stroke-width="1.5" stroke-linecap="round" stroke-linejoin="round"/>
<path d="M23.25 15.75L20.25 16.75V15.75C20.25 15.3522 20.092 14.9706 19.8107 14.6893C19.5294 14.408 19.1478 14.25 18.75 14.25H12.75C12.3522 14.25 11.9706 14.408 11.6893 14.6893C11.408 14.9706 11.25 15.3522 11.25 15.75V21.75C11.25 22.1478 11.408 22.5294 11.6893 22.8107C11.9706 23.092 12.3522 23.25 12.75 23.25H18.75C19.1478 23.25 19.5294 23.092 19.8107 22.8107C20.092 22.5294 20.25 22.1478 20.25 21.75V20.75L23.25 21.75V15.75Z" stroke="white" stroke-width="1.5" stroke-linecap="round" stroke-linejoin="round"/>
</svg>
