<svg xmlns="http://www.w3.org/2000/svg" viewBox="0 0 24 24"><defs><style>.a{fill:none;stroke:currentColor;stroke-linecap:round;stroke-linejoin:round;stroke-width:1.5px;}</style></defs><title>microphone-off</title>
	<line class="a" x1="12" y1="19.5" x2="12" y2="23.25"/>
	<path class="a" d="M12.562,16.465A4.535,4.535,0,0,1,12,16.5h0A4.5,4.5,0,0,1,7.5,12v-.75"/>
	<path class="a" d="M8.064,3.067A4.5,4.5,0,0,1,12,.75h0a4.5,4.5,0,0,1,4.5,4.5V12"/>
	<path class="a" d="M15.128,18.841A7.7,7.7,0,0,1,12,19.5h0a7.369,7.369,0,0,1-7.5-7.184V9.75"/>
	<path class="a" d="M19.5,9.75v2.566a6.851,6.851,0,0,1-.56,2.716"/>
	<line stroke="#F25D05"  x1="3" y1="2.25" x2="21" y2="21"/></svg>