<svg width="18" height="20" viewBox="0 0 18 20" fill="none" xmlns="http://www.w3.org/2000/svg">
<path fill-rule="evenodd" clip-rule="evenodd" d="M15.7963 0.000244141L15.8502 0.000257254C16.5486 0.000427783 17.1255 0.292648 17.504 0.822537C17.8611 1.32248 18.0001 1.97353 18.0001 2.65028V15.1505C18.0001 15.5494 17.8249 16.1673 17.4638 16.745C17.09 17.3431 16.4794 17.9593 15.5556 18.2672C14.7097 18.5492 13.169 18.8887 11.8905 17.6102C10.9679 16.6876 10.7895 15.5939 10.9174 14.6849C11.0399 13.8137 11.45 13.053 11.8123 12.6906C11.9586 12.5444 12.2699 12.2554 12.6946 11.9998C13.1158 11.7462 13.69 11.5005 14.3501 11.5005H16.6999L16.7001 5.72037L7.00008 7.20843L7.00009 16.6505C7.00009 17.3461 6.71415 18.2057 5.80971 19.1102C5.27153 19.6483 4.5299 19.8942 3.87603 19.9711C3.25952 20.0436 2.60314 19.9796 2.12457 19.7629C1.66821 19.6324 1.09115 19.3049 0.670836 18.7154C0.213973 18.0747 -0.018607 17.1796 0.212697 16.0231C0.698765 13.5927 2.85724 13.0005 3.85007 13.0005H5.70008L5.70009 4.1505C5.70009 3.2002 6.0005 2.55153 6.35123 2.13165C6.52224 1.92693 6.69666 1.78679 6.83507 1.69518C6.9043 1.64936 6.96491 1.61541 7.01228 1.5913C7.03599 1.57923 7.05648 1.56957 7.0732 1.56209C7.08156 1.55834 7.08899 1.55513 7.09542 1.55243L7.10431 1.54875L7.10819 1.54719L7.10997 1.54648L7.14135 1.5341L7.23388 1.51097L8.14084 1.34678C8.70364 1.24516 9.48531 1.10445 10.3608 0.948095C12.1109 0.635548 14.2391 0.259904 15.7432 0.00910968L15.7963 0.000244141ZM7.14135 1.5341L7.23388 1.51097L7.17103 1.5224L7.11167 1.54581L7.14135 1.5341ZM7.563 2.77247C7.55969 2.77457 7.55622 2.77682 7.5526 2.77922C7.50351 2.81171 7.42794 2.8705 7.34894 2.96506C7.19968 3.14376 7.00009 3.49509 7.00009 4.1505L7.00008 5.89323L16.7001 4.40516V2.65028C16.7001 2.12702 16.589 1.77819 16.4462 1.57818C16.3313 1.4174 16.1703 1.31228 15.8982 1.30122C14.4058 1.55061 12.3165 1.91941 10.5894 2.22785C9.71487 2.38402 8.93404 2.52458 8.37184 2.62609L7.563 2.77247ZM5.70009 14.3005H3.85007C3.17624 14.3005 1.80138 14.7084 1.48745 16.278C1.31875 17.1215 1.50284 17.6431 1.72931 17.9607C1.97121 18.2999 2.30688 18.4697 2.50772 18.52L2.57694 18.5373L2.64076 18.5692C2.82443 18.661 3.2358 18.7374 3.72414 18.68C4.2036 18.6236 4.62865 18.4527 4.89047 18.1909C5.58602 17.4954 5.70009 16.955 5.70009 16.6505L5.70009 14.3005ZM16.6999 12.8005H14.3501C14.0101 12.8005 13.6703 12.9298 13.365 13.1135C13.0631 13.2953 12.8354 13.5061 12.7316 13.6099C12.5939 13.7476 12.2931 14.237 12.2047 14.8659C12.1216 15.457 12.2323 16.1135 12.8097 16.6909C13.5312 17.4124 14.3967 17.2832 15.1445 17.0339C15.7208 16.8418 16.1102 16.458 16.3614 16.056C16.6253 15.6338 16.7001 15.2517 16.7001 15.1505L16.6999 12.8005Z" fill="white"/>
</svg>
