<svg width="16" height="16" viewBox="0 0 16 16" fill="none" xmlns="http://www.w3.org/2000/svg">
<g clip-path="url(#clip0_172_594)">
<path d="M15.4966 15.9973C15.3633 15.9973 15.2373 15.9453 15.1433 15.8506L10.8 11.5066C10.2926 11.9406 9.72131 12.2946 9.09797 12.5593C8.27864 12.9073 7.41797 13.084 6.53998 13.084C5.70197 13.084 4.87864 12.9233 4.09131 12.6053C2.47064 11.9513 1.20197 10.706 0.518641 9.09732C-0.164692 7.48932 -0.181359 5.71065 0.472641 4.09065C1.12664 2.47065 2.37197 1.20132 3.97997 0.517983C4.79931 0.169317 5.65931 -0.00668335 6.53797 -0.00668335C7.37597 -0.00668335 8.19931 0.15465 8.98664 0.471983C10.6073 1.12598 11.876 2.37132 12.5593 3.97998C13.2426 5.58865 13.2593 7.36665 12.6053 8.98665C12.3373 9.65065 11.968 10.2593 11.506 10.7986L15.8506 15.144C16.0453 15.3386 16.0453 15.656 15.8506 15.8513C15.756 15.9453 15.63 15.9973 15.4966 15.9973ZM6.53797 0.993317C5.79464 0.993317 5.06531 1.14265 4.37131 1.43798C3.00864 2.01732 1.95331 3.09198 1.39931 4.46465C0.845308 5.83732 0.859308 7.34332 1.43797 8.70598C2.01731 10.0686 3.09197 11.124 4.46464 11.678C5.13197 11.9473 5.82997 12.0833 6.53931 12.0833C7.28264 12.0833 8.01198 11.934 8.70597 11.6386C9.35531 11.3626 9.93731 10.9733 10.4353 10.4813C10.442 10.472 10.4493 10.464 10.4566 10.4566C10.4673 10.446 10.4773 10.4373 10.4866 10.4306C10.9953 9.91665 11.3993 9.30198 11.6773 8.61198C12.2313 7.23932 12.2173 5.73332 11.638 4.37065C11.0593 3.00798 9.98397 1.95265 8.61131 1.39865C7.94531 1.12998 7.24731 0.993317 6.53797 0.993317Z" fill="#07DB9F" fill-opacity="0.76"/>
</g>
<defs>
<clipPath id="clip0_172_594">
<rect width="16" height="16" fill="white"/>
</clipPath>
</defs>
</svg>
