<svg id="Regular" xmlns="http://www.w3.org/2000/svg" viewBox="0 0 24 24"><defs><style>.cls-1{fill:none;stroke:currentColor;stroke-linecap:round;stroke-linejoin:round;stroke-width:1.5px;}</style></defs><title>Magic</title><line class="cls-1" x1="23.25" y1="0.75" x2="9" y2="11.25"/><line class="cls-1" x1="6.75" y1="2.25" x2="9.75" y2="2.25"/><line class="cls-1" x1="8.25" y1="0.75" x2="8.25" y2="3.75"/><line class="cls-1" x1="1.5" y1="8.25" x2="6" y2="8.25"/><line class="cls-1" x1="3.75" y1="6" x2="3.75" y2="10.5"/><path class="cls-1" d="M18.652,23.25c-.243-1.669-.449-3.655-.561-5.97"/><path class="cls-1" d="M5.909,17.28c-.112,2.315-.318,4.3-.561,5.97"/><path class="cls-1" d="M17.25,9.519c3.568.755,6,2.254,6,3.981,0,2.485-5.037,4.5-11.25,4.5S.75,15.985.75,13.5a1.913,1.913,0,0,1,.156-.75"/><path class="cls-1" d="M12.75,12.009c3.375.083,6,.719,6,1.491,0,.828-3.022,1.5-6.75,1.5s-6.75-.672-6.75-1.5"/></svg>