<svg width="14" height="8" viewBox="0 0 14 8" fill="none" xmlns="http://www.w3.org/2000/svg">
<path d="M7.40078 0.579448C7.18078 0.579448 6.97398 0.665248 6.81833 0.820347L0.921781 6.71635C0.843681 6.79445 0.800781 6.89785 0.800781 7.0084C0.800781 7.1184 0.843681 7.22235 0.921781 7.2999C0.999881 7.378 1.10328 7.4209 1.21328 7.4209C1.32328 7.4209 1.42723 7.378 1.50478 7.2999L7.40078 1.40445L13.2968 7.2999C13.3749 7.378 13.4783 7.4209 13.5883 7.4209C13.6983 7.4209 13.8022 7.378 13.8798 7.2999C13.9579 7.2218 14.0008 7.1184 14.0008 7.0084C14.0008 6.8984 13.9579 6.79445 13.8798 6.7169L7.98378 0.820898C7.82868 0.665249 7.62133 0.579448 7.40078 0.579448Z" fill="#07DB9F"/>
</svg>
