<svg width="8" height="15" viewBox="0 0 8 15" fill="none" xmlns="http://www.w3.org/2000/svg">
<path d="M8.00094 7.5C8.00094 7.25 7.90344 7.015 7.72719 6.83813L1.02719 0.1375C0.938438 0.04875 0.820938 0 0.695313 0C0.570313 0 0.452188 0.04875 0.364063 0.1375C0.275313 0.22625 0.226563 0.34375 0.226563 0.46875C0.226563 0.59375 0.275313 0.711875 0.364063 0.8L7.06344 7.5L0.364063 14.2C0.275313 14.2887 0.226563 14.4062 0.226563 14.5312C0.226563 14.6562 0.275313 14.7744 0.364063 14.8625C0.452813 14.9513 0.570313 15 0.695313 15C0.820313 15 0.938438 14.9513 1.02656 14.8625L7.72656 8.1625C7.90344 7.98625 8.00094 7.75063 8.00094 7.5Z" fill="#07DB9F" fill-opacity="0.5"/>
</svg>
