<svg width="8" height="11" viewBox="0 0 8 11" fill="none" xmlns="http://www.w3.org/2000/svg">
<path d="M4.00268 5.8911C3.08353 5.8911 2.33594 5.14351 2.33594 4.22436C2.33594 3.30521 3.08353 2.55762 4.00268 2.55762C4.92183 2.55762 5.66942 3.30521 5.66942 4.22436C5.66942 5.14351 4.92183 5.8911 4.00268 5.8911ZM4.00268 3.22431C3.4511 3.22431 3.00263 3.67278 3.00263 4.22436C3.00263 4.77594 3.4511 5.2244 4.00268 5.2244C4.55426 5.2244 5.00272 4.77594 5.00272 4.22436C5.00272 3.67278 4.55426 3.22431 4.00268 3.22431Z" fill="#07DB9F"/>
<path d="M4.00056 10.1093C3.89389 10.1093 3.79166 10.0755 3.70499 10.0119C3.66321 9.98125 3.62721 9.94481 3.59699 9.90391C0.953315 6.26286 0.667969 4.7188 0.667969 4.22411C0.667969 2.38625 2.16359 0.890625 4.00145 0.890625C5.83931 0.890625 7.33493 2.38625 7.33493 4.22411C7.33493 5.75084 5.0935 8.95676 4.40636 9.90303C4.3268 10.0119 4.2099 10.083 4.07745 10.103C4.05212 10.1075 4.02634 10.1093 4.00056 10.1093ZM4.00145 1.55732C2.53116 1.55732 1.33467 2.75382 1.33467 4.22411C1.33467 5.24237 2.74095 7.56381 4.00145 9.32433C5.26151 7.56381 6.66824 5.24237 6.66824 4.22411C6.66824 2.75382 5.47174 1.55732 4.00145 1.55732Z" fill="#07DB9F"/>
</svg>
