<svg width="192" height="193" viewBox="0 0 192 193" fill="none" xmlns="http://www.w3.org/2000/svg">
<path opacity="0.5" d="M124.776 96.1048L125.008 96.342L96.068 125.282L95.8308 125.05L124.776 96.1048Z" fill="white"/>
<path d="M147.872 72.6294L148.488 73.2453L72.7887 148.945L72.1683 148.329L147.872 72.6294Z" fill="white"/>
<path d="M84.3945 110.63C84.3929 105.43 85.9452 100.349 88.8522 96.0378C91.7592 91.7268 95.8883 88.3829 100.709 86.4355C105.531 84.488 110.824 84.0258 115.909 85.1082C120.995 86.1906 125.641 88.7682 129.251 92.5101L137.882 83.879C131.248 77.091 122.329 73.0088 112.855 72.4244C103.382 71.8399 94.0284 74.7948 86.61 80.7159C79.1915 86.637 74.2366 95.1023 72.7062 104.47C71.1757 113.837 73.1789 123.439 78.3272 131.414L87.3643 122.714C85.4085 118.987 84.3892 114.839 84.3945 110.63V110.63Z" fill="white"/>
<path d="M142.212 89.1662L133.33 98.0162C136.392 103.557 137.334 110.023 135.982 116.207C134.63 122.392 131.075 127.874 125.98 131.631C120.885 135.389 114.597 137.166 108.289 136.63C101.981 136.095 96.0826 133.284 91.6935 128.722L83.0624 137.353C89.7401 144.208 98.7423 148.315 108.296 148.864C117.851 149.414 127.264 146.366 134.684 140.322C142.103 134.278 146.991 125.674 148.384 116.206C149.777 106.738 147.575 97.0917 142.212 89.1662V89.1662Z" fill="white"/>
<path d="M43.4104 86.8169C46.9528 86.8169 49.8244 83.9452 49.8244 80.4029C49.8244 76.8605 46.9528 73.9889 43.4104 73.9889C39.8681 73.9889 36.9965 76.8605 36.9965 80.4029C36.9965 83.9452 39.8681 86.8169 43.4104 86.8169Z" fill="#05F2F2"/>
<path d="M43.4105 52.0053V80.4029" stroke="#05F2F2" stroke-width="2" stroke-miterlimit="10"/>
<path d="M43.4104 12.828C46.9528 12.828 49.8244 9.95633 49.8244 6.41398C49.8244 2.87164 46.9528 0 43.4104 0C39.8681 0 36.9965 2.87164 36.9965 6.41398C36.9965 9.95633 39.8681 12.828 43.4104 12.828Z" fill="#05F2F2"/>
<path d="M43.4105 34.8116V6.41401" stroke="#05F2F2" stroke-width="2" stroke-miterlimit="10"/>
<path d="M69.5682 75.9824C73.1106 75.9824 75.9822 73.1108 75.9822 69.5684C75.9822 66.0261 73.1106 63.1545 69.5682 63.1545C66.0259 63.1545 63.1543 66.0261 63.1543 69.5684C63.1543 73.1108 66.0259 75.9824 69.5682 75.9824Z" fill="#05F2F2"/>
<path d="M49.4871 49.4871L69.5684 69.5685" stroke="#05F2F2" stroke-width="2" stroke-miterlimit="10"/>
<path d="M17.2484 23.6624C20.7907 23.6624 23.6623 20.7908 23.6623 17.2484C23.6623 13.7061 20.7907 10.8345 17.2484 10.8345C13.706 10.8345 10.8344 13.7061 10.8344 17.2484C10.8344 20.7908 13.706 23.6624 17.2484 23.6624Z" fill="#05F2F2"/>
<path d="M37.3297 37.3298L17.2484 17.2485" stroke="#05F2F2" stroke-width="2" stroke-miterlimit="10"/>
<path d="M17.2484 75.9824C20.7907 75.9824 23.6623 73.1108 23.6623 69.5684C23.6623 66.0261 20.7907 63.1545 17.2484 63.1545C13.706 63.1545 10.8344 66.0261 10.8344 69.5684C10.8344 73.1108 13.706 75.9824 17.2484 75.9824Z" fill="#05F2F2"/>
<path d="M37.3297 49.4871L17.2484 69.5685" stroke="#05F2F2" stroke-width="2" stroke-miterlimit="10"/>
<path d="M69.5682 23.6624C73.1106 23.6624 75.9822 20.7908 75.9822 17.2484C75.9822 13.7061 73.1106 10.8345 69.5682 10.8345C66.0259 10.8345 63.1543 13.7061 63.1543 17.2484C63.1543 20.7908 66.0259 23.6624 69.5682 23.6624Z" fill="#05F2F2"/>
<path d="M49.4871 37.3298L69.5684 17.2485" stroke="#05F2F2" stroke-width="2" stroke-miterlimit="10"/>
<path d="M6.41398 49.8247C9.95633 49.8247 12.828 46.9531 12.828 43.4107C12.828 39.8684 9.95633 36.9967 6.41398 36.9967C2.87164 36.9967 0 39.8684 0 43.4107C0 46.9531 2.87164 49.8247 6.41398 49.8247Z" fill="#05F2F2"/>
<path d="M34.8117 43.4107H6.41406" stroke="#05F2F2" stroke-width="2" stroke-miterlimit="10"/>
<path d="M80.4026 49.8247C83.945 49.8247 86.8166 46.9531 86.8166 43.4107C86.8166 39.8684 83.945 36.9967 80.4026 36.9967C76.8603 36.9967 73.9886 39.8684 73.9886 43.4107C73.9886 46.9531 76.8603 49.8247 80.4026 49.8247Z" fill="#05F2F2"/>
<path d="M52.0054 43.4107H80.403" stroke="#05F2F2" stroke-width="2" stroke-miterlimit="10"/>
<path d="M43.4107 34.8983C45.1025 34.8983 46.7562 35.3999 48.1628 36.3398C49.5694 37.2797 50.6657 38.6155 51.3131 40.1785C51.9605 41.7414 52.1299 43.4613 51.7999 45.1205C51.4698 46.7797 50.6552 48.3038 49.459 49.5C48.2627 50.6962 46.7387 51.5109 45.0794 51.8409C43.4202 52.171 41.7004 52.0016 40.1375 51.3542C38.5745 50.7068 37.2386 49.6105 36.2988 48.2038C35.3589 46.7972 34.8572 45.1435 34.8572 43.4518C34.8572 41.1832 35.7584 39.0076 37.3625 37.4035C38.9666 35.7994 41.1422 34.8983 43.4107 34.8983V34.8983ZM43.4107 28.0555C40.3656 28.0555 37.3889 28.9585 34.857 30.6502C32.3251 32.342 30.3517 34.7466 29.1864 37.5599C28.0211 40.3732 27.7162 43.4689 28.3103 46.4554C28.9043 49.442 30.3707 52.1854 32.5239 54.3386C34.6771 56.4918 37.4205 57.9582 40.4071 58.5522C43.3937 59.1463 46.4893 58.8414 49.3026 57.6761C52.1159 56.5108 54.5205 54.5374 56.2123 52.0055C57.9041 49.4736 58.807 46.4969 58.807 43.4518C58.8022 39.3699 57.1785 35.4566 54.2922 32.5703C51.4059 29.684 47.4926 28.0603 43.4107 28.0555V28.0555Z" fill="#05F2F2"/>
<path d="M110.47 57.8809C111.652 57.8809 112.609 56.9231 112.609 55.7414C112.609 54.5598 111.652 53.6019 110.47 53.6019C109.288 53.6019 108.33 54.5598 108.33 55.7414C108.33 56.9231 109.288 57.8809 110.47 57.8809Z" fill="white"/>
<path d="M110.47 46.2756V55.7414" stroke="white" stroke-miterlimit="10"/>
<path d="M110.47 33.2195C111.652 33.2195 112.609 32.2616 112.609 31.08C112.609 29.8984 111.652 28.9405 110.47 28.9405C109.288 28.9405 108.33 29.8984 108.33 31.08C108.33 32.2616 109.288 33.2195 110.47 33.2195Z" fill="white"/>
<path d="M110.47 40.5459V31.08" stroke="white" stroke-miterlimit="10"/>
<path d="M119.188 54.268C120.369 54.268 121.327 53.3101 121.327 52.1284C121.327 50.9468 120.369 49.9889 119.188 49.9889C118.006 49.9889 117.048 50.9468 117.048 52.1284C117.048 53.3101 118.006 54.268 119.188 54.268Z" fill="white"/>
<path d="M112.496 45.4362L119.188 52.1284" stroke="white" stroke-miterlimit="10"/>
<path d="M101.748 36.8279C102.929 36.8279 103.887 35.87 103.887 34.6884C103.887 33.5068 102.929 32.5489 101.748 32.5489C100.566 32.5489 99.6082 33.5068 99.6082 34.6884C99.6082 35.87 100.566 36.8279 101.748 36.8279Z" fill="white"/>
<path d="M108.44 41.3807L101.748 34.6884" stroke="white" stroke-miterlimit="10"/>
<path d="M101.748 54.268C102.929 54.268 103.887 53.3101 103.887 52.1284C103.887 50.9468 102.929 49.9889 101.748 49.9889C100.566 49.9889 99.6082 50.9468 99.6082 52.1284C99.6082 53.3101 100.566 54.268 101.748 54.268Z" fill="white"/>
<path d="M108.44 45.4362L101.748 52.1284" stroke="white" stroke-miterlimit="10"/>
<path d="M119.188 36.8279C120.369 36.8279 121.327 35.87 121.327 34.6884C121.327 33.5068 120.369 32.5489 119.188 32.5489C118.006 32.5489 117.048 33.5068 117.048 34.6884C117.048 35.87 118.006 36.8279 119.188 36.8279Z" fill="white"/>
<path d="M112.496 41.3807L119.188 34.6884" stroke="white" stroke-miterlimit="10"/>
<path d="M98.1344 45.5502C99.316 45.5502 100.274 44.5923 100.274 43.4107C100.274 42.2291 99.316 41.2712 98.1344 41.2712C96.9528 41.2712 95.9949 42.2291 95.9949 43.4107C95.9949 44.5923 96.9528 45.5502 98.1344 45.5502Z" fill="white"/>
<path d="M107.601 43.4107H98.1347" stroke="white" stroke-miterlimit="10"/>
<path d="M122.8 45.5502C123.982 45.5502 124.94 44.5923 124.94 43.4107C124.94 42.2291 123.982 41.2712 122.8 41.2712C121.619 41.2712 120.661 42.2291 120.661 43.4107C120.661 44.5923 121.619 45.5502 122.8 45.5502Z" fill="white"/>
<path d="M113.335 43.4107H122.801" stroke="white" stroke-miterlimit="10"/>
<path d="M110.47 40.5732C111.034 40.5732 111.585 40.7404 112.054 41.0537C112.523 41.367 112.888 41.8123 113.104 42.3333C113.32 42.8543 113.376 43.4275 113.266 43.9806C113.156 44.5337 112.885 45.0417 112.486 45.4405C112.087 45.8392 111.579 46.1107 111.026 46.2208C110.473 46.3308 109.9 46.2743 109.379 46.0585C108.858 45.8427 108.413 45.4773 108.099 45.0084C107.786 44.5395 107.619 43.9883 107.619 43.4244C107.619 42.6682 107.919 41.943 108.454 41.4083C108.989 40.8736 109.714 40.5732 110.47 40.5732V40.5732ZM110.47 38.2923C109.455 38.2923 108.463 38.5933 107.619 39.1572C106.775 39.7211 106.117 40.5226 105.728 41.4604C105.34 42.3982 105.238 43.4301 105.436 44.4256C105.634 45.4211 106.123 46.3356 106.841 47.0533C107.559 47.7711 108.473 48.2598 109.469 48.4579C110.464 48.6559 111.496 48.5543 112.434 48.1658C113.372 47.7774 114.173 47.1196 114.737 46.2756C115.301 45.4317 115.602 44.4394 115.602 43.4244C115.602 42.0633 115.061 40.7579 114.099 39.7954C113.136 38.833 111.831 38.2923 110.47 38.2923V38.2923Z" fill="white"/>
<path d="M110.47 192.456C111.652 192.456 112.609 191.498 112.609 190.316C112.609 189.135 111.652 188.177 110.47 188.177C109.288 188.177 108.33 189.135 108.33 190.316C108.33 191.498 109.288 192.456 110.47 192.456Z" fill="white"/>
<path d="M110.47 180.851V190.316" stroke="white" stroke-miterlimit="10"/>
<path d="M110.47 167.795C111.652 167.795 112.609 166.837 112.609 165.655C112.609 164.473 111.652 163.515 110.47 163.515C109.288 163.515 108.33 164.473 108.33 165.655C108.33 166.837 109.288 167.795 110.47 167.795Z" fill="white"/>
<path d="M110.47 175.121V165.655" stroke="white" stroke-miterlimit="10"/>
<path d="M119.188 188.843C120.369 188.843 121.327 187.885 121.327 186.703C121.327 185.522 120.369 184.564 119.188 184.564C118.006 184.564 117.048 185.522 117.048 186.703C117.048 187.885 118.006 188.843 119.188 188.843Z" fill="white"/>
<path d="M112.496 180.011L119.188 186.703" stroke="white" stroke-miterlimit="10"/>
<path d="M101.748 171.403C102.929 171.403 103.887 170.445 103.887 169.263C103.887 168.082 102.929 167.124 101.748 167.124C100.566 167.124 99.6082 168.082 99.6082 169.263C99.6082 170.445 100.566 171.403 101.748 171.403Z" fill="white"/>
<path d="M108.44 175.956L101.748 169.263" stroke="white" stroke-miterlimit="10"/>
<path d="M101.748 188.843C102.929 188.843 103.887 187.885 103.887 186.703C103.887 185.522 102.929 184.564 101.748 184.564C100.566 184.564 99.6082 185.522 99.6082 186.703C99.6082 187.885 100.566 188.843 101.748 188.843Z" fill="white"/>
<path d="M108.44 180.011L101.748 186.703" stroke="white" stroke-miterlimit="10"/>
<path d="M119.188 171.403C120.369 171.403 121.327 170.445 121.327 169.263C121.327 168.082 120.369 167.124 119.188 167.124C118.006 167.124 117.048 168.082 117.048 169.263C117.048 170.445 118.006 171.403 119.188 171.403Z" fill="white"/>
<path d="M112.496 175.956L119.188 169.263" stroke="white" stroke-miterlimit="10"/>
<path d="M98.1344 180.125C99.316 180.125 100.274 179.167 100.274 177.986C100.274 176.804 99.316 175.846 98.1344 175.846C96.9528 175.846 95.9949 176.804 95.9949 177.986C95.9949 179.167 96.9528 180.125 98.1344 180.125Z" fill="white"/>
<path d="M107.601 177.986H98.1347" stroke="white" stroke-miterlimit="10"/>
<path d="M122.8 180.125C123.982 180.125 124.94 179.167 124.94 177.986C124.94 176.804 123.982 175.846 122.8 175.846C121.619 175.846 120.661 176.804 120.661 177.986C120.661 179.167 121.619 180.125 122.8 180.125Z" fill="white"/>
<path d="M113.335 177.986H122.801" stroke="white" stroke-miterlimit="10"/>
<path d="M110.47 175.148C111.034 175.148 111.585 175.315 112.054 175.629C112.523 175.942 112.888 176.387 113.104 176.908C113.32 177.429 113.376 178.003 113.266 178.556C113.156 179.109 112.885 179.617 112.486 180.015C112.087 180.414 111.579 180.686 111.026 180.796C110.473 180.906 109.9 180.849 109.379 180.633C108.858 180.418 108.413 180.052 108.099 179.583C107.786 179.115 107.619 178.563 107.619 177.999C107.619 177.243 107.919 176.518 108.454 175.983C108.989 175.449 109.714 175.148 110.47 175.148V175.148ZM110.47 172.867C109.455 172.867 108.463 173.168 107.619 173.732C106.775 174.296 106.117 175.098 105.728 176.035C105.34 176.973 105.238 178.005 105.436 179.001C105.634 179.996 106.123 180.911 106.841 181.628C107.559 182.346 108.473 182.835 109.469 183.033C110.464 183.231 111.496 183.129 112.434 182.741C113.372 182.352 114.173 181.695 114.737 180.851C115.301 180.007 115.602 179.014 115.602 177.999C115.602 176.638 115.061 175.333 114.099 174.37C113.136 173.408 111.831 172.867 110.47 172.867Z" fill="white"/>
<path d="M149.328 151.696C150.51 151.696 151.468 150.738 151.468 149.556C151.468 148.375 150.51 147.417 149.328 147.417C148.147 147.417 147.189 148.375 147.189 149.556C147.189 150.738 148.147 151.696 149.328 151.696Z" fill="white"/>
<path d="M156.02 156.248L149.328 149.556" stroke="white" stroke-miterlimit="10"/>
<path d="M166.768 169.136C167.95 169.136 168.908 168.178 168.908 166.996C168.908 165.815 167.95 164.857 166.768 164.857C165.587 164.857 164.629 165.815 164.629 166.996C164.629 168.178 165.587 169.136 166.768 169.136Z" fill="white"/>
<path d="M160.076 160.304L166.768 166.996" stroke="white" stroke-miterlimit="10"/>
<path d="M145.715 160.413C146.897 160.413 147.855 159.456 147.855 158.274C147.855 157.092 146.897 156.134 145.715 156.134C144.534 156.134 143.576 157.092 143.576 158.274C143.576 159.456 144.534 160.413 145.715 160.413Z" fill="white"/>
<path d="M155.181 158.274H145.715" stroke="white" stroke-miterlimit="10"/>
<path d="M170.381 160.413C171.562 160.413 172.52 159.456 172.52 158.274C172.52 157.092 171.562 156.134 170.381 156.134C169.199 156.134 168.241 157.092 168.241 158.274C168.241 159.456 169.199 160.413 170.381 160.413Z" fill="white"/>
<path d="M160.915 158.274H170.381" stroke="white" stroke-miterlimit="10"/>
<path d="M158.046 148.083C159.228 148.083 160.186 147.125 160.186 145.943C160.186 144.762 159.228 143.804 158.046 143.804C156.864 143.804 155.907 144.762 155.907 145.943C155.907 147.125 156.864 148.083 158.046 148.083Z" fill="white"/>
<path d="M158.046 155.409V145.943" stroke="white" stroke-miterlimit="10"/>
<path d="M158.046 172.749C159.228 172.749 160.186 171.791 160.186 170.609C160.186 169.428 159.228 168.47 158.046 168.47C156.864 168.47 155.907 169.428 155.907 170.609C155.907 171.791 156.864 172.749 158.046 172.749Z" fill="white"/>
<path d="M158.046 161.143V170.609" stroke="white" stroke-miterlimit="10"/>
<path d="M166.768 151.696C167.95 151.696 168.908 150.738 168.908 149.556C168.908 148.375 167.95 147.417 166.768 147.417C165.587 147.417 164.629 148.375 164.629 149.556C164.629 150.738 165.587 151.696 166.768 151.696Z" fill="white"/>
<path d="M160.076 156.248L166.768 149.556" stroke="white" stroke-miterlimit="10"/>
<path d="M149.328 169.136C150.51 169.136 151.468 168.178 151.468 166.996C151.468 165.815 150.51 164.857 149.328 164.857C148.147 164.857 147.189 165.815 147.189 166.996C147.189 168.178 148.147 169.136 149.328 169.136Z" fill="white"/>
<path d="M156.02 160.304L149.328 166.996" stroke="white" stroke-miterlimit="10"/>
<path d="M158.036 155.414C158.696 155.414 159.335 155.643 159.845 156.061C160.355 156.48 160.704 157.062 160.832 157.709C160.961 158.356 160.861 159.028 160.55 159.609C160.239 160.191 159.736 160.647 159.127 160.899C158.517 161.151 157.839 161.185 157.208 160.993C156.577 160.801 156.031 160.397 155.665 159.848C155.299 159.3 155.134 158.641 155.198 157.985C155.263 157.328 155.554 156.715 156.02 156.248C156.285 155.983 156.599 155.773 156.945 155.63C157.291 155.487 157.662 155.413 158.036 155.414V155.414ZM158.036 153.133C156.85 153.137 155.702 153.552 154.787 154.307C153.872 155.063 153.247 156.112 153.019 157.276C152.79 158.44 152.972 159.648 153.533 160.693C154.095 161.738 155.001 162.557 156.098 163.009C157.194 163.461 158.414 163.52 159.549 163.174C160.684 162.829 161.664 162.101 162.323 161.114C162.982 160.127 163.278 158.943 163.162 157.762C163.046 156.582 162.524 155.478 161.686 154.638C161.209 154.157 160.64 153.775 160.013 153.517C159.386 153.258 158.714 153.128 158.036 153.133V153.133Z" fill="white"/>
<path d="M149.328 73.9752C150.51 73.9752 151.468 73.0173 151.468 71.8357C151.468 70.6541 150.51 69.6962 149.328 69.6962C148.147 69.6962 147.189 70.6541 147.189 71.8357C147.189 73.0173 148.147 73.9752 149.328 73.9752Z" fill="white"/>
<path d="M156.02 65.1434L149.328 71.8357" stroke="white" stroke-miterlimit="10"/>
<path d="M166.768 56.5352C167.95 56.5352 168.908 55.5773 168.908 54.3957C168.908 53.2141 167.95 52.2562 166.768 52.2562C165.587 52.2562 164.629 53.2141 164.629 54.3957C164.629 55.5773 165.587 56.5352 166.768 56.5352Z" fill="white"/>
<path d="M160.076 61.0925L166.768 54.3957" stroke="white" stroke-miterlimit="10"/>
<path d="M158.046 77.5882C159.228 77.5882 160.186 76.6303 160.186 75.4487C160.186 74.2671 159.228 73.3092 158.046 73.3092C156.864 73.3092 155.907 74.2671 155.907 75.4487C155.907 76.6303 156.864 77.5882 158.046 77.5882Z" fill="white"/>
<path d="M158.046 65.9828V75.4487" stroke="white" stroke-miterlimit="10"/>
<path d="M158.046 52.9268C159.228 52.9268 160.186 51.9689 160.186 50.7873C160.186 49.6056 159.228 48.6478 158.046 48.6478C156.864 48.6478 155.907 49.6056 155.907 50.7873C155.907 51.9689 156.864 52.9268 158.046 52.9268Z" fill="white"/>
<path d="M158.046 60.2531V50.7872" stroke="white" stroke-miterlimit="10"/>
<path d="M145.715 65.2575C146.897 65.2575 147.855 64.2996 147.855 63.118C147.855 61.9364 146.897 60.9785 145.715 60.9785C144.534 60.9785 143.576 61.9364 143.576 63.118C143.576 64.2996 144.534 65.2575 145.715 65.2575Z" fill="white"/>
<path d="M155.181 63.118H145.715" stroke="white" stroke-miterlimit="10"/>
<path d="M170.381 65.2575C171.562 65.2575 172.52 64.2996 172.52 63.118C172.52 61.9364 171.562 60.9785 170.381 60.9785C169.199 60.9785 168.241 61.9364 168.241 63.118C168.241 64.2996 169.199 65.2575 170.381 65.2575Z" fill="white"/>
<path d="M160.915 63.118H170.381" stroke="white" stroke-miterlimit="10"/>
<path d="M149.328 56.5352C150.51 56.5352 151.468 55.5773 151.468 54.3957C151.468 53.2141 150.51 52.2562 149.328 52.2562C148.147 52.2562 147.189 53.2141 147.189 54.3957C147.189 55.5773 148.147 56.5352 149.328 56.5352Z" fill="white"/>
<path d="M156.02 61.0925L149.328 54.3957" stroke="white" stroke-miterlimit="10"/>
<path d="M166.768 73.9752C167.95 73.9752 168.908 73.0173 168.908 71.8357C168.908 70.6541 167.95 69.6962 166.768 69.6962C165.587 69.6962 164.629 70.6541 164.629 71.8357C164.629 73.0173 165.587 73.9752 166.768 73.9752Z" fill="white"/>
<path d="M160.076 65.1434L166.768 71.8357" stroke="white" stroke-miterlimit="10"/>
<path d="M158.037 60.2759C158.696 60.2729 159.336 60.4984 159.847 60.9139C160.359 61.3294 160.711 61.9094 160.843 62.5551C160.975 63.2008 160.88 63.8723 160.572 64.4555C160.265 65.0387 159.766 65.4975 159.158 65.7538C158.551 66.0101 157.874 66.0482 157.242 65.8614C156.61 65.6747 156.062 65.2747 155.691 64.7296C155.321 64.1844 155.151 63.5278 155.21 62.8713C155.269 62.2149 155.554 61.5992 156.016 61.129C156.28 60.8639 156.595 60.6536 156.941 60.5104C157.287 60.3671 157.658 60.2936 158.032 60.2942L158.037 60.2759ZM158.032 58.0133C156.846 58.0175 155.697 58.4326 154.783 59.1881C153.868 59.9435 153.243 60.9925 153.014 62.1567C152.786 63.3209 152.968 64.5284 153.529 65.5736C154.09 66.6188 154.997 67.4372 156.093 67.8896C157.19 68.3421 158.41 68.4005 159.545 68.055C160.68 67.7096 161.66 66.9815 162.319 65.9948C162.977 65.008 163.274 63.8236 163.158 62.6428C163.042 61.4621 162.52 60.3581 161.682 59.5187C161.204 59.0372 160.636 58.656 160.009 58.3975C159.382 58.1389 158.71 58.0083 158.032 58.0133V58.0133Z" fill="white"/>
<path d="M54.1676 169.136C55.3492 169.136 56.3071 168.178 56.3071 166.996C56.3071 165.815 55.3492 164.857 54.1676 164.857C52.986 164.857 52.0281 165.815 52.0281 166.996C52.0281 168.178 52.986 169.136 54.1676 169.136Z" fill="white"/>
<path d="M60.8648 160.304L54.1679 166.996" stroke="white" stroke-miterlimit="10"/>
<path d="M71.6078 151.696C72.7895 151.696 73.7474 150.738 73.7474 149.556C73.7474 148.375 72.7895 147.417 71.6078 147.417C70.4262 147.417 69.4683 148.375 69.4683 149.556C69.4683 150.738 70.4262 151.696 71.6078 151.696Z" fill="white"/>
<path d="M64.9156 156.248L71.6078 149.556" stroke="white" stroke-miterlimit="10"/>
<path d="M62.8899 172.749C64.0715 172.749 65.0294 171.791 65.0294 170.609C65.0294 169.428 64.0715 168.47 62.8899 168.47C61.7083 168.47 60.7504 169.428 60.7504 170.609C60.7504 171.791 61.7083 172.749 62.8899 172.749Z" fill="white"/>
<path d="M62.8902 161.143V170.609" stroke="white" stroke-miterlimit="10"/>
<path d="M62.8899 148.083C64.0715 148.083 65.0294 147.125 65.0294 145.943C65.0294 144.762 64.0715 143.804 62.8899 143.804C61.7083 143.804 60.7504 144.762 60.7504 145.943C60.7504 147.125 61.7083 148.083 62.8899 148.083Z" fill="white"/>
<path d="M62.8902 155.409V145.943" stroke="white" stroke-miterlimit="10"/>
<path d="M50.5594 160.413C51.741 160.413 52.6989 159.456 52.6989 158.274C52.6989 157.092 51.741 156.134 50.5594 156.134C49.3778 156.134 48.4199 157.092 48.4199 158.274C48.4199 159.456 49.3778 160.413 50.5594 160.413Z" fill="white"/>
<path d="M60.0248 158.274H50.559" stroke="white" stroke-miterlimit="10"/>
<path d="M75.2203 160.413C76.4019 160.413 77.3598 159.456 77.3598 158.274C77.3598 157.092 76.4019 156.134 75.2203 156.134C74.0387 156.134 73.0808 157.092 73.0808 158.274C73.0808 159.456 74.0387 160.413 75.2203 160.413Z" fill="white"/>
<path d="M65.7543 158.274H75.2201" stroke="white" stroke-miterlimit="10"/>
<path d="M54.1676 151.696C55.3492 151.696 56.3071 150.738 56.3071 149.556C56.3071 148.375 55.3492 147.417 54.1676 147.417C52.986 147.417 52.0281 148.375 52.0281 149.556C52.0281 150.738 52.986 151.696 54.1676 151.696Z" fill="white"/>
<path d="M60.8648 156.248L54.1679 149.556" stroke="white" stroke-miterlimit="10"/>
<path d="M71.6078 169.136C72.7895 169.136 73.7474 168.178 73.7474 166.996C73.7474 165.815 72.7895 164.857 71.6078 164.857C70.4262 164.857 69.4683 165.815 69.4683 166.996C69.4683 168.178 70.4262 169.136 71.6078 169.136Z" fill="white"/>
<path d="M64.9156 160.304L71.6078 166.996" stroke="white" stroke-miterlimit="10"/>
<path d="M62.8808 155.436C63.5405 155.437 64.1796 155.665 64.6895 156.084C65.1993 156.502 65.5482 157.085 65.6768 157.732C65.8054 158.379 65.7056 159.05 65.3946 159.632C65.0836 160.214 64.5804 160.67 63.971 160.922C63.3615 161.174 62.6834 161.207 62.0522 161.016C61.4211 160.824 60.8758 160.42 60.5094 159.871C60.143 159.323 59.9782 158.664 60.0429 158.008C60.1077 157.351 60.398 156.738 60.8645 156.271C61.1293 156.006 61.4437 155.797 61.7896 155.653C62.1356 155.51 62.5064 155.436 62.8808 155.436V155.436ZM62.8808 153.155C61.6934 153.155 60.5426 153.567 59.6248 154.321C58.7069 155.074 58.0787 156.122 57.8472 157.287C57.6158 158.452 57.7953 159.661 58.3554 160.708C58.9154 161.755 59.8212 162.576 60.9184 163.03C62.0157 163.484 63.2364 163.543 64.3726 163.198C65.5088 162.853 66.4902 162.124 67.1494 161.137C67.8087 160.149 68.105 158.963 67.988 157.782C67.8709 156.6 67.3477 155.495 66.5075 154.656C66.0318 154.179 65.4665 153.801 64.8441 153.544C64.2216 153.286 63.5544 153.154 62.8808 153.155V153.155Z" fill="white"/>
<path d="M177.529 124.94C178.711 124.94 179.669 123.982 179.669 122.801C179.669 121.619 178.711 120.661 177.529 120.661C176.348 120.661 175.39 121.619 175.39 122.801C175.39 123.982 176.348 124.94 177.529 124.94Z" fill="white"/>
<path d="M177.53 113.335V122.801" stroke="white" stroke-miterlimit="10"/>
<path d="M177.529 100.279C178.711 100.279 179.669 99.321 179.669 98.1394C179.669 96.9578 178.711 95.9999 177.529 95.9999C176.348 95.9999 175.39 96.9578 175.39 98.1394C175.39 99.321 176.348 100.279 177.529 100.279Z" fill="white"/>
<path d="M177.53 107.605V98.1394" stroke="white" stroke-miterlimit="10"/>
<path d="M186.247 121.327C187.429 121.327 188.387 120.369 188.387 119.188C188.387 118.006 187.429 117.048 186.247 117.048C185.066 117.048 184.108 118.006 184.108 119.188C184.108 120.369 185.066 121.327 186.247 121.327Z" fill="white"/>
<path d="M179.555 112.496L186.247 119.188" stroke="white" stroke-miterlimit="10"/>
<path d="M168.807 103.887C169.989 103.887 170.947 102.929 170.947 101.748C170.947 100.566 169.989 99.6083 168.807 99.6083C167.626 99.6083 166.668 100.566 166.668 101.748C166.668 102.929 167.626 103.887 168.807 103.887Z" fill="white"/>
<path d="M175.5 108.44L168.807 101.748" stroke="white" stroke-miterlimit="10"/>
<path d="M168.807 121.327C169.989 121.327 170.947 120.369 170.947 119.188C170.947 118.006 169.989 117.048 168.807 117.048C167.626 117.048 166.668 118.006 166.668 119.188C166.668 120.369 167.626 121.327 168.807 121.327Z" fill="white"/>
<path d="M175.5 112.496L168.807 119.188" stroke="white" stroke-miterlimit="10"/>
<path d="M186.247 103.887C187.429 103.887 188.387 102.929 188.387 101.748C188.387 100.566 187.429 99.6083 186.247 99.6083C185.066 99.6083 184.108 100.566 184.108 101.748C184.108 102.929 185.066 103.887 186.247 103.887Z" fill="white"/>
<path d="M179.555 108.44L186.247 101.748" stroke="white" stroke-miterlimit="10"/>
<path d="M165.195 112.61C166.376 112.61 167.334 111.652 167.334 110.47C167.334 109.289 166.376 108.331 165.195 108.331C164.013 108.331 163.055 109.289 163.055 110.47C163.055 111.652 164.013 112.61 165.195 112.61Z" fill="white"/>
<path d="M174.66 110.47H165.194" stroke="white" stroke-miterlimit="10"/>
<path d="M189.861 112.61C191.042 112.61 192 111.652 192 110.47C192 109.289 191.042 108.331 189.861 108.331C188.679 108.331 187.721 109.289 187.721 110.47C187.721 111.652 188.679 112.61 189.861 112.61Z" fill="white"/>
<path d="M180.394 110.47H189.86" stroke="white" stroke-miterlimit="10"/>
<path d="M177.529 107.633C178.093 107.633 178.644 107.8 179.113 108.113C179.582 108.426 179.948 108.872 180.163 109.393C180.379 109.914 180.436 110.487 180.326 111.04C180.216 111.593 179.944 112.101 179.545 112.5C179.147 112.899 178.639 113.17 178.085 113.28C177.532 113.39 176.959 113.334 176.438 113.118C175.917 112.902 175.472 112.537 175.159 112.068C174.845 111.599 174.678 111.048 174.678 110.484C174.678 109.728 174.978 109.002 175.513 108.468C176.048 107.933 176.773 107.633 177.529 107.633ZM177.529 105.352C176.514 105.352 175.522 105.653 174.678 106.217C173.834 106.781 173.176 107.582 172.788 108.52C172.399 109.458 172.298 110.49 172.496 111.485C172.694 112.481 173.183 113.395 173.9 114.113C174.618 114.831 175.533 115.319 176.528 115.517C177.524 115.715 178.555 115.614 179.493 115.225C180.431 114.837 181.233 114.179 181.796 113.335C182.36 112.491 182.661 111.499 182.661 110.484C182.661 109.123 182.121 107.817 181.158 106.855C180.196 105.892 178.89 105.352 177.529 105.352V105.352Z" fill="white"/>
<path d="M43.4106 124.94C44.5922 124.94 45.5501 123.982 45.5501 122.801C45.5501 121.619 44.5922 120.661 43.4106 120.661C42.229 120.661 41.2711 121.619 41.2711 122.801C41.2711 123.982 42.229 124.94 43.4106 124.94Z" fill="white"/>
<path d="M43.4105 113.335V122.801" stroke="white" stroke-miterlimit="10"/>
<path d="M43.4106 100.279C44.5922 100.279 45.5501 99.321 45.5501 98.1394C45.5501 96.9578 44.5922 95.9999 43.4106 95.9999C42.229 95.9999 41.2711 96.9578 41.2711 98.1394C41.2711 99.321 42.229 100.279 43.4106 100.279Z" fill="white"/>
<path d="M43.4105 107.605V98.1394" stroke="white" stroke-miterlimit="10"/>
<path d="M52.1282 121.327C53.3098 121.327 54.2677 120.369 54.2677 119.188C54.2677 118.006 53.3098 117.048 52.1282 117.048C50.9465 117.048 49.9886 118.006 49.9886 119.188C49.9886 120.369 50.9465 121.327 52.1282 121.327Z" fill="white"/>
<path d="M45.4359 112.496L52.1282 119.188" stroke="white" stroke-miterlimit="10"/>
<path d="M34.6883 103.887C35.8699 103.887 36.8278 102.929 36.8278 101.748C36.8278 100.566 35.8699 99.6083 34.6883 99.6083C33.5067 99.6083 32.5488 100.566 32.5488 101.748C32.5488 102.929 33.5067 103.887 34.6883 103.887Z" fill="white"/>
<path d="M41.3805 108.44L34.6883 101.748" stroke="white" stroke-miterlimit="10"/>
<path d="M34.6883 121.327C35.8699 121.327 36.8278 120.369 36.8278 119.188C36.8278 118.006 35.8699 117.048 34.6883 117.048C33.5067 117.048 32.5488 118.006 32.5488 119.188C32.5488 120.369 33.5067 121.327 34.6883 121.327Z" fill="white"/>
<path d="M41.3805 112.496L34.6883 119.188" stroke="white" stroke-miterlimit="10"/>
<path d="M52.1282 103.887C53.3098 103.887 54.2677 102.929 54.2677 101.748C54.2677 100.566 53.3098 99.6083 52.1282 99.6083C50.9465 99.6083 49.9886 100.566 49.9886 101.748C49.9886 102.929 50.9465 103.887 52.1282 103.887Z" fill="white"/>
<path d="M45.4359 108.44L52.1282 101.748" stroke="white" stroke-miterlimit="10"/>
<path d="M31.0754 112.61C32.2571 112.61 33.2149 111.652 33.2149 110.47C33.2149 109.289 32.2571 108.331 31.0754 108.331C29.8938 108.331 28.9359 109.289 28.9359 110.47C28.9359 111.652 29.8938 112.61 31.0754 112.61Z" fill="white"/>
<path d="M40.5416 110.47H31.0758" stroke="white" stroke-miterlimit="10"/>
<path d="M55.7414 112.61C56.9231 112.61 57.881 111.652 57.881 110.47C57.881 109.289 56.9231 108.331 55.7414 108.331C54.5598 108.331 53.6019 109.289 53.6019 110.47C53.6019 111.652 54.5598 112.61 55.7414 112.61Z" fill="white"/>
<path d="M46.2758 110.47H55.7416" stroke="white" stroke-miterlimit="10"/>
<path d="M43.411 107.633C43.9749 107.633 44.5261 107.8 44.995 108.113C45.4639 108.426 45.8293 108.872 46.0451 109.393C46.2609 109.914 46.3174 110.487 46.2073 111.04C46.0973 111.593 45.8258 112.101 45.427 112.5C45.0283 112.899 44.5203 113.17 43.9672 113.28C43.4141 113.39 42.8409 113.334 42.3199 113.118C41.7989 112.902 41.3536 112.537 41.0403 112.068C40.727 111.599 40.5598 111.048 40.5598 110.484C40.5598 109.728 40.8602 109.002 41.3949 108.468C41.9296 107.933 42.6548 107.633 43.411 107.633ZM43.411 105.352C42.3959 105.352 41.4037 105.653 40.5597 106.217C39.7158 106.781 39.058 107.582 38.6695 108.52C38.2811 109.458 38.1795 110.49 38.3775 111.485C38.5755 112.481 39.0643 113.395 39.782 114.113C40.4998 114.831 41.4142 115.319 42.4097 115.517C43.4053 115.715 44.4372 115.614 45.3749 115.225C46.3127 114.837 47.1142 114.179 47.6781 113.335C48.2421 112.491 48.5431 111.499 48.5431 110.484C48.5431 109.123 48.0024 107.817 47.0399 106.855C46.0775 105.892 44.7721 105.352 43.411 105.352V105.352Z" fill="white"/>
</svg>
