<svg xmlns="http://www.w3.org/2000/svg" viewBox="0 0 24 24"><defs><style>.a{fill:none;stroke:currentColor;stroke-linecap:round;stroke-linejoin:round;stroke-width:1.5px;}</style></defs><title>space-rocket-earth</title><path class="a" d="M5.33,17.848A9.545,9.545,0,0,1,16.466,2.488"/><path class="a" d="M1.982,17.78C.769,19.905.363,21.554,1.048,22.24c1.04,1.039,4.294-.43,8.062-3.418"/><path class="a" d="M13.423,18.067l-3.58-3.58L17.8,6.53A5.054,5.054,0,0,1,20.153,5.2L22.2,4.686a.844.844,0,0,1,1.023,1.023l-.512,2.048a5.059,5.059,0,0,1-1.332,2.352Z"/><path class="a" d="M9.843,14.487,6.911,13.51a.422.422,0,0,1-.165-.7l1.022-1.022a3.383,3.383,0,0,1,3.462-.817l1.6.532Z"/><path class="a" d="M13.423,18.067,14.4,21a.422.422,0,0,0,.7.165l1.022-1.022a3.383,3.383,0,0,0,.817-3.462l-.532-1.6Z"/></svg>