<svg width="24" height="24" viewBox="0 0 24 24" fill="none" xmlns="http://www.w3.org/2000/svg">
<path d="M0.749996 15C0.718996 15 0.687996 14.998 0.656996 14.994C0.245996 14.942 -0.0460037 14.566 0.00599629 14.156C0.429996 10.789 3.312 8.25 6.709 8.25H6.755L6.783 8.625V8.25C8.438 8.25 10.034 8.854 11.277 9.951C11.587 10.224 11.617 10.699 11.344 11.009C11.202 11.17 10.997 11.263 10.781 11.263C10.598 11.263 10.422 11.196 10.285 11.075C9.316 10.221 8.071 9.75 6.779 9.75H6.705C4.065 9.75 1.824 11.725 1.494 14.344C1.447 14.718 1.127 15 0.749996 15Z" fill="#FFF2F1"/>
<path d="M6.75 8.25C4.475 8.25 2.625 6.4 2.625 4.125C2.625 1.85 4.475 0 6.75 0C9.025 0 10.875 1.85 10.875 4.125C10.875 6.4 9.024 8.25 6.75 8.25ZM6.75 1.5C5.303 1.5 4.125 2.678 4.125 4.125C4.125 5.572 5.303 6.75 6.75 6.75C8.197 6.75 9.375 5.572 9.375 4.125C9.375 2.678 8.197 1.5 6.75 1.5Z" fill="#FFF2F1"/>
<path d="M16.5 6.75C14.639 6.75 13.125 5.236 13.125 3.375C13.125 1.514 14.639 0 16.5 0C18.361 0 19.875 1.514 19.875 3.375C19.875 5.236 18.361 6.75 16.5 6.75ZM16.5 1.5C15.466 1.5 14.625 2.341 14.625 3.375C14.625 4.409 15.466 5.25 16.5 5.25C17.534 5.25 18.375 4.409 18.375 3.375C18.375 2.341 17.534 1.5 16.5 1.5Z" fill="#FFF2F1"/>
<path d="M20.4 9.75005C20.133 9.75005 19.884 9.60605 19.751 9.37505C19.25 8.50705 18.441 7.88705 17.473 7.62805C17.152 7.54205 16.824 7.49905 16.497 7.49905C15.846 7.49905 15.199 7.67405 14.628 8.00405C14.271 8.21105 13.952 8.47305 13.68 8.78305C13.537 8.94605 13.332 9.03905 13.115 9.03905C12.934 9.03905 12.759 8.97305 12.622 8.85405C12.31 8.58105 12.278 8.10605 12.55 7.79505C12.931 7.36005 13.377 6.99305 13.877 6.70405C14.677 6.24205 15.582 5.99805 16.495 5.99805C16.953 5.99805 17.412 6.05905 17.86 6.17805C19.215 6.54105 20.347 7.40905 21.048 8.62305C21.255 8.98105 21.132 9.44105 20.774 9.64805C20.661 9.71505 20.531 9.75005 20.4 9.75005Z" fill="#FFF2F1"/>
<path d="M12.75 24C11.509 24 10.5 22.991 10.5 21.75V15.75C10.5 14.509 11.509 13.5 12.75 13.5H18.75C19.977 13.5 20.978 14.488 21 15.709L23.013 15.038C23.09 15.013 23.17 15 23.25 15C23.408 15 23.56 15.049 23.688 15.142C23.883 15.282 24 15.51 24 15.75V21.75C24 21.99 23.884 22.218 23.688 22.358C23.559 22.451 23.407 22.5 23.25 22.5C23.169 22.5 23.09 22.487 23.013 22.462L21 21.791C20.978 23.012 19.977 24 18.75 24H12.75ZM12.75 15C12.336 15 12 15.336 12 15.75V21.75C12 22.164 12.336 22.5 12.75 22.5H18.75C19.164 22.5 19.5 22.164 19.5 21.75V20.75C19.5 20.51 19.616 20.282 19.812 20.142C19.94 20.049 20.092 20 20.25 20C20.331 20 20.411 20.013 20.488 20.039L22.5 20.71V16.791L20.487 17.462C20.411 17.488 20.331 17.501 20.25 17.501C20.092 17.501 19.94 17.452 19.812 17.359C19.616 17.218 19.5 16.99 19.5 16.75V15.75C19.5 15.336 19.164 15 18.75 15H12.75Z" fill="#FFF2F1"/>
</svg>
