<svg width="20" height="20" viewBox="0 0 20 20" fill="none" xmlns="http://www.w3.org/2000/svg">
<g clip-path="url(#clip0)">
<path d="M7.77049 14.9301C7.67299 14.9301 7.57465 14.9201 7.47715 14.9009C7.08382 14.8226 6.74465 14.5967 6.52215 14.2642L4.48882 11.3792C4.29049 11.0976 4.35799 10.7067 4.63965 10.5084C4.74549 10.4334 4.86965 10.3942 4.99965 10.3942C5.20299 10.3942 5.39382 10.4934 5.51132 10.6592L7.55299 13.5567C7.59799 13.6242 7.65299 13.6617 7.72049 13.6751C7.73715 13.6784 7.75382 13.6801 7.77049 13.6801C7.81882 13.6801 7.86632 13.6651 7.90715 13.6376C7.93049 13.6217 7.95049 13.6026 7.96715 13.5809L14.5105 5.30173C14.6288 5.15173 14.8072 5.06506 14.9997 5.06506C15.1397 5.06506 15.2772 5.11256 15.3863 5.19923C15.5172 5.30256 15.6005 5.4509 15.6197 5.61673C15.6388 5.78256 15.593 5.9459 15.4897 6.07673L8.95382 14.3459C8.85965 14.4701 8.73965 14.5826 8.60132 14.6759C8.35382 14.8426 8.06632 14.9301 7.77049 14.9301Z" fill="#FFF2F1"/>
<path d="M10 19.9996C4.48583 19.9996 0 15.5138 0 9.99963C0 4.48547 4.48583 -0.000366211 10 -0.000366211C15.5142 -0.000366211 20 4.48547 20 9.99963C20 15.5138 15.5142 19.9996 10 19.9996ZM10 1.24963C5.175 1.24963 1.25 5.17463 1.25 9.99963C1.25 14.8246 5.175 18.7496 10 18.7496C14.825 18.7496 18.75 14.8246 18.75 9.99963C18.75 5.17463 14.825 1.24963 10 1.24963Z" fill="#FFF2F1"/>
</g>
<defs>
<clipPath id="clip0">
<rect width="20" height="20" fill="white"/>
</clipPath>
</defs>
</svg>
