<svg xmlns="http://www.w3.org/2000/svg" width="32" height="32" viewBox="0 0 32 32" fill="none">
<path d="M24.9813 18.4C28.6347 19.676 31 21.712 31 24.0067C31 27.8734 24.284 31.0067 16 31.0067C7.716 31.0067 1 27.8667 1 24C1 21.7134 3.348 19.684 6.98 18.4067" stroke="white" stroke-width="1.5" stroke-linecap="round" stroke-linejoin="round"/>
<path d="M16 8C17.933 8 19.5 6.433 19.5 4.5C19.5 2.567 17.933 1 16 1C14.067 1 12.5 2.567 12.5 4.5C12.5 6.433 14.067 8 16 8Z" stroke="white" stroke-width="1.5" stroke-linecap="round" stroke-linejoin="round"/>
<path d="M21 16.9933V14C21 12.6739 20.4732 11.4021 19.5355 10.4645C18.5979 9.52678 17.3261 9 16 9C14.6739 9 13.4021 9.52678 12.4645 10.4645C11.5268 11.4021 11 12.6739 11 14V17H13L14 25H18L19 17L21 16.9933Z" stroke="white" stroke-width="1.5" stroke-linecap="round" stroke-linejoin="round"/>
</svg>