<svg width="22" height="22" viewBox="0 0 22 22" fill="none" xmlns="http://www.w3.org/2000/svg">
<path fill-rule="evenodd" clip-rule="evenodd" d="M18.7982 21.8437C18.7849 21.8437 18.7717 21.8437 18.7584 21.8437L4.91022 21.8437C4.01932 21.8438 3.28634 21.8438 2.70658 21.7658C2.09856 21.6841 1.56401 21.5062 1.13633 21.0785C0.708647 20.6508 0.530746 20.1163 0.448999 19.5083C0.371052 18.9285 0.371071 18.1955 0.371094 17.3046L0.371094 4.1137C0.371094 2.30776 1.8351 0.843752 3.64105 0.843752L18.6805 0.843752C18.7869 0.843733 18.8975 0.843716 18.9928 0.850525C19.099 0.858114 19.2343 0.876482 19.3761 0.938356C19.6383 1.05274 19.8476 1.26199 19.9619 1.52416C20.0238 1.66597 20.0422 1.80128 20.0498 1.90751C20.0566 2.0028 20.0566 2.11341 20.0565 2.21972L20.0565 2.25999C20.0565 2.96161 20.0565 3.52228 20.0241 3.97697C19.9908 4.44302 19.921 4.84662 19.7563 5.22411C19.6164 5.54469 19.4318 5.84035 19.2102 6.10345C19.476 6.10651 19.7173 6.11577 19.9256 6.14378C20.2652 6.18943 20.6113 6.29514 20.8946 6.57843C21.1779 6.86173 21.2836 7.20789 21.3293 7.54743C21.3712 7.85899 21.3711 8.2443 21.3711 8.6749L21.3711 19.2311C21.3711 19.2444 21.3711 19.2576 21.3711 19.2708C21.3711 19.7014 21.3712 20.0867 21.3293 20.3983C21.2836 20.7378 21.1779 21.084 20.8946 21.3673C20.6113 21.6506 20.2652 21.7563 19.9256 21.8019C19.6141 21.8438 19.2288 21.8438 18.7982 21.8437ZM14.9764 7.38366C14.9619 7.38366 14.9474 7.38366 14.9329 7.38366L3.64105 7.38366C2.89306 7.38366 2.20373 7.13251 1.65278 6.70995L1.65278 17.2592C1.65278 18.2069 1.65415 18.8532 1.71926 19.3375C1.7819 19.8034 1.89277 20.0224 2.04262 20.1722C2.19247 20.3221 2.41146 20.4329 2.87736 20.4956C3.36169 20.5607 4.00795 20.5621 4.9556 20.5621L18.7584 20.5621C19.2413 20.5621 19.539 20.5607 19.7548 20.5317C19.9452 20.5061 19.9805 20.4692 19.9876 20.4617C19.9879 20.4614 19.9881 20.4612 19.9883 20.461C19.9885 20.4608 19.9888 20.4606 19.989 20.4603C19.9966 20.4531 20.0334 20.4178 20.059 20.2275C20.088 20.0116 20.0894 19.714 20.0894 19.2311V17.9001H17.4439C17.4306 17.9001 17.4173 17.9001 17.4041 17.9001C16.9735 17.9001 16.5882 17.9002 16.2767 17.8583C15.9371 17.8126 15.591 17.7069 15.3077 17.4236C15.0244 17.1403 14.9186 16.7942 14.873 16.4546C14.8311 16.1431 14.8311 15.7578 14.8312 15.3271C14.8312 15.3139 14.8312 15.3007 14.8312 15.2874V13.9729C14.8312 13.9596 14.8312 13.9463 14.8312 13.9331C14.8311 13.5025 14.8311 13.1172 14.873 12.8056C14.9186 12.4661 15.0244 12.1199 15.3077 11.8366C15.591 11.5533 15.9371 11.4476 16.2767 11.402C16.5882 11.3601 16.9735 11.3601 17.4041 11.3602L20.0894 11.3602L20.0894 8.71464C20.0894 8.23176 20.088 7.93407 20.059 7.71822C20.0334 7.52787 19.9966 7.4926 19.989 7.48542C19.9888 7.48515 19.9885 7.48492 19.9883 7.48473C19.9881 7.48453 19.9879 7.48429 19.9876 7.48401C19.9805 7.4765 19.9452 7.43963 19.7548 7.41404C19.539 7.38502 19.2413 7.38366 18.7584 7.38366L14.9764 7.38366ZM20.0894 12.6419H17.4439C16.961 12.6419 16.6633 12.6432 16.4474 12.6723C16.2571 12.6978 16.2218 12.7347 16.2146 12.7422C16.2144 12.7425 16.2141 12.7427 16.2139 12.7429C16.2137 12.7431 16.2135 12.7434 16.2132 12.7436C16.2057 12.7508 16.1688 12.7861 16.1433 12.9764C16.1142 13.1923 16.1129 13.49 16.1129 13.9729V15.2874C16.1129 15.7703 16.1142 16.068 16.1433 16.2838C16.1688 16.4742 16.2057 16.5095 16.2132 16.5166C16.2135 16.5169 16.2137 16.5171 16.2139 16.5173C16.2141 16.5175 16.2144 16.5178 16.2146 16.518C16.2218 16.5256 16.2571 16.5624 16.4474 16.588C16.6633 16.617 16.961 16.6184 17.4439 16.6184H20.0894V12.6419ZM1.65278 4.1137C1.65278 5.21179 2.54296 6.10197 3.64105 6.10197L14.9086 6.10197C15.64 6.10197 16.1549 6.10159 16.5585 6.07275C16.956 6.04435 17.1963 5.99074 17.3845 5.90865C17.9202 5.67491 18.3478 5.24731 18.5815 4.71158C18.6636 4.52343 18.7172 4.28313 18.7456 3.88563C18.7745 3.48199 18.7748 2.96711 18.7748 2.23577C18.7748 2.19335 18.7748 2.15741 18.7746 2.12564C18.7429 2.12545 18.7069 2.12544 18.6645 2.12544L3.64105 2.12544C2.54296 2.12544 1.65278 3.01562 1.65278 4.1137Z" fill="white"/>
</svg>
