<svg width="17" height="16" viewBox="0 0 17 16" fill="none" xmlns="http://www.w3.org/2000/svg">
<g clip-path="url(#clip0)">
<path d="M5.33392 15C4.50659 15 3.83393 14.3273 3.83393 13.5V9.118L3.74459 9.04267C2.54459 8.03333 1.30393 6.98867 1.33459 5.70533V2.91333L0.441925 1.78867C0.270592 1.57267 0.307259 1.25733 0.523259 1.086C0.611259 1.01667 0.721259 0.978 0.833259 0.978C0.986592 0.978 1.12993 1.04667 1.22526 1.16733L2.22526 2.42867C2.29526 2.51667 2.33393 2.62667 2.33393 2.73933V5.71733C2.31859 6.36867 2.97193 7.05467 3.83393 7.80533V5.634L3.46326 5.25467C3.27059 5.05733 3.27459 4.74 3.47193 4.54733C3.56593 4.45533 3.68992 4.40533 3.82126 4.40533C3.95726 4.40533 4.08393 4.45867 4.17926 4.556L4.65326 5.04133C4.68126 5.06467 4.70659 5.09067 4.72859 5.118L5.35859 5.76333C5.41792 5.824 5.49726 5.85733 5.58259 5.85733C5.66459 5.85733 5.74193 5.826 5.80059 5.76933C5.85993 5.712 5.89326 5.634 5.89393 5.55067C5.89526 5.46733 5.86326 5.38867 5.80526 5.32867L3.97193 3.458C3.88059 3.36467 3.82993 3.24067 3.82993 3.10867V2.17667C3.73859 1.674 3.54793 1.20333 3.26259 0.778667C3.10926 0.55 3.16993 0.238667 3.39926 0.0846667C3.48193 0.0293333 3.57792 0 3.67726 0C3.84459 0 3.99992 0.0826667 4.09326 0.221333C4.46526 0.776 4.71126 1.39133 4.82326 2.04933C4.82793 2.078 4.82993 2.10533 4.82993 2.13333V2.90467L6.52126 4.63C6.76659 4.882 6.89859 5.21333 6.89393 5.564C6.88926 5.914 6.74859 6.242 6.49793 6.48667C6.25192 6.72667 5.92659 6.85867 5.58259 6.85867C5.31059 6.85867 5.05193 6.77733 4.83392 6.62533V13.5C4.83392 13.776 5.05792 14 5.33392 14H9.83393C10.1099 14 10.3339 14.224 10.3339 14.5C10.3339 14.776 10.1099 15 9.83393 15H5.33392Z" fill="#202A44"/>
<path d="M12.992 15.9973C12.8247 15.9973 12.6693 15.9147 12.5766 15.776C12.2046 15.222 11.9593 14.608 11.8473 13.9513C11.8426 13.924 11.84 13.896 11.84 13.8673V13.0973L10.1467 11.3713C9.64065 10.852 9.65132 10.0193 10.1693 9.51467C10.416 9.274 10.7333 9.142 11.062 9.142C11.0773 9.142 11.0926 9.142 11.1087 9.14267C11.4527 9.14667 11.7807 9.288 12.0253 9.53867L12.334 9.854V3.5C12.334 3.224 12.11 3 11.834 3H6.83398C6.55798 3 6.33398 2.776 6.33398 2.5C6.33398 2.224 6.55732 2 6.83332 2H11.8333C12.6606 2 13.3333 2.67267 13.3333 3.5V7.30533C14.4133 8.22867 15.3606 9.15667 15.3333 10.2953V13.0867L16.2253 14.2113C16.308 14.316 16.3453 14.4467 16.33 14.5793C16.3146 14.712 16.2486 14.8307 16.144 14.914C16.056 14.9833 15.9453 15.022 15.8333 15.022C15.68 15.022 15.5366 14.9527 15.4413 14.8327L14.4413 13.5713C14.372 13.4833 14.3333 13.3733 14.3333 13.2607V10.2833C14.346 9.74867 13.8833 9.176 13.3333 8.64867V11.0807C13.3333 11.2853 13.2113 11.4667 13.022 11.544C12.962 11.5687 12.898 11.5807 12.8333 11.5807C12.6993 11.5807 12.5693 11.526 12.4753 11.43L11.3087 10.2367C11.2493 10.1753 11.1726 10.1427 11.088 10.1413C11.032 10.1427 10.9387 10.1593 10.8667 10.23C10.8073 10.288 10.774 10.366 10.7727 10.4493C10.7713 10.5327 10.8027 10.6113 10.8607 10.6713L12.696 12.542C12.788 12.636 12.8393 12.7607 12.8393 12.892V13.8227C12.9307 14.3247 13.1213 14.794 13.4067 15.2187C13.4813 15.3293 13.508 15.4627 13.482 15.594C13.456 15.7253 13.3807 15.838 13.27 15.9127C13.188 15.968 13.092 15.9973 12.992 15.9973Z" fill="#202A44"/>
</g>
<defs>
<clipPath id="clip0">
<rect width="16" height="16" fill="white" transform="translate(0.333984)"/>
</clipPath>
</defs>
</svg>
