<svg width="20" height="20" viewBox="0 0 20 20" fill="none" xmlns="http://www.w3.org/2000/svg">
<path fill-rule="evenodd" clip-rule="evenodd" d="M10 -1.90735e-06C15.5229 -1.90735e-06 20 4.47713 20 10C20 15.5228 15.5229 20 10 20C4.47715 20 0 15.5228 0 10C0 4.47713 4.47715 -1.90735e-06 10 -1.90735e-06ZM4.21745 5.46667H6.49609V14.9458H4.21745V5.46667ZM8.75133 14.9458V5.46667H11.8698C12.6901 5.471 13.4323 5.66633 14.0963 6.0526C14.7647 6.4432 15.2813 6.9814 15.6459 7.6672C16.0147 8.35727 16.1992 9.1364 16.1992 10.0044V10.4406C16.1949 11.3 16.0039 12.0747 15.6263 12.7649C15.2531 13.4593 14.7322 13.9953 14.0638 14.3729C13.3954 14.7549 12.6423 14.9458 11.8047 14.9458H8.75133ZM11.0365 7.22447V13.1815H11.8047C12.4774 13.1815 12.9896 12.9493 13.3411 12.4849C13.6927 12.0205 13.8685 11.3304 13.8685 10.4146V10.0044C13.8685 9.08427 13.6927 8.38987 13.3411 7.92107C12.9896 7.45667 12.4861 7.22447 11.8307 7.22447H11.0365Z" fill="url(#paint0_linear_947_69030)"/>
<defs>
<linearGradient id="paint0_linear_947_69030" x1="10" y1="20" x2="10" y2="0" gradientUnits="userSpaceOnUse">
<stop stop-color="#F50083"/>
<stop offset="1" stop-color="#720497"/>
</linearGradient>
</defs>
</svg>
