<svg width="21" height="20" viewBox="0 0 21 20" fill="none" xmlns="http://www.w3.org/2000/svg">
<path d="M11.5623 17.4356C12.1489 18.0223 12.1489 18.9734 11.5623 19.5601C10.9756 20.1468 10.0245 20.1468 9.43779 19.5601C8.85112 18.9734 8.85112 18.0223 9.43779 17.4356C10.0245 16.8489 10.9756 16.8489 11.5623 17.4356ZM7.31336 13.1867C7.90002 13.7734 7.90002 14.7246 7.31336 15.3112C6.72669 15.8979 5.77553 15.8979 5.18886 15.3112C4.60219 14.7246 4.60219 13.7734 5.18886 13.1867C5.77553 12.6001 6.72669 12.6001 7.31336 13.1867ZM15.8111 13.1867C16.3978 13.7734 16.3978 14.7246 15.8111 15.3111C15.2245 15.8979 14.2733 15.8979 13.6866 15.3112C13.1 14.7246 13.1 13.7734 13.6866 13.1867C14.2733 12.6001 15.2245 12.6001 15.8111 13.1867ZM3.0645 8.93789C3.65116 9.52455 3.65116 10.4757 3.0645 11.0622C2.47783 11.649 1.52666 11.649 0.939999 11.0622C0.353334 10.4757 0.353334 9.52455 0.939999 8.93789C1.52666 8.35105 2.47783 8.35105 3.0645 8.93789ZM11.5623 8.93789C12.1489 9.52455 12.1489 10.4757 11.5623 11.0622C10.9756 11.649 10.0245 11.649 9.43779 11.0622C8.85112 10.4757 8.85112 9.52455 9.43779 8.93789C10.0245 8.35105 10.9756 8.35105 11.5623 8.93789ZM20.06 8.93789C20.6467 9.52455 20.6467 10.4757 20.06 11.0622C19.4733 11.649 18.5222 11.649 17.9355 11.0622C17.3488 10.4757 17.3488 9.52455 17.9355 8.93789C18.5222 8.35105 19.4733 8.35105 20.06 8.93789ZM7.31336 4.68886C7.90002 5.27569 7.90002 6.22686 7.31336 6.81336C6.72669 7.40002 5.77553 7.40002 5.18886 6.81336C4.60219 6.22686 4.60219 5.27569 5.18886 4.68903C5.77553 4.10219 6.72669 4.10219 7.31336 4.68886ZM15.8111 4.68886C16.3978 5.27569 16.3978 6.22686 15.8111 6.81336C15.2245 7.40002 14.2733 7.40002 13.6866 6.81336C13.1 6.22686 13.1 5.27569 13.6866 4.68903C14.2733 4.10219 15.2245 4.10219 15.8111 4.68886ZM11.5623 0.439999C12.1489 1.02683 12.1489 1.978 11.5623 2.5645C10.9756 3.15116 10.0245 3.15116 9.43779 2.5645C8.85112 1.978 8.85112 1.02683 9.43779 0.439999C10.0245 -0.146666 10.9756 -0.146666 11.5623 0.439999Z" fill="url(#paint0_linear_947_69036)"/>
<defs>
<linearGradient id="paint0_linear_947_69036" x1="20.5001" y1="20.0001" x2="0.499831" y2="8.58319e-05" gradientUnits="userSpaceOnUse">
<stop stop-color="#FE3876"/>
<stop offset="0.714448" stop-color="#7C30DD"/>
<stop offset="1" stop-color="#3A30DD"/>
</linearGradient>
</defs>
</svg>
