<svg width="18" height="18" viewBox="0 0 18 18" fill="none" xmlns="http://www.w3.org/2000/svg">
<g id="Add">
<path id="Union" d="M9 0C8.68934 0 8.4375 0.25184 8.4375 0.5625V8.4375H0.5625C0.25184 8.4375 0 8.68934 0 9C0 9.31066 0.25184 9.5625 0.5625 9.5625H8.4375V17.4375C8.4375 17.7482 8.68934 18 9 18C9.31066 18 9.5625 17.7482 9.5625 17.4375V9.5625H17.4375C17.7482 9.5625 18 9.31066 18 9C18 8.68934 17.7482 8.4375 17.4375 8.4375H9.5625V0.5625C9.5625 0.25184 9.31066 0 9 0Z" fill="currentColor"/>
</g>
</svg>
