<svg width="48" height="48" viewBox="0 0 48 48" fill="none" xmlns="http://www.w3.org/2000/svg">
<g clip-path="url(#clip0_4_1134)">
<path d="M4.50195 48C2.01995 48 0.00195312 45.982 0.00195312 43.5V4.5C0.00195313 2.018 2.01995 0 4.50195 0H43.502C45.984 0 48.002 2.018 48.002 4.5V43.5C48.002 45.982 45.984 48 43.502 48H4.50195ZM4.50195 3C3.67395 3 3.00195 3.672 3.00195 4.5V43.5C3.00195 44.328 3.67395 45 4.50195 45H43.502C44.33 45 45.002 44.328 45.002 43.5V4.5C45.002 3.672 44.33 3 43.502 3H4.50195Z" fill="currentColor"/>
<path d="M21.002 37.5C18.262 37.5 15.874 35.606 15.198 33H10.502C9.67395 33 9.00195 32.328 9.00195 31.5C9.00195 30.672 9.67395 30 10.502 30H15.2C15.876 27.394 18.262 25.5 21 25.5C23.742 25.5 26.13 27.394 26.806 30H37.502C38.33 30 39.002 30.672 39.002 31.5C39.002 32.328 38.33 33 37.502 33H26.806C26.13 35.606 23.742 37.5 21.002 37.5ZM21 28.5C19.346 28.5 18.002 29.846 18.002 31.5C18.002 33.154 19.348 34.5 21.002 34.5C22.656 34.5 24.002 33.154 24.002 31.5C24.002 29.846 22.656 28.5 21 28.5V27.75V28.5Z" fill="currentColor"/>
<path d="M33 22.5C30.262 22.498 27.876 20.604 27.2 18H10.502C9.67395 18 9.00195 17.328 9.00195 16.5C9.00195 15.672 9.67395 15 10.502 15H27.198C27.874 12.394 30.262 10.5 33.002 10.5C36.31 10.5 39.002 13.192 39.002 16.5C39 19.808 36.308 22.5 33 22.5ZM33.002 13.5C31.348 13.5 30.002 14.846 30.002 16.5C30.002 18.154 31.348 19.5 33.002 19.5C34.656 19.5 36.002 18.154 36.002 16.5C36.002 14.846 34.656 13.5 33.002 13.5Z" fill="currentColor"/>
</g>
<defs>
<clipPath id="clip0_4_1134">
<rect width="48" height="48" fill="currentColor"/>
</clipPath>
</defs>
</svg>
