<svg width="16" height="16" viewBox="0 0 16 16" fill="none" xmlns="http://www.w3.org/2000/svg">
<g id="AI">
<path id="Vector" d="M12.7034 6.27404C12.1946 6.27374 11.7074 6.09001 11.3529 5.76465C10.9983 5.43943 10.8065 5.00018 10.8211 4.54692C10.8259 4.39931 10.9642 4.2829 11.13 4.28723C11.2959 4.29141 11.4264 4.41468 11.4216 4.56244C11.4125 4.83647 11.5144 5.10438 11.7086 5.31705C11.9028 5.52973 12.1765 5.67316 12.4796 5.72106C12.7827 5.76897 13.0951 5.71823 13.3596 5.57808C13.5022 5.50271 13.6863 5.5445 13.7709 5.67151C13.8557 5.79852 13.8086 5.9627 13.6661 6.03807C13.3749 6.1924 13.0425 6.27388 12.7035 6.27403L12.7034 6.27404Z" fill="currentColor"/>
<path id="Vector_2" d="M10.6552 8.78347C10.5612 8.78347 10.4729 8.74198 10.4172 8.67186C10.3614 8.60189 10.3449 8.51141 10.3725 8.42813C10.5026 8.03803 10.7781 7.70352 11.1497 7.48412C11.5213 7.26488 11.9649 7.17516 12.4013 7.23105C12.48 7.23993 12.5517 7.27774 12.6001 7.33607C12.6485 7.3944 12.6696 7.4682 12.6587 7.54107C12.648 7.61395 12.6059 7.67978 12.5423 7.72356C12.4785 7.7675 12.3984 7.78587 12.3202 7.77455C12.0229 7.73673 11.7208 7.79782 11.4676 7.94724C11.2144 8.09651 11.0268 8.32432 10.9378 8.58993C10.8997 8.70491 10.7851 8.78345 10.6552 8.78345L10.6552 8.78347Z" fill="currentColor"/>
<path id="Vector_3" d="M12.0658 12.1833C11.5464 12.183 11.0503 11.9857 10.6953 11.6381C10.3403 11.2907 10.1579 10.8241 10.1914 10.3489C10.2023 10.1974 10.3451 10.0826 10.5103 10.0924C10.6757 10.1023 10.801 10.2331 10.7902 10.3847C10.7701 10.6654 10.8608 10.9433 11.0456 11.1679C11.2305 11.3924 11.4971 11.5484 11.7971 11.6075C12.0972 11.6668 12.4102 11.6251 12.6795 11.4904C12.8247 11.4175 13.0066 11.4663 13.086 11.5994C13.1653 11.7325 13.112 11.8992 12.9669 11.972C12.6906 12.1106 12.3807 12.1833 12.0658 12.1833Z" fill="currentColor"/>
<path id="Vector_4" d="M16.0005 8.07113C16.0012 7.61598 15.8018 7.17958 15.4464 6.85887C15.4598 6.84532 15.4735 6.83208 15.4867 6.81808H15.4866C15.9396 6.33842 16.1064 5.68831 15.934 5.07608C15.7614 4.46401 15.2713 3.9667 14.6204 3.74357C14.774 3.23075 14.6566 2.68231 14.3027 2.25911C13.9487 1.83596 13.3984 1.58613 12.8132 1.58325C12.6823 0.944096 12.2072 0.407348 11.5485 0.153588C10.8896 -0.100009 10.1345 -0.0366857 9.53792 0.322246C8.94135 0.681178 8.58254 1.28792 8.58271 1.93806L8.57617 14.291V14.2908C8.57651 14.8883 8.92021 15.4424 9.48261 15.7521C10.045 16.0619 10.7446 16.0827 11.3282 15.8068C11.9117 15.5309 12.2943 14.9985 12.3376 14.4024C12.3857 14.408 12.4362 14.4129 12.4856 14.4155C12.5278 14.4176 12.5697 14.4188 12.6115 14.4188V14.4187C13.2826 14.4185 13.9144 14.1313 14.3171 13.6436C14.7196 13.1557 14.846 12.5243 14.6581 11.939C15.159 11.7131 15.5235 11.2967 15.6529 10.8022C15.7824 10.308 15.6633 9.78708 15.3279 9.38037C15.7534 9.05522 15.9996 8.57618 16.0006 8.07111L16.0005 8.07113ZM14.8907 8.99982C14.8412 8.96907 14.7903 8.94 14.7372 8.9126C14.2958 8.68959 13.7745 8.63693 13.29 8.76647C12.8057 8.896 12.3988 9.19679 12.1609 9.60124C12.0826 9.73413 12.1377 9.89944 12.284 9.97053C12.4303 10.0416 12.6123 9.99138 12.6906 9.85865C12.8933 9.51387 13.2729 9.28449 13.7013 9.24778C14.1298 9.21125 14.5497 9.37214 14.8198 9.67628C15.09 9.98056 15.1741 10.3876 15.0439 10.7601C14.9137 11.1325 14.5864 11.421 14.1726 11.528C14.0711 11.554 13.9921 11.6266 13.9647 11.7192C13.9372 11.8117 13.9653 11.9105 14.0386 11.9795C14.2268 12.4211 14.1549 12.9194 13.8477 13.3021C13.5405 13.6848 13.0403 13.8994 12.5196 13.8719C12.4737 13.8694 12.4276 13.8652 12.3824 13.8589H12.3826C12.3487 13.8545 12.3142 13.8553 12.2807 13.8614C12.2272 13.6738 12.1387 13.4959 12.0192 13.3354C11.9752 13.2745 11.906 13.2322 11.8272 13.2179C11.7486 13.2036 11.6668 13.2185 11.6003 13.2595C11.5338 13.3003 11.488 13.3636 11.4733 13.4353C11.4585 13.507 11.476 13.5811 11.5217 13.6409C11.7489 13.9472 11.8027 14.3331 11.6668 14.681C11.5311 15.029 11.2217 15.298 10.8329 15.4058C10.4442 15.5137 10.0222 15.4478 9.6954 15.2283C9.36862 15.0086 9.17592 14.6614 9.17575 14.2921L9.18228 1.93925C9.18245 1.4742 9.43817 1.03994 9.86384 0.781777C10.2897 0.523461 10.8293 0.475358 11.3021 0.653455C11.775 0.831703 12.1187 1.21257 12.2184 1.66861C11.8409 1.78095 11.5123 1.99847 11.2789 2.29043C11.0456 2.58239 10.9197 2.93387 10.9192 3.29464C10.9192 3.44533 11.0536 3.56741 11.2195 3.56741C11.3854 3.56741 11.5198 3.44533 11.5198 3.29464C11.5198 2.87846 11.7642 2.49396 12.161 2.28587C12.5578 2.07778 13.0466 2.07779 13.4435 2.28587C13.8401 2.49395 14.0846 2.87846 14.0846 3.29464C14.0851 3.47121 14.041 3.64565 13.9556 3.80442L13.9534 3.80853C13.9505 3.81416 13.9479 3.81994 13.9455 3.82573C13.9432 3.83167 13.9428 3.83227 13.9417 3.83562C13.9405 3.83897 13.938 3.84552 13.9363 3.85069C13.9346 3.85587 13.934 3.85922 13.9326 3.86363C13.9314 3.86805 13.9311 3.8685 13.9308 3.87079V3.87657C13.9308 3.88144 13.9291 3.88601 13.9284 3.89073C13.9278 3.8956 13.9273 3.8994 13.9269 3.90397V3.91691V3.93152V3.94248C13.9273 3.94796 13.9278 3.95329 13.9288 3.95862C13.9288 3.96166 13.9288 3.9647 13.9303 3.96775C13.9318 3.97079 13.9324 3.97917 13.934 3.9848C13.9355 3.99043 13.9356 3.99043 13.9363 3.99332C13.937 3.99621 13.9397 4.00443 13.9417 4.00991L13.9454 4.0189C13.9475 4.02392 13.9497 4.02894 13.9521 4.03396C13.9544 4.03899 13.9554 4.04066 13.9574 4.04401C13.9593 4.04736 13.9619 4.05269 13.9646 4.05695C13.9673 4.06106 13.9695 4.06441 13.972 4.06806C13.9747 4.07171 13.9769 4.07522 13.9794 4.07872L13.9888 4.09029L13.997 4.09942C14.0003 4.10307 14.004 4.10657 14.0075 4.11007C14.0112 4.11358 14.0136 4.11616 14.0169 4.11906L14.0278 4.12804L14.0394 4.13702L14.0499 4.14417L14.0642 4.15315L14.0742 4.15863C14.0796 4.16168 14.0851 4.16426 14.0905 4.16685L14.095 4.16898L14.1005 4.17111L14.1203 4.17873L14.1329 4.18268C14.1382 4.18436 14.1438 4.18573 14.1491 4.1871L14.1652 4.19075H14.1681L14.1677 4.1909C14.6406 4.27691 15.0415 4.56004 15.2495 4.95534C15.4576 5.35052 15.4489 5.81174 15.2258 6.20018C15.0028 6.58849 14.5915 6.85897 14.1156 6.93021C13.9519 6.95426 13.8406 7.0943 13.8673 7.24302C13.8937 7.39173 14.0479 7.49281 14.2116 7.46876C14.4841 7.42842 14.7452 7.34029 14.9805 7.20922C15.2624 7.44212 15.4157 7.77699 15.3986 8.12283C15.3815 8.46867 15.1958 8.78969 14.892 8.99872L14.8907 8.99982Z" fill="currentColor"/>
<path id="Vector_5" d="M7.46915 3.5321H6.2752C5.80875 3.5321 5.42229 3.40895 5.09401 3.15597C4.87763 2.98965 4.69011 2.84096 4.55593 2.73439C4.72467 2.46712 4.7406 2.14238 4.59887 1.86251C4.45696 1.58262 4.17483 1.38208 3.84119 1.32386C3.50757 1.26563 3.16355 1.357 2.91712 1.56923C2.67088 1.78147 2.5528 2.08827 2.6001 2.39325C2.64724 2.69822 2.85405 2.96381 3.15515 3.10626C3.4564 3.24887 3.815 3.25084 4.11812 3.11158C4.25549 3.22059 4.46365 3.38569 4.70468 3.57162C5.14649 3.91201 5.6601 4.07773 6.27534 4.07773H7.46929L7.46912 4.07788C7.63518 4.07788 7.7697 3.9558 7.7697 3.80544C7.7697 3.65493 7.63518 3.533 7.46912 3.533L7.46915 3.5321ZM3.19378 2.26035C3.19362 2.09509 3.30348 1.9461 3.47172 1.88286C3.64013 1.81946 3.83403 1.85443 3.963 1.97119C4.09182 2.08795 4.13039 2.2637 4.06078 2.41635C3.99101 2.56899 3.82663 2.66858 3.6443 2.66858C3.39572 2.66812 3.1943 2.48565 3.19378 2.26035Z" fill="currentColor"/>
<path id="Vector_6" d="M7.46793 14.3465H5.06576C4.59926 14.3465 4.21294 14.2211 3.88447 13.9633C3.66807 13.7939 3.48053 13.6424 3.34634 13.5338C3.51543 13.2617 3.53204 12.931 3.39062 12.6456C3.24921 12.3602 2.96723 12.1555 2.63357 12.0959C2.29992 12.0362 1.95571 12.1289 1.70913 12.3449C1.46254 12.5608 1.34411 12.8734 1.39091 13.1841C1.43771 13.495 1.64421 13.7657 1.94531 13.9112C2.24641 14.0566 2.60505 14.0589 2.90836 13.9173C3.04575 14.0284 3.25392 14.1966 3.49514 14.386C3.93548 14.7336 4.44995 14.9017 5.06576 14.9017H7.46874C7.63465 14.9017 7.76935 14.7774 7.76935 14.6241C7.76935 14.4709 7.63465 14.3465 7.46874 14.3465L7.46793 14.3465ZM1.98319 13.0517C1.98319 12.8833 2.09289 12.7315 2.26131 12.6671C2.42973 12.6025 2.62348 12.6381 2.7525 12.7571C2.88152 12.876 2.92008 13.0551 2.8503 13.2106C2.78051 13.3661 2.61629 13.4676 2.43395 13.4676C2.18534 13.4671 1.98373 13.2812 1.98321 13.0517L1.98319 13.0517Z" fill="currentColor"/>
<path id="Vector_7" d="M7.46948 7.84377H3.68077C3.0659 7.84377 2.5516 8.00949 2.11152 8.34989C1.8712 8.53597 1.66255 8.70032 1.52531 8.80992C1.22232 8.67112 0.864198 8.67355 0.563545 8.81631C0.2629 8.95922 0.056793 9.22497 0.0100304 9.52995C-0.0367236 9.83492 0.0817571 10.1416 0.328106 10.3535C0.574455 10.5653 0.918345 10.6562 1.25147 10.5975C1.5848 10.539 1.86617 10.338 2.00744 10.058C2.14855 9.77791 2.13212 9.45333 1.96303 9.18634C2.09693 9.07976 2.28546 8.93108 2.50063 8.76476C2.82859 8.51178 3.21472 8.38863 3.68076 8.38863H7.46947C7.63538 8.38863 7.76978 8.26655 7.76978 8.11619C7.76978 7.96568 7.63539 7.84377 7.46948 7.84377ZM1.05185 10.0688C0.869685 10.0689 0.705454 9.96948 0.635739 9.81684C0.566024 9.66419 0.604401 9.48845 0.733104 9.37167C0.861976 9.25475 1.05553 9.21979 1.22381 9.28303C1.39207 9.34613 1.50183 9.49512 1.50183 9.66038C1.50167 9.88569 1.3004 10.0684 1.05188 10.0687L1.05185 10.0688Z" fill="currentColor"/>
<path id="Vector_8" d="M7.46555 1.93454H5.88556C5.71787 1.93454 5.58203 1.80583 5.58203 1.64696C5.58203 1.48824 5.71787 1.35938 5.88556 1.35938H7.46555C7.63324 1.35938 7.76908 1.48824 7.76908 1.64696C7.76908 1.80583 7.63324 1.93454 7.46555 1.93454Z" fill="currentColor"/>
<path id="Vector_9" d="M7.4692 5.69179H2.8066C2.7097 5.40047 2.46142 5.16905 2.14039 5.07042C1.81917 4.97182 1.4646 5.01819 1.1883 5.19485C0.912015 5.3715 0.748047 5.6568 0.748047 5.96076C0.748047 6.26469 0.912006 6.55001 1.1883 6.72667C1.46459 6.90334 1.81915 6.94955 2.14039 6.85095C2.46144 6.75234 2.70974 6.52106 2.8066 6.22973H7.4692C7.63518 6.22973 7.76963 6.10936 7.76963 5.96078C7.76963 5.81219 7.63518 5.69179 7.4692 5.69179ZM1.79975 6.36388C1.62087 6.36418 1.45875 6.26947 1.38683 6.12269C1.31491 5.9759 1.34693 5.80495 1.46831 5.68728C1.58968 5.56947 1.77745 5.52729 1.94663 5.57967C2.11562 5.63205 2.23414 5.76908 2.24823 5.92892C2.24688 5.93943 2.24605 5.95009 2.24605 5.96074C2.24605 5.9714 2.24688 5.98205 2.24823 5.99256C2.22962 6.20208 2.03445 6.36357 1.79975 6.36388Z" fill="currentColor"/>
<path id="Vector_10" d="M7.46857 9.99747H5.58152C5.4839 9.69814 5.23436 9.4602 4.9115 9.359C4.58862 9.25763 4.23203 9.30515 3.95431 9.48676C3.67645 9.66837 3.51172 9.96154 3.51172 10.274C3.51172 10.5863 3.67645 10.8794 3.95431 11.0611C4.23201 11.2427 4.5886 11.2903 4.9115 11.189C5.23438 11.0876 5.48393 10.8498 5.58152 10.5505H7.46857C7.63549 10.5505 7.77071 10.4266 7.77071 10.274C7.77071 10.1212 7.63549 9.99747 7.46857 9.99747ZM4.56805 10.6882C4.38815 10.6884 4.22527 10.591 4.15311 10.4401C4.08095 10.2894 4.11315 10.1138 4.23522 9.99284C4.35712 9.87188 4.54596 9.82852 4.71593 9.88237C4.88588 9.93622 5.00492 10.0771 5.01908 10.2413C5.01588 10.2632 5.01588 10.2855 5.01908 10.3076C4.99986 10.5222 4.80427 10.6876 4.56872 10.6882L4.56805 10.6882Z" fill="currentColor"/>
<path id="Vector_11" d="M7.4675 12.7065H4.84927C4.68238 12.7065 4.54688 12.5895 4.54688 12.445C4.54688 12.3007 4.68238 12.1836 4.84927 12.1836H7.4675C7.63456 12.1836 7.7699 12.3007 7.7699 12.445C7.7699 12.5895 7.63456 12.7065 7.4675 12.7065Z" fill="currentColor"/>
</g>
</svg>
