<svg xmlns="http://www.w3.org/2000/svg" viewBox="0 0 24 24"><defs><style>.a{fill:none;stroke:currentColor;stroke-linecap:round;stroke-linejoin:round;stroke-width:1.5px;}</style></defs><title>airport-signal</title><path class="a" d="M18.585,23.113H5.415a.751.751,0,0,1-.736-.9l1.08-5.4A1.5,1.5,0,0,1,7.23,15.613h9.54a1.5,1.5,0,0,1,1.471,1.206l1.08,5.4A.751.751,0,0,1,18.585,23.113Z"/><path class="a" d="M16.5,15.613h-9v-2.25a.75.75,0,0,1,.75-.75h7.5a.75.75,0,0,1,.75.75Z"/><path class="a" d="M14.5,8.113h-5a.477.477,0,0,1-.5-.45v-3.6a.477.477,0,0,1,.5-.45h5a.477.477,0,0,1,.5.45v3.6A.477.477,0,0,1,14.5,8.113Z"/><line class="a" x1="12" y1="8.113" x2="12" y2="12.613"/><rect class="a" x="10.5" y="18.613" width="3" height="4.5"/><path class="a" d="M17.916,9.049a6.72,6.72,0,0,0,0-6.372"/><path class="a" d="M6.084,2.677a6.72,6.72,0,0,0,0,6.372"/><path class="a" d="M2.757.886a10.515,10.515,0,0,0,0,9.954"/><path class="a" d="M21.243,10.84a10.515,10.515,0,0,0,0-9.954"/><line class="a" x1="12" y1="3.613" x2="12" y2="8.113"/></svg>