<svg width="48" height="48" viewBox="0 0 48 48" fill="none" xmlns="http://www.w3.org/2000/svg">
<g clip-path="url(#clip0_4_573)">
<path d="M23.998 4.00209C24.1 4.00209 24.202 4.0081 24.304 4.0181C25.1 4.0981 25.818 4.4841 26.324 5.1041C26.766 5.6461 27.008 6.33009 27 7.03009L27 13.0001L45 13.0001C45.806 13.0021 46.56 13.3181 47.126 13.8901C47.692 14.4601 48.004 15.2161 48 16.0181L48 30.9881C48.004 31.7841 47.694 32.5401 47.126 33.1101C46.56 33.6801 45.808 33.9961 45.006 34.0001L27 34.0001L27 39.9841C27.008 40.7741 26.702 41.5281 26.14 42.0981C25.578 42.6701 24.828 42.9881 24.03 42.9961C23.312 42.9921 22.632 42.7501 22.104 42.3181L1.12796 25.8521C0.48196 25.3201 0.089962 24.5901 0.0139618 23.7861C-0.0620384 22.9821 0.177963 22.1961 0.691963 21.5741C0.815964 21.4261 0.951962 21.2881 1.09996 21.1661L22.128 4.6601C22.642 4.2401 23.31 4.00209 23.998 4.00209ZM45 16.0121L25.5 16.0001C24.672 16.0001 24 15.3281 24 14.5001L24 7.01609L2.97996 23.5061L23.98 39.9781L24 32.5001C24 31.6721 24.672 31.0001 25.5 31.0001L44.994 31.0001L45 16.0121Z" fill="currentColor"/>
</g>
<defs>
<clipPath id="clip0_4_573">
<rect width="48" height="48" fill="currentColor" transform="matrix(-1 0 0 -1 48 48)"/>
</clipPath>
</defs>
</svg>
