<svg width="48" height="48" viewBox="0 0 48 48" fill="none" xmlns="http://www.w3.org/2000/svg">
<g clip-path="url(#clip0_4_579)">
<path d="M22.5345 28.2869C21.8665 28.2869 21.2385 28.0269 20.7665 27.5549L17.9385 24.7269C16.9645 23.7529 16.9645 22.1669 17.9385 21.1909L20.7665 18.3629C21.2385 17.8909 21.8665 17.6309 22.5345 17.6309C23.2025 17.6309 23.8305 17.8909 24.3025 18.3629L27.1305 21.1909C28.1045 22.1649 28.1045 23.7509 27.1305 24.7249L24.3005 27.5549C23.8305 28.0269 23.2025 28.2869 22.5345 28.2869ZM22.5345 25.0809L24.6565 22.9589L22.5345 20.8369L20.4125 22.9589L22.5345 25.0809Z" fill="currentColor"/>
<path d="M33.5344 47.9783C27.9904 47.9783 22.7284 45.5883 19.0984 41.4223L19.0144 41.3263L16.1684 44.1723C15.3204 45.0203 14.1904 45.4883 12.9864 45.4883C11.7824 45.4883 10.6524 45.0203 9.80237 44.1723C8.95237 43.3223 8.48437 42.1923 8.48437 40.9903C8.48437 39.7883 8.95237 38.6583 9.80237 37.8083L15.1064 32.5063C15.6904 31.9203 15.6904 30.9683 15.1064 30.3823C14.8244 30.1003 14.4464 29.9443 14.0444 29.9443C13.6424 29.9443 13.2644 30.1003 12.9824 30.3823L7.68037 35.6863C6.81837 36.5023 5.71237 36.9443 4.55237 36.9443C3.30437 36.9443 2.14637 36.4463 1.29037 35.5423C-0.351632 33.8103 -0.353632 31.0943 1.28637 29.3583L7.86237 22.7823C7.40237 22.5643 6.98037 22.2663 6.61237 21.8963C5.76637 21.0423 5.29837 19.9123 5.30037 18.7083C5.30237 17.5043 5.77237 16.3743 6.62437 15.5263L12.9884 9.16833L20.4124 1.74433C21.5444 0.610328 23.0504 -0.0136719 24.6524 -0.0136719C26.2564 -0.0136719 27.7624 0.610328 28.8944 1.74033L29.6204 2.46633C31.1624 1.51033 32.9144 1.00833 34.7304 1.00833C40.1064 1.00833 44.4804 5.38233 44.4804 10.7583C44.4804 12.5743 43.9784 14.3283 43.0224 15.8683C43.0224 15.8683 43.7784 16.6263 43.7864 16.6343C44.8884 17.7443 45.5064 19.2463 45.5064 20.8383C45.5064 22.4403 44.8824 23.9463 43.7484 25.0783L29.9604 38.8663C29.1104 39.7163 27.9804 40.1843 26.7784 40.1863C25.5744 40.1863 24.4464 39.7183 23.5964 38.8683C23.2304 38.5023 22.9344 38.0823 22.7164 37.6263L21.1444 39.1983L21.3644 39.4503C24.4244 42.9623 28.8604 44.9763 33.5364 44.9763C37.4304 44.9763 41.1884 43.5703 44.1204 41.0163C44.5664 40.6283 44.9964 40.2083 45.4004 39.7703C45.6844 39.4623 46.0864 39.2863 46.5044 39.2863C46.8824 39.2863 47.2424 39.4283 47.5204 39.6823C47.8144 39.9523 47.9864 40.3223 48.0024 40.7223C48.0204 41.1223 47.8784 41.5063 47.6064 41.8003C47.1284 42.3203 46.6184 42.8163 46.0904 43.2763C42.6104 46.3103 38.1524 47.9783 33.5344 47.9783ZM14.0484 26.9443C15.2524 26.9443 16.3824 27.4123 17.2304 28.2603C18.0804 29.1103 18.5484 30.2403 18.5484 31.4423C18.5484 32.6443 18.0804 33.7743 17.2304 34.6243L11.9264 39.9263C11.3404 40.5103 11.3404 41.4643 11.9264 42.0483C12.2084 42.3323 12.5864 42.4863 12.9884 42.4863C13.3904 42.4863 13.7664 42.3303 14.0484 42.0483L28.8984 27.1983C29.1824 26.9143 29.5584 26.7583 29.9584 26.7583C30.3584 26.7583 30.7364 26.9143 31.0184 27.1983C31.6024 27.7823 31.6024 28.7343 31.0184 29.3203L25.7144 34.6243C25.1304 35.2083 25.1304 36.1623 25.7144 36.7463C25.9984 37.0283 26.3744 37.1843 26.7744 37.1843C27.1744 37.1843 27.5524 37.0283 27.8364 36.7443L34.2004 30.3803C35.9544 28.6243 35.9544 25.7703 34.2004 24.0163L21.4724 11.2883C20.6244 10.4403 19.4924 9.97233 18.2904 9.97233C17.0884 9.97233 15.9564 10.4423 15.1084 11.2903L8.74437 17.6483C8.45837 17.9343 8.30037 18.3103 8.30037 18.7123C8.30037 19.1143 8.45637 19.4923 8.73837 19.7763C9.02237 20.0603 9.40037 20.2163 9.80237 20.2163C10.1884 20.2163 10.5544 20.0723 10.8324 19.8083C10.8424 19.7983 16.1664 14.4723 16.1664 14.4723C16.4504 14.1883 16.8264 14.0323 17.2264 14.0323C17.6264 14.0323 18.0044 14.1883 18.2864 14.4723C18.5704 14.7543 18.7264 15.1323 18.7264 15.5323C18.7264 15.9323 18.5704 16.3103 18.2864 16.5923L13.0244 21.8543C13.0104 21.8703 12.9964 21.8863 12.9824 21.9003L3.44037 31.4483C2.91837 32.0023 2.92437 32.9023 3.47237 33.4803C3.75837 33.7823 4.14437 33.9483 4.56237 33.9483C4.94837 33.9483 5.31437 33.8023 5.59237 33.5383L10.8644 28.2623C11.7144 27.4123 12.8444 26.9443 14.0484 26.9443ZM36.3224 21.8963C37.4864 23.0603 38.2184 24.5483 38.4404 26.1423L41.6244 22.9583C42.1904 22.3923 42.5024 21.6383 42.5044 20.8383C42.5044 20.0363 42.1924 19.2843 41.6264 18.7183L41.0664 18.1583C41.0564 18.1683 41.0444 18.1763 41.0344 18.1863C41.0044 18.2143 40.9744 18.2403 40.9424 18.2663C39.2564 19.6663 37.1264 20.4603 34.9324 20.5063L36.3224 21.8963ZM29.0544 7.12433C28.3504 8.21433 27.9804 9.46233 27.9804 10.7603C27.9804 14.4823 31.0084 17.5103 34.7304 17.5103C36.0264 17.5103 37.2724 17.1403 38.3624 16.4383C37.8964 14.1223 36.8304 11.9863 35.2604 10.2323C33.5064 8.66033 31.3704 7.59033 29.0544 7.12433ZM31.6944 4.73433C33.7764 5.44633 35.7004 6.57833 37.3304 8.05833C37.3644 8.09033 37.3984 8.12233 37.4304 8.15833C38.9104 9.79233 40.0404 11.7183 40.7524 13.8003C41.2284 12.8623 41.4804 11.8203 41.4804 10.7583C41.4804 7.03633 38.4524 4.00833 34.7304 4.00833C33.6704 4.01033 32.6304 4.26233 31.6944 4.73433ZM19.3484 7.05033C20.9524 7.27433 22.4324 8.00633 23.5944 9.16833L24.9824 10.5563C25.0284 8.36833 25.8164 6.24633 27.2144 4.55633C27.2384 4.52233 27.2824 4.47233 27.3324 4.42233L26.7764 3.86633C26.2084 3.29833 25.4544 2.98633 24.6544 2.98633C23.8524 2.98633 23.1004 3.29833 22.5344 3.86433L19.3484 7.05033Z" fill="currentColor"/>
</g>
<defs>
<clipPath id="clip0_4_579">
<rect width="48" height="48" fill="currentColor"/>
</clipPath>
</defs>
</svg>
