<svg width="20" height="20" viewBox="0 0 20 20" fill="none" xmlns="http://www.w3.org/2000/svg">
<g clip-path="url(#clip0_488_24392)">
<path d="M9.99125 20.001C9.59958 20.001 9.20875 19.901 8.86125 19.711C8.30708 19.4085 7.90375 18.9076 7.72625 18.3018C7.62875 17.971 7.81875 17.6235 8.14958 17.526C8.20708 17.5093 8.26625 17.501 8.32542 17.501C8.60042 17.501 8.84708 17.6851 8.92542 17.9493C9.00958 18.2351 9.19958 18.471 9.46041 18.6143C9.62458 18.7035 9.80792 18.751 9.99208 18.751C10.0979 18.751 10.2046 18.7351 10.3079 18.7051C10.6729 18.5976 10.9554 18.3151 11.0629 17.9501C11.1404 17.686 11.3871 17.501 11.6629 17.501C11.7221 17.501 11.7804 17.5093 11.8379 17.526C12.1687 17.6235 12.3596 17.971 12.2621 18.3018C12.0346 19.0776 11.4354 19.6768 10.6596 19.9043C10.4412 19.9685 10.2162 20.001 9.99125 20.001Z" fill="currentColor"/>
<path d="M2.49223 16.251C2.25473 16.251 2.03473 16.1135 1.93056 15.9001C1.82473 15.6835 1.85223 15.431 1.99973 15.241C2.00473 15.2335 3.11723 13.6251 3.11723 8.75098C3.11723 5.17348 5.8389 2.22181 9.36723 1.90431V0.625977C9.36723 0.280977 9.64723 0.000976562 9.99223 0.000976562C10.3372 0.000976562 10.6172 0.280977 10.6172 0.625977V1.90431C14.1456 2.22181 16.8672 5.17348 16.8672 8.75098C16.8672 14.0035 17.9056 15.156 17.9156 15.1668C18.0972 15.3326 18.1631 15.6101 18.0714 15.8485C17.9764 16.0926 17.7489 16.251 17.4922 16.251H2.49223ZM16.4172 15.001C16.0156 13.9743 15.6164 12.1093 15.6164 8.75098C15.6164 5.64931 13.0931 3.12598 9.9914 3.12598C6.88973 3.12598 4.3664 5.64931 4.3664 8.75098C4.3664 12.0485 3.88306 13.9818 3.49473 15.001H16.4172Z" fill="currentColor"/>
</g>
<defs>
<clipPath id="clip0_488_24392">
<rect width="20" height="20" fill="currentColor"/>
</clipPath>
</defs>
</svg>
