<svg width="15" height="15" viewBox="0 0 15 15" fill="none" xmlns="http://www.w3.org/2000/svg">
<path d="M3.92067 15C3.14667 15 2.49 14.396 2.426 13.624L1.54 3H0.5C0.224 3 0 2.776 0 2.5C0 2.224 0.224 2 0.5 2H4.5V1.5C4.5 0.672667 5.17267 0 6 0H9C9.82733 0 10.5 0.672667 10.5 1.5V2H14.5C14.776 2 15 2.224 15 2.5C15 2.776 14.776 3 14.5 3H13.46L12.5747 13.6247C12.5107 14.396 11.854 15 11.08 15H3.92067ZM3.422 13.5413C3.44333 13.7987 3.662 14 3.92067 14H11.08C11.338 14 11.5573 13.7987 11.578 13.5413L12.4567 3H2.54333L3.422 13.5413ZM9.5 2V1.5C9.5 1.224 9.276 1 9 1H6C5.724 1 5.5 1.224 5.5 1.5V2H9.5Z" fill="currentColor"/>
</svg>
