<svg width="48" height="48" viewBox="0 0 48 48" fill="none" xmlns="http://www.w3.org/2000/svg">
<path d="M13.262 46.5C10.94 46.5 8.97 44.688 8.778 42.372L6.12 10.5H3C2.172 10.5 1.5 9.828 1.5 9C1.5 8.172 2.172 7.5 3 7.5H15V6C15 3.518 17.018 1.5 19.5 1.5H28.5C30.982 1.5 33 3.518 33 6V7.5H45C45.828 7.5 46.5 8.172 46.5 9C46.5 9.828 45.828 10.5 45 10.5H41.88L39.224 42.374C39.032 44.688 37.062 46.5 34.74 46.5H13.262ZM11.766 42.124C11.83 42.896 12.486 43.5 13.262 43.5H34.74C35.514 43.5 36.172 42.896 36.234 42.124L38.87 10.5H9.13L11.766 42.124ZM30 7.5V6C30 5.172 29.328 4.5 28.5 4.5H19.5C18.672 4.5 18 5.172 18 6V7.5H30Z" fill="currentColor"/>
<path d="M19.5 36C18.672 36 18 35.328 18 34.5V19.5C18 18.672 18.672 18 19.5 18C20.328 18 21 18.672 21 19.5V34.5C21 35.328 20.328 36 19.5 36Z" fill="currentColor"/>
<path d="M28.5 36C27.672 36 27 35.328 27 34.5V19.5C27 18.672 27.672 18 28.5 18C29.328 18 30 18.672 30 19.5V34.5C30 35.328 29.328 36 28.5 36Z" fill="currentColor"/>
</svg>
