<svg width="16" height="16" viewBox="0 0 16 16" fill="none" xmlns="http://www.w3.org/2000/svg">
<rect width="5" height="5" rx="0.833333" transform="matrix(1 0 0 -1 9.64648 6.61426)" stroke="currentColor" stroke-width="0.833333" stroke-linecap="round"/>
<path d="M6.31445 9.94824H9.64779C10.4335 9.94824 10.8263 9.94824 11.0704 10.1923C11.3145 10.4364 11.3145 10.8292 11.3145 11.6149V13.2816C11.3145 14.0672 11.3145 14.4601 11.0704 14.7042C10.8263 14.9482 10.4335 14.9482 9.64779 14.9482H6.31445V9.94824Z" stroke="currentColor" stroke-width="0.833333" stroke-linecap="round"/>
<path d="M6.31445 6.61491C6.31445 5.82923 6.31445 5.4364 6.07038 5.19232C5.8263 4.94824 5.43346 4.94824 4.64779 4.94824H2.98112C2.19545 4.94824 1.80261 4.94824 1.55853 5.19232C1.31445 5.4364 1.31445 5.82923 1.31445 6.61491V9.94824H6.31445V6.61491Z" stroke="currentColor" stroke-width="0.833333" stroke-linecap="round"/>
<path d="M6.31445 14.9482H2.98112C2.19545 14.9482 1.80261 14.9482 1.55853 14.7042C1.31445 14.4601 1.31445 14.0672 1.31445 13.2816V9.94824H6.31445V14.9482Z" stroke="currentColor" stroke-width="0.833333" stroke-linecap="round"/>
</svg>
