<svg width="48" height="48" viewBox="0 0 48 48" fill="none" xmlns="http://www.w3.org/2000/svg">
<path d="M28.5 47.3996C27.938 47.3996 27.388 47.2416 26.912 46.9436L18 41.3696L9.09 46.9376C8.612 47.2356 8.064 47.3936 7.504 47.3936C7.276 47.3936 7.048 47.3676 6.824 47.3156C6.042 47.1336 5.378 46.6596 4.954 45.9796C4.66 45.5056 4.502 44.9616 4.5 44.4056V11.0996C4.5 5.30961 9.21 0.599609 15 0.599609H33C38.79 0.599609 43.5 5.30961 43.5 11.0996V18.5996C43.5 20.2536 42.154 21.5996 40.5 21.5996H31.5V44.3996C31.5 45.2016 31.188 45.9536 30.62 46.5216C30.054 47.0876 29.3 47.3996 28.5 47.3996ZM18 38.0996C18.282 38.0996 18.558 38.1796 18.796 38.3276L28.502 44.3996L28.5 11.0996C28.5 8.61761 30.518 6.59961 33 6.59961C33.828 6.59961 34.5 7.27161 34.5 8.09961C34.5 8.92761 33.828 9.59961 33 9.59961C32.172 9.59961 31.5 10.2716 31.5 11.0996V18.5996H40.5V11.0996C40.5 6.96361 37.136 3.59961 33 3.59961H15C10.864 3.59961 7.5 6.96361 7.5 11.0996V44.3996L17.206 38.3276C17.444 38.1776 17.72 38.0996 18 38.0996Z" fill="currentColor"/>
</svg>
