<svg width="26" height="25" viewBox="0 0 26 25" fill="none" xmlns="http://www.w3.org/2000/svg">
<path d="M23.16 8.9558V6.77031C23.16 5.65021 23.16 5.09015 22.942 4.66233C22.7503 4.28601 22.4443 3.98005 22.068 3.7883C21.6401 3.57031 21.0801 3.57031 19.96 3.57031H5.52666C4.40656 3.57031 3.8465 3.57031 3.41868 3.7883C3.04235 3.98005 2.73639 4.28601 2.54465 4.66233C2.32666 5.09015 2.32666 5.65021 2.32666 6.77031V8.9558M23.16 8.9558V19.2195C23.16 20.3396 23.16 20.8997 22.942 21.3275C22.7503 21.7038 22.4443 22.0098 22.068 22.2015C21.6401 22.4195 21.0801 22.4195 19.96 22.4195H5.52666C4.40656 22.4195 3.8465 22.4195 3.41868 22.2015C3.04235 22.0098 2.73639 21.7038 2.54465 21.3275C2.32666 20.8997 2.32666 20.3396 2.32666 19.2195V8.9558M23.16 8.9558H2.32666" stroke="currentColor"/>
<path d="M8.57666 1.58691L8.57666 6.54723M17.9517 1.58691L17.9517 6.54723" stroke="currentColor" stroke-linecap="round"/>
<path d="M15.8687 15.4756L9.61865 15.4756" stroke="currentColor" stroke-linecap="round"/>
</svg>
