<svg width="48" height="48" viewBox="0 0 48 48" fill="none" xmlns="http://www.w3.org/2000/svg">
<path fill-rule="evenodd" clip-rule="evenodd" d="M3.92727 15.5706H44.0727V8.03862H3.92727V15.5706ZM1 7.67491C1 6.76459 1 6.30942 1.17494 5.96172C1.32883 5.65588 1.57437 5.40722 1.87639 5.25138C2.21973 5.07422 2.6692 5.07422 3.56813 5.07422H44.4319C45.3308 5.07422 45.7803 5.07422 46.1236 5.25138C46.4256 5.40722 46.6712 5.65588 46.8251 5.96172C47 6.30942 47 6.76459 47 7.67492V44.3986C47 45.3089 47 45.7641 46.8251 46.1118C46.6712 46.4176 46.4256 46.6663 46.1236 46.8221C45.7803 46.9993 45.3308 46.9993 44.4319 46.9993H3.56813C2.6692 46.9993 2.21973 46.9993 1.87639 46.8221C1.57437 46.6663 1.32883 46.4176 1.17494 46.1118C1 45.7641 1 45.3089 1 44.3986V7.67491ZM44.0727 18.535H3.92727V44.0349H44.0727V18.535Z" fill="currentColor"/>
<path fill-rule="evenodd" clip-rule="evenodd" d="M13.4867 0C14.3078 2.24597e-07 14.9735 0.590465 14.9735 1.31884L14.9735 11.6812C14.9735 12.4095 14.3078 13 13.4867 13C12.6656 13 12 12.4095 12 11.6812L12 1.31884C12 0.590465 12.6656 -2.24597e-07 13.4867 0ZM34.5133 0C35.3344 1.12299e-07 36 0.590465 36 1.31884L36 11.6812C36 12.4095 35.3344 13 34.5133 13C33.6922 13 33.0265 12.4095 33.0265 11.6812L33.0265 1.31884C33.0265 0.590465 33.6922 -1.12299e-07 34.5133 0Z" fill="currentColor"/>
<path fill-rule="evenodd" clip-rule="evenodd" d="M32.3711 32.7467C32.3711 31.9363 31.7158 31.2793 30.9075 31.2793L17.1075 31.2793C16.2991 31.2793 15.6438 31.9363 15.6438 32.7467C15.6438 33.5571 16.2991 34.2141 17.1075 34.2141L30.9075 34.214C31.7158 34.214 32.3711 33.5571 32.3711 32.7467Z" fill="currentColor"/>
</svg>
