<svg width="48" height="48" viewBox="0 0 48 48" fill="none" xmlns="http://www.w3.org/2000/svg">
<g clip-path="url(#clip0_4_1128)">
<path d="M29.569 48.0416C27.575 48.0416 25.621 47.4676 23.917 46.3836L23.841 46.3316C15.061 40.3996 7.58504 32.9236 1.64104 24.1276C1.62904 24.1096 1.59504 24.0556 1.58304 24.0336C-1.06296 19.8796 -0.468963 14.5136 3.03904 11.0056L4.29904 9.74759C5.14704 8.89959 6.27704 8.43359 7.47904 8.43359C8.68304 8.43359 9.81304 8.90159 10.661 9.74959L15.965 15.0516C16.815 15.9016 17.283 17.0316 17.281 18.2356C17.281 19.4396 16.813 20.5696 15.963 21.4176C15.379 22.0016 15.379 22.9536 15.963 23.5376L24.447 32.0236C24.729 32.3056 25.105 32.4616 25.507 32.4616C25.909 32.4616 26.285 32.3056 26.567 32.0236C27.417 31.1736 28.547 30.7076 29.751 30.7076C30.955 30.7076 32.085 31.1756 32.933 32.0236L38.223 37.3116C39.089 38.1776 39.557 39.3076 39.557 40.5096C39.557 41.7116 39.087 42.8416 38.237 43.6916L36.981 44.9496C34.991 46.9436 32.357 48.0416 29.569 48.0416ZM7.48104 11.4316C7.07904 11.4316 6.70304 11.5876 6.42104 11.8696L5.15904 13.1296C2.65304 15.6356 2.23304 19.4736 4.13704 22.4636C9.85704 30.9276 17.063 38.1316 25.543 43.8616C25.547 43.8636 25.585 43.8916 25.589 43.8936C26.761 44.6396 28.145 45.0436 29.557 45.0436C31.549 45.0436 33.433 44.2556 34.863 42.8276L36.121 41.5696C36.405 41.2856 36.561 40.9096 36.561 40.5076C36.561 40.1116 36.409 39.7376 36.131 39.4556L30.815 34.1436C30.531 33.8596 30.155 33.7056 29.753 33.7056C29.351 33.7056 28.975 33.8616 28.693 34.1436C27.843 34.9936 26.713 35.4596 25.509 35.4596C24.307 35.4596 23.177 34.9916 22.329 34.1436L13.845 25.6576C12.091 23.9036 12.091 21.0496 13.845 19.2936C14.129 19.0096 14.285 18.6336 14.285 18.2336C14.285 17.8336 14.129 17.4556 13.847 17.1716L8.54104 11.8716C8.25904 11.5876 7.88104 11.4316 7.48104 11.4316Z" fill="currentColor"/>
<path d="M35.9629 24.0234C29.3469 24.0234 23.9629 18.6394 23.9629 12.0234C23.9629 5.40744 29.3469 0.0234375 35.9629 0.0234375C42.5789 0.0234375 47.9629 5.40744 47.9629 12.0234C47.9629 18.6394 42.5789 24.0234 35.9629 24.0234ZM35.9629 3.02344C31.0009 3.02344 26.9629 7.06144 26.9629 12.0234C26.9629 16.9854 31.0009 21.0234 35.9629 21.0234C40.9249 21.0234 44.9629 16.9854 44.9629 12.0234C44.9629 7.06144 40.9249 3.02344 35.9629 3.02344Z" fill="currentColor"/>
<path d="M39.1453 16.7058C38.7453 16.7058 38.3673 16.5498 38.0853 16.2658L35.9633 14.1438L33.8413 16.2658C33.5573 16.5498 33.1813 16.7058 32.7813 16.7058C32.3813 16.7058 32.0033 16.5498 31.7213 16.2658C31.4373 15.9818 31.2812 15.6058 31.2812 15.2058C31.2812 14.8058 31.4373 14.4278 31.7213 14.1458L33.8433 12.0238L31.7213 9.9018C31.4373 9.6198 31.2812 9.2418 31.2812 8.8418C31.2812 8.4418 31.4373 8.0638 31.7213 7.7818C32.0053 7.4978 32.3813 7.3418 32.7813 7.3418C33.1813 7.3418 33.5593 7.4978 33.8413 7.7818L35.9633 9.9038L38.0853 7.7818C38.3693 7.4978 38.7453 7.3418 39.1453 7.3418C39.5453 7.3418 39.9233 7.4978 40.2053 7.7818C40.4893 8.0658 40.6453 8.4418 40.6453 8.8418C40.6453 9.2418 40.4893 9.6198 40.2053 9.9018L38.0833 12.0238L40.2053 14.1458C40.4893 14.4278 40.6453 14.8058 40.6453 15.2058C40.6453 15.6058 40.4893 15.9838 40.2053 16.2658C39.9233 16.5498 39.5453 16.7058 39.1453 16.7058Z" fill="currentColor"/>
</g>
<defs>
<clipPath id="clip0_4_1128">
<rect width="48" height="48" fill="currentColor"/>
</clipPath>
</defs>
</svg>
