<svg width="33" height="31" viewBox="0 0 33 31" fill="none" xmlns="http://www.w3.org/2000/svg">
<path d="M10.9033 11.2295C10.9033 8.35003 8.58109 6.02783 5.70165 6.02783C2.8222 6.02783 0.5 8.35003 0.5 11.2295C0.5 14.1089 2.8222 16.4311 5.70165 16.4311C8.58109 16.4311 10.9033 14.1089 10.9033 11.2295ZM5.70165 14.5734C3.84405 14.5734 2.35768 13.0871 2.35768 11.2295C2.35768 9.37188 3.84405 7.88551 5.70165 7.88551C7.55924 7.88551 9.04562 9.37188 9.04562 11.2295C9.04562 13.0871 7.55957 14.5734 5.70165 14.5734Z" fill="currentColor"/>
<path d="M27.8082 7.32814C27.3902 3.93781 24.6034 1.15109 21.2131 0.733094C16.1972 0.0825626 11.9708 4.30903 12.621 9.32524C13.0389 12.7156 15.8257 15.5023 19.216 15.9203C24.232 16.5242 28.4584 12.2977 27.8082 7.32814ZM20.9812 14.0624C17.1727 14.527 13.9683 11.3223 14.4792 7.56045C14.8045 4.95967 16.8944 2.86968 19.4952 2.54449C23.3038 2.07992 26.4618 5.28461 25.9972 9.04649C25.6256 11.6473 23.582 13.7373 20.9812 14.0624Z" fill="currentColor"/>
<path d="M19.4491 16.8027H7.32723C6.81633 16.8027 6.39844 17.2207 6.39844 17.7315V29.8534C6.39844 30.3643 6.81636 30.7822 7.32723 30.7822H19.4491C19.96 30.7822 20.3779 30.3643 20.3779 29.8534V17.7315C20.3779 17.2206 20.0063 16.8027 19.4491 16.8027ZM18.52 28.9246H8.25587V18.6605H18.52V28.9246Z" fill="currentColor"/>
<path d="M31.3859 16.8492L22.1436 18.7534C21.7256 18.8464 21.4004 19.218 21.4004 19.6822L21.4007 27.9493C21.4007 28.3672 21.726 28.7851 22.1439 28.8781L31.572 30.8287C32.3152 30.968 32.5008 30.1785 32.5008 29.8999V17.7316C32.5008 16.8958 31.6647 16.7564 31.3861 16.8491L31.3859 16.8492ZM30.6427 28.7388L23.2582 27.2062V20.4252L30.6427 18.8925V28.7388Z" fill="currentColor"/>
</svg>
