<svg width="20" height="18" viewBox="0 0 20 18" fill="none" xmlns="http://www.w3.org/2000/svg">
<path fill-rule="evenodd" clip-rule="evenodd" d="M6 6.5C6.27614 6.5 6.5 6.72386 6.5 7V13C6.5 13.2761 6.27614 13.5 6 13.5C5.72386 13.5 5.5 13.2761 5.5 13V7C5.5 6.72386 5.72386 6.5 6 6.5Z" fill="currentColor"/>
<path fill-rule="evenodd" clip-rule="evenodd" d="M10 8.5C10.2761 8.5 10.5 8.72386 10.5 9V13C10.5 13.2761 10.2761 13.5 10 13.5C9.72386 13.5 9.5 13.2761 9.5 13V9C9.5 8.72386 9.72386 8.5 10 8.5Z" fill="currentColor"/>
<path fill-rule="evenodd" clip-rule="evenodd" d="M14 4.5C14.2761 4.5 14.5 4.72386 14.5 5V13C14.5 13.2761 14.2761 13.5 14 13.5C13.7239 13.5 13.5 13.2761 13.5 13V5C13.5 4.72386 13.7239 4.5 14 4.5Z" fill="currentColor"/>
<path fill-rule="evenodd" clip-rule="evenodd" d="M4.96342 0.5H15.0366C15.9483 0.499987 16.6832 0.499976 17.2612 0.577683C17.8612 0.65836 18.3665 0.830956 18.7678 1.23223C19.169 1.63351 19.3416 2.13876 19.4223 2.73883C19.5 3.31681 19.5 4.05168 19.5 4.9634V13.0366C19.5 13.9483 19.5 14.6832 19.4223 15.2612C19.3416 15.8612 19.169 16.3665 18.7678 16.7678C18.3665 17.169 17.8612 17.3416 17.2612 17.4223C16.6832 17.5 15.9483 17.5 15.0366 17.5H4.9634C4.05168 17.5 3.31681 17.5 2.73883 17.4223C2.13876 17.3416 1.63351 17.169 1.23223 16.7678C0.830956 16.3665 0.65836 15.8612 0.577683 15.2612C0.499976 14.6832 0.499987 13.9483 0.5 13.0366V4.96342C0.499987 4.05169 0.499976 3.31681 0.577683 2.73883C0.65836 2.13876 0.830956 1.63351 1.23223 1.23223C1.63351 0.830956 2.13876 0.65836 2.73883 0.577683C3.31681 0.499976 4.05169 0.499987 4.96342 0.5ZM2.87208 1.56877C2.3829 1.63453 2.12385 1.75483 1.93934 1.93934C1.75483 2.12385 1.63453 2.3829 1.56877 2.87208C1.50106 3.37565 1.5 4.04306 1.5 5V13C1.5 13.9569 1.50106 14.6244 1.56877 15.1279C1.63453 15.6171 1.75483 15.8762 1.93934 16.0607C2.12385 16.2452 2.3829 16.3655 2.87208 16.4312C3.37565 16.4989 4.04306 16.5 5 16.5H15C15.9569 16.5 16.6244 16.4989 17.1279 16.4312C17.6171 16.3655 17.8762 16.2452 18.0607 16.0607C18.2452 15.8762 18.3655 15.6171 18.4312 15.1279C18.4989 14.6244 18.5 13.9569 18.5 13V5C18.5 4.04306 18.4989 3.37565 18.4312 2.87208C18.3655 2.3829 18.2452 2.12385 18.0607 1.93934C17.8762 1.75483 17.6171 1.63453 17.1279 1.56877C16.6244 1.50106 15.9569 1.5 15 1.5H5C4.04306 1.5 3.37565 1.50106 2.87208 1.56877Z" fill="currentColor"/>
</svg>
