<svg width="12" height="16" viewBox="0 0 12 16" fill="none" xmlns="http://www.w3.org/2000/svg">
    <path fill-rule="evenodd" clip-rule="evenodd" d="M3.21184 1.58416L3.23684 1.58416V2.53465C2.67259 2.53465 2.28506 2.53523 1.98762 2.56559C1.69809 2.59514 1.5469 2.64892 1.43858 2.72154C1.3179 2.80244 1.21428 2.9064 1.13364 3.02749C1.06126 3.13616 1.00765 3.28785 0.9782 3.57833C0.947942 3.87676 0.947369 4.26557 0.947369 4.83168V12.3564C0.947369 13.1166 0.948375 13.639 1.00095 14.0314C1.0517 14.4101 1.14254 14.5957 1.27109 14.7247C1.39964 14.8537 1.58472 14.9448 1.96216 14.9957C2.35323 15.0485 2.87387 15.0495 3.63158 15.0495H8.36842C9.12613 15.0495 9.64677 15.0485 10.0378 14.9957C10.4153 14.9448 10.6004 14.8537 10.7289 14.7247C10.8575 14.5957 10.9483 14.4101 10.999 14.0314C11.0516 13.639 11.0526 13.1166 11.0526 12.3564V4.83168C11.0526 4.26557 11.0521 3.87676 11.0218 3.57833C10.9923 3.28785 10.9387 3.13616 10.8664 3.02749C10.7857 2.9064 10.6821 2.80244 10.5614 2.72154C10.4531 2.64892 10.3019 2.59514 10.0124 2.56559C9.71494 2.53523 9.32741 2.53465 8.76316 2.53465V1.58416L8.78816 1.58416C9.3213 1.58415 9.75722 1.58414 10.1083 1.61997C10.4727 1.65717 10.7978 1.73687 11.0877 1.93123C11.3119 2.08148 11.5043 2.27455 11.6541 2.49942C11.8478 2.7903 11.9272 3.11651 11.9643 3.48214C12 3.83434 12 4.2717 12 4.80661V12.3905C12 13.1083 12 13.6949 11.938 14.158C11.8731 14.6421 11.7327 15.0618 11.3988 15.3968C11.0649 15.7318 10.6466 15.8727 10.1641 15.9378C9.70247 16 9.1178 16 8.40233 16H3.59767C2.8822 16 2.29753 16 1.83593 15.9378C1.35343 15.8727 0.935114 15.7318 0.601203 15.3968C0.267291 15.0618 0.126903 14.6421 0.0620328 14.158C-2.73741e-05 13.6949 -1.48601e-05 13.1083 4.80239e-07 12.3905L6.68465e-07 4.8066C-7.94284e-06 4.2717 -1.50048e-05 3.83434 0.0356956 3.48214C0.0727682 3.11651 0.152208 2.7903 0.345932 2.49942C0.495689 2.27455 0.688124 2.08148 0.912251 1.93123C1.20218 1.73687 1.52731 1.65717 1.89174 1.61997C2.24278 1.58414 2.6787 1.58415 3.21184 1.58416Z" fill="currentColor"/>
    <path fill-rule="evenodd" clip-rule="evenodd" d="M3.15789 2.05941C3.15789 0.922027 4.07689 0 5.21053 0H6.78947C7.92311 0 8.8421 0.922027 8.8421 2.05941C8.8421 3.19678 7.92311 4.11881 6.78947 4.11881H5.21053C4.07689 4.11881 3.15789 3.19678 3.15789 2.05941ZM5.21053 0.950495C4.60011 0.950495 4.10526 1.44697 4.10526 2.05941C4.10526 2.67184 4.60011 3.16832 5.21053 3.16832H6.78947C7.39989 3.16832 7.89474 2.67184 7.89474 2.05941C7.89474 1.44697 7.39989 0.950495 6.78947 0.950495H5.21053Z" fill="currentColor"/>
    <path fill-rule="evenodd" clip-rule="evenodd" d="M8.64754 7.32392C8.80169 7.47858 8.80169 7.72934 8.64754 7.884L6.04789 10.4922C5.58543 10.9562 4.83563 10.9562 4.37316 10.4922L3.35246 9.46816C3.1983 9.3135 3.1983 9.06274 3.35246 8.90808C3.50661 8.75341 3.75655 8.75341 3.9107 8.90808L4.93141 9.93215C5.08556 10.0868 5.33549 10.0868 5.48965 9.93215L8.0893 7.32392C8.24345 7.16925 8.49339 7.16926 8.64754 7.32392Z" fill="currentColor"/>
</svg>
