<svg width="48" height="48" viewBox="0 0 48 48" fill="none" xmlns="http://www.w3.org/2000/svg">
<g clip-path="url(#clip0_4_553)">
<path d="M18.6501 35.8323C18.4161 35.8323 18.1801 35.8083 17.9461 35.7623C17.0021 35.5743 16.1881 35.0323 15.6541 34.2343L10.7741 27.3103C10.2981 26.6343 10.4601 25.6963 11.1361 25.2203C11.3901 25.0403 11.6881 24.9463 12.0001 24.9463C12.4881 24.9463 12.9461 25.1843 13.2281 25.5823L18.1281 32.5363C18.2361 32.6983 18.3681 32.7883 18.5301 32.8203C18.5701 32.8283 18.6101 32.8323 18.6501 32.8323C18.7661 32.8323 18.8801 32.7963 18.9781 32.7303C19.0341 32.6923 19.0821 32.6463 19.1221 32.5943L34.8261 12.7242C35.1101 12.3642 35.5381 12.1562 36.0001 12.1562C36.3361 12.1562 36.6661 12.2702 36.9281 12.4782C37.2421 12.7262 37.4421 13.0822 37.4881 13.4802C37.5341 13.8782 37.4241 14.2702 37.1761 14.5842L21.4901 34.4303C21.2641 34.7283 20.9761 34.9983 20.6441 35.2223C20.0501 35.6223 19.3601 35.8323 18.6501 35.8323Z" fill="currentColor"/>
<path d="M24 47.998C10.766 47.998 0 37.232 0 23.998C0 10.764 10.766 -0.00195312 24 -0.00195312C37.234 -0.00195312 48 10.764 48 23.998C48 37.232 37.234 47.998 24 47.998ZM24 2.99805C12.42 2.99805 3 12.418 3 23.998C3 35.578 12.42 44.998 24 44.998C35.58 44.998 45 35.578 45 23.998C45 12.418 35.58 2.99805 24 2.99805Z" fill="currentColor"/>
</g>
<defs>
<clipPath id="clip0_4_553">
<rect width="48" height="48" fill="currentColor"/>
</clipPath>
</defs>
</svg>
