<svg width="48" height="42" viewBox="0 0 48 42" fill="none" xmlns="http://www.w3.org/2000/svg">
<path d="M14.4888 42C14.0728 42 13.6532 41.9574 13.2371 41.8758C11.5587 41.5423 10.1115 40.5808 9.16207 39.1652L0.485676 26.8824C-0.360628 25.6832 -0.0726014 24.0193 1.12929 23.1749C1.58089 22.8555 2.11072 22.6888 2.66544 22.6888C3.53308 22.6888 4.34738 23.111 4.84876 23.817L13.5607 36.1531C13.7527 36.4404 13.9874 36.6001 14.2754 36.6569C14.3466 36.6711 14.4177 36.6782 14.4888 36.6782C14.695 36.6782 14.8977 36.6143 15.072 36.4972C15.1715 36.4298 15.2569 36.3482 15.328 36.256L43.2489 1.0076C43.7538 0.368981 44.5148 0 45.3362 0C45.9336 0 46.5203 0.202229 46.9862 0.571211C47.5444 1.01115 47.9 1.64268 47.9818 2.34871C48.0636 3.05474 47.868 3.75013 47.4271 4.30715L19.5382 39.5129C19.1364 40.0416 18.6243 40.5205 18.034 40.9179C16.9779 41.6275 15.7511 42 14.4888 42Z" fill="currentColor"/>
</svg>
