<svg width="48" height="48" viewBox="0 0 48 48" fill="none" xmlns="http://www.w3.org/2000/svg">
<path d="M12 24C12 24.6667 12.301 25.2933 12.8451 25.765L33.5284 43.6333C33.8024 43.87 34.1651 44 34.5529 44C34.9388 44 35.3035 43.87 35.5755 43.6333C35.8495 43.3967 36 43.0833 36 42.75C36 42.4167 35.8495 42.1017 35.5755 41.8667L14.8941 24L35.5755 6.13334C35.8495 5.89667 36 5.58334 36 5.25C36 4.91667 35.8495 4.60167 35.5755 4.36666C35.3016 4.13 34.9388 4 34.5529 4C34.1671 4 33.8024 4.13 33.5303 4.36666L12.847 22.2333C12.301 22.7033 12 23.3317 12 24Z" fill="currentColor"/>
</svg>
