<svg width="20" height="8" viewBox="0 0 16 8" fill="none" xmlns="http://www.w3.org/2000/svg">
	<path d="M8.11328 7.34947C8.36328 7.34947 8.59828 7.26176 8.77516 7.1032L15.4758 1.07573C15.5645 0.995888 15.6133 0.890182 15.6133 0.777167C15.6133 0.664714 15.5645 0.558446 15.4758 0.479167C15.387 0.399325 15.2695 0.355469 15.1445 0.355469C15.0195 0.355469 14.9014 0.399325 14.8133 0.479167L8.11328 6.50608L1.41328 0.479167C1.32453 0.399325 1.20703 0.355469 1.08203 0.355469C0.957031 0.355469 0.838906 0.399325 0.750781 0.479167C0.662031 0.559008 0.613281 0.664714 0.613281 0.777167C0.613281 0.88962 0.662031 0.995888 0.750781 1.07517L7.45078 7.10264C7.62703 7.26176 7.86266 7.34947 8.11328 7.34947Z" fill="currentColor"/>
</svg>