<svg width="48" height="48" viewBox="0 0 48 48" fill="none" xmlns="http://www.w3.org/2000/svg">
<path d="M24 37C23.2333 37 22.5127 36.6739 21.9702 36.0845L1.42167 13.6775C1.1495 13.3807 1 12.9878 1 12.5676C1 12.1496 1.1495 11.7546 1.42167 11.4598C1.69383 11.163 2.05417 11 2.4375 11C2.82083 11 3.18308 11.163 3.45333 11.4598L24 33.8647L44.5467 11.4598C44.8188 11.163 45.1792 11 45.5625 11C45.9458 11 46.3081 11.163 46.5783 11.4598C46.8505 11.7567 47 12.1496 47 12.5676C47 12.9857 46.8505 13.3807 46.5783 13.6755L26.0317 36.0824C25.4912 36.6739 24.7686 37 24 37Z" fill="currentColor"/>
</svg>
