<svg width="48" height="48" viewBox="0 0 48 48" fill="none" xmlns="http://www.w3.org/2000/svg">
<g clip-path="url(#clip0_4_931)">
<path d="M24 48C18.988 48 14.18 46.458 10.094 43.542C9.97 43.478 9.856 43.396 9.754 43.298C4.616 39.496 1.154 33.714 0.248 27.43C0.242 27.396 0.238 27.366 0.236 27.336C0.08 26.212 0 25.09 0 24C0 10.766 10.766 0 24 0C37.234 0 48 10.766 48 24C48 25.082 47.922 26.196 47.766 27.31C47.762 27.374 47.754 27.438 47.74 27.502C46.82 33.758 43.362 39.51 38.246 43.298C38.146 43.394 38.032 43.476 37.906 43.542C33.82 46.458 29.014 48 24 48ZM25.5 44.94C29.072 44.686 32.502 43.526 35.496 41.56C34.132 36.984 30.224 33.686 25.5 33.098V44.94ZM12.51 41.564C15.502 43.528 18.93 44.686 22.5 44.94V33.096C22.17 33.138 21.842 33.194 21.516 33.262C17.246 34.166 13.762 37.396 12.51 41.564ZM3.36 27.862C4.208 32.404 6.54 36.534 9.996 39.63C11.808 34.902 15.896 31.384 20.896 30.326C21.42 30.216 21.958 30.132 22.5 30.076V29.874C20.46 29.558 18.566 28.604 17.106 27.144C16.822 26.862 16.666 26.484 16.666 26.084C16.666 25.684 16.822 25.306 17.104 25.022C17.388 24.738 17.764 24.582 18.166 24.582C18.566 24.582 18.944 24.738 19.226 25.022C20.124 25.92 21.266 26.544 22.5 26.826V21.01C20.392 21.102 18.29 21.39 16.236 21.866C16.144 21.898 16.048 21.92 15.952 21.932C11.382 23.034 7.148 25.028 3.36 27.862ZM25.5 30.074C27.87 30.31 30.168 31.118 32.186 32.432C34.844 34.162 36.88 36.69 38.006 39.628C41.462 36.53 43.792 32.402 44.64 27.86C40.852 25.026 36.62 23.034 32.054 21.934C31.952 21.92 31.854 21.898 31.762 21.866C29.71 21.39 27.608 21.104 25.502 21.012V26.828C26.736 26.548 27.878 25.922 28.776 25.024C29.06 24.74 29.436 24.584 29.836 24.584C30.236 24.584 30.614 24.74 30.896 25.024C31.178 25.308 31.336 25.684 31.336 26.084C31.336 26.486 31.18 26.862 30.896 27.146C29.436 28.606 27.542 29.56 25.502 29.876V30.074H25.5ZM22.5 3.06C11.504 3.828 3 12.882 3 24C3 24.14 3.002 24.284 3.006 24.43C6.484 22.072 10.278 20.332 14.312 19.25C14.534 17.104 15.462 15.09 16.956 13.528C18.438 11.978 20.386 10.97 22.5 10.644V3.06ZM33.688 19.248C37.722 20.33 41.518 22.07 44.996 24.428C44.998 24.284 45 24.14 45 24C45 12.882 36.496 3.828 25.5 3.06V10.638C29.84 11.318 33.226 14.87 33.688 19.248ZM22.5 13.69C21.21 13.978 20.054 14.628 19.124 15.602C18.322 16.44 17.762 17.444 17.476 18.544C19.122 18.254 20.804 18.074 22.5 18.006V13.69ZM25.5 18.008C27.196 18.076 28.878 18.256 30.52 18.544C29.882 16.134 27.938 14.246 25.5 13.69V18.008Z" fill="currentColor"/>
</g>
<defs>
<clipPath id="clip0_4_931">
<rect width="48" height="48" fill="currentColor"/>
</clipPath>
</defs>
</svg>
