<svg width="48" height="48" viewBox="0 0 48 48" fill="none" xmlns="http://www.w3.org/2000/svg">
<g clip-path="url(#clip0_2740_62448)">
<path d="M24 47.998C10.766 47.998 0 37.232 0 23.998C0 10.764 10.766 -0.00195313 24 -0.00195313C37.234 -0.00195313 48 10.764 48 23.998C48 37.232 37.234 47.998 24 47.998ZM24 2.99805C12.42 2.99805 3 12.418 3 23.998C3 35.578 12.42 44.998 24 44.998C35.58 44.998 45 35.578 45 23.998C45 12.418 35.58 2.99805 24 2.99805Z" fill="currentcolor"/>
<path d="M33 34.498C32.6 34.498 32.222 34.342 31.94 34.058L24 26.12L16.06 34.06C15.776 34.344 15.4 34.5 15 34.5C14.6 34.5 14.222 34.344 13.94 34.06C13.356 33.476 13.356 32.524 13.94 31.938L21.88 23.998L13.94 16.058C13.656 15.776 13.5 15.398 13.5 14.998C13.5 14.598 13.656 14.22 13.94 13.938C14.222 13.654 14.6 13.498 15 13.498C15.4 13.498 15.778 13.654 16.06 13.938L24 21.878L31.94 13.938C32.224 13.654 32.6 13.498 33 13.498C33.4 13.498 33.778 13.654 34.06 13.938C34.344 14.22 34.5 14.598 34.5 14.998C34.5 15.398 34.344 15.776 34.06 16.058L26.12 23.998L34.06 31.938C34.644 32.522 34.644 33.474 34.06 34.06C33.778 34.342 33.4 34.498 33 34.498Z" fill="currentcolor"/>
</g>
<defs>
<clipPath id="clip0_2740_62448">
<rect width="48" height="48" fill="currentColor"/>
</clipPath>
</defs>
</svg>
