<svg width="48" height="48" viewBox="0 0 48 48" fill="none" xmlns="http://www.w3.org/2000/svg">
<g clip-path="url(#clip0_4_818)">
<path d="M9 42C5.278 42 2.25 38.972 2.25 35.25C2.25 31.528 5.278 28.5 9 28.5C12.722 28.5 15.75 31.528 15.75 35.25C15.75 38.972 12.722 42 9 42ZM9 31.5C6.932 31.5 5.25 33.182 5.25 35.25C5.25 37.318 6.932 39 9 39C11.068 39 12.75 37.318 12.75 35.25C12.75 33.182 11.068 31.5 9 31.5Z" fill="currentColor"/>
<path d="M1.49773 47.9999C1.25373 47.9999 1.00973 47.9379 0.791727 47.8239C0.0617271 47.4359 -0.214273 46.5259 0.173727 45.7959C1.11173 44.0379 2.53573 42.6139 4.29173 41.6779C5.73373 40.9099 7.35573 40.5039 8.98173 40.5039C12.6917 40.5039 16.0797 42.5319 17.8217 45.7959C18.2117 46.5259 17.9337 47.4359 17.2037 47.8259C16.9877 47.9379 16.7437 47.9999 16.4997 47.9999C15.9437 47.9999 15.4377 47.6959 15.1757 47.2059C13.9577 44.9199 11.5857 43.4999 8.98573 43.4999C7.84773 43.4999 6.71373 43.7839 5.70373 44.3219C4.47373 44.9779 3.47773 45.9739 2.82173 47.2039C2.56173 47.6959 2.05373 47.9999 1.49773 47.9999Z" fill="currentColor"/>
<path d="M46.4997 48C45.9437 48 45.4357 47.696 45.1757 47.206C44.2957 45.558 42.8257 44.348 41.0377 43.804C40.3697 43.6 39.6797 43.498 38.9917 43.498C37.8577 43.498 36.7217 43.784 35.7057 44.326C34.4757 44.982 33.4797 45.978 32.8237 47.208C32.5617 47.696 32.0537 48 31.4997 48C31.2557 48 31.0117 47.938 30.7937 47.824C30.0637 47.434 29.7877 46.524 30.1757 45.794C31.1137 44.036 32.5357 42.612 34.2937 41.676C34.7217 41.446 35.1677 41.25 35.6217 41.086C33.6077 39.914 32.2497 37.732 32.2497 35.248C32.2497 31.526 35.2777 28.498 38.9997 28.498C42.7217 28.498 45.7497 31.526 45.7497 35.248C45.7497 37.732 44.3917 39.914 42.3777 41.086C44.7217 41.924 46.6437 43.58 47.8237 45.792C48.0117 46.146 48.0517 46.552 47.9357 46.936C47.8197 47.318 47.5597 47.634 47.2057 47.822C46.9897 47.938 46.7457 48 46.4997 48ZM38.9997 31.5C36.9317 31.5 35.2497 33.182 35.2497 35.25C35.2497 37.318 36.9317 39 38.9997 39C41.0677 39 42.7497 37.318 42.7497 35.25C42.7497 33.182 41.0677 31.5 38.9997 31.5Z" fill="currentColor"/>
<path d="M24 13.5C20.278 13.5 17.25 10.472 17.25 6.75C17.25 3.028 20.278 0 24 0C27.722 0 30.75 3.028 30.75 6.75C30.75 10.472 27.722 13.5 24 13.5ZM24 3C21.932 3 20.25 4.682 20.25 6.75C20.25 8.818 21.932 10.5 24 10.5C26.068 10.5 27.75 8.818 27.75 6.75C27.75 4.682 26.068 3 24 3Z" fill="currentColor"/>
<path d="M30.4989 18C30.0589 18 29.6429 17.808 29.3569 17.472C28.0189 15.902 26.0649 15 23.9929 15C22.3229 15 20.7049 15.596 19.4349 16.676C19.1509 16.92 18.8829 17.188 18.6409 17.472C18.3549 17.808 17.9389 18 17.4989 18C17.1429 18 16.7969 17.872 16.5249 17.642C16.2209 17.382 16.0349 17.02 16.0029 16.62C15.9709 16.22 16.0969 15.832 16.3569 15.528C16.7029 15.12 17.0849 14.74 17.4909 14.394C19.3049 12.848 21.6129 11.998 23.9849 11.998C24.2549 11.998 24.5269 12.008 24.7989 12.03C27.4729 12.244 29.9029 13.486 31.6389 15.528C31.8989 15.834 32.0249 16.22 31.9929 16.62C31.9609 17.02 31.7749 17.382 31.4709 17.642C31.2009 17.872 30.8549 18 30.4989 18Z" fill="currentColor"/>
<path d="M23.9977 42.0029C21.7957 42.0029 19.6317 41.6049 17.5677 40.8169C17.1937 40.6749 16.8977 40.3949 16.7337 40.0289C16.5697 39.6629 16.5577 39.2549 16.7017 38.8809C16.9217 38.3029 17.4837 37.9149 18.1017 37.9149C18.2857 37.9149 18.4657 37.9489 18.6377 38.0149C20.3577 38.6709 22.1617 39.0029 23.9977 39.0029C25.8657 39.0029 27.6997 38.6589 29.4457 37.9809C29.6196 37.9129 29.8017 37.8789 29.9877 37.8789C30.6017 37.8789 31.1637 38.2629 31.3857 38.8369C31.6857 39.6089 31.3017 40.4789 30.5297 40.7789C28.4377 41.5909 26.2377 42.0029 23.9977 42.0029Z" fill="currentColor"/>
<path d="M7.57205 27C6.79205 27 6.15005 26.414 6.08005 25.636C6.02405 25.026 5.99805 24.506 5.99805 24C5.99605 19.058 8.06405 14.284 11.672 10.906C11.952 10.644 12.316 10.5 12.698 10.5C13.112 10.5 13.51 10.674 13.792 10.974C14.066 11.266 14.21 11.648 14.196 12.048C14.182 12.448 14.014 12.82 13.722 13.094C10.718 15.908 8.99605 19.884 8.99805 24C8.99805 24.412 9.02005 24.846 9.06805 25.364C9.14405 26.186 8.53605 26.918 7.71205 26.994C7.66005 26.998 7.61605 27 7.57205 27Z" fill="currentColor"/>
<path d="M40.4246 27C40.3806 27 40.3386 26.998 40.2946 26.994C39.8926 26.958 39.5306 26.77 39.2746 26.462C39.0166 26.154 38.8946 25.766 38.9306 25.366C38.9786 24.824 39.0006 24.39 39.0006 24C39.0026 19.882 37.2806 15.908 34.2746 13.096C33.6706 12.53 33.6406 11.578 34.2046 10.976C34.4866 10.674 34.8846 10.502 35.2986 10.502C35.6806 10.502 36.0446 10.646 36.3226 10.906C39.9346 14.284 42.0026 19.056 42.0006 24C42.0006 24.484 41.9746 25.002 41.9186 25.632C41.8486 26.412 41.2066 27 40.4246 27Z" fill="currentColor"/>
</g>
<defs>
<clipPath id="clip0_4_818">
<rect width="48" height="48" fill="currentColor"/>
</clipPath>
</defs>
</svg>
