<svg width="48" height="48" viewBox="0 0 48 48" fill="none" xmlns="http://www.w3.org/2000/svg">
<g clip-path="url(#clip0_4_739)">
<path d="M36 16.5001C33.518 16.5001 31.5 14.4821 31.5 12.0001V1.49414C31.5 0.666141 32.172 -0.00585938 33 -0.00585938C33.828 -0.00585938 34.5 0.666141 34.5 1.49414V12.0001C34.5 12.8281 35.172 13.5001 36 13.5001H46.5C47.328 13.5001 48 14.1741 48 15.0001C48 15.8261 47.328 16.5001 46.5 16.5001H36Z" fill="currentColor"/>
<path d="M33 48C32.172 48 31.5 47.328 31.5 46.5V36C31.5 33.518 33.518 31.5 36 31.5H46.502C47.33 31.5 48.002 32.172 48.002 33C48.002 33.828 47.33 34.5 46.502 34.5H36C35.172 34.5 34.5 35.172 34.5 36V46.5C34.5 47.328 33.828 48 33 48Z" fill="currentColor"/>
<path d="M15 47.994C14.172 47.994 13.5 47.322 13.5 46.494V36C13.5 35.172 12.828 34.5 12 34.5H1.50195C0.673953 34.5 0.00195312 33.828 0.00195312 33C0.00195312 32.172 0.673953 31.5 1.50195 31.5H12C14.482 31.5 16.5 33.518 16.5 36V46.494C16.5 47.322 15.828 47.994 15 47.994Z" fill="currentColor"/>
<path d="M1.50195 16.5001C0.673953 16.5001 0.00195312 15.8281 0.00195312 15.0001C0.00195312 14.1721 0.673953 13.5001 1.50195 13.5001H12C12.828 13.5001 13.5 12.8281 13.5 12.0001V1.49414C13.5 0.666141 14.172 -0.00585938 15 -0.00585938C15.828 -0.00585938 16.5 0.666141 16.5 1.49414V12.0001C16.5 14.4821 14.482 16.5001 12 16.5001H1.50195Z" fill="currentColor"/>
</g>
<defs>
<clipPath id="clip0_4_739">
<rect width="48" height="48" fill="currentColor"/>
</clipPath>
</defs>
</svg>
