<svg width="12" height="12" viewBox="0 0 12 12" fill="none" xmlns="http://www.w3.org/2000/svg">
<g id="sound_balloon" clip-path="url(#clip0_8152_77828)">
<path id="Vector" d="M2.625 12C2.567 12 2.509 11.9865 2.457 11.9605C2.3295 11.8965 2.25 11.768 2.25 11.625V9.75H1.125C0.5045 9.75 0 9.2455 0 8.625V1.125C0 0.5045 0.5045 0 1.125 0H10.875C11.4955 0 12 0.5045 12 1.125V8.625C12 9.2455 11.4955 9.75 10.875 9.75H5.75L2.85 11.925C2.7855 11.9735 2.7055 12 2.625 12ZM1.125 0.75C0.918 0.75 0.75 0.918 0.75 1.125V8.625C0.75 8.832 0.918 9 1.125 9H2.625C2.832 9 3 9.168 3 9.375V10.875L5.4 9.075C5.4645 9.0265 5.5445 9 5.625 9H10.875C11.082 9 11.25 8.832 11.25 8.625V1.125C11.25 0.918 11.082 0.75 10.875 0.75H1.125Z" fill="currentColor"/>
<path id="Line 4 (Stroke)" fill-rule="evenodd" clip-rule="evenodd" d="M3.25 5.5C2.83579 5.5 2.5 5.16421 2.5 4.75C2.5 4.33579 2.83579 4 3.25 4C3.66421 4 4 4.33579 4 4.75C4 5.16421 3.66421 5.5 3.25 5.5Z" fill="currentColor"/>
<path id="Line 4 (Stroke)_2" fill-rule="evenodd" clip-rule="evenodd" d="M6 5.5C5.58579 5.5 5.25 5.16421 5.25 4.75C5.25 4.33579 5.58579 4 6 4C6.41421 4 6.75 4.33579 6.75 4.75C6.75 5.16421 6.41421 5.5 6 5.5Z" fill="currentColor"/>
<path id="Line 4 (Stroke)_3" fill-rule="evenodd" clip-rule="evenodd" d="M8.75 5.5C8.33579 5.5 8 5.16421 8 4.75C8 4.33579 8.33579 4 8.75 4C9.16421 4 9.5 4.33579 9.5 4.75C9.5 5.16421 9.16421 5.5 8.75 5.5Z" fill="currentColor"/>
</g>
<defs>
<clipPath id="clip0_8152_77828">
<rect width="12" height="12" fill="white"/>
</clipPath>
</defs>
</svg>
