<svg width="48" height="48" viewBox="0 0 48 48" fill="none" xmlns="http://www.w3.org/2000/svg">
<path fill-rule="evenodd" clip-rule="evenodd" d="M14 0H42C44.2091 0 46 1.79086 46 4V38C46 40.2091 44.2091 42 42 42H38V44C38 46.2091 36.2091 48 34 48H6C3.79087 48 2 46.2091 2 44V10C2 7.79086 3.79086 6 6 6H10V4C10 1.79086 11.7909 0 14 0ZM13 6H34C36.2091 6 38 7.79086 38 10V39H42C42.5523 39 43 38.5523 43 38V4C43 3.44772 42.5523 3 42 3H14C13.4477 3 13 3.44772 13 4V6ZM5 10C5 9.44772 5.44772 9 6 9H34C34.5523 9 35 9.44772 35 10V44C35 44.5523 34.5523 45 34 45H6C5.44772 45 5 44.5523 5 44V10Z" fill="currentColor"/>
</svg>
