<svg width="48" height="48" viewBox="0 0 48 48" fill="none" xmlns="http://www.w3.org/2000/svg">
<path d="M34.5 48C27.056 48 21 41.944 21 34.5C21 27.056 27.056 21 34.5 21C41.944 21 48 27.056 48 34.5C48 41.944 41.944 48 34.5 48ZM34.5 24C28.71 24 24 28.71 24 34.5C24 40.29 28.71 45 34.5 45C40.29 45 45 40.29 45 34.5C45 28.71 40.29 24 34.5 24Z" fill="currentColor"/>
<path d="M34.5 42C33.672 42 33 41.328 33 40.5V36H28.5C27.672 36 27 35.328 27 34.5C27 33.672 27.672 33 28.5 33H33V28.5C33 27.672 33.672 27 34.5 27C35.328 27 36 27.672 36 28.5V33H40.5C41.328 33 42 33.672 42 34.5C42 35.328 41.328 36 40.5 36H36V40.5C36 41.328 35.328 42 34.5 42Z" fill="currentColor"/>
<path d="M32 0H4C1.79086 0 0 1.79086 0 4V32C0 34.2091 1.79086 36 4 36H16.5C17.3284 36 18 35.3284 18 34.5C18 33.6716 17.3284 33 16.5 33H4C3.44772 33 3 32.5523 3 32V4C3 3.44772 3.44772 3 4 3H32C32.5523 3 33 3.44772 33 4V16.5C33 17.3284 33.6716 18 34.5 18C35.3284 18 36 17.3284 36 16.5V4C36 1.79086 34.2091 0 32 0Z" fill="currentColor"/>
<path fill-rule="evenodd" clip-rule="evenodd" d="M30 9.5C30 10.3284 29.3284 11 28.5 11H7.5C6.67157 11 6 10.3284 6 9.5C6 8.67157 6.67157 8 7.5 8H28.5C29.3284 8 30 8.67157 30 9.5Z" fill="currentColor"/>
</svg>
