<svg width="17" height="20" viewBox="0 0 17 20" fill="none" xmlns="http://www.w3.org/2000/svg">
	<path d="M8.5 19V11M8.5 19L2.33752 14.5982C1.92695 14.305 1.72166 14.1583 1.61083 13.943C1.5 13.7276 1.5 13.4753 1.5 12.9708V6M8.5 19L14.6625 14.5982C15.073 14.305 15.2783 14.1583 15.3892 13.943C15.5 13.7276 15.5 13.4753 15.5 12.9708V6M8.5 11L1.5 6M8.5 11L15.5 6M1.5 6L7.33752 1.83034C7.89886 1.42938 8.17953 1.2289 8.5 1.2289C8.82047 1.2289 9.10114 1.42938 9.66248 1.83034L15.5 6" stroke="currentcolor" stroke-opacity="0.9" stroke-width="1.3" stroke-linejoin="round"/>
</svg>
