<svg width="20" height="15" viewBox="0 0 20 15" fill="none" xmlns="http://www.w3.org/2000/svg">
    <path d="M14.7603 14.6431C14.7603 14.6431 14.1439 13.9119 13.6301 13.2656C15.8733 12.6364 16.7294 11.2418 16.7294 11.2418C16.0274 11.701 15.3596 12.0241 14.7603 12.2452C13.9041 12.6024 13.0822 12.8404 12.2774 12.9765C10.6336 13.2826 9.12671 13.1976 7.8425 12.9595C6.86644 12.7724 6.0274 12.5003 5.32534 12.2282C4.93151 12.0751 4.50342 11.8881 4.07534 11.65C4.02397 11.6159 3.9726 11.5989 3.92124 11.5649C3.88699 11.5479 3.86986 11.5309 3.85274 11.5139C3.54452 11.3439 3.37329 11.2248 3.37329 11.2248C3.37329 11.2248 4.19521 12.5854 6.36986 13.2316C5.85616 13.8779 5.2226 14.6431 5.2226 14.6431C1.43836 14.5241 0 12.0581 0 12.0581C0 6.58199 2.46575 2.14326 2.46575 2.14326C4.93151 0.306543 7.27743 0.357563 7.27743 0.357563L7.44864 0.561643C4.36644 1.44599 2.94521 2.78951 2.94521 2.78951C2.94521 2.78951 3.32191 2.58543 3.95548 2.29632C5.78767 1.49701 7.24314 1.27592 7.8425 1.2249C7.94521 1.20789 8.03086 1.19089 8.13357 1.19089C9.17807 1.05484 10.3596 1.02082 11.5925 1.15687C13.2191 1.34395 14.9658 1.82014 16.7466 2.78951C16.7466 2.78951 15.3939 1.51401 12.4829 0.629669L12.7226 0.357563C12.7226 0.357563 15.0685 0.306543 17.5342 2.14326C17.5342 2.14326 20 6.58199 20 12.0581C20 12.0581 18.5445 14.5241 14.7603 14.6431ZM6.79794 6.70104C5.82191 6.70104 5.05137 7.55135 5.05137 8.58878C5.05137 9.62621 5.83904 10.4765 6.79794 10.4765C7.774 10.4765 8.5445 9.62621 8.5445 8.58878C8.56164 7.55135 7.774 6.70104 6.79794 6.70104ZM13.0479 6.70104C12.0719 6.70104 11.3014 7.55135 11.3014 8.58878C11.3014 9.62621 12.0891 10.4765 13.0479 10.4765C14.024 10.4765 14.7945 9.62621 14.7945 8.58878C14.7945 7.55135 14.024 6.70104 13.0479 6.70104Z" fill="currentColor"/>
</svg>
