<svg width="24" height="24" viewBox="0 0 24 24" fill="none" xmlns="http://www.w3.org/2000/svg">
<g id="arrow-right">
<path id="Union" fill-rule="evenodd" clip-rule="evenodd" d="M3.32144 12.824C3.11405 12.603 3 12.3098 3 12C3 11.6898 3.11392 11.3956 3.32252 11.1748L9.88796 4.20324C10.0098 4.07312 10.1752 4 10.3501 4C10.5255 4 10.6897 4.07312 10.8116 4.20252C10.934 4.33164 11 4.50365 11 4.68293C11 4.86273 10.9336 5.0338 10.8119 5.16311L4.3739 12L10.8114 18.8364C10.9337 18.9655 11 19.1378 11 19.3171C11 19.4968 10.9337 19.6677 10.8121 19.797C10.6903 19.9272 10.5251 20 10.3501 20C10.1742 20 10.0099 19.9269 9.88781 19.7973L3.32144 12.824Z" fill="currentColor"/>
<path id="Union_2" fill-rule="evenodd" clip-rule="evenodd" d="M20.6786 12.824C20.8859 12.603 21 12.3098 21 12C21 11.6898 20.8861 11.3956 20.6775 11.1748L14.112 4.20324C13.9902 4.07312 13.8248 4 13.6499 4C13.4745 4 13.3103 4.07312 13.1884 4.20252C13.066 4.33164 13 4.50365 13 4.68293C13 4.86273 13.0664 5.0338 13.1881 5.16311L19.6261 12L13.1886 18.8364C13.0663 18.9655 13 19.1378 13 19.3171C13 19.4968 13.0663 19.6677 13.1879 19.797C13.3097 19.9272 13.4749 20 13.6499 20C13.8258 20 13.9901 19.9269 14.1122 19.7973L20.6786 12.824Z" fill="currentColor"/>
<path id="Union_3" fill-rule="evenodd" clip-rule="evenodd" d="M12.75 15.3333L12.75 8.66667C12.75 8.29848 12.4142 8 12 8C11.5858 8 11.25 8.29848 11.25 8.66667L11.25 15.3333C11.25 15.7015 11.5858 16 12 16C12.4142 16 12.75 15.7015 12.75 15.3333Z" fill="currentColor"/>
</g>
</svg>
