<svg width="24" height="24" viewBox="0 0 24 24" fill="none" xmlns="http://www.w3.org/2000/svg">
<g id="arrow-right">
<path id="Union" fill-rule="evenodd" clip-rule="evenodd" d="M0.321438 12.824C0.114052 12.603 0 12.3098 0 12C0 11.6898 0.113915 11.3956 0.322519 11.1748L6.88796 4.20324C7.00978 4.07312 7.17519 4 7.35014 4C7.52551 4 7.68968 4.07312 7.81165 4.20252C7.93397 4.33164 8 4.50365 8 4.68293C8 4.86273 7.93363 5.0338 7.81186 5.16311L1.3739 12L7.81139 18.8364C7.93371 18.9655 8 19.1378 8 19.3171C8 19.4968 7.93371 19.6677 7.81209 19.797C7.69027 19.9272 7.52511 20 7.35014 20C7.17419 20 7.0099 19.9269 6.88781 19.7973L0.321438 12.824Z" fill="currentColor"/>
<path id="Union_2" fill-rule="evenodd" clip-rule="evenodd" d="M23.6786 12.824C23.8859 12.603 24 12.3098 24 12C24 11.6898 23.8861 11.3956 23.6775 11.1748L17.112 4.20324C16.9902 4.07312 16.8248 4 16.6499 4C16.4745 4 16.3103 4.07312 16.1884 4.20252C16.066 4.33164 16 4.50365 16 4.68293C16 4.86273 16.0664 5.0338 16.1881 5.16311L22.6261 12L16.1886 18.8364C16.0663 18.9655 16 19.1378 16 19.3171C16 19.4968 16.0663 19.6677 16.1879 19.797C16.3097 19.9272 16.4749 20 16.6499 20C16.8258 20 16.9901 19.9269 17.1122 19.7973L23.6786 12.824Z" fill="currentColor"/>
<path id="Union_3" fill-rule="evenodd" clip-rule="evenodd" d="M17.25 15.3333V8.66667C17.25 8.29848 16.9142 8 16.5 8C16.0858 8 15.75 8.29848 15.75 8.66667L15.75 15.3333C15.75 15.7015 16.0858 16 16.5 16C16.9142 16 17.25 15.7015 17.25 15.3333Z" fill="currentColor"/>
<path id="Union_4" fill-rule="evenodd" clip-rule="evenodd" d="M14.25 15.3333L14.25 8.66667C14.25 8.29848 13.9142 8 13.5 8C13.0858 8 12.75 8.29848 12.75 8.66667L12.75 15.3333C12.75 15.7015 13.0858 16 13.5 16C13.9142 16 14.25 15.7015 14.25 15.3333Z" fill="currentColor"/>
<path id="Union_5" fill-rule="evenodd" clip-rule="evenodd" d="M11.25 15.3333L11.25 8.66667C11.25 8.29848 10.9142 8 10.5 8C10.0858 8 9.75 8.29848 9.75 8.66667L9.75 15.3333C9.75 15.7015 10.0858 16 10.5 16C10.9142 16 11.25 15.7015 11.25 15.3333Z" fill="currentColor"/>
<path id="Union_6" fill-rule="evenodd" clip-rule="evenodd" d="M8.25 15.3333L8.25 8.66667C8.25 8.29848 7.91421 8 7.5 8C7.08579 8 6.75 8.29848 6.75 8.66667L6.75 15.3333C6.75 15.7015 7.08579 16 7.5 16C7.91421 16 8.25 15.7015 8.25 15.3333Z" fill="currentColor"/>
</g>
</svg>
