<svg width="48" height="48" viewBox="0 0 48 48" fill="none" xmlns="http://www.w3.org/2000/svg">
<g clip-path="url(#clip0_4_1029)">
<path d="M4.5 48C2.018 48 0 45.982 0 43.5V4.5C0 2.018 2.018 0 4.5 0H43.5C45.982 0 48 2.018 48 4.5V27.258C48 27.892 47.868 28.508 47.608 29.09C47.604 29.1 47.59 29.126 47.586 29.136C47.368 29.614 47.062 30.058 46.684 30.436L30.438 46.68C30.058 47.06 29.616 47.366 29.12 47.592C29.108 47.598 29.068 47.616 29.056 47.62C28.508 47.868 27.892 48 27.258 48H4.5ZM4.5 3C3.672 3 3 3.672 3 4.5V43.5C3 44.328 3.672 45 4.5 45H27V31.5C27 29.018 29.018 27 31.5 27H45V4.5C45 3.672 44.328 3 43.5 3H4.5ZM31.5 30C30.672 30 30 30.672 30 31.5V42.878L42.878 30H31.5Z" fill="currentColor"/>
<path d="M13.5 15C12.672 15 12 14.328 12 13.5C12 12.672 12.672 12 13.5 12H37.5C38.328 12 39 12.672 39 13.5C39 14.328 38.328 15 37.5 15H13.5Z" fill="currentColor"/>
<path d="M13.5 24C12.672 24 12 23.328 12 22.5C12 21.672 12.672 21 13.5 21H24C24.828 21 25.5 21.672 25.5 22.5C25.5 23.328 24.828 24 24 24H13.5Z" fill="currentColor"/>
</g>
<defs>
<clipPath id="clip0_4_1029">
<rect width="48" height="48" fill="currentColor"/>
</clipPath>
</defs>
</svg>
