<svg width="21" height="16" viewBox="0 0 21 16" fill="none" xmlns="http://www.w3.org/2000/svg">
<path fill-rule="evenodd" clip-rule="evenodd" d="M0.666984 4.6507C0.666504 4.81908 0.666504 4.99544 0.666504 5.18025V11.6373C0.666504 13.6576 0.666504 14.6678 1.29413 15.2954C1.92176 15.923 2.93191 15.923 4.95222 15.923H16.3808C18.4011 15.923 19.4112 15.923 20.0389 15.2954C20.6665 14.6678 20.6665 13.6576 20.6665 11.6373V5.18025C20.6665 4.99544 20.6665 4.81908 20.666 4.6507C20.6613 2.97833 20.6091 2.09238 20.0389 1.52216C19.4112 0.894531 18.4011 0.894531 16.3808 0.894531H4.95222C2.93191 0.894531 1.92176 0.894531 1.29413 1.52216C0.723917 2.09237 0.671756 2.97833 0.666984 4.6507ZM19.5943 4.58961C19.5915 3.87363 19.5793 3.3665 19.5262 2.97171C19.4637 2.50699 19.3628 2.36134 19.2813 2.27977C19.1997 2.19821 19.054 2.09734 18.5893 2.03486C18.0938 1.96824 17.4212 1.96596 16.3808 1.96596H4.95222C3.91178 1.96596 3.23923 1.96824 2.74369 2.03486C2.27897 2.09734 2.13331 2.19821 2.05175 2.27977C1.97019 2.36134 1.86931 2.50699 1.80683 2.97172C1.75375 3.3665 1.74152 3.87363 1.73874 4.58961L9.94668 8.70138C10.3997 8.92834 10.9333 8.92834 11.3863 8.70138L19.5943 4.58961ZM1.73793 5.78756V11.6373C1.73793 12.6778 1.74021 13.3503 1.80683 13.8458C1.86931 14.3106 1.97019 14.4562 2.05175 14.5378C2.13331 14.6193 2.27897 14.7202 2.74369 14.7827C3.23923 14.8493 3.91178 14.8516 4.95222 14.8516H16.3808C17.4212 14.8516 18.0938 14.8493 18.5893 14.7827C19.054 14.7202 19.1997 14.6193 19.2813 14.5378C19.3628 14.4562 19.4637 14.3106 19.5262 13.8458C19.5928 13.3503 19.5951 12.6777 19.5951 11.6373V5.78756L11.8662 9.65933C11.1111 10.0376 10.2219 10.0376 9.46679 9.65933L1.73793 5.78756Z" fill="currentColor"/>
</svg>
