<svg width="48" height="48" viewBox="0 0 48 48" fill="none" xmlns="http://www.w3.org/2000/svg">
<path fill-rule="evenodd" clip-rule="evenodd" d="M43.5 38H23.5V38H6.12132L13.1066 44.9852C13.6924 45.571 13.6924 46.5208 13.1066 47.1066C12.5208 47.6923 11.5711 47.6923 10.9853 47.1066L1.43934 37.5606C0.853554 36.9748 0.853554 36.0251 1.43934 35.4393L10.9853 25.8934C11.5711 25.3076 12.5208 25.3076 13.1066 25.8934C13.6924 26.4791 13.6924 27.4289 13.1066 28.0147L6.12132 35H42.5V35H43.5C44.0523 35 44.5 34.5523 44.5 34V8C44.5 7.44772 44.0523 7 43.5 7H23.5V4H43.5C45.7091 4 47.5 5.79086 47.5 8V34C47.5 36.2091 45.7091 38 43.5 38Z" fill="currentColor"/>
</svg>
