<svg width="24" height="24" viewBox="0 0 24 24" fill="none" xmlns="http://www.w3.org/2000/svg">
<g clip-path="url(#clip0_504_24833)">
<path d="M19.4999 24C19.2249 24 18.9719 23.85 18.8409 23.609L14.6729 15.968C14.5949 16.015 14.5159 16.058 14.4359 16.099C14.1379 16.249 13.8239 16.358 13.4999 16.423V23.25C13.4999 23.664 13.1639 24 12.7499 24C12.3359 24 11.9999 23.664 11.9999 23.25V16.42C11.5859 16.335 11.1899 16.181 10.8279 15.966L6.65792 23.61C6.52692 23.851 6.27392 24 5.99892 24C5.87392 24 5.74892 23.968 5.63992 23.908C5.27792 23.71 5.14392 23.254 5.34092 22.891L9.68992 14.917C9.58092 14.764 9.48392 14.602 9.39992 14.435C9.25792 14.153 9.15292 13.857 9.08692 13.553L5.94092 15.133C5.55692 15.326 5.14592 15.424 4.71992 15.424C4.42892 15.424 4.14092 15.377 3.86192 15.285C3.41792 15.138 3.02692 14.885 2.71492 14.544L1.08492 15.364C0.981922 15.416 0.864922 15.444 0.747922 15.444C0.461922 15.444 0.205922 15.286 0.077922 15.031C-0.012078 14.852 -0.027078 14.649 0.035922 14.459C0.098922 14.269 0.231922 14.115 0.410922 14.025L2.04192 13.205C1.81492 12.02 2.39092 10.821 3.49192 10.267L9.56092 7.22C9.74192 6.432 10.2639 5.759 10.9879 5.395L17.0559 2.349C17.2369 1.56 17.7589 0.887 18.4839 0.523C18.4859 0.522 19.3669 0.079 19.3669 0.079C19.4709 0.027 19.5879 0 19.7039 0C19.7839 0 19.8629 0.013 19.9389 0.038C20.1269 0.1 20.2859 0.238 20.3739 0.414L23.9209 7.472C24.0109 7.651 24.0259 7.854 23.9629 8.044C23.8999 8.234 23.7669 8.388 23.5879 8.478L22.7059 8.921C22.3209 9.114 21.9109 9.212 21.4849 9.212C21.1939 9.212 20.9049 9.165 20.6259 9.073C20.5469 9.047 20.4679 9.016 20.3879 8.981L16.1279 11.121C16.5529 12.002 16.6179 12.995 16.3099 13.925C16.1929 14.279 16.0249 14.611 15.8079 14.916L20.1569 22.89C20.2529 23.066 20.2749 23.269 20.2179 23.461C20.1619 23.653 20.0339 23.812 19.8579 23.908C19.7499 23.969 19.6249 24 19.4999 24ZM11.5419 10.852C10.5779 11.465 10.2259 12.739 10.7399 13.761C11.1239 14.525 11.8959 14.999 12.7539 14.999C13.1059 14.999 13.4449 14.918 13.7609 14.759C14.2969 14.489 14.6959 14.026 14.8849 13.455C15.0739 12.883 15.0289 12.274 14.7599 11.738C14.3749 10.974 13.6029 10.5 12.7459 10.5C12.3929 10.5 12.0539 10.581 11.7369 10.741C11.6769 10.771 11.6199 10.805 11.5639 10.84C11.5569 10.843 11.5499 10.848 11.5419 10.852ZM4.16892 11.606C3.56692 11.911 3.32392 12.645 3.62192 13.245C3.77192 13.543 4.02292 13.76 4.33392 13.863C4.45992 13.904 4.58892 13.925 4.71892 13.925C4.90992 13.925 5.09392 13.881 5.26692 13.794L9.11092 11.863C9.28992 11.129 9.68292 10.47 10.2379 9.968L9.67292 8.842L4.16892 11.606ZM12.7469 9.003C13.6419 9.003 14.5199 9.331 15.1959 9.911L19.1529 7.923L17.1669 3.971L11.6619 6.735C11.0579 7.042 10.8169 7.778 11.1179 8.378C11.1219 8.387 11.1269 8.397 11.1309 8.407L11.5319 9.206C11.9239 9.071 12.3309 9.003 12.7469 9.003ZM19.1579 1.863C18.5539 2.17 18.3119 2.907 18.6139 3.507L20.3879 7.038C20.5969 7.454 21.0169 7.712 21.4839 7.712C21.6749 7.712 21.8589 7.668 22.0309 7.582L22.2429 7.476L19.3699 1.756L19.1579 1.863Z" fill="currentColor"/>
</g>
<defs>
<clipPath id="clip0_504_24833">
<rect width="24" height="24" fill="currentColor"/>
</clipPath>
</defs>
</svg>
