<svg width="48" height="48" viewBox="0 0 48 48" fill="none" xmlns="http://www.w3.org/2000/svg">
<g clip-path="url(#clip0_4_659)">
<path d="M20.5145 43.7023C14.8545 43.7023 9.58246 40.7823 6.54646 36.0223L2.49246 39.4823C2.22246 39.7143 1.87646 39.8423 1.51846 39.8423C1.07846 39.8423 0.662464 39.6503 0.376464 39.3163C0.116464 39.0123 -0.0095359 38.6243 0.0224641 38.2243C0.0544641 37.8243 0.240464 37.4603 0.544464 37.2023L5.13646 33.2843C4.35046 31.3263 3.95046 29.2623 3.95046 27.1403C3.95046 12.5223 15.3705 11.2643 25.4465 10.1563C32.0205 9.43231 38.8165 8.68431 43.4365 4.85031C43.9085 4.49631 44.4265 4.32031 44.9625 4.32031C45.3225 4.32031 45.6705 4.39831 45.9965 4.55431C46.7285 4.85831 47.2905 5.57831 47.4345 6.41631C49.7045 19.7143 45.1005 28.5263 40.8385 33.5783C35.5665 39.8223 27.7785 43.7023 20.5145 43.7023ZM8.85246 34.0543C11.2985 38.1703 15.7125 40.7023 20.5145 40.7023C26.9205 40.7023 33.8285 37.2303 38.5465 31.6383C42.3105 27.1783 46.3625 19.4423 44.6085 7.74431C39.4225 11.6323 32.4905 12.3963 25.7765 13.1363C15.2585 14.2943 6.95246 15.2083 6.95246 27.1383C6.95246 28.5263 7.16246 29.8883 7.57646 31.2003L8.34846 30.5423C13.7065 26.4183 19.6845 23.4403 26.1425 21.6643C26.2725 21.6283 26.4065 21.6103 26.5385 21.6103C27.2125 21.6103 27.8085 22.0643 27.9865 22.7143C28.0925 23.1003 28.0425 23.5043 27.8425 23.8523C27.6425 24.2003 27.3225 24.4503 26.9365 24.5563C20.8545 26.2283 15.2345 29.0263 10.2365 32.8703L8.85246 34.0543Z" fill="currentColor"/>
</g>
<defs>
<clipPath id="clip0_4_659">
<rect width="48" height="48" fill="currentColor"/>
</clipPath>
</defs>
</svg>
