<svg width="48" height="48" viewBox="0 0 48 48" fill="none" xmlns="http://www.w3.org/2000/svg">
<path d="M9.39336 9.39375H11.484C11.4934 6.51562 13.8184 4.18125 16.7059 4.17188H21.9277V14.6063H16.7059C13.8277 14.5969 11.4934 12.2719 11.484 9.38437H9.39336H7.30273C7.30273 14.5687 11.5027 18.7781 16.6965 18.7781H23.9996C24.5527 18.7781 25.0871 18.5531 25.4715 18.1688C25.8559 17.7844 26.0809 17.2406 26.0809 16.6969V2.09062C26.0809 1.5375 25.8559 1.00312 25.4715 0.61875C25.0871 0.234375 24.5527 0 23.9996 0H16.6965C11.5121 0 7.30273 4.2 7.30273 9.39375H9.39336Z" fill="currentColor"/>
<path d="M24.0008 2.09062V4.18125H31.3039C34.182 4.19062 36.5164 6.51563 36.5258 9.40313C36.5164 12.2812 34.1914 14.6156 31.3039 14.625H26.082V2.09062H24.0008V4.18125V2.09062H21.9102V16.6969C21.9102 17.25 22.1352 17.7844 22.5195 18.1688C22.9039 18.5531 23.4477 18.7781 23.9914 18.7781H31.2945C36.4789 18.7781 40.6883 14.5781 40.6883 9.38437C40.6977 4.2 36.4883 0 31.3039 0H24.0008C23.4477 0 22.9133 0.225 22.5289 0.609375C22.1445 0.99375 21.9195 1.5375 21.9195 2.08125H24.0008V2.09062Z" fill="currentColor"/>
<path d="M24.0008 23.9992H26.0914C26.1008 21.1211 28.4258 18.7867 31.3133 18.7773C34.1914 18.7867 36.5258 21.1117 36.5351 23.9992C36.5258 26.8773 34.2008 29.2117 31.3133 29.2211C28.4352 29.2117 26.1008 26.8867 26.0914 23.9992H24.0008H21.9102C21.9102 29.1836 26.1102 33.393 31.3039 33.393C36.4883 33.393 40.6976 29.193 40.6976 23.9992C40.6976 18.8148 36.4976 14.6055 31.3039 14.6055C26.1195 14.6055 21.9102 18.8055 21.9102 23.9992H24.0008Z" fill="currentColor"/>
<path d="M9.39336 38.607H11.484C11.4934 35.7289 13.8184 33.3945 16.7059 33.3852H21.9277V38.607C21.9184 41.4852 19.5934 43.8195 16.7059 43.8289C13.8277 43.8195 11.4934 41.4945 11.484 38.607H9.39336H7.30273C7.30273 43.7914 11.5027 48.0008 16.6965 48.0008C21.8809 48.0008 26.0902 43.8008 26.0902 38.607V31.3039C26.0902 30.7508 25.8652 30.2164 25.4809 29.832C25.0965 29.4477 24.5527 29.2227 24.009 29.2227H16.7059C11.5215 29.2227 7.31211 33.4227 7.31211 38.6164H9.39336V38.607Z" fill="currentColor"/>
<path d="M9.39336 23.9996H11.484C11.4934 21.1215 13.8184 18.7871 16.7059 18.7777H21.9277V29.2121H16.7059C13.8277 29.2027 11.4934 26.8777 11.484 23.9902H9.39336H7.30273C7.30273 29.1746 11.5027 33.384 16.6965 33.384H23.9996C24.5527 33.384 25.0871 33.159 25.4715 32.7746C25.8559 32.3902 26.0809 31.8465 26.0809 31.3027V16.6965C26.0809 16.1434 25.8559 15.609 25.4715 15.2246C25.0871 14.8402 24.5434 14.6152 23.9996 14.6152H16.6965C11.5121 14.6152 7.30273 18.8152 7.30273 24.009H9.39336V23.9996Z" fill="currentColor"/>
</svg>
