<svg width="48" height="48" viewBox="0 0 48 48" fill="none" xmlns="http://www.w3.org/2000/svg">
<path d="M6 46.5C3.518 46.5 1.5 44.482 1.5 42V33C1.5 30.518 3.518 28.5 6 28.5H13.664C14.2 28.5 14.7 28.79 14.966 29.256C15.888 30.87 17.228 32.212 18.842 33.132C20.408 34.026 22.186 34.5 23.982 34.5C27.72 34.5 31.188 32.49 33.034 29.256C33.302 28.79 33.8 28.5 34.336 28.5H42C44.482 28.5 46.5 30.518 46.5 33V42C46.5 44.482 44.482 46.5 42 46.5H6ZM6 31.5C5.172 31.5 4.5 32.172 4.5 33V42C4.5 42.828 5.172 43.5 6 43.5H42C42.828 43.5 43.5 42.828 43.5 42V33C43.5 32.172 42.828 31.5 42 31.5H35.174C32.686 35.264 28.534 37.498 23.98 37.498C21.664 37.498 19.374 36.89 17.356 35.738C15.54 34.702 13.982 33.242 12.828 31.5H6Z" fill="currentColor"/>
<path d="M23.9999 25.5C23.8539 25.5 23.7079 25.476 23.5559 25.43C23.5359 25.424 23.4819 25.406 23.4639 25.398C23.3599 25.36 23.2439 25.298 23.1339 25.222C23.1179 25.212 23.1019 25.202 23.0879 25.19L15.5619 19.172C14.9159 18.654 14.8119 17.708 15.3279 17.062C15.6159 16.706 16.0419 16.5 16.4999 16.5C16.8379 16.5 17.1719 16.616 17.4359 16.828L22.4999 20.878V3C22.4999 2.172 23.1719 1.5 23.9999 1.5C24.8279 1.5 25.4999 2.172 25.4999 3V20.878L30.5619 16.828C30.8279 16.616 31.1599 16.5 31.4999 16.5C31.9579 16.5 32.3859 16.706 32.6719 17.062C33.1879 17.708 33.0839 18.654 32.4379 19.17L24.9379 25.17C24.9179 25.186 24.8959 25.202 24.8719 25.218C24.7679 25.294 24.6439 25.358 24.5159 25.406C24.4999 25.412 24.4599 25.426 24.4459 25.43C24.2919 25.476 24.1459 25.5 23.9999 25.5Z" fill="currentColor"/>
</svg>
