<svg width="16" height="16" viewBox="0 0 16 16" fill="none" xmlns="http://www.w3.org/2000/svg">
    <path d="M3.82964 12.1164C3.71277 12.1164 3.60089 12.0733 3.51402 11.9946C2.24277 10.8377 1.49902 9.25457 1.41839 7.53832C1.33777 5.82144 1.93089 4.17582 3.08777 2.9052C4.30964 1.56332 6.04027 0.793945 7.83589 0.793945C8.94402 0.793945 10.0453 1.08645 11.0215 1.6402C11.1303 1.70207 11.209 1.8027 11.2421 1.92332C11.2753 2.04395 11.2596 2.17082 11.1978 2.27957C11.1146 2.42582 10.9584 2.51707 10.7896 2.51707C10.709 2.51707 10.629 2.49582 10.5584 2.45582C9.72402 1.98207 8.78277 1.73207 7.83652 1.73207C6.30339 1.73207 4.82527 2.38957 3.78089 3.53645C2.79277 4.62144 2.28652 6.02769 2.35527 7.49394C2.42402 8.96082 3.05964 10.3127 4.14589 11.3008C4.23839 11.3852 4.29277 11.5002 4.29839 11.6258C4.30402 11.7508 4.26089 11.8708 4.17652 11.9633C4.08777 12.0608 3.96152 12.1164 3.82964 12.1164Z" fill="currentColor"/>
    <path d="M1.75898 15.0723C1.36898 15.0723 1.05336 14.9555 0.822734 14.7242C0.229609 14.1298 0.400234 13.0023 1.33086 11.373C1.41398 11.2273 1.57023 11.1367 1.73836 11.1367C1.81961 11.1367 1.89961 11.158 1.97023 11.198C2.19523 11.3267 2.27336 11.6136 2.14523 11.8373C1.28586 13.3423 1.37836 13.953 1.48648 14.0611C1.53086 14.1055 1.62586 14.1298 1.75461 14.1298C2.39336 14.1298 3.81836 13.5411 5.90211 11.8886C5.98461 11.823 6.08836 11.7873 6.19336 11.7873C6.33774 11.7873 6.47148 11.8523 6.56086 11.9648C6.72149 12.1667 6.68711 12.4623 6.48524 12.623C5.55649 13.3592 3.23773 15.0711 1.76148 15.0717H1.75898V15.0723Z" fill="currentColor"/>
    <path d="M9.74824 14.2681C9.63512 14.2681 9.52137 14.2412 9.41949 14.1894C9.24512 14.1019 9.11512 13.9512 9.05324 13.765L8.47824 12.0381L6.39699 9.95687L4.66949 9.38187C4.28699 9.25562 4.07824 8.84062 4.20512 8.45687C4.24137 8.34812 4.30324 8.24812 4.38387 8.1675L5.02199 7.52937C5.51074 7.04062 6.15762 6.77125 6.84262 6.77125C7.12137 6.77125 7.39824 6.81625 7.66512 6.90562L8.38887 7.14625L11.292 4.24312C11.7576 3.7775 12.342 3.4475 12.9807 3.28875L14.2589 2.9675C14.3382 2.9475 14.4195 2.9375 14.5007 2.9375C14.9589 2.9375 15.3564 3.24812 15.467 3.69312C15.5057 3.85062 15.5064 4.01687 15.467 4.17437L15.1464 5.45562C14.987 6.09437 14.6564 6.67812 14.1907 7.14375L11.2882 10.0469L11.5289 10.7712C11.8401 11.7056 11.6014 12.7181 10.9051 13.4144L10.2664 14.0531C10.1857 14.1337 10.0857 14.1956 9.97762 14.2312C9.90387 14.2556 9.82637 14.2681 9.74824 14.2681ZM9.83762 13.1537L10.2439 12.7506C10.687 12.3075 10.8389 11.6625 10.6407 11.0675L10.5476 10.7881L9.42387 11.9119L9.83762 13.1537ZM8.88824 11.1219L10.4214 9.5875C10.4251 9.58375 10.4289 9.58062 10.4326 9.57687L13.5289 6.48C13.8745 6.13437 14.1195 5.70125 14.2382 5.22812L14.5582 3.94812C14.5601 3.93937 14.5601 3.92875 14.5582 3.92C14.5507 3.89125 14.5239 3.87562 14.5007 3.87562C14.4957 3.87562 14.4914 3.87625 14.4864 3.8775L13.2089 4.19812C12.7339 4.31625 12.3007 4.56125 11.9557 4.90625L8.86637 7.99562C8.86137 8.00187 8.85637 8.0075 8.85199 8.01187L7.31449 9.54812L8.88824 11.1219ZM6.52387 9.01125L7.64762 7.8875L7.36949 7.795C7.19824 7.73812 7.02199 7.70937 6.84449 7.70937C6.40824 7.70937 5.99699 7.88125 5.68512 8.1925L5.28012 8.5975L6.52387 9.01125Z" fill="currentColor"/>
</svg>