<svg width="48" height="48" viewBox="0 0 48 48" fill="none" xmlns="http://www.w3.org/2000/svg">
<path fill-rule="evenodd" clip-rule="evenodd" d="M27.5122 32C26.7874 32 26.1682 32.516 26.0083 33.223C25.4564 35.6617 24.6984 37.8291 23.7986 39.6289C21.7869 43.6532 19.5626 45 17.9977 45C16.4328 45 14.2086 43.6532 12.1968 39.6289C10.2748 35.7841 8.99943 30.2627 8.99943 24C8.99943 17.7373 10.2748 12.2159 12.1968 8.37108C14.2086 4.34685 16.4328 3 17.9977 3C19.5626 3 21.7869 4.34685 23.7986 8.37108C24.6984 10.1709 25.4564 12.3383 26.0083 14.777C26.1682 15.484 26.7874 16 27.5122 16C28.4515 16 29.1649 15.1507 28.9605 14.234C27.0904 5.84643 22.8854 0 17.9977 0C11.3716 0 6 10.7452 6 24C6 37.2548 11.3716 48 17.9977 48C22.8854 48 27.0904 42.1536 28.9605 33.766C29.1649 32.8493 28.4515 32 27.5122 32Z" fill="currentColor"/>
<path d="M18.1083 31C17.3709 31 16.7388 31.5172 16.5538 32.231C16.1056 33.9601 15.526 35.5016 14.8554 36.8005C13.1516 40.1009 11.3709 41 10.325 41C9.27917 41 7.49846 40.1009 5.79463 36.8005C4.18344 33.6796 3.09751 29.1581 3.09751 24C3.09751 18.8419 4.18344 14.3204 5.79463 11.1995C7.49846 7.89913 9.27917 7 10.325 7C11.3709 7 13.1516 7.89913 14.8554 11.1995C15.526 12.4984 16.1056 14.0399 16.5538 15.769C16.7388 16.4828 17.3709 17 18.1083 17C19.0894 17 19.83 16.1035 19.5875 15.1528C17.9021 8.54482 14.3876 4 10.325 4C4.62268 4 0 12.9543 0 24C0 35.0457 4.62268 44 10.325 44C14.3876 44 17.9021 39.4552 19.5875 32.8472C19.83 31.8965 19.0894 31 18.1083 31Z" fill="currentColor"/>
<path fill-rule="evenodd" clip-rule="evenodd" d="M37.8562 13.3916L47.5537 22.8979C48.1488 23.4812 48.1488 24.427 47.5537 25.0103L37.8562 34.5166C37.2611 35.0999 36.2963 35.0999 35.7012 34.5166C35.1061 33.9332 35.1061 32.9874 35.7012 32.4041L42.7974 25.4479H6V22.4603H42.7974L35.7012 15.5041C35.1061 14.9208 35.1061 13.975 35.7012 13.3916C36.2963 12.8083 37.2611 12.8083 37.8562 13.3916Z" fill="currentColor"/>
</svg>
