<svg width="35" height="29" viewBox="0 0 35 29" fill="none" xmlns="http://www.w3.org/2000/svg">
    <path d="M6.5891 22.2524C6.3594 22.2524 6.13953 22.1677 5.9688 22.0129C3.47037 19.7393 2.00866 16.6279 1.85021 13.2549C1.69175 9.88068 2.85744 6.64649 5.13107 4.1493C7.53246 1.51207 10.9337 0 14.4627 0C16.6405 0 18.8048 0.574858 20.7235 1.66316C20.9372 1.78476 21.092 1.98252 21.1571 2.21959C21.2222 2.45666 21.1915 2.70601 21.0699 2.91974C20.9065 3.20717 20.5994 3.38651 20.2678 3.38651C20.1093 3.38651 19.9521 3.34474 19.8133 3.26613C18.1735 2.33506 16.3236 1.84372 14.4639 1.84372C11.4508 1.84372 8.54583 3.13593 6.49329 5.38991C4.5513 7.52229 3.55636 10.286 3.69147 13.1677C3.82659 16.0506 5.0758 18.7075 7.21064 20.6495C7.39243 20.8153 7.4993 21.0413 7.51035 21.2882C7.5214 21.5339 7.43665 21.7697 7.27083 21.9515C7.0964 22.1431 6.84828 22.2524 6.5891 22.2524Z" fill="currentColor"/>
    <path d="M2.51942 28.0644C1.75294 28.0644 1.13264 27.8347 0.679382 27.3802C-0.486303 26.2121 -0.150969 23.9962 1.67801 20.7939C1.84138 20.5077 2.14846 20.3296 2.47888 20.3296C2.63857 20.3296 2.79579 20.3714 2.9346 20.45C3.37679 20.703 3.53034 21.2668 3.27853 21.7065C1.58957 24.6644 1.77137 25.8644 1.98387 26.0769C2.07108 26.1642 2.25779 26.2121 2.51082 26.2121C3.76617 26.2121 6.56677 25.055 10.662 21.8073C10.8242 21.6783 11.0281 21.6083 11.2344 21.6083C11.5182 21.6083 11.781 21.736 11.9567 21.9571C12.2724 22.3539 12.2048 22.9349 11.8081 23.2506C9.98275 24.6975 5.42565 28.0619 2.52433 28.0632H2.51942V28.0644Z" fill="currentColor"/>
    <path d="M21.4903 11.1833C20.5027 10.1956 20.5027 8.58815 21.4903 7.60049C22.478 6.61283 24.0855 6.61283 25.0731 7.60049C26.0608 8.58815 26.0608 10.1956 25.0731 11.1833C24.0855 12.171 22.478 12.171 21.4903 11.1833ZM24.1774 8.49619C23.6836 8.00236 22.8799 8.00236 22.386 8.49619C21.8922 8.99002 21.8922 9.79377 22.386 10.2876C22.8799 10.7814 23.6836 10.7814 24.1774 10.2876C24.6713 9.79377 24.6713 8.99002 24.1774 8.49619Z" fill="currentColor"/>
    <path d="M12.5333 18.3488C12.3082 18.1237 12.2855 17.7642 12.4814 17.5122L15.273 13.9229L14.7726 13.4225C14.5253 13.1752 14.5253 12.774 14.7726 12.5268L16.1161 11.1832C17.5976 9.70171 20.0088 9.70171 21.4903 11.1832C21.7375 11.4304 21.7375 11.8317 21.4903 12.0789C21.2431 12.3261 20.8418 12.3261 20.5946 12.0789C19.607 11.0912 17.9995 11.0912 17.0118 12.0789L16.1161 12.9746L16.564 13.4225C16.7891 13.6476 16.8118 14.0071 16.6159 14.259L13.8243 17.8484L15.2204 19.2445C15.4676 19.4917 15.4676 19.893 15.2204 20.1402C14.9732 20.3874 14.5719 20.3874 14.3247 20.1402L12.5333 18.3488Z" fill="currentColor"/>
    <path d="M26.8647 14.7676C25.6299 13.5327 25.6299 11.5239 26.8647 10.2891C28.0996 9.05419 30.1084 9.05419 31.3433 10.2891C32.5781 11.5239 32.5781 13.5327 31.3433 14.7676C30.1084 16.0025 28.0996 16.0025 26.8647 14.7676ZM30.4476 11.1848C29.7065 10.4437 28.5015 10.4437 27.7604 11.1848C27.0194 11.9258 27.0194 13.1308 27.7604 13.8719C28.5015 14.6129 29.7065 14.6129 30.4476 13.8719C31.1886 13.1308 31.1886 11.9258 30.4476 11.1848Z" fill="currentColor"/>
    <path d="M15.6683 23.2751C15.4372 23.044 15.4187 22.6792 15.6259 22.4266L19.2935 17.9433L18.3554 17.0052C18.1082 16.758 18.1082 16.3567 18.3554 16.1095L19.6989 14.7659C21.6743 12.7906 24.8892 12.7906 26.8645 14.7659C28.8399 16.7412 28.8399 19.9562 26.8645 21.9315L25.521 23.2751C25.2738 23.5223 24.8725 23.5223 24.6253 23.2751L23.6872 22.337L19.2039 26.0046C18.9519 26.2112 18.5865 26.1933 18.3554 25.9622L15.6683 23.2751ZM18.8456 24.661L23.3289 20.9934C23.5809 20.7868 23.9463 20.8047 24.1774 21.0358L25.0731 21.9315L25.9688 21.0358C27.4503 19.5543 27.4503 17.1431 25.9688 15.6616C24.4874 14.1801 22.0761 14.1801 20.5946 15.6616L19.6989 16.5573L20.5946 17.453C20.8257 17.6841 20.8442 18.049 20.637 18.3016L16.9688 22.7842L18.8456 24.661Z" fill="currentColor"/>
</svg>