<svg width="48" height="48" viewBox="0 0 48 48" fill="none" xmlns="http://www.w3.org/2000/svg">
<path fill-rule="evenodd" clip-rule="evenodd" d="M46.334 46.334H29.334V44.334H42.9198L31.2935 32.7078C30.903 32.3172 30.903 31.6841 31.2935 31.2935C31.6841 30.903 32.3172 30.903 32.7078 31.2935L44.334 42.9198V29.334H46.334V46.334Z" fill="currentColor"/>
<path fill-rule="evenodd" clip-rule="evenodd" d="M18.666 46.334H1.66602V29.334H3.66602V42.9198L15.2922 31.2935C15.6828 30.903 16.3159 30.903 16.7065 31.2935C17.097 31.6841 17.097 32.3172 16.7065 32.7078L5.08023 44.334H18.666V46.334Z" fill="currentColor"/>
<path fill-rule="evenodd" clip-rule="evenodd" d="M46.334 18.666H44.334V5.08023L32.7078 16.7065C32.3172 17.097 31.6841 17.097 31.2935 16.7065C30.903 16.3159 30.903 15.6828 31.2935 15.2922L42.9198 3.66602H29.334V1.66602H46.334V18.666Z" fill="currentColor"/>
<path fill-rule="evenodd" clip-rule="evenodd" d="M3.66602 5.08023V18.666H1.66602V1.66602H18.666V3.66602H5.08023L16.7065 15.2922C17.097 15.6828 17.097 16.3159 16.7065 16.7065C16.3159 17.097 15.6828 17.097 15.2922 16.7065L3.66602 5.08023Z" fill="currentColor"/>
</svg>
