<svg width="21" height="21" viewBox="0 0 21 21" fill="none" xmlns="http://www.w3.org/2000/svg">
<path d="M19.3789 7.87506C19.0339 7.87506 18.7539 7.59506 18.7539 7.25006V2.87256C18.7539 2.52756 18.4739 2.24756 18.1289 2.24756H13.7539C13.4089 2.24756 13.1289 1.96756 13.1289 1.62256C13.1289 1.27756 13.4089 0.997559 13.7539 0.997559H18.1289C19.1631 0.997559 20.0039 1.83839 20.0039 2.87256V7.25006C20.0039 7.59506 19.7231 7.87506 19.3789 7.87506Z" fill="currentColor"/>
<path d="M13.7539 20.9976C13.4089 20.9976 13.1289 20.7176 13.1289 20.3726C13.1289 20.0276 13.4089 19.7476 13.7539 19.7476H18.1289C18.4739 19.7476 18.7539 19.4676 18.7539 19.1226V14.7501C18.7539 14.4051 19.0339 14.1251 19.3789 14.1251C19.7239 14.1251 20.0039 14.4051 20.0039 14.7501V19.1226C20.0039 20.1567 19.1631 20.9976 18.1289 20.9976H13.7539Z" fill="currentColor"/>
<path d="M1.87891 21.0001C0.844739 21.0001 0.00390625 20.1592 0.00390625 19.1251V14.7501C0.00390625 14.4051 0.283906 14.1251 0.628906 14.1251C0.973906 14.1251 1.25391 14.4051 1.25391 14.7501V19.1251C1.25391 19.4701 1.53391 19.7501 1.87891 19.7501H6.25391C6.59891 19.7501 6.87891 20.0301 6.87891 20.3751C6.87891 20.7201 6.59807 21.0001 6.25391 21.0001H1.87891Z" fill="currentColor"/>
<path d="M0.628906 7.87506C0.283906 7.87506 0.00390625 7.59506 0.00390625 7.25006V2.87256C0.00390625 1.83839 0.844739 0.997559 1.87891 0.997559H6.25391C6.59891 0.997559 6.87891 1.27756 6.87891 1.62256C6.87891 1.96756 6.59891 2.24756 6.25391 2.24756H1.87891C1.53391 2.24756 1.25391 2.52756 1.25391 2.87256V7.25006C1.25391 7.59506 0.973073 7.87506 0.628906 7.87506Z" fill="currentColor"/>
</svg>
