<svg width="15" height="14" viewBox="0 0 15 14" fill="none" xmlns="http://www.w3.org/2000/svg">
<path fill-rule="evenodd" clip-rule="evenodd" d="M3.47487 3.90641L0.69064 6.69064C0.519787 6.8615 0.519787 7.1385 0.69064 7.30936L3.47487 10.0936C3.64573 10.2644 3.92274 10.2644 4.09359 10.0936C4.26445 9.92274 4.26445 9.64573 4.09359 9.47487L2.05622 7.4375L11.5 7.4375L11.5 6.5625L2.05622 6.5625L4.09359 4.52513C4.26445 4.35427 4.26445 4.07726 4.09359 3.90641C3.92274 3.73555 3.64573 3.73555 3.47487 3.90641Z" fill="currentColor"/>
<path d="M13.7422 14C14.4359 14 15 13.4115 15 12.6875V1.3125C15 0.58846 14.4359 0 13.7422 0H2.84115C2.14741 0 1.58333 0.58846 1.58333 1.3125V3.5H2.42188V1.3125C2.42188 1.07096 2.60967 0.875 2.84115 0.875H13.7422C13.8687 0.875 13.9823 0.933675 14.0591 1.02625C14.1228 1.10286 14.1615 1.20312 14.1615 1.3125V12.6875C14.1615 12.7667 14.1413 12.841 14.1059 12.9051C14.0732 12.9646 14.0273 13.0156 13.9724 13.0532C13.9064 13.0988 13.8272 13.125 13.7422 13.125H2.84115C2.73619 13.125 2.64024 13.0848 2.56668 13.0185C2.47797 12.9382 2.42188 12.8197 2.42188 12.6875V10.5H1.58333V12.6875C1.58333 13.4115 2.14741 14 2.84115 14H13.7422Z" fill="currentColor"/>
</svg>
