<svg width="48" height="48" viewBox="0 0 48 48" fill="none" xmlns="http://www.w3.org/2000/svg">
<path fill-rule="evenodd" clip-rule="evenodd" d="M26.6186 6.86717C26.6186 9.38739 27.9788 11.5949 30.0013 12.7895C29.3601 13.0121 28.7377 13.2968 28.1439 13.6408C27.1298 14.2289 26.2253 14.9756 25.4526 15.8607C24.901 16.4935 24.9659 17.46 25.5986 18.0155C25.8765 18.2576 26.2314 18.3919 26.5985 18.3919C27.0386 18.3919 27.4543 18.2027 27.7444 17.871C28.296 17.2402 28.943 16.7071 29.667 16.2859C30.825 15.6145 32.1372 15.2584 33.4575 15.2584C34.1207 15.2584 34.7859 15.3459 35.4369 15.5209C37.4001 16.0479 39.0408 17.3094 40.0569 19.0755C40.3266 19.5456 40.8316 19.8386 41.3731 19.8386C41.6388 19.8386 41.9025 19.7673 42.1316 19.631C42.8577 19.2098 43.1072 18.2739 42.6873 17.5454C41.3896 15.2906 39.3635 13.6224 36.9299 12.7869C38.95 11.5917 40.3082 9.38559 40.3082 6.86717C40.3082 3.08056 37.2377 0 33.4634 0C29.6892 0 26.6186 3.08056 26.6186 6.86717ZM29.6608 6.86717C29.6608 4.76327 31.3664 3.05207 33.4634 3.05207C35.5605 3.05207 37.2661 4.76327 37.2661 6.86717C37.2661 8.97106 35.5605 10.6823 33.4634 10.6823C31.3664 10.6823 29.6608 8.97106 29.6608 6.86717ZM5.32324 9.39647C5.32324 14.0007 9.0352 17.7494 13.6152 17.7894H13.6065C6.71704 17.7894 0.872072 22.9555 0.012161 29.8064C-0.0932998 30.6406 0.498903 31.4057 1.33245 31.5115C1.39532 31.5196 1.45819 31.5237 1.52106 31.5237C2.28565 31.5237 2.93464 30.9499 3.02996 30.1889C3.69923 24.86 8.24419 20.8414 13.5984 20.8414H13.7484C16.3687 20.8414 18.8937 21.7998 20.8589 23.5374C21.1368 23.7836 21.4937 23.92 21.8649 23.92C22.3029 23.92 22.7187 23.7307 23.0067 23.4031C23.5603 22.7724 23.4995 21.8059 22.8708 21.2504C20.3515 19.0197 17.1171 17.7909 13.7629 17.7894C18.341 17.7495 22.055 14.0008 22.055 9.39647C22.055 4.76749 18.303 1.00327 13.6891 1.00327C9.07521 1.00327 5.32324 4.76749 5.32324 9.39647ZM13.6998 17.7897L13.7565 17.7894V18.5524L13.6998 17.7897ZM13.6891 4.05534C10.7545 4.05534 8.36538 6.45224 8.36538 9.39647C8.36538 12.3407 10.7545 14.7376 13.6891 14.7376C16.6238 14.7376 19.0129 12.3407 19.0129 9.39647C19.0129 6.45224 16.6238 4.05534 13.6891 4.05534ZM4.87635 47.7374L29.8526 30.258H44.8734L43.1149 42.757C42.9872 43.6649 43.5567 44.5142 44.387 44.6539C45.2173 44.7935 45.9939 44.1708 46.1217 43.2628L47.97 30.1251C48.2063 28.4458 47.0181 26.9314 45.4644 26.9314H29.7043C29.2199 26.9314 28.7457 27.0832 28.3377 27.3687L3.23648 44.9356C2.52891 45.4307 2.32242 46.4594 2.77526 47.2331C3.2281 48.0068 4.16879 48.2326 4.87635 47.7374Z" fill="currentColor"/>
</svg>
