<svg width="48" height="48" viewBox="0 0 48 48" fill="none" xmlns="http://www.w3.org/2000/svg">
<g clip-path="url(#clip0_4_1035)">
<path d="M9 18C5.692 18 3 15.308 3 12C3 8.692 5.692 6 9 6C12.308 6 15 8.692 15 12C15 15.308 12.308 18 9 18ZM9 9C7.346 9 6 10.346 6 12C6 13.654 7.346 15 9 15C10.654 15 12 13.654 12 12C12 10.346 10.654 9 9 9Z" fill="currentColor"/>
<path d="M6 45C5.246 45 4.606 44.436 4.512 43.686L3.176 33H1.5C0.672 33 0 32.328 0 31.5V27C0 22.038 4.038 18 9 18C9.828 18 10.5 18.672 10.5 19.5C10.5 20.328 9.828 21 9 21C5.692 21 3 23.692 3 27V30H4.5C5.254 30 5.894 30.564 5.988 31.314L7.324 42H12C12.828 42 13.5 42.672 13.5 43.5C13.5 44.328 12.828 45 12 45H6Z" fill="currentColor"/>
<path d="M39 18C35.692 18 33 15.308 33 12C33 8.692 35.692 6 39 6C42.308 6 45 8.692 45 12C45 15.308 42.308 18 39 18ZM39 9C37.346 9 36 10.346 36 12C36 13.654 37.346 15 39 15C40.654 15 42 13.654 42 12C42 10.346 40.654 9 39 9Z" fill="currentColor"/>
<path d="M36 45C35.172 45 34.5 44.328 34.5 43.5C34.5 42.672 35.172 42 36 42H40.676L42.012 31.314C42.106 30.564 42.746 30 43.5 30H45V27C45 23.692 42.308 21 39 21C38.172 21 37.5 20.328 37.5 19.5C37.5 18.672 38.172 18 39 18C43.962 18 48 22.038 48 27V31.5C48 32.328 47.328 33 46.5 33H44.824L43.488 43.686C43.394 44.436 42.754 45 42 45H36Z" fill="currentColor"/>
<path d="M24 15C19.864 15 16.5 11.636 16.5 7.5C16.5 3.364 19.864 0 24 0C28.136 0 31.5 3.364 31.5 7.5C31.5 11.636 28.136 15 24 15ZM24 3C21.518 3 19.5 5.018 19.5 7.5C19.5 9.982 21.518 12 24 12C26.482 12 28.5 9.982 28.5 7.5C28.5 5.018 26.482 3 24 3Z" fill="currentColor"/>
<path d="M19.5 48C18.726 48 18.084 47.42 18.008 46.65L16.642 33H13.5C12.672 33 12 32.328 12 31.5V27C12 20.384 17.384 15 24 15C30.616 15 36 20.384 36 27V31.5C36 32.328 35.328 33 34.5 33H31.358L29.992 46.65C29.916 47.418 29.274 48 28.5 48H19.5ZM27.142 45L28.508 31.35C28.584 30.582 29.226 30 30 30H33V27C33 22.038 28.962 18 24 18C19.038 18 15 22.038 15 27V30H18C18.774 30 19.416 30.58 19.492 31.35L20.856 45H27.142Z" fill="currentColor"/>
</g>
<defs>
<clipPath id="clip0_4_1035">
<rect width="48" height="48" fill="currentColor"/>
</clipPath>
</defs>
</svg>
