<svg width="48" height="48" viewBox="0 0 48 48" fill="none" xmlns="http://www.w3.org/2000/svg">
<path fill-rule="evenodd" clip-rule="evenodd" d="M6.94152 0.775394C6.96832 0.775395 6.99521 0.775397 7.0222 0.775397L14.4561 0.775394C15.5425 0.775333 16.4786 0.77528 17.2282 0.876062C18.0315 0.984071 18.8016 1.22764 19.4262 1.85225C20.0508 2.47685 20.2944 3.24692 20.4024 4.05027C20.5032 4.79989 20.5031 5.73598 20.503 6.82241V14.3369C20.5031 15.4233 20.5032 16.3594 20.4024 17.109C20.2944 17.9124 20.0508 18.6824 19.4262 19.3071C18.8016 19.9317 18.0315 20.1752 17.2282 20.2832C16.4786 20.384 15.5425 20.384 14.456 20.3839H6.94155C5.85512 20.384 4.91903 20.384 4.16941 20.2832C3.36606 20.1752 2.59599 19.9317 1.97139 19.3071C1.34678 18.6824 1.10321 17.9124 0.995203 17.109C0.894421 16.3594 0.894473 15.4233 0.894534 14.3369L0.894537 6.90306C0.894537 6.87607 0.894536 6.84918 0.894534 6.82238C0.894473 5.73596 0.894421 4.79988 0.995203 4.05027C1.10321 3.24692 1.34678 2.47685 1.97139 1.85225C2.59599 1.22764 3.36606 0.984071 4.16941 0.876062C4.91902 0.77528 5.8551 0.775333 6.94152 0.775394ZM4.49601 3.30527C3.96445 3.37674 3.79784 3.49212 3.70455 3.58541C3.61126 3.6787 3.49588 3.84531 3.42441 4.37687C3.3482 4.94369 3.3456 5.71297 3.3456 6.90306V14.2562C3.3456 15.4463 3.3482 16.2156 3.42441 16.7824C3.49588 17.314 3.61126 17.4806 3.70455 17.5739C3.79784 17.6672 3.96445 17.7826 4.49601 17.854C5.06283 17.9302 5.83211 17.9328 7.0222 17.9328H14.3754C15.5655 17.9328 16.3348 17.9302 16.9016 17.854C17.4331 17.7826 17.5997 17.6672 17.693 17.5739C17.7863 17.4806 17.9017 17.314 17.9732 16.7824C18.0494 16.2156 18.052 15.4463 18.052 14.2562V6.90306C18.052 5.71297 18.0494 4.94369 17.9732 4.37687C17.9017 3.84531 17.7863 3.6787 17.693 3.58541C17.5997 3.49212 17.4331 3.37674 16.9016 3.30527C16.3348 3.22906 15.5655 3.22646 14.3754 3.22646H7.0222C5.83211 3.22646 5.06283 3.22906 4.49601 3.30527Z" fill="currentColor"/>
<path fill-rule="evenodd" clip-rule="evenodd" d="M6.94152 27.7363C6.96832 27.7363 6.99521 27.7363 7.0222 27.7363L14.4561 27.7363C15.5425 27.7363 16.4786 27.7362 17.2282 27.837C18.0315 27.945 18.8016 28.1886 19.4262 28.8132C20.0508 29.4378 20.2944 30.2079 20.4024 31.0112C20.5032 31.7608 20.5031 32.6969 20.503 33.7833V41.2978C20.5031 42.3843 20.5032 43.3203 20.4024 44.07C20.2944 44.8733 20.0508 45.6434 19.4262 46.268C18.8016 46.8926 18.0315 47.1362 17.2282 47.2442C16.4786 47.345 15.5425 47.3449 14.456 47.3448H6.94155C5.85512 47.3449 4.91903 47.345 4.16941 47.2442C3.36606 47.1362 2.59599 46.8926 1.97139 46.268C1.34678 45.6434 1.10321 44.8733 0.995203 44.07C0.894421 43.3204 0.894473 42.3843 0.894534 41.2979L0.894537 33.864C0.894537 33.837 0.894536 33.8101 0.894534 33.7833C0.894473 32.6969 0.894421 31.7608 0.995203 31.0112C1.10321 30.2079 1.34678 29.4378 1.97139 28.8132C2.59599 28.1886 3.36606 27.945 4.16941 27.837C4.91902 27.7362 5.8551 27.7363 6.94152 27.7363ZM4.49601 30.2662C3.96445 30.3377 3.79784 30.4531 3.70455 30.5463C3.61126 30.6396 3.49588 30.8062 3.42441 31.3378C3.3482 31.9046 3.3456 32.6739 3.3456 33.864V41.2172C3.3456 42.4073 3.3482 43.1766 3.42441 43.7434C3.49588 44.2749 3.61126 44.4415 3.70455 44.5348C3.79784 44.6281 3.96445 44.7435 4.49601 44.815C5.06283 44.8912 5.83211 44.8938 7.0222 44.8938H14.3754C15.5655 44.8938 16.3348 44.8912 16.9016 44.815C17.4331 44.7435 17.5997 44.6281 17.693 44.5348C17.7863 44.4415 17.9017 44.2749 17.9732 43.7434C18.0494 43.1766 18.052 42.4073 18.052 41.2172V33.864C18.052 32.6739 18.0494 31.9046 17.9732 31.3378C17.9017 30.8062 17.7863 30.6396 17.693 30.5463C17.5997 30.4531 17.4331 30.3377 16.9016 30.2662C16.3348 30.19 15.5655 30.1874 14.3754 30.1874H7.0222C5.83211 30.1874 5.06283 30.19 4.49601 30.2662Z" fill="currentColor"/>
<path fill-rule="evenodd" clip-rule="evenodd" d="M33.9025 0.775394C33.9293 0.775395 33.9562 0.775397 33.9831 0.775397L41.417 0.775394C42.5034 0.775333 43.4395 0.77528 44.1891 0.876062C44.9925 0.984071 45.7625 1.22764 46.3871 1.85225C47.0117 2.47685 47.2553 3.24692 47.3633 4.05027C47.4641 4.79989 47.464 5.73598 47.464 6.82241V14.3369C47.464 15.4233 47.4641 16.3594 47.3633 17.109C47.2553 17.9124 47.0117 18.6824 46.3871 19.3071C45.7625 19.9317 44.9925 20.1752 44.1891 20.2832C43.4395 20.384 42.5034 20.384 41.417 20.3839H33.9025C32.8161 20.384 31.88 20.384 31.1304 20.2832C30.327 20.1752 29.5569 19.9317 28.9323 19.3071C28.3077 18.6824 28.0641 17.9124 27.9561 17.109C27.8554 16.3594 27.8554 15.4233 27.8555 14.3369L27.8555 6.90306C27.8555 6.87607 27.8555 6.84918 27.8555 6.82238C27.8554 5.73596 27.8554 4.79988 27.9561 4.05027C28.0641 3.24692 28.3077 2.47685 28.9323 1.85225C29.5569 1.22764 30.327 0.984071 31.1304 0.876062C31.88 0.77528 32.816 0.775333 33.9025 0.775394ZM31.4569 3.30527C30.9254 3.37674 30.7588 3.49212 30.6655 3.58541C30.5722 3.6787 30.4568 3.84531 30.3853 4.37687C30.3091 4.94369 30.3065 5.71297 30.3065 6.90306V14.2562C30.3065 15.4463 30.3091 16.2156 30.3853 16.7824C30.4568 17.314 30.5722 17.4806 30.6655 17.5739C30.7588 17.6672 30.9254 17.7826 31.4569 17.854C32.0238 17.9302 32.793 17.9328 33.9831 17.9328H41.3363C42.5264 17.9328 43.2957 17.9302 43.8625 17.854C44.3941 17.7826 44.5607 17.6672 44.654 17.5739C44.7473 17.4806 44.8626 17.314 44.9341 16.7824C45.0103 16.2156 45.0129 15.4463 45.0129 14.2562V6.90306C45.0129 5.71297 45.0103 4.94369 44.9341 4.37687C44.8626 3.84531 44.7473 3.6787 44.654 3.58541C44.5607 3.49212 44.3941 3.37674 43.8625 3.30527C43.2957 3.22906 42.5264 3.22646 41.3363 3.22646H33.9831C32.793 3.22646 32.0238 3.22906 31.4569 3.30527Z" fill="currentColor"/>
<path fill-rule="evenodd" clip-rule="evenodd" d="M47.4629 37.542C47.4629 38.2189 46.9142 38.7675 46.2374 38.7675L29.0795 38.7675C28.4027 38.7675 27.854 38.2188 27.854 37.5419C27.854 36.8651 28.4027 36.3164 29.0795 36.3164L46.2374 36.3165C46.9142 36.3165 47.4629 36.8652 47.4629 37.542Z" fill="currentColor"/>
</svg>
