<svg width="48" height="48" viewBox="0 0 48 48" fill="none" xmlns="http://www.w3.org/2000/svg">
<path fill-rule="evenodd" clip-rule="evenodd" d="M6.82238 0.775394C6.84918 0.775395 6.87607 0.775397 6.90306 0.775397L14.3369 0.775394C15.4233 0.775333 16.3594 0.77528 17.109 0.876063C17.9124 0.984071 18.6824 1.22764 19.3071 1.85225C19.9317 2.47685 20.1752 3.24692 20.2832 4.05027C20.384 4.79989 20.384 5.73598 20.3839 6.82241V14.3369C20.384 15.4233 20.384 16.3594 20.2832 17.109C20.1752 17.9124 19.9317 18.6824 19.3071 19.3071C18.6824 19.9317 17.9124 20.1752 17.109 20.2832C16.3594 20.384 15.4233 20.384 14.3369 20.3839H6.82241C5.73598 20.384 4.79989 20.384 4.05027 20.2832C3.24692 20.1752 2.47685 19.9317 1.85225 19.3071C1.22764 18.6824 0.984071 17.9124 0.876063 17.109C0.77528 16.3594 0.775333 15.4233 0.775394 14.3369L0.775397 6.90306C0.775397 6.87607 0.775395 6.84918 0.775394 6.82238C0.775333 5.73596 0.77528 4.79988 0.876063 4.05027C0.984071 3.24692 1.22764 2.47685 1.85225 1.85225C2.47685 1.22764 3.24692 0.984071 4.05027 0.876063C4.79988 0.77528 5.73596 0.775333 6.82238 0.775394ZM4.37687 3.30527C3.84531 3.37674 3.6787 3.49212 3.58541 3.58541C3.49212 3.6787 3.37674 3.84531 3.30527 4.37687C3.22906 4.94369 3.22646 5.71297 3.22646 6.90306V14.2562C3.22646 15.4463 3.22906 16.2156 3.30527 16.7824C3.37674 17.314 3.49212 17.4806 3.58541 17.5739C3.6787 17.6672 3.84531 17.7826 4.37687 17.854C4.94369 17.9302 5.71297 17.9328 6.90306 17.9328H14.2562C15.4463 17.9328 16.2156 17.9302 16.7824 17.854C17.314 17.7826 17.4806 17.6672 17.5739 17.5739C17.6672 17.4806 17.7826 17.314 17.854 16.7824C17.9302 16.2156 17.9328 15.4463 17.9328 14.2562V6.90306C17.9328 5.71297 17.9302 4.94369 17.854 4.37687C17.7826 3.84531 17.6672 3.6787 17.5739 3.58541C17.4806 3.49212 17.314 3.37674 16.7824 3.30527C16.2156 3.22906 15.4463 3.22646 14.2562 3.22646H6.90306C5.71297 3.22646 4.94369 3.22906 4.37687 3.30527Z" fill="currentColor"/>
<path fill-rule="evenodd" clip-rule="evenodd" d="M6.82238 27.7363C6.84918 27.7363 6.87607 27.7363 6.90306 27.7363L14.3369 27.7363C15.4233 27.7363 16.3594 27.7362 17.109 27.837C17.9124 27.945 18.6824 28.1886 19.3071 28.8132C19.9317 29.4378 20.1752 30.2079 20.2832 31.0112C20.384 31.7608 20.384 32.6969 20.3839 33.7833V41.2978C20.384 42.3843 20.384 43.3204 20.2832 44.07C20.1752 44.8733 19.9317 45.6434 19.3071 46.268C18.6824 46.8926 17.9124 47.1362 17.109 47.2442C16.3594 47.345 15.4233 47.3449 14.3369 47.3448H6.82241C5.73598 47.3449 4.79989 47.345 4.05027 47.2442C3.24692 47.1362 2.47685 46.8926 1.85225 46.268C1.22764 45.6434 0.984071 44.8733 0.876063 44.07C0.77528 43.3204 0.775333 42.3843 0.775394 41.2979L0.775397 33.864C0.775397 33.837 0.775395 33.8101 0.775394 33.7833C0.775333 32.6969 0.77528 31.7608 0.876063 31.0112C0.984071 30.2079 1.22764 29.4378 1.85225 28.8132C2.47685 28.1886 3.24692 27.945 4.05027 27.837C4.79988 27.7362 5.73596 27.7363 6.82238 27.7363ZM4.37687 30.2662C3.84531 30.3377 3.6787 30.4531 3.58541 30.5463C3.49212 30.6396 3.37674 30.8062 3.30527 31.3378C3.22906 31.9046 3.22646 32.6739 3.22646 33.864V41.2172C3.22646 42.4073 3.22906 43.1766 3.30527 43.7434C3.37674 44.2749 3.49212 44.4415 3.58541 44.5348C3.6787 44.6281 3.84531 44.7435 4.37687 44.815C4.94369 44.8912 5.71297 44.8938 6.90306 44.8938H14.2562C15.4463 44.8938 16.2156 44.8912 16.7824 44.815C17.314 44.7435 17.4806 44.6281 17.5739 44.5348C17.6672 44.4415 17.7826 44.2749 17.854 43.7434C17.9302 43.1766 17.9328 42.4073 17.9328 41.2172V33.864C17.9328 32.6739 17.9302 31.9046 17.854 31.3378C17.7826 30.8062 17.6672 30.6396 17.5739 30.5463C17.4806 30.4531 17.314 30.3377 16.7824 30.2662C16.2156 30.19 15.4463 30.1874 14.2562 30.1874H6.90306C5.71297 30.1874 4.94369 30.19 4.37687 30.2662Z" fill="currentColor"/>
<path fill-rule="evenodd" clip-rule="evenodd" d="M33.7833 0.775394C33.8101 0.775395 33.837 0.775397 33.864 0.775397L41.2979 0.775394C42.3843 0.775333 43.3204 0.77528 44.07 0.876063C44.8733 0.984071 45.6434 1.22764 46.268 1.85225C46.8926 2.47685 47.1362 3.24692 47.2442 4.05027C47.345 4.79989 47.3449 5.73598 47.3448 6.82241V14.3369C47.3449 15.4233 47.345 16.3594 47.2442 17.109C47.1362 17.9124 46.8926 18.6824 46.268 19.3071C45.6434 19.9317 44.8733 20.1752 44.07 20.2832C43.3204 20.384 42.3843 20.384 41.2978 20.3839H33.7833C32.6969 20.384 31.7608 20.384 31.0112 20.2832C30.2079 20.1752 29.4378 19.9317 28.8132 19.3071C28.1886 18.6824 27.945 17.9124 27.837 17.109C27.7362 16.3594 27.7363 15.4233 27.7363 14.3369L27.7363 6.90306C27.7363 6.87607 27.7363 6.84918 27.7363 6.82238C27.7363 5.73596 27.7362 4.79988 27.837 4.05027C27.945 3.24692 28.1886 2.47685 28.8132 1.85225C29.4378 1.22764 30.2079 0.984071 31.0112 0.876063C31.7608 0.77528 32.6969 0.775333 33.7833 0.775394ZM31.3378 3.30527C30.8062 3.37674 30.6396 3.49212 30.5463 3.58541C30.4531 3.6787 30.3377 3.84531 30.2662 4.37687C30.19 4.94369 30.1874 5.71297 30.1874 6.90306V14.2562C30.1874 15.4463 30.19 16.2156 30.2662 16.7824C30.3377 17.314 30.4531 17.4806 30.5463 17.5739C30.6396 17.6672 30.8062 17.7826 31.3378 17.854C31.9046 17.9302 32.6739 17.9328 33.864 17.9328H41.2172C42.4073 17.9328 43.1766 17.9302 43.7434 17.854C44.2749 17.7826 44.4415 17.6672 44.5348 17.5739C44.6281 17.4806 44.7435 17.314 44.815 16.7824C44.8912 16.2156 44.8938 15.4463 44.8938 14.2562V6.90306C44.8938 5.71297 44.8912 4.94369 44.815 4.37687C44.7435 3.84531 44.6281 3.6787 44.5348 3.58541C44.4415 3.49212 44.2749 3.37674 43.7434 3.30527C43.1766 3.22906 42.4073 3.22646 41.2172 3.22646H33.864C32.6739 3.22646 31.9046 3.22906 31.3378 3.30527Z" fill="currentColor"/>
<path fill-rule="evenodd" clip-rule="evenodd" d="M37.5401 27.7363C38.2169 27.7363 38.7656 28.285 38.7656 28.9619L38.7655 46.1197C38.7655 46.7966 38.2168 47.3452 37.54 47.3452C36.8631 47.3452 36.3145 46.7965 36.3145 46.1197L36.3145 28.9619C36.3145 28.285 36.8632 27.7363 37.5401 27.7363Z" fill="currentColor"/>
<path fill-rule="evenodd" clip-rule="evenodd" d="M47.3437 37.542C47.3437 38.2189 46.7951 38.7675 46.1182 38.7675L28.9604 38.7675C28.2835 38.7675 27.7348 38.2188 27.7348 37.5419C27.7348 36.8651 28.2835 36.3164 28.9604 36.3164L46.1182 36.3165C46.7951 36.3165 47.3438 36.8652 47.3437 37.542Z" fill="currentColor"/>
</svg>
