<svg width="20" height="20" viewBox="0 0 20 20" fill="none" xmlns="http://www.w3.org/2000/svg">
<path d="M4.375 20C4.27833 20 4.18167 19.9775 4.095 19.9342C3.8825 19.8275 3.75 19.6133 3.75 19.375V16.25H1.875C0.840833 16.25 0 15.4092 0 14.375V1.875C0 0.840833 0.840833 0 1.875 0H18.125C19.1592 0 20 0.840833 20 1.875V14.375C20 15.4092 19.1592 16.25 18.125 16.25H9.58333L4.75 19.875C4.6425 19.9558 4.50917 20 4.375 20ZM1.875 1.25C1.53 1.25 1.25 1.53 1.25 1.875V14.375C1.25 14.72 1.53 15 1.875 15H4.375C4.72 15 5 15.28 5 15.625V18.125L9 15.125C9.1075 15.0442 9.24083 15 9.375 15H18.125C18.47 15 18.75 14.72 18.75 14.375V1.875C18.75 1.53 18.47 1.25 18.125 1.25H1.875Z" fill="currentColor"/>
<path d="M13.8716 8.125C12.4932 8.125 11.3716 7.00333 11.3716 5.625C11.3716 4.24667 12.4932 3.125 13.8716 3.125C15.2499 3.125 16.3716 4.24667 16.3716 5.625C16.3716 7.00333 15.2499 8.125 13.8716 8.125ZM13.8716 4.375C13.1824 4.375 12.6216 4.93583 12.6216 5.625C12.6216 6.31417 13.1824 6.875 13.8716 6.875C14.5607 6.875 15.1216 6.31417 15.1216 5.625C15.1216 4.93583 14.5607 4.375 13.8716 4.375Z" fill="currentColor"/>
<path d="M10.6249 10.6252C10.5157 10.6252 10.4074 10.596 10.3124 10.541C10.014 10.3685 9.91153 9.98603 10.0832 9.68687C10.4665 9.02353 11.0199 8.4702 11.6832 8.08687C12.3499 7.70187 13.104 7.49854 13.8649 7.49854C14.2465 7.49854 14.629 7.54937 15.0024 7.64937C16.1315 7.95187 17.0749 8.6752 17.659 9.68687C17.8315 9.9852 17.729 10.3685 17.4307 10.541C17.3357 10.596 17.2282 10.6252 17.1182 10.6252C16.8957 10.6252 16.6882 10.5052 16.5774 10.3127C16.1599 9.58937 15.4857 9.0727 14.679 8.85687C14.4115 8.7852 14.1382 8.74937 13.8657 8.74937C13.3232 8.74937 12.784 8.8952 12.3082 9.1702C11.8349 9.44353 11.4399 9.83853 11.1657 10.3127C11.0549 10.5052 10.8474 10.6252 10.6249 10.6252Z" fill="currentColor"/>
<path d="M6.875 8.75C5.32417 8.75 4.0625 7.48833 4.0625 5.9375C4.0625 4.38667 5.32417 3.125 6.875 3.125C8.42583 3.125 9.6875 4.38667 9.6875 5.9375C9.6875 7.48833 8.42583 8.75 6.875 8.75ZM6.875 4.375C6.01333 4.375 5.3125 5.07583 5.3125 5.9375C5.3125 6.79917 6.01333 7.5 6.875 7.5C7.73667 7.5 8.4375 6.79917 8.4375 5.9375C8.4375 5.07583 7.73667 4.375 6.875 4.375Z" fill="currentColor"/>
<path d="M10.625 13.125C10.28 13.125 10 12.845 10 12.5C10 10.7767 8.59833 9.375 6.875 9.375C5.15167 9.375 3.75 10.7767 3.75 12.5C3.75 12.845 3.47 13.125 3.125 13.125C2.78 13.125 2.5 12.845 2.5 12.5C2.5 10.0875 4.4625 8.125 6.875 8.125C9.2875 8.125 11.25 10.0875 11.25 12.5C11.25 12.845 10.97 13.125 10.625 13.125Z" fill="currentColor"/>
</svg>
