<svg width="25" height="26" viewBox="0 0 25 26" fill="none" xmlns="http://www.w3.org/2000/svg">
    <path d="M10.9859 25.8545C9.22672 25.8545 7.54331 25.1052 6.36659 23.7982L0.920975 17.7512C0.0840082 16.8196 -0.0166174 15.4416 0.677106 14.3998C1.18734 13.6351 2.03969 13.1793 2.95716 13.1793C3.452 13.1793 3.93855 13.3142 4.36592 13.5711L5.69062 14.3667L4.41564 5.45954C4.21439 4.04723 5.10699 2.7249 6.49207 2.38396C6.7099 2.3295 6.93482 2.30227 7.15975 2.30227C8.13049 2.30227 9.00297 2.80421 9.49781 3.59146C9.53333 2.15311 10.7136 0.994141 12.1602 0.994141C13.5998 0.994141 14.7765 2.14245 14.8227 3.57134C15.0227 3.24933 15.2915 2.96995 15.617 2.75213C16.0669 2.45025 16.5878 2.29162 17.124 2.29162C17.3016 2.29162 17.4804 2.30937 17.6556 2.34371C17.7006 2.35199 17.7432 2.36265 17.787 2.3733C19.1957 2.7249 20.0765 4.1159 19.7924 5.53886L19.6302 6.35333C19.938 5.92597 20.3713 5.60515 20.8827 5.43468C21.1431 5.34708 21.4142 5.30328 21.6865 5.30328C22.0807 5.30328 22.4607 5.39325 22.8171 5.57201C22.9118 5.61936 23.0041 5.67263 23.0917 5.73064C24.0826 6.39122 24.4803 7.67449 24.0388 8.78018L21.3645 15.4664C21.1538 15.9932 21.0472 16.5473 21.0472 17.1155V19.6406C21.0472 21.5868 20.1179 23.4455 18.5612 24.6127C17.4922 25.4142 16.1675 25.8557 14.8321 25.8557H10.9859V25.8545ZM2.95598 14.9562C2.63397 14.9562 2.33328 15.116 2.15452 15.3859C1.91066 15.7517 1.94617 16.2371 2.24094 16.5639L7.68656 22.6097C8.52707 23.5437 9.72984 24.0788 10.9859 24.0788H14.831C15.7851 24.0788 16.731 23.7639 17.4946 23.1909C18.6062 22.3575 19.2703 21.0293 19.2703 19.6394V17.1143C19.2703 16.32 19.4195 15.5434 19.7154 14.8059L22.3897 8.1196C22.5223 7.78813 22.4027 7.40457 22.1056 7.20687C22.0795 7.18912 22.0535 7.17373 22.0251 7.1607C21.9162 7.10625 21.8025 7.07902 21.6853 7.07902C21.6036 7.07902 21.5231 7.09204 21.445 7.11927C21.252 7.1832 21.097 7.31934 21.0058 7.50046L18.283 12.9354C18.1315 13.2373 17.8272 13.4255 17.4887 13.4255C17.3904 13.4255 17.2945 13.409 17.2022 13.3782C16.7819 13.2337 16.5321 12.7981 16.6185 12.3636L18.0522 5.192C18.1504 4.69952 17.845 4.21771 17.3584 4.09577L17.3182 4.08748C17.2531 4.07446 17.1915 4.06854 17.1311 4.06854C16.6837 4.06854 16.2954 4.38818 16.2089 4.82738L14.8097 11.8274C14.7268 12.2405 14.3598 12.5412 13.9372 12.5412C13.9099 12.5412 13.8827 12.54 13.8543 12.5377C13.395 12.4927 13.0517 12.1127 13.0517 11.6533V3.65775C13.0517 3.16765 12.6539 2.76988 12.1638 2.76988C11.6737 2.76988 11.2759 3.16765 11.2759 3.65775V11.6521C11.2759 12.1103 10.9314 12.4903 10.4757 12.5353C10.4461 12.5377 10.4176 12.54 10.3892 12.54C9.96661 12.54 9.60081 12.2393 9.51794 11.8262L8.13286 4.87473L8.1222 4.82738C8.00856 4.38699 7.61316 4.0792 7.15857 4.0792C7.07807 4.0792 6.99757 4.08867 6.91825 4.10879C6.42104 4.23073 6.10022 4.70426 6.17244 5.20857L7.71142 15.9613C7.75995 16.2987 7.60724 16.6384 7.32312 16.8267C7.17633 16.9237 7.00704 16.9746 6.83183 16.9746C6.67083 16.9746 6.51338 16.9308 6.37606 16.8492L3.45082 15.0935C3.30047 15.0036 3.13 14.9562 2.95598 14.9562Z" fill="currentColor"/>
</svg>