<svg width="48" height="48" viewBox="0 0 48 48" fill="none" xmlns="http://www.w3.org/2000/svg">
<g clip-path="url(#clip0_4_635)">
<path d="M15.0018 45C12.5198 45 10.5018 42.982 10.5018 40.5V27.354L10.2338 27.128C6.63378 24.1 2.91178 20.966 3.00378 17.116V8.74L0.325776 5.366C-0.188224 4.718 -0.0782241 3.772 0.569776 3.258C0.833776 3.05 1.16378 2.934 1.49978 2.934C1.95978 2.934 2.38978 3.14 2.67578 3.502L5.67578 7.286C5.88578 7.55 6.00178 7.88 6.00178 8.218V17.152C5.95578 19.106 7.91578 21.164 10.5018 23.416V16.902L9.38978 15.764C8.81178 15.172 8.82378 14.22 9.41578 13.642C9.69778 13.366 10.0698 13.216 10.4638 13.216C10.8718 13.216 11.2518 13.376 11.5378 13.668L12.9598 15.124C13.0438 15.194 13.1198 15.272 13.1858 15.354L15.0758 17.29C15.2538 17.472 15.4918 17.572 15.7478 17.572C15.9938 17.572 16.2258 17.478 16.4018 17.308C16.5798 17.136 16.6798 16.902 16.6818 16.652C16.6858 16.402 16.5898 16.166 16.4158 15.986L10.9158 10.374C10.6418 10.094 10.4898 9.722 10.4898 9.326V6.53C10.2158 5.022 9.64378 3.61 8.78778 2.336C8.32778 1.65 8.50978 0.716 9.19778 0.254C9.44578 0.088 9.73378 0 10.0318 0C10.5338 0 10.9998 0.248 11.2798 0.664C12.3958 2.328 13.1338 4.174 13.4698 6.148C13.4838 6.234 13.4898 6.316 13.4898 6.4V8.714L18.5638 13.89C19.2998 14.646 19.6958 15.64 19.6818 16.692C19.6678 17.742 19.2458 18.726 18.4938 19.46C17.7558 20.18 16.7798 20.576 15.7478 20.576C14.9318 20.576 14.1558 20.332 13.5018 19.876V40.5C13.5018 41.328 14.1738 42 15.0018 42H28.5018C29.3298 42 30.0018 42.672 30.0018 43.5C30.0018 44.328 29.3298 45 28.5018 45H15.0018Z" fill="currentColor"/>
<path d="M37.9779 47.992C37.4759 47.992 37.0099 47.744 36.7319 47.328C35.6159 45.666 34.8799 43.824 34.5439 41.854C34.5299 41.772 34.5219 41.688 34.5219 41.602V39.292L29.4419 34.114C27.9239 32.556 27.9559 30.058 29.5099 28.544C30.2499 27.822 31.2019 27.426 32.1879 27.426C32.2339 27.426 32.2799 27.426 32.3279 27.428C33.3599 27.44 34.3439 27.864 35.0779 28.616L36.0039 29.562V10.5C36.0039 9.672 35.3319 9 34.5039 9H19.5039C18.6759 9 18.0039 8.328 18.0039 7.5C18.0039 6.672 18.6739 6 19.5019 6H34.5019C36.9839 6 39.0019 8.018 39.0019 10.5V21.916C42.2419 24.686 45.0839 27.47 45.0019 30.886V39.26L47.6779 42.634C47.9259 42.948 48.0379 43.34 47.9919 43.738C47.9459 44.136 47.7479 44.492 47.4339 44.742C47.1699 44.95 46.8379 45.066 46.5019 45.066C46.0419 45.066 45.6119 44.858 45.3259 44.498L42.3259 40.714C42.1179 40.45 42.0019 40.12 42.0019 39.782V30.85C42.0399 29.246 40.6519 27.528 39.0019 25.946V33.242C39.0019 33.856 38.6359 34.4 38.0679 34.632C37.8879 34.706 37.6959 34.742 37.5019 34.742C37.0999 34.742 36.7099 34.578 36.4279 34.29L32.9279 30.71C32.7499 30.526 32.5199 30.428 32.2659 30.424C32.0979 30.428 31.8179 30.478 31.6019 30.69C31.4239 30.864 31.3239 31.098 31.3199 31.348C31.3159 31.598 31.4099 31.834 31.5839 32.014L37.0899 37.626C37.3659 37.908 37.5199 38.282 37.5199 38.676V41.468C37.7939 42.974 38.3659 44.382 39.2219 45.656C39.4459 45.988 39.5259 46.388 39.4479 46.782C39.3699 47.176 39.1439 47.514 38.8119 47.738C38.5659 47.904 38.2779 47.992 37.9779 47.992Z" fill="currentColor"/>
</g>
<defs>
<clipPath id="clip0_4_635">
<rect width="48" height="48" fill="currentColor"/>
</clipPath>
</defs>
</svg>
