<svg width="18" height="18" viewBox="0 0 18 18" fill="none" xmlns="http://www.w3.org/2000/svg">
<g id="Heart">
<path id="Vector" d="M12.7306 3.27122C13.664 3.27122 14.5443 3.63608 15.2068 4.29852C15.8674 4.95918 16.2306 5.83771 16.2306 6.77114C16.2306 7.6656 15.8958 8.51048 15.2847 9.16406C11.7777 12.9031 15.2847 9.16406 9.12556 15.6169C2.71616 9.16406 7.04274 13.5574 2.71615 9.16406C1.43379 7.79314 1.46037 5.6358 2.79587 4.3003C3.46008 3.63786 4.3386 3.27299 5.28089 3.27299C6.21255 3.27299 7.08929 3.63786 7.74996 4.29675L9.00221 5.549L10.2545 4.29675C10.9151 3.63609 11.7954 3.27122 12.7306 3.27122ZM12.7306 1.5C11.3809 1.5 10.0331 2.01543 9.00221 3.04627C7.97668 2.02074 6.62878 1.50354 5.28089 1.50354H5.27379H5.26671C3.92059 1.50354 2.57269 2.02074 1.54362 3.04627C-0.514539 5.10443 -0.514539 8.44317 1.54362 10.5013L9.00044 17.9564L16.4537 10.5013C17.4846 9.47048 18 8.12081 18 6.77292C18 5.42679 17.4846 4.07535 16.4573 3.04627C15.4282 2.01543 14.0785 1.5 12.7306 1.5Z" fill="currentColor"/>
</g>
</svg>
