<svg width="13" height="14" viewBox="0 0 13 14" fill="none" xmlns="http://www.w3.org/2000/svg">
<path d="M6.00336 13.5605C5.07461 13.5605 4.18586 13.1649 3.56461 12.4749L0.689613 9.28242C0.247738 8.79055 0.194613 8.06305 0.560863 7.51305C0.830238 7.1093 1.28024 6.86867 1.76461 6.86867C2.02586 6.86867 2.28274 6.93992 2.50836 7.07555L3.20774 7.49555L2.53461 2.79305C2.42836 2.04742 2.89961 1.3493 3.63086 1.1693C3.74586 1.14055 3.86461 1.12617 3.98336 1.12617C4.49586 1.12617 4.95649 1.39117 5.21774 1.8068C5.23649 1.04742 5.85961 0.435547 6.62336 0.435547C7.38336 0.435547 8.00461 1.0418 8.02899 1.79617C8.13461 1.62617 8.27649 1.47867 8.44836 1.36367C8.68586 1.2043 8.96086 1.12055 9.24399 1.12055C9.33774 1.12055 9.43211 1.12992 9.52461 1.14805C9.54836 1.15242 9.57086 1.15805 9.59399 1.16367C10.3377 1.3493 10.8027 2.08367 10.6527 2.83492L10.5671 3.26492C10.7296 3.0393 10.9584 2.86992 11.2284 2.77992C11.3659 2.73367 11.509 2.71055 11.6527 2.71055C11.8609 2.71055 12.0615 2.75805 12.2496 2.85242C12.2996 2.87742 12.3484 2.90555 12.3946 2.93617C12.9177 3.28492 13.1277 3.96242 12.8946 4.54617L11.4827 8.07617C11.3715 8.3543 11.3152 8.6468 11.3152 8.9468V10.2799C11.3152 11.3074 10.8246 12.2887 10.0027 12.9049C9.43836 13.328 8.73899 13.5612 8.03399 13.5612H6.00336V13.5605ZM1.76399 7.8068C1.59399 7.8068 1.43524 7.89117 1.34086 8.03367C1.21211 8.2268 1.23086 8.48305 1.38649 8.65555L4.26149 11.8474C4.70524 12.3405 5.34024 12.623 6.00336 12.623H8.03336C8.53711 12.623 9.03649 12.4568 9.43961 12.1543C10.0265 11.7143 10.3771 11.013 10.3771 10.2793V8.94617C10.3771 8.5268 10.4559 8.1168 10.6121 7.72742L12.024 4.19742C12.094 4.02242 12.0309 3.81992 11.874 3.71555C11.8602 3.70617 11.8465 3.69805 11.8315 3.69117C11.774 3.66242 11.714 3.64805 11.6521 3.64805C11.609 3.64805 11.5665 3.65492 11.5252 3.6693C11.4234 3.70305 11.3415 3.77492 11.2934 3.87055L9.85586 6.73992C9.77586 6.8993 9.61524 6.99867 9.43649 6.99867C9.38461 6.99867 9.33399 6.98992 9.28524 6.97367C9.06336 6.89742 8.93149 6.66742 8.97711 6.43805L9.73399 2.6518C9.78586 2.3918 9.62461 2.13742 9.36774 2.07305L9.34649 2.06867C9.31211 2.0618 9.27961 2.05867 9.24774 2.05867C9.01149 2.05867 8.80649 2.22742 8.76086 2.4593L8.02211 6.15492C7.97836 6.37305 7.78461 6.5318 7.56149 6.5318C7.54711 6.5318 7.53274 6.53117 7.51774 6.52992C7.27524 6.50617 7.09399 6.30555 7.09399 6.06305V1.8418C7.09399 1.58305 6.88399 1.37305 6.62524 1.37305C6.36649 1.37305 6.15649 1.58305 6.15649 1.8418V6.06242C6.15649 6.3043 5.97461 6.50492 5.73399 6.52867C5.71836 6.52992 5.70336 6.53117 5.68836 6.53117C5.46524 6.53117 5.27211 6.37242 5.22836 6.1543L4.49711 2.4843L4.49149 2.4593C4.43149 2.2268 4.22274 2.0643 3.98274 2.0643C3.94024 2.0643 3.89774 2.0693 3.85586 2.07992C3.59336 2.1443 3.42399 2.3943 3.46211 2.66055L4.27461 8.33742C4.30024 8.51555 4.21961 8.69492 4.06961 8.7943C3.99211 8.84555 3.90274 8.87242 3.81024 8.87242C3.72524 8.87242 3.64211 8.8493 3.56961 8.80617L2.02524 7.8793C1.94586 7.8318 1.85586 7.8068 1.76399 7.8068Z" fill="currentColor"/>
</svg>
