<svg width="10" height="10" viewBox="0 0 10 10" fill="none" xmlns="http://www.w3.org/2000/svg">
    <g clip-path="url(#clip0_1540_32938)">
        <path d="M3.377 0C2.89434 0 2.48762 0.365923 2.42952 0.847245L2.42946 0.847786L1.78392 6.62654C1.74678 6.96087 1.58356 7.26444 1.31722 7.47159L0.11196 8.43582L0.111453 8.43621C-0.0174203 8.53579 -0.0353206 8.72207 0.0618666 8.8484L0.0628548 8.84969L0.0639095 8.85092C0.121787 8.91844 0.20856 8.95787 0.289306 8.95787C0.357735 8.95787 0.418172 8.9375 0.475825 8.88962L0.476306 8.88922L1.68015 7.92615L1.68052 7.92586C2.07487 7.61989 2.31612 7.1769 2.37237 6.68678L3.01791 0.90802C3.0378 0.728998 3.19051 0.589199 3.377 0.589199C3.57649 0.589199 3.73572 0.74843 3.73572 0.947919V3.63906C3.73572 3.80512 3.86426 3.93366 4.03032 3.93366C4.19638 3.93366 4.32492 3.80512 4.32492 3.63906V0.947919C4.32492 0.4241 3.90084 0 3.377 0Z" fill="#01FFB3"/>
        <path d="M3.87443 4.27734C3.36617 4.27734 2.95763 4.68589 2.95763 5.19415V6.90523C2.95763 7.07129 3.08617 7.19983 3.25223 7.19983C3.41828 7.19983 3.54683 7.07129 3.54683 6.90523V5.19415C3.54683 5.01022 3.6905 4.86654 3.87443 4.86654C4.05837 4.86654 4.20204 5.01022 4.20204 5.19415V7.98627C4.20204 8.42401 3.97957 8.82432 3.60877 9.0542L3.09545 9.37309L3.09465 9.3736C2.95766 9.46166 2.91881 9.63794 2.9968 9.77443L2.99747 9.77556C3.05559 9.87243 3.15369 9.92197 3.25223 9.92197C3.29738 9.92197 3.3585 9.91325 3.41185 9.87208L3.92222 9.55503C4.46948 9.217 4.79124 8.62934 4.79124 7.98629V5.19415C4.79124 4.68587 4.3827 4.27734 3.87443 4.27734Z" fill="#01FFB3"/>
        <path d="M6.623 0C7.10566 0 7.51238 0.365923 7.57048 0.847245L7.57054 0.847786L8.21608 6.62654C8.25322 6.96087 8.41644 7.26444 8.68278 7.47159L9.88804 8.43582L9.88855 8.43621C10.0174 8.53579 10.0353 8.72207 9.93813 8.8484L9.93715 8.84969L9.93609 8.85092C9.87821 8.91844 9.79144 8.95787 9.71069 8.95787C9.64227 8.95787 9.58183 8.9375 9.52418 8.88962L9.52369 8.88922L8.31985 7.92615L8.31948 7.92586C7.92513 7.61989 7.68388 7.1769 7.62763 6.68678L6.98209 0.90802C6.9622 0.728998 6.80949 0.589199 6.623 0.589199C6.42351 0.589199 6.26428 0.74843 6.26428 0.947919V3.63906C6.26428 3.80512 6.13574 3.93366 5.96968 3.93366C5.80362 3.93366 5.67508 3.80512 5.67508 3.63906V0.947919C5.67508 0.4241 6.09916 0 6.623 0Z" fill="#01FFB3"/>
        <path d="M6.12557 4.27734C6.63383 4.27734 7.04237 4.68589 7.04237 5.19415V6.90523C7.04237 7.07129 6.91383 7.19983 6.74777 7.19983C6.58172 7.19983 6.45317 7.07129 6.45317 6.90523V5.19415C6.45317 5.01022 6.3095 4.86654 6.12557 4.86654C5.94163 4.86654 5.79796 5.01022 5.79796 5.19415V7.98627C5.79796 8.42401 6.02043 8.82432 6.39123 9.0542L6.90455 9.37309L6.90535 9.3736C7.04234 9.46166 7.08119 9.63794 7.0032 9.77443L7.00253 9.77556C6.94441 9.87243 6.84631 9.92197 6.74777 9.92197C6.70262 9.92197 6.6415 9.91325 6.58815 9.87208L6.07778 9.55503C5.53052 9.217 5.20876 8.62934 5.20876 7.98629V5.19415C5.20876 4.68587 5.6173 4.27734 6.12557 4.27734Z" fill="#01FFB3"/>
    </g>
    <defs>
        <clipPath id="clip0_1540_32938">
            <rect width="10" height="10" fill="white"/>
        </clipPath>
    </defs>
</svg>