<svg width="48" height="48" viewBox="0 0 48 48" fill="none" xmlns="http://www.w3.org/2000/svg">
<g clip-path="url(#clip0_2250_46586)">
<path d="M24 48C10.766 48 0 37.234 0 24C0 10.766 10.766 0 24 0C37.234 0 48 10.766 48 24C48 37.234 37.234 48 24 48ZM24 3C12.42 3 3 12.42 3 24C3 35.58 12.42 45 24 45C35.58 45 45 35.58 45 24C45 12.42 35.58 3 24 3Z" fill="currentcolor"/>
<rect x="22.5" y="20" width="3" height="16" rx="1.5" fill="currentcolor"/>
<rect x="22" y="12" width="4" height="4" rx="2" fill="currentcolor"/>
</g>
<defs>
<clipPath id="clip0_2250_46586">
<rect width="48" height="48" fill="currentColor"/>
</clipPath>
</defs>
</svg>
