<svg width="20" height="21" viewBox="0 0 20 21" fill="none" xmlns="http://www.w3.org/2000/svg">
<path d="M10 0.416504C7.28333 0.416504 6.94417 0.429004 5.8775 0.476504C4.8125 0.526504 4.0875 0.694004 3.45 0.941504C2.7925 1.1965 2.23417 1.539 1.67833 2.09484C1.1225 2.65067 0.779167 3.20817 0.525 3.8665C0.2775 4.504 0.109167 5.229 0.06 6.294C0.01 7.36067 0 7.69984 0 10.4165C0 13.1332 0.0125 13.4723 0.06 14.539C0.11 15.6032 0.2775 16.329 0.525 16.9665C0.776077 17.6339 1.16966 18.2385 1.67833 18.7382C2.17773 19.2472 2.78241 19.6408 3.45 19.8915C4.08833 20.1382 4.81333 20.3073 5.8775 20.3565C6.94417 20.4065 7.28333 20.4165 10 20.4165C12.7167 20.4165 13.0558 20.404 14.1225 20.3565C15.1867 20.3065 15.9125 20.1382 16.55 19.8915C17.2172 19.6401 17.8218 19.2466 18.3217 18.7382C18.8309 18.2389 19.2245 17.6342 19.475 16.9665C19.7217 16.329 19.8908 15.6032 19.94 14.539C19.99 13.4723 20 13.1332 20 10.4165C20 7.69984 19.9875 7.36067 19.94 6.294C19.89 5.22984 19.7217 4.50317 19.475 3.8665C19.2238 3.19919 18.8302 2.59461 18.3217 2.09484C17.8226 1.58537 17.2178 1.19166 16.55 0.941504C15.9125 0.694004 15.1867 0.525671 14.1225 0.476504C13.0558 0.426504 12.7167 0.416504 10 0.416504ZM10 2.2165C12.6692 2.2165 12.9875 2.22984 14.0417 2.27567C15.0167 2.3215 15.5458 2.48317 15.8975 2.6215C16.3658 2.80234 16.6975 3.019 17.0492 3.36817C17.3983 3.71817 17.615 4.05067 17.7958 4.519C17.9325 4.87067 18.0958 5.39984 18.14 6.37484C18.1875 7.42984 18.1983 7.7465 18.1983 10.4165C18.1983 13.0865 18.1858 13.404 18.1367 14.4582C18.0858 15.4332 17.9233 15.9623 17.7858 16.314C17.6232 16.748 17.3675 17.1411 17.0367 17.4657C16.7134 17.7968 16.3206 18.0518 15.8867 18.2123C15.5367 18.349 14.9992 18.5123 14.0242 18.5565C12.9625 18.604 12.65 18.6148 9.975 18.6148C7.29917 18.6148 6.98667 18.6023 5.92583 18.5532C4.95 18.5023 4.4125 18.3398 4.0625 18.2023C3.62825 18.0417 3.23556 17.7857 2.91333 17.4532C2.57882 17.1321 2.32226 16.7387 2.16333 16.3032C2.02583 15.9532 1.86417 15.4157 1.81333 14.4407C1.77583 13.3907 1.7625 13.0665 1.7625 10.404C1.7625 7.74067 1.77583 7.41567 1.81333 6.35317C1.86417 5.37817 2.02583 4.8415 2.16333 4.4915C2.33833 4.0165 2.5625 3.6915 2.91333 3.34067C3.2625 2.9915 3.58833 2.7665 4.0625 2.59234C4.4125 2.454 4.93833 2.2915 5.91333 2.2415C6.97583 2.204 7.28833 2.1915 9.9625 2.1915L10 2.2165ZM10 5.2815C9.32566 5.2815 8.65793 5.41432 8.03492 5.67238C7.41191 5.93044 6.84584 6.30868 6.36901 6.78551C5.89218 7.26234 5.51394 7.82842 5.25588 8.45142C4.99782 9.07443 4.865 9.74217 4.865 10.4165C4.865 11.0908 4.99782 11.7586 5.25588 12.3816C5.51394 13.0046 5.89218 13.5707 6.36901 14.0475C6.84584 14.5243 7.41191 14.9026 8.03492 15.1606C8.65793 15.4187 9.32566 15.5515 10 15.5515C11.3619 15.5515 12.668 15.0105 13.631 14.0475C14.594 13.0845 15.135 11.7784 15.135 10.4165C15.135 9.05462 14.594 7.74851 13.631 6.78551C12.668 5.82251 11.3619 5.2815 10 5.2815ZM10 13.7498C8.15833 13.7498 6.66667 12.2582 6.66667 10.4165C6.66667 8.57484 8.15833 7.08317 10 7.08317C11.8417 7.08317 13.3333 8.57484 13.3333 10.4165C13.3333 12.2582 11.8417 13.7498 10 13.7498ZM16.5383 5.079C16.5268 5.38952 16.3953 5.68347 16.1715 5.89906C15.9477 6.11465 15.6491 6.23511 15.3383 6.23511C15.0276 6.23511 14.729 6.11465 14.5052 5.89906C14.2814 5.68347 14.1499 5.38952 14.1383 5.079C14.1383 4.76074 14.2648 4.45552 14.4898 4.23048C14.7148 4.00543 15.0201 3.879 15.3383 3.879C15.6566 3.879 15.9618 4.00543 16.1869 4.23048C16.4119 4.45552 16.5383 4.76074 16.5383 5.079Z" fill="currentColor"/>
</svg>
