<svg width="14" height="14" viewBox="0 0 14 14" fill="none" xmlns="http://www.w3.org/2000/svg">
    <path d="M10.0625 14C7.89133 14 6.125 12.2337 6.125 10.0625C6.125 7.89133 7.89133 6.125 10.0625 6.125C12.2337 6.125 14 7.89133 14 10.0625C14 12.2337 12.2337 14 10.0625 14ZM10.0625 7C8.37375 7 7 8.37375 7 10.0625C7 11.7512 8.37375 13.125 10.0625 13.125C11.7512 13.125 13.125 11.7512 13.125 10.0625C13.125 8.37375 11.7512 7 10.0625 7Z" fill="currentColor"/>
    <path d="M10.0625 12.25C9.821 12.25 9.625 12.054 9.625 11.8125V10.5H8.3125C8.071 10.5 7.875 10.304 7.875 10.0625C7.875 9.821 8.071 9.625 8.3125 9.625H9.625V8.3125C9.625 8.071 9.821 7.875 10.0625 7.875C10.304 7.875 10.5 8.071 10.5 8.3125V9.625H11.8125C12.054 9.625 12.25 9.821 12.25 10.0625C12.25 10.304 12.054 10.5 11.8125 10.5H10.5V11.8125C10.5 12.054 10.304 12.25 10.0625 12.25Z" fill="currentColor"/>
    <path d="M0.4375 10.4998C0.196 10.4998 0 10.3032 0 10.0623C0.00175 7.65081 1.96525 5.68848 4.37675 5.68848C4.97175 5.68906 5.54808 5.80689 6.09233 6.03848C6.19967 6.08398 6.28308 6.16914 6.32683 6.27764C6.37058 6.38614 6.36942 6.50514 6.32333 6.61248C6.2545 6.77406 6.097 6.87848 5.92083 6.87848C5.86192 6.87848 5.80417 6.86681 5.74933 6.84348C5.31358 6.65798 4.85275 6.56348 4.37908 6.56348C3.44225 6.56348 2.56375 6.92689 1.90225 7.58723C1.24017 8.24814 0.875583 9.12723 0.875 10.0623C0.875 10.3038 0.678417 10.4998 0.4375 10.4998Z" fill="currentColor"/>
    <path d="M4.375 5.6875C2.807 5.6875 1.53125 4.41175 1.53125 2.84375C1.53125 1.27575 2.807 0 4.375 0C5.943 0 7.21875 1.27575 7.21875 2.84375C7.21875 4.41175 5.943 5.6875 4.375 5.6875ZM4.375 0.875C3.28942 0.875 2.40625 1.75817 2.40625 2.84375C2.40625 3.92933 3.28942 4.8125 4.375 4.8125C5.46058 4.8125 6.34375 3.92933 6.34375 2.84375C6.34375 1.75817 5.46058 0.875 4.375 0.875Z" fill="currentColor"/>
</svg>
