<svg width="12" height="12" viewBox="0 0 12 12" fill="none" xmlns="http://www.w3.org/2000/svg">
<path d="M4.30604 6.26888L6.7282 8.69103L6.55096 8.86827C6.31466 9.10457 6.30284 9.49448 6.55096 9.74261L7.04721 10.2389C7.28352 10.4752 7.67343 10.487 7.92155 10.2389L8.09878 10.0616L8.61866 10.5815C8.67774 10.6406 8.74863 10.6642 8.83134 10.676L9.82383 10.7705C10.0601 10.7942 10.2846 10.7115 10.45 10.5461C10.6155 10.3806 10.6982 10.1561 10.6745 9.91984L10.58 8.92734C10.5682 8.84464 10.5446 8.77374 10.4855 8.71467L6.17287 4.40204C6.53915 3.32684 6.26739 2.15711 5.46395 1.35367C4.30604 0.195757 2.41557 0.195757 1.25766 1.35367C0.0997514 2.51158 0.0997514 4.40204 1.25766 5.55995C2.04929 6.37521 3.23083 6.63515 4.30604 6.26888ZM1.71846 1.8381C2.61643 0.940127 4.08154 0.940127 4.97951 1.8381C5.65299 2.51158 5.84204 3.50407 5.46395 4.37841C5.40487 4.50838 5.4285 4.65017 5.53484 4.7565L9.90654 9.12821L9.98925 9.99073C9.98925 10.038 9.96562 10.0616 9.9538 10.0734C9.94199 10.0853 9.91836 10.1089 9.87109 10.1089L9.00857 10.0262L8.33509 9.3527C8.20512 9.22273 7.99244 9.22273 7.86248 9.3527L7.48438 9.73079L7.07084 9.31725L7.43712 8.95097C7.56709 8.821 7.56709 8.60833 7.43712 8.47836L4.61324 5.65448C4.51871 5.55995 4.36511 5.52451 4.23514 5.58358C3.3608 5.96168 2.36831 5.77263 1.69483 5.09915C0.808676 4.18936 0.820492 2.73607 1.71846 1.8381Z" fill="currentColor"/>
<path d="M4.11679 4.2349C4.54215 3.80954 4.54215 3.10062 4.11679 2.67526C3.69144 2.24991 2.98252 2.24991 2.55716 2.67526C2.13181 3.10062 2.13181 3.80954 2.55716 4.2349C2.98252 4.66025 3.69144 4.66025 4.11679 4.2349ZM3.02978 3.14788C3.19519 2.98246 3.47876 2.98246 3.64418 3.14788C3.80959 3.31329 3.80959 3.59686 3.64418 3.76228C3.47876 3.9277 3.19519 3.92769 3.02978 3.76228C2.86436 3.59686 2.86436 3.31329 3.02978 3.14788Z" fill="currentColor"/>
</svg>
