<svg width="48" height="48" viewBox="0 0 48 48" fill="none" xmlns="http://www.w3.org/2000/svg">
<g clip-path="url(#clip0_4_1118)">
<path d="M4.15316 36.5638C3.40316 36.5638 2.76516 36.0038 2.66516 35.2598L0.0251637 15.3558C-0.0628363 14.7618 0.0371637 14.1478 0.315164 13.5938C0.673164 12.8798 1.28916 12.3458 2.05116 12.0938C2.35716 11.9918 2.67716 11.9398 2.99716 11.9398C3.45916 11.9398 3.92316 12.0498 4.33916 12.2598C4.42116 12.2998 4.50116 12.3498 4.57516 12.4078L13.1392 18.9198L12.7312 19.5538L13.1792 18.9518L21.6292 6.59178C21.6632 6.54378 21.6972 6.49778 21.7352 6.45378C21.8272 6.34978 21.9232 6.25378 22.0252 6.16378C22.5712 5.68778 23.2692 5.42578 23.9892 5.42578C24.0592 5.42578 24.1292 5.42778 24.2012 5.43378C24.9992 5.48978 25.7292 5.85178 26.2532 6.45578C26.2872 6.49378 26.3232 6.54178 26.3572 6.58978L34.8112 18.9538L43.4152 12.4078C43.4852 12.3538 43.5652 12.3038 43.6492 12.2618C44.0732 12.0498 44.5252 11.9418 44.9932 11.9418C45.1392 11.9418 45.2872 11.9518 45.4332 11.9738C46.2252 12.0898 46.9252 12.5098 47.4032 13.1518C47.8812 13.7958 48.0792 14.5858 47.9632 15.3798L45.3272 35.2618C45.2272 36.0058 44.5892 36.5638 43.8392 36.5638H4.15316ZM42.5252 33.5638L44.9912 14.9778L36.6712 21.3118C36.1692 21.7218 35.5052 21.9578 34.8232 21.9578C33.9112 21.9578 33.0592 21.5538 32.4852 20.8478C32.4312 20.7818 32.3812 20.7118 32.3312 20.6418L23.9952 8.44978L15.6552 20.6478C15.2012 21.3098 14.5152 21.7558 13.7272 21.9018C13.5432 21.9358 13.3572 21.9538 13.1732 21.9538C12.5672 21.9538 11.9812 21.7718 11.4792 21.4258C11.4132 21.3818 11.3452 21.3298 11.2792 21.2758L2.99916 14.9758L5.46516 33.5638H42.5252Z" fill="currentColor"/>
<path d="M4.49805 42.5645C3.67005 42.5645 2.99805 41.8925 2.99805 41.0645C2.99805 40.2365 3.67005 39.5645 4.49805 39.5645H43.498C44.326 39.5645 44.998 40.2365 44.998 41.0645C44.998 41.8925 44.326 42.5645 43.498 42.5645H4.49805Z" fill="currentColor"/>
</g>
<defs>
<clipPath id="clip0_4_1118">
<rect width="48" height="48" fill="currentColor"/>
</clipPath>
</defs>
</svg>
