<svg width="12" height="12" viewBox="0 0 12 12" fill="none" xmlns="http://www.w3.org/2000/svg">
<g id="layout-dashboard 1" clip-path="url(#clip0_8707_71567)">
<path id="Vector" d="M0.862502 5.62891C0.631502 5.62851 0.414502 5.55746 0.251502 5.42838C0.0890021 5.2993 -0.000497916 5.12799 2.0837e-06 4.94562V0.686801C-0.000497916 0.505222 0.0890021 0.333512 0.252002 0.204827C0.415002 0.0757484 0.631502 0.00430099 0.862502 0.00390625L4.764 0.00903783C5.2395 0.0106168 5.626 0.317327 5.625 0.692327V4.94562C5.626 5.32101 5.2395 5.62772 4.7635 5.62891H4.763H0.862502ZM0.863002 0.596012C0.832502 0.596012 0.805002 0.60509 0.783502 0.622459C0.761502 0.639827 0.750002 0.661933 0.750002 0.686011V4.94601C0.750002 4.97088 0.761502 4.99338 0.783002 5.01035C0.805002 5.02772 0.832502 5.0368 0.863002 5.0368H4.7625C4.8245 5.0368 4.875 4.99614 4.875 4.94641V0.691933C4.875 0.641801 4.824 0.601538 4.7615 0.601143L0.863002 0.596012Z" fill="currentColor"/>
<path id="Vector_2" d="M7.1125 5.62891C6.8815 5.62851 6.6645 5.55746 6.5015 5.42838C6.339 5.2993 6.2495 5.12799 6.25 4.94562V0.686801C6.2495 0.505222 6.339 0.333512 6.502 0.204827C6.665 0.0757484 6.8815 0.00430099 7.1125 0.00390625L11.014 0.00903783C11.4895 0.0106168 11.876 0.317327 11.875 0.692327V4.94562C11.876 5.32101 11.4895 5.62772 11.0135 5.62891H11.013H7.1125ZM7.113 0.596012C7.0825 0.596012 7.055 0.60509 7.0335 0.622459C7.0115 0.639827 7 0.661933 7 0.686011V4.94601C7 4.97088 7.0115 4.99338 7.033 5.01035C7.055 5.02772 7.0825 5.0368 7.113 5.0368H11.0125C11.0745 5.0368 11.125 4.99614 11.125 4.94641V0.691933C11.125 0.641801 11.074 0.601538 11.0115 0.601143L7.113 0.596012Z" fill="currentColor"/>
<path id="Vector_3" d="M0.862502 11.875C0.631502 11.8746 0.414502 11.8036 0.251502 11.6745C0.0890021 11.5454 -0.000497916 11.3741 2.0837e-06 11.1917V6.93289C-0.000497916 6.75132 0.0890021 6.57961 0.252002 6.45092C0.415002 6.32184 0.631502 6.25039 0.862502 6.25L4.764 6.25513C5.2395 6.25671 5.626 6.56342 5.625 6.93842V11.1917C5.626 11.5671 5.2395 11.8738 4.7635 11.875H4.763H0.862502ZM0.863002 6.84211C0.832502 6.84211 0.805002 6.85118 0.783502 6.86855C0.761502 6.88592 0.750002 6.90803 0.750002 6.93211V11.1921C0.750002 11.217 0.761502 11.2395 0.783002 11.2564C0.805002 11.2738 0.832502 11.2829 0.863002 11.2829H4.7625C4.8245 11.2829 4.875 11.2422 4.875 11.1925V6.93803C4.875 6.88789 4.824 6.84763 4.7615 6.84724L0.863002 6.84211Z" fill="currentColor"/>
<path id="Vector_4" d="M7.1125 11.875C6.8815 11.8746 6.6645 11.8036 6.5015 11.6745C6.339 11.5454 6.2495 11.3741 6.25 11.1917V6.93289C6.2495 6.75132 6.339 6.57961 6.502 6.45092C6.665 6.32184 6.8815 6.25039 7.1125 6.25L11.014 6.25513C11.4895 6.25671 11.876 6.56342 11.875 6.93842V11.1917C11.876 11.5671 11.4895 11.8738 11.0135 11.875H11.013H7.1125ZM7.113 6.84211C7.0825 6.84211 7.055 6.85118 7.0335 6.86855C7.0115 6.88592 7 6.90803 7 6.93211V11.1921C7 11.217 7.0115 11.2395 7.033 11.2564C7.055 11.2738 7.0825 11.2829 7.113 11.2829H11.0125C11.0745 11.2829 11.125 11.2422 11.125 11.1925V6.93803C11.125 6.88789 11.074 6.84763 11.0115 6.84724L7.113 6.84211Z" fill="currentColor"/>
</g>
<defs>
<clipPath id="clip0_8707_71567">
<rect width="12" height="12" fill="white"/>
</clipPath>
</defs>
</svg>
