<svg width="20" height="20" viewBox="0 0 20 20" fill="none" xmlns="http://www.w3.org/2000/svg">
<path fill-rule="evenodd" clip-rule="evenodd" d="M4.35876 6.14534L0.580154 9.92394C0.348281 10.1558 0.348281 10.5318 0.580154 10.7636L4.35876 14.5422C4.59063 14.7741 4.96657 14.7741 5.19845 14.5422C5.43032 14.3104 5.43032 13.9344 5.19845 13.7025L2.43344 10.9375L15.25 10.9375V9.75004L2.43344 9.75004L5.19845 6.98503C5.43032 6.75316 5.43032 6.37721 5.19845 6.14534C4.96657 5.91347 4.59063 5.91347 4.35876 6.14534Z" fill="currentColor"/>
<path d="M18.293 19.8438C19.2345 19.8438 20 19.0451 20 18.0625V2.625C20 1.64237 19.2345 0.84375 18.293 0.84375H3.4987C2.5572 0.84375 1.79167 1.64237 1.79167 2.625V5.59375H2.92969V2.625C2.92969 2.2972 3.18456 2.03125 3.4987 2.03125H18.293C18.4647 2.03125 18.6188 2.11088 18.7231 2.23651C18.8096 2.34049 18.862 2.47656 18.862 2.625V18.0625C18.862 18.17 18.8346 18.2709 18.7866 18.3578C18.7421 18.4386 18.6799 18.5078 18.6054 18.5588C18.5158 18.6207 18.4084 18.6562 18.293 18.6562H3.4987C3.35626 18.6562 3.22605 18.6017 3.12621 18.5117C3.00581 18.4027 2.92969 18.2419 2.92969 18.0625V15.0938H1.79167V18.0625C1.79167 19.0451 2.5572 19.8438 3.4987 19.8438H18.293Z" fill="currentColor"/>
</svg>
