<svg width="20" height="16" viewBox="0 0 20 16" fill="none" xmlns="http://www.w3.org/2000/svg">
    <path d="M3.98959 0.928652C4.28249 1.22155 4.28249 1.69642 3.98959 1.98931C0.670141 5.30877 0.670141 10.6907 3.98959 14.0101C4.28249 14.303 4.28249 14.7779 3.98959 15.0708C3.6967 15.3637 3.22183 15.3637 2.92893 15.0708C-0.97631 11.1655 -0.97631 4.8339 2.92893 0.928652C3.22183 0.635762 3.6967 0.635762 3.98959 0.928652ZM17.0711 0.928652C20.9763 4.8339 20.9763 11.1655 17.0711 15.0708C16.7782 15.3637 16.3033 15.3637 16.0104 15.0708C15.7175 14.7779 15.7175 14.303 16.0104 14.0101C19.3299 10.6907 19.3299 5.30877 16.0104 1.98931C15.7175 1.69642 15.7175 1.22155 16.0104 0.928652C16.3033 0.635762 16.7782 0.635762 17.0711 0.928652ZM6.81802 3.75708C7.11091 4.04997 7.11091 4.52485 6.81802 4.81774C5.06066 6.5751 5.06066 9.4243 6.81802 11.1817C7.11091 11.4746 7.11091 11.9495 6.81802 12.2424C6.52513 12.5353 6.05025 12.5353 5.75736 12.2424C3.41421 9.8992 3.41421 6.1002 5.75736 3.75708C6.05025 3.46419 6.52513 3.46419 6.81802 3.75708ZM14.2426 3.75708C16.5858 6.1002 16.5858 9.8992 14.2426 12.2424C13.9497 12.5353 13.4749 12.5353 13.182 12.2424C12.8891 11.9495 12.8891 11.4746 13.182 11.1817C14.9393 9.4243 14.9393 6.5751 13.182 4.81774C12.8891 4.52485 12.8891 4.04997 13.182 3.75708C13.4749 3.46419 13.9497 3.46419 14.2426 3.75708ZM10 6.4997C10.8284 6.4997 11.5 7.1713 11.5 7.9997C11.5 8.8281 10.8284 9.4997 10 9.4997C9.1716 9.4997 8.5 8.8281 8.5 7.9997C8.5 7.1713 9.1716 6.4997 10 6.4997Z" fill="currentColor"/>
</svg>