<svg width="48" height="48" viewBox="0 0 48 48" fill="none" xmlns="http://www.w3.org/2000/svg">
<path d="M24 22.5C19.864 22.5 16.5 19.136 16.5 15C16.5 10.864 19.864 7.5 24 7.5C28.136 7.5 31.5 10.864 31.5 15C31.5 19.136 28.136 22.5 24 22.5ZM24 10.5C21.518 10.5 19.5 12.518 19.5 15C19.5 17.482 21.518 19.5 24 19.5C26.482 19.5 28.5 17.482 28.5 15C28.5 12.518 26.482 10.5 24 10.5Z" fill="currentColor"/>
<path d="M23.996 41.482C23.516 41.482 23.056 41.33 22.666 41.044C22.478 40.906 22.316 40.742 22.18 40.558C10.284 24.174 9 17.226 9 15C9 6.73 15.73 0 24 0C32.27 0 39 6.73 39 15C39 21.87 28.914 36.296 25.822 40.554C25.464 41.044 24.938 41.364 24.342 41.454C24.228 41.474 24.112 41.482 23.996 41.482ZM24 3C17.384 3 12 8.384 12 15C12 19.582 18.328 30.028 24 37.95C29.67 30.028 36 19.582 36 15C36 8.384 30.616 3 24 3Z" fill="currentColor"/>
<path d="M24 48.0004C18.488 48.0004 13.01 47.3604 8.972 46.2424C4.084 44.8904 1.5 42.9044 1.5 40.5004C1.5 36.8944 7.05 35.0324 11.706 34.1044C11.798 34.0844 11.902 34.0744 12.004 34.0744C12.714 34.0744 13.33 34.5824 13.47 35.2824C13.548 35.6764 13.47 36.0764 13.246 36.4084C13.024 36.7424 12.684 36.9684 12.292 37.0464C6.462 38.2084 4.5 39.9044 4.5 40.5004C4.5 40.8524 5.43 42.1204 9.562 43.3004C13.398 44.3964 18.524 45.0004 24 45.0004C29.476 45.0004 34.602 44.3964 38.438 43.3004C42.57 42.1204 43.5 40.8524 43.5 40.5004C43.5 39.9024 41.528 38.2004 35.666 37.0404C35.272 36.9624 34.934 36.7364 34.71 36.4024C34.486 36.0684 34.408 35.6704 34.484 35.2764C34.622 34.5764 35.242 34.0684 35.956 34.0684C36.052 34.0684 36.15 34.0784 36.248 34.0984C40.924 35.0244 46.498 36.8864 46.498 40.5024C46.498 42.9064 43.914 44.8924 39.026 46.2444C34.99 47.3604 29.512 48.0004 24 48.0004Z" fill="currentColor"/>
</svg>
