<svg width="20" height="20" viewBox="0 0 20 20" fill="none" xmlns="http://www.w3.org/2000/svg">
<path d="M10.2068 17.2842C10.0068 17.2842 9.81516 17.2208 9.65266 17.1017C9.57433 17.0442 9.50683 16.9758 9.45016 16.8992C4.4935 10.0725 3.9585 7.1775 3.9585 6.25C3.9585 2.80417 6.76266 0 10.2085 0C13.6543 0 16.4585 2.80417 16.4585 6.25C16.4585 9.1125 12.256 15.1233 10.9677 16.8975C10.8185 17.1017 10.5993 17.235 10.351 17.2725C10.3035 17.2808 10.2552 17.2842 10.2068 17.2842ZM10.2085 1.25C7.45183 1.25 5.2085 3.49333 5.2085 6.25C5.2085 8.15917 7.84516 12.5117 10.2085 15.8125C12.571 12.5117 15.2085 8.15917 15.2085 6.25C15.2085 3.49333 12.9652 1.25 10.2085 1.25Z" fill="currentColor"/>
<path d="M12.4434 14.2742C12.3126 14.2742 12.1867 14.2333 12.0792 14.1575C9.00257 11.9475 8.0634 7.85083 9.83507 4.535L7.8709 5.06167C7.8184 5.07583 7.7634 5.0825 7.7084 5.0825C7.4259 5.0825 7.1784 4.89167 7.10507 4.61917C7.06174 4.45833 7.08424 4.29 7.16757 4.145C7.2509 4.00083 7.3859 3.89667 7.54674 3.85417L10.9609 2.93917C11.0134 2.925 11.0692 2.91667 11.1259 2.91667C11.2351 2.91667 11.3426 2.94583 11.4376 3C11.5917 3.08917 11.7001 3.24083 11.7367 3.41667L12.6426 6.79583C12.6859 6.95667 12.6634 7.12583 12.5801 7.27C12.4967 7.41417 12.3617 7.51833 12.2009 7.56083C12.1484 7.575 12.0942 7.5825 12.0392 7.5825C11.7567 7.5825 11.5084 7.39167 11.4359 7.11917L10.9134 5.17167C9.47174 7.92667 10.2601 11.3117 12.8084 13.1417C12.9442 13.2392 13.0334 13.3833 13.0609 13.5483C13.0884 13.7133 13.0492 13.8783 12.9517 14.0142C12.8342 14.1767 12.6451 14.2742 12.4434 14.2742Z" fill="currentColor"/>
<path d="M10.2085 20C7.91183 20 5.62933 19.7333 3.94683 19.2675C1.91016 18.7042 0.833496 17.8767 0.833496 16.875C0.833496 15.3725 3.146 14.5967 5.086 14.21C5.12433 14.2017 5.16766 14.1975 5.21016 14.1975C5.506 14.1975 5.76266 14.4092 5.821 14.7008C5.8535 14.865 5.821 15.0317 5.72766 15.17C5.63516 15.3092 5.4935 15.4033 5.33016 15.4358C2.901 15.92 2.0835 16.6267 2.0835 16.875C2.0835 17.0217 2.471 17.55 4.19266 18.0417C5.791 18.4983 7.92683 18.75 10.2085 18.75C12.4902 18.75 14.626 18.4983 16.2243 18.0417C17.946 17.55 18.3335 17.0217 18.3335 16.875C18.3335 16.6258 17.5118 15.9167 15.0693 15.4333C14.9052 15.4008 14.7643 15.3067 14.671 15.1675C14.5777 15.0283 14.5452 14.8625 14.5768 14.6983C14.6343 14.4067 14.8927 14.195 15.1902 14.195C15.2302 14.195 15.271 14.1992 15.3118 14.2075C17.2602 14.5933 19.5827 15.3692 19.5827 16.8758C19.5827 17.8775 18.506 18.705 16.4693 19.2683C14.7877 19.7333 12.5052 20 10.2085 20Z" fill="currentColor"/>
</svg>
