<svg width="48" height="48" viewBox="0 0 48 48" fill="none" xmlns="http://www.w3.org/2000/svg">
<g clip-path="url(#clip0_4_1108)">
<path d="M24 31.5C19.864 31.5 16.5 28.136 16.5 24C16.5 19.864 19.864 16.5 24 16.5C28.136 16.5 31.5 19.864 31.5 24C31.5 28.136 28.136 31.5 24 31.5ZM24 19.5C21.518 19.5 19.5 21.518 19.5 24C19.5 26.482 21.518 28.5 24 28.5C26.482 28.5 28.5 26.482 28.5 24C28.5 21.518 26.482 19.5 24 19.5Z" fill="currentColor"/>
<path d="M24 48C23.172 48 22.5 47.328 22.5 46.5V40.432C14.534 39.72 8.282 33.468 7.568 25.5H1.5C0.672 25.5 0 24.828 0 24C0 23.172 0.672 22.5 1.5 22.5H7.568C8.282 14.534 14.534 8.282 22.5 7.568V1.5C22.5 0.672 23.172 0 24 0C24.828 0 25.5 0.672 25.5 1.5V7.568C33.466 8.282 39.718 14.534 40.432 22.5H46.5C47.328 22.5 48 23.172 48 24C48 24.828 47.328 25.5 46.5 25.5H40.432C39.72 33.466 33.468 39.718 25.5 40.432V46.5C25.5 47.328 24.828 48 24 48ZM24 10.5C16.556 10.5 10.5 16.556 10.5 24C10.5 31.444 16.556 37.5 24 37.5C31.444 37.5 37.5 31.444 37.5 24C37.5 16.556 31.444 10.5 24 10.5Z" fill="currentColor"/>
</g>
<defs>
<clipPath id="clip0_4_1108">
<rect width="48" height="48" fill="currentColor"/>
</clipPath>
</defs>
</svg>
