<svg width="24" height="24" viewBox="0 0 24 24" fill="none" xmlns="http://www.w3.org/2000/svg">
<g clip-path="url(#clip0_504_24814)">
<path d="M4.5 21C2.639 21 1.125 19.486 1.125 17.625C1.125 15.764 2.639 14.25 4.5 14.25C6.361 14.25 7.875 15.764 7.875 17.625C7.875 19.486 6.361 21 4.5 21ZM4.5 15.75C3.466 15.75 2.625 16.591 2.625 17.625C2.625 18.659 3.466 19.5 4.5 19.5C5.534 19.5 6.375 18.659 6.375 17.625C6.375 16.591 5.534 15.75 4.5 15.75Z" fill="currentColor"/>
<path d="M0.748864 24C0.626864 24 0.504864 23.969 0.395864 23.912C0.0308636 23.718 -0.107136 23.263 0.0868636 22.898C0.555864 22.019 1.26786 21.307 2.14586 20.839C2.86686 20.455 3.67786 20.252 4.49086 20.252C6.34586 20.252 8.03986 21.266 8.91086 22.898C9.10586 23.263 8.96686 23.718 8.60186 23.913C8.49386 23.969 8.37186 24 8.24986 24C7.97186 24 7.71886 23.848 7.58786 23.603C6.97886 22.46 5.79286 21.75 4.49286 21.75C3.92386 21.75 3.35686 21.892 2.85186 22.161C2.23686 22.489 1.73886 22.987 1.41086 23.602C1.28086 23.848 1.02686 24 0.748864 24Z" fill="currentColor"/>
<path d="M23.2498 24C22.9718 24 22.7178 23.848 22.5878 23.603C22.1478 22.779 21.4128 22.174 20.5188 21.902C20.1848 21.8 19.8398 21.749 19.4958 21.749C18.9288 21.749 18.3608 21.892 17.8528 22.163C17.2378 22.491 16.7398 22.989 16.4118 23.604C16.2808 23.848 16.0268 24 15.7498 24C15.6278 24 15.5058 23.969 15.3968 23.912C15.0318 23.717 14.8938 23.262 15.0878 22.897C15.5568 22.018 16.2678 21.306 17.1468 20.838C17.3608 20.723 17.5838 20.625 17.8108 20.543C16.8038 19.957 16.1248 18.866 16.1248 17.624C16.1248 15.763 17.6388 14.249 19.4998 14.249C21.3608 14.249 22.8748 15.763 22.8748 17.624C22.8748 18.866 22.1958 19.957 21.1888 20.543C22.3608 20.962 23.3218 21.79 23.9118 22.896C24.0058 23.073 24.0258 23.276 23.9678 23.468C23.9098 23.659 23.7798 23.817 23.6028 23.911C23.4948 23.969 23.3728 24 23.2498 24ZM19.4998 15.75C18.4658 15.75 17.6248 16.591 17.6248 17.625C17.6248 18.659 18.4658 19.5 19.4998 19.5C20.5338 19.5 21.3748 18.659 21.3748 17.625C21.3748 16.591 20.5338 15.75 19.4998 15.75Z" fill="currentColor"/>
<path d="M12 6.75C10.139 6.75 8.625 5.236 8.625 3.375C8.625 1.514 10.139 0 12 0C13.861 0 15.375 1.514 15.375 3.375C15.375 5.236 13.861 6.75 12 6.75ZM12 1.5C10.966 1.5 10.125 2.341 10.125 3.375C10.125 4.409 10.966 5.25 12 5.25C13.034 5.25 13.875 4.409 13.875 3.375C13.875 2.341 13.034 1.5 12 1.5Z" fill="currentColor"/>
<path d="M15.249 9.00002C15.029 9.00002 14.821 8.90402 14.678 8.73602C14.009 7.95102 13.032 7.50002 11.996 7.50002C11.161 7.50002 10.352 7.79802 9.71698 8.33802C9.57498 8.46002 9.44098 8.59402 9.31998 8.73602C9.17698 8.90402 8.96898 9.00002 8.74898 9.00002C8.57098 9.00002 8.39798 8.93602 8.26198 8.82102C8.10998 8.69102 8.01698 8.51002 8.00098 8.31002C7.98498 8.11002 8.04798 7.91602 8.17798 7.76402C8.35098 7.56002 8.54198 7.37002 8.74498 7.19702C9.65198 6.42402 10.806 5.99902 11.992 5.99902C12.127 5.99902 12.263 6.00402 12.399 6.01502C13.736 6.12202 14.951 6.74302 15.819 7.76402C15.949 7.91702 16.012 8.11002 15.996 8.31002C15.98 8.51002 15.887 8.69102 15.735 8.82102C15.6 8.93602 15.427 9.00002 15.249 9.00002Z" fill="currentColor"/>
<path d="M11.9988 21.001C10.8978 21.001 9.81583 20.802 8.78383 20.408C8.59683 20.337 8.44883 20.197 8.36683 20.014C8.28483 19.831 8.27883 19.627 8.35083 19.44C8.46083 19.151 8.74183 18.957 9.05083 18.957C9.14283 18.957 9.23283 18.974 9.31883 19.007C10.1788 19.335 11.0808 19.501 11.9988 19.501C12.9328 19.501 13.8498 19.329 14.7228 18.99C14.8098 18.956 14.9008 18.939 14.9938 18.939C15.3008 18.939 15.5818 19.131 15.6928 19.418C15.8428 19.804 15.6508 20.239 15.2648 20.389C14.2188 20.795 13.1188 21.001 11.9988 21.001Z" fill="currentColor"/>
<path d="M3.78602 13.5C3.39602 13.5 3.07502 13.207 3.04002 12.818C3.01202 12.513 2.99902 12.253 2.99902 12C2.99802 9.529 4.03202 7.142 5.83602 5.453C5.97602 5.322 6.15802 5.25 6.34902 5.25C6.55602 5.25 6.75502 5.337 6.89602 5.487C7.03302 5.633 7.10502 5.824 7.09802 6.024C7.09102 6.224 7.00702 6.41 6.86102 6.547C5.35902 7.954 4.49802 9.942 4.49902 12C4.49902 12.206 4.51002 12.423 4.53402 12.682C4.57202 13.093 4.26802 13.459 3.85602 13.497C3.83002 13.499 3.80802 13.5 3.78602 13.5Z" fill="currentColor"/>
<path d="M20.2118 13.5C20.1898 13.5 20.1688 13.499 20.1468 13.497C19.9458 13.479 19.7648 13.385 19.6368 13.231C19.5078 13.077 19.4468 12.883 19.4648 12.683C19.4888 12.412 19.4998 12.195 19.4998 12C19.5008 9.94098 18.6398 7.95398 17.1368 6.54798C16.8348 6.26498 16.8198 5.78898 17.1018 5.48798C17.2428 5.33698 17.4418 5.25098 17.6488 5.25098C17.8398 5.25098 18.0218 5.32298 18.1608 5.45298C19.9668 7.14198 21.0008 9.52798 20.9998 12C20.9998 12.242 20.9868 12.501 20.9588 12.816C20.9238 13.206 20.6028 13.5 20.2118 13.5Z" fill="currentColor"/>
</g>
<defs>
<clipPath id="clip0_504_24814">
<rect width="24" height="24" fill="currentColor"/>
</clipPath>
</defs>
</svg>
