<svg width="48" height="48" viewBox="0 0 48 48" fill="none" xmlns="http://www.w3.org/2000/svg">
<path fill-rule="evenodd" clip-rule="evenodd" d="M31 40C31 41.6569 29.6569 43 28 43H4C2.34315 43 1 41.6569 1 40C1 38.3431 2.34315 37 4 37H28C29.6569 37 31 38.3431 31 40Z" fill="currentColor"/>
<path fill-rule="evenodd" clip-rule="evenodd" d="M47 24C47 25.6569 45.6569 27 44 27H4C2.34315 27 1 25.6569 1 24C1 22.3431 2.34315 21 4 21H44C45.6569 21 47 22.3431 47 24Z" fill="currentColor"/>
<path fill-rule="evenodd" clip-rule="evenodd" d="M47 8C47 9.65685 45.6569 11 44 11H4C2.34315 11 1 9.65685 1 8C1 6.34315 2.34315 5 4 5H44C45.6569 5 47 6.34315 47 8Z" fill="currentColor"/>
</svg>
