<svg width="19" height="19" viewBox="0 0 19 19" fill="none" xmlns="http://www.w3.org/2000/svg">
<path d="M17.1036 1L10.0801 6.21647L11.3789 3.13882L17.1036 1Z" fill="#E2761B" stroke="#E2761B" stroke-linecap="round" stroke-linejoin="round"/>
<path d="M0.889614 1L7.85667 6.26588L6.62138 3.13882L0.889614 1ZM14.5767 13.0918L12.7061 15.9576L16.7084 17.0588L17.859 13.1553L14.5767 13.0918ZM0.148438 13.1553L1.29197 17.0588L5.29432 15.9576L3.42373 13.0918L0.148438 13.1553Z" fill="#E4761B" stroke="#E4761B" stroke-linecap="round" stroke-linejoin="round"/>
<path d="M5.06842 8.24944L3.95312 9.9365L7.92724 10.113L7.78607 5.84238L5.06842 8.24944ZM12.9249 8.24944L10.1719 5.79297L10.0802 10.113L14.0472 9.9365L12.9249 8.24944ZM5.2943 15.9577L7.68018 14.793L5.61901 13.1836L5.2943 15.9577ZM10.3131 14.793L12.7061 15.9577L12.3743 13.1836L10.3131 14.793Z" fill="#E4761B" stroke="#E4761B" stroke-linecap="round" stroke-linejoin="round"/>
<path d="M12.7067 15.9577L10.3137 14.793L10.5043 16.353L10.4832 17.0094L12.7067 15.9577ZM5.29492 15.9577L7.51845 17.0094L7.50433 16.353L7.6808 14.793L5.29492 15.9577Z" fill="#D7C1B3" stroke="#D7C1B3" stroke-linecap="round" stroke-linejoin="round"/>
<path d="M7.55309 12.153L5.5625 11.5672L6.96721 10.9248L7.55309 12.153ZM10.4401 12.153L11.026 10.9248L12.4378 11.5672L10.4401 12.153Z" fill="#233447" stroke="#233447" stroke-linecap="round" stroke-linejoin="round"/>
<path d="M5.29442 15.9577L5.63324 13.0918L3.42383 13.1553L5.29442 15.9577ZM12.3674 13.0918L12.7062 15.9577L14.5768 13.1553L12.3674 13.0918ZM14.0474 9.93652L10.0803 10.113L10.4474 12.153L11.0332 10.9248L12.445 11.5671L14.0474 9.93652ZM5.56265 11.5671L6.97442 10.9248L7.55324 12.153L7.92736 10.113L3.95324 9.93652L5.56265 11.5671Z" fill="#CD6116" stroke="#CD6116" stroke-linecap="round" stroke-linejoin="round"/>
<path d="M3.95312 9.93652L5.61901 13.1836L5.56254 11.5671L3.95312 9.93652ZM12.4449 11.5671L12.3743 13.1836L14.0472 9.93652L12.4449 11.5671ZM7.92724 10.113L7.55313 12.153L8.01901 14.5601L8.12489 11.3906L7.92724 10.113ZM10.0802 10.113L9.8896 11.3836L9.9743 14.5601L10.4472 12.153L10.0802 10.113Z" fill="#E4751F" stroke="#E4751F" stroke-linecap="round" stroke-linejoin="round"/>
<path d="M10.4472 12.1528L9.97427 14.5598L10.3131 14.7928L12.3743 13.1834L12.4449 11.5669L10.4472 12.1528ZM5.5625 11.5669L5.61897 13.1834L7.68015 14.7928L8.01897 14.5598L7.55309 12.1528L5.5625 11.5669Z" fill="#F6851B" stroke="#F6851B" stroke-linecap="round" stroke-linejoin="round"/>
<path d="M10.4832 17.0093L10.5043 16.3528L10.3279 16.1975H7.66669L7.50433 16.3528L7.51845 17.0093L5.29492 15.9575L6.07139 16.5928L7.64551 17.6869H10.349L11.9302 16.5928L12.7067 15.9575L10.4832 17.0093Z" fill="#C0AD9E" stroke="#C0AD9E" stroke-linecap="round" stroke-linejoin="round"/>
<path d="M10.3133 14.793L9.97449 14.5601H8.0192L7.68038 14.793L7.50391 16.353L7.66626 16.1977H10.3274L10.5039 16.353L10.3133 14.793Z" fill="#161616" stroke="#161616" stroke-linecap="round" stroke-linejoin="round"/>
<path d="M17.4 6.55529L18 3.67529L17.1035 1L10.3129 6.04L12.9247 8.24941L16.6165 9.32941L17.4353 8.37647L17.0824 8.12235L17.6471 7.60706L17.2094 7.26824L17.7741 6.83765L17.4 6.55529ZM0 3.67529L0.6 6.55529L0.218824 6.83765L0.78353 7.26824L0.352941 7.60706L0.917647 8.12235L0.564706 8.37647L1.37647 9.32941L5.06824 8.24941L7.68 6.04L0.889412 1L0 3.67529Z" fill="#763D16" stroke="#763D16" stroke-linecap="round" stroke-linejoin="round"/>
<path d="M16.6167 9.32926L12.9249 8.24926L14.0473 9.93632L12.3743 13.1834L14.5767 13.1551H17.859L16.6167 9.32926ZM5.06844 8.24926L1.37667 9.32926L0.148438 13.1551H3.42373L5.61903 13.1834L3.95314 9.93632L5.06844 8.24926ZM10.0802 10.1128L10.3131 6.03985L11.3861 3.13867H6.62138L7.6802 6.03985L7.92726 10.1128L8.01197 11.3975L8.01903 14.5599H9.97432L9.98844 11.3975L10.0802 10.1128Z" fill="#F6851B" stroke="#F6851B" stroke-linecap="round" stroke-linejoin="round"/>
</svg>
