<svg width="14" height="20" viewBox="0 0 14 20" fill="none" xmlns="http://www.w3.org/2000/svg">
<path d="M11.375 10C11.375 12.4 9.4325 14.3542 7.0375 14.375H6.9625C4.5675 14.3542 2.625 12.4 2.625 10V4.375C2.625 3.6225 2.81583 2.91417 3.15167 2.295C3.15833 2.28083 3.16583 2.26667 3.17333 2.2525C3.66333 1.37 4.43333 0.7 5.3375 0.328333L5.36167 0.318333C5.78 0.149167 6.23 0.0425 6.70083 0.01L6.72 0.00916667L6.77667 0.00583333L6.85083 0.0025L6.96167 0H7.03833L7.14917 0.0025L7.26 0.0075L7.28 0.00916667L7.29917 0.01C7.76917 0.0425 8.22 0.149167 8.63833 0.318333L8.6625 0.328333C9.56667 0.7 10.3367 1.37 10.8267 2.2525C10.8342 2.26667 10.8417 2.28083 10.8483 2.295C11.1842 2.91417 11.375 3.6225 11.375 4.375V10ZM10.125 4.375C10.125 3.07917 9.3325 1.965 8.20583 1.49167L8.19417 1.48667C7.8375 1.34 7.4525 1.2575 7.055 1.25083L7.02417 1.25H6.96917L6.945 1.25083C6.5475 1.2575 6.16167 1.34 5.80583 1.48667L5.79417 1.49167C4.6675 1.965 3.875 3.07917 3.875 4.375V10C3.875 11.5908 5.07 12.9083 6.60917 13.1008L7 13.125L7.39083 13.1008C8.93 12.9083 10.125 11.5908 10.125 10V4.375Z" fill="currentColor"/>
<path d="M7 20C6.655 20 6.375 19.72 6.375 19.375V16.8467C2.84667 16.5292 0.125 13.5775 0.125 10V8.125C0.125 7.78 0.405 7.5 0.75 7.5C1.095 7.5 1.375 7.78 1.375 8.125V10C1.375 13.1017 3.89833 15.625 7 15.625C10.1017 15.625 12.625 13.1017 12.625 10V8.125C12.625 7.78 12.905 7.5 13.25 7.5C13.595 7.5 13.875 7.78 13.875 8.125V10C13.875 13.5775 11.1533 16.5292 7.625 16.8467V19.375C7.625 19.72 7.345 20 7 20Z" fill="currentColor"/>
</svg>
