<svg width="18" height="20" viewBox="0 0 18 20" fill="none" xmlns="http://www.w3.org/2000/svg">
<path d="M8.99976 14.375C6.58726 14.375 4.62476 12.4125 4.62476 10V9.375C4.62476 9.03 4.90476 8.75 5.24976 8.75C5.59476 8.75 5.87476 9.03 5.87476 9.375V10C5.87476 11.7233 7.27643 13.125 8.99976 13.125C9.12976 13.125 9.26143 13.1167 9.3906 13.1008C9.41726 13.0975 9.4431 13.0958 9.46893 13.0958C9.7831 13.0958 10.0489 13.3317 10.0881 13.6433C10.1089 13.8092 10.0639 13.9725 9.9606 14.1042C9.8581 14.2358 9.7106 14.32 9.54476 14.34C9.36476 14.3633 9.18143 14.375 8.99976 14.375Z" fill="currentColor"/>
<path d="M12.7499 10.625C12.4049 10.625 12.1249 10.345 12.1249 10V4.375C12.1249 2.65167 10.7232 1.25 8.99986 1.25C7.86402 1.25 6.81653 1.86667 6.26653 2.85917C6.15653 3.0575 5.94736 3.18083 5.71986 3.18083C5.61403 3.18083 5.50903 3.15333 5.41653 3.1025C5.27069 3.02167 5.16486 2.88833 5.11903 2.7275C5.07319 2.56667 5.09236 2.39833 5.17319 2.2525C5.94403 0.863333 7.41069 0 8.99902 0C11.4124 0 13.3749 1.9625 13.3749 4.375V10C13.3749 10.345 13.0949 10.625 12.7499 10.625Z" fill="currentColor"/>
<path d="M8.99976 20C8.65476 20 8.37476 19.72 8.37476 19.375V16.855C4.93226 16.5983 2.21226 13.765 2.12476 10.2783V8.125C2.12476 7.78 2.4056 7.5 2.74976 7.5C3.09393 7.5 3.37476 7.78 3.37476 8.125V10.2633C3.44893 13.2167 5.92476 15.6258 8.89476 15.6258L8.98893 15.625C9.81976 15.625 10.6106 15.4583 11.3531 15.1292C11.4339 15.0933 11.5181 15.0758 11.6056 15.0758C11.8531 15.0758 12.0773 15.2217 12.1781 15.4475C12.3173 15.7625 12.1748 16.1325 11.8598 16.2725C11.1481 16.5875 10.3973 16.7808 9.62476 16.8475V19.375C9.62476 19.72 9.34476 20 8.99976 20Z" fill="currentColor"/>
<path d="M14.7833 13.1517C14.6974 13.1517 14.6141 13.1342 14.5349 13.1C14.2191 12.9642 14.0733 12.5958 14.2091 12.2792C14.4849 11.6383 14.6249 10.96 14.6249 10.2633V8.125C14.6249 7.78 14.9058 7.5 15.2499 7.5C15.5941 7.5 15.8749 7.78 15.8749 8.125V10.2633C15.8749 11.1317 15.7016 11.9767 15.3566 12.7742C15.2591 13.0033 15.0333 13.1517 14.7833 13.1517Z" fill="currentColor"/>
<path d="M16.4999 18.125C16.3307 18.125 16.1665 18.055 16.049 17.9333L1.04902 2.30833C0.934018 2.1875 0.871517 2.02917 0.875684 1.8625C0.879017 1.69583 0.947351 1.54 1.06735 1.42417C1.18402 1.31167 1.33818 1.25 1.49985 1.25C1.66902 1.25 1.83402 1.32 1.95068 1.4425L16.9507 17.0675C17.0665 17.1883 17.1282 17.3458 17.1249 17.5133C17.1215 17.68 17.0532 17.8358 16.9324 17.9517C16.8157 18.0633 16.6624 18.125 16.4999 18.125Z" fill="#F25D05"/>
</svg>
