<svg width="26" height="26" viewBox="0 0 26 26" fill="none" xmlns="http://www.w3.org/2000/svg">
<g clip-path="url(#clip0_396_21816)">
<path d="M9.45064 26.0021C8.92875 26.0021 8.50518 25.5786 8.50518 25.0569V18.4374C8.50518 17.9157 8.08162 17.4923 7.55973 17.4923H0.941547C0.419656 17.4923 -0.00390625 17.0689 -0.00390625 16.5472C-0.00390625 16.0255 0.419656 15.6021 0.941547 15.6021H7.55973C9.12414 15.6021 10.3961 16.8735 10.3961 18.4374V25.0569C10.3961 25.5786 9.97127 26.0021 9.45064 26.0021Z" fill="currentColor"/>
<path d="M1.59194 10.402C1.07005 10.402 0.646484 9.97824 0.646484 9.45615C0.646484 8.93407 1.07005 8.51036 1.59194 8.51036H8.21012C8.73201 8.51036 9.15557 8.08664 9.15557 7.56456V0.947752C9.15557 0.425671 9.57914 0.00195312 10.101 0.00195312C10.6229 0.00195312 11.0465 0.425671 11.0465 0.947752V7.56456C11.0465 9.12954 9.77453 10.402 8.21012 10.402H1.59194Z" fill="currentColor"/>
<path d="M18.4321 10.402C16.8677 10.402 15.5957 9.13 15.5957 7.56559V0.947408C15.5957 0.425517 16.0193 0.00195312 16.5412 0.00195312C17.063 0.00195312 17.4866 0.425517 17.4866 0.947408V7.56559C17.4866 8.08748 17.9102 8.51104 18.4321 8.51104H25.0502C25.5721 8.51104 25.9957 8.93461 25.9957 9.4565C25.9957 9.97839 25.5709 10.402 25.0502 10.402H18.4321Z" fill="currentColor"/>
<path d="M16.5412 26.0021C16.0193 26.0021 15.5957 25.5786 15.5957 25.0569V18.4374C15.5957 16.8735 16.8677 15.6021 18.4321 15.6021H25.0502C25.5721 15.6021 25.9957 16.0255 25.9957 16.5472C25.9957 17.0689 25.5721 17.4923 25.0502 17.4923H18.4321C17.9102 17.4923 17.4866 17.9157 17.4866 18.4374V25.0569C17.4866 25.5786 17.0618 26.0021 16.5412 26.0021Z" fill="currentColor"/>
</g>
<defs>
<clipPath id="clip0_396_21816">
<rect width="26" height="26" fill="currentColor"/>
</clipPath>
</defs>
</svg>
