<svg width="16" height="16" viewBox="0 0 16 16" fill="none" xmlns="http://www.w3.org/2000/svg">
<g clip-path="url(#clip0_7557_68875)">
<path d="M11.5 9C9.01867 9 7 6.98133 7 4.5C7 2.01867 9.01867 0 11.5 0C13.9813 0 16 2.01867 16 4.5C16 6.98133 13.9813 9 11.5 9ZM11.5 1C9.57 1 8 2.57 8 4.5C8 6.43 9.57 8 11.5 8C13.43 8 15 6.43 15 4.5C15 2.57 13.43 1 11.5 1Z" fill="currentColor"/>
<path d="M11.5 7C11.224 7 11 6.776 11 6.5V3.70733L10.3533 4.354C10.2593 4.448 10.1333 4.5 10 4.5C9.86667 4.5 9.74067 4.448 9.64667 4.35333C9.552 4.25933 9.5 4.13333 9.5 4C9.5 3.86667 9.552 3.74067 9.64667 3.64667L11.1467 2.14667C11.1933 2.1 11.2487 2.06333 11.31 2.038C11.3147 2.036 11.3207 2.034 11.326 2.032C11.38 2.01133 11.4393 2 11.5 2C11.5593 2 11.6173 2.01067 11.674 2.032C11.6813 2.03467 11.6887 2.03733 11.6953 2.04C11.752 2.06333 11.8067 2.1 11.854 2.14667L13.354 3.64667C13.448 3.74067 13.5 3.86667 13.5 4C13.5 4.13333 13.448 4.25933 13.3533 4.35333C13.2587 4.44733 13.1333 4.5 13 4.5C12.8667 4.5 12.7407 4.448 12.6467 4.35333L12 3.70733V6.5C12 6.776 11.776 7 11.5 7Z" fill="currentColor"/>
<path d="M4 16C3.724 16 3.5 15.776 3.5 15.5C3.5 15.224 3.724 15 4 15H5.10933L5.35933 14H2.5C1.12133 14 0 12.8787 0 11.5V4.5C0 3.12133 1.12133 2 2.5 2H5.5C5.776 2 6 2.224 6 2.5C6 2.776 5.776 3 5.5 3H2.5C1.67267 3 1 3.67267 1 4.5V11H15V9.5C15 9.224 15.224 9 15.5 9C15.776 9 16 9.224 16 9.5V11.5C16 12.8787 14.8787 14 13.5 14H10.64L10.89 15H12C12.276 15 12.5 15.224 12.5 15.5C12.5 15.776 12.276 16 12 16H4ZM9.86 15L9.61 14H6.39067L6.14067 15H9.86ZM1.088 12C1.29667 12.586 1.86 13 2.5 13H13.5C14.14 13 14.7033 12.586 14.912 12H1.088Z" fill="currentColor"/>
<path d="M11.5 9C9.01867 9 7 6.98133 7 4.5C7 2.01867 9.01867 0 11.5 0C13.9813 0 16 2.01867 16 4.5C16 6.98133 13.9813 9 11.5 9ZM11.5 1C9.57 1 8 2.57 8 4.5C8 6.43 9.57 8 11.5 8C13.43 8 15 6.43 15 4.5C15 2.57 13.43 1 11.5 1Z" fill="currentColor"/>
</g>
<defs>
<clipPath id="clip0_7557_68875">
<rect width="16" height="16" fill="white"/>
</clipPath>
</defs>
</svg>
