<svg width="48" height="48" viewBox="0 0 48 48" fill="none" xmlns="http://www.w3.org/2000/svg">
<g clip-path="url(#clip0_4_810)">
<path d="M23.9883 29.9941C20.6803 29.9941 17.9883 27.3021 17.9883 23.9941C17.9883 20.6861 20.6803 17.9941 23.9883 17.9941C27.2964 17.9941 29.9884 20.6861 29.9884 23.9941C29.9884 27.3021 27.2964 29.9941 23.9883 29.9941ZM23.9883 20.9941C22.3343 20.9941 20.9883 22.3401 20.9883 23.9941C20.9883 25.6481 22.3343 26.9941 23.9883 26.9941C25.6424 26.9941 26.9884 25.6481 26.9884 23.9941C26.9884 22.3401 25.6424 20.9941 23.9883 20.9941Z" fill="currentColor"/>
<path d="M23.9996 38.9943C23.4256 38.9943 22.8456 38.9603 22.2736 38.8943C14.0576 37.9483 8.14164 30.4942 9.08764 22.2782C9.95964 14.7042 16.3656 8.99414 23.9896 8.99414C24.8156 8.99414 25.4896 9.66614 25.4896 10.4941C25.4896 10.8941 25.3336 11.2701 25.0516 11.5542C24.7676 11.8382 24.3916 11.9942 23.9896 11.9942C17.8916 11.9942 12.7656 16.5642 12.0696 22.6222C11.7036 25.8002 12.6016 28.9362 14.5956 31.4502C16.5896 33.9642 19.4396 35.5503 22.6176 35.9163C23.0756 35.9683 23.5416 35.9963 23.9996 35.9963C30.0936 35.9963 35.2136 31.4262 35.9096 25.3682C35.9976 24.6102 36.6376 24.0402 37.3996 24.0402C37.4576 24.0402 37.5136 24.0442 37.5716 24.0502C38.3936 24.1442 38.9856 24.8902 38.8896 25.7122C38.0176 33.2822 31.6156 38.9943 23.9996 38.9943Z" fill="currentColor"/>
<path d="M23.9625 47.993C21.8085 47.993 19.6645 47.703 17.5905 47.131C16.7925 46.911 16.3225 46.083 16.5425 45.285C16.7205 44.637 17.3165 44.183 17.9885 44.183C18.1225 44.183 18.2545 44.201 18.3845 44.237C20.2005 44.737 22.0765 44.991 23.9605 44.991C25.8305 44.991 27.6925 44.741 29.4945 44.249C34.8905 42.775 39.3905 39.2791 42.1705 34.4071C44.9505 29.5351 45.6685 23.8811 44.1925 18.4851C42.7145 13.0811 39.2225 8.57714 34.3565 5.79914C31.1845 3.98915 27.6025 3.03315 23.9965 3.03315C22.1285 3.03315 20.2565 3.28715 18.4305 3.78515C13.0265 5.26514 8.52252 8.75913 5.74652 13.6251C2.97052 18.4911 2.25452 24.1471 3.73252 29.5511C3.83852 29.9371 3.78652 30.3411 3.58852 30.6891C3.39052 31.0371 3.06852 31.2871 2.68052 31.3931C2.55052 31.4291 2.41852 31.4471 2.28452 31.4471C1.61052 31.4471 1.01652 30.9931 0.838517 30.3411C-0.851483 24.1651 -0.033483 17.7011 3.14052 12.1391C6.31452 6.57714 11.4625 2.58315 17.6405 0.895154C19.7245 0.325156 21.8645 0.0351562 24.0005 0.0351562C28.1245 0.0351562 32.2205 1.12715 35.8445 3.19515C41.4065 6.36914 45.4005 11.5171 47.0885 17.6951C50.5745 30.4471 43.0365 43.657 30.2865 47.143C28.2265 47.707 26.0985 47.993 23.9625 47.993Z" fill="currentColor"/>
<path d="M34.4883 20.9941C31.1803 20.9941 28.4883 18.3021 28.4883 14.9941C28.4883 11.6861 31.1803 8.99414 34.4883 8.99414C37.7963 8.99414 40.4883 11.6861 40.4883 14.9941C40.4883 18.3021 37.7983 20.9941 34.4883 20.9941ZM34.4883 11.9941C32.8343 11.9941 31.4883 13.3401 31.4883 14.9941C31.4883 16.6481 32.8343 17.9941 34.4883 17.9941C36.1423 17.9941 37.4883 16.6481 37.4883 14.9941C37.4883 13.3401 36.1423 11.9941 34.4883 11.9941Z" fill="currentColor"/>
<path d="M7.48828 46.4939C4.18028 46.4939 1.48828 43.802 1.48828 40.494C1.48828 37.1861 4.18028 34.4941 7.48828 34.4941C10.7963 34.4941 13.4883 37.1861 13.4883 40.494C13.4883 43.802 10.7963 46.4939 7.48828 46.4939ZM7.48828 37.4941C5.83428 37.4941 4.48828 38.8401 4.48828 40.494C4.48828 42.148 5.83428 43.494 7.48828 43.494C9.14228 43.494 10.4883 42.148 10.4883 40.494C10.4883 38.8401 9.14228 37.4941 7.48828 37.4941Z" fill="currentColor"/>
</g>
<defs>
<clipPath id="clip0_4_810">
<rect width="48" height="48" fill="currentColor"/>
</clipPath>
</defs>
</svg>
