<svg width="48" height="48" viewBox="0 0 48 48" fill="none" xmlns="http://www.w3.org/2000/svg">
<path d="M30 12.5C30 11.6716 30.6716 11 31.5 11H46.5C47.3284 11 48 11.6716 48 12.5V12.5C48 13.3284 47.3284 14 46.5 14H31.5C30.6716 14 30 13.3284 30 12.5V12.5Z" fill="currentColor"/>
<path d="M30 23.5C30 22.6716 30.6716 22 31.5 22H46.5C47.3284 22 48 22.6716 48 23.5V23.5C48 24.3284 47.3284 25 46.5 25H31.5C30.6716 25 30 24.3284 30 23.5V23.5Z" fill="currentColor"/>
<path d="M30 34.5C30 33.6716 30.6716 33 31.5 33H46.5C47.3284 33 48 33.6716 48 34.5V34.5C48 35.3284 47.3284 36 46.5 36H31.5C30.6716 36 30 35.3284 30 34.5V34.5Z" fill="currentColor"/>
<path d="M0 44.5C0 43.6716 0.671573 43 1.5 43H46.5C47.3284 43 48 43.6716 48 44.5V44.5C48 45.3284 47.3284 46 46.5 46H1.5C0.671572 46 0 45.3284 0 44.5V44.5Z" fill="currentColor"/>
<path d="M0 2.5C0 1.67157 0.671573 1 1.5 1H46.5C47.3284 1 48 1.67157 48 2.5V2.5C48 3.32843 47.3284 4 46.5 4H1.5C0.671572 4 0 3.32843 0 2.5V2.5Z" fill="currentColor"/>
<path fill-rule="evenodd" clip-rule="evenodd" d="M3 14V33H22V14H3ZM2 11C0.895431 11 0 11.8954 0 13V34C0 35.1046 0.89543 36 2 36H23C24.1046 36 25 35.1046 25 34V13C25 11.8954 24.1046 11 23 11H2Z" fill="currentColor"/>
</svg>
