<svg width="48" height="48" viewBox="0 0 48 48" fill="none" xmlns="http://www.w3.org/2000/svg">
<path d="M22.0926 47.672C19.2186 47.672 16.3566 46.968 13.8166 45.634C13.4606 45.448 13.2006 45.134 13.0806 44.752C12.9606 44.37 12.9986 43.962 13.1846 43.608C13.4446 43.112 13.9546 42.804 14.5126 42.804C14.7546 42.804 14.9946 42.864 15.2106 42.976C17.3206 44.084 19.6986 44.67 22.0826 44.67C30.3326 44.558 36.8666 38.018 36.9726 29.778C37.1086 26.808 36.8366 23.866 36.1666 21.012C36.0746 20.622 36.1406 20.22 36.3526 19.878C36.5646 19.536 36.8946 19.3 37.2846 19.208C37.3966 19.182 37.5126 19.168 37.6306 19.168C38.3286 19.168 38.9286 19.644 39.0886 20.326C39.8226 23.45 40.1206 26.66 39.9726 29.866C39.8466 39.702 32.0106 47.534 22.1346 47.668C22.1306 47.668 22.1286 47.668 22.1246 47.668H22.0926V47.672Z" fill="currentColor"/>
<path d="M6.33214 35.6655C5.66014 35.6655 5.06614 35.2135 4.88614 34.5635C4.45814 33.0135 4.24414 31.4135 4.24414 29.8055C4.24414 22.9455 7.62614 16.9095 12.6621 14.7875C12.8481 14.7095 13.0441 14.6695 13.2441 14.6695C13.5101 14.6695 13.7721 14.7415 14.0021 14.8755C14.4081 15.1135 14.6821 15.5335 14.7341 16.0015C14.8681 17.1735 15.7841 18.5855 16.9601 19.4335C17.4521 19.7875 18.2221 20.2095 19.1121 20.2215C21.6921 15.0875 21.4761 8.88953 18.5181 3.94553C18.1421 3.36953 18.0721 2.60553 18.3481 1.92353C18.6961 1.07153 19.5141 0.519531 20.4361 0.519531C20.7261 0.519531 21.0081 0.575531 21.2781 0.683531C25.9361 2.47553 30.1521 5.41553 33.4581 9.18353C34.0041 9.80553 33.9401 10.7555 33.3201 11.2995C33.0461 11.5395 32.6941 11.6715 32.3321 11.6715C31.9001 11.6715 31.4901 11.4855 31.2041 11.1615C28.6761 8.27953 25.5561 5.93153 22.0941 4.29353C24.7301 10.0435 24.5001 16.7895 21.3741 22.3615C21.1621 22.7375 20.8001 23.0055 20.3761 23.0955C19.9821 23.1795 19.5761 23.2215 19.1681 23.2215C17.8061 23.2215 16.4361 22.7535 15.2081 21.8695C13.9801 20.9835 12.9521 19.7235 12.3381 18.3775C9.22014 20.5415 7.24414 24.9155 7.24414 29.8075C7.24414 31.1435 7.42414 32.4755 7.77814 33.7675C7.99814 34.5655 7.52814 35.3935 6.73014 35.6115C6.59814 35.6475 6.46614 35.6655 6.33214 35.6655Z" fill="currentColor"/>
<path d="M4.00001 47.6719C3.59401 47.6719 3.20001 47.5039 2.92001 47.2119C2.34601 46.6139 2.36601 45.6639 2.96201 45.0899L41.962 7.58988C42.242 7.31988 42.612 7.17188 43.002 7.17188C43.408 7.17188 43.802 7.33987 44.084 7.63387C44.656 8.22987 44.638 9.17987 44.042 9.75387L5.04201 47.2539C4.76001 47.5219 4.39001 47.6719 4.00001 47.6719Z" fill="currentColor"/>
</svg>
