<svg width="14" height="14" viewBox="0 0 14 14" fill="none" xmlns="http://www.w3.org/2000/svg">
<path d="M1.3125 14C0.588583 14 0 13.4114 0 12.6875V1.3125C0 0.588583 0.588583 0 1.3125 0H12.6875C13.4114 0 14 0.588583 14 1.3125V7.95025C14 8.13517 13.9615 8.31483 13.8857 8.48458C13.8845 8.4875 13.8804 8.49508 13.8792 8.498C13.8157 8.63742 13.7264 8.76692 13.6162 8.87717L8.87775 13.615C8.76692 13.7258 8.638 13.8151 8.49333 13.881C8.48983 13.8827 8.47817 13.888 8.47467 13.8892C8.31483 13.9615 8.13517 14 7.95025 14H1.3125ZM1.3125 0.875C1.071 0.875 0.875 1.071 0.875 1.3125V12.6875C0.875 12.929 1.071 13.125 1.3125 13.125H7.875V9.1875C7.875 8.46358 8.46358 7.875 9.1875 7.875H13.125V1.3125C13.125 1.071 12.929 0.875 12.6875 0.875H1.3125ZM9.1875 8.75C8.946 8.75 8.75 8.946 8.75 9.1875V12.5061L12.5061 8.75H9.1875Z" fill="currentColor"/>
<path d="M3.9375 4.375C3.696 4.375 3.5 4.179 3.5 3.9375C3.5 3.696 3.696 3.5 3.9375 3.5H10.9375C11.179 3.5 11.375 3.696 11.375 3.9375C11.375 4.179 11.179 4.375 10.9375 4.375H3.9375Z" fill="currentColor"/>
<path d="M3.9375 7C3.696 7 3.5 6.804 3.5 6.5625C3.5 6.321 3.696 6.125 3.9375 6.125H7C7.2415 6.125 7.4375 6.321 7.4375 6.5625C7.4375 6.804 7.2415 7 7 7H3.9375Z" fill="currentColor"/>
</svg>
