<svg width="48" height="48" viewBox="0 0 48 48" fill="none" xmlns="http://www.w3.org/2000/svg">
<path d="M29.9051 44.5703H18.0321C17.0792 44.5703 16.3066 45.3379 16.3066 46.2846C16.3066 47.2313 17.0792 47.9989 18.0321 47.9989H29.9051C30.8587 47.9989 31.6305 47.2313 31.6305 46.2846C31.6305 45.3379 30.8591 44.5703 29.9051 44.5703Z" fill="currentColor"/>
<path d="M8.0716 40.5502H39.9281C42.7254 40.5502 45 38.2895 45 35.5111C45 33.2049 43.4328 31.2557 41.3 30.6602V17.1585C41.2996 7.69742 33.5521 0 23.9697 0C14.4463 0 6.69855 7.69742 6.69855 17.1585V30.6602C4.56719 31.256 3 33.2049 3 35.5111C3 38.2891 5.27462 40.5499 8.07081 40.5499L8.0716 40.5502ZM8.0716 33.9016H8.42477C9.37762 33.9016 10.1502 33.134 10.1502 32.1874V17.1595C10.1502 9.58832 16.3499 3.42954 24.0296 3.42954C31.65 3.42954 37.8489 9.58872 37.8489 17.1595V32.1874C37.8489 33.134 38.6207 33.9016 39.5743 33.9016H39.9283C40.8214 33.9016 41.5493 34.6241 41.5493 35.5115C41.5493 36.3996 40.8214 37.122 39.9283 37.122L8.07079 37.1217C7.17765 37.1217 6.45046 36.3992 6.45046 35.5111C6.45085 34.6241 7.17761 33.9017 8.07079 33.9017L8.0716 33.9016Z" fill="currentColor"/>
</svg>
