<svg width="48" height="48" viewBox="0 0 48 48" fill="none" xmlns="http://www.w3.org/2000/svg">
<path d="M30.7969 41.25C30.7969 44.972 27.7689 48 24.0469 48C20.3249 48 17.2969 44.972 17.2969 41.25C17.2969 37.528 20.3249 34.5 24.0469 34.5C27.7689 34.5 30.7969 37.528 30.7969 41.25ZM20.2969 41.25C20.2969 43.318 21.9789 45 24.0469 45C26.1149 45 27.7969 43.318 27.7969 41.25C27.7969 39.182 26.1149 37.5 24.0469 37.5C21.9789 37.5 20.2969 39.182 20.2969 41.25Z" fill="currentColor"/>
<path d="M30.7969 6.75C30.7969 10.472 27.7689 13.5 24.0469 13.5C20.3249 13.5 17.2969 10.472 17.2969 6.75C17.2969 3.028 20.3249 0 24.0469 0C27.7689 0 30.7969 3.028 30.7969 6.75ZM20.2969 6.75C20.2969 8.818 21.9789 10.5 24.0469 10.5C26.1149 10.5 27.7969 8.818 27.7969 6.75C27.7969 4.682 26.1149 3 24.0469 3C21.9789 3 20.2969 4.682 20.2969 6.75Z" fill="currentColor"/>
<path d="M30.7969 24C30.7969 27.722 27.7689 30.75 24.0469 30.75C20.3249 30.75 17.2969 27.722 17.2969 24C17.2969 20.278 20.3249 17.25 24.0469 17.25C27.7689 17.25 30.7969 20.278 30.7969 24ZM20.2969 24C20.2969 26.068 21.9789 27.75 24.0469 27.75C26.1149 27.75 27.7969 26.068 27.7969 24C27.7969 21.932 26.1149 20.25 24.0469 20.25C21.9789 20.25 20.2969 21.932 20.2969 24Z" fill="currentColor"/>
</svg>
