<svg width="49" height="60" viewBox="0 0 49 60" fill="none" xmlns="http://www.w3.org/2000/svg">
<path d="M30.2383 6.9999V9.9999H8.23828V6.9999C8.23828 6.20437 8.55435 5.44093 9.11685 4.87853C9.67936 4.31613 10.4428 3.99996 11.2382 3.99996H15.2382C15.5034 3.99996 15.7579 3.8946 15.9454 3.7071C16.1329 3.5196 16.2382 3.26513 16.2382 2.99996C16.2382 1.92808 16.8101 0.9379 17.7382 0.401786C18.6664 -0.133929 19.8101 -0.133929 20.7382 0.401786C21.6664 0.937946 22.2382 1.92807 22.2382 2.99996C22.2382 3.26513 22.3436 3.5196 22.5311 3.7071C22.7186 3.8946 22.973 3.99996 23.2382 3.99996H27.2382C28.0338 3.99996 28.7972 4.31603 29.3596 4.87853C29.922 5.44103 30.2382 6.20447 30.2382 6.9999H30.2383Z" fill="currentColor"/>
<path d="M35.2382 8H32.2382V11C32.2382 11.2652 32.1329 11.5196 31.9454 11.7071C31.7579 11.8946 31.5034 12 31.2382 12H7.23822C6.686 12 6.23822 11.5522 6.23822 11V8H3.23822C2.44269 8 1.67925 8.31607 1.11685 8.87857C0.554453 9.44107 0.238281 10.2045 0.238281 10.9999V46.9999C0.238281 47.7955 0.55435 48.5589 1.11685 49.1213C1.67936 49.6837 2.4428 49.9999 3.23822 49.9999H35.2382C36.0338 49.9999 36.7972 49.6838 37.3596 49.1213C37.922 48.5588 38.2382 47.7954 38.2382 46.9999V10.9999C38.2382 10.2044 37.9221 9.44097 37.3596 8.87857C36.7971 8.31617 36.0337 8 35.2382 8ZM31.2382 36H27.2382C26.4427 36 25.6793 36.3161 25.1169 36.8786C24.5545 37.4411 24.2383 38.2045 24.2383 38.9999V42.9999C24.2383 43.5522 23.7905 43.9999 23.2383 43.9999C22.6861 43.9999 22.2383 43.5522 22.2383 42.9999V38.9999C22.2383 37.674 22.7651 36.4022 23.7025 35.4642C24.6405 34.5267 25.9123 33.9999 27.2383 33.9999H31.2383C31.7905 33.9999 32.2383 34.4477 32.2383 34.9999C32.2383 35.5522 31.7905 36 31.2382 36Z" fill="currentColor"/>
<path d="M48.2382 38.9999V42.9999C48.2382 43.5522 47.7905 43.9999 47.2382 43.9999C46.686 43.9999 46.2382 43.5522 46.2382 42.9999V38.9999C46.2382 38.2044 45.9222 37.441 45.3597 36.8786C44.7972 36.3162 44.0337 36 43.2383 36H39.2383V34H43.2383C44.5642 34 45.836 34.5268 46.7741 35.4642C47.7115 36.4022 48.2382 37.674 48.2382 38.9999Z" fill="currentColor"/>
<path d="M43.2383 59.9999H39.2383C38.6861 59.9999 38.2383 59.5522 38.2383 58.9999C38.2383 58.4477 38.6861 57.9999 39.2383 57.9999H43.2383C44.0338 57.9999 44.7973 57.6839 45.3597 57.1214C45.9221 56.5589 46.2382 55.7954 46.2382 55V51C46.2382 50.4478 46.686 50 47.2382 50C47.7905 50 48.2382 50.4478 48.2382 51V55C48.2382 56.3259 47.7114 57.5977 46.774 58.5358C45.8361 59.4733 44.5642 59.9999 43.2383 59.9999Z" fill="currentColor"/>
<path d="M32.2383 59C32.2383 59.2652 32.1329 59.5196 31.9454 59.7071C31.7579 59.8946 31.5035 60 31.2383 60H27.2383C25.9123 60 24.6406 59.4732 23.7025 58.5358C22.765 57.5978 22.2383 56.3259 22.2383 55V51H24.2383V55C24.2383 55.7955 24.5543 56.559 25.1169 57.1214C25.6794 57.6838 26.4428 57.9999 27.2382 57.9999H31.2382C31.5034 57.9999 31.7579 58.1053 31.9454 58.2928C32.1329 58.4803 32.2383 58.7348 32.2383 59Z" fill="currentColor"/>
</svg>
