<svg width="40" height="40" viewBox="0 0 40 40" fill="none" xmlns="http://www.w3.org/2000/svg">
<path fill-rule="evenodd" clip-rule="evenodd" d="M20 37.5C29.665 37.5 37.5 29.665 37.5 20C37.5 10.335 29.665 2.5 20 2.5C10.335 2.5 2.5 10.335 2.5 20C2.5 29.665 10.335 37.5 20 37.5ZM20 40C31.0457 40 40 31.0457 40 20C40 8.9543 31.0457 0 20 0C8.9543 0 0 8.9543 0 20C0 31.0457 8.9543 40 20 40Z" fill="currentColor"/>
<rect x="14.166" y="10" width="3.33333" height="20" rx="1.66667" fill="currentColor"/>
<rect x="22.5" y="10" width="3.33333" height="20" rx="1.66667" fill="currentColor"/>
</svg>
