<svg width="48" height="48" viewBox="0 0 48 48" fill="none" xmlns="http://www.w3.org/2000/svg">
<g clip-path="url(#clip0_4_791)">
<path d="M9 21C4.864 21 1.5 17.636 1.5 13.5C1.5 9.364 4.864 6 9 6C13.136 6 16.5 9.364 16.5 13.5C16.5 17.636 13.136 21 9 21ZM9 9C6.518 9 4.5 11.018 4.5 13.5C4.5 15.982 6.518 18 9 18C11.482 18 13.5 15.982 13.5 13.5C13.5 11.018 11.482 9 9 9Z" fill="currentColor"/>
<path d="M6 48C5.246 48 4.606 47.436 4.512 46.686L3.176 36H1.5C0.672 36 0 35.328 0 34.5V30C0 25.038 4.038 21 9 21C13.962 21 18 25.038 18 30V34.5C18 35.328 17.328 36 16.5 36H14.824L13.488 46.686C13.394 47.436 12.754 48 12 48H6ZM10.676 45L12.012 34.314C12.106 33.564 12.746 33 13.5 33H15V30C15 26.692 12.308 24 9 24C5.692 24 3 26.692 3 30V33H4.5C5.254 33 5.894 33.564 5.988 34.314L7.324 45H10.676Z" fill="currentColor"/>
<path d="M31.5001 27.0007C30.6721 27.0007 30.0001 26.3287 30.0001 25.5007V24.0007H28.5001C27.6721 24.0007 27.0001 23.3287 27.0001 22.5007V19.4727C25.1041 18.0507 23.9901 15.8247 24.0001 13.4387C24.0201 9.32266 27.3841 5.97266 31.5001 5.97266C35.6701 5.99266 39.0181 9.37066 39.0001 13.5067C38.9941 15.8687 37.8801 18.0707 36.0001 19.4747V22.5007C36.0001 23.3287 35.3281 24.0007 34.5001 24.0007H33.0001V25.5007C33.0001 26.3287 32.3281 27.0007 31.5001 27.0007ZM33.0001 21.0007V18.6687C33.0001 18.1327 33.2881 17.6347 33.7521 17.3687C35.1361 16.5747 35.9961 15.0907 36.0001 13.4967C36.0121 11.0127 34.0021 8.98466 31.5221 8.97266L31.5181 8.22266V8.97266C29.0381 8.97266 27.0121 10.9827 27.0001 13.4507C26.9921 15.0627 27.8541 16.5627 29.2501 17.3687C29.7121 17.6367 30.0001 18.1347 30.0001 18.6687V21.0007H33.0001Z" fill="currentColor"/>
<path d="M28.5 42C28.302 42 28.108 41.962 27.924 41.886C27.362 41.654 27 41.11 27 40.5V33H22.5C21.672 33 21 32.328 21 31.5C21 30.672 21.672 30 22.5 30H28.5C29.328 30 30 30.672 30 31.5V36.878L36.44 30.438C36.72 30.158 37.106 29.998 37.5 29.998H43.5C44.328 29.998 45 29.326 45 28.498V4.498C45 3.67 44.328 2.998 43.5 2.998H19.5C18.672 3 18 3.672 18 4.5C18 5.328 17.328 6 16.5 6C15.672 6 15 5.328 15 4.5C15 2.018 17.018 0 19.5 0H43.5C45.982 0 48 2.018 48 4.5V28.5C48 30.982 45.982 33 43.5 33H38.122L29.562 41.56C29.278 41.844 28.9 42 28.5 42Z" fill="currentColor"/>
</g>
<defs>
<clipPath id="clip0_4_791">
<rect width="48" height="48" fill="currentColor"/>
</clipPath>
</defs>
</svg>
