<svg width="12" height="12" viewBox="0 0 12 12" fill="none" xmlns="http://www.w3.org/2000/svg">
<g id="picture">
<path id="Picture" fill-rule="evenodd" clip-rule="evenodd" d="M11.5 1.67857C11.5 1.02761 10.9724 0.5 10.3214 0.5H1.67857C1.02761 0.5 0.5 1.02761 0.5 1.67857V10.3214C0.5 10.9724 1.02761 11.5 1.67857 11.5H10.3214C10.9724 11.5 11.5 10.9724 11.5 10.3214V1.67857ZM1.314 10.4684L4.79354 7.33925L7.86175 10.7143H1.67857C1.51357 10.7143 1.37214 10.6125 1.314 10.4684ZM7.683 9.3495L9.14796 8.4255L10.7143 9.36522V10.3214C10.7143 10.5383 10.5383 10.7143 10.3214 10.7143H8.92364L7.683 9.3495ZM10.7143 8.44908V1.67857C10.7143 1.46171 10.5383 1.28571 10.3214 1.28571H1.67857C1.46171 1.28571 1.28571 1.46171 1.28571 1.67857V9.43711L4.55861 6.49343C4.71929 6.34925 4.96679 6.36143 5.11214 6.52132L7.14636 8.75904L8.93307 7.63193C9.05879 7.55296 9.21789 7.551 9.34479 7.62761L10.7143 8.44908ZM8.35714 1.67857C7.48971 1.67857 6.78571 2.38257 6.78571 3.25C6.78571 4.11743 7.48971 4.82143 8.35714 4.82143C9.22457 4.82143 9.92857 4.11743 9.92857 3.25C9.92857 2.38257 9.22457 1.67857 8.35714 1.67857ZM8.35714 2.46429C8.79086 2.46429 9.14286 2.81629 9.14286 3.25C9.14286 3.68371 8.79086 4.03571 8.35714 4.03571C7.92343 4.03571 7.57143 3.68371 7.57143 3.25C7.57143 2.81629 7.92343 2.46429 8.35714 2.46429Z" fill="currentColor"/>
</g>
</svg>
