<svg width="24" height="24" viewBox="0 0 24 24" fill="none" xmlns="http://www.w3.org/2000/svg">
<path d="M11.8189 22.3149C11.6849 22.3149 11.5519 22.3129 11.4189 22.3069C11.2189 22.2989 11.0339 22.2139 10.8969 22.0669C10.7599 21.9199 10.6899 21.7289 10.6979 21.5289C10.7139 21.1239 11.0409 20.8069 11.4429 20.8069C11.4489 20.8069 11.4739 20.8079 11.4809 20.8079C11.5879 20.8119 11.6999 20.8139 11.8119 20.8139C11.8839 20.8139 11.9569 20.8129 12.0289 20.8109C14.4289 20.7549 16.6649 19.7659 18.3269 18.0239C19.9889 16.2829 20.8729 14.0029 20.8169 11.6029C20.8079 11.1889 21.1359 10.8449 21.5499 10.8359C21.9719 10.8359 22.3079 11.1639 22.3169 11.5679C22.4519 17.3569 17.8519 22.1759 12.0629 22.3109C11.9819 22.3149 11.8999 22.3149 11.8189 22.3149Z" fill="currentColor"/>
<path d="M2.58303 23.817C1.86503 23.817 1.29003 23.606 0.874031 23.191C-0.596969 21.719 0.800031 18.63 2.28803 16.231C2.21303 16.069 2.14303 15.907 2.07903 15.747C2.07503 15.738 2.06703 15.719 2.06103 15.699C1.70003 14.795 1.46503 13.826 1.36903 12.838C1.09603 10.046 1.92703 7.31598 3.70803 5.14798C5.48903 2.98098 8.00703 1.63798 10.799 1.36398C11.143 1.32998 11.492 1.31298 11.836 1.31298C13.375 1.31298 14.857 1.64098 16.244 2.28898C17.791 1.33398 19.9 0.250977 21.507 0.250977C22.217 0.250977 22.785 0.459977 23.197 0.870977C23.612 1.28498 23.823 1.85998 23.823 2.57898C23.825 5.34798 20.488 10.546 15.52 15.513C12.634 18.398 9.60003 20.804 6.97703 22.287C5.18103 23.302 3.70403 23.816 2.58603 23.816H2.58303V23.817ZM3.13903 17.732C1.73403 20.187 1.50803 21.701 1.93603 22.129C2.09103 22.284 2.37203 22.317 2.58003 22.317C4.57403 22.317 9.29403 19.615 14.458 14.452C19.016 9.89398 22.324 4.90098 22.322 2.57898C22.322 2.36798 22.29 2.08498 22.136 1.93098C21.982 1.77698 21.703 1.74398 21.496 1.74398C20.658 1.74398 19.309 2.24898 17.742 3.14098C17.998 3.31698 18.247 3.50398 18.487 3.70098C18.965 4.09298 19.41 4.53098 19.811 5.00098C20.079 5.31598 20.041 5.78998 19.727 6.05798C19.592 6.17298 19.419 6.23698 19.241 6.23698C19.021 6.23698 18.813 6.14098 18.67 5.97298C18.327 5.57098 17.946 5.19598 17.535 4.85798C15.905 3.51798 13.934 2.80998 11.836 2.80998C11.54 2.80998 11.24 2.82498 10.944 2.85298C8.55103 3.09098 6.39203 4.24198 4.86603 6.09998C4.54703 6.48698 4.26103 6.90198 4.01003 7.33898C4.72203 7.40798 5.40803 7.64598 6.01403 8.03798C7.02303 8.69098 7.71703 9.69797 7.96803 10.874C8.21903 12.049 7.99803 13.252 7.34503 14.261C6.69203 15.27 5.68403 15.964 4.50903 16.216C4.34403 16.251 4.17603 16.278 4.00803 16.294C4.54903 17.238 5.25303 18.069 6.10403 18.769C6.25903 18.896 6.35503 19.076 6.37403 19.276C6.39303 19.476 6.33403 19.671 6.20703 19.825C6.06403 19.999 5.85303 20.099 5.62803 20.099C5.45503 20.099 5.28603 20.038 5.15203 19.928C4.37403 19.288 3.69803 18.551 3.13903 17.732ZM3.32403 14.792C3.42203 14.805 3.51103 14.813 3.59703 14.815C3.78203 14.814 3.99403 14.791 4.19503 14.748C4.97803 14.581 5.64903 14.118 6.08503 13.444C6.52103 12.771 6.66903 11.969 6.50203 11.187C6.33403 10.403 5.87203 9.73197 5.19903 9.29597C4.71403 8.98297 4.15503 8.81798 3.58103 8.81798C3.49603 8.81798 3.41103 8.82198 3.32603 8.82898C2.88803 10.069 2.73203 11.367 2.86103 12.692C2.93103 13.406 3.08703 14.112 3.32403 14.792Z" fill="currentColor"/>
<path d="M12.9448 10.3149C11.4968 10.3149 10.3198 9.13694 10.3198 7.68994C10.3198 6.24294 11.4978 5.06494 12.9448 5.06494C14.3918 5.06494 15.5698 6.24294 15.5698 7.68994C15.5698 9.13694 14.3928 10.3149 12.9448 10.3149ZM12.9448 6.56494C12.3248 6.56494 11.8198 7.06994 11.8198 7.68994C11.8198 8.30994 12.3248 8.81494 12.9448 8.81494C13.5648 8.81494 14.0698 8.31094 14.0698 7.68994C14.0698 7.06894 13.5658 6.56494 12.9448 6.56494Z" fill="currentColor"/>
</svg>
