<svg width="48" height="48" viewBox="0 0 48 48" fill="none" xmlns="http://www.w3.org/2000/svg">
<path d="M7.67773 45.9899C5.19773 45.9899 3.17773 43.9699 3.17773 41.4899V6.50786C3.17773 5.76786 3.36173 5.03186 3.71173 4.37986C4.27973 3.32186 5.22573 2.54786 6.37773 2.19986C6.80373 2.07186 7.24173 2.00586 7.68173 2.00586C8.41573 2.00586 9.14973 2.19186 9.80373 2.54186L42.4497 20.0319C43.2337 20.4519 43.8697 21.0879 44.2897 21.8719C44.8577 22.9319 44.9777 24.1479 44.6317 25.2999C44.2837 26.4499 43.5097 27.3979 42.4497 27.9659L9.80373 45.4559C9.15173 45.8039 8.41573 45.9899 7.67773 45.9899ZM7.67973 5.00786C7.53373 5.00786 7.38773 5.02986 7.24373 5.07386C6.85973 5.18786 6.54573 5.44586 6.35573 5.79986C6.23973 6.01586 6.17773 6.26186 6.17773 6.50786V41.4879C6.17773 42.3159 6.85173 42.9879 7.67773 42.9879C7.92373 42.9879 8.16973 42.9259 8.38573 42.8099L41.0337 25.3199C41.3877 25.1319 41.6437 24.8159 41.7597 24.4319C41.8757 24.0479 41.8357 23.6419 41.6457 23.2879C41.5057 23.0259 41.2937 22.8139 41.0337 22.6739L8.38773 5.18786C8.16573 5.06786 7.92773 5.00786 7.67973 5.00786Z" fill="currentColor"/>
</svg>
