<svg width="12" height="12" viewBox="0 0 12 12" fill="none" xmlns="http://www.w3.org/2000/svg">
<path fill-rule="evenodd" clip-rule="evenodd" d="M4.25 5.75V1C4.25 0.861967 4.13803 0.75 4 0.75H3.5C3.36197 0.75 3.25 0.861967 3.25 1V5.75H1.75V7.5C1.75 9.49878 3.57623 11.25 6 11.25C8.42377 11.25 10.25 9.49878 10.25 7.5V5.75H8.75V1C8.75 0.861967 8.63803 0.75 8.5 0.75H8C7.89491 0.75 7.80404 0.814547 7.76733 0.908415L7.76706 0.909121C7.7561 0.937067 7.75 0.967341 7.75 1V5.75H4.25ZM7.06885 0.635254C7.02441 0.748535 7 0.871582 7 1V5H5V1C5 0.447754 4.55225 0 4 0H3.5C2.94775 0 2.5 0.447754 2.5 1V5H1.55566C1.24854 5 1 5.22363 1 5.5V7.5C1 9.98535 3.23828 12 6 12C8.76172 12 11 9.98535 11 7.5V5.5C11 5.4126 10.9751 5.33008 10.9312 5.25879C10.8369 5.10449 10.6543 5 10.4443 5H9.5V1C9.5 0.447754 9.05225 0 8.5 0H8C7.57617 0 7.21436 0.263184 7.06885 0.635254Z" fill="currentColor"/>
</svg>
