<svg width="21" height="21" viewBox="0 0 21 21" fill="none" xmlns="http://www.w3.org/2000/svg">
<path fill-rule="evenodd" clip-rule="evenodd" d="M10.5 5.76316C9.04662 5.76316 7.86842 6.94136 7.86842 8.39474C7.86842 9.84812 9.04662 11.0263 10.5 11.0263C11.9534 11.0263 13.1316 9.84812 13.1316 8.39474C13.1316 6.94136 11.9534 5.76316 10.5 5.76316ZM6.81579 8.39474C6.81579 6.36 8.46527 4.71053 10.5 4.71053C12.5347 4.71053 14.1842 6.36 14.1842 8.39474C14.1842 10.4295 12.5347 12.0789 10.5 12.0789C8.46527 12.0789 6.81579 10.4295 6.81579 8.39474Z" fill="currentColor"/>
<path fill-rule="evenodd" clip-rule="evenodd" d="M10.5 1.55263C5.55851 1.55263 1.55263 5.55851 1.55263 10.5C1.55263 15.4415 5.55851 19.4474 10.5 19.4474C15.4415 19.4474 19.4474 15.4415 19.4474 10.5C19.4474 5.55851 15.4415 1.55263 10.5 1.55263ZM0.5 10.5C0.5 4.97715 4.97715 0.5 10.5 0.5C16.0228 0.5 20.5 4.97715 20.5 10.5C20.5 16.0228 16.0228 20.5 10.5 20.5C4.97715 20.5 0.5 16.0228 0.5 10.5Z" fill="currentColor"/>
<path fill-rule="evenodd" clip-rule="evenodd" d="M6.24313 14.2977C7.47422 13.5373 8.97045 13.1316 10.5001 13.1316C12.0298 13.1316 13.5261 13.5373 14.7572 14.2977C15.9887 15.0584 16.8985 16.1404 17.3153 17.3926C17.4071 17.6684 17.258 17.9664 16.9822 18.0582C16.7064 18.15 16.4084 18.0009 16.3166 17.7251C15.9883 16.7391 15.2563 15.8433 14.204 15.1933C13.1512 14.5431 11.8492 14.1842 10.5001 14.1842C9.15111 14.1842 7.84904 14.5431 6.79628 15.1933C5.74398 15.8432 5.01196 16.7391 4.68373 17.7251C4.59192 18.0009 4.29392 18.15 4.01812 18.0582C3.74232 17.9664 3.59317 17.6684 3.68498 17.3926C4.10182 16.1404 5.01157 15.0584 6.24313 14.2977Z" fill="currentColor"/>
</svg>
