<svg width="48" height="48" viewBox="0 0 48 48" fill="none" xmlns="http://www.w3.org/2000/svg">
<g clip-path="url(#clip0_4_943)">
<path d="M1.51069 48C1.1087 48 0.732695 47.844 0.448695 47.56C0.00069514 47.112 -0.117305 46.428 0.154695 45.856L5.97669 33.63C4.02869 30.226 3.00469 26.366 3.00869 22.438C3.0267 10.066 13.1067 0 25.4787 0H25.5487C29.7527 0 33.8627 1.174 37.4327 3.394C42.5367 6.568 46.0987 11.54 47.4627 17.394C48.8267 23.248 47.8287 29.282 44.6547 34.384C41.4807 39.488 36.5087 43.05 30.6567 44.414C28.9627 44.81 27.2307 45.01 25.5087 45.01C21.6207 45.01 17.7807 43.982 14.3787 42.032L2.1547 47.856C1.9527 47.95 1.7307 48 1.51069 48ZM25.4787 3C14.7587 3 6.02469 11.722 6.00869 22.442C6.00269 26.092 7.02069 29.66 8.94869 32.758C9.22069 33.196 9.25069 33.732 9.02869 34.196L4.68069 43.328L13.8127 38.978C14.0107 38.882 14.2347 38.832 14.4567 38.832C14.7367 38.832 15.0127 38.91 15.2507 39.06C18.3527 40.99 21.9007 42.008 25.5107 42.008C27.0027 42.008 28.5047 41.834 29.9747 41.492C35.0467 40.31 39.3547 37.222 42.1067 32.8C44.8567 28.376 45.7207 23.146 44.5387 18.074C43.3567 13.002 40.2687 8.692 35.8467 5.942C32.7547 4.018 29.1927 3 25.5487 3C25.5407 3 25.4787 3 25.4787 3Z" fill="currentColor"/>
<path d="M25.5098 33C26.7524 33 27.7598 31.9926 27.7598 30.75C27.7598 29.5074 26.7524 28.5 25.5098 28.5C24.2671 28.5 23.2598 29.5074 23.2598 30.75C23.2598 31.9926 24.2671 33 25.5098 33Z" fill="currentColor"/>
<path d="M25.5098 27C24.6818 27 24.0098 26.328 24.0098 25.5C24.0098 24.672 24.6818 24 25.5098 24C27.9918 24 30.0098 21.982 30.0098 19.5C30.0098 17.018 27.9918 15 25.5098 15C23.0278 15 21.0098 17.018 21.0098 19.5C21.0098 20.328 20.3378 21 19.5098 21C18.6818 21 18.0098 20.328 18.0098 19.5C18.0098 15.364 21.3738 12 25.5098 12C29.6458 12 33.0098 15.364 33.0098 19.5C33.0098 23.636 29.6438 27 25.5098 27Z" fill="currentColor"/>
</g>
<defs>
<clipPath id="clip0_4_943">
<rect width="48" height="48" fill="currentColor"/>
</clipPath>
</defs>
</svg>
