<svg width="20" height="21" viewBox="0 0 20 21" fill="none" xmlns="http://www.w3.org/2000/svg">
    <path d="M14.7692 14.4723C14.1918 14.4723 13.7231 13.9887 13.7231 13.3928V11.9447C13.7217 10.5744 14.5628 9.34657 15.8154 8.89027C17.0666 8.43398 17.9077 7.20616 17.9077 5.83727C17.9077 4.97218 17.5813 4.15891 16.9885 3.54716C16.397 2.9354 15.6089 2.59858 14.7692 2.59858C13.9309 2.59858 13.1428 2.9354 12.55 3.54716C11.9572 4.15747 11.6308 4.97074 11.6308 5.83583C11.6308 6.43031 11.1621 6.91539 10.5846 6.91539C10.0071 6.91539 9.53846 6.43031 9.53846 5.83583C9.53846 4.39353 10.0839 3.03904 11.0714 2.01993C12.059 1.00083 13.373 0.439453 14.7692 0.439453C17.6538 0.439453 20 2.86199 20 5.83727C20 8.12019 18.5982 10.1642 16.5128 10.9256C16.0958 11.0782 15.8154 11.487 15.8154 11.9433V13.3928C15.8154 13.9887 15.3467 14.4723 14.7692 14.4723Z" fill="currentColor"/>
    <path d="M14.7692 19.8699C15.6359 19.8699 16.3385 19.1449 16.3385 18.2506C16.3385 17.3562 15.6359 16.6312 14.7692 16.6312C13.9026 16.6312 13.2 17.3562 13.2 18.2506C13.2 19.1449 13.9026 19.8699 14.7692 19.8699Z" fill="currentColor"/>
    <path d="M5.23077 6.40657C5.80825 6.40657 6.27692 6.89021 6.27692 7.48613V8.93419C6.27832 10.3045 5.43721 11.5323 4.18462 11.9886C2.93342 12.4449 2.09231 13.6728 2.09231 15.0416C2.09231 15.9067 2.41871 16.72 3.01153 17.3318C3.60295 17.9435 4.39106 18.2803 5.23077 18.2803C6.06909 18.2803 6.85719 17.9435 7.45001 17.3318C8.04283 16.7214 8.36923 15.9082 8.36923 15.0431C8.36923 14.4486 8.83791 13.9635 9.41539 13.9635C9.99286 13.9635 10.4615 14.4486 10.4615 15.0431C10.4615 16.4854 9.91614 17.8399 8.92857 18.859C7.94101 19.8781 6.62704 20.4395 5.23077 20.4395C2.34617 20.4395 -2.52057e-07 18.0169 0 15.0416C1.93403e-07 12.7587 1.40185 10.7147 3.48718 9.9533C3.90425 9.80072 4.18462 9.39192 4.18462 8.93563V7.48613C4.18462 6.89021 4.65329 6.40657 5.23077 6.40657Z" fill="currentColor"/>
    <path d="M5.23077 1.009C4.36411 1.009 3.66154 1.73401 3.66154 2.62835C3.66154 3.52269 4.36411 4.24769 5.23077 4.24769C6.09743 4.24769 6.8 3.52269 6.8 2.62835C6.8 1.73401 6.09743 1.009 5.23077 1.009Z" fill="currentColor"/>
</svg>