<svg width="20" height="20" viewBox="0 0 20 20" fill="none" xmlns="http://www.w3.org/2000/svg">
<path d="M10 12.5C9.655 12.5 9.375 12.22 9.375 11.875V11.0367C9.37417 10.2433 9.87667 9.53249 10.625 9.26832C11.3725 9.00416 11.875 8.29332 11.875 7.50082C11.875 6.99999 11.68 6.52916 11.3258 6.17499C10.9725 5.82082 10.5017 5.62582 10 5.62582C9.49917 5.62582 9.02833 5.82082 8.67417 6.17499C8.32 6.52832 8.125 6.99916 8.125 7.49999C8.125 7.84416 7.845 8.12499 7.5 8.12499C7.155 8.12499 6.875 7.84416 6.875 7.49999C6.875 6.66499 7.20083 5.88082 7.79083 5.29082C8.38083 4.70082 9.16583 4.37582 10 4.37582C11.7233 4.37582 13.125 5.77832 13.125 7.50082C13.125 8.82249 12.2875 10.0058 11.0417 10.4467C10.7925 10.535 10.625 10.7717 10.625 11.0358V11.875C10.625 12.22 10.345 12.5 10 12.5Z" fill="currentColor"/>
<path d="M10 15.625C10.5178 15.625 10.9375 15.2053 10.9375 14.6875C10.9375 14.1697 10.5178 13.75 10 13.75C9.48223 13.75 9.0625 14.1697 9.0625 14.6875C9.0625 15.2053 9.48223 15.625 10 15.625Z" fill="currentColor"/>
<path d="M10 20C4.48583 20 0 15.5142 0 10C0 4.48583 4.48583 0 10 0C15.5142 0 20 4.48583 20 10C20 15.5142 15.5142 20 10 20ZM10 1.25C5.175 1.25 1.25 5.175 1.25 10C1.25 14.825 5.175 18.75 10 18.75C14.825 18.75 18.75 14.825 18.75 10C18.75 5.175 14.825 1.25 10 1.25Z" fill="currentColor"/>
</svg>
