
<svg width="130" height="80" viewBox="0 0 130 80" fill="none" xmlns="http://www.w3.org/2000/svg">
    <path d="M31.9951 0.5C35.2505 0.5 37.8942 3.14375 37.8942 6.40016V32.0004C37.8942 35.2564 35.2505 37.9002 31.9951 37.9002H6.3991C3.14339 37.9002 0.5 35.2565 0.5 32.0004V6.40016C0.5 3.14373 3.14341 0.5 6.3991 0.5H31.9951Z" fill="currentColor" fill-opacity="0.2" stroke="currentColor"/>
    <path d="M20.1677 26.249H18.8807C18.3693 26.249 17.9923 26.119 17.7497 25.859C17.5157 25.599 17.3987 25.248 17.3987 24.806V24.117C16.8873 24.0563 16.428 23.909 16.0207 23.675C15.6133 23.441 15.2667 23.129 14.9807 22.739C14.6947 22.349 14.4737 21.881 14.3177 21.335C14.1617 20.7803 14.0837 20.1563 14.0837 19.463C14.0837 18.7003 14.1747 18.0287 14.3567 17.448C14.5473 16.8587 14.8117 16.369 15.1497 15.979C15.4963 15.5803 15.908 15.2813 16.3847 15.082C16.87 14.874 17.4073 14.77 17.9967 14.77C18.586 14.77 19.119 14.874 19.5957 15.082C20.081 15.2813 20.4927 15.5803 20.8307 15.979C21.1773 16.369 21.4417 16.8587 21.6237 17.448C21.8143 18.0287 21.9097 18.7003 21.9097 19.463C21.9097 20.815 21.628 21.8853 21.0647 22.674C20.5013 23.454 19.7387 23.9263 18.7767 24.091V25.027H20.1677V26.249ZM17.9967 22.843C18.3433 22.843 18.6597 22.7823 18.9457 22.661C19.2403 22.5397 19.4873 22.3663 19.6867 22.141C19.8947 21.907 20.055 21.6253 20.1677 21.296C20.2803 20.9667 20.3367 20.594 20.3367 20.178V18.748C20.3367 18.332 20.2803 17.9593 20.1677 17.63C20.055 17.3007 19.8947 17.0233 19.6867 16.798C19.4873 16.564 19.2403 16.3863 18.9457 16.265C18.6597 16.1437 18.3433 16.083 17.9967 16.083C17.6413 16.083 17.3207 16.1437 17.0347 16.265C16.7487 16.3863 16.5017 16.564 16.2937 16.798C16.0943 17.0233 15.9383 17.3007 15.8257 17.63C15.713 17.9593 15.6567 18.332 15.6567 18.748V20.178C15.6567 20.594 15.713 20.9667 15.8257 21.296C15.9383 21.6253 16.0943 21.907 16.2937 22.141C16.5017 22.3663 16.7487 22.5397 17.0347 22.661C17.3207 22.7823 17.6413 22.843 17.9967 22.843Z" fill="currentColor"/>
    <path d="M73.6514 0.5C76.9067 0.5 79.5505 3.14375 79.5505 6.40016V32.0004C79.5505 35.2564 76.9067 37.9002 73.6514 37.9002H48.0554C44.7996 37.9002 42.1562 35.2565 42.1562 32.0004V6.40016C42.1562 3.14373 44.7997 0.5 48.0554 0.5H73.6514Z" fill="currentColor" fill-opacity="0.2" stroke="currentColor"/>
    <path d="M57.9355 24L55.7905 14.926H57.2855L58.2085 19.294L58.8455 22.31H58.8845L59.6125 19.294L60.6915 14.926H62.3295L63.3955 19.294L64.1105 22.297H64.1495L64.8125 19.294L65.7615 14.926H67.2045L64.9685 24H63.3175L62.1605 19.307L61.4845 16.551H61.4585L60.7695 19.307L59.5865 24H57.9355Z" fill="currentColor"/>
    <path d="M115.054 0.5C118.309 0.5 120.953 3.14375 120.953 6.40016V32.0004C120.953 35.2564 118.309 37.9002 115.054 37.9002H89.4577C86.202 37.9002 83.5586 35.2565 83.5586 32.0004V6.40016C83.5586 3.14373 86.202 0.5 89.4577 0.5H115.054Z" fill="currentColor" fill-opacity="0.2" stroke="currentColor"/>
    <path d="M99.2611 24V14.926H105.072V16.226H100.73V18.748H104.669V20.048H100.73V22.7H105.072V24H99.2611Z" fill="currentColor"/>
    <path d="M39.6943 42.0996C42.9497 42.0996 45.5935 44.7434 45.5935 47.9998V73.6C45.5935 76.8561 42.9497 79.4998 39.6943 79.4998H14.0983C10.8426 79.4998 8.19922 76.8561 8.19922 73.6V47.9998C8.19922 44.7433 10.8426 42.0996 14.0983 42.0996H39.6943Z" fill="currentColor" fill-opacity="0.2" stroke="currentColor"/>
    <path d="M29.9784 66L29.1594 63.543H25.7664L24.9734 66H23.4784L26.5724 56.926H28.4184L31.5124 66H29.9784ZM27.4954 58.278H27.4304L26.1174 62.282H28.7954L27.4954 58.278Z" fill="currentColor"/>
    <path d="M81.2256 42.0996C84.4809 42.0996 87.1247 44.7434 87.1247 47.9998V73.6C87.1247 76.8561 84.4809 79.4998 81.2256 79.4998H55.6296C52.3739 79.4998 49.7305 76.8561 49.7305 73.6V47.9998C49.7305 44.7433 52.3739 42.0996 55.6296 42.0996H81.2256Z" fill="currentColor" fill-opacity="0.2" stroke="currentColor"/>
    <path d="M67.9463 66.156C67.1837 66.156 66.5337 66.0173 65.9963 65.74C65.4677 65.4627 65.0127 65.09 64.6313 64.622L65.6453 63.673C65.966 64.063 66.317 64.3577 66.6983 64.557C67.0883 64.7563 67.5303 64.856 68.0243 64.856C68.605 64.856 69.0427 64.726 69.3373 64.466C69.632 64.206 69.7793 63.855 69.7793 63.413C69.7793 63.0577 69.6753 62.776 69.4673 62.568C69.2593 62.36 68.891 62.204 68.3623 62.1L67.5563 61.957C66.6723 61.7923 66.0093 61.502 65.5673 61.086C65.1253 60.67 64.9043 60.098 64.9043 59.37C64.9043 58.9713 64.978 58.6117 65.1253 58.291C65.2813 57.9617 65.4937 57.6887 65.7623 57.472C66.0397 57.2467 66.3733 57.0733 66.7633 56.952C67.1533 56.8307 67.591 56.77 68.0763 56.77C68.761 56.77 69.3547 56.8913 69.8573 57.134C70.36 57.368 70.789 57.7103 71.1443 58.161L70.1173 59.071C69.8833 58.7677 69.5973 58.525 69.2593 58.343C68.9213 58.161 68.501 58.07 67.9983 58.07C67.4783 58.07 67.0753 58.174 66.7893 58.382C66.5033 58.59 66.3603 58.8933 66.3603 59.292C66.3603 59.6733 66.4773 59.9593 66.7113 60.15C66.9453 60.332 67.3093 60.4707 67.8033 60.566L68.6093 60.735C69.5193 60.9083 70.1823 61.203 70.5983 61.619C71.023 62.035 71.2353 62.607 71.2353 63.335C71.2353 63.7597 71.1617 64.1453 71.0143 64.492C70.867 64.8387 70.6503 65.1377 70.3643 65.389C70.087 65.6317 69.7447 65.8223 69.3373 65.961C68.93 66.091 68.4663 66.156 67.9463 66.156Z" fill="currentColor"/>
    <path d="M122.882 42.0996C126.137 42.0996 128.781 44.7434 128.781 47.9998V73.6C128.781 76.8561 126.137 79.4998 122.882 79.4998H97.2858C94.0301 79.4998 91.3867 76.8561 91.3867 73.6V47.9998C91.3867 44.7433 94.0301 42.0996 97.2858 42.0996H122.882Z" fill="currentColor" fill-opacity="0.2" stroke="currentColor"/>
    <path d="M106.181 56.926H109.392C109.973 56.926 110.497 57.0213 110.965 57.212C111.442 57.4027 111.845 57.6887 112.174 58.07C112.512 58.4427 112.772 58.915 112.954 59.487C113.136 60.0503 113.227 60.709 113.227 61.463C113.227 62.217 113.136 62.88 112.954 63.452C112.772 64.0153 112.512 64.4877 112.174 64.869C111.845 65.2417 111.442 65.5233 110.965 65.714C110.497 65.9047 109.973 66 109.392 66H106.181V56.926ZM109.392 64.7C110.068 64.7 110.614 64.4877 111.03 64.063C111.446 63.6383 111.654 63.0143 111.654 62.191V60.735C111.654 59.9117 111.446 59.2877 111.03 58.863C110.614 58.4383 110.068 58.226 109.392 58.226H107.65V64.7H109.392Z" fill="currentColor"/>
</svg>
