<svg width="48" height="48" viewBox="0 0 48 48" fill="none" xmlns="http://www.w3.org/2000/svg">
<path fill-rule="evenodd" clip-rule="evenodd" d="M17.254 11.8111V8.64578L14.6456 11.254H12V16.5087H21.254V24.3635L19.1043 26.5132L27.5015 34.9104L21.254 41.1579V41.4511L21.1074 41.3045L20.9598 41.4521L25.5035 45.9959H35.7627V30.3198L17.254 11.8111ZM37.7627 29.4913V48L37.7593 47.9959H24.6751L18.1313 41.4521L24.6731 34.9104L19.254 29.4913V36.6227L12.7102 30.0789L19.254 23.5351V18.5087H10V9.254H13.8172L23.0719 0H32.3259L23.0719 9.254H19.254V10.9826L37.7627 29.4913ZM22.2435 7.254L27.4975 2H23.9003L18.6459 7.254H22.2435ZM17.254 28.3635L15.5386 30.0789L17.254 31.7943V28.3635Z" fill="currentColor"/>
</svg>
