<svg width="48" height="60" viewBox="0 0 48 60" fill="none" xmlns="http://www.w3.org/2000/svg">
<path fill-rule="evenodd" clip-rule="evenodd" d="M28.9396 31.9395L31.0609 34.0608L20.1215 45.0001L31.0609 55.9395L28.9396 58.0608L15.8789 45.0001L28.9396 31.9395Z" fill="currentColor"/>
<path fill-rule="evenodd" clip-rule="evenodd" d="M35.25 4.51446C30.9606 2.03795 25.9738 1.04602 21.0632 1.69252C16.1525 2.33902 11.5924 4.58782 8.09009 8.09013C4.58778 11.5924 2.33898 16.1525 1.69248 21.0632C1.04598 25.9738 2.03791 30.9606 4.51442 35.25C4.92863 35.9675 5.84602 36.2133 6.56346 35.7991C7.2809 35.3849 7.52671 34.4675 7.1125 33.75C4.96619 30.0325 4.10652 25.7107 4.66682 21.4548C5.22712 17.1989 7.17607 13.2468 10.2114 10.2114C13.2467 7.17611 17.1988 5.22716 21.4547 4.66686C25.7106 4.10656 30.0325 4.96623 33.75 7.11254C37.4675 9.25884 40.3729 12.5718 42.0156 16.5377C43.6584 20.5036 43.9466 24.9007 42.8355 29.047C41.7245 33.1934 39.2764 36.8572 35.8708 39.4704C32.4653 42.0836 28.2926 43.5 24 43.5C23.1716 43.5 22.5 44.1716 22.5 45C22.5 45.8285 23.1716 46.5 24 46.5C28.953 46.5 33.7676 44.8657 37.6971 41.8505C41.6266 38.8353 44.4514 34.6077 45.7333 29.8235C47.0153 25.0392 46.6827 19.9656 44.7873 15.3897C42.8918 10.8137 39.5394 6.99097 35.25 4.51446Z" fill="currentColor"/>
</svg>
