<svg width="16" height="16" viewBox="0 0 16 16" fill="none" xmlns="http://www.w3.org/2000/svg">
<path d="M11.5 16C9.01867 16 7 13.9813 7 11.5C7 9.01867 9.01867 7 11.5 7C13.9813 7 16 9.01867 16 11.5C16 13.9813 13.9813 16 11.5 16ZM11.5 8C9.57 8 8 9.57 8 11.5C8 13.43 9.57 15 11.5 15C13.43 15 15 13.43 15 11.5C15 9.57 13.43 8 11.5 8Z" fill="currentColor"/>
<path d="M0.5 11.9987C0.224 11.9987 0 11.774 0 11.4987C0.002 8.74267 2.246 6.5 5.002 6.5C5.682 6.50067 6.34067 6.63533 6.96267 6.9C7.08533 6.952 7.18067 7.04933 7.23067 7.17333C7.28067 7.29733 7.27933 7.43333 7.22667 7.556C7.148 7.74067 6.968 7.86 6.76667 7.86C6.69933 7.86 6.63333 7.84667 6.57067 7.82C6.07267 7.608 5.546 7.5 5.00467 7.5C3.934 7.5 2.93 7.91533 2.174 8.67C1.41733 9.42533 1.00067 10.43 1 11.4987C1 11.7747 0.775333 11.9987 0.5 11.9987Z" fill="currentColor"/>
<path d="M5 6.5C3.208 6.5 1.75 5.042 1.75 3.25C1.75 1.458 3.208 0 5 0C6.792 0 8.25 1.458 8.25 3.25C8.25 5.042 6.792 6.5 5 6.5ZM5 1C3.75933 1 2.75 2.00933 2.75 3.25C2.75 4.49067 3.75933 5.5 5 5.5C6.24067 5.5 7.25 4.49067 7.25 3.25C7.25 2.00933 6.24067 1 5 1Z" fill="currentColor"/>
<path d="M9.5 12C9.22386 12 9 11.7761 9 11.5C9 11.2239 9.22386 11 9.5 11H13.5C13.7761 11 14 11.2239 14 11.5C14 11.7761 13.7761 12 13.5 12H9.5Z" fill="currentColor"/>
</svg>
