<svg width="48" height="48" viewBox="0 0 48 48" fill="none" xmlns="http://www.w3.org/2000/svg">
<g clip-path="url(#clip0_4_589)">
<path d="M35.9997 48C35.4817 48 35.0057 47.738 34.7297 47.3L27.4017 35.674C26.2757 35.89 25.1337 36 23.9997 36C22.8657 36 21.7237 35.89 20.5957 35.672L13.2677 47.3C12.9917 47.738 12.5177 48 11.9997 48C11.9417 48 11.8837 47.996 11.8257 47.99C11.2477 47.92 10.7597 47.522 10.5777 46.974L7.85172 38.8L1.20572 37.47C0.691721 37.366 0.263721 36.998 0.0877209 36.506C-0.0882791 36.014 0.00772086 35.456 0.337721 35.05L7.82972 25.894C6.63172 23.448 5.99972 20.728 5.99972 18C5.99972 8.074 14.0737 0 23.9997 0C33.9257 0 41.9997 8.074 41.9997 18C41.9997 20.728 41.3677 23.448 40.1697 25.896L47.6617 35.05C47.9937 35.456 48.0897 36.014 47.9117 36.506C47.7357 36.998 47.3077 37.368 46.7937 37.47L40.1477 38.8L37.4237 46.974C37.2417 47.522 36.7537 47.92 36.1797 47.988C36.1177 47.996 36.0577 48 35.9997 48ZM35.5797 43.02L37.5777 37.026C37.7477 36.516 38.1797 36.134 38.7057 36.03L43.7577 35.02L38.5197 28.62C36.4657 31.422 33.6377 33.582 30.4077 34.82L35.5797 43.02ZM9.29372 36.03C9.81972 36.134 10.2537 36.518 10.4217 37.026L12.4197 43.018L17.5877 34.816C14.3597 33.58 11.5317 31.42 9.47572 28.618L4.23772 35.018L9.29372 36.03ZM23.9997 3C15.7277 3 8.99972 9.73 8.99972 18C8.99972 26.27 15.7297 33 23.9997 33C32.2697 33 38.9997 26.27 38.9997 18C38.9997 9.73 32.2697 3 23.9997 3Z" fill="currentColor"/>
<path d="M18.1835 27.4395C17.9515 27.4395 17.7175 27.4095 17.4915 27.3495C16.8015 27.1675 16.2215 26.7255 15.8635 26.1075C15.4455 25.3855 15.3875 24.4955 15.7095 23.7275L17.4715 19.6835L14.2995 16.5635C13.7935 16.0715 13.5075 15.4095 13.4955 14.6975C13.4835 13.9875 13.7495 13.3135 14.2455 12.8015C14.7515 12.2775 15.4255 11.9895 16.1435 11.9895H19.5215L21.6015 7.90145C21.9475 7.24745 22.5135 6.77545 23.2035 6.56145C23.4635 6.48145 23.7335 6.43945 24.0015 6.43945C24.4355 6.43945 24.8715 6.54745 25.2595 6.75345C25.7415 7.00745 26.1315 7.39745 26.3855 7.87945L28.4775 11.9995H31.8635C33.2835 11.9995 34.4675 13.1655 34.5035 14.5995C34.5215 15.3415 34.2255 16.0635 33.6915 16.5795L30.5295 19.6835L32.2815 23.7075C32.8595 25.0835 32.2175 26.6595 30.8555 27.2315C30.5255 27.3695 30.1775 27.4375 29.8215 27.4375C29.3475 27.4375 28.8815 27.3135 28.4755 27.0775L23.9995 24.5595L19.5055 27.0875C19.1115 27.3155 18.6515 27.4395 18.1835 27.4395ZM23.9995 21.3375C24.2575 21.3375 24.5115 21.4035 24.7355 21.5295L29.1435 24.0095L27.3695 19.9335C27.1235 19.3675 27.2535 18.6975 27.6935 18.2655L31.0175 14.9995H27.5575C26.9895 14.9995 26.4775 14.6855 26.2195 14.1795L23.9995 9.80545L21.7775 14.1715C21.5195 14.6775 21.0075 14.9915 20.4415 14.9915H16.9795L20.3075 18.2655C20.7475 18.6975 20.8775 19.3675 20.6315 19.9335L18.8575 24.0095L23.2655 21.5295C23.4875 21.4035 23.7415 21.3375 23.9995 21.3375Z" fill="currentColor"/>
</g>
<defs>
<clipPath id="clip0_4_589">
<rect width="48" height="48" fill="currentColor"/>
</clipPath>
</defs>
</svg>
