<svg width="48" height="48" viewBox="0 0 48 48" fill="none" xmlns="http://www.w3.org/2000/svg">
<g clip-path="url(#clip0_4_962)">
<path d="M10.6533 37.1715C10.2793 37.1715 9.92129 37.0335 9.64329 36.7815C5.57529 33.0795 3.19529 28.0135 2.93729 22.5215C2.67929 17.0275 4.57729 11.7615 8.27929 7.69545C12.1893 3.40145 17.7273 0.939453 23.4733 0.939453C27.0193 0.939453 30.5433 1.87545 33.6673 3.64745C34.0153 3.84545 34.2673 4.16745 34.3733 4.55345C34.4793 4.93945 34.4293 5.34545 34.2313 5.69345C33.9653 6.16145 33.4653 6.45345 32.9253 6.45345C32.6673 6.45345 32.4113 6.38545 32.1853 6.25745C29.5153 4.74145 26.5033 3.94145 23.4753 3.94145C18.5693 3.94145 13.8393 6.04545 10.4973 9.71545C7.33529 13.1875 5.71529 17.6875 5.93529 22.3795C6.15529 27.0735 8.1893 31.3995 11.6653 34.5615C11.9613 34.8315 12.1353 35.1995 12.1533 35.6015C12.1713 36.0015 12.0333 36.3855 11.7633 36.6815C11.4793 36.9935 11.0753 37.1715 10.6533 37.1715Z" fill="currentColor"/>
<path d="M4.02797 46.6311C2.77997 46.6311 1.76997 46.2571 1.03197 45.5171C-0.866031 43.6151 -0.320031 40.0071 2.65797 34.7931C2.92397 34.3271 3.42397 34.0371 3.96197 34.0371C4.22197 34.0371 4.47797 34.1051 4.70397 34.2331C5.42397 34.6451 5.67397 35.5631 5.26397 36.2791C2.51397 41.0951 2.80997 43.0491 3.15597 43.3951C3.29797 43.5371 3.60197 43.6151 4.01397 43.6151C6.05797 43.6151 10.618 41.7311 17.286 36.4431C17.55 36.2331 17.882 36.1191 18.218 36.1191C18.68 36.1191 19.108 36.3271 19.394 36.6871C19.908 37.3331 19.798 38.2791 19.152 38.7931C16.18 41.1491 8.75997 46.6271 4.03597 46.6291H4.02797V46.6311Z" fill="currentColor"/>
<path d="M29.5932 44.0549C29.2312 44.0549 28.8672 43.9689 28.5412 43.8029C27.9832 43.5229 27.5672 43.0409 27.3692 42.4449L25.5292 36.9189L18.8692 30.2589L13.3412 28.4189C12.1172 28.0149 11.4492 26.6869 11.8552 25.4589C11.9712 25.1109 12.1692 24.7909 12.4272 24.5329L14.4692 22.4909C16.0332 20.9269 18.1032 20.0649 20.2952 20.0649C21.1872 20.0649 22.0732 20.2089 22.9272 20.4949L25.2432 21.2649L34.5332 11.9749C36.0232 10.4849 37.8932 9.42888 39.9372 8.92088L44.0272 7.89288C44.2812 7.82888 44.5412 7.79688 44.8012 7.79688C46.2672 7.79688 47.5392 8.79087 47.8932 10.2149C48.0172 10.7189 48.0192 11.2509 47.8932 11.7549L46.8672 15.8549C46.3572 17.8989 45.2992 19.7669 43.8092 21.2569L34.5212 30.5469L35.2912 32.8649C36.2872 35.8549 35.5232 39.0949 33.2952 41.3229L31.2512 43.3669C30.9932 43.6249 30.6732 43.8229 30.3272 43.9369C30.0912 44.0149 29.8432 44.0549 29.5932 44.0549ZM29.8792 40.4889L31.1792 39.1989C32.5972 37.7809 33.0832 35.7169 32.4492 33.8129L32.1512 32.9189L28.5552 36.5149L29.8792 40.4889ZM26.8412 33.9869L31.7472 29.0769C31.7592 29.0649 31.7712 29.0549 31.7832 29.0429L41.6912 19.1329C42.7972 18.0269 43.5812 16.6409 43.9612 15.1269L44.9852 11.0309C44.9912 11.0029 44.9912 10.9689 44.9852 10.9409C44.9612 10.8489 44.8752 10.7989 44.8012 10.7989C44.7852 10.7989 44.7712 10.8009 44.7552 10.8049L40.6672 11.8309C39.1472 12.2089 37.7612 12.9929 36.6572 14.0969L26.7712 23.9829C26.7552 24.0029 26.7392 24.0209 26.7252 24.0349L21.8052 28.9509L26.8412 33.9869ZM19.2752 27.2329L22.8712 23.6369L21.9812 23.3409C21.4332 23.1589 20.8692 23.0669 20.3012 23.0669C18.9052 23.0669 17.5892 23.6169 16.5912 24.6129L15.2952 25.9089L19.2752 27.2329Z" fill="currentColor"/>
<path d="M10.6533 37.1715C10.2793 37.1715 9.92129 37.0335 9.64329 36.7815C5.57529 33.0795 3.19529 28.0135 2.93729 22.5215C2.67929 17.0275 4.57729 11.7615 8.27929 7.69545C12.1893 3.40145 17.7273 0.939453 23.4733 0.939453C27.0193 0.939453 30.5433 1.87545 33.6673 3.64745C34.0153 3.84545 34.2673 4.16745 34.3733 4.55345C34.4793 4.93945 34.4293 5.34545 34.2313 5.69345C33.9653 6.16145 33.4653 6.45345 32.9253 6.45345C32.6673 6.45345 32.4113 6.38545 32.1853 6.25745C29.5153 4.74145 26.5033 3.94145 23.4753 3.94145C18.5693 3.94145 13.8393 6.04545 10.4973 9.71545C7.33529 13.1875 5.71529 17.6875 5.93529 22.3795C6.15529 27.0735 8.1893 31.3995 11.6653 34.5615C11.9613 34.8315 12.1353 35.1995 12.1533 35.6015C12.1713 36.0015 12.0333 36.3855 11.7633 36.6815C11.4793 36.9935 11.0753 37.1715 10.6533 37.1715Z" fill="currentColor"/>
<path d="M4.02797 46.6311C2.77997 46.6311 1.76997 46.2571 1.03197 45.5171C-0.866031 43.6151 -0.320031 40.0071 2.65797 34.7931C2.92397 34.3271 3.42397 34.0371 3.96197 34.0371C4.22197 34.0371 4.47797 34.1051 4.70397 34.2331C5.42397 34.6451 5.67397 35.5631 5.26397 36.2791C2.51397 41.0951 2.80997 43.0491 3.15597 43.3951C3.29797 43.5371 3.60197 43.6151 4.01397 43.6151C6.05797 43.6151 10.618 41.7311 17.286 36.4431C17.55 36.2331 17.882 36.1191 18.218 36.1191C18.68 36.1191 19.108 36.3271 19.394 36.6871C19.908 37.3331 19.798 38.2791 19.152 38.7931C16.18 41.1491 8.75997 46.6271 4.03597 46.6291H4.02797V46.6311Z" fill="currentColor"/>
<path d="M29.5952 44.0568C29.2332 44.0568 28.8692 43.9708 28.5432 43.8048C27.9852 43.5248 27.5692 43.0428 27.3712 42.4468L25.5312 36.9208L18.8712 30.2608L13.3432 28.4208C12.1192 28.0168 11.4512 26.6888 11.8572 25.4608C11.9732 25.1128 12.1712 24.7928 12.4292 24.5348L14.4712 22.4928C16.0352 20.9288 18.1052 20.0668 20.2972 20.0668C21.1892 20.0668 22.0752 20.2108 22.9292 20.4968L25.2452 21.2668L34.5352 11.9768C36.0252 10.4868 37.8952 9.43083 39.9392 8.92283L44.0292 7.89483C44.2832 7.83083 44.5432 7.79883 44.8032 7.79883C46.2691 7.79883 47.5412 8.79283 47.8952 10.2168C48.0192 10.7208 48.0212 11.2528 47.8952 11.7568L46.8692 15.8568C46.3592 17.9008 45.3012 19.7688 43.8112 21.2588L34.5232 30.5488L35.2932 32.8668C36.2892 35.8568 35.5252 39.0968 33.2972 41.3248L31.2532 43.3688C30.9952 43.6268 30.6752 43.8248 30.3292 43.9388C30.0932 44.0168 29.8452 44.0568 29.5952 44.0568ZM29.8812 40.4908L31.1812 39.2008C32.5992 37.7828 33.0852 35.7188 32.4512 33.8148L32.1532 32.9208L28.5572 36.5168L29.8812 40.4908ZM26.8432 33.9888L31.7492 29.0788C31.7612 29.0668 31.7732 29.0568 31.7852 29.0448L41.6932 19.1348C42.7992 18.0288 43.5832 16.6428 43.9632 15.1288L44.9872 11.0328C44.9932 11.0048 44.9932 10.9708 44.9872 10.9428C44.9632 10.8508 44.8772 10.8008 44.8032 10.8008C44.7872 10.8008 44.7732 10.8028 44.7572 10.8068L40.6692 11.8328C39.1492 12.2108 37.7632 12.9948 36.6592 14.0988L26.7732 23.9848C26.7572 24.0048 26.7412 24.0228 26.7272 24.0368L21.8072 28.9528L26.8432 33.9888ZM19.2772 27.2348L22.8732 23.6388L21.9832 23.3428C21.4352 23.1608 20.8712 23.0688 20.3032 23.0688C18.9072 23.0688 17.5912 23.6188 16.5932 24.6148L15.2972 25.9108L19.2772 27.2348Z" fill="currentColor"/>
</g>
<defs>
<clipPath id="clip0_4_962">
<rect width="48" height="48" fill="currentColor"/>
</clipPath>
</defs>
</svg>
