<svg width="16" height="16" viewBox="0 0 16 16" fill="none" xmlns="http://www.w3.org/2000/svg">
<path d="M2.06284 0.666016H12.3097C12.6801 0.666016 13.0354 0.813181 13.2974 1.07514L14.9236 2.70134C15.1855 2.96329 15.3327 3.31858 15.3327 3.68904V13.9359C15.3327 14.7073 14.7073 15.3327 13.9359 15.3327H2.06284C1.2914 15.3327 0.666016 14.7073 0.666016 13.9359V2.06284C0.666016 1.2914 1.2914 0.666016 2.06284 0.666016ZM3.80887 2.06284H2.41205C2.21919 2.06284 2.06284 2.21919 2.06284 2.41205V13.5866C2.06284 13.7795 2.21919 13.9359 2.41205 13.9359H13.5866C13.7795 13.9359 13.9359 13.7795 13.9359 13.5866V3.83369C13.9359 3.74107 13.8991 3.65225 13.8336 3.58676L12.4119 2.16512C12.3464 2.09963 12.2576 2.06284 12.165 2.06284H12.0751C11.9456 2.06284 11.8406 2.16784 11.8406 2.29736V4.85649C11.8406 5.43508 11.3716 5.90411 10.793 5.90411H5.2057C4.62711 5.90411 4.15808 5.43508 4.15808 4.85649V2.41205C4.15808 2.21919 4.00173 2.06284 3.80887 2.06284ZM5.90411 4.50729H10.0946C10.2874 4.50729 10.4438 4.35094 10.4438 4.15808V2.41205C10.4438 2.21919 10.2874 2.06284 10.0946 2.06284H5.90411C5.71125 2.06284 5.5549 2.21919 5.5549 2.41205V4.15808C5.5549 4.35094 5.71125 4.50729 5.90411 4.50729Z" fill="currentColor"/>
</svg>
