<svg width="20" height="20" viewBox="0 0 20 20" fill="none" xmlns="http://www.w3.org/2000/svg">
<path d="M1.875 20C0.840833 20 0 19.1592 0 18.125V1.875C0 0.840833 0.840833 0 1.875 0H18.125C19.1592 0 20 0.840833 20 1.875V18.125C20 19.1592 19.1592 20 18.125 20H1.875ZM1.875 1.25C1.53 1.25 1.25 1.53 1.25 1.875V18.125C1.25 18.47 1.53 18.75 1.875 18.75H18.125C18.47 18.75 18.75 18.47 18.75 18.125V1.875C18.75 1.53 18.47 1.25 18.125 1.25H1.875Z" fill="currentColor"/>
<path d="M8.21417 13.75C8.07 13.75 7.92667 13.7267 7.78833 13.68C7.45 13.5675 7.175 13.3283 7.01583 13.0083C6.92417 12.8242 6.875 12.6175 6.875 12.4117V7.58833C6.875 6.85 7.475 6.25 8.21333 6.25C8.41917 6.25 8.62583 6.29833 8.81 6.39083L13.635 8.80417C14.295 9.13333 14.5633 9.93833 14.2342 10.5983C14.1058 10.8558 13.8925 11.0692 13.635 11.1975L8.81167 13.61C8.62333 13.7025 8.4225 13.75 8.21417 13.75ZM8.21333 7.5C8.165 7.5 8.125 7.53917 8.125 7.58833V12.4117C8.125 12.425 8.12833 12.4392 8.13417 12.4508C8.145 12.4733 8.1625 12.4875 8.185 12.4958C8.195 12.4983 8.20417 12.5 8.21333 12.5C8.22667 12.5 8.24 12.4967 8.2525 12.4908L13.0758 10.0783C13.0925 10.07 13.1075 10.0558 13.115 10.0392C13.1367 9.99583 13.1192 9.94333 13.0758 9.92167L8.25083 7.50917C8.24083 7.50333 8.22667 7.5 8.21333 7.5Z" fill="currentColor"/>
</svg>
