<svg width="16" height="16" viewBox="0 0 16 16" fill="none" xmlns="http://www.w3.org/2000/svg">
<g id="arrow-right">
<rect id="Rectangle 4396" x="8.89648" y="1.375" width="1" height="13.3333" rx="0.5" transform="rotate(12 8.89648 1.375)" fill="currentColor"/>
<path id="Union" d="M15.9368 8.17419C15.9189 8.24737 15.8829 8.31776 15.8283 8.37924L11.5862 13.1587C11.4012 13.3671 11.0726 13.3942 10.8521 13.2194C10.6317 13.0445 10.603 12.7338 10.7879 12.5255L14.8281 7.97365L10.837 3.47715C10.652 3.26876 10.6808 2.95808 10.9012 2.78322C11.1217 2.60836 11.4503 2.63554 11.6353 2.84393L15.8774 7.62336C16.0188 7.78265 16.0353 8.00171 15.9368 8.17419Z" fill="currentColor"/>
<path id="Union_2" d="M0.0631795 8.17419C0.0811095 8.24737 0.117079 8.31776 0.17165 8.37924L4.41382 13.1587C4.59878 13.3671 4.92742 13.3942 5.14786 13.2194C5.36829 13.0445 5.39704 12.7338 5.21208 12.5255L1.17195 7.97365L5.16299 3.47715C5.34795 3.26876 5.3192 2.95808 5.09877 2.78322C4.87833 2.60836 4.54969 2.63554 4.36473 2.84393L0.122561 7.62336C-0.0188246 7.78265 -0.0353384 8.00171 0.0631795 8.17419Z" fill="currentColor"/>
</g>
</svg>
