<svg width="48" height="48" viewBox="0 0 48 48" fill="none" xmlns="http://www.w3.org/2000/svg">
<path d="M5.41829 46.4814C4.92829 46.4814 4.44029 46.4014 3.97029 46.2414C2.83229 45.8534 1.91229 45.0474 1.38029 43.9694C0.724291 42.6414 0.766291 41.0754 1.48829 39.7834L11.1543 23.9874C11.1543 23.9874 1.49229 8.22744 1.48829 8.21944C0.902291 7.16944 0.758291 5.95544 1.08629 4.79944C1.41429 3.64144 2.17229 2.68144 3.22029 2.09544C3.89029 1.72144 4.65029 1.52344 5.41629 1.52344C6.10229 1.52344 6.79029 1.68344 7.40629 1.98744L45.4503 21.3134C46.3723 21.7834 46.9903 22.7154 47.0723 23.7574C47.0843 23.8334 47.0923 23.9094 47.0923 23.9874C47.0923 24.0394 47.0883 24.0874 47.0803 24.1374C47.0683 24.5414 46.9603 24.9634 46.7663 25.3494C46.4763 25.9174 46.0223 26.3714 45.4543 26.6614L7.42429 46.0074C6.78429 46.3214 6.11029 46.4814 5.41829 46.4814ZM4.07629 41.2994C3.86429 41.6814 3.85629 42.2074 4.07029 42.6434C4.32629 43.1594 4.84229 43.4794 5.42029 43.4794C5.65029 43.4794 5.87229 43.4274 6.08029 43.3254L41.1463 25.4874H13.7543L4.07629 41.2994ZM41.1363 22.4874L6.06429 4.67144C5.87029 4.57544 5.64429 4.52344 5.41829 4.52344C5.16229 4.52344 4.90829 4.58944 4.68429 4.71544C3.96629 5.11544 3.70629 6.02744 4.10229 6.74744L13.7523 22.4874H41.1363Z" fill="currentColor"/>
</svg>
