<svg width="20" height="20" viewBox="0 0 20 20" fill="none" xmlns="http://www.w3.org/2000/svg">
<g id="settings-slider" clip-path="url(#clip0_7729_39356)">
<path id="Vector" d="M1.875 20C0.840833 20 0 19.1592 0 18.125V1.875C0 0.840833 0.840833 0 1.875 0H18.125C19.1592 0 20 0.840833 20 1.875V18.125C20 19.1592 19.1592 20 18.125 20H1.875ZM1.875 1.25C1.53 1.25 1.25 1.53 1.25 1.875V18.125C1.25 18.47 1.53 18.75 1.875 18.75H18.125C18.47 18.75 18.75 18.47 18.75 18.125V1.875C18.75 1.53 18.47 1.25 18.125 1.25H1.875Z" fill="currentColor"/>
<path id="Vector_2" d="M8.75 15.625C7.60833 15.625 6.61333 14.8358 6.33167 13.75H4.375C4.03 13.75 3.75 13.47 3.75 13.125C3.75 12.78 4.03 12.5 4.375 12.5H6.3325C6.61417 11.4142 7.60833 10.625 8.74917 10.625C9.89167 10.625 10.8867 11.4142 11.1683 12.5H15.625C15.97 12.5 16.25 12.78 16.25 13.125C16.25 13.47 15.97 13.75 15.625 13.75H11.1683C10.8867 14.8358 9.89167 15.625 8.75 15.625ZM8.74917 11.875C8.06 11.875 7.5 12.4358 7.5 13.125C7.5 13.8142 8.06083 14.375 8.75 14.375C9.43917 14.375 10 13.8142 10 13.125C10 12.4358 9.43917 11.875 8.74917 11.875V11.5625V11.875Z" fill="currentColor"/>
<path id="Vector_3" d="M13.7492 9.375C12.6083 9.37417 11.6142 8.585 11.3325 7.5H4.375C4.03 7.5 3.75 7.22 3.75 6.875C3.75 6.53 4.03 6.25 4.375 6.25H11.3317C11.6133 5.16417 12.6083 4.375 13.75 4.375C15.1283 4.375 16.25 5.49667 16.25 6.875C16.2492 8.25333 15.1275 9.375 13.7492 9.375ZM13.75 5.625C13.0608 5.625 12.5 6.18583 12.5 6.875C12.5 7.56417 13.0608 8.125 13.75 8.125C14.4392 8.125 15 7.56417 15 6.875C15 6.18583 14.4392 5.625 13.75 5.625Z" fill="currentColor"/>
</g>
<defs>
<clipPath id="clip0_7729_39356">
<rect width="20" height="20" fill="white"/>
</clipPath>
</defs>
</svg>
