<svg width="48" height="48" viewBox="0 0 48 48" fill="none" xmlns="http://www.w3.org/2000/svg">
<g clip-path="url(#clip0_4_991)">
<path d="M16.3114 47.9758C14.9594 47.9758 13.6654 47.4758 12.6674 46.5678C11.4714 45.4798 10.8274 43.9278 10.9014 42.3118L11.0454 39.5038C11.1134 38.1738 10.0874 37.0358 8.75736 36.9658C8.71536 36.9638 8.67336 36.9618 8.63336 36.9618C8.59136 36.9618 8.55136 36.9618 8.50936 36.9658L5.70736 37.1078C5.61336 37.1118 5.51536 37.1158 5.41936 37.1158C4.08336 37.1158 2.79736 36.6218 1.80136 35.7238C0.727357 34.7558 0.0933574 33.4278 0.0173574 31.9818C-0.0686426 30.3478 0.579357 28.7818 1.79136 27.6838L3.87536 25.8038C4.35336 25.3718 4.63536 24.7778 4.66936 24.1318C4.70136 23.4858 4.48136 22.8658 4.04936 22.3858C3.99536 22.3258 3.93736 22.2678 3.87536 22.2118L1.79136 20.3198C0.719357 19.3478 0.0913574 18.0178 0.0213574 16.5718C-0.0506426 15.1278 0.447357 13.7418 1.41936 12.6698C2.44336 11.5398 3.90336 10.8918 5.42336 10.8918C5.51136 10.8918 5.60136 10.8938 5.68936 10.8978L8.49336 11.0398C8.53536 11.0438 8.61936 11.0438 8.61936 11.0438C9.90736 11.0438 10.9674 10.0378 11.0354 8.75581C11.0394 8.67181 11.0394 8.58581 11.0354 8.50181L10.9014 5.68981C10.7614 2.70381 13.0754 0.161812 16.0594 0.0218125C16.1454 0.0178125 16.2314 0.0158125 16.3174 0.0158125C17.8374 0.0158125 19.2954 0.661812 20.3194 1.78781L22.2014 3.86581C22.6354 4.34781 23.2274 4.62981 23.8714 4.66381C23.9154 4.66581 23.9594 4.66781 24.0034 4.66781C24.6054 4.66781 25.1614 4.45381 25.6134 4.04781C25.6754 3.99181 25.7334 3.93381 25.7874 3.87181L27.6874 1.78781C28.6534 0.717812 29.9834 0.0878125 31.4294 0.0138125C31.5214 0.0098125 31.6114 0.0078125 31.7014 0.0078125C33.0474 0.0078125 34.3394 0.503812 35.3374 1.40581C36.5514 2.50181 37.1994 4.06781 37.1154 5.70181L36.9734 8.50181C36.9074 9.83181 37.9354 10.9678 39.2654 11.0358C39.3074 11.0378 39.3474 11.0398 39.3874 11.0398C39.4254 11.0398 39.4634 11.0398 39.5014 11.0378L42.3014 10.8958C42.3954 10.8918 42.4854 10.8898 42.5774 10.8898C43.9214 10.8898 45.2094 11.3878 46.2074 12.2938C47.2794 13.2658 47.9094 14.5978 47.9814 16.0418C48.0614 17.6718 47.4134 19.2338 46.2034 20.3278L44.1194 22.2078C43.6414 22.6398 43.3594 23.2338 43.3274 23.8798C43.2934 24.5258 43.5154 25.1458 43.9474 25.6238C44.0034 25.6858 44.0594 25.7438 44.1194 25.7958L46.2034 27.6778C47.2774 28.6478 47.9094 29.9778 47.9834 31.4238C48.0574 32.8698 47.5634 34.2578 46.5934 35.3298C45.5674 36.4638 44.0994 37.1138 42.5634 37.1138C42.4774 37.1138 42.3894 37.1118 42.3014 37.1078L39.4974 36.9658C39.4534 36.9638 39.4094 36.9618 39.3654 36.9618C38.7614 36.9618 38.2054 37.1778 37.7534 37.5838C37.2734 38.0158 36.9914 38.6078 36.9594 39.2538C36.9554 39.3358 36.9554 39.4198 36.9594 39.5038L37.1014 42.3038C37.1654 43.7538 36.6634 45.1398 35.6854 46.2098C34.7074 47.2798 33.3734 47.9038 31.9294 47.9678C31.8434 47.9718 31.7534 47.9738 31.6634 47.9738C30.1634 47.9738 28.7154 47.3318 27.6914 46.2138L25.8034 44.1258C25.3454 43.6198 24.6914 43.3298 24.0054 43.3298C23.4054 43.3298 22.8314 43.5498 22.3874 43.9518C22.3274 44.0058 22.2674 44.0638 22.2134 44.1258L20.3214 46.2098C19.2974 47.3318 17.8354 47.9758 16.3114 47.9758ZM8.63336 33.9638C8.72536 33.9638 8.81736 33.9658 8.90936 33.9718C11.8934 34.1258 14.1954 36.6778 14.0414 39.6598L13.8974 42.4598C13.8654 43.1738 14.1514 43.8658 14.6854 44.3518C15.1374 44.7638 15.6994 44.9798 16.3094 44.9798C16.3494 44.9798 16.3874 44.9798 16.4274 44.9778C17.0714 44.9478 17.6674 44.6678 18.1014 44.1898L19.9894 42.1098C20.1094 41.9758 20.2394 41.8458 20.3754 41.7218C21.3734 40.8218 22.6614 40.3258 24.0054 40.3258C25.5374 40.3258 27.0034 40.9758 28.0294 42.1098L29.9114 44.1918C30.3634 44.6858 31.0154 44.9698 31.7034 44.9698L31.8014 44.9678C33.1294 44.9078 34.1654 43.7758 34.1054 42.4438L33.9634 39.6538C33.9534 39.4698 33.9534 39.2838 33.9634 39.0978C34.0374 37.6538 34.6694 36.3238 35.7434 35.3558C36.7414 34.4558 38.0254 33.9598 39.3614 33.9598C39.4574 33.9598 39.5534 33.9618 39.6514 33.9678L42.4494 34.1098C42.4974 34.1118 42.5434 34.1138 42.5874 34.1138C43.2594 34.1138 43.9074 33.8238 44.3654 33.3158C44.7994 32.8358 45.0194 32.2158 44.9874 31.5718C44.9554 30.9258 44.6734 30.3338 44.1934 29.8998L42.1094 28.0198C41.9734 27.8978 41.8434 27.7678 41.7194 27.6298C39.7174 25.4138 39.8914 21.9798 42.1094 19.9758L44.1934 18.0958C44.7334 17.6078 45.0214 16.9118 44.9854 16.1838C44.9534 15.5378 44.6734 14.9438 44.1934 14.5098C43.7474 14.1058 43.1734 13.8838 42.5754 13.8838C42.5334 13.8838 42.4934 13.8858 42.4514 13.8878L39.6534 14.0298C39.5654 14.0338 39.4754 14.0358 39.3874 14.0358C39.2954 14.0358 39.2034 14.0338 39.1134 14.0278C36.1314 13.8778 33.8274 11.3298 33.9774 8.34781L34.1194 5.54581C34.1574 4.81581 33.8674 4.11781 33.3254 3.62981C32.8734 3.21981 32.3194 3.00581 31.7214 3.00581C31.6774 3.00581 31.6314 3.00781 31.5854 3.00981C30.9374 3.04181 30.3434 3.32381 29.9114 3.80381L28.0154 5.88381C27.8974 6.01581 27.7634 6.14981 27.6234 6.27581C26.6274 7.17381 25.3394 7.66781 23.9954 7.66781C23.9034 7.66781 23.8114 7.66581 23.7194 7.66181C22.2734 7.58581 20.9454 6.95381 19.9774 5.87981L18.0994 3.80381C17.6434 3.30381 16.9914 3.01581 16.3114 3.01581C16.2734 3.01581 16.2354 3.01581 16.1974 3.01781C14.8674 3.07981 13.8354 4.21581 13.8974 5.54781L14.0314 8.34781C14.0414 8.52981 14.0414 8.72181 14.0314 8.91381C13.8794 11.7898 11.5034 14.0438 8.62136 14.0438C8.52736 14.0438 8.43336 14.0418 8.33936 14.0358L5.54136 13.8958C5.50536 13.8938 5.46536 13.8918 5.42736 13.8918C4.74936 13.8918 4.09736 14.1818 3.64136 14.6838C3.20736 15.1618 2.98536 15.7798 3.01736 16.4238C3.04936 17.0678 3.32936 17.6618 3.80736 18.0958L5.88936 19.9858C6.02336 20.1078 6.15336 20.2358 6.27536 20.3738C8.27736 22.5918 8.10336 26.0258 5.88536 28.0278L3.80336 29.9078C3.26336 30.3958 2.97536 31.0958 3.01336 31.8238C3.04736 32.4678 3.32936 33.0618 3.80936 33.4938C4.25336 33.8938 4.82736 34.1138 5.42336 34.1138C5.46536 34.1138 5.50936 34.1138 5.55136 34.1098L8.35336 33.9678C8.44736 33.9658 8.53936 33.9638 8.63336 33.9638Z" fill="currentColor"/>
<path d="M24 34.5C18.21 34.5 13.5 29.79 13.5 24C13.5 18.21 18.21 13.5 24 13.5C29.79 13.5 34.5 18.21 34.5 24C34.5 29.79 29.79 34.5 24 34.5ZM24 16.5C19.864 16.5 16.5 19.864 16.5 24C16.5 28.136 19.864 31.5 24 31.5C28.136 31.5 31.5 28.136 31.5 24C31.5 19.864 28.136 16.5 24 16.5Z" fill="currentColor"/>
</g>
<defs>
<clipPath id="clip0_4_991">
<rect width="48" height="48" fill="currentColor"/>
</clipPath>
</defs>
</svg>
