<svg width="48" height="48" viewBox="0 0 48 48" fill="none" xmlns="http://www.w3.org/2000/svg">
<path d="M10.5 48C8.018 48 6 45.982 6 43.5V19.5C6 17.018 8.018 15 10.5 15H13.5C14.328 15 15 15.672 15 16.5C15 17.328 14.328 18 13.5 18H10.5C9.672 18 9 18.672 9 19.5V43.5C9 44.328 9.672 45 10.5 45H37.5C38.328 45 39 44.328 39 43.5V19.5C39 18.672 38.328 18 37.5 18H34.5C33.672 18 33 17.328 33 16.5C33 15.672 33.672 15 34.5 15H37.5C39.982 15 42 17.018 42 19.5V43.5C42 45.982 39.982 48 37.5 48H10.5Z" fill="currentColor"/>
<path d="M24 24C23.172 24 22.5 23.328 22.5 22.5V5.122L17.56 10.06C17.278 10.344 16.9 10.5 16.5 10.5C16.1 10.5 15.722 10.344 15.44 10.06C15.156 9.778 15 9.4 15 9C15 8.6 15.156 8.222 15.44 7.94L22.938 0.442C23.078 0.302 23.242 0.192 23.428 0.116C23.444 0.11 23.46 0.104 23.478 0.098C23.65 0.032 23.824 0 24 0C24.178 0 24.354 0.032 24.522 0.096C24.536 0.1 24.55 0.106 24.562 0.11C24.756 0.19 24.92 0.3 25.062 0.442L32.56 7.94C32.844 8.222 33 8.6 33 9C33 9.4 32.844 9.778 32.56 10.06C32.276 10.342 31.9 10.5 31.5 10.5C31.1 10.5 30.722 10.344 30.44 10.06L25.5 5.12V22.498C25.5 23.328 24.828 24 24 24Z" fill="currentColor"/>
</svg>
