<svg width="12" height="12" viewBox="0 0 12 12" fill="none" xmlns="http://www.w3.org/2000/svg">
<path d="M8.72477 8.25083C8.25775 8.25083 7.84266 8.41951 7.51834 8.69188L4.09352 6.81085C4.18437 6.59032 4.23622 6.34383 4.23622 6.09732C4.23622 5.83789 4.18437 5.60433 4.09352 5.38379L7.64807 3.39895C7.94642 3.60654 8.32268 3.73622 8.71189 3.73622C9.74974 3.73622 10.58 2.89303 10.58 1.86811C10.58 0.830261 9.73681 0 8.71189 0C7.68708 0 6.84378 0.843187 6.84378 1.86811C6.84378 2.2184 6.93463 2.5297 7.10321 2.8151L3.65244 4.73515C3.31517 4.42378 2.87403 4.22921 2.36811 4.22921C1.33026 4.22921 0.5 5.0724 0.5 6.09732C0.5 7.13517 1.34319 7.96543 2.36811 7.96543C2.8611 7.96543 3.3151 7.77087 3.65244 7.45949L7.03835 9.3276C6.92161 9.57411 6.85673 9.84647 6.85673 10.1319C6.85673 11.1697 7.69992 12 8.72484 12C9.74965 12 10.593 11.1568 10.593 10.1319C10.593 9.10697 9.74977 8.25085 8.72484 8.25085L8.72477 8.25083ZM8.72477 0.778485C9.32157 0.778485 9.81446 1.27148 9.81446 1.86818C9.81446 2.46498 9.32147 2.95787 8.72477 2.95787C8.12797 2.95787 7.63508 2.46488 7.63508 1.86818C7.63508 1.25855 8.11505 0.778485 8.72477 0.778485ZM2.36809 7.18706C1.77129 7.18706 1.27839 6.69407 1.27839 6.09737C1.27839 5.50057 1.77138 5.00767 2.36809 5.00767C2.96488 5.00767 3.45778 5.50066 3.45778 6.09737C3.45778 6.70709 2.97781 7.18706 2.36809 7.18706ZM8.72477 11.2086C8.12797 11.2086 7.63508 10.7156 7.63508 10.1189C7.63508 9.52214 8.12807 9.02925 8.72477 9.02925C9.32157 9.02925 9.81446 9.52224 9.81446 10.1189C9.81446 10.7156 9.32157 11.2086 8.72477 11.2086Z" fill="currentColor"/>
</svg>
