<svg width="48" height="48" viewBox="0 0 48 48" fill="none" xmlns="http://www.w3.org/2000/svg">
<g clip-path="url(#clip0_4_1096)">
<path d="M24.0001 48.002C23.0781 48.002 22.1721 47.834 21.3081 47.502L19.2261 46.702C9.52007 42.968 3.00007 33.474 3.00007 23.076V7.848C2.99007 6.096 4.01607 4.49 5.61207 3.76C11.3321 1.262 17.3721 0 23.5761 0L24.0141 0.002L24.3861 0C30.6161 0 36.6661 1.262 42.3641 3.75C43.9821 4.49 45.0121 6.1 45.0001 7.858V23.076C45.0001 33.474 38.4801 42.968 28.7741 46.702L26.6921 47.502C25.8281 47.834 24.9221 48.002 24.0001 48.002ZM23.6001 3C17.7941 3 12.1541 4.178 6.83607 6.498C6.33007 6.73 5.99607 7.258 6.00007 7.838V23.076C6.00007 32.242 11.7481 40.612 20.3021 43.902L22.3841 44.702C22.9041 44.902 23.4461 45.004 24.0001 45.004C24.5541 45.004 25.0961 44.902 25.6161 44.704L27.6981 43.904C36.2521 40.61 42.0001 32.242 42.0001 23.076V7.848C42.0041 7.262 41.6661 6.73 41.1401 6.488C35.8421 4.174 30.2021 3 24.3881 3L24.0141 3.002L23.6001 3Z" fill="currentColor"/>
<path d="M18 36C15.518 36 13.5 33.982 13.5 31.5V22.5C13.5 20.018 15.518 18 18 18H28.5V13.5C28.5 11.018 26.482 9 24 9C21.518 9 19.5 11.018 19.5 13.5C19.5 14.328 18.828 15 18 15C17.172 15 16.5 14.328 16.5 13.5C16.5 9.364 19.864 6 24 6C28.136 6 31.5 9.364 31.5 13.5V18.258C33.27 18.886 34.5 20.582 34.5 22.5V31.5C34.5 33.982 32.482 36 30 36H18ZM18 21.002C17.172 21.002 16.5 21.674 16.5 22.502V31.502C16.5 32.33 17.172 33.002 18 33.002H30C30.828 33.002 31.5 32.33 31.5 31.502V22.502C31.5 21.674 30.828 21.002 30 21.002H18Z" fill="currentColor"/>
<path d="M24 29.3076C25.2426 29.3076 26.25 28.3003 26.25 27.0576C26.25 25.815 25.2426 24.8076 24 24.8076C22.7574 24.8076 21.75 25.815 21.75 27.0576C21.75 28.3003 22.7574 29.3076 24 29.3076Z" fill="currentColor"/>
</g>
<defs>
<clipPath id="clip0_4_1096">
<rect width="48" height="48" fill="white"/>
</clipPath>
</defs>
</svg>
