<svg width="87" height="40" viewBox="0 0 87 40" fill="none" xmlns="http://www.w3.org/2000/svg">
    <path d="M80.3324 0.5C83.7359 0.5 86.4993 3.26328 86.4993 6.6668V33.3336C86.4993 36.7367 83.7359 39.5 80.3324 39.5H6.99887C3.5954 39.5 0.832031 36.7367 0.832031 33.3336V6.6668C0.832031 3.26328 3.59542 0.5 6.99887 0.5H80.3324Z" fill="currentColor" fill-opacity="0.2" stroke="currentColor"/>
    <path d="M27.4756 25.156C26.713 25.156 26.063 25.0173 25.5256 24.74C24.997 24.4627 24.542 24.09 24.1606 23.622L25.1746 22.673C25.4953 23.063 25.8463 23.3577 26.2276 23.557C26.6176 23.7563 27.0596 23.856 27.5536 23.856C28.1343 23.856 28.572 23.726 28.8666 23.466C29.1613 23.206 29.3086 22.855 29.3086 22.413C29.3086 22.0577 29.2046 21.776 28.9966 21.568C28.7886 21.36 28.4203 21.204 27.8916 21.1L27.0856 20.957C26.2016 20.7923 25.5386 20.502 25.0966 20.086C24.6546 19.67 24.4336 19.098 24.4336 18.37C24.4336 17.9713 24.5073 17.6117 24.6546 17.291C24.8106 16.9617 25.023 16.6887 25.2916 16.472C25.569 16.2467 25.9026 16.0733 26.2926 15.952C26.6826 15.8307 27.1203 15.77 27.6056 15.77C28.2903 15.77 28.884 15.8913 29.3866 16.134C29.8893 16.368 30.3183 16.7103 30.6736 17.161L29.6466 18.071C29.4126 17.7677 29.1266 17.525 28.7886 17.343C28.4506 17.161 28.0303 17.07 27.5276 17.07C27.0076 17.07 26.6046 17.174 26.3186 17.382C26.0326 17.59 25.8896 17.8933 25.8896 18.292C25.8896 18.6733 26.0066 18.9593 26.2406 19.15C26.4746 19.332 26.8386 19.4707 27.3326 19.566L28.1386 19.735C29.0486 19.9083 29.7116 20.203 30.1276 20.619C30.5523 21.035 30.7646 21.607 30.7646 22.335C30.7646 22.7597 30.691 23.1453 30.5436 23.492C30.3963 23.8387 30.1796 24.1377 29.8936 24.389C29.6163 24.6317 29.274 24.8223 28.8666 24.961C28.4593 25.091 27.9956 25.156 27.4756 25.156ZM38.1052 21.048H33.9972V25H32.5282V15.926H33.9972V19.748H38.1052V15.926H39.5742V25H38.1052V21.048ZM41.4184 25V23.804H42.6534V17.122H41.4184V15.926H45.3704V17.122H44.1224V23.804H45.3704V25H41.4184ZM47.2166 25V15.926H52.8846V17.226H48.6856V19.748H52.4166V21.048H48.6856V25H47.2166ZM57.9977 17.226V25H56.5287V17.226H53.8247V15.926H60.7017V17.226H57.9977Z" fill="currentColor"/>
</svg>
