<svg width="48" height="48" viewBox="0 0 48 48" fill="none" xmlns="http://www.w3.org/2000/svg">
<path d="M4.88978 44C2.74608 44 1 42.163 1 39.9076V8.09422C1 7.42124 1.15905 6.75191 1.46159 6.15897C1.95256 5.1968 2.77028 4.49291 3.76607 4.17643C4.1343 4.06002 4.5129 4 4.89324 4C5.5277 4 6.16217 4.16915 6.72748 4.48745L34.9465 20.3932C35.6242 20.7752 36.174 21.3536 36.537 22.0666C37.028 23.0306 37.1317 24.1364 36.8326 25.1841C36.5318 26.2299 35.8628 27.092 34.9465 27.6086L6.72748 43.5144C6.1639 43.8308 5.5277 44 4.88978 44ZM4.89151 6.73008C4.76531 6.73008 4.6391 6.75009 4.51463 6.79011C4.1827 6.89378 3.91128 7.12841 3.74705 7.45035C3.64678 7.64678 3.59319 7.8705 3.59319 8.09422V39.9058C3.59319 40.6588 4.17579 41.2699 4.88978 41.2699C5.10242 41.2699 5.31506 41.2135 5.50177 41.108L33.7226 25.2023C34.0285 25.0313 34.2498 24.7439 34.3501 24.3947C34.4504 24.0455 34.4158 23.6762 34.2516 23.3543C34.1305 23.116 33.9473 22.9232 33.7226 22.7959L5.5035 6.89378C5.3116 6.78465 5.10588 6.73008 4.89151 6.73008Z" fill="currentColor"/>
<path fill-rule="evenodd" clip-rule="evenodd" d="M43.2 6.2V41.8H44.8V6.2H43.2ZM43 4C41.8954 4 41 4.89543 41 6V42C41 43.1046 41.8954 44 43 44H45C46.1046 44 47 43.1046 47 42V6C47 4.89543 46.1046 4 45 4H43Z" fill="currentColor"/>
</svg>
