<svg width="24" height="25" viewBox="0 0 24 25" fill="none" xmlns="http://www.w3.org/2000/svg">
<path d="M3.5 18.3438L5.96062 15.6594C7.2357 14.2684 7.87325 13.5729 8.64911 13.5059C8.83911 13.4895 9.0305 13.5003 9.21743 13.5381C9.98076 13.6923 10.5357 14.4553 11.6456 15.9814L12.0206 16.4971C12.2408 16.7999 12.351 16.9513 12.4698 17.041C12.7999 17.29 13.2491 17.3103 13.6002 17.0919C13.7267 17.0133 13.8499 16.8724 14.0965 16.5906V16.5906C14.6309 15.9798 14.8982 15.6744 15.1661 15.5132C15.9118 15.0643 16.8622 15.1493 17.5165 15.7234C17.7515 15.9296 17.9603 16.2776 18.3779 16.9736L19.5 18.8438" stroke="currentColor"/>
<path d="M6.5 8.84375V5.34375" stroke="currentColor" stroke-linecap="round"/>
<path d="M17.5 8.84375V5.34375" stroke="currentColor" stroke-linecap="round"/>
<path d="M2.5 17.3438V7.34375M21.5 7.34375V17.3438" stroke="currentColor" stroke-linecap="round"/>
<path d="M17.5074 5.30673C19.1476 5.61382 20.3747 6.05008 21.0117 6.55257C21.6488 7.05507 21.6628 7.59783 21.0518 8.10256C20.4409 8.60729 19.2364 9.0479 17.6123 9.36085C15.9882 9.67379 14.0283 9.84289 12.0154 9.84375C10.0024 9.8446 8.0405 9.67718 6.41253 9.36562C4.78457 9.05406 3.57474 8.61448 2.95756 8.11027C2.34037 7.60606 2.34774 7.0633 2.97859 6.56026C3.60943 6.05722 4.83116 5.61992 6.46753 5.31143" stroke="currentColor" stroke-linecap="round"/>
<path d="M21.5 17.3438C21.5 18.0068 20.4991 18.6427 18.7175 19.1115C16.9359 19.5804 14.5196 19.8437 12 19.8437C9.48044 19.8438 7.06408 19.5804 5.28249 19.1115C3.50089 18.6427 2.5 18.0068 2.5 17.3438" stroke="currentColor"/>
</svg>
