<svg width="48" height="48" viewBox="0 0 48 48" fill="none" xmlns="http://www.w3.org/2000/svg">
<path d="M29.4 24C29.4 24.7333 29.0689 25.4227 28.4704 25.9415L5.71874 45.5967C5.41737 45.857 5.01836 46 4.59177 46C4.1673 46 3.76617 45.857 3.46692 45.5967C3.16554 45.3363 3 44.9917 3 44.625C3 44.2583 3.16554 43.9118 3.46692 43.6533L26.2165 24L3.46692 4.34667C3.16554 4.08633 3 3.74166 3 3.375C3 3.00834 3.16554 2.66183 3.46692 2.40333C3.76829 2.143 4.1673 2 4.59177 2C5.01624 2 5.41737 2.143 5.71662 2.40333L28.4683 22.0567C29.0689 22.5737 29.4 23.2648 29.4 24Z" fill="currentColor"/>
<path d="M44.4 24C44.4 24.7333 44.0689 25.4227 43.4704 25.9415L20.7187 45.5967C20.4174 45.857 20.0184 46 19.5918 46C19.1673 46 18.7662 45.857 18.4669 45.5967C18.1655 45.3363 18 44.9917 18 44.625C18 44.2583 18.1655 43.9118 18.4669 43.6533L41.2165 24L18.4669 4.34667C18.1655 4.08633 18 3.74166 18 3.375C18 3.00833 18.1655 2.66183 18.4669 2.40333C18.7683 2.143 19.1673 2 19.5918 2C20.0162 2 20.4174 2.143 20.7166 2.40333L43.4683 22.0567C44.0689 22.5737 44.4 23.2648 44.4 24Z" fill="currentColor"/>
</svg>
