<svg width="48" height="48" viewBox="0 0 48 48" fill="none" xmlns="http://www.w3.org/2000/svg">
<g clip-path="url(#clip0_4_1144)">
<path d="M24 48C10.766 48 0 37.234 0 24C0 10.766 10.766 0 24 0C37.234 0 48 10.766 48 24C48 37.234 37.234 48 24 48ZM24 3C12.42 3 3 12.42 3 24C3 35.58 12.42 45 24 45C35.58 45 45 35.58 45 24C45 12.42 35.58 3 24 3Z" fill="currentColor"/>
<path d="M24.0136 42.012C17.0216 42.012 10.7616 37.586 8.43958 31C8.32558 30.676 8.26758 30.34 8.26758 30C8.26758 29.2 8.57958 28.446 9.14558 27.878C9.71158 27.312 10.4656 27 11.2676 27H36.7316C37.0756 27 37.4136 27.058 37.7356 27.172C38.4876 27.438 39.0936 27.984 39.4396 28.706C39.7856 29.428 39.8276 30.244 39.5616 31C37.8936 35.732 34.2216 39.402 29.4896 41.072C27.7176 41.696 25.8756 42.012 24.0136 42.012ZM11.2656 30C13.1696 35.392 18.2896 39.012 24.0116 39.012C25.5356 39.012 27.0416 38.752 28.4896 38.242C32.3616 36.876 35.3656 33.872 36.7296 30H11.2656Z" fill="currentColor"/>
<path d="M36.9868 22.5C36.3508 22.5 35.7828 22.098 35.5728 21.498C35.3068 20.744 34.7608 20.136 34.0388 19.792C33.6288 19.596 33.1948 19.496 32.7488 19.496C32.4088 19.496 32.0728 19.554 31.7468 19.67C30.8868 19.974 30.2208 20.64 29.9168 21.5C29.7048 22.098 29.1368 22.5 28.5028 22.5C28.3328 22.5 28.1648 22.47 28.0028 22.414C27.6268 22.28 27.3228 22.008 27.1488 21.646C26.9768 21.284 26.9548 20.878 27.0888 20.5C27.6948 18.782 29.0288 17.448 30.7468 16.842C31.3968 16.614 32.0708 16.498 32.7488 16.498C33.6448 16.498 34.5148 16.696 35.3328 17.086C36.7788 17.778 37.8688 18.99 38.4028 20.502C38.5368 20.88 38.5148 21.286 38.3428 21.648C38.1708 22.01 37.8668 22.282 37.4888 22.416C37.3228 22.472 37.1548 22.5 36.9868 22.5Z" fill="currentColor"/>
<path d="M19.5005 22.5C18.8665 22.5 18.2985 22.098 18.0865 21.5C17.6645 20.302 16.5265 19.498 15.2545 19.498C14.9165 19.498 14.5805 19.556 14.2585 19.67C13.3985 19.974 12.7325 20.64 12.4285 21.5C12.2165 22.098 11.6485 22.5 11.0145 22.5C10.8445 22.5 10.6765 22.47 10.5145 22.414C10.1365 22.28 9.83448 22.008 9.66048 21.646C9.48848 21.284 9.46648 20.878 9.60048 20.5C10.2065 18.782 11.5405 17.448 13.2585 16.842C13.9025 16.614 14.5745 16.498 15.2525 16.498C17.7945 16.498 20.0685 18.106 20.9145 20.5C21.1905 21.28 20.7785 22.138 20.0005 22.414C19.8385 22.472 19.6705 22.5 19.5005 22.5Z" fill="currentColor"/>
</g>
<defs>
<clipPath id="clip0_4_1144">
<rect width="48" height="48" fill="currentColor"/>
</clipPath>
</defs>
</svg>
