<svg width="24" height="24" viewBox="0 0 24 24" fill="none" xmlns="http://www.w3.org/2000/svg">
<path d="M23.9997 12.9792C23.9997 13.2977 23.7478 13.556 23.4371 13.556H18.3274L17.3075 14.9319C17.1799 15.1043 16.9688 15.1889 16.7611 15.151C16.5532 15.1131 16.3835 14.959 16.3216 14.7521L15.4143 11.7212L14.6707 15.8717C14.6206 16.1502 14.3806 16.3503 14.1045 16.3438C13.8282 16.3372 13.5976 16.1259 13.5601 15.8454L12.8437 10.447L11.9514 20.2776C11.9246 20.5735 11.6826 20.8001 11.3928 20.8008C11.1034 20.8008 10.8613 20.5757 10.8329 20.2804L10.1416 13.0574L9.6117 17.4739C9.57696 17.7606 9.34073 17.9767 9.05908 17.9793H9.05358C8.77349 17.9793 8.53605 17.7681 8.49652 17.4838L7.75548 12.1486L6.97851 14.8913C6.90922 15.1375 6.68983 15.3075 6.43968 15.3085C6.18917 15.308 5.96911 15.1377 5.89996 14.8909L5.18779 12.3494L4.43935 13.1905C4.33155 13.3104 4.1799 13.3786 4.02086 13.3786L0.561024 13.3588C0.250336 13.358 -0.000878003 13.0992 2.30655e-06 12.7806C0.000862017 12.4621 0.253435 12.2045 0.564105 12.2054H0.567199L3.77707 12.2238L5.03495 10.81L5.03477 10.8098C5.17215 10.6553 5.38019 10.5892 5.57858 10.6368C5.777 10.6844 5.93484 10.8383 5.99106 11.0391L6.44376 12.6541L7.40642 9.25634C7.48035 8.99544 7.72209 8.82267 7.98654 8.84189C8.25081 8.8611 8.46622 9.06701 8.50355 9.33619L9.01422 13.0197L9.64676 7.73414C9.68149 7.44221 9.92495 7.22377 10.2117 7.22734C10.4985 7.23069 10.737 7.45493 10.765 7.74755L11.3771 14.1564L12.1785 5.325V5.32482C12.2046 5.03272 12.4405 4.80706 12.7266 4.80092C13.0127 4.79457 13.2579 5.00964 13.2961 5.3005L14.1999 12.1132L14.723 9.19286C14.7697 8.93125 14.9848 8.73647 15.2436 8.72094C15.5025 8.70561 15.7381 8.87343 15.8141 9.12764L17.0738 13.3383L17.5989 12.6301C17.7054 12.4866 17.871 12.4024 18.0469 12.4024H23.4374C23.5868 12.4025 23.7301 12.4634 23.8355 12.5718C23.941 12.68 24.0002 12.8269 24 12.9801L23.9997 12.9792Z" fill="currentcolor"/>
</svg>
