<svg width="48" height="48" viewBox="0 0 48 48" fill="none" xmlns="http://www.w3.org/2000/svg">
<path d="M26.6443 40.4942C25.6903 40.4942 24.7783 40.1962 24.0023 39.6322L11.2143 31.4942H5.65234C3.17034 31.4942 1.15234 29.4762 1.15234 26.9942V20.9942C1.15234 18.5122 3.17034 16.4942 5.65234 16.4942H11.2163L24.0063 8.35623C24.7843 7.78823 25.6983 7.49023 26.6523 7.49023C27.3443 7.49023 28.0423 7.65623 28.6683 7.96823C30.2023 8.73823 31.1543 10.2802 31.1523 11.9962V35.9942C31.1523 36.9602 30.8323 37.9202 30.2523 38.6942C29.5303 39.6562 28.4783 40.2782 27.2883 40.4482C27.0743 40.4802 26.8583 40.4942 26.6443 40.4942ZM25.6583 37.1282C25.6863 37.1462 25.7143 37.1662 25.7403 37.1842C26.0143 37.3902 26.3243 37.4942 26.6503 37.4942C26.7223 37.4942 26.7943 37.4902 26.8663 37.4782C27.2623 37.4222 27.6123 37.2142 27.8523 36.8942C28.0463 36.6362 28.1523 36.3162 28.1523 35.9942V11.9942C28.1523 11.4222 27.8363 10.9082 27.3243 10.6522C27.1123 10.5462 26.8863 10.4922 26.6523 10.4922C26.3283 10.4922 26.0183 10.5962 25.7563 10.7942C25.7243 10.8182 25.6923 10.8402 25.6603 10.8602L13.1523 18.8182V29.1702L25.6583 37.1282ZM5.65234 19.4942C4.82434 19.4942 4.15234 20.1662 4.15234 20.9942V26.9942C4.15234 27.8222 4.82434 28.4942 5.65234 28.4942H10.1523V19.4942H5.65234Z" fill="currentColor"/>
<path d="M35.6512 31.4952C35.1872 31.4952 34.7572 31.2872 34.4712 30.9212C33.9612 30.2712 34.0752 29.3252 34.7252 28.8152C37.1212 26.9372 37.5412 23.4632 35.6632 21.0672C35.3892 20.7172 35.0732 20.4012 34.7252 20.1292C34.0752 19.6192 33.9612 18.6752 34.4712 18.0232C34.7572 17.6572 35.1872 17.4492 35.6532 17.4492C35.9872 17.4492 36.3152 17.5632 36.5772 17.7672C37.1172 18.1912 37.6032 18.6772 38.0252 19.2152C39.4272 21.0032 40.0472 23.2332 39.7752 25.4952C39.5012 27.7572 38.3652 29.7732 36.5792 31.1752C36.3092 31.3852 35.9892 31.4952 35.6512 31.4952Z" fill="currentColor"/>
<path d="M41.6853 36C41.0962 36 40.5503 35.6446 40.1873 35.0192C39.5398 33.9086 40.7157 32.2922 41.5408 31.4208C44.3429 27.8182 44.8585 22.3636 42.7316 18.182C42.3838 17.5839 41.9826 17.044 41.5408 16.5792C40.7157 15.7078 39.5398 14.0948 40.1873 12.9808C40.5503 12.3554 41.0962 12 41.6878 12C42.1118 12 42.5282 12.1948 42.8608 12.5434C43.5464 13.2678 44.1634 14.0982 44.6991 15.0175C46.4789 18.0726 47.266 21.883 46.9207 25.748C46.5729 29.613 45.1307 33.0577 42.8634 35.4532C42.5206 35.812 42.1144 36 41.6853 36Z" fill="currentColor"/>
</svg>
