<svg width="16" height="16" viewBox="0 0 16 16" fill="none" xmlns="http://www.w3.org/2000/svg">
<g id="image-file-add 1" clip-path="url(#clip0_7087_33380)">
<path id="Vector" d="M11.5 16C9.01867 16 7 13.9813 7 11.5C7 9.01867 9.01867 7 11.5 7C13.9813 7 16 9.01867 16 11.5C16 13.9813 13.9813 16 11.5 16ZM11.5 8C9.57 8 8 9.57 8 11.5C8 13.43 9.57 15 11.5 15C13.43 15 15 13.43 15 11.5C15 9.57 13.43 8 11.5 8Z" fill="currentColor"/>
<path id="Vector_2" d="M11.5 14C11.224 14 11 13.776 11 13.5V12H9.5C9.224 12 9 11.776 9 11.5C9 11.224 9.224 11 9.5 11H11V9.5C11 9.224 11.224 9 11.5 9C11.776 9 12 9.224 12 9.5V11H13.5C13.776 11 14 11.224 14 11.5C14 11.776 13.776 12 13.5 12H12V13.5C12 13.776 11.776 14 11.5 14Z" fill="currentColor"/>
<path id="Vector_3" d="M1.5 14C0.672667 14 0 13.3273 0 12.5V1.5C0 0.672667 0.672667 0 1.5 0H8.586C8.98667 0 9.36267 0.156 9.646 0.438667L11.5607 2.35333C11.844 2.63667 12 3.01333 12 3.414V5.5C12 5.776 11.776 6 11.5 6C11.224 6 11 5.776 11 5.5V3.414C11 3.28267 10.9467 3.154 10.854 3.06067L8.93933 1.146C8.84467 1.052 8.71933 1 8.586 1H1.5C1.224 1 1 1.224 1 1.5V12.5C1 12.776 1.224 13 1.5 13H5.5C5.776 13 6 13.224 6 13.5C6 13.776 5.776 14 5.5 14H1.5Z" fill="currentColor"/>
<path id="Union" fill-rule="evenodd" clip-rule="evenodd" d="M6.78053 9.10842L5.10213 8.0404V5.89602L7.80204 4.17824L7.8025 4.17796C7.81263 4.17161 7.8225 4.1648 7.83212 4.15758L7.83249 4.1573C7.86839 4.13017 7.90991 4.11638 7.95351 4.11638C7.98503 4.11638 8.01546 4.12353 8.04491 4.13826C8.11458 4.17309 8.1573 4.24233 8.1573 4.32061V5.17924V7.37289L8.35548 7.23948C8.55862 7.10272 8.77372 6.98239 8.99885 6.88038L9.07353 6.84654V4.3212C9.07402 3.89434 8.83675 3.51012 8.45536 3.31868L8.45503 3.31852C8.29958 3.24104 8.12619 3.19971 7.95351 3.19971C7.71733 3.19971 7.49071 3.27323 7.29812 3.41277L4.51079 5.18629H3.32021C2.70237 5.18629 2.2002 5.68846 2.2002 6.30631V7.63011C2.2002 8.24795 2.70237 8.75012 3.32021 8.75012H4.51034L6.48755 10.0084L6.5303 9.83712C6.58439 9.62039 6.65448 9.41 6.73922 9.20725L6.78053 9.10842ZM8.28459 7.1339C8.28463 7.13388 8.28454 7.13393 8.28459 7.1339ZM6.62189 9.1582C6.6219 9.15819 6.62189 9.15822 6.62189 9.1582ZM3.11643 6.30631C3.11643 6.19385 3.20776 6.10252 3.32021 6.10252H4.1859V7.83389H3.32021C3.20776 7.83389 3.11643 7.74256 3.11643 7.63011V6.30631Z" fill="currentColor"/>
</g>
<defs>
<clipPath id="clip0_7087_33380">
<rect width="16" height="16" fill="white"/>
</clipPath>
</defs>
</svg>
