<svg width="48" height="48" viewBox="0 0 48 48" fill="none" xmlns="http://www.w3.org/2000/svg">
<path d="M28.6443 40.4942C27.6903 40.4942 26.7783 40.1962 26.0023 39.6322L13.2143 31.4942H7.65234C5.17034 31.4942 3.15234 29.4762 3.15234 26.9942V20.9942C3.15234 18.5122 5.17034 16.4942 7.65234 16.4942H13.2163L26.0063 8.35623C26.7843 7.78823 27.6983 7.49023 28.6523 7.49023C29.3443 7.49023 30.0423 7.65623 30.6683 7.96823C32.2023 8.73823 33.1543 10.2802 33.1523 11.9962V35.9942C33.1523 36.9602 32.8323 37.9202 32.2523 38.6942C31.5303 39.6562 30.4783 40.2782 29.2883 40.4482C29.0743 40.4802 28.8583 40.4942 28.6443 40.4942ZM27.6583 37.1282C27.6863 37.1462 27.7143 37.1662 27.7403 37.1842C28.0143 37.3902 28.3243 37.4942 28.6503 37.4942C28.7223 37.4942 28.7943 37.4902 28.8663 37.4782C29.2623 37.4222 29.6123 37.2142 29.8523 36.8942C30.0463 36.6362 30.1523 36.3162 30.1523 35.9942V11.9942C30.1523 11.4222 29.8363 10.9082 29.3243 10.6522C29.1123 10.5462 28.8863 10.4922 28.6523 10.4922C28.3283 10.4922 28.0183 10.5962 27.7563 10.7942C27.7243 10.8182 27.6923 10.8402 27.6603 10.8602L15.1523 18.8182V29.1702L27.6583 37.1282ZM7.65234 19.4942C6.82434 19.4942 6.15234 20.1662 6.15234 20.9942V26.9942C6.15234 27.8222 6.82434 28.4942 7.65234 28.4942H12.1523V19.4942H7.65234Z" fill="currentColor"/>
<path d="M40.6512 31.4933C40.1872 31.4933 39.7572 31.2853 39.4712 30.9193C38.9612 30.2693 39.0752 29.3233 39.7252 28.8133C42.1212 26.9353 42.5412 23.4613 40.6632 21.0653C40.3892 20.7153 40.0732 20.3993 39.7252 20.1273C39.0752 19.6173 38.9612 18.6733 39.4712 18.0213C39.7572 17.6553 40.1872 17.4473 40.6532 17.4473C40.9872 17.4473 41.3152 17.5613 41.5772 17.7653C42.1172 18.1893 42.6032 18.6753 43.0252 19.2133C44.4272 21.0013 45.0472 23.2313 44.7752 25.4933C44.5012 27.7553 43.3652 29.7713 41.5792 31.1733C41.3092 31.3833 40.9892 31.4933 40.6512 31.4933Z" fill="currentColor"/>
</svg>
