<svg width="48" height="48" viewBox="0 0 48 48" fill="none" xmlns="http://www.w3.org/2000/svg">
<path d="M12 45C11.172 45 10.5 44.328 10.5 43.5C10.5 42.672 11.172 42 12 42H15.23L16.23 36H6C2.692 36 0 33.308 0 30V9C0 5.692 2.692 3 6 3H42C45.308 3 48 5.692 48 9V30C48 33.308 45.308 36 42 36H31.77L32.77 42H36C36.828 42 37.5 42.672 37.5 43.5C37.5 44.328 36.828 45 36 45H12ZM29.73 42L28.73 36H19.27L18.27 42H29.73ZM6 6C4.346 6 3 7.346 3 9V30C3 31.654 4.346 33 6 33H42C43.654 33 45 31.654 45 30V9C45 7.346 43.654 6 42 6H6Z" fill="currentColor"/>
<path d="M19.4052 29.2582C19.0572 29.2582 18.7072 29.1742 18.3952 29.0182C18.0492 28.8462 17.7512 28.5822 17.5332 28.2562L12.6952 21.0002H6.86523C6.03723 21.0002 5.36523 20.3282 5.36523 19.5002C5.36523 18.6722 6.03723 18.0002 6.86523 18.0002H13.0972C13.8532 18.0002 14.5532 18.3762 14.9712 19.0042L19.3152 25.5162L26.5812 10.9842C26.7572 10.6342 27.0212 10.3362 27.3432 10.1222C27.7132 9.87419 28.1452 9.74219 28.5912 9.74219C28.7392 9.74219 28.8872 9.75619 29.0332 9.78619C29.6232 9.90419 30.1332 10.2442 30.4652 10.7442L35.3032 18.0002H39.8652C40.6932 18.0002 41.3652 18.6722 41.3652 19.5002C41.3652 20.3282 40.6932 21.0002 39.8652 21.0002H34.9012C34.1452 21.0002 33.4452 20.6242 33.0292 19.9982L28.6852 13.4842L21.4192 28.0162C21.1472 28.5562 20.6852 28.9562 20.1152 29.1442C19.8852 29.2202 19.6452 29.2582 19.4052 29.2582Z" fill="currentColor"/>
</svg>
