<svg width="18" height="18" viewBox="0 0 18 18" fill="none" xmlns="http://www.w3.org/2000/svg">
<path fill-rule="evenodd" clip-rule="evenodd" d="M2.9333 10.2444C3.22329 10.5342 3.72724 10.4026 3.89838 10.0302C3.93209 9.95676 3.95043 9.87801 3.95043 9.79723V3.375C3.95043 2.59835 4.58033 1.96874 5.35734 1.96874C6.1344 1.96874 6.76424 2.59835 6.76424 3.375V6.62546C6.76424 6.90497 7.05074 7.0947 7.31738 7.01049C7.48609 6.95717 7.60804 6.80361 7.60804 6.6267V1.40626C7.60804 0.629601 8.23794 -2.03691e-07 9.01495 0C9.79195 2.03691e-07 10.4219 0.629601 10.4219 1.40626V6.62631C10.4219 6.80332 10.5439 6.957 10.7127 7.01032C10.9795 7.09459 11.2662 6.90474 11.2662 6.62507V3.37499C11.2662 2.59835 11.8961 1.96874 12.6731 1.96874C13.4501 1.96874 14.08 2.59835 14.08 3.375L14.08 9.79937C14.08 9.87862 14.098 9.95591 14.1311 10.0279C14.2987 10.3922 14.7912 10.5198 15.0749 10.2362L15.5983 9.71308C16.1477 9.16391 17.0385 9.16391 17.5879 9.71308C18.1374 10.2622 18.1374 11.1526 17.5879 11.7019L13.4519 15.8359C12.4219 17.1532 10.8175 18 9.01523 18C7.28795 18 5.74238 17.2222 4.71005 15.9978L0.412067 11.7018C-0.137356 11.1526 -0.137356 10.2622 0.412067 9.71308C0.961493 9.16391 1.85229 9.16391 2.40177 9.71308L2.9333 10.2444ZM9.01557 15.7501C6.52912 15.7501 4.51342 12.9376 4.51342 12.9376C4.51342 12.9376 6.52912 10.125 9.01557 10.125C11.502 10.125 13.5177 12.9376 13.5177 12.9376C13.5177 12.9376 11.502 15.7501 9.01557 15.7501Z" fill="#FC4847"/>
<path d="M7.3265 12.9375C7.3265 13.8695 8.0824 14.6251 9.01484 14.6251C9.94722 14.6251 10.7031 13.8695 10.7031 12.9375C10.7031 12.0055 9.94722 11.25 9.01484 11.25C8.0824 11.25 7.3265 12.0055 7.3265 12.9375Z" fill="#FC4847"/>
</svg>
