<svg width="48" height="48" viewBox="0 0 48 48" fill="none" xmlns="http://www.w3.org/2000/svg">
<path d="M10.8301 47.7247C9.17412 47.7247 7.82812 46.3787 7.82812 44.7227C7.82812 44.5227 7.84812 44.3227 7.88812 44.1267L10.0481 33.3307C10.4081 31.5627 11.7821 30.2047 13.5001 29.8307V26.7247C13.5001 25.0707 14.8461 23.7247 16.5001 23.7247H22.5001V17.7247H19.0001C19.0001 17.7247 18.9601 17.7267 18.9201 17.7267C17.6361 17.7267 16.5741 16.7087 16.5041 15.4067L16.5001 8.12666C16.5741 6.76066 17.6521 5.72466 18.9561 5.72466C18.9961 5.72466 19.0341 5.72466 19.0741 5.72666L29.0001 5.72466C29.0001 5.72266 29.0461 5.72266 29.0921 5.72266C30.3461 5.72266 31.4261 6.76266 31.4981 8.04066L31.5001 15.3247C31.4261 16.7107 30.3681 17.7267 29.0401 17.7267H25.5001V23.7267H31.5001C33.1541 23.7267 34.5001 25.0727 34.5001 26.7267V29.8327C36.2261 30.2087 37.5981 31.5707 37.9521 33.3447L40.1121 44.1447C40.2661 44.9387 40.1041 45.7407 39.6541 46.4047C39.2041 47.0707 38.5241 47.5207 37.7381 47.6727C37.5501 47.7087 37.3581 47.7267 37.1701 47.7267H10.8301V47.7247ZM37.1701 44.7247L35.0121 33.9307C34.8721 33.2327 34.2541 32.7247 33.5401 32.7247H14.4601C13.7481 32.7247 13.1301 33.2287 12.9881 33.9247L10.8281 44.7187L19.5001 44.7247V37.2247C19.5001 36.3967 20.1721 35.7247 21.0001 35.7247H27.0001C27.8281 35.7247 28.5001 36.3967 28.5001 37.2247V44.7247H37.1701ZM25.5001 44.7247V38.7247H22.5001V44.7247H25.5001ZM31.5001 29.7247V26.7247H16.5001V29.7247H31.5001ZM19.5001 14.7267H22.5001V8.72466H19.4981L19.5001 14.7267ZM25.5001 14.7267H28.5021L28.5001 8.72466H25.5001V14.7267Z" fill="currentColor"/>
<path d="M35.8324 19.5976C35.5844 19.5976 35.3404 19.5356 35.1224 19.4176C34.7704 19.2276 34.5124 18.9116 34.3964 18.5276C34.2804 18.1436 34.3224 17.7376 34.5124 17.3856C36.4204 13.8416 36.4204 9.60956 34.5124 6.06356C34.3224 5.71156 34.2804 5.30556 34.3964 4.92156C34.5104 4.53756 34.7684 4.22156 35.1224 4.03156C35.3404 3.91356 35.5864 3.85156 35.8324 3.85156C36.3864 3.85156 36.8924 4.15356 37.1544 4.64156C39.5424 9.07556 39.5424 14.3716 37.1544 18.8076C36.8904 19.2936 36.3844 19.5976 35.8324 19.5976Z" fill="currentColor"/>
<path d="M12.1677 19.5975C11.6157 19.5975 11.1077 19.2955 10.8457 18.8095C8.45769 14.3735 8.45769 9.07752 10.8457 4.64352C11.1077 4.15552 11.6137 3.85352 12.1677 3.85352C12.4137 3.85352 12.6597 3.91552 12.8777 4.03352C13.6077 4.42352 13.8797 5.33552 13.4877 6.06352C11.5797 9.60752 11.5797 13.8415 13.4877 17.3855C13.8797 18.1135 13.6077 19.0255 12.8797 19.4175C12.6597 19.5355 12.4157 19.5975 12.1677 19.5975Z" fill="currentColor"/>
<path d="M5.51398 23.1795C4.95998 23.1795 4.45398 22.8775 4.19198 22.3895C0.603976 15.7115 0.603976 7.73948 4.19198 1.06148C4.45198 0.573484 4.95998 0.271484 5.51398 0.271484C5.75998 0.271484 6.00598 0.333484 6.22398 0.451484C6.95198 0.839484 7.22598 1.75148 6.83598 2.47948C3.72598 8.26748 3.72598 15.1795 6.83598 20.9675C7.02598 21.3195 7.06598 21.7255 6.94998 22.1095C6.83398 22.4935 6.57598 22.8095 6.22398 22.9995C6.00798 23.1175 5.76198 23.1795 5.51398 23.1795Z" fill="currentColor"/>
<path d="M42.4857 23.1794C42.2377 23.1794 41.9937 23.1174 41.7757 22.9994C41.4237 22.8094 41.1657 22.4954 41.0497 22.1114C40.9337 21.7274 40.9757 21.3214 41.1657 20.9694C44.2757 15.1814 44.2757 8.26944 41.1657 2.48144C40.9757 2.12944 40.9357 1.72344 41.0497 1.33944C41.1657 0.955437 41.4237 0.641438 41.7757 0.451438C41.9937 0.335438 42.2377 0.273438 42.4837 0.273438C43.0377 0.273438 43.5457 0.575438 43.8057 1.06344C47.3937 7.73944 47.3937 15.7134 43.8057 22.3914C43.5457 22.8754 43.0397 23.1794 42.4857 23.1794Z" fill="currentColor"/>
</svg>
