<svg width="20" height="20" viewBox="0 0 20 20" fill="none" xmlns="http://www.w3.org/2000/svg">
<path d="M20 4.01898C19.4086 4.87919 18.7231 5.57812 17.9435 6.11575V6.68027C17.9435 8.02436 17.6882 9.3886 17.1774 10.773C16.6667 12.1574 15.9207 13.4074 14.9395 14.523C13.9583 15.6386 12.7419 16.5526 11.2903 17.2649C9.83871 17.9773 8.17204 18.3335 6.29032 18.3335C5.10753 18.3335 3.99194 18.1722 2.94355 17.8496C1.89516 17.527 0.913978 17.0701 0 16.4787C0.16129 16.5055 0.322581 16.5257 0.483871 16.5391C0.645161 16.5526 0.806452 16.5593 0.967742 16.5593C1.93548 16.5593 2.85618 16.398 3.72984 16.0754C4.60349 15.7528 5.38978 15.3227 6.08871 14.7851C5.17473 14.7582 4.375 14.4827 3.68952 13.9585C3.00403 13.4343 2.52688 12.7555 2.25806 11.9222C2.39247 11.976 2.52016 12.0028 2.64113 12.0028H3.02419C3.40054 12.0028 3.75 11.9625 4.07258 11.8819C3.13172 11.6668 2.35215 11.1897 1.73387 10.4504C1.11559 9.71118 0.806452 8.84425 0.806452 7.84962V7.8093C1.10215 7.94371 1.39785 8.05796 1.69355 8.15204C1.98925 8.24613 2.31183 8.29317 2.66129 8.29317C2.12366 7.91683 1.68683 7.43296 1.35081 6.84156C1.01478 6.25016 0.846774 5.605 0.846774 4.90608C0.846774 4.15339 1.03495 3.4679 1.41129 2.84963C2.4328 4.08618 3.66935 5.08753 5.12097 5.85366C6.57258 6.61979 8.14516 7.04317 9.83871 7.12382C9.75806 6.80124 9.71774 6.4921 9.71774 6.1964C9.71774 5.63188 9.82527 5.10097 10.0403 4.60366C10.2554 4.10635 10.5511 3.66952 10.9274 3.29317C11.3038 2.91683 11.7406 2.62113 12.2379 2.40608C12.7352 2.19102 13.2661 2.0835 13.8306 2.0835C14.422 2.0835 14.9731 2.19774 15.4839 2.42624C15.9946 2.65473 16.4382 2.97059 16.8145 3.37382C17.2984 3.29317 17.7554 3.16549 18.1855 2.99075C18.6156 2.81602 19.0323 2.60769 19.4355 2.36575C19.1129 3.36038 18.5081 4.12651 17.621 4.66414C18.4812 4.52973 19.2742 4.31468 20 4.01898Z" fill="currentColor"/>
</svg>
