<svg width="48" height="48" viewBox="0 0 48 48" fill="none" xmlns="http://www.w3.org/2000/svg">
<path d="M33.3573 15.2915H6.77971L14.0956 7.96693H14.0958C14.441 7.6529 14.6428 7.21116 14.6532 6.74428C14.664 6.27767 14.4829 5.82705 14.1521 5.4973C13.8216 5.16782 13.3701 4.98829 12.9035 5.00059C12.4366 5.01289 11.9954 5.21597 11.6826 5.56246L1.45051 15.7946V15.7949C1.36991 15.8747 1.29821 15.9634 1.23723 16.0592C1.21315 16.0861 1.19038 16.1147 1.16919 16.1442L1.08387 16.3149C1.06163 16.3701 1.04462 16.4271 1.03258 16.4855C1.02787 16.5336 1.02787 16.582 1.03258 16.6305C0.989139 16.8498 0.989139 17.0759 1.03258 17.2954C1.02787 17.3436 1.02787 17.3923 1.03258 17.4404C1.04462 17.4985 1.06163 17.5556 1.08387 17.6108L1.16919 17.7814C1.19143 17.8259 1.21708 17.8686 1.24586 17.9094C1.30684 18.0052 1.37828 18.0939 1.45889 18.1737L11.691 28.4059H11.6913C12.0053 28.7356 12.4381 28.9258 12.8935 28.9345C13.3442 28.9326 13.776 28.7523 14.0942 28.4328C14.4124 28.1135 14.5914 27.6809 14.5917 27.2303C14.5919 26.7794 14.4135 26.3468 14.0958 26.027L6.77992 18.7025H33.3575C37.0129 18.7025 40.3906 20.6526 42.2189 23.8184C44.0472 26.9842 44.0466 30.8843 42.2189 34.0505C40.3912 37.2163 37.0132 39.1665 33.3575 39.1665H9.48316C8.87393 39.1665 8.31102 39.4915 8.0064 40.0191C7.70178 40.547 7.70178 41.197 8.0064 41.7246C8.31102 42.2522 8.87391 42.5772 9.48316 42.5772H33.3575C36.9757 42.5772 40.4455 41.14 43.0041 38.5813C45.5627 36.0229 47 32.5529 47 28.9347C47 25.3165 45.5628 21.8467 43.0041 19.2881C40.4457 16.7297 36.9756 15.2922 33.3575 15.2922L33.3573 15.2915Z" fill="currentColor"/>
</svg>
