<svg width="48" height="48" viewBox="0 0 48 48" fill="none" xmlns="http://www.w3.org/2000/svg">
<g clip-path="url(#clip0_4_980)">
<path d="M34.5 27C27.056 27 21 20.944 21 13.5C21 6.056 27.056 0 34.5 0C41.944 0 48 6.056 48 13.5C48 20.944 41.944 27 34.5 27ZM34.5 3C28.71 3 24 7.71 24 13.5C24 19.29 28.71 24 34.5 24C40.29 24 45 19.29 45 13.5C45 7.71 40.29 3 34.5 3Z" fill="currentColor"/>
<path d="M34.5 21C33.672 21 33 20.328 33 19.5V11.122L31.06 13.062C30.778 13.344 30.4 13.5 30 13.5C29.6 13.5 29.222 13.344 28.94 13.06C28.656 12.778 28.5 12.4 28.5 12C28.5 11.6 28.656 11.222 28.94 10.94L33.44 6.44C33.58 6.3 33.746 6.19 33.93 6.114C33.944 6.108 33.962 6.102 33.978 6.096C34.14 6.034 34.318 6 34.5 6C34.678 6 34.852 6.032 35.022 6.096C35.044 6.104 35.066 6.112 35.086 6.12C35.256 6.19 35.42 6.3 35.562 6.44L40.062 10.94C40.344 11.222 40.5 11.6 40.5 12C40.5 12.4 40.344 12.778 40.06 13.06C39.776 13.342 39.4 13.5 39 13.5C38.6 13.5 38.222 13.344 37.94 13.06L36 11.122V19.5C36 20.328 35.328 21 34.5 21Z" fill="currentColor"/>
<path d="M12 48C11.172 48 10.5 47.328 10.5 46.5C10.5 45.672 11.172 45 12 45H15.328L16.078 42H7.5C3.364 42 0 38.636 0 34.5V13.5C0 9.364 3.364 6 7.5 6H16.5C17.328 6 18 6.672 18 7.5C18 8.328 17.328 9 16.5 9H7.5C5.018 9 3 11.018 3 13.5V33H45V28.5C45 27.672 45.672 27 46.5 27C47.328 27 48 27.672 48 28.5V34.5C48 38.636 44.636 42 40.5 42H31.92L32.67 45H36C36.828 45 37.5 45.672 37.5 46.5C37.5 47.328 36.828 48 36 48H12ZM29.58 45L28.83 42H19.172L18.422 45H29.58ZM3.264 36C3.89 37.758 5.58 39 7.5 39H40.5C42.42 39 44.11 37.758 44.736 36H3.264Z" fill="currentColor"/>
<path d="M34.5 27C27.056 27 21 20.944 21 13.5C21 6.056 27.056 0 34.5 0C41.944 0 48 6.056 48 13.5C48 20.944 41.944 27 34.5 27ZM34.5 3C28.71 3 24 7.71 24 13.5C24 19.29 28.71 24 34.5 24C40.29 24 45 19.29 45 13.5C45 7.71 40.29 3 34.5 3Z" fill="currentColor"/>
</g>
<defs>
<clipPath id="clip0_4_980">
<rect width="48" height="48" fill="currentColor"/>
</clipPath>
</defs>
</svg>
