<svg width="48" height="48" viewBox="0 0 48 48" fill="none" xmlns="http://www.w3.org/2000/svg">
<path d="M0 14.8979C1.56535 13.1284 3.16473 11.529 4.79814 10.0998C6.15932 8.87471 7.69064 7.71771 9.39211 6.62877C11.0936 5.53983 12.727 4.82521 14.2923 4.48492C15.9258 4.21268 17.2019 4.58701 18.1206 5.60789C19.0394 6.62877 19.7541 7.95592 20.2645 9.58933C20.7749 11.2227 21.1663 13.0263 21.4385 15C21.7108 16.9737 22.051 18.7092 22.4594 20.2065C23.208 23.133 23.8886 25.396 24.5012 26.9954C25.1137 28.5947 25.7602 29.3944 26.4408 29.3944C27.1214 29.3944 28.0572 28.6458 29.2483 27.1485C30.4393 25.6512 31.7154 23.6435 33.0766 21.1253C33.7572 19.9002 34.1145 18.7262 34.1485 17.6032C34.1825 16.4803 33.9273 15.5785 33.3828 14.8979C32.8384 14.2173 32.0557 13.826 31.0348 13.7239C30.0139 13.6218 28.8229 13.9791 27.4617 14.7958C27.802 12.686 28.6187 10.8654 29.9118 9.33411C31.205 7.80278 32.6682 6.59474 34.3016 5.70998C35.935 4.82521 37.6535 4.28074 39.4571 4.07657C41.2606 3.87239 42.843 4.07657 44.2042 4.6891C45.5654 5.30162 46.6032 6.35653 47.3179 7.85383C48.0325 9.35112 48.1856 11.2908 47.7773 13.6729C47.0967 17.28 45.7695 20.7169 43.7958 23.9838C41.8221 27.2506 39.6783 30.1771 37.3643 32.7633C35.0503 35.3496 32.7873 37.5445 30.5754 39.348C28.3635 41.1516 26.679 42.3937 25.522 43.0742C24.365 43.8229 23.2761 44.1632 22.2552 44.0951C21.2343 44.0271 20.2815 43.7548 19.3968 43.2784C18.512 42.802 17.7293 42.1725 17.0487 41.3898C16.3681 40.6071 15.8237 39.8415 15.4153 39.0928C15.1431 38.5483 14.7688 37.6295 14.2923 36.3364C13.8159 35.0433 13.3225 33.58 12.8121 31.9466C12.3016 30.3132 11.7572 28.5947 11.1787 26.7912C10.6002 24.9876 10.0557 23.3202 9.54524 21.7889C9.0348 20.2575 8.57541 18.9644 8.16705 17.9095C7.7587 16.8546 7.45244 16.191 7.24826 15.9188C6.90797 15.5785 6.43155 15.4424 5.81903 15.5104C5.2065 15.5785 4.628 15.7486 4.08353 16.0209C3.40294 16.2931 2.68832 16.7355 1.93968 17.348L0 14.8979Z" fill="currentColor"/>
</svg>
