<svg width="12" height="12" viewBox="0 0 12 12" fill="none" xmlns="http://www.w3.org/2000/svg">
<g id="Group">
<path id="Vector" d="M6.63637 0C5.88799 0 5.27273 0.615258 5.27273 1.36364V3C5.27273 3.00303 5.21914 3.21711 5.08097 3.46023C4.9428 3.70335 4.73995 3.99614 4.50143 4.29119C4.20055 4.66338 3.84168 5.04308 3.50001 5.34375V5.18182C3.49999 5.07332 3.45689 4.96928 3.38017 4.89256C3.30346 4.81584 3.19941 4.77274 3.09091 4.77273H0.909097C0.894902 4.77199 0.880678 4.77199 0.866483 4.77273C0.765534 4.78331 0.672123 4.83104 0.604396 4.90664C0.536669 4.98224 0.499463 5.08032 0.500006 5.18182V11.1818C0.500017 11.2903 0.543121 11.3944 0.619838 11.4711C0.696555 11.5478 0.800602 11.5909 0.909097 11.5909H3.09091C3.19795 11.5909 3.30073 11.549 3.3772 11.4741C3.45368 11.3992 3.49777 11.2974 3.50001 11.1903C3.58495 11.2494 3.67379 11.321 3.77273 11.4119C4.02266 11.6417 4.30567 12 4.81677 12H9.09091C9.83929 12 10.4546 11.3847 10.4546 10.6364C10.4546 10.4333 10.4114 10.2362 10.331 10.0611C10.65 9.81119 10.8636 9.43379 10.8636 9C10.8636 8.76338 10.7918 8.54741 10.6847 8.35227C10.9555 8.10285 11.1364 7.7584 11.1364 7.36364C11.1364 7.12702 11.0646 6.91105 10.9574 6.71591C11.2282 6.46649 11.4091 6.12203 11.4091 5.72727C11.4091 4.97889 10.7938 4.36364 10.0455 4.36364C10.0313 4.3629 10.017 4.3629 10.0028 4.36364C9.94912 4.36643 9.89646 4.37977 9.84789 4.40291C9.79932 4.42605 9.75578 4.45853 9.71977 4.4985C9.68375 4.53847 9.65596 4.58514 9.63798 4.63585C9.62001 4.68656 9.61219 4.74031 9.61499 4.79404C9.61779 4.84777 9.63114 4.90042 9.65429 4.94898C9.67744 4.99755 9.70993 5.04108 9.7499 5.07709C9.78988 5.1131 9.83655 5.14088 9.88727 5.15885C9.93798 5.17682 9.99173 5.18463 10.0455 5.18182C10.3547 5.18182 10.5909 5.41801 10.5909 5.72727C10.5909 5.96839 10.4423 6.15801 10.233 6.23438C10.1649 6.25936 10.1048 6.30196 10.0586 6.35784C10.0124 6.41371 9.98194 6.48084 9.97023 6.55236C9.95853 6.62388 9.96603 6.69723 9.99198 6.7649C10.0179 6.83257 10.0614 6.89214 10.1179 6.9375C10.2421 7.03796 10.3182 7.18771 10.3182 7.36364C10.3182 7.60475 10.1696 7.79438 9.96023 7.87074C9.8922 7.89572 9.83203 7.93833 9.78586 7.9942C9.7397 8.05007 9.70921 8.1172 9.69751 8.18872C9.6858 8.26025 9.69331 8.33359 9.71925 8.40127C9.7452 8.46894 9.78866 8.5285 9.84518 8.57386C9.96941 8.67432 10.0455 8.82408 10.0455 9C10.0455 9.26234 9.87079 9.46532 9.63211 9.52415C9.55964 9.54187 9.49339 9.57907 9.44054 9.63173C9.38768 9.68439 9.35023 9.7505 9.33224 9.82291C9.31425 9.89531 9.3164 9.97126 9.33846 10.0425C9.36052 10.1138 9.40164 10.1777 9.45739 10.2273C9.56772 10.3262 9.63637 10.4696 9.63637 10.6364C9.63637 10.9456 9.40017 11.1818 9.09091 11.1818H4.81677C4.78687 11.1818 4.59598 11.0586 4.32671 10.8111C4.12233 10.6232 3.85563 10.387 3.50001 10.2827V6.37926C4.06634 5.9952 4.65294 5.40484 5.13637 4.80682C5.39687 4.48457 5.62344 4.16274 5.79262 3.86506C5.9618 3.56738 6.09091 3.3156 6.09091 3V1.36364C6.09091 1.05438 6.32711 0.818182 6.63637 0.818182C6.94563 0.818182 7.18182 1.05438 7.18182 1.36364V3.54545C7.18182 3.93207 7.04039 4.33462 6.89205 4.48295C6.83466 4.54018 6.79555 4.61316 6.77969 4.69264C6.76383 4.77212 6.77194 4.85452 6.80298 4.92939C6.83403 5.00426 6.88661 5.06822 6.95405 5.11316C7.0215 5.1581 7.10078 5.182 7.18182 5.18182H8.68182C8.73603 5.18258 8.78985 5.17257 8.84016 5.15236C8.89046 5.13214 8.93625 5.10213 8.97486 5.06407C9.01346 5.026 9.04412 4.98065 9.06504 4.93063C9.08597 4.88062 9.09674 4.82694 9.09674 4.77273C9.09674 4.71851 9.08597 4.66484 9.06504 4.61482C9.04412 4.56481 9.01346 4.51945 8.97486 4.48139C8.93625 4.44333 8.89046 4.41331 8.84016 4.3931C8.78985 4.37289 8.73603 4.36287 8.68182 4.36364H7.88495C7.96841 4.10133 8.00001 3.81981 8.00001 3.54545V1.36364C8.00001 0.615258 7.38475 0 6.63637 0ZM1.31819 5.59091H2.68182V10.7727H1.31819V5.59091Z" fill="currentColor"/>
</g>
</svg>
