<svg width="66" height="61" viewBox="0 0 66 61" fill="none" xmlns="http://www.w3.org/2000/svg">
<path d="M61.8124 1L36.8398 19.5475L41.4579 8.60471L61.8124 1Z" fill="#E2761B" stroke="#E2761B" stroke-linecap="round" stroke-linejoin="round"/>
<path d="M4.16215 1L28.9339 19.7231L24.5418 8.60471L4.16215 1ZM52.8272 43.9929L46.1763 54.1827L60.4069 58.098L64.4978 44.2188L52.8272 43.9929ZM1.52686 44.2188L5.59274 58.098L19.8233 54.1827L13.1723 43.9929L1.52686 44.2188Z" fill="#E4761B" stroke="#E4761B" stroke-linecap="round" stroke-linejoin="round"/>
<path d="M19.0202 26.7761L15.0547 32.7745L29.1849 33.402L28.6829 18.2177L19.0202 26.7761ZM46.9543 26.7761L37.1661 18.042L36.8398 33.402L50.9449 32.7745L46.9543 26.7761ZM19.8233 54.1832L28.3065 50.042L20.9778 44.3196L19.8233 54.1832ZM37.668 50.042L46.1763 54.1832L44.9967 44.3196L37.668 50.042Z" fill="#E4761B" stroke="#E4761B" stroke-linecap="round" stroke-linejoin="round"/>
<path d="M46.1767 54.1832L37.6684 50.042L38.3461 55.5887L38.2708 57.9228L46.1767 54.1832ZM19.8237 54.1832L27.7296 57.9228L27.6794 55.5887L28.3069 50.042L19.8237 54.1832Z" fill="#D7C1B3" stroke="#D7C1B3" stroke-linecap="round" stroke-linejoin="round"/>
<path d="M27.8545 40.6551L20.7769 38.572L25.7714 36.2881L27.8545 40.6551ZM38.1196 40.6551L40.2027 36.2881L45.2223 38.572L38.1196 40.6551Z" fill="#233447" stroke="#233447" stroke-linecap="round" stroke-linejoin="round"/>
<path d="M19.8233 54.183L21.028 43.9932L13.1724 44.2191L19.8233 54.183ZM44.9716 43.9932L46.1763 54.183L52.8273 44.2191L44.9716 43.9932ZM50.9449 32.7744L36.8398 33.4019L38.1449 40.6552L40.2281 36.2881L45.2477 38.5721L50.9449 32.7744ZM20.7771 38.5721L25.7967 36.2881L27.8547 40.6552L29.1849 33.4019L15.0547 32.7744L20.7771 38.5721Z" fill="#CD6116" stroke="#CD6116" stroke-linecap="round" stroke-linejoin="round"/>
<path d="M15.0547 32.7744L20.9778 44.3195L20.777 38.5721L15.0547 32.7744ZM45.2476 38.5721L44.9967 44.3195L50.9449 32.7744L45.2476 38.5721ZM29.1849 33.4019L27.8547 40.6552L29.5112 49.2136L29.8876 37.9446L29.1849 33.4019ZM36.8398 33.4019L36.1621 37.9195L36.4633 49.2136L38.1449 40.6552L36.8398 33.4019Z" fill="#E4751F" stroke="#E4751F" stroke-linecap="round" stroke-linejoin="round"/>
<path d="M38.1447 40.6544L36.4631 49.2129L37.6678 50.0411L44.9965 44.3187L45.2474 38.5713L38.1447 40.6544ZM20.7769 38.5713L20.9776 44.3187L28.3063 50.0411L29.511 49.2129L27.8545 40.6544L20.7769 38.5713Z" fill="#F6851B" stroke="#F6851B" stroke-linecap="round" stroke-linejoin="round"/>
<path d="M38.2708 57.9222L38.3461 55.5881L37.7186 55.036H28.2567L27.6794 55.5881L27.7296 57.9222L19.8237 54.1826L22.5845 56.4414L28.1814 60.3316H37.7939L43.4159 56.4414L46.1767 54.1826L38.2708 57.9222Z" fill="#C0AD9E" stroke="#C0AD9E" stroke-linecap="round" stroke-linejoin="round"/>
<path d="M37.6677 50.0411L36.463 49.2129H29.5109L28.3062 50.0411L27.6787 55.5878L28.256 55.0356H37.7179L38.3454 55.5878L37.6677 50.0411Z" fill="#161616" stroke="#161616" stroke-linecap="round" stroke-linejoin="round"/>
<path d="M62.8667 20.7522L65 10.5122L61.8126 1L37.6682 18.92L46.9545 26.7757L60.0808 30.6157L62.9922 27.2275L61.7373 26.3239L63.7451 24.4918L62.189 23.2871L64.1969 21.7561L62.8667 20.7522ZM1 10.5122L3.13333 20.7522L1.77804 21.7561L3.78588 23.2871L2.2549 24.4918L4.26275 26.3239L3.00784 27.2275L5.89412 30.6157L19.0204 26.7757L28.3067 18.92L4.16235 1L1 10.5122Z" fill="#763D16" stroke="#763D16" stroke-linecap="round" stroke-linejoin="round"/>
<path d="M60.0806 30.6155L46.9543 26.7755L50.9449 32.7739L44.9967 44.319L52.8272 44.2186H64.4978L60.0806 30.6155ZM19.0202 26.7755L5.89391 30.6155L1.52686 44.2186H13.1723L20.9778 44.319L15.0547 32.7739L19.0202 26.7755ZM36.8398 33.4014L37.668 18.9198L41.4829 8.60449H24.5418L28.3065 18.9198L29.1849 33.4014L29.4861 37.9692L29.5112 49.2131H36.4633L36.5135 37.9692L36.8398 33.4014Z" fill="#F6851B" stroke="#F6851B" stroke-linecap="round" stroke-linejoin="round"/>
</svg>
