<svg width="64" height="64" viewBox="0 0 64 64" fill="none" xmlns="http://www.w3.org/2000/svg">
<circle cx="32" cy="32" r="32" fill="white"/>
<path fill-rule="evenodd" clip-rule="evenodd" d="M32 64C49.6731 64 64 49.6731 64 32C64 14.3269 49.6731 0 32 0C14.3269 0 0 14.3269 0 32C0 49.6731 14.3269 64 32 64ZM32 50.625C42.3553 50.625 50.75 42.2303 50.75 31.875C50.75 21.5197 42.3553 13.125 32 13.125C21.6447 13.125 13.25 21.5197 13.25 31.875C13.25 42.2303 21.6447 50.625 32 50.625Z" fill="#1C55E7"/>
<rect x="26" y="26" width="12" height="12" rx="2" fill="#2058EA"/>
</svg>
