<svg width="373" height="690" viewBox="0 0 373 690" fill="none" xmlns="http://www.w3.org/2000/svg">
<path fill-rule="evenodd" clip-rule="evenodd" d="M354.809 225.963L271.885 143.039C250.525 121.679 215.892 121.679 194.532 143.039L58.6033 278.968V270.821C58.6033 265.986 60.5231 261.349 63.9425 257.93L186.699 135.166C208.06 113.805 208.06 79.1725 186.699 57.8128L141.386 12.5017C134.547 5.66433 125.273 1.82324 115.602 1.82324H83.7398C64.9389 1.82324 49.4729 16.054 47.4988 34.3303L9.38664 72.4353C-1.29465 83.1151 -1.29598 100.431 9.38245 111.112L47.2758 149.014V91.7751H129.889C131.72 91.7751 133.554 92.284 134.998 93.4076C138.8 96.3709 139.053 101.879 135.752 105.18L12.0542 228.876C5.21689 235.715 1.37427 244.99 1.37427 254.66V313.209C1.37427 322.88 5.21689 332.154 12.0542 338.993L64.0912 391.031C70.93 397.87 80.2046 401.713 89.8766 401.713H157.693V680.43C157.693 684.81 161.242 688.359 165.622 688.359C170.001 688.359 173.55 684.81 173.55 680.43V401.713L241.305 401.721C250.977 401.723 260.254 397.882 267.093 391.041L296.877 361.259L180.981 245.363C178.812 243.196 178.812 239.682 180.981 237.515C183.148 235.346 186.662 235.346 188.829 237.515L304.725 353.409L345.181 312.953L229.285 197.057C227.118 194.89 227.118 191.376 229.285 189.209C231.452 187.042 234.966 187.042 237.135 189.209L353.029 305.105L354.813 303.321C376.172 281.957 376.17 247.324 354.809 225.963Z" fill="white"/>
</svg>
