<svg width="600" height="262" viewBox="0 0 600 262" fill="none" xmlns="http://www.w3.org/2000/svg">
<path d="M288.919 34.3208V28.9187H300.85L329.768 0H300.85L271.929 28.9187H260V57.8396H288.919V73.5472L268.469 93.9966L288.919 114.446V92.1604L305.853 109.095L285.41 129.538L305.86 149.987H346.748L346.758 150V92.1604L288.919 34.3208Z" fill="white"/>
<path d="M0 215.585C0 190.288 19.1608 170 45.4599 170C71.7591 170 90.9199 190.288 90.9199 215.585C90.9199 240.882 71.7591 261.17 45.4599 261.17C19.1608 261.17 0 240.757 0 215.585ZM72.5105 215.585C72.5105 199.054 60.8637 186.907 45.4599 186.907C30.0562 186.907 18.4094 199.054 18.4094 215.585C18.4094 232.116 30.0562 244.264 45.4599 244.264C60.8637 244.264 72.5105 232.116 72.5105 215.585Z" fill="white"/>
<path d="M107.148 171.688H139.96C168.388 171.688 188.05 189.721 188.05 215.519C188.05 241.318 168.388 259.351 139.96 259.351H107.148V171.688V171.688ZM138.457 243.196C157.993 243.196 169.515 232.802 169.515 215.519C169.515 198.237 157.993 187.843 138.457 187.843H125.182V243.196H138.457V243.196Z" fill="white"/>
<path d="M223.352 220.028L189.414 171.688H210.704L232.495 202.871L254.411 171.688H275.074L241.261 219.652V259.351H223.352V220.028V220.028Z" fill="white"/>
<path d="M281.266 251.778V232.993C288.153 239.129 301.679 244.639 313.826 244.639C322.593 244.639 330.733 241.509 330.733 234.496C330.733 226.856 322.468 225.353 311.197 221.847C296.043 217.088 281.892 212.955 281.892 195.047C281.892 179.393 294.666 170 314.954 170C326.726 170 336.494 173.381 343.632 177.264V194.796C336.494 190.413 325.598 186.531 315.204 186.531C304.81 186.531 300.301 190.288 300.301 195.172C300.301 201.684 309.694 202.811 321.591 206.568C335.742 211.202 349.393 217.338 349.393 233.995C349.393 250.651 334.114 261.17 314.578 261.17C301.804 261.17 289.907 257.789 281.266 251.778V251.778Z" fill="white"/>
<path d="M360.023 251.778V232.993C366.911 239.129 380.437 244.639 392.584 244.639C401.351 244.639 409.491 241.509 409.491 234.496C409.491 226.856 401.225 225.353 389.954 221.847C374.801 217.088 360.65 212.955 360.65 195.047C360.65 179.393 373.423 170 393.711 170C405.483 170 415.252 173.381 422.39 177.264V194.796C415.252 190.413 404.356 186.531 393.962 186.531C383.567 186.531 379.059 190.288 379.059 195.172C379.059 201.684 388.452 202.811 400.349 206.568C414.5 211.202 428.151 217.338 428.151 233.995C428.151 250.651 412.872 261.17 393.336 261.17C380.562 261.17 368.665 257.789 360.023 251.778V251.778Z" fill="white"/>
<path d="M443.078 171.688H507.448V187.843H461.112V204.749H498.432V220.654H461.112V243.196H508.826V259.351H443.078V171.688Z" fill="white"/>
<path d="M548.282 220.028L514.344 171.688H535.634L557.424 202.871L579.34 171.688H600.004L566.191 219.652V259.351H548.282V220.028V220.028Z" fill="white"/>
</svg>
