<svg width="64" height="64" viewBox="0 0 64 64" fill="none" xmlns="http://www.w3.org/2000/svg">
<path fill-rule="evenodd" clip-rule="evenodd" d="M53.5705 36.4246C52.5394 37.455 50.7476 36.9872 50.1391 35.6628C50.0192 35.4018 49.954 35.1218 49.954 34.8346V12C49.954 9.23856 47.7144 6.99998 44.9517 6.99998C42.1888 6.99998 39.9494 9.23856 39.9494 12V23.5572C39.9494 24.551 38.9307 25.2256 37.9827 24.9262C37.3828 24.7366 36.9492 24.1906 36.9492 23.5616V5.00002C36.9492 2.23858 34.7095 -7.24236e-07 31.9468 0C29.1842 7.24236e-07 26.9445 2.23858 26.9445 5.00002V23.5602C26.9445 24.1896 26.5107 24.736 25.9102 24.9256C24.9616 25.2252 23.9425 24.5502 23.9425 23.5558V12C23.9425 9.23856 21.7029 6.99996 18.9402 6.99998C16.1775 6.99998 13.9378 9.23856 13.9378 12L13.9379 34.8422C13.9379 35.124 13.8738 35.3988 13.7561 35.6548C13.1602 36.9502 11.4092 37.4036 10.4005 36.3954L8.53955 34.5354C6.586 32.5828 3.41869 32.5828 1.46515 34.5354C-0.488387 36.488 -0.488383 39.6538 1.46516 41.6066L16.1711 56.3056C19.8333 60.9892 25.5379 64 31.9458 64C38.0873 64 43.5827 61.2344 47.2532 56.8812L62.5349 41.6064C64.4884 39.6538 64.4884 36.488 62.5349 34.5354C60.5814 32.5828 57.4141 32.5828 55.4604 34.5354L53.5705 36.4246ZM31.9446 56.0002C40.7854 56.0002 47.9523 46.0002 47.9523 46.0002C47.9523 46.0002 40.7854 36 31.9446 36C23.1039 36 15.9371 46.0002 15.9371 46.0002C15.9371 46.0002 23.1039 56.0002 31.9446 56.0002Z" fill="#FC4847"/>
</svg>
