<svg width="1920" height="1040" viewBox="0 0 1920 1040" fill="none"
  xmlns="http://www.w3.org/2000/svg">
  <g clip-path="url(#clip0_4732_125332)">
    <rect width="1920" height="1040" fill="#921B1B" />
    <circle cx="930" cy="490" r="10" fill="white" fill-opacity="0.6" />
    <circle cx="1003" cy="534" r="20" fill="white" fill-opacity="0.6" />
    <circle cx="1068" cy="480" r="20" fill="white" fill-opacity="0.6" />
    <circle cx="908" cy="410" r="20" fill="white" fill-opacity="0.6" />
    <circle cx="960" cy="262" r="40" fill="white" fill-opacity="0.6" />
    <circle cx="1152" cy="426" r="40" fill="white" fill-opacity="0.6" />
    <circle cx="1348" cy="560" r="40" fill="white" fill-opacity="0.6" />
    <circle cx="1174" cy="830" r="40" fill="white" fill-opacity="0.6" />
    <circle cx="1040" cy="652" r="40" fill="white" fill-opacity="0.6" />
    <circle cx="716" cy="562" r="40" fill="white" fill-opacity="0.6" />
    <circle cx="392" cy="472" r="40" fill="white" fill-opacity="0.6" />
    <circle cx="796" cy="724" r="40" fill="white" fill-opacity="0.6" />
    <circle cx="748" cy="340" r="20" fill="white" fill-opacity="0.6" />
    <circle cx="588" cy="270" r="20" fill="white" fill-opacity="0.6" />
    <circle cx="636" cy="466" r="20" fill="white" fill-opacity="0.6" />
    <circle cx="684" cy="662" r="20" fill="white" fill-opacity="0.6" />
    <circle cx="732" cy="858" r="20" fill="white" fill-opacity="0.6" />
    <circle cx="826" cy="746" r="20" fill="white" fill-opacity="0.6" />
    <circle cx="920" cy="634" r="20" fill="white" fill-opacity="0.6" />
    <circle cx="840" cy="540" r="20" fill="white" fill-opacity="0.6" />
    <circle cx="760" cy="446" r="20" fill="white" fill-opacity="0.6" />
    <circle cx="542" cy="610" r="20" fill="white" fill-opacity="0.6" />
    <circle cx="324" cy="774" r="20" fill="white" fill-opacity="0.6" />
    <circle cx="606" cy="766" r="20" fill="white" fill-opacity="0.6" />
    <circle cx="888" cy="758" r="20" fill="white" fill-opacity="0.6" />
    <circle cx="1170" cy="750" r="20" fill="white" fill-opacity="0.6" />
    <circle cx="1452" cy="742" r="20" fill="white" fill-opacity="0.6" />
    <circle cx="1360" cy="640" r="20" fill="white" fill-opacity="0.6" />
    <circle cx="1268" cy="538" r="20" fill="white" fill-opacity="0.6" />
    <circle cx="1248" cy="410" r="20" fill="white" fill-opacity="0.6" />
    <circle cx="1384" cy="328" r="20" fill="white" fill-opacity="0.6" />
    <circle cx="1520" cy="246" r="20" fill="white" fill-opacity="0.6" />
    <circle cx="1180" cy="200" r="20" fill="white" fill-opacity="0.6" />
    <circle cx="840" cy="154" r="20" fill="white" fill-opacity="0.6" />
    <circle cx="1084" cy="334" r="20" fill="white" fill-opacity="0.6" />
    <circle cx="1030" cy="410" r="10" fill="white" fill-opacity="0.6" />
    <circle cx="1130" cy="330" r="10" fill="white" fill-opacity="0.6" />
    <circle cx="1230" cy="250" r="10" fill="white" fill-opacity="0.6" />
    <circle cx="1330" cy="170" r="10" fill="white" fill-opacity="0.6" />
    <circle cx="1350" cy="350" r="10" fill="white" fill-opacity="0.6" />
    <circle cx="1370" cy="530" r="10" fill="white" fill-opacity="0.6" />
    <circle cx="1390" cy="710" r="10" fill="white" fill-opacity="0.6" />
    <circle cx="1220" cy="802" r="10" fill="white" fill-opacity="0.6" />
    <circle cx="1050" cy="894" r="10" fill="white" fill-opacity="0.6" />
    <circle cx="880" cy="986" r="10" fill="white" fill-opacity="0.6" />
    <circle cx="970" cy="782" r="10" fill="white" fill-opacity="0.6" />
    <circle cx="1060" cy="578" r="10" fill="white" fill-opacity="0.6" />
    <circle cx="1150" cy="374" r="10" fill="white" fill-opacity="0.6" />
    <circle cx="990" cy="330" r="10" fill="white" fill-opacity="0.6" />
    <circle cx="830" cy="286" r="10" fill="white" fill-opacity="0.6" />
    <circle cx="670" cy="242" r="10" fill="white" fill-opacity="0.6" />
    <circle cx="510" cy="198" r="10" fill="white" fill-opacity="0.6" />
    <circle cx="350" cy="154" r="10" fill="white" fill-opacity="0.6" />
    <circle cx="410" cy="266" r="10" fill="white" fill-opacity="0.6" />
    <circle cx="470" cy="378" r="10" fill="white" fill-opacity="0.6" />
    <circle cx="530" cy="490" r="10" fill="white" fill-opacity="0.6" />
    <circle cx="590" cy="602" r="10" fill="white" fill-opacity="0.6" />
    <circle cx="650" cy="714" r="10" fill="white" fill-opacity="0.6" />
    <circle cx="680" cy="836" r="10" fill="white" fill-opacity="0.6" />
    <circle cx="732" cy="782" r="10" fill="white" fill-opacity="0.6" />
    <circle cx="784" cy="728" r="10" fill="white" fill-opacity="0.6" />
    <circle cx="836" cy="674" r="10" fill="white" fill-opacity="0.6" />
    <circle cx="888" cy="620" r="10" fill="white" fill-opacity="0.6" />
    <circle cx="794" cy="578" r="10" fill="white" fill-opacity="0.6" />
    <circle cx="700" cy="536" r="10" fill="white" fill-opacity="0.6" />
    <circle cx="606" cy="494" r="10" fill="white" fill-opacity="0.6" />
    <circle cx="512" cy="452" r="10" fill="white" fill-opacity="0.6" />
    <circle cx="418" cy="410" r="10" fill="white" fill-opacity="0.6" />
    <circle cx="324" cy="368" r="10" fill="white" fill-opacity="0.6" />
    <circle cx="230" cy="326" r="10" fill="white" fill-opacity="0.6" />
    <circle cx="136" cy="284" r="10" fill="white" fill-opacity="0.6" />
    <circle cx="188" cy="452" r="10" fill="white" fill-opacity="0.6" />
    <circle cx="240" cy="620" r="10" fill="white" fill-opacity="0.6" />
    <circle cx="292" cy="788" r="10" fill="white" fill-opacity="0.6" />
    <circle cx="344" cy="956" r="10" fill="white" fill-opacity="0.6" />
    <circle cx="430" cy="836" r="10" fill="white" fill-opacity="0.6" />
    <circle cx="516" cy="716" r="10" fill="white" fill-opacity="0.6" />
    <circle cx="602" cy="596" r="10" fill="white" fill-opacity="0.6" />
    <circle cx="688" cy="476" r="10" fill="white" fill-opacity="0.6" />
    <circle cx="774" cy="356" r="10" fill="white" fill-opacity="0.6" />
    <circle cx="860" cy="236" r="10" fill="white" fill-opacity="0.6" />
    <circle cx="946" cy="116" r="10" fill="#D9D9D9" />
    <circle cx="1060" cy="198" r="10" fill="white" fill-opacity="0.6" />
    <circle cx="1174" cy="280" r="10" fill="white" fill-opacity="0.6" />
    <circle cx="1288" cy="362" r="10" fill="white" fill-opacity="0.6" />
    <circle cx="1402" cy="444" r="10" fill="white" fill-opacity="0.6" />
    <circle cx="1516" cy="526" r="10" fill="white" fill-opacity="0.6" />
    <circle cx="1630" cy="608" r="10" fill="white" fill-opacity="0.6" />
    <circle cx="1580" cy="782" r="10" fill="white" fill-opacity="0.6" />
    <circle cx="1530" cy="956" r="10" fill="white" fill-opacity="0.6" />
    <circle cx="1422" cy="894" r="10" fill="white" fill-opacity="0.6" />
    <circle cx="1314" cy="832" r="10" fill="white" fill-opacity="0.6" />
    <circle cx="1206" cy="770" r="10" fill="white" fill-opacity="0.6" />
    <circle cx="1098" cy="708" r="10" fill="white" fill-opacity="0.6" />
    <circle cx="1194" cy="640" r="10" fill="white" fill-opacity="0.6" />
    <circle cx="1290" cy="572" r="10" fill="white" fill-opacity="0.6" />
    <circle cx="1386" cy="504" r="10" fill="white" fill-opacity="0.6" />
    <circle cx="1482" cy="436" r="10" fill="white" fill-opacity="0.6" />
    <circle cx="1578" cy="368" r="10" fill="white" fill-opacity="0.6" />
    <circle cx="1674" cy="300" r="10" fill="white" fill-opacity="0.6" />
    <circle cx="1516" cy="306" r="10" fill="white" fill-opacity="0.6" />
    <circle cx="1358" cy="312" r="10" fill="white" fill-opacity="0.6" />
    <circle cx="1200" cy="318" r="10" fill="white" fill-opacity="0.6" />
    <circle cx="1042" cy="324" r="10" fill="white" fill-opacity="0.6" />
    <circle cx="884" cy="330" r="10" fill="white" fill-opacity="0.6" />
    <circle cx="726" cy="336" r="10" fill="white" fill-opacity="0.6" />
    <circle cx="568" cy="342" r="10" fill="white" fill-opacity="0.6" />
    <circle cx="410" cy="348" r="10" fill="white" fill-opacity="0.6" />
    <circle cx="252" cy="354" r="10" fill="white" fill-opacity="0.6" />
    <circle cx="94" cy="360" r="10" fill="white" fill-opacity="0.6" />
    <circle cx="292" cy="444" r="10" fill="white" fill-opacity="0.6" />
    <circle cx="490" cy="528" r="10" fill="white" fill-opacity="0.6" />
    <circle cx="688" cy="612" r="10" fill="white" fill-opacity="0.6" />
    <circle cx="886" cy="696" r="10" fill="white" fill-opacity="0.6" />
    <circle cx="1084" cy="780" r="10" fill="white" fill-opacity="0.6" />
    <circle cx="1282" cy="864" r="10" fill="white" fill-opacity="0.6" />
    <circle cx="1272" cy="784" r="10" fill="white" fill-opacity="0.6" />
    <circle cx="1262" cy="704" r="10" fill="white" fill-opacity="0.6" />
    <circle cx="1252" cy="624" r="10" fill="white" fill-opacity="0.6" />
    <circle cx="1242" cy="544" r="10" fill="white" fill-opacity="0.6" />
    <circle cx="1232" cy="464" r="10" fill="white" fill-opacity="0.6" />
    <circle cx="1222" cy="384" r="10" fill="white" fill-opacity="0.6" />
    <circle cx="1212" cy="304" r="10" fill="white" fill-opacity="0.6" />
    <circle cx="1202" cy="224" r="10" fill="white" fill-opacity="0.6" />
    <circle cx="1192" cy="144" r="10" fill="white" fill-opacity="0.6" />
    <circle cx="1132" cy="254" r="10" fill="white" fill-opacity="0.6" />
    <circle cx="1072" cy="364" r="10" fill="white" fill-opacity="0.6" />
    <circle cx="1012" cy="474" r="10" fill="white" fill-opacity="0.6" />
    <circle cx="952" cy="584" r="10" fill="white" fill-opacity="0.6" />
    <circle cx="892" cy="694" r="10" fill="white" fill-opacity="0.6" />
    <circle cx="832" cy="804" r="10" fill="white" fill-opacity="0.6" />
    <circle cx="772" cy="914" r="10" fill="white" fill-opacity="0.6" />
    <circle cx="990" cy="646" r="10" fill="white" fill-opacity="0.6" />
    <rect width="1920" height="1040" fill="black" fill-opacity="0.2" />
  </g>
</svg>