<svg width="701" height="687" viewBox="0 0 701 687" fill="none" xmlns="http://www.w3.org/2000/svg">
<rect width="686" height="686" transform="translate(0 0.823242)" fill="#F24DFF"/>
<g filter="url(#filter0_i_5_30)">
<path fill-rule="evenodd" clip-rule="evenodd" d="M481.248 256.546L420.422 195.669C404.754 179.989 379.351 179.989 363.683 195.669L263.978 295.457V289.477C263.978 285.928 265.386 282.523 267.894 280.013L357.937 189.89C373.606 174.208 373.606 148.784 357.937 133.103L324.7 99.8393C319.684 94.8198 312.881 92 305.787 92H282.416C268.625 92 257.281 102.447 255.833 115.864L227.877 143.838C220.042 151.678 220.041 164.39 227.874 172.231L255.669 200.056V158.035H316.266C317.61 158.035 318.955 158.409 320.014 159.234C322.803 161.409 322.989 165.453 320.568 167.876L229.834 258.684C224.819 263.705 222 270.514 222 277.613V320.595C222 327.694 224.819 334.503 229.834 339.523L268.003 377.726C273.02 382.746 279.823 385.567 286.917 385.567H336.661V590.179C336.661 593.394 339.265 596 342.477 596C345.689 596 348.293 593.394 348.293 590.179V385.567L397.991 385.573C405.086 385.574 411.891 382.754 416.907 377.733L438.754 355.869L353.743 270.787C352.152 269.197 352.152 266.617 353.743 265.026C355.333 263.434 357.91 263.434 359.5 265.026L444.51 350.107L474.186 320.407L389.175 235.325C387.585 233.734 387.585 231.155 389.175 229.564C390.764 227.973 393.342 227.973 394.933 229.564L479.942 314.645L481.251 313.336C496.917 297.652 496.916 272.227 481.248 256.546Z" fill="black"/>
</g>
<defs>
<filter id="filter0_i_5_30" x="222" y="92" width="271" height="508" filterUnits="userSpaceOnUse" color-interpolation-filters="sRGB">
<feFlood flood-opacity="0" result="BackgroundImageFix"/>
<feBlend mode="normal" in="SourceGraphic" in2="BackgroundImageFix" result="shape"/>
<feColorMatrix in="SourceAlpha" type="matrix" values="0 0 0 0 0 0 0 0 0 0 0 0 0 0 0 0 0 0 127 0" result="hardAlpha"/>
<feOffset dy="4"/>
<feGaussianBlur stdDeviation="2"/>
<feComposite in2="hardAlpha" operator="arithmetic" k2="-1" k3="1"/>
<feColorMatrix type="matrix" values="0 0 0 0 0 0 0 0 0 0 0 0 0 0 0 0 0 0 0.25 0"/>
<feBlend mode="normal" in2="shape" result="effect1_innerShadow_5_30"/>
</filter>
</defs>
</svg>
